<?xml version="1.0" standalone="no"?>
<!DOCTYPE svg PUBLIC "-//W3C//DTD SVG 1.1//EN" "http://www.w3.org/Graphics/SVG/1.1/DTD/svg11.dtd" >
<svg xmlns="http://www.w3.org/2000/svg" xmlns:xlink="http://www.w3.org/1999/xlink" version="1.1">
<metadata>
Created by FontForge 20170731 at Wed Feb 15 14:23:33 2017
 By Aleksey,,,
Copyright (c) 2014-2017 Monotype Imaging Inc. All rights reserved.
</metadata>
<defs>
<font id="FrutigerLTArabic-75Black" horiz-adv-x="1251" >
  <font-face 
    font-family="Frutiger LT Arabic 75 Black"
    font-weight="800"
    font-stretch="normal"
    units-per-em="2048"
    panose-1="2 11 10 3 3 5 4 2 2 4"
    ascent="1577"
    descent="-471"
    x-height="1067"
    cap-height="1430"
    bbox="-498 -1121 3253 2786"
    underline-thickness="50"
    underline-position="-175"
    unicode-range="U+000D-FEFC"
  />
<missing-glyph horiz-adv-x="1049" 
d="M1049 1470v-1470h-1049v1470h1049zM102 102h844v1264h-844v-1264zM457 541q0 51 8 86.5t31 73.5t69 87l33 34q43 42 62.5 72.5t19.5 76.5q0 49 -21.5 88.5t-57.5 62.5t-77 23q-69 0 -112 -48.5t-56 -146.5l-102 17q12 135 84.5 207.5t191.5 72.5q73 0 130.5 -33.5
t90.5 -94t33 -140.5q0 -75 -29 -127.5t-102 -120.5q-43 -40 -61.5 -62.5t-26 -47.5t-8.5 -68l-2 -74h-94q-1 5 -2.5 23t-1.5 39zM569 377v-137h-114v137h114z" />
    <glyph glyph-name="uniFEF5" unicode="&#xfedf;&#xfe82;" horiz-adv-x="1618" arabic-form="isolated" 
d="M483 285v732h360v-732h263v1155h362v-1440h-1348v285h363zM935 1276q-36 -33 -76.5 -44.5t-103.5 -11.5q-43 0 -92.5 15t-127.5 54q-132 69 -194 69q-38 0 -77.5 -18t-71.5 -54l-109 103q56 74 124 114t129 40q37 0 89 -17t133 -54q82 -37 129.5 -53.5t78.5 -16.5
q54 0 94 27t62 74l133 -74q-54 -95 -120 -153z" />
    <glyph glyph-name="uniFEF6" unicode="&#xfee0;&#xfe82;" horiz-adv-x="1695" arabic-form="final" 
d="M1386 122q-42 -59 -110.5 -90.5t-159.5 -31.5h-996v285h335v732h360v-732h205q37 0 55 21t18 69v1065h361v-1100q98 -55 229 -55h11q28 0 42 -8.5t19.5 -28.5t5.5 -58v-75q0 -45 -4.5 -69t-18 -35t-40.5 -11h-11q-78 0 -156.5 32t-144.5 90zM907 1276
q-36 -33 -76.5 -44.5t-103.5 -11.5q-43 0 -92.5 15t-127.5 54q-132 69 -194 69q-38 0 -77.5 -18t-71.5 -54l-109 103q56 74 124 114t129 40q37 0 89 -17t133 -54q82 -37 129.5 -53.5t78.5 -16.5q54 0 94 27t62 74l133 -74q-54 -95 -120 -153z" />
    <glyph glyph-name="uniFEF7" unicode="&#xfedf;&#xfe84;" horiz-adv-x="1618" arabic-form="isolated" 
d="M483 285v732h360v-732h263v1155h362v-1440h-1348v285h363zM520 1399q-23 42 -23 75q0 60 31.5 103.5t83 65t111.5 21.5q34 0 64.5 -3t81.5 -10l-15 -157q-42 14 -93 14q-36 0 -57 -13t-21 -34q0 -29 31 -45.5t80 -16.5h83v-159h-424v159h67z" />
    <glyph glyph-name="uniFEF8" unicode="&#xfee0;&#xfe84;" horiz-adv-x="1695" arabic-form="final" 
d="M1386 122q-42 -59 -110.5 -90.5t-159.5 -31.5h-996v285h335v732h360v-732h205q37 0 55 21t18 69v1065h361v-1100q98 -55 229 -55h11q28 0 42 -8.5t19.5 -28.5t5.5 -58v-75q0 -45 -4.5 -69t-18 -35t-40.5 -11h-11q-78 0 -156.5 32t-144.5 90zM492 1399q-23 42 -23 75
q0 60 31.5 103.5t83 65t111.5 21.5q34 0 64.5 -3t81.5 -10l-15 -157q-42 14 -93 14q-36 0 -57 -13t-21 -34q0 -29 31 -45.5t80 -16.5h83v-159h-424v159h67z" />
    <glyph glyph-name="uniFEF9" unicode="&#xfedf;&#xfe88;" horiz-adv-x="1618" arabic-form="isolated" 
d="M483 285v732h360v-732h263v1155h362v-1440h-1348v285h363zM499 -442q-23 41 -23 74q0 60 31.5 103.5t82.5 65t110 21.5q36 0 66.5 -3t81.5 -10l-15 -156q-37 13 -93 13q-36 0 -57 -13t-21 -34q0 -27 29.5 -44t77.5 -17h87v-160h-424v160h67z" />
    <glyph glyph-name="uniFEFA" unicode="&#xfee0;&#xfe88;" horiz-adv-x="1695" arabic-form="final" 
d="M1386 122q-42 -59 -110.5 -90.5t-159.5 -31.5h-996v285h335v732h360v-732h205q37 0 55 21t18 69v1065h361v-1100q98 -55 229 -55h11q28 0 42 -8.5t19.5 -28.5t5.5 -58v-75q0 -45 -4.5 -69t-18 -35t-40.5 -11h-11q-78 0 -156.5 32t-144.5 90zM471 -442q-23 41 -23 74
q0 60 31.5 103.5t82.5 65t110 21.5q36 0 66.5 -3t81.5 -10l-15 -156q-37 13 -93 13q-36 0 -57 -13t-21 -34q0 -27 29.5 -44t77.5 -17h87v-160h-424v160h67z" />
    <glyph glyph-name="uniFEFB" unicode="&#xfedf;&#xfe8e;" horiz-adv-x="1618" arabic-form="isolated" 
d="M483 285v732h360v-732h263v1155h362v-1440h-1348v285h363z" />
    <glyph glyph-name="uniFEFC" unicode="&#xfee0;&#xfe8e;" horiz-adv-x="1695" arabic-form="final" 
d="M1386 122q-42 -59 -110.5 -90.5t-159.5 -31.5h-996v285h335v732h360v-732h205q37 0 55 21t18 69v1065h361v-1100q98 -55 229 -55h11q28 0 42 -8.5t19.5 -28.5t5.5 -58v-75q0 -45 -4.5 -69t-18 -35t-40.5 -11h-11q-78 0 -156.5 32t-144.5 90z" />
    <glyph glyph-name="uni06440671" unicode="&#xfedf;&#xfb51;" horiz-adv-x="1618" 
d="M483 285v732h360v-732h263v1155h362v-1440h-1348v285h363zM427 1317v226h131v-45q39 30 89 46.5t101 16.5q94 0 146.5 -55t52.5 -148v-173h-606v132h86zM705 1449q-41 0 -85 -40q-44 -39 -45 -91h212v41q0 90 -82 90z" />
    <glyph glyph-name="uni06440671.fina" unicode="&#xfee0;&#xfb51;" horiz-adv-x="1695" 
d="M1386 122q-42 -59 -110.5 -90.5t-159.5 -31.5h-996v285h335v732h360v-732h205q37 0 55 21t18 69v1065h361v-1100q98 -55 229 -55h11q28 0 42 -8.5t19.5 -28.5t5.5 -58v-75q0 -45 -4.5 -69t-18 -35t-40.5 -11h-11q-78 0 -156.5 32t-144.5 90zM399 1317v226h131v-45
q39 30 89 46.5t101 16.5q94 0 146.5 -55t52.5 -148v-173h-606v132h86zM677 1449q-41 0 -85 -40q-44 -39 -45 -91h212v41q0 90 -82 90z" />
    <glyph glyph-name="uni0621" unicode="&#x621;" horiz-adv-x="980" arabic-form="isolated" 
d="M196 317q-42 76 -42 144q0 118 61.5 202.5t163 128.5t218.5 44q75 0 137.5 -6.5t157.5 -20.5l-30 -314q-91 28 -188 28q-68 0 -107 -25t-39 -64q0 -54 56 -85.5t152 -31.5h170v-317h-839v317h129z" />
    <glyph glyph-name="uni0622" unicode="&#x622;" horiz-adv-x="661" arabic-form="isolated" 
d="M511 1440v-1440h-361v1440h361zM688 1641q-36 -33 -76.5 -44.5t-103.5 -11.5q-43 0 -92.5 15t-127.5 54q-132 69 -194 69q-38 0 -77.5 -18t-71.5 -54l-109 103q56 74 124 114t129 40q37 0 89 -17t133 -54q82 -37 129.5 -53.5t78.5 -16.5q54 0 94 27t62 74l133 -74
q-54 -95 -120 -153z" />
    <glyph glyph-name="uni0623" unicode="&#x623;" horiz-adv-x="661" arabic-form="isolated" 
d="M511 1440v-1440h-361v1440h361zM187 1852q-23 42 -23 75q0 60 31.5 103.5t83 65t111.5 21.5q34 0 64.5 -3t81.5 -10l-15 -157q-42 14 -93 14q-36 0 -57 -13t-21 -34q0 -29 31 -45.5t80 -16.5h83v-159h-424v159h67z" />
    <glyph glyph-name="uni0624" unicode="&#x624;" horiz-adv-x="1216" arabic-form="isolated" 
d="M243 -425l-36 299q230 7 351 58q119 50 179 155q-126 -42 -235 -42q-129 0 -222 52.5t-141.5 143t-48.5 201.5q0 145 70.5 252t190 163.5t264.5 56.5q226 0 346.5 -131t124.5 -372v-176q0 -250 -127 -388.5t-303 -191.5t-413 -80zM576 624q-43 0 -77.5 -23.5t-54 -62
t-19.5 -82.5q0 -82 45 -128.5t131 -46.5q62 0 131 25v93q0 115 -40.5 170t-115.5 55zM354 1411q-30 58 -30 104q0 85 44.5 146t118 93t159.5 32q46 0 84.5 -3.5t126.5 -16.5l-20 -227q-63 21 -136 21q-49 0 -78 -18.5t-29 -45.5q0 -40 41.5 -62.5t108.5 -22.5h126v-232h-609
v232h93z" />
    <glyph glyph-name="uni0625" unicode="&#x625;" horiz-adv-x="661" arabic-form="isolated" 
d="M511 1440v-1440h-361v1440h361zM195 -442q-23 41 -23 74q0 60 31.5 103.5t82.5 65t110 21.5q36 0 66.5 -3t81.5 -10l-15 -156q-37 13 -93 13q-36 0 -57 -13t-21 -34q0 -27 29.5 -44t77.5 -17h87v-160h-424v160h67z" />
    <glyph glyph-name="uni0626" unicode="&#x626;" horiz-adv-x="1817" arabic-form="isolated" 
d="M1364 585q-94 0 -94 -63q0 -57 109 -127q113 -74 172.5 -149t59.5 -154q0 -123 -88.5 -243t-252.5 -197t-376 -77q-288 0 -462 96t-244.5 229t-70.5 255q0 109 50.5 235.5t130.5 224.5l300 -156q-59 -72 -89.5 -148t-30.5 -141q0 -104 58.5 -169t151.5 -93.5t203 -28.5
q100 0 182 25t128.5 65.5t46.5 84.5q0 41 -84 105q-84 62 -134 109q-54 52 -86.5 115t-32.5 132q0 125 76 207t188 120t223 38q67 0 161 -20t168 -47l-84 -307q-197 79 -279 79zM93 906q-30 58 -30 104q0 85 44.5 146t118 93t159.5 32q46 0 84.5 -3.5t126.5 -16.5l-20 -227
q-63 21 -136 21q-49 0 -78 -18.5t-29 -45.5q0 -40 41.5 -62.5t108.5 -22.5h126v-232h-609v232h93z" />
    <glyph glyph-name="uni0627" unicode="&#x627;" horiz-adv-x="661" arabic-form="isolated" 
d="M511 1440v-1440h-361v1440h361z" />
    <glyph glyph-name="uni0628" unicode="&#x628;" horiz-adv-x="1996" arabic-form="isolated" 
d="M0 417q0 87 33 261l324 -29q-18 -98 -18 -176q0 -69 30 -109t104.5 -59.5t208.5 -19.5h804v595h360v-880h-1232q-321 0 -467.5 103t-146.5 314zM1141 -375q0 -44 -22 -83.5t-60.5 -63.5t-86.5 -24q-46 0 -85 23t-62 62.5t-23 85.5q0 45 22.5 85t62 63.5t85.5 23.5
t85 -23.5t61.5 -63t22.5 -85.5z" />
    <glyph glyph-name="uni0629" unicode="&#x629;" horiz-adv-x="1073" arabic-form="isolated" 
d="M0 405q0 171 78 294.5t190.5 184t218.5 60.5q131 0 239.5 -67t172.5 -189.5t64 -281.5q0 -87 -46 -181t-150 -159.5t-267 -65.5h-39q-139 0 -243.5 52t-161 144t-56.5 209zM626 438q0 68 -19 119t-53.5 78.5t-78.5 27.5q-41 0 -75.5 -27.5t-55 -79t-20.5 -118.5
q0 -153 156 -153q71 0 108.5 39.5t37.5 113.5zM427 1327q0 -44 -22 -83.5t-60.5 -63.5t-86.5 -24q-46 0 -85 23t-62 62.5t-23 85.5q0 45 22.5 85t62 63.5t85.5 23.5t85 -23.5t61.5 -63t22.5 -85.5zM837 1327q0 -44 -22 -83.5t-60.5 -63.5t-86.5 -24q-46 0 -85 23t-62 62.5
t-23 85.5q0 45 22.5 85t62 63.5t85.5 23.5t85 -23.5t61.5 -63t22.5 -85.5z" />
    <glyph glyph-name="uni062A" unicode="&#x62a;" horiz-adv-x="1996" arabic-form="isolated" 
d="M0 417q0 87 33 261l324 -29q-18 -98 -18 -176q0 -69 30 -109t104.5 -59.5t208.5 -19.5h804v595h360v-880h-1232q-321 0 -467.5 103t-146.5 314zM963 1327q0 -44 -22 -83.5t-60.5 -63.5t-86.5 -24q-46 0 -85 23t-62 62.5t-23 85.5q0 45 22.5 85t62 63.5t85.5 23.5
t85 -23.5t61.5 -63t22.5 -85.5zM1373 1327q0 -44 -22 -83.5t-60.5 -63.5t-86.5 -24q-46 0 -85 23t-62 62.5t-23 85.5q0 45 22.5 85t62 63.5t85.5 23.5t85 -23.5t61.5 -63t22.5 -85.5z" />
    <glyph glyph-name="uni062B" unicode="&#x62b;" horiz-adv-x="1996" arabic-form="isolated" 
d="M0 417q0 87 33 261l324 -29q-18 -98 -18 -176q0 -69 30 -109t104.5 -59.5t208.5 -19.5h804v595h360v-880h-1232q-321 0 -467.5 103t-146.5 314zM1118 1713q0 -44 -22 -83.5t-60.5 -63.5t-86.5 -24q-46 0 -85 23t-62 62.5t-23 85.5q0 45 22.5 85t62 63.5t85.5 23.5
t85 -23.5t61.5 -63t22.5 -85.5zM915 1327q0 -44 -22 -83.5t-60.5 -63.5t-86.5 -24q-46 0 -85 23t-62 62.5t-23 85.5q0 45 22.5 85t62 63.5t85.5 23.5t85 -23.5t61.5 -63t22.5 -85.5zM1325 1327q0 -44 -22 -83.5t-60.5 -63.5t-86.5 -24q-46 0 -85 23t-62 62.5t-23 85.5
q0 45 22.5 85t62 63.5t85.5 23.5t85 -23.5t61.5 -63t22.5 -85.5z" />
    <glyph glyph-name="uni062C" unicode="&#x62c;" horiz-adv-x="1268" arabic-form="isolated" 
d="M592 -729q-179 0 -312.5 61.5t-206.5 177t-73 274.5q0 164 77.5 277t211 168.5t302.5 55.5h151q-17 22 -33 131q-16 113 -63 171.5t-152 58.5q-121 0 -259 -39v267q115 31 191.5 46t157.5 15q194 0 308.5 -98.5t138.5 -275.5q10 -71 22 -126t43 -102.5t82 -47.5v-285
h-599q-111 0 -172 -58.5t-61 -161.5q0 -101 76.5 -160t214.5 -59q117 0 257 26v-273q-102 -24 -171.5 -33.5t-130.5 -9.5zM847 -219q0 -40 -19.5 -75.5t-54.5 -57t-78 -21.5q-42 0 -77 20.5t-56 56t-21 77.5q0 40 20.5 76.5t56 57.5t77.5 21q41 0 76.5 -21t55.5 -57t20 -77z
" />
    <glyph glyph-name="uni062D" unicode="&#x62d;" horiz-adv-x="1268" arabic-form="isolated" 
d="M592 -729q-179 0 -312.5 61.5t-206.5 177t-73 274.5q0 164 77.5 277t211 168.5t302.5 55.5h151q-17 22 -33 131q-16 113 -63 171.5t-152 58.5q-121 0 -259 -39v267q115 31 191.5 46t157.5 15q194 0 308.5 -98.5t138.5 -275.5q10 -71 22 -126t43 -102.5t82 -47.5v-285
h-599q-111 0 -172 -58.5t-61 -161.5q0 -101 76.5 -160t214.5 -59q117 0 257 26v-273q-102 -24 -171.5 -33.5t-130.5 -9.5z" />
    <glyph glyph-name="uni062E" unicode="&#x62e;" horiz-adv-x="1268" arabic-form="isolated" 
d="M592 -729q-179 0 -312.5 61.5t-206.5 177t-73 274.5q0 164 77.5 277t211 168.5t302.5 55.5h151q-17 22 -33 131q-16 113 -63 171.5t-152 58.5q-121 0 -259 -39v267q115 31 191.5 46t157.5 15q194 0 308.5 -98.5t138.5 -275.5q10 -71 22 -126t43 -102.5t82 -47.5v-285
h-599q-111 0 -172 -58.5t-61 -161.5q0 -101 76.5 -160t214.5 -59q117 0 257 26v-273q-102 -24 -171.5 -33.5t-130.5 -9.5zM739 1327q0 -44 -22 -83.5t-60.5 -63.5t-86.5 -24q-46 0 -85 23t-62 62.5t-23 85.5q0 45 22.5 85t62 63.5t85.5 23.5t85 -23.5t61.5 -63t22.5 -85.5z
" />
    <glyph glyph-name="uni062F" unicode="&#x62f;" horiz-adv-x="1048" arabic-form="isolated" 
d="M462 285q69 0 108.5 29.5t39.5 81.5q0 26 -25 68t-71 93q-97 108 -264 236l250 245q438 -373 438 -637q0 -195 -125.5 -298t-359.5 -103h-410v285h419z" />
    <glyph glyph-name="uni0630" unicode="&#x630;" horiz-adv-x="1048" arabic-form="isolated" 
d="M462 285q69 0 108.5 29.5t39.5 81.5q0 26 -25 68t-71 93q-97 108 -264 236l250 245q438 -373 438 -637q0 -195 -125.5 -298t-359.5 -103h-410v285h419zM650 1327q0 -44 -22 -83.5t-60.5 -63.5t-86.5 -24q-46 0 -85 23t-62 62.5t-23 85.5q0 45 22.5 85t62 63.5t85.5 23.5
t85 -23.5t61.5 -63t22.5 -85.5z" />
    <glyph glyph-name="uni0631" unicode="&#x631;" horiz-adv-x="747" arabic-form="isolated" 
d="M236 145v735h361v-673q0 -202 -57 -337t-179 -215t-321 -113l-43 302q88 18 140 53t75.5 94.5t23.5 153.5z" />
    <glyph glyph-name="uni0632" unicode="&#x632;" horiz-adv-x="747" arabic-form="isolated" 
d="M236 145v735h361v-673q0 -202 -57 -337t-179 -215t-321 -113l-43 302q88 18 140 53t75.5 94.5t23.5 153.5zM595 1327q0 -44 -22 -83.5t-60.5 -63.5t-86.5 -24q-46 0 -85 23t-62 62.5t-23 85.5q0 45 22.5 85t62 63.5t85.5 23.5t85 -23.5t61.5 -63t22.5 -85.5z" />
    <glyph glyph-name="uni0633" unicode="&#x633;" horiz-adv-x="2787" arabic-form="isolated" 
d="M1915 96q-89 -96 -260 -96q-105 0 -182 16.5t-142 50.5q-39 -157 -133 -269t-232.5 -170.5t-307.5 -58.5q-196 0 -344.5 69.5t-231 203t-82.5 321.5q0 117 37.5 237.5t104.5 228.5q62 -34 112 -60.5t88 -46.5l98 -51q-41 -67 -66.5 -143.5t-25.5 -149.5
q0 -90 42.5 -156.5t116.5 -102t166 -35.5q100 0 171 43t108.5 121.5t37.5 185.5q0 74 -29.5 179.5t-68.5 190.5l352 94q32 -82 59 -182.5t40 -188.5q107 -42 193 -42q54 0 80 24.5t26 67.5v396h362v-417q0 -8 -2 -38q54 -18 91.5 -25.5t77.5 -7.5h104v595h362v-880h-358
q-219 0 -364 96z" />
    <glyph glyph-name="uni0634" unicode="&#x634;" horiz-adv-x="2787" arabic-form="isolated" 
d="M1915 96q-89 -96 -260 -96q-105 0 -182 16.5t-142 50.5q-39 -157 -133 -269t-232.5 -170.5t-307.5 -58.5q-196 0 -344.5 69.5t-231 203t-82.5 321.5q0 117 37.5 237.5t104.5 228.5q62 -34 112 -60.5t88 -46.5l98 -51q-41 -67 -66.5 -143.5t-25.5 -149.5
q0 -90 42.5 -156.5t116.5 -102t166 -35.5q100 0 171 43t108.5 121.5t37.5 185.5q0 74 -29.5 179.5t-68.5 190.5l352 94q32 -82 59 -182.5t40 -188.5q107 -42 193 -42q54 0 80 24.5t26 67.5v396h362v-417q0 -8 -2 -38q54 -18 91.5 -25.5t77.5 -7.5h104v595h362v-880h-358
q-219 0 -364 96zM1975 1713q0 -44 -22 -83.5t-60.5 -63.5t-86.5 -24q-46 0 -85 23t-62 62.5t-23 85.5q0 45 22.5 85t62 63.5t85.5 23.5t85 -23.5t61.5 -63t22.5 -85.5zM1772 1327q0 -44 -22 -83.5t-60.5 -63.5t-86.5 -24q-46 0 -85 23t-62 62.5t-23 85.5q0 45 22.5 85
t62 63.5t85.5 23.5t85 -23.5t61.5 -63t22.5 -85.5zM2182 1327q0 -44 -22 -83.5t-60.5 -63.5t-86.5 -24q-46 0 -85 23t-62 62.5t-23 85.5q0 45 22.5 85t62 63.5t85.5 23.5t85 -23.5t61.5 -63t22.5 -85.5z" />
    <glyph glyph-name="uni0635" unicode="&#x635;" horiz-adv-x="2962" arabic-form="isolated" 
d="M1331 66q-39 -158 -133 -269.5t-233 -169.5t-313 -58q-207 0 -354 75.5t-222.5 209.5t-75.5 306q0 120 37 239.5t104 229.5l298 -158q-43 -69 -68 -146.5t-25 -141.5q0 -92 41 -159.5t115 -103.5t171 -36q103 0 174 44.5t107 123t36 182.5q0 74 -29.5 179.5t-68.5 190.5
l352 94q73 -196 99 -371q91 -34 178 -39q78 176 192 325.5t275.5 244t337.5 94.5q159 0 273 -66t173.5 -188.5t59.5 -289.5v-408h-1182q-74 0 -158 17t-161 49zM2244 656q-77 0 -158.5 -47.5t-151.5 -132t-114 -191.5h651v109q0 132 -53.5 197t-173.5 65z" />
    <glyph glyph-name="uni0636" unicode="&#x636;" horiz-adv-x="2962" arabic-form="isolated" 
d="M1331 66q-39 -158 -133 -269.5t-233 -169.5t-313 -58q-207 0 -354 75.5t-222.5 209.5t-75.5 306q0 120 37 239.5t104 229.5l298 -158q-43 -69 -68 -146.5t-25 -141.5q0 -92 41 -159.5t115 -103.5t171 -36q103 0 174 44.5t107 123t36 182.5q0 74 -29.5 179.5t-68.5 190.5
l352 94q73 -196 99 -371q91 -34 178 -39q78 176 192 325.5t275.5 244t337.5 94.5q159 0 273 -66t173.5 -188.5t59.5 -289.5v-408h-1182q-74 0 -158 17t-161 49zM2244 656q-77 0 -158.5 -47.5t-151.5 -132t-114 -191.5h651v109q0 132 -53.5 197t-173.5 65zM2359 1327
q0 -44 -22 -83.5t-60.5 -63.5t-86.5 -24q-46 0 -85 23t-62 62.5t-23 85.5q0 45 22.5 85t62 63.5t85.5 23.5t85 -23.5t61.5 -63t22.5 -85.5z" />
    <glyph glyph-name="uni0637" unicode="&#x637;" horiz-adv-x="1721" arabic-form="isolated" 
d="M280 285q35 81 72 145v1011h360v-604q87 55 179 85t195 30q167 0 280.5 -71.5t169 -194t55.5 -277.5v-409h-1591v285h280zM1002 656q-83 0 -163.5 -50.5t-147 -134.5t-113.5 -186h655v111q0 130 -54 195t-177 65z" />
    <glyph glyph-name="uni0638" unicode="&#x638;" horiz-adv-x="1721" arabic-form="isolated" 
d="M280 285q35 81 72 145v1011h360v-604q87 55 179 85t195 30q167 0 280.5 -71.5t169 -194t55.5 -277.5v-409h-1591v285h280zM1002 656q-83 0 -163.5 -50.5t-147 -134.5t-113.5 -186h655v111q0 130 -54 195t-177 65zM1298 1327q0 -44 -22 -83.5t-60.5 -63.5t-86.5 -24
q-46 0 -85 23t-62 62.5t-23 85.5q0 45 22.5 85t62 63.5t85.5 23.5t85 -23.5t61.5 -63t22.5 -85.5z" />
    <glyph glyph-name="uni0639" unicode="&#x639;" horiz-adv-x="1174" arabic-form="isolated" 
d="M602 -729q-166 0 -303 55.5t-218 166.5t-81 269q0 153 70 271.5t207 193.5q-61 114 -61 232q0 126 62.5 233t176 170.5t258.5 63.5q53 0 148 -16t146 -34l-41 -295q-77 20 -130.5 30t-97.5 10q-85 0 -129.5 -40t-44.5 -114q0 -50 23.5 -92t65 -66t93.5 -24h338v-285h-518
q-64 0 -114 -27t-77.5 -77t-27.5 -116q0 -73 41 -122t106.5 -73t139.5 -24q109 0 262 27v-286q-66 -16 -135 -23.5t-159 -7.5z" />
    <glyph glyph-name="uni063A" unicode="&#x63a;" horiz-adv-x="1174" arabic-form="isolated" 
d="M602 -729q-166 0 -303 55.5t-218 166.5t-81 269q0 153 70 271.5t207 193.5q-61 114 -61 232q0 126 62.5 233t176 170.5t258.5 63.5q53 0 148 -16t146 -34l-41 -295q-77 20 -130.5 30t-97.5 10q-85 0 -129.5 -40t-44.5 -114q0 -50 23.5 -92t65 -66t93.5 -24h338v-285h-518
q-64 0 -114 -27t-77.5 -77t-27.5 -116q0 -73 41 -122t106.5 -73t139.5 -24q109 0 262 27v-286q-66 -16 -135 -23.5t-159 -7.5zM875 1327q0 -44 -22 -83.5t-60.5 -63.5t-86.5 -24q-46 0 -85 23t-62 62.5t-23 85.5q0 45 22.5 85t62 63.5t85.5 23.5t85 -23.5t61.5 -63
t22.5 -85.5z" />
    <glyph glyph-name="uni0641" unicode="&#x641;" horiz-adv-x="2279" arabic-form="isolated" 
d="M0 415q0 35 9 107t24 156l330 -29q-10 -44 -18 -98t-8 -91q0 -63 30 -100.5t105 -56t210 -18.5h495q-15 43 -24 89.5t-9 82.5q0 147 69.5 251.5t188.5 157.5t266 53q135 0 244 -52.5t173 -154t64 -242.5v-470h-1528q-224 0 -361 48t-198.5 139.5t-61.5 227.5zM1641 624
q-64 0 -105.5 -45t-41.5 -119q0 -50 23.5 -90t65 -62.5t93.5 -22.5h112v143q0 90 -39.5 143t-107.5 53zM1806 1327q0 -44 -22 -83.5t-60.5 -63.5t-86.5 -24q-46 0 -85 23t-62 62.5t-23 85.5q0 45 22.5 85t62 63.5t85.5 23.5t85 -23.5t61.5 -63t22.5 -85.5z" />
    <glyph glyph-name="uni0642" unicode="&#x642;" horiz-adv-x="1650" arabic-form="isolated" 
d="M732 -596q-204 0 -369.5 61.5t-264 192t-98.5 326.5q0 239 124 447l292 -152q-56 -129 -56 -257q0 -101 53 -173.5t141 -109.5t192 -37q183 0 290 98t125 280l-5 4q-116 -39 -220 -39q-119 0 -212.5 48t-146.5 138t-53 211q0 126 61.5 234t180.5 173t283 65
q123 0 229 -47.5t174 -160t68 -294.5v-287q0 -221 -103.5 -384t-283 -250t-401.5 -87zM1010 624q-62 0 -107 -48q-44 -47 -44 -120q0 -82 47 -128.5t129 -46.5q61 0 125 25v104q0 106 -38 160t-112 54zM974 1327q0 -44 -22 -83.5t-60.5 -63.5t-86.5 -24q-46 0 -85 23
t-62 62.5t-23 85.5q0 45 22.5 85t62 63.5t85.5 23.5t85 -23.5t61.5 -63t22.5 -85.5zM1384 1327q0 -44 -22 -83.5t-60.5 -63.5t-86.5 -24q-46 0 -85 23t-62 62.5t-23 85.5q0 45 22.5 85t62 63.5t85.5 23.5t85 -23.5t61.5 -63t22.5 -85.5z" />
    <glyph glyph-name="uni0643" unicode="&#x643;" horiz-adv-x="1996" arabic-form="isolated" 
d="M0 417q0 58 8.5 117.5t24.5 143.5l324 -29q-18 -98 -18 -177q0 -60 24.5 -99.5t98.5 -63.5t216 -24h808v1154h360v-1439h-1228q-211 0 -347 42.5t-203.5 134t-67.5 240.5zM781 711q-22 41 -22 75q0 59 31 102t82.5 65.5t110.5 22.5q35 0 65.5 -3t81.5 -10l-14 -157
q-37 13 -94 13q-36 0 -57 -13.5t-21 -32.5q0 -28 31 -45t80 -17h83v-159h-424v159h67z" />
    <glyph glyph-name="uni0644" unicode="&#x644;" horiz-adv-x="1500" arabic-form="isolated" 
d="M1350 229q0 -191 -88 -341.5t-246.5 -234.5t-363.5 -84q-174 0 -323 65t-239 194t-90 311q0 126 36.5 253.5t104.5 236.5l298 -158q-43 -67 -68 -141t-25 -147q0 -90 42.5 -158t117 -104.5t167.5 -36.5q159 0 238 101.5t79 270.5v1184h360v-1211z" />
    <glyph glyph-name="uni0645" unicode="&#x645;" horiz-adv-x="1494" arabic-form="isolated" 
d="M0 -116q0 181 85.5 305t270.5 201q70 218 209 362t343 144q149 0 257 -68.5t163.5 -175.5t55.5 -222q0 -127 -60.5 -227.5t-167.5 -157t-241 -56.5q-113 0 -217 31.5t-186 89.5q-76 -18 -115.5 -73t-39.5 -145q0 -113 40 -261t98 -290l-340 -106q-52 140 -103.5 340.5
t-51.5 308.5zM877 276q90 0 137 41t47 121q0 46 -20.5 84t-58.5 60t-87 22q-77 0 -139 -66.5t-100 -197.5q46 -27 110.5 -45.5t110.5 -18.5z" />
    <glyph glyph-name="uni0646" unicode="&#x646;" horiz-adv-x="1460" arabic-form="isolated" 
d="M1350 235q0 -195 -87.5 -346.5t-245.5 -235.5t-362 -84q-205 0 -352.5 73.5t-225 207.5t-77.5 313q0 119 37 237.5t104 228.5l298 -158q-43 -69 -68 -146.5t-25 -141.5q0 -90 40 -157.5t114 -104.5t173 -37q102 0 173 44.5t107.5 123.5t36.5 182q0 71 -29 174.5
t-69 195.5l351 94q43 -118 75 -244t32 -219zM847 1078q0 -44 -22 -83.5t-60.5 -63.5t-86.5 -24q-46 0 -85 23t-62 62.5t-23 85.5q0 45 22.5 85t62 63.5t85.5 23.5t85 -23.5t61.5 -63t22.5 -85.5z" />
    <glyph glyph-name="uni0648" unicode="&#x648;" horiz-adv-x="1216" arabic-form="isolated" 
d="M243 -425l-36 299q230 7 351 58q119 50 179 155q-126 -42 -235 -42q-129 0 -222 52.5t-141.5 143t-48.5 201.5q0 145 70.5 252t190 163.5t264.5 56.5q226 0 346.5 -131t124.5 -372v-176q0 -250 -127 -388.5t-303 -191.5t-413 -80zM576 624q-43 0 -77.5 -23.5t-54 -62
t-19.5 -82.5q0 -82 45 -128.5t131 -46.5q62 0 131 25v93q0 115 -40.5 170t-115.5 55z" />
    <glyph glyph-name="uni0649" unicode="&#x649;" horiz-adv-x="1700" arabic-form="isolated" 
d="M1247 585q-94 0 -94 -63q0 -57 109 -127q113 -74 172.5 -149t59.5 -154q0 -123 -88.5 -243t-252.5 -197t-376 -77q-288 0 -462 96t-244.5 229t-70.5 255q0 109 50.5 235.5t130.5 224.5l300 -156q-59 -72 -89.5 -148t-30.5 -141q0 -104 58.5 -169t151.5 -93.5t203 -28.5
q100 0 182 25t128.5 65.5t46.5 84.5q0 41 -84 105q-84 62 -134 109q-54 52 -86.5 115t-32.5 132q0 125 76 207t188 120t223 38q67 0 161 -20t168 -47l-84 -307q-197 79 -279 79z" />
    <glyph glyph-name="uni064A" unicode="&#x64a;" horiz-adv-x="1700" arabic-form="isolated" 
d="M1247 585q-94 0 -94 -63q0 -57 109 -127q113 -74 172.5 -149t59.5 -154q0 -123 -88.5 -243t-252.5 -197t-376 -77q-288 0 -462 96t-244.5 229t-70.5 255q0 109 50.5 235.5t130.5 224.5l300 -156q-59 -72 -89.5 -148t-30.5 -141q0 -104 58.5 -169t151.5 -93.5t203 -28.5
q100 0 182 25t128.5 65.5t46.5 84.5q0 41 -84 105q-84 62 -134 109q-54 52 -86.5 115t-32.5 132q0 125 76 207t188 120t223 38q67 0 161 -20t168 -47l-84 -307q-197 79 -279 79zM737 -795q0 -44 -22 -83.5t-60.5 -63.5t-86.5 -24q-46 0 -85 23t-62 62.5t-23 85.5
q0 45 22.5 85t62 63.5t85.5 23.5t85 -23.5t61.5 -63t22.5 -85.5zM1147 -795q0 -44 -22 -83.5t-60.5 -63.5t-86.5 -24q-46 0 -85 23t-62 62.5t-23 85.5q0 45 22.5 85t62 63.5t85.5 23.5t85 -23.5t61.5 -63t22.5 -85.5z" />
    <glyph glyph-name="uni0671" unicode="&#x671;" horiz-adv-x="661" arabic-form="isolated" 
d="M511 1440v-1440h-361v1440h361zM110 1643v226h131v-45q39 30 89 46.5t101 16.5q94 0 146.5 -55t52.5 -148v-173h-606v132h86zM388 1775q-41 0 -85 -40q-44 -39 -45 -91h212v41q0 90 -82 90z" />
    <glyph glyph-name="uni0679" unicode="&#x679;" horiz-adv-x="1996" arabic-form="isolated" 
d="M0 417q0 87 33 261l324 -29q-18 -98 -18 -176q0 -69 30 -109t104.5 -59.5t208.5 -19.5h804v595h360v-880h-1232q-321 0 -467.5 103t-146.5 314zM740 1088v551h169v-297q85 52 175 52q112 0 173.5 -69t61.5 -190v-187h-684v140h105zM1043 1255q-53 0 -108.5 -45.5
t-88.5 -121.5h306v42q0 75 -30 100t-79 25z" />
    <glyph glyph-name="uni067E" unicode="&#x67e;" horiz-adv-x="1996" arabic-form="isolated" 
d="M0 417q0 87 33 261l324 -29q-18 -98 -18 -176q0 -69 30 -109t104.5 -59.5t208.5 -19.5h804v595h360v-880h-1232q-321 0 -467.5 103t-146.5 314zM778 -542q-44 0 -83.5 23t-63 62.5t-23.5 85.5q0 45 23 84.5t62 63.5t85 24q44 0 83 -23.5t62.5 -63t23.5 -85.5
q0 -44 -22.5 -83.5t-61.5 -63.5t-85 -24zM1188 -199q44 0 83 -23.5t62.5 -63t23.5 -85.5q0 -44 -22.5 -83.5t-61.5 -63.5t-85 -24q-36 0 -74.5 18t-66 56.5t-28.5 96.5q0 45 22.5 84.5t61.5 63.5t85 24zM982 -926q-44 0 -83.5 23t-63 62.5t-23.5 85.5q0 45 23 84.5t62 63.5
t85 24q44 0 83 -23.5t62.5 -63t23.5 -85.5q0 -44 -22.5 -83.5t-61.5 -63.5t-85 -24z" />
    <glyph glyph-name="uni0686" unicode="&#x686;" horiz-adv-x="1268" arabic-form="isolated" 
d="M346 -220q0 -101 76 -159t219 -60l24 1l10 -287q-37 -4 -83 -4q-180 0 -313.5 62.5t-206 178.5t-72.5 272q0 168 78 284t212.5 174t303.5 58h148q-19 28 -34 123q-16 107 -60.5 165t-148.5 58q-54 0 -127.5 -10.5t-136.5 -28.5v267q115 31 191.5 46t157.5 15
q131 0 227 -47t151 -130.5t68 -194.5q20 -163 57 -213q20 -26 40.5 -38t50.5 -12v-300h-602q-108 0 -169 -58.5t-61 -161.5zM676 -366q-37 0 -68 18t-49.5 49.5t-18.5 69.5q0 36 18 68t49 51t69 19q35 0 66.5 -19t50 -50.5t18.5 -68.5q0 -35 -18 -66.5t-49 -51t-68 -19.5z
M1004 -366q-36 0 -67 18t-49.5 49.5t-18.5 69.5q0 36 18 67.5t49 51t68 19.5q35 0 66.5 -19t50 -50.5t18.5 -68.5q0 -36 -17 -67.5t-48 -50.5t-70 -19zM838 -673q-35 0 -66.5 18.5t-50 50t-18.5 68.5q0 36 18 67.5t49 51t68 19.5q38 0 69 -18.5t48.5 -50.5t17.5 -69
q0 -35 -18 -66.5t-49 -51t-68 -19.5z" />
    <glyph glyph-name="uni0688" unicode="&#x688;" horiz-adv-x="1048" arabic-form="isolated" 
d="M462 285q69 0 108.5 29.5t39.5 81.5q0 26 -25 68t-71 93q-97 108 -264 236l250 245q438 -373 438 -637q0 -195 -125.5 -298t-359.5 -103h-410v285h419zM226 1268v551h169v-297q85 52 175 52q112 0 173.5 -69t61.5 -190v-187h-684v140h105zM529 1435q-53 0 -108.5 -45.5
t-88.5 -121.5h306v42q0 75 -30 100t-79 25z" />
    <glyph glyph-name="uni0691" unicode="&#x691;" horiz-adv-x="747" arabic-form="isolated" 
d="M236 145v735h361v-673q0 -202 -57 -337t-179 -215t-321 -113l-43 302q88 18 140 53t75.5 94.5t23.5 153.5zM129 1284v551h169v-297q85 52 175 52q112 0 173.5 -69t61.5 -190v-187h-684v140h105zM432 1451q-53 0 -108.5 -45.5t-88.5 -121.5h306v42q0 75 -30 100t-79 25z
" />
    <glyph glyph-name="uni0698" unicode="&#x698;" horiz-adv-x="747" arabic-form="isolated" 
d="M236 145v735h361v-673q0 -202 -57 -337t-179 -215t-321 -113l-43 302q88 18 140 53t75.5 94.5t23.5 153.5zM591 1713q0 -44 -22 -83.5t-60.5 -63.5t-86.5 -24q-46 0 -85 23t-62 62.5t-23 85.5q0 45 22.5 85t62 63.5t85.5 23.5t85 -23.5t61.5 -63t22.5 -85.5zM388 1327
q0 -44 -22 -83.5t-60.5 -63.5t-86.5 -24q-46 0 -85 23t-62 62.5t-23 85.5q0 45 22.5 85t62 63.5t85.5 23.5t85 -23.5t61.5 -63t22.5 -85.5zM798 1327q0 -44 -22 -83.5t-60.5 -63.5t-86.5 -24q-46 0 -85 23t-62 62.5t-23 85.5q0 45 22.5 85t62 63.5t85.5 23.5t85 -23.5
t61.5 -63t22.5 -85.5z" />
    <glyph glyph-name="uni06A4" unicode="&#x6a4;" horiz-adv-x="2279" arabic-form="isolated" 
d="M0 415q0 35 9 107t24 156l330 -29q-10 -44 -18 -98t-8 -91q0 -63 30 -100.5t105 -56t210 -18.5h495q-15 43 -24 89.5t-9 82.5q0 147 69.5 251.5t188.5 157.5t266 53q135 0 244 -52.5t173 -154t64 -242.5v-470h-1528q-224 0 -361 48t-198.5 139.5t-61.5 227.5zM1641 624
q-64 0 -105.5 -45t-41.5 -119q0 -50 23.5 -90t65 -62.5t93.5 -22.5h112v143q0 90 -39.5 143t-107.5 53zM1803 1713q0 -44 -22 -83.5t-60.5 -63.5t-86.5 -24q-46 0 -85 23t-62 62.5t-23 85.5q0 45 22.5 85t62 63.5t85.5 23.5t85 -23.5t61.5 -63t22.5 -85.5zM1600 1327
q0 -44 -22 -83.5t-60.5 -63.5t-86.5 -24q-46 0 -85 23t-62 62.5t-23 85.5q0 45 22.5 85t62 63.5t85.5 23.5t85 -23.5t61.5 -63t22.5 -85.5zM2010 1327q0 -44 -22 -83.5t-60.5 -63.5t-86.5 -24q-46 0 -85 23t-62 62.5t-23 85.5q0 45 22.5 85t62 63.5t85.5 23.5t85 -23.5
t61.5 -63t22.5 -85.5z" />
    <glyph glyph-name="uni06A9" unicode="&#x6a9;" horiz-adv-x="1892" arabic-form="isolated" 
d="M0 417q0 58 8.5 117.5t24.5 143.5l324 -29q-18 -98 -18 -177q0 -75 37 -115.5t110 -56t196 -15.5h600q68 0 107 23.5t39 70.5q0 68 -99.5 156t-301.5 202l480 770l275 -171l-315 -519q153 -95 229.5 -206t76.5 -235q0 -125 -60.5 -209.5t-165 -125.5t-236.5 -41h-694
q-296 0 -456.5 94.5t-160.5 322.5z" />
    <glyph glyph-name="uni06AF" unicode="&#x6af;" horiz-adv-x="1892" arabic-form="isolated" 
d="M1403 1559l-480 -770l-266 147l491 777zM0 417q0 58 8.5 117.5t24.5 143.5l324 -29q-18 -98 -18 -177q0 -75 37 -115.5t110 -56t196 -15.5h600q68 0 107 23.5t39 70.5q0 68 -99.5 156t-301.5 202l480 770l275 -171l-315 -519q153 -95 229.5 -206t76.5 -235
q0 -125 -60.5 -209.5t-165 -125.5t-236.5 -41h-694q-211 0 -347 43t-203 135t-67 239z" />
    <glyph glyph-name="uni06BA" unicode="&#x6ba;" horiz-adv-x="1460" arabic-form="isolated" 
d="M1350 235q0 -195 -87.5 -346.5t-245.5 -235.5t-362 -84q-205 0 -352.5 73.5t-225 207.5t-77.5 313q0 119 37 237.5t104 228.5l298 -158q-43 -69 -68 -146.5t-25 -141.5q0 -90 40 -157.5t114 -104.5t173 -37q102 0 173 44.5t107.5 123.5t36.5 182q0 71 -29 174.5
t-69 195.5l351 94q43 -118 75 -244t32 -219z" />
    <glyph glyph-name="uni06BE" unicode="&#x6be;" horiz-adv-x="1642" arabic-form="isolated" 
d="M263 -34q-21 -33 -26 -156h-165q-7 7 -40 86q-32 81 -32 155q0 121 72 177.5t228 56.5h17q-14 40 -23 88t-9 85q0 81 36 164.5t97 159.5l-62 13q54 148 160 254q389 -75 600 -167q106 -47 191 -109t145 -169t60 -262q0 -22 -13 -342h-1171q-43 0 -65 -34zM819 484
q0 48 -12 101.5t-42 93.5t-80 40q-47 0 -77 -32.5t-43 -80.5t-13 -96q0 -58 17 -123.5t50 -101.5h160q40 76 40 199zM1202 352q0 107 -64 181.5t-191 113.5q29 -45 44 -131.5t14 -230.5h190q7 20 7 67z" />
    <glyph glyph-name="uni06C1" unicode="&#x6c1;" horiz-adv-x="1073" arabic-form="isolated" 
d="M0 405q0 171 78 294.5t190.5 184t218.5 60.5q131 0 239.5 -67t172.5 -189.5t64 -281.5q0 -87 -46 -181t-150 -159.5t-267 -65.5h-39q-139 0 -243.5 52t-161 144t-56.5 209zM626 438q0 68 -19 119t-53.5 78.5t-78.5 27.5q-41 0 -75.5 -27.5t-55 -79t-20.5 -118.5
q0 -153 156 -153q71 0 108.5 39.5t37.5 113.5z" />
    <glyph glyph-name="uni06C2.fina" unicode="&#x6c2;" horiz-adv-x="864" 
d="M543 180q-37 51 -74 83t-76 32q-31 0 -57.5 -24.5t-42.5 -70t-16 -106.5q0 -65 19 -151h-276q-13 50 -16.5 86t-3.5 102q0 127 51 232t137 166t188 61q59 0 105.5 -14t89.5 -44q13 -9 36.5 -33t47.5 -51q73 -80 123 -121.5t84 -41.5h2q28 0 42 -8.5t19.5 -28.5t5.5 -58
v-75q0 -45 -4.5 -69t-18 -35t-40.5 -11h-51q-78 0 -141.5 43.5t-132.5 136.5zM151 1047q-30 58 -30 104q0 85 44.5 146t118 93t159.5 32q46 0 84.5 -3.5t126.5 -16.5l-20 -227q-63 21 -136 21q-49 0 -78 -18.5t-29 -45.5q0 -40 41.5 -62.5t108.5 -22.5h126v-232h-609v232h93
z" />
    <glyph glyph-name="uni06C3.fina" unicode="&#x6c3;" horiz-adv-x="1205" 
d="M681 111q-123 -45 -235 -45q-130 0 -231 43t-158 124t-57 189q0 172 157.5 299.5t473.5 202.5v120h361v-688q0 -40 10 -55.5t37 -15.5h165q28 0 42 -8.5t19.5 -28.5t5.5 -58v-75q0 -45 -4.5 -69t-18 -35t-40.5 -11h-217q-232 0 -310 111zM350 434q0 -43 35 -68t93 -25
q79 0 153 33v264q-147 -39 -214 -89t-67 -115zM613 1383q0 -44 -22 -83.5t-60.5 -63.5t-86.5 -24q-46 0 -85 23t-62 62.5t-23 85.5q0 45 22.5 85t62 63.5t85.5 23.5t85 -23.5t61.5 -63t22.5 -85.5zM1023 1383q0 -44 -22 -83.5t-60.5 -63.5t-86.5 -24q-46 0 -85 23t-62 62.5
t-23 85.5q0 45 22.5 85t62 63.5t85.5 23.5t85 -23.5t61.5 -63t22.5 -85.5z" />
    <glyph glyph-name="uni06CC" unicode="&#x6cc;" horiz-adv-x="1700" arabic-form="isolated" 
d="M1247 585q-94 0 -94 -63q0 -57 109 -127q113 -74 172.5 -149t59.5 -154q0 -123 -88.5 -243t-252.5 -197t-376 -77q-288 0 -462 96t-244.5 229t-70.5 255q0 109 50.5 235.5t130.5 224.5l300 -156q-59 -72 -89.5 -148t-30.5 -141q0 -104 58.5 -169t151.5 -93.5t203 -28.5
q100 0 182 25t128.5 65.5t46.5 84.5q0 41 -84 105q-84 62 -134 109q-54 52 -86.5 115t-32.5 132q0 125 76 207t188 120t223 38q67 0 161 -20t168 -47l-84 -307q-197 79 -279 79z" />
    <glyph glyph-name="uni06D2" unicode="&#x6d2;" horiz-adv-x="2174" arabic-form="isolated" 
d="M1907 21q-233 -42 -544 -65t-512 -23q-427 0 -639 82.5t-212 255.5q0 164 194 304q195 139 611 258l97 -281q-321 -81 -440 -137q-125 -59 -125 -104q0 -39 148 -56t323 -17q610 0 1123 96z" />
    <glyph glyph-name="uni06D3" unicode="&#x6d3;" horiz-adv-x="2174" arabic-form="isolated" 
d="M1907 21q-233 -42 -544 -65t-512 -23q-427 0 -639 82.5t-212 255.5q0 164 194 304q195 139 611 258l97 -281q-321 -81 -440 -137q-125 -59 -125 -104q0 -39 148 -56t323 -17q610 0 1123 96zM112 1184q-30 58 -30 104q0 85 44.5 146t118 93t159.5 32q46 0 84.5 -3.5
t126.5 -16.5l-20 -227q-63 21 -136 21q-49 0 -78 -18.5t-29 -45.5q0 -40 41.5 -62.5t108.5 -22.5h126v-232h-609v232h93z" />
    <glyph glyph-name="uni06D5.fina" unicode="&#x6d5;" horiz-adv-x="1205" 
d="M681 111q-123 -45 -235 -45q-130 0 -231 43t-158 124t-57 189q0 172 157.5 299.5t473.5 202.5v120h361v-688q0 -40 10 -55.5t37 -15.5h165q28 0 42 -8.5t19.5 -28.5t5.5 -58v-75q0 -45 -4.5 -69t-18 -35t-40.5 -11h-217q-232 0 -310 111zM350 434q0 -43 35 -68t93 -25
q79 0 153 33v264q-147 -39 -214 -89t-67 -115z" />
    <glyph glyph-name="uniFB51" unicode="&#x671;" horiz-adv-x="734" arabic-form="final" 
d="M150 360v1080h361v-1024q0 -69 25.5 -100t82.5 -31h115q28 0 42 -8.5t19.5 -28.5t5.5 -58v-75q0 -45 -4.5 -69t-18 -35t-40.5 -11h-224q-179 0 -271.5 89t-92.5 271zM97 1643v226h131v-45q39 30 89 46.5t101 16.5q94 0 146.5 -55t52.5 -148v-173h-606v132h86zM375 1775
q-41 0 -85 -40q-44 -39 -45 -91h212v41q0 90 -82 90z" />
    <glyph glyph-name="uniFB57" unicode="&#x67e;" horiz-adv-x="1988" arabic-form="final" 
d="M1701 104q-91 -104 -261 -104h-819q-314 0 -467.5 98.5t-153.5 318.5q0 43 10.5 126.5t21.5 134.5l324 -29q-18 -98 -18 -177q0 -60 24 -99.5t99 -63.5t221 -24h619q56 0 86 30.5t30 82.5v482h362v-541q0 -10 -1 -15q91 -39 201 -39h9q28 0 42 -8.5t19.5 -28.5t5.5 -58
v-75q0 -45 -4.5 -69t-18 -35t-40.5 -11h-11q-72 0 -144.5 27.5t-135.5 76.5zM763 -542q-44 0 -83.5 23t-63 62.5t-23.5 85.5q0 45 23 84.5t62 63.5t85 24q44 0 83 -23.5t62.5 -63t23.5 -85.5q0 -44 -22.5 -83.5t-61.5 -63.5t-85 -24zM1173 -199q44 0 83 -23.5t62.5 -63
t23.5 -85.5q0 -44 -22.5 -83.5t-61.5 -63.5t-85 -24q-36 0 -74.5 18t-66 56.5t-28.5 96.5q0 45 22.5 84.5t61.5 63.5t85 24zM967 -926q-44 0 -83.5 23t-63 62.5t-23.5 85.5q0 45 23 84.5t62 63.5t85 24q44 0 83 -23.5t62.5 -63t23.5 -85.5q0 -44 -22.5 -83.5t-61.5 -63.5
t-85 -24z" />
    <glyph glyph-name="uniFB58" unicode="&#x67e;" horiz-adv-x="819" arabic-form="initial" 
d="M-69 115v75q0 38 5.5 58t19.5 28.5t42 8.5h308v595h362v-880h-674q-27 0 -40.5 11t-18 35t-4.5 69zM217 -542q-44 0 -83.5 23t-63 62.5t-23.5 85.5q0 45 23 84.5t62 63.5t85 24q44 0 83 -23.5t62.5 -63t23.5 -85.5q0 -44 -22.5 -83.5t-61.5 -63.5t-85 -24zM627 -199
q44 0 83 -23.5t62.5 -63t23.5 -85.5q0 -44 -22.5 -83.5t-61.5 -63.5t-85 -24q-36 0 -74.5 18t-66 56.5t-28.5 96.5q0 45 22.5 84.5t61.5 63.5t85 24zM421 -926q-44 0 -83.5 23t-63 62.5t-23.5 85.5q0 45 23 84.5t62 63.5t85 24q44 0 83 -23.5t62.5 -63t23.5 -85.5
q0 -44 -22.5 -83.5t-61.5 -63.5t-85 -24z" />
    <glyph glyph-name="uniFB59" unicode="&#x67e;" horiz-adv-x="817" arabic-form="medial" 
d="M509 122q-92 -122 -271 -122h-244q-27 0 -40.5 11t-18 35t-4.5 69v75q0 38 5.5 58t19.5 28.5t42 8.5h141q42 0 59 20t17 73v502h362v-540q100 -55 225 -55h15q28 0 42 -8.5t19.5 -28.5t5.5 -58v-75q0 -45 -4.5 -69t-18 -35t-40.5 -11h-11q-78 0 -157.5 33t-143.5 89z
M189 -542q-44 0 -83.5 23t-63 62.5t-23.5 85.5q0 45 23 84.5t62 63.5t85 24q44 0 83 -23.5t62.5 -63t23.5 -85.5q0 -44 -22.5 -83.5t-61.5 -63.5t-85 -24zM599 -199q44 0 83 -23.5t62.5 -63t23.5 -85.5q0 -44 -22.5 -83.5t-61.5 -63.5t-85 -24q-36 0 -74.5 18t-66 56.5
t-28.5 96.5q0 45 22.5 84.5t61.5 63.5t85 24zM393 -926q-44 0 -83.5 23t-63 62.5t-23.5 85.5q0 45 23 84.5t62 63.5t85 24q44 0 83 -23.5t62.5 -63t23.5 -85.5q0 -44 -22.5 -83.5t-61.5 -63.5t-85 -24z" />
    <glyph glyph-name="uniFB67" unicode="&#x679;" horiz-adv-x="1988" arabic-form="final" 
d="M1701 104q-91 -104 -261 -104h-819q-314 0 -467.5 98.5t-153.5 318.5q0 43 10.5 126.5t21.5 134.5l324 -29q-18 -98 -18 -177q0 -60 24 -99.5t99 -63.5t221 -24h619q56 0 86 30.5t30 82.5v482h362v-541q0 -10 -1 -15q91 -39 201 -39h9q28 0 42 -8.5t19.5 -28.5t5.5 -58
v-75q0 -45 -4.5 -69t-18 -35t-40.5 -11h-11q-72 0 -144.5 27.5t-135.5 76.5zM730 1088v551h169v-297q85 52 175 52q112 0 173.5 -69t61.5 -190v-187h-684v140h105zM1033 1255q-53 0 -108.5 -45.5t-88.5 -121.5h306v42q0 75 -30 100t-79 25z" />
    <glyph glyph-name="uniFB68" unicode="&#x679;" horiz-adv-x="731" arabic-form="initial" 
d="M-69 115v75q0 38 5.5 58t19.5 28.5t42 8.5h221v595h362v-880h-587q-27 0 -40.5 11t-18 35t-4.5 69zM120 1199v551h169v-297q85 52 175 52q112 0 173.5 -69t61.5 -190v-187h-684v140h105zM423 1366q-53 0 -108.5 -45.5t-88.5 -121.5h306v42q0 75 -30 100t-79 25z" />
    <glyph glyph-name="uniFB69" unicode="&#x679;" horiz-adv-x="817" arabic-form="medial" 
d="M509 122q-92 -122 -271 -122h-244q-27 0 -40.5 11t-18 35t-4.5 69v75q0 38 5.5 58t19.5 28.5t42 8.5h141q42 0 59 20t17 73v502h362v-540q100 -55 225 -55h15q28 0 42 -8.5t19.5 -28.5t5.5 -58v-75q0 -45 -4.5 -69t-18 -35t-40.5 -11h-11q-78 0 -157.5 33t-143.5 89z
M154 1199v551h169v-297q85 52 175 52q112 0 173.5 -69t61.5 -190v-187h-684v140h105zM457 1366q-53 0 -108.5 -45.5t-88.5 -121.5h306v42q0 75 -30 100t-79 25z" />
    <glyph glyph-name="uniFB6B" unicode="&#x6a4;" horiz-adv-x="2272" arabic-form="final" 
d="M1705 29q-139 -14 -378 -21.5t-377 -7.5h-336q-233 0 -368.5 51.5t-190.5 143t-55 222.5q0 58 8.5 117.5t24.5 143.5l331 -29q-13 -71 -19 -113t-6 -76q0 -60 27.5 -97.5t102.5 -57.5t214 -20h499q-22 48 -34 100t-12 88q0 138 74.5 239t196 154t259.5 53
q126 0 231.5 -39.5t171 -131t65.5 -238.5q0 -43 -11.5 -102t-32.5 -123h182q28 0 42 -8.5t19.5 -28.5t5.5 -58v-75q0 -45 -4.5 -69t-18 -35t-40.5 -11h-180q-164 0 -391 29zM1770 477q0 76 -38.5 118t-101.5 42t-104 -40t-41 -105q0 -59 30.5 -106.5t80.5 -74t108 -26.5h18
q21 39 34.5 96.5t13.5 95.5zM1794 1713q0 -44 -22 -83.5t-60.5 -63.5t-86.5 -24q-46 0 -85 23t-62 62.5t-23 85.5q0 45 22.5 85t62 63.5t85.5 23.5t85 -23.5t61.5 -63t22.5 -85.5zM1591 1327q0 -44 -22 -83.5t-60.5 -63.5t-86.5 -24q-46 0 -85 23t-62 62.5t-23 85.5
q0 45 22.5 85t62 63.5t85.5 23.5t85 -23.5t61.5 -63t22.5 -85.5zM2001 1327q0 -44 -22 -83.5t-60.5 -63.5t-86.5 -24q-46 0 -85 23t-62 62.5t-23 85.5q0 45 22.5 85t62 63.5t85.5 23.5t85 -23.5t61.5 -63t22.5 -85.5z" />
    <glyph glyph-name="uniFB6C" unicode="&#x6a4;" horiz-adv-x="1282" arabic-form="initial" 
d="M-69 115v75q0 38 5.5 58t19.5 28.5t42 8.5h182q-32 100 -32 172q0 148 69 252t187.5 157t266.5 53q141 0 249.5 -53t170 -155.5t61.5 -245.5v-465h-1158q-27 0 -40.5 11t-18 35t-4.5 69zM645 624q-65 0 -106.5 -44.5t-41.5 -119.5q0 -50 23.5 -90t65.5 -62.5t94 -22.5
h111v143q0 90 -39 143t-107 53zM839 1713q0 -44 -22 -83.5t-60.5 -63.5t-86.5 -24q-46 0 -85 23t-62 62.5t-23 85.5q0 45 22.5 85t62 63.5t85.5 23.5t85 -23.5t61.5 -63t22.5 -85.5zM636 1327q0 -44 -22 -83.5t-60.5 -63.5t-86.5 -24q-46 0 -85 23t-62 62.5t-23 85.5
q0 45 22.5 85t62 63.5t85.5 23.5t85 -23.5t61.5 -63t22.5 -85.5zM1046 1327q0 -44 -22 -83.5t-60.5 -63.5t-86.5 -24q-46 0 -85 23t-62 62.5t-23 85.5q0 45 22.5 85t62 63.5t85.5 23.5t85 -23.5t61.5 -63t22.5 -85.5z" />
    <glyph glyph-name="uniFB6D" unicode="&#x6a4;" horiz-adv-x="1278" arabic-form="medial" 
d="M715 29q-121 -14 -273.5 -21.5t-264.5 -7.5h-181q-27 0 -40.5 11t-18 35t-4.5 69v75q0 38 5.5 58t19.5 28.5t42 8.5h188q-22 48 -34 100t-12 88q0 129 70 230.5t191.5 158.5t268.5 57q140 0 245.5 -46.5t164 -138t58.5 -224.5q0 -43 -11.5 -102t-32.5 -123h182
q28 0 42 -8.5t19.5 -28.5t5.5 -58v-75q0 -45 -4.5 -69t-18 -35t-40.5 -11h-96q-147 0 -247.5 6t-223.5 23zM776 477q0 75 -39 117.5t-101 42.5q-63 0 -103.5 -40t-40.5 -105q0 -57 29 -104.5t79 -75t108 -27.5h20q21 40 34.5 95t13.5 97zM787 1713q0 -44 -22 -83.5
t-60.5 -63.5t-86.5 -24q-46 0 -85 23t-62 62.5t-23 85.5q0 45 22.5 85t62 63.5t85.5 23.5t85 -23.5t61.5 -63t22.5 -85.5zM584 1327q0 -44 -22 -83.5t-60.5 -63.5t-86.5 -24q-46 0 -85 23t-62 62.5t-23 85.5q0 45 22.5 85t62 63.5t85.5 23.5t85 -23.5t61.5 -63t22.5 -85.5z
M994 1327q0 -44 -22 -83.5t-60.5 -63.5t-86.5 -24q-46 0 -85 23t-62 62.5t-23 85.5q0 45 22.5 85t62 63.5t85.5 23.5t85 -23.5t61.5 -63t22.5 -85.5z" />
    <glyph glyph-name="uniFB7B" unicode="&#x686;" horiz-adv-x="1190" arabic-form="final" 
d="M345 -221q0 -102 79.5 -158.5t240.5 -58.5l12 -287q-44 -4 -81 -4q-158 0 -293.5 55.5t-219 169t-83.5 279.5q0 172 75.5 290t209 176.5t307.5 58.5h150q-11 13 -18.5 42.5t-15.5 80.5q-17 110 -63.5 166.5t-150.5 56.5q-121 0 -259 -39v267q115 31 191.5 46t157.5 15
q194 0 309.5 -100t137.5 -279q9 -69 21 -120t44.5 -93.5t89.5 -42.5h4q28 0 42 -8.5t19.5 -28.5t5.5 -58v-90q0 -45 -4.5 -69t-18 -35t-40.5 -11h-615q-109 0 -171.5 -59t-62.5 -162zM689 -366q-37 0 -68 18t-49.5 49.5t-18.5 69.5q0 36 18 68t49 51t69 19q35 0 66.5 -19
t50 -50.5t18.5 -68.5q0 -35 -18 -66.5t-49 -51t-68 -19.5zM1017 -366q-35 0 -66.5 18.5t-50 50t-18.5 68.5q0 36 18 67.5t49 51t68 19.5q35 0 66.5 -19t50 -50.5t18.5 -68.5q0 -35 -18 -66.5t-49 -51t-68 -19.5zM851 -673q-36 0 -67 17t-49.5 48t-18.5 72q0 36 18 67.5
t49 51t68 19.5q35 0 66.5 -19t50 -50.5t18.5 -68.5q0 -35 -18 -66.5t-49 -51t-68 -19.5z" />
    <glyph glyph-name="uniFB7C" unicode="&#x686;" horiz-adv-x="1162" arabic-form="initial" 
d="M-69 115v75q0 38 5.5 58t19.5 28.5t42 8.5h638q-17 26 -32 123q-12 79 -30 125t-45 68q-53 45 -135 45q-57 0 -131 -11t-134 -28v267q115 31 191.5 46t157.5 15q128 0 223.5 -45t152 -129.5t71.5 -201.5q12 -100 45.5 -185.5t101.5 -88.5v-285h-1078q-27 0 -40.5 11
t-18 35t-4.5 69zM323 -542q-44 0 -83.5 23t-63 62.5t-23.5 85.5q0 45 23 84.5t62 63.5t85 24q44 0 83 -23.5t62.5 -63t23.5 -85.5q0 -44 -22.5 -83.5t-61.5 -63.5t-85 -24zM733 -199q44 0 83 -23.5t62.5 -63t23.5 -85.5q0 -44 -22.5 -83.5t-61.5 -63.5t-85 -24
q-36 0 -74.5 18t-66 56.5t-28.5 96.5q0 45 22.5 84.5t61.5 63.5t85 24zM527 -926q-44 0 -83.5 23t-63 62.5t-23.5 85.5q0 45 23 84.5t62 63.5t85 24q44 0 83 -23.5t62.5 -63t23.5 -85.5q0 -44 -22.5 -83.5t-61.5 -63.5t-85 -24z" />
    <glyph glyph-name="uniFB7D" unicode="&#x686;" horiz-adv-x="1084" arabic-form="medial" 
d="M-69 115v75q0 38 5.5 58t19.5 28.5t42 8.5h640q-15 21 -33 129q-12 73 -32 122.5t-63 79.5t-116 30q-59 0 -128.5 -10t-134.5 -29v267q113 31 188.5 46t160.5 15q193 0 310 -100.5t138 -283.5q11 -114 47 -190t105 -76h4q28 0 42 -8.5t19.5 -28.5t5.5 -58v-75
q0 -45 -4.5 -69t-18 -35t-40.5 -11h-1094q-27 0 -40.5 11t-18 35t-4.5 69zM322 -542q-44 0 -83.5 23t-63 62.5t-23.5 85.5q0 45 23 84.5t62 63.5t85 24q44 0 83 -23.5t62.5 -63t23.5 -85.5q0 -44 -22.5 -83.5t-61.5 -63.5t-85 -24zM732 -199q44 0 83 -23.5t62.5 -63
t23.5 -85.5q0 -44 -22.5 -83.5t-61.5 -63.5t-85 -24q-36 0 -74.5 18t-66 56.5t-28.5 96.5q0 45 22.5 84.5t61.5 63.5t85 24zM526 -926q-44 0 -83.5 23t-63 62.5t-23.5 85.5q0 45 23 84.5t62 63.5t85 24q44 0 83 -23.5t62.5 -63t23.5 -85.5q0 -44 -22.5 -83.5t-61.5 -63.5
t-85 -24z" />
    <glyph glyph-name="uniFB89" unicode="&#x688;" horiz-adv-x="1168" arabic-form="final" 
d="M845 135q-129 -135 -388 -135h-415v285h419q68 0 108 28.5t40 82.5q0 56 -97 162q-98 108 -263 235l250 245q217 -183 327.5 -344t110.5 -293q0 -32 -4 -65q96 -51 220 -51h14q28 0 42 -8.5t19.5 -28.5t5.5 -58v-75q0 -45 -4.5 -69t-18 -35t-40.5 -11h-9q-86 0 -169 36
t-148 99zM200 1268v551h169v-297q85 52 175 52q112 0 173.5 -69t61.5 -190v-187h-684v140h105zM503 1435q-53 0 -108.5 -45.5t-88.5 -121.5h306v42q0 75 -30 100t-79 25z" />
    <glyph glyph-name="uniFB8B" unicode="&#x698;" horiz-adv-x="815" arabic-form="final" 
d="M43 -458l-49 302q92 21 143.5 53.5t75 92t23.5 157.5v733h361v-595h218q28 0 42 -8.5t19.5 -28.5t5.5 -58v-75q0 -45 -4.5 -69t-18 -35t-40.5 -11h-241q-38 -202 -169 -311.5t-366 -146.5zM591 1713q0 -44 -22 -83.5t-60.5 -63.5t-86.5 -24q-46 0 -85 23t-62 62.5
t-23 85.5q0 45 22.5 85t62 63.5t85.5 23.5t85 -23.5t61.5 -63t22.5 -85.5zM388 1327q0 -44 -22 -83.5t-60.5 -63.5t-86.5 -24q-46 0 -85 23t-62 62.5t-23 85.5q0 45 22.5 85t62 63.5t85.5 23.5t85 -23.5t61.5 -63t22.5 -85.5zM798 1327q0 -44 -22 -83.5t-60.5 -63.5
t-86.5 -24q-46 0 -85 23t-62 62.5t-23 85.5q0 45 22.5 85t62 63.5t85.5 23.5t85 -23.5t61.5 -63t22.5 -85.5z" />
    <glyph glyph-name="uniFB8D" unicode="&#x691;" horiz-adv-x="815" arabic-form="final" 
d="M43 -458l-49 302q92 21 143.5 53.5t75 92t23.5 157.5v733h361v-595h218q28 0 42 -8.5t19.5 -28.5t5.5 -58v-75q0 -45 -4.5 -69t-18 -35t-40.5 -11h-241q-38 -202 -169 -311.5t-366 -146.5zM129 1284v551h169v-297q85 52 175 52q112 0 173.5 -69t61.5 -190v-187h-684v140
h105zM432 1451q-53 0 -108.5 -45.5t-88.5 -121.5h306v42q0 75 -30 100t-79 25z" />
    <glyph glyph-name="uniFB8F" unicode="&#x6a9;" horiz-adv-x="2002" arabic-form="final" 
d="M1683 131q-61 -64 -155.5 -97.5t-216.5 -33.5h-687q-315 0 -469.5 98.5t-154.5 318.5q0 58 8.5 117.5t24.5 143.5l324 -29q-18 -98 -18 -178q0 -76 40 -116.5t113.5 -55t189.5 -14.5h600q68 0 107 23.5t39 70.5q0 68 -99.5 156t-301.5 202l480 770l275 -171l-315 -519
q306 -190 306 -441q0 -14 -2 -42q103 -49 214 -49h16q28 0 42 -8.5t19.5 -28.5t5.5 -58v-75q0 -45 -4.5 -69t-18 -35t-40.5 -11h-9q-83 0 -165.5 35t-147.5 96z" />
    <glyph glyph-name="uniFB90" unicode="&#x6a9;" horiz-adv-x="942" arabic-form="initial" 
d="M-69 115v75q0 38 5.5 58t19.5 28.5t42 8.5h327q153 0 153 94q0 68 -99.5 156t-301.5 202l480 770l275 -171l-315 -519q153 -95 229.5 -206t76.5 -235q0 -125 -61.5 -209.5t-166 -125.5t-236.5 -41h-365q-27 0 -40.5 11t-18 35t-4.5 69z" />
    <glyph glyph-name="uniFB91" unicode="&#x6a9;" horiz-adv-x="1061" arabic-form="medial" 
d="M743 130q-64 -65 -159.5 -97.5t-214.5 -32.5h-375q-27 0 -40.5 11t-18 35t-4.5 69v75q0 38 5.5 58t19.5 28.5t42 8.5h345q68 0 106.5 23.5t38.5 70.5q0 67 -99.5 155t-300.5 203l479 770l273 -171l-314 -519q149 -91 228 -202.5t79 -238.5l-2 -42q52 -27 110 -38t109 -11
h10q28 0 42 -8.5t19.5 -28.5t5.5 -58v-75q0 -45 -4.5 -69t-18 -35t-40.5 -11h-9q-83 0 -164 34t-148 96z" />
    <glyph glyph-name="uniFB93" unicode="&#x6af;" horiz-adv-x="2002" arabic-form="final" 
d="M1403 1559l-480 -770l-266 147l491 777zM1683 131q-61 -64 -155.5 -97.5t-216.5 -33.5h-687q-315 0 -469.5 98.5t-154.5 318.5q0 58 8.5 117.5t24.5 143.5l324 -29q-18 -98 -18 -178q0 -76 40 -116.5t113.5 -55t189.5 -14.5h600q68 0 107 23.5t39 70.5q0 68 -99.5 156
t-301.5 202l480 770l275 -171l-315 -519q306 -190 306 -441q0 -14 -2 -42q103 -49 214 -49h16q28 0 42 -8.5t19.5 -28.5t5.5 -58v-75q0 -45 -4.5 -69t-18 -35t-40.5 -11h-9q-83 0 -165.5 35t-147.5 96z" />
    <glyph glyph-name="uniFB94" unicode="&#x6af;" horiz-adv-x="1140" arabic-form="initial" 
d="M677 1559l-480 -770l-266 147l491 777zM-52 115v75q0 38 5.5 58t19.5 28.5t42 8.5h515q68 0 107 23.5t39 70.5q0 68 -99.5 156t-301.5 202l480 770l275 -171l-315 -519q153 -95 229.5 -206t76.5 -235q0 -125 -61.5 -209t-165.5 -125t-235 -42h-548q-27 0 -40.5 11t-18 35
t-4.5 69z" />
    <glyph glyph-name="uniFB95" unicode="&#x6af;" horiz-adv-x="1185" arabic-form="medial" 
d="M677 1559l-480 -770l-266 147l491 777zM900 102q-62 -51 -149.5 -76.5t-191.5 -25.5h-548q-27 0 -40.5 11t-18 35t-4.5 69v75q0 38 5.5 58t19.5 28.5t42 8.5h512q71 0 110 23.5t39 70.5q0 68 -99.5 156t-301.5 202l480 770l275 -171l-315 -519q153 -95 229.5 -206
t76.5 -235q0 -16 -5 -67q78 -24 159 -24h9q28 0 42 -8.5t19.5 -28.5t5.5 -58v-75q0 -45 -4.5 -69t-18 -35t-40.5 -11h-9q-73 0 -144.5 26.5t-134.5 75.5z" />
    <glyph glyph-name="uniFB9F" unicode="&#x6ba;" horiz-adv-x="1596" arabic-form="final" 
d="M1358 70q-35 -153 -126.5 -263.5t-230.5 -168.5t-315 -58q-210 0 -365 72t-238 203t-83 304q0 107 47 230.5t118 239.5l298 -158q-42 -66 -67 -143t-25 -145q0 -85 41 -153t118.5 -107t181.5 -39q148 0 225 90t77 260q0 70 -30.5 180t-66.5 190l352 94q72 -200 98 -364
q52 -27 110.5 -38t109.5 -11h9q28 0 42 -8.5t19.5 -28.5t5.5 -58v-75q0 -45 -4.5 -69t-18 -35t-40.5 -11h-9q-120 0 -233 70z" />
    <glyph glyph-name="uniFBA5" unicode="&#x6c0;" horiz-adv-x="1205" arabic-form="final" 
d="M681 111q-123 -45 -235 -45q-130 0 -231 43t-158 124t-57 189q0 172 157.5 299.5t473.5 202.5v120h361v-688q0 -40 10 -55.5t37 -15.5h165q28 0 42 -8.5t19.5 -28.5t5.5 -58v-75q0 -45 -4.5 -69t-18 -35t-40.5 -11h-217q-232 0 -310 111zM350 434q0 -43 35 -68t93 -25
q79 0 153 33v264q-147 -39 -214 -89t-67 -115zM318 1483q-30 58 -30 104q0 85 44.5 146t118 93t159.5 32q46 0 84.5 -3.5t126.5 -16.5l-20 -227q-63 21 -136 21q-49 0 -78 -18.5t-29 -45.5q0 -40 41.5 -62.5t108.5 -22.5h126v-232h-609v232h93z" />
    <glyph glyph-name="uniFBA7" unicode="&#x6c1;" horiz-adv-x="864" arabic-form="final" 
d="M543 180q-37 51 -74 83t-76 32q-31 0 -57.5 -24.5t-42.5 -70t-16 -106.5q0 -65 19 -151h-276q-13 50 -16.5 86t-3.5 102q0 127 51 232t137 166t188 61q59 0 105.5 -14t89.5 -44q13 -9 36.5 -33t47.5 -51q73 -80 123 -121.5t84 -41.5h2q28 0 42 -8.5t19.5 -28.5t5.5 -58
v-75q0 -45 -4.5 -69t-18 -35t-40.5 -11h-51q-78 0 -141.5 43.5t-132.5 136.5z" />
    <glyph glyph-name="uniFBA8" unicode="&#x6c1;" horiz-adv-x="731" arabic-form="initial" 
d="M412 -136q0 -36 21.5 -57t60.5 -21q33 0 69 12q-42 -96 -103 -144.5t-149 -48.5q-79 0 -128.5 46t-49.5 128q0 55 16 108t49 113h-204q-27 0 -40.5 11t-18 35t-4.5 69v75q0 38 5.5 58t19.5 28.5t42 8.5h221v595h362v-880h-119q-50 -62 -50 -136z" />
    <glyph glyph-name="uniFBA9" unicode="&#x6c1;" horiz-adv-x="1054" arabic-form="medial" 
d="M753 -193q-46 -104 -75.5 -229t-46.5 -297q-157 41 -272.5 127.5t-177 203.5t-61.5 248q0 55 13 140h-139q-27 0 -40.5 11t-18 35t-4.5 69v75q0 38 5.5 58t19.5 28.5t42 8.5h473q-30 -67 -52.5 -165t-22.5 -174q0 -77 22 -149t69 -123h10q39 180 93.5 310t160 215.5
t268.5 85.5h35q28 0 42 -8.5t19.5 -28.5t5.5 -58v-75q0 -45 -4.5 -69t-18 -35t-40.5 -11h-53q-164 0 -252 -193z" />
    <glyph glyph-name="uniFBAB" unicode="&#x6be;" horiz-adv-x="1407" arabic-form="final" 
d="M1265 -191q0 -121 -63.5 -209.5t-157 -134.5t-178.5 -46q-92 0 -206 54t-206 184.5t-109 342.5h-18q-44 0 -65 -35q-20 -33 -25 -155h-165q-33 56 -52.5 118t-19.5 123q0 120 72 177t230 57h56q41 176 126 316q50 84 121.5 153t152.5 109t157 40q99 0 183 -62t133 -159.5
t49 -198.5q0 -47 -13.5 -100.5t-36.5 -97.5h177q28 0 42 -8.5t19.5 -28.5t5.5 -58v-75q0 -45 -4.5 -69t-18 -35t-40.5 -11h-201q55 -101 55 -191zM980 447q0 31 -11.5 67t-35.5 61t-57 25q-55 0 -114 -86q-60 -87 -97 -229h172q40 0 72.5 23t51.5 60.5t19 78.5zM861 -286
q42 0 72 33t30 81q0 39 -16.5 79t-47.5 66.5t-73 26.5h-161q8 -57 31.5 -122.5t65 -114.5t99.5 -49z" />
    <glyph glyph-name="uniFBAC" unicode="&#x6be;" horiz-adv-x="1530" arabic-form="initial" 
d="M263 -34q-21 -33 -26 -156h-165q-7 7 -40 86q-32 81 -32 155q0 121 72 177.5t228 56.5h17q-14 40 -23 88t-9 85q0 81 36 164.5t97 159.5l-62 13q54 148 160 254q389 -75 600 -167q106 -47 191 -109t145 -169t60 -262q0 -22 -13 -342h-1171q-43 0 -65 -34zM819 484
q0 48 -12 101.5t-42 93.5t-80 40q-47 0 -77 -32.5t-43 -80.5t-13 -96q0 -58 17 -123.5t50 -101.5h160q40 76 40 199zM1202 352q0 107 -64 181.5t-191 113.5q29 -45 44 -131.5t14 -230.5h190q7 20 7 67z" />
    <glyph glyph-name="uniFBAD" unicode="&#x6be;" horiz-adv-x="1325" arabic-form="medial" 
d="M1102 -191q0 -114 -59.5 -202t-152 -138t-187.5 -50q-144 0 -261 84t-185 218t-75 279h-188q-27 0 -40.5 11t-18 35t-4.5 69v75q0 38 5.5 58t19.5 28.5t42 8.5h197q41 173 126 314q45 75 112.5 144.5t150.5 114.5t168 45q100 0 184 -62t132.5 -160t48.5 -200
q0 -45 -13.5 -98.5t-36.5 -97.5h257q28 0 42 -8.5t19.5 -28.5t5.5 -58v-75q0 -45 -4.5 -69t-18 -35t-40.5 -11h-281q55 -101 55 -191zM817 447q0 31 -11.5 67t-35.5 61t-57 25q-55 0 -114 -86q-60 -87 -97 -229h169q40 0 73.5 23t53 60.5t19.5 78.5zM698 -286q42 0 72 33
t30 81q0 39 -16.5 79t-47.5 66.5t-73 26.5h-161q5 -54 29 -121t67 -116t100 -49z" />
    <glyph glyph-name="uniFBAF" unicode="&#x6d2;" horiz-adv-x="1014" arabic-form="final" 
d="M334 -76q0 -51 110 -75t381 -24q241 0 494 20.5t544 59.5l-26 -292q-236 -40 -507.5 -62.5t-560.5 -22.5q-383 0 -576 96t-193 285q0 188 189.5 282t560.5 94h265q28 0 42 -8.5t19.5 -28.5t5.5 -58v-75q0 -45 -4.5 -69t-18 -35t-40.5 -11h-393q-292 0 -292 -76z" />
    <glyph glyph-name="uniFBB1" unicode="&#x6d3;" horiz-adv-x="1040" arabic-form="final" 
d="M334 -76q0 -51 110 -75t381 -24q241 0 494 20.5t544 59.5l-26 -292q-236 -40 -507.5 -62.5t-560.5 -22.5q-383 0 -576 96t-193 285q0 188 189.5 282t560.5 94h265q28 0 42 -8.5t19.5 -28.5t5.5 -58v-75q0 -45 -4.5 -69t-18 -35t-40.5 -11h-393q-292 0 -292 -76zM122 763
q-30 58 -30 104q0 85 44.5 146t118 93t159.5 32q46 0 84.5 -3.5t126.5 -16.5l-20 -227q-63 21 -136 21q-49 0 -78 -18.5t-29 -45.5q0 -40 41.5 -62.5t108.5 -22.5h126v-232h-609v232h93z" />
    <glyph glyph-name="uniFBE8" unicode="&#x649;" horiz-adv-x="731" arabic-form="initial" 
d="M-69 115v75q0 38 5.5 58t19.5 28.5t42 8.5h221v595h362v-880h-587q-27 0 -40.5 11t-18 35t-4.5 69z" />
    <glyph glyph-name="uniFBE9" unicode="&#x649;" horiz-adv-x="817" arabic-form="medial" 
d="M509 122q-92 -122 -271 -122h-244q-27 0 -40.5 11t-18 35t-4.5 69v75q0 38 5.5 58t19.5 28.5t42 8.5h141q42 0 59 20t17 73v502h362v-540q100 -55 225 -55h15q28 0 42 -8.5t19.5 -28.5t5.5 -58v-75q0 -45 -4.5 -69t-18 -35t-40.5 -11h-11q-78 0 -157.5 33t-143.5 89z" />
    <glyph glyph-name="uniFBFD" unicode="&#x6cc;" horiz-adv-x="2260" arabic-form="final" 
d="M1686 342v245h-46q-86 0 -117 -50.5t-31 -140.5v-282q0 -132 -84.5 -256.5t-247.5 -203.5t-385 -79q-287 0 -460.5 96t-244 229t-70.5 256q0 116 48.5 232t133.5 224l292 -151q-45 -59 -78.5 -140.5t-33.5 -150.5q0 -94 51.5 -159.5t144.5 -98.5t217 -33q98 0 179 28.5
t129 84t48 132.5v306q0 221 132.5 336t392.5 115h390v-484q0 -112 118 -112h95q28 0 42 -8.5t19.5 -28.5t5.5 -58v-75q0 -45 -4.5 -69t-18 -35t-40.5 -11h-220q-170 0 -263.5 90t-93.5 252z" />
    <glyph glyph-name="uniFBFE" unicode="&#x6cc;" horiz-adv-x="818" arabic-form="initial" 
d="M-69 115v75q0 38 5.5 58t19.5 28.5t42 8.5h308v595h362v-880h-674q-27 0 -40.5 11t-18 35t-4.5 69zM226 -542q-45 0 -84 22t-62.5 61t-23.5 88q0 45 23 84.5t62 63.5t85 24q44 0 83 -23.5t62.5 -63t23.5 -85.5q0 -47 -22.5 -86t-61.5 -62t-85 -23zM636 -199
q44 0 83 -23.5t62.5 -63t23.5 -85.5q0 -44 -22.5 -83.5t-61.5 -63.5t-85 -24q-45 0 -84 22t-62 61t-23 88q0 45 22.5 84.5t61.5 63.5t85 24z" />
    <glyph glyph-name="uniFBFF" unicode="&#x6cc;" horiz-adv-x="817" arabic-form="medial" 
d="M509 122q-92 -122 -271 -122h-244q-27 0 -40.5 11t-18 35t-4.5 69v75q0 38 5.5 58t19.5 28.5t42 8.5h141q42 0 59 20t17 73v502h362v-540q100 -55 225 -55h15q28 0 42 -8.5t19.5 -28.5t5.5 -58v-75q0 -45 -4.5 -69t-18 -35t-40.5 -11h-11q-78 0 -157.5 33t-143.5 89z
M343 -371q0 -44 -22 -83.5t-60.5 -63.5t-86.5 -24q-46 0 -85 23t-62 62.5t-23 85.5q0 45 22.5 85t62 63.5t85.5 23.5t85 -23.5t61.5 -63t22.5 -85.5zM753 -371q0 -44 -22 -83.5t-60.5 -63.5t-86.5 -24q-46 0 -85 23t-62 62.5t-23 85.5q0 45 22.5 85t62 63.5t85.5 23.5
t85 -23.5t61.5 -63t22.5 -85.5z" />
    <glyph glyph-name="uni064C0651" unicode="&#xfc5e;" horiz-adv-x="0" arabic-form="isolated" 
d="M350 1910q0 -61 -26.5 -110.5t-74.5 -78t-110 -28.5q-38 0 -75 17t-64 44q-28 -28 -65.5 -44.5t-77.5 -16.5q-61 0 -109 26.5t-74.5 75.5t-26.5 113v203h141v-209q0 -31 19.5 -49.5t52.5 -18.5q30 0 51 21.5t21 49.5v179h134v-179q0 -28 21 -49.5t51 -21.5
q33 0 52.5 18.5t19.5 51.5v208h140v-202zM-193 2515q120 -167 222 -167q24 0 45 5q-34 36 -50.5 73.5t-16.5 79.5q0 52 25 96.5t67.5 70t91.5 25.5q82 0 129.5 -48t47.5 -136t-56 -155.5t-136.5 -104.5t-149.5 -37q-72 0 -127 28.5t-99 84.5l-101 -97l-82 90zM243 2509
q0 28 -15.5 44.5t-37.5 16.5q-24 0 -40.5 -17t-16.5 -44q0 -22 12 -45.5t44 -55.5q54 47 54 101z" />
    <glyph glyph-name="uni064D0651" unicode="&#xfc5f;" horiz-adv-x="0" arabic-form="isolated" 
d="M350 2430q0 -61 -26.5 -110.5t-74.5 -78t-110 -28.5q-38 0 -75 17t-64 44q-28 -28 -65.5 -44.5t-77.5 -16.5q-61 0 -109 26.5t-74.5 75.5t-26.5 113v203h141v-209q0 -31 19.5 -49.5t52.5 -18.5q30 0 51 21.5t21 49.5v179h134v-179q0 -28 21 -49.5t51 -21.5
q33 0 52.5 18.5t19.5 51.5v208h140v-202zM281 2063v-145h-568v145h568zM281 1838v-145h-568v145h568z" />
    <glyph glyph-name="uni064E0651" unicode="&#xfc60;" horiz-adv-x="0" arabic-form="isolated" 
d="M350 1910q0 -61 -26.5 -110.5t-74.5 -78t-110 -28.5q-38 0 -75 17t-64 44q-28 -28 -65.5 -44.5t-77.5 -16.5q-61 0 -109 26.5t-74.5 75.5t-26.5 113v203h141v-209q0 -31 19.5 -49.5t52.5 -18.5q30 0 51 21.5t21 49.5v179h134v-179q0 -28 21 -49.5t51 -21.5
q33 0 52.5 18.5t19.5 51.5v208h140v-202zM281 2388v-145h-568v145h568z" />
    <glyph glyph-name="uni064F0651" unicode="&#xfc61;" horiz-adv-x="0" arabic-form="isolated" 
d="M350 1910q0 -61 -26.5 -110.5t-74.5 -78t-110 -28.5q-38 0 -75 17t-64 44q-28 -28 -65.5 -44.5t-77.5 -16.5q-61 0 -109 26.5t-74.5 75.5t-26.5 113v203h141v-209q0 -31 19.5 -49.5t52.5 -18.5q30 0 51 21.5t21 49.5v179h134v-179q0 -28 21 -49.5t51 -21.5
q33 0 52.5 18.5t19.5 51.5v208h140v-202zM-13 2394q25 0 53 6q-66 72 -66 152q0 58 27 102t69.5 67t87.5 23q82 0 129.5 -48t47.5 -132q0 -87 -53.5 -156t-137.5 -107t-171 -38q-54 0 -123.5 12t-137.5 35l30 128q72 -23 128.5 -33.5t116.5 -10.5zM210 2555q0 28 -15.5 44.5
t-37.5 16.5q-24 0 -40.5 -17t-16.5 -44q0 -23 12.5 -46t43.5 -54q54 44 54 100z" />
    <glyph glyph-name="uni06500651" unicode="&#xfc62;" horiz-adv-x="0" arabic-form="isolated" 
d="M350 2180q0 -61 -26.5 -110.5t-74.5 -78t-110 -28.5q-38 0 -75 17t-64 44q-28 -28 -65.5 -44.5t-77.5 -16.5q-61 0 -109 26.5t-74.5 75.5t-26.5 113v203h141v-209q0 -31 19.5 -49.5t52.5 -18.5q30 0 51 21.5t21 49.5v179h134v-179q0 -28 21 -49.5t51 -21.5
q33 0 52.5 18.5t19.5 51.5v208h140v-202zM281 1838v-145h-568v145h568z" />
    <glyph glyph-name="uni06510670" unicode="&#xfc63;" horiz-adv-x="0" arabic-form="isolated" 
d="M350 1910q0 -61 -26.5 -110.5t-74.5 -78t-110 -28.5q-38 0 -75 17t-64 44q-28 -28 -65.5 -44.5t-77.5 -16.5q-61 0 -109 26.5t-74.5 75.5t-26.5 113v203h141v-209q0 -31 19.5 -49.5t52.5 -18.5q30 0 51 21.5t21 49.5v179h134v-179q0 -28 21 -49.5t51 -21.5
q33 0 52.5 18.5t19.5 51.5v208h140v-202zM72 2687v-475h-152v475h152z" />
    <glyph glyph-name="uniFDF2" unicode="&#xfdf2;" horiz-adv-x="3403" arabic-form="isolated" 
d="M1717 122q-92 -122 -271 -122h-453q-117 0 -193.5 26.5t-118.5 84.5q-123 -45 -239 -45q-110 0 -211.5 39.5t-166 120t-64.5 196.5q0 172 157.5 299.5t473.5 202.5l2 120h359v-690q0 -39 10 -54t36 -15h313q72 0 72 86v1069h362v-1100q51 -29 111.5 -42t114.5 -13h218
v1155h362v-1440h-580q-76 0 -151 32.5t-143 89.5zM3253 1440v-1440h-361v1440h361zM350 434q0 -43 35 -68t93 -25q80 0 154 33v265l-78 -25q-79 -25 -141.5 -69.5t-62.5 -110.5z" />
    <glyph glyph-name="uniFDFA" unicode="&#xfdfa;" horiz-adv-x="2165" arabic-form="isolated" 
d="M1702 16l35 74q24 -74 24 -108q0 -67 -22.5 -101.5t-67.5 -34.5q-46 0 -98 39q-31 -53 -121 -53q-98 0 -98 53q-44 -32 -143 -51.5t-235 -19.5q-229 0 -321 77t-96 238l-42 -63q-38 -55 -56 -56q3 -3 14 -30q10 -26 10 -54q0 -41 -20.5 -71.5t-54.5 -30.5q-40 0 -125 47
q-17 -41 -52 -72q-36 -33 -75 -33q-38 0 -74 -14q-12 0 -12 10q0 12 52 33q54 22 75 37l48 36l23 17q-20 36 -20 81q0 46 37 86q38 42 69 42q6 0 30 -12t42 -12q24 0 46 18q24 21 32 35l43 80q-98 27 -138 82t-55 147h-4q-60 -102 -162 -102q-36 0 -75 14q-37 13 -37 28
q0 50 85 114q84 65 177 94l-4 34l41 68v-2q17 -219 43 -285q28 -66 115 -94l-27 270l39 87l35 -367q120 -12 194 -12q212 0 363 81l16 45q14 33 23 33q8 0 8 -18q0 -19 -8 -51q72 -72 120 -72q56 0 86 88l-26 330h-9q-72 0 -114.5 37.5t-56.5 113.5h-4q-16 -65 -36.5 -101
t-47.5 -46l4 -4h29q114 0 114 -80q0 -41 -26 -73q-26 -31 -135 -86q-109 -56 -218 -56q-95 0 -152 48t-57 134q0 64 33 137q-29 8 -48 29.5t-30 58.5h-4q-31 -104 -113 -104q-48 0 -72 36t-24 110v12l-59 -52q-13 -12 -76 -12q-100 0 -100 37q0 21 27 64q29 45 46 53l160 78
v20l35 74l8 -240q3 -92 66 -92q34 0 65 25q33 26 29 53l-33 223l37 80q32 -178 53 -309q10 -64 72 -64q47 0 47 28q0 38 -32 143l-42 140l27 68q82 -252 82 -322q0 -40 -23 -94q-23 -53 -49 -53q-12 0 -18 6q-15 -42 -15 -80q0 -153 187 -153q102 0 195 45q92 44 100 59
q-4 13 -98 28l-105 17q-8 6 -8 17q0 16 17 41q17 24 19 24t36 17q59 31 85 67q11 17 11 57q0 188 -41 469l34 114q37 -324 68 -484q32 -153 158 -174l-10 196l43 92l16 -286q54 18 123 73q40 -30 71 -48t70 -25q50 52 147 122q95 68 131 68q38 0 87 -31q49 -30 49 -65
q0 -26 -27 -70q-24 -39 -49 -61q-27 -21 -97 -38t-161 -17q-49 0 -98 4q-49 -97 -78 -97q-8 0 -8 13q0 29 45 96q-85 33 -99 53q-43 -28 -66.5 -40.5t-35.5 -12.5q14 -273 48 -354q35 -80 175 -88l4 4q-43 31 -43 88q0 63 55 142t136 79q56 0 108 -35q51 -34 51 -63
q-59 18 -108 18q-74 0 -130 -28q-56 -29 -56 -56q0 -32 58 -87q54 -51 85 -51q29 0 137 35q100 31 137 52l-34 -76q-205 -108 -392 -108q-195 0 -243 149q-60 -133 -117 -133q-53 0 -137 90q-130 -115 -404 -115q-74 0 -143 11q15 -138 51 -190q36 -54 130.5 -81.5
t244.5 -27.5q232 0 338 65q16 39 30 57.5t28 18.5q7 0 7 -16q0 -30 -24 -91q12 -26 56 -26q51 0 99 24q24 73 40 104.5t29 31.5q7 -4 7 -23q0 -34 -20 -88q65 -27 90 -27q12 0 16 6v3q0 13 -16 77zM1669 1444l-12 -45l-400 -197l9 51zM664 1362q0 -66 -43 -66q-26 0 -43 17
q-16 -14 -32.5 -22.5t-29.5 -8.5q-43 0 -43 57q0 23 2 41q2 7 3.5 10.5t5 7t8.5 7.5v-14q0 -62 34 -62q22 0 39 33l-4 47l19 29l8 -63q5 -32 30 -32q24 0 24 24l-7 52l14 21q15 -37 15 -78zM975 915q-3 -69 -9.5 -104.5t-17.5 -43.5l-51 495l45 116zM1716 1187
q-164 -81 -164 -108q0 -23 54 -51l-19 -49q-67 22 -67 82q0 57 44 84q38 24 182 100q131 69 259 115l-18 -51q-113 -43 -271 -122zM281 952q-48 -21 -48 -40q0 -21 52 -21q59 0 104 27l-2 79q-50 -21 -106 -45zM1757 791q92 0 180 18q88 19 88 51q0 13 -36 32q-34 19 -55 19
q-39 0 -110 -42q-66 -39 -108 -76q2 0 13 -1t28 -1zM250 496q-84 -39 -84 -64q0 -20 62 -20q71 0 122 49q0 9 -2 45l-2 33q-14 -4 -96 -43zM1939 -82q-27 0 -50 29t-23 61q0 47 33 107q33 61 55 61q28 0 68 -54q42 -52 42 -118q0 -104 -84 -228t-178 -124q-42 0 -120 32
q-76 31 -76 48q0 8 10 8q9 0 55 -15q45 -16 76 -16q136 0 283 217l-15 45q-36 -53 -76 -53zM922 84l59 72l96 -72l56 68l100 -76l-53 -64l-99 72l-57 -74zM1986 70q-13 16 -34 16q-16 0 -26 -13q-11 -14 -15 -38q3 -18 19 -27q16 -10 43 -10q16 0 23 6q7 4 9 16
q-6 34 -19 50zM397 -15q-41 35 -79 35q-12 0 -19.5 -6t-7.5 -18q0 -25 52 -55q52 -31 81 -31q14 0 14 10q0 29 -41 65zM844 -367q59 0 92 5q30 4 85 38q54 33 73 33q16 0 38 -16q23 -17 28 -17q30 0 34 31q6 31 25 31q8 0 8 -13v-7q0 -8 -3 -10q3 -5 11.5 -9t12.5 -4
q25 0 25 28q0 27 20 29q1 -8 1 -23q0 -40 -12 -50q-13 -15 -43 -15q-16 0 -29 8q-29 -32 -61 -32q-15 0 -34 17q-17 17 -25 17q-16 0 -77 -35q-58 -36 -145 -36q-83 0 -88 15v2q4 13 64 13z" />
    <glyph glyph-name="uniFE82" unicode="&#x622;" horiz-adv-x="734" arabic-form="final" 
d="M150 360v1080h361v-1024q0 -69 25.5 -100t82.5 -31h115q28 0 42 -8.5t19.5 -28.5t5.5 -58v-75q0 -45 -4.5 -69t-18 -35t-40.5 -11h-224q-179 0 -271.5 89t-92.5 271zM715 1641q-36 -33 -76.5 -44.5t-103.5 -11.5q-43 0 -92.5 15t-127.5 54q-132 69 -194 69
q-38 0 -77.5 -18t-71.5 -54l-109 103q56 74 124 114t129 40q37 0 89 -17t133 -54q82 -37 129.5 -53.5t78.5 -16.5q54 0 94 27t62 74l133 -74q-54 -95 -120 -153z" />
    <glyph glyph-name="uniFE84" unicode="&#x623;" horiz-adv-x="734" arabic-form="final" 
d="M150 360v1080h361v-1024q0 -69 25.5 -100t82.5 -31h115q28 0 42 -8.5t19.5 -28.5t5.5 -58v-75q0 -45 -4.5 -69t-18 -35t-40.5 -11h-224q-179 0 -271.5 89t-92.5 271zM197 1852q-23 42 -23 75q0 60 31.5 103.5t83 65t111.5 21.5q34 0 64.5 -3t81.5 -10l-15 -157
q-42 14 -93 14q-36 0 -57 -13t-21 -34q0 -29 31 -45.5t80 -16.5h83v-159h-424v159h67z" />
    <glyph glyph-name="uniFE86" unicode="&#x624;" horiz-adv-x="1290" arabic-form="final" 
d="M243 -425l-35 299q109 5 190.5 16t161.5 43t138 94q-52 -6 -99 -6q-141 0 -256 45t-184 139.5t-69 236.5q0 144 70.5 251t191 164t264.5 57q150 0 256 -61t160.5 -173.5t54.5 -264.5v-130h203q28 0 42 -8.5t19.5 -28.5t5.5 -58v-75q0 -45 -4.5 -69t-18 -35t-40.5 -11
h-246q-54 -148 -179.5 -237t-280.5 -129t-345 -59zM576 624q-65 0 -107.5 -42.5t-42.5 -113.5q0 -84 53 -133.5t145 -49.5h108v120q0 107 -40.5 163t-115.5 56zM358 1411q-30 58 -30 104q0 85 44.5 146t118 93t159.5 32q46 0 84.5 -3.5t126.5 -16.5l-20 -227q-63 21 -136 21
q-49 0 -78 -18.5t-29 -45.5q0 -40 41.5 -62.5t108.5 -22.5h126v-232h-609v232h93z" />
    <glyph glyph-name="uniFE88" unicode="&#x625;" horiz-adv-x="734" arabic-form="final" 
d="M150 360v1080h361v-1024q0 -69 25.5 -100t82.5 -31h115q28 0 42 -8.5t19.5 -28.5t5.5 -58v-75q0 -45 -4.5 -69t-18 -35t-40.5 -11h-224q-179 0 -271.5 89t-92.5 271zM198 -442q-23 41 -23 74q0 60 31.5 103.5t82.5 65t110 21.5q36 0 66.5 -3t81.5 -10l-15 -156
q-37 13 -93 13q-36 0 -57 -13t-21 -34q0 -27 29.5 -44t77.5 -17h87v-160h-424v160h67z" />
    <glyph glyph-name="uniFE8A" unicode="&#x626;" horiz-adv-x="2260" arabic-form="final" 
d="M1686 342v245h-46q-86 0 -117 -50.5t-31 -140.5v-282q0 -132 -84.5 -256.5t-247.5 -203.5t-385 -79q-287 0 -460.5 96t-244 229t-70.5 256q0 116 48.5 232t133.5 224l292 -151q-45 -59 -78.5 -140.5t-33.5 -150.5q0 -94 51.5 -159.5t144.5 -98.5t217 -33q98 0 179 28.5
t129 84t48 132.5v306q0 221 132.5 336t392.5 115h390v-484q0 -112 118 -112h95q28 0 42 -8.5t19.5 -28.5t5.5 -58v-75q0 -45 -4.5 -69t-18 -35t-40.5 -11h-220q-170 0 -263.5 90t-93.5 252zM43 942q-30 58 -30 104q0 85 44.5 146t118 93t159.5 32q46 0 84.5 -3.5
t126.5 -16.5l-20 -227q-63 21 -136 21q-49 0 -78 -18.5t-29 -45.5q0 -40 41.5 -62.5t108.5 -22.5h126v-232h-609v232h93z" />
    <glyph glyph-name="uniFE8B" unicode="&#x626;" horiz-adv-x="731" arabic-form="initial" 
d="M-69 115v75q0 38 5.5 58t19.5 28.5t42 8.5h221v595h362v-880h-587q-27 0 -40.5 11t-18 35t-4.5 69zM206 1309q-30 58 -30 104q0 85 44.5 146t118 93t159.5 32q46 0 84.5 -3.5t126.5 -16.5l-20 -227q-63 21 -136 21q-49 0 -78 -18.5t-29 -45.5q0 -40 41.5 -62.5
t108.5 -22.5h126v-232h-609v232h93z" />
    <glyph glyph-name="uniFE8C" unicode="&#x626;" horiz-adv-x="817" arabic-form="medial" 
d="M509 122q-92 -122 -271 -122h-244q-27 0 -40.5 11t-18 35t-4.5 69v75q0 38 5.5 58t19.5 28.5t42 8.5h141q42 0 59 20t17 73v502h362v-540q100 -55 225 -55h15q28 0 42 -8.5t19.5 -28.5t5.5 -58v-75q0 -45 -4.5 -69t-18 -35t-40.5 -11h-11q-78 0 -157.5 33t-143.5 89z
M156 1309q-30 58 -30 104q0 85 44.5 146t118 93t159.5 32q46 0 84.5 -3.5t126.5 -16.5l-20 -227q-63 21 -136 21q-49 0 -78 -18.5t-29 -45.5q0 -40 41.5 -62.5t108.5 -22.5h126v-232h-609v232h93z" />
    <glyph glyph-name="uniFE8E" unicode="&#x627;" horiz-adv-x="734" arabic-form="final" 
d="M150 360v1080h361v-1024q0 -69 25.5 -100t82.5 -31h115q28 0 42 -8.5t19.5 -28.5t5.5 -58v-75q0 -45 -4.5 -69t-18 -35t-40.5 -11h-224q-179 0 -271.5 89t-92.5 271z" />
    <glyph glyph-name="uniFE90" unicode="&#x628;" horiz-adv-x="1988" arabic-form="final" 
d="M1701 104q-91 -104 -261 -104h-819q-314 0 -467.5 98.5t-153.5 318.5q0 43 10.5 126.5t21.5 134.5l324 -29q-18 -98 -18 -177q0 -60 24 -99.5t99 -63.5t221 -24h619q56 0 86 30.5t30 82.5v482h362v-541q0 -10 -1 -15q91 -39 201 -39h9q28 0 42 -8.5t19.5 -28.5t5.5 -58
v-75q0 -45 -4.5 -69t-18 -35t-40.5 -11h-11q-72 0 -144.5 27.5t-135.5 76.5zM1117 -375q0 -44 -22 -83.5t-60.5 -63.5t-86.5 -24q-46 0 -85 23t-62 62.5t-23 85.5q0 45 22.5 85t62 63.5t85.5 23.5t85 -23.5t61.5 -63t22.5 -85.5z" />
    <glyph glyph-name="uniFE91" unicode="&#x628;" horiz-adv-x="731" arabic-form="initial" 
d="M-69 115v75q0 38 5.5 58t19.5 28.5t42 8.5h221v595h362v-880h-587q-27 0 -40.5 11t-18 35t-4.5 69zM526 -375q0 -44 -22 -83.5t-60.5 -63.5t-86.5 -24q-46 0 -85 23t-62 62.5t-23 85.5q0 45 22.5 85t62 63.5t85.5 23.5t85 -23.5t61.5 -63t22.5 -85.5z" />
    <glyph glyph-name="uniFE92" unicode="&#x628;" horiz-adv-x="817" arabic-form="medial" 
d="M509 122q-92 -122 -271 -122h-244q-27 0 -40.5 11t-18 35t-4.5 69v75q0 38 5.5 58t19.5 28.5t42 8.5h141q42 0 59 20t17 73v502h362v-540q100 -55 225 -55h15q28 0 42 -8.5t19.5 -28.5t5.5 -58v-75q0 -45 -4.5 -69t-18 -35t-40.5 -11h-11q-78 0 -157.5 33t-143.5 89z
M561 -375q0 -44 -22 -83.5t-60.5 -63.5t-86.5 -24q-46 0 -85 23t-62 62.5t-23 85.5q0 45 22.5 85t62 63.5t85.5 23.5t85 -23.5t61.5 -63t22.5 -85.5z" />
    <glyph glyph-name="uniFE94" unicode="&#x629;" horiz-adv-x="1205" arabic-form="final" 
d="M681 111q-123 -45 -235 -45q-130 0 -231 43t-158 124t-57 189q0 172 157.5 299.5t473.5 202.5v120h361v-688q0 -40 10 -55.5t37 -15.5h165q28 0 42 -8.5t19.5 -28.5t5.5 -58v-75q0 -45 -4.5 -69t-18 -35t-40.5 -11h-217q-232 0 -310 111zM350 434q0 -43 35 -68t93 -25
q79 0 153 33v264q-147 -39 -214 -89t-67 -115zM613 1383q0 -44 -22 -83.5t-60.5 -63.5t-86.5 -24q-46 0 -85 23t-62 62.5t-23 85.5q0 45 22.5 85t62 63.5t85.5 23.5t85 -23.5t61.5 -63t22.5 -85.5zM1023 1383q0 -44 -22 -83.5t-60.5 -63.5t-86.5 -24q-46 0 -85 23t-62 62.5
t-23 85.5q0 45 22.5 85t62 63.5t85.5 23.5t85 -23.5t61.5 -63t22.5 -85.5z" />
    <glyph glyph-name="uniFE96" unicode="&#x62a;" horiz-adv-x="1988" arabic-form="final" 
d="M1701 104q-91 -104 -261 -104h-819q-314 0 -467.5 98.5t-153.5 318.5q0 43 10.5 126.5t21.5 134.5l324 -29q-18 -98 -18 -177q0 -60 24 -99.5t99 -63.5t221 -24h619q56 0 86 30.5t30 82.5v482h362v-541q0 -10 -1 -15q91 -39 201 -39h9q28 0 42 -8.5t19.5 -28.5t5.5 -58
v-75q0 -45 -4.5 -69t-18 -35t-40.5 -11h-11q-72 0 -144.5 27.5t-135.5 76.5zM918 1327q0 -44 -22 -83.5t-60.5 -63.5t-86.5 -24q-46 0 -85 23t-62 62.5t-23 85.5q0 45 22.5 85t62 63.5t85.5 23.5t85 -23.5t61.5 -63t22.5 -85.5zM1328 1327q0 -44 -22 -83.5t-60.5 -63.5
t-86.5 -24q-46 0 -85 23t-62 62.5t-23 85.5q0 45 22.5 85t62 63.5t85.5 23.5t85 -23.5t61.5 -63t22.5 -85.5z" />
    <glyph glyph-name="uniFE97" unicode="&#x62a;" horiz-adv-x="731" arabic-form="initial" 
d="M-69 115v75q0 38 5.5 58t19.5 28.5t42 8.5h221v595h362v-880h-587q-27 0 -40.5 11t-18 35t-4.5 69zM364 1327q0 -44 -22 -83.5t-60.5 -63.5t-86.5 -24q-46 0 -85 23t-62 62.5t-23 85.5q0 45 22.5 85t62 63.5t85.5 23.5t85 -23.5t61.5 -63t22.5 -85.5zM774 1327
q0 -44 -22 -83.5t-60.5 -63.5t-86.5 -24q-46 0 -85 23t-62 62.5t-23 85.5q0 45 22.5 85t62 63.5t85.5 23.5t85 -23.5t61.5 -63t22.5 -85.5z" />
    <glyph glyph-name="uniFE98" unicode="&#x62a;" horiz-adv-x="817" arabic-form="medial" 
d="M509 122q-92 -122 -271 -122h-244q-27 0 -40.5 11t-18 35t-4.5 69v75q0 38 5.5 58t19.5 28.5t42 8.5h141q42 0 59 20t17 73v502h362v-540q100 -55 225 -55h15q28 0 42 -8.5t19.5 -28.5t5.5 -58v-75q0 -45 -4.5 -69t-18 -35t-40.5 -11h-11q-78 0 -157.5 33t-143.5 89z
M360 1327q0 -44 -22 -83.5t-60.5 -63.5t-86.5 -24q-46 0 -85 23t-62 62.5t-23 85.5q0 45 22.5 85t62 63.5t85.5 23.5t85 -23.5t61.5 -63t22.5 -85.5zM770 1327q0 -44 -22 -83.5t-60.5 -63.5t-86.5 -24q-46 0 -85 23t-62 62.5t-23 85.5q0 45 22.5 85t62 63.5t85.5 23.5
t85 -23.5t61.5 -63t22.5 -85.5z" />
    <glyph glyph-name="uniFE9A" unicode="&#x62b;" horiz-adv-x="1988" arabic-form="final" 
d="M1701 104q-91 -104 -261 -104h-819q-314 0 -467.5 98.5t-153.5 318.5q0 43 10.5 126.5t21.5 134.5l324 -29q-18 -98 -18 -177q0 -60 24 -99.5t99 -63.5t221 -24h619q56 0 86 30.5t30 82.5v482h362v-541q0 -10 -1 -15q91 -39 201 -39h9q28 0 42 -8.5t19.5 -28.5t5.5 -58
v-75q0 -45 -4.5 -69t-18 -35t-40.5 -11h-11q-72 0 -144.5 27.5t-135.5 76.5zM1069 1713q0 -44 -22 -83.5t-60.5 -63.5t-86.5 -24q-46 0 -85 23t-62 62.5t-23 85.5q0 45 22.5 85t62 63.5t85.5 23.5t85 -23.5t61.5 -63t22.5 -85.5zM866 1327q0 -44 -22 -83.5t-60.5 -63.5
t-86.5 -24q-46 0 -85 23t-62 62.5t-23 85.5q0 45 22.5 85t62 63.5t85.5 23.5t85 -23.5t61.5 -63t22.5 -85.5zM1276 1327q0 -44 -22 -83.5t-60.5 -63.5t-86.5 -24q-46 0 -85 23t-62 62.5t-23 85.5q0 45 22.5 85t62 63.5t85.5 23.5t85 -23.5t61.5 -63t22.5 -85.5z" />
    <glyph glyph-name="uniFE9B" unicode="&#x62b;" horiz-adv-x="731" arabic-form="initial" 
d="M-69 115v75q0 38 5.5 58t19.5 28.5t42 8.5h221v595h362v-880h-587q-27 0 -40.5 11t-18 35t-4.5 69zM554 1713q0 -44 -22 -83.5t-60.5 -63.5t-86.5 -24q-46 0 -85 23t-62 62.5t-23 85.5q0 45 22.5 85t62 63.5t85.5 23.5t85 -23.5t61.5 -63t22.5 -85.5zM351 1327
q0 -44 -22 -83.5t-60.5 -63.5t-86.5 -24q-46 0 -85 23t-62 62.5t-23 85.5q0 45 22.5 85t62 63.5t85.5 23.5t85 -23.5t61.5 -63t22.5 -85.5zM761 1327q0 -44 -22 -83.5t-60.5 -63.5t-86.5 -24q-46 0 -85 23t-62 62.5t-23 85.5q0 45 22.5 85t62 63.5t85.5 23.5t85 -23.5
t61.5 -63t22.5 -85.5z" />
    <glyph glyph-name="uniFE9C" unicode="&#x62b;" horiz-adv-x="817" arabic-form="medial" 
d="M509 122q-92 -122 -271 -122h-244q-27 0 -40.5 11t-18 35t-4.5 69v75q0 38 5.5 58t19.5 28.5t42 8.5h141q42 0 59 20t17 73v502h362v-540q100 -55 225 -55h15q28 0 42 -8.5t19.5 -28.5t5.5 -58v-75q0 -45 -4.5 -69t-18 -35t-40.5 -11h-11q-78 0 -157.5 33t-143.5 89z
M565 1713q0 -44 -22 -83.5t-60.5 -63.5t-86.5 -24q-46 0 -85 23t-62 62.5t-23 85.5q0 45 22.5 85t62 63.5t85.5 23.5t85 -23.5t61.5 -63t22.5 -85.5zM362 1327q0 -44 -22 -83.5t-60.5 -63.5t-86.5 -24q-46 0 -85 23t-62 62.5t-23 85.5q0 45 22.5 85t62 63.5t85.5 23.5
t85 -23.5t61.5 -63t22.5 -85.5zM772 1327q0 -44 -22 -83.5t-60.5 -63.5t-86.5 -24q-46 0 -85 23t-62 62.5t-23 85.5q0 45 22.5 85t62 63.5t85.5 23.5t85 -23.5t61.5 -63t22.5 -85.5z" />
    <glyph glyph-name="uniFE9E" unicode="&#x62c;" horiz-adv-x="1190" arabic-form="final" 
d="M596 -729q-158 0 -293.5 55.5t-219 169t-83.5 279.5q0 175 77.5 289t213.5 167.5t316 53.5h135q-20 33 -35 140q-17 119 -67 170t-144 51q-121 0 -261 -39v267q115 31 191.5 46t157.5 15q188 0 307 -98t142 -292q9 -67 20.5 -119.5t42 -96.5t83.5 -44h11q39 0 53 -20
t14 -75v-75q0 -45 -4.5 -69t-18 -35t-40.5 -11h-617q-107 0 -169.5 -59t-62.5 -162q0 -66 33.5 -115.5t97.5 -76t151 -26.5q140 0 267 26v-273q-89 -21 -158.5 -32t-139.5 -11zM837 -224q0 -40 -19.5 -75.5t-54.5 -57t-78 -21.5q-42 0 -77 20.5t-56 56t-21 77.5
q0 40 20.5 76.5t56 57.5t77.5 21q41 0 76.5 -21t55.5 -57t20 -77z" />
    <glyph glyph-name="uniFE9F" unicode="&#x62c;" horiz-adv-x="1162" arabic-form="initial" 
d="M-69 115v75q0 38 5.5 58t19.5 28.5t42 8.5h638q-17 26 -32 123q-12 79 -30 125t-45 68q-53 45 -135 45q-57 0 -131 -11t-134 -28v267q115 31 191.5 46t157.5 15q128 0 223.5 -45t152 -129.5t71.5 -201.5q12 -100 45.5 -185.5t101.5 -88.5v-285h-1078q-27 0 -40.5 11
t-18 35t-4.5 69zM723 -375q0 -44 -22 -83.5t-60.5 -63.5t-86.5 -24q-46 0 -85 23t-62 62.5t-23 85.5q0 45 22.5 85t62 63.5t85.5 23.5t85 -23.5t61.5 -63t22.5 -85.5z" />
    <glyph glyph-name="uniFEA0" unicode="&#x62c;" horiz-adv-x="1084" arabic-form="medial" 
d="M-69 115v75q0 38 5.5 58t19.5 28.5t42 8.5h640q-15 21 -33 129q-12 73 -32 122.5t-63 79.5t-116 30q-59 0 -128.5 -10t-134.5 -29v267q113 31 188.5 46t160.5 15q193 0 310 -100.5t138 -283.5q11 -114 47 -190t105 -76h4q28 0 42 -8.5t19.5 -28.5t5.5 -58v-75
q0 -45 -4.5 -69t-18 -35t-40.5 -11h-1094q-27 0 -40.5 11t-18 35t-4.5 69zM679 -375q0 -44 -22 -83.5t-60.5 -63.5t-86.5 -24q-46 0 -85 23t-62 62.5t-23 85.5q0 45 22.5 85t62 63.5t85.5 23.5t85 -23.5t61.5 -63t22.5 -85.5z" />
    <glyph glyph-name="uniFEA2" unicode="&#x62d;" horiz-adv-x="1190" arabic-form="final" 
d="M596 -729q-158 0 -293.5 55.5t-219 169t-83.5 279.5q0 175 77.5 289t213.5 167.5t316 53.5h135q-20 33 -35 140q-17 119 -67 170t-144 51q-121 0 -261 -39v267q115 31 191.5 46t157.5 15q188 0 307 -98t142 -292q9 -67 20.5 -119.5t42 -96.5t83.5 -44h11q39 0 53 -20
t14 -75v-75q0 -45 -4.5 -69t-18 -35t-40.5 -11h-617q-107 0 -169.5 -59t-62.5 -162q0 -66 33.5 -115.5t97.5 -76t151 -26.5q140 0 267 26v-273q-89 -21 -158.5 -32t-139.5 -11z" />
    <glyph glyph-name="uniFEA3" unicode="&#x62d;" horiz-adv-x="1162" arabic-form="initial" 
d="M-69 115v75q0 38 5.5 58t19.5 28.5t42 8.5h638q-17 26 -32 123q-12 79 -30 125t-45 68q-53 45 -135 45q-57 0 -131 -11t-134 -28v267q115 31 191.5 46t157.5 15q128 0 223.5 -45t152 -129.5t71.5 -201.5q12 -100 45.5 -185.5t101.5 -88.5v-285h-1078q-27 0 -40.5 11
t-18 35t-4.5 69z" />
    <glyph glyph-name="uniFEA4" unicode="&#x62d;" horiz-adv-x="1084" arabic-form="medial" 
d="M-69 115v75q0 38 5.5 58t19.5 28.5t42 8.5h640q-15 21 -33 129q-12 73 -32 122.5t-63 79.5t-116 30q-59 0 -128.5 -10t-134.5 -29v267q113 31 188.5 46t160.5 15q193 0 310 -100.5t138 -283.5q11 -114 47 -190t105 -76h4q28 0 42 -8.5t19.5 -28.5t5.5 -58v-75
q0 -45 -4.5 -69t-18 -35t-40.5 -11h-1094q-27 0 -40.5 11t-18 35t-4.5 69z" />
    <glyph glyph-name="uniFEA6" unicode="&#x62e;" horiz-adv-x="1138" arabic-form="final" 
d="M544 -729q-158 0 -293.5 55.5t-219 169t-83.5 279.5q0 175 77.5 289t213.5 167.5t316 53.5h135q-20 33 -35 140q-17 119 -67 170t-144 51q-121 0 -261 -39v267q115 31 191.5 46t157.5 15q188 0 307 -98t142 -292q9 -67 20.5 -119.5t42 -96.5t83.5 -44h11q39 0 53 -20
t14 -75v-75q0 -45 -4.5 -69t-18 -35t-40.5 -11h-617q-107 0 -169.5 -59t-62.5 -162q0 -66 33.5 -115.5t97.5 -76t151 -26.5q140 0 267 26v-273q-89 -21 -158.5 -32t-139.5 -11zM739 1327q0 -44 -22 -83.5t-60.5 -63.5t-86.5 -24q-46 0 -85 23t-62 62.5t-23 85.5
q0 45 22.5 85t62 63.5t85.5 23.5t85 -23.5t61.5 -63t22.5 -85.5z" />
    <glyph glyph-name="uniFEA7" unicode="&#x62e;" horiz-adv-x="1162" arabic-form="initial" 
d="M-69 115v75q0 38 5.5 58t19.5 28.5t42 8.5h638q-17 26 -32 123q-12 79 -30 125t-45 68q-53 45 -135 45q-57 0 -131 -11t-134 -28v267q115 31 191.5 46t157.5 15q128 0 223.5 -45t152 -129.5t71.5 -201.5q12 -100 45.5 -185.5t101.5 -88.5v-285h-1078q-27 0 -40.5 11
t-18 35t-4.5 69zM630 1327q0 -44 -22 -83.5t-60.5 -63.5t-86.5 -24q-46 0 -85 23t-62 62.5t-23 85.5q0 45 22.5 85t62 63.5t85.5 23.5t85 -23.5t61.5 -63t22.5 -85.5z" />
    <glyph glyph-name="uniFEA8" unicode="&#x62e;" horiz-adv-x="1084" arabic-form="medial" 
d="M-69 115v75q0 38 5.5 58t19.5 28.5t42 8.5h640q-15 21 -33 129q-12 73 -32 122.5t-63 79.5t-116 30q-59 0 -128.5 -10t-134.5 -29v267q113 31 188.5 46t160.5 15q193 0 310 -100.5t138 -283.5q11 -114 47 -190t105 -76h4q28 0 42 -8.5t19.5 -28.5t5.5 -58v-75
q0 -45 -4.5 -69t-18 -35t-40.5 -11h-1094q-27 0 -40.5 11t-18 35t-4.5 69zM630 1327q0 -44 -22 -83.5t-60.5 -63.5t-86.5 -24q-46 0 -85 23t-62 62.5t-23 85.5q0 45 22.5 85t62 63.5t85.5 23.5t85 -23.5t61.5 -63t22.5 -85.5z" />
    <glyph glyph-name="uniFEAA" unicode="&#x62f;" horiz-adv-x="1168" arabic-form="final" 
d="M845 135q-129 -135 -388 -135h-415v285h419q68 0 108 28.5t40 82.5q0 56 -97 162q-98 108 -263 235l250 245q217 -183 327.5 -344t110.5 -293q0 -32 -4 -65q96 -51 220 -51h14q28 0 42 -8.5t19.5 -28.5t5.5 -58v-75q0 -45 -4.5 -69t-18 -35t-40.5 -11h-9q-86 0 -169 36
t-148 99z" />
    <glyph glyph-name="uniFEAC" unicode="&#x630;" horiz-adv-x="1168" arabic-form="final" 
d="M845 135q-129 -135 -388 -135h-415v285h419q68 0 108 28.5t40 82.5q0 56 -97 162q-98 108 -263 235l250 245q217 -183 327.5 -344t110.5 -293q0 -32 -4 -65q96 -51 220 -51h14q28 0 42 -8.5t19.5 -28.5t5.5 -58v-75q0 -45 -4.5 -69t-18 -35t-40.5 -11h-9q-86 0 -169 36
t-148 99zM594 1327q0 -44 -22 -83.5t-60.5 -63.5t-86.5 -24q-46 0 -85 23t-62 62.5t-23 85.5q0 45 22.5 85t62 63.5t85.5 23.5t85 -23.5t61.5 -63t22.5 -85.5z" />
    <glyph glyph-name="uniFEAE" unicode="&#x631;" horiz-adv-x="815" arabic-form="final" 
d="M43 -458l-49 302q92 21 143.5 53.5t75 92t23.5 157.5v733h361v-595h218q28 0 42 -8.5t19.5 -28.5t5.5 -58v-75q0 -45 -4.5 -69t-18 -35t-40.5 -11h-241q-38 -202 -169 -311.5t-366 -146.5z" />
    <glyph glyph-name="uniFEB0" unicode="&#x632;" horiz-adv-x="815" arabic-form="final" 
d="M43 -458l-49 302q92 21 143.5 53.5t75 92t23.5 157.5v733h361v-595h218q28 0 42 -8.5t19.5 -28.5t5.5 -58v-75q0 -45 -4.5 -69t-18 -35t-40.5 -11h-241q-38 -202 -169 -311.5t-366 -146.5zM588 1327q0 -44 -22 -83.5t-60.5 -63.5t-86.5 -24q-46 0 -85 23t-62 62.5
t-23 85.5q0 45 22.5 85t62 63.5t85.5 23.5t85 -23.5t61.5 -63t22.5 -85.5z" />
    <glyph glyph-name="uniFEB2" unicode="&#x633;" horiz-adv-x="2874" arabic-form="final" 
d="M2566 122q-89 -122 -281 -122q-115 0 -207 23.5t-166 72.5q-44 -47 -107 -71.5t-152 -24.5q-104 0 -181 16.5t-141 49.5q-38 -158 -134 -269.5t-235.5 -169.5t-308.5 -58q-198 0 -345.5 71.5t-227.5 205t-80 314.5q0 118 37.5 239t104.5 230l298 -158q-43 -69 -68 -146
t-25 -142q0 -94 42 -161.5t115.5 -102.5t168.5 -35q100 0 171.5 43.5t109 122.5t37.5 184q0 71 -29 174.5t-69 195.5l351 94q74 -194 99 -372q103 -41 190 -41q54 0 80 25t26 67v396h362v-417q0 -16 -2 -38q96 -33 167 -33q53 0 79.5 25t26.5 69v501h362v-540
q45 -25 106 -40t118 -15h16q28 0 42 -8.5t19.5 -28.5t5.5 -58v-75q0 -45 -4.5 -69t-18 -35t-40.5 -11h-10q-79 0 -158.5 33t-143.5 89z" />
    <glyph glyph-name="uniFEB3" unicode="&#x633;" horiz-adv-x="2010" arabic-form="initial" 
d="M1138 96q-44 -47 -107 -71.5t-152 -24.5q-121 0 -214.5 25t-170.5 79q-92 -104 -256 -104h-244q-27 0 -40.5 11t-18 35t-4.5 69v75q0 38 5.5 58t19.5 28.5t42 8.5h144q73 0 73 106v298h361v-328q0 -15 -2 -37q109 -39 185 -39q54 0 80 25t26 67v396h362v-413
q0 -16 -2 -42q58 -19 96 -26t73 -7h104v595h362v-880h-358q-219 0 -364 96z" />
    <glyph glyph-name="uniFEB4" unicode="&#x633;" horiz-adv-x="2100" arabic-form="medial" 
d="M1792 122q-89 -122 -281 -122q-115 0 -207 23.5t-166 72.5q-44 -47 -107 -71.5t-152 -24.5q-121 0 -214 25t-170 79q-92 -104 -257 -104h-244q-27 0 -40.5 11t-18 35t-4.5 69v75q0 38 5.5 58t19.5 28.5t42 8.5h142q41 0 58 20.5t17 72.5v311h362v-332q0 -11 -2 -33
q105 -39 184 -39q54 0 80.5 25t26.5 67v396h361v-417q0 -10 -2 -38q94 -33 167 -33q54 0 80 25t26 67v503h362v-540q58 -34 123.5 -44.5t100.5 -10.5h16q28 0 42 -8.5t19.5 -28.5t5.5 -58v-75q0 -45 -4.5 -69t-18 -35t-40.5 -11h-10q-79 0 -158.5 33t-143.5 89z" />
    <glyph glyph-name="uniFEB6" unicode="&#x634;" horiz-adv-x="2874" arabic-form="final" 
d="M2566 122q-89 -122 -281 -122q-115 0 -207 23.5t-166 72.5q-44 -47 -107 -71.5t-152 -24.5q-104 0 -181 16.5t-141 49.5q-38 -158 -134 -269.5t-235.5 -169.5t-308.5 -58q-198 0 -345.5 71.5t-227.5 205t-80 314.5q0 118 37.5 239t104.5 230l298 -158q-43 -69 -68 -146
t-25 -142q0 -94 42 -161.5t115.5 -102.5t168.5 -35q100 0 171.5 43.5t109 122.5t37.5 184q0 71 -29 174.5t-69 195.5l351 94q74 -194 99 -372q103 -41 190 -41q54 0 80 25t26 67v396h362v-417q0 -16 -2 -38q96 -33 167 -33q53 0 79.5 25t26.5 69v501h362v-540
q45 -25 106 -40t118 -15h16q28 0 42 -8.5t19.5 -28.5t5.5 -58v-75q0 -45 -4.5 -69t-18 -35t-40.5 -11h-10q-79 0 -158.5 33t-143.5 89zM1969 1713q0 -44 -22 -83.5t-60.5 -63.5t-86.5 -24q-46 0 -85 23t-62 62.5t-23 85.5q0 45 22.5 85t62 63.5t85.5 23.5t85 -23.5t61.5 -63
t22.5 -85.5zM1766 1327q0 -44 -22 -83.5t-60.5 -63.5t-86.5 -24q-46 0 -85 23t-62 62.5t-23 85.5q0 45 22.5 85t62 63.5t85.5 23.5t85 -23.5t61.5 -63t22.5 -85.5zM2176 1327q0 -44 -22 -83.5t-60.5 -63.5t-86.5 -24q-46 0 -85 23t-62 62.5t-23 85.5q0 45 22.5 85t62 63.5
t85.5 23.5t85 -23.5t61.5 -63t22.5 -85.5z" />
    <glyph glyph-name="uniFEB7" unicode="&#x634;" horiz-adv-x="2010" arabic-form="initial" 
d="M1138 96q-44 -47 -107 -71.5t-152 -24.5q-121 0 -214.5 25t-170.5 79q-92 -104 -256 -104h-244q-27 0 -40.5 11t-18 35t-4.5 69v75q0 38 5.5 58t19.5 28.5t42 8.5h144q73 0 73 106v298h361v-328q0 -15 -2 -37q109 -39 185 -39q54 0 80 25t26 67v396h362v-413
q0 -16 -2 -42q58 -19 96 -26t73 -7h104v595h362v-880h-358q-219 0 -364 96zM1204 1713q0 -44 -22 -83.5t-60.5 -63.5t-86.5 -24q-46 0 -85 23t-62 62.5t-23 85.5q0 45 22.5 85t62 63.5t85.5 23.5t85 -23.5t61.5 -63t22.5 -85.5zM1001 1327q0 -44 -22 -83.5t-60.5 -63.5
t-86.5 -24q-46 0 -85 23t-62 62.5t-23 85.5q0 45 22.5 85t62 63.5t85.5 23.5t85 -23.5t61.5 -63t22.5 -85.5zM1411 1327q0 -44 -22 -83.5t-60.5 -63.5t-86.5 -24q-46 0 -85 23t-62 62.5t-23 85.5q0 45 22.5 85t62 63.5t85.5 23.5t85 -23.5t61.5 -63t22.5 -85.5z" />
    <glyph glyph-name="uniFEB8" unicode="&#x634;" horiz-adv-x="2100" arabic-form="medial" 
d="M1792 122q-89 -122 -281 -122q-115 0 -207 23.5t-166 72.5q-44 -47 -107 -71.5t-152 -24.5q-121 0 -214 25t-170 79q-92 -104 -257 -104h-244q-27 0 -40.5 11t-18 35t-4.5 69v75q0 38 5.5 58t19.5 28.5t42 8.5h142q41 0 58 20.5t17 72.5v311h362v-332q0 -11 -2 -33
q105 -39 184 -39q54 0 80.5 25t26.5 67v396h361v-417q0 -10 -2 -38q94 -33 167 -33q54 0 80 25t26 67v503h362v-540q58 -34 123.5 -44.5t100.5 -10.5h16q28 0 42 -8.5t19.5 -28.5t5.5 -58v-75q0 -45 -4.5 -69t-18 -35t-40.5 -11h-10q-79 0 -158.5 33t-143.5 89zM1202 1713
q0 -44 -22 -83.5t-60.5 -63.5t-86.5 -24q-46 0 -85 23t-62 62.5t-23 85.5q0 45 22.5 85t62 63.5t85.5 23.5t85 -23.5t61.5 -63t22.5 -85.5zM999 1327q0 -44 -22 -83.5t-60.5 -63.5t-86.5 -24q-46 0 -85 23t-62 62.5t-23 85.5q0 45 22.5 85t62 63.5t85.5 23.5t85 -23.5
t61.5 -63t22.5 -85.5zM1409 1327q0 -44 -22 -83.5t-60.5 -63.5t-86.5 -24q-46 0 -85 23t-62 62.5t-23 85.5q0 45 22.5 85t62 63.5t85.5 23.5t85 -23.5t61.5 -63t22.5 -85.5z" />
    <glyph glyph-name="uniFEBA" unicode="&#x635;" horiz-adv-x="3042" arabic-form="final" 
d="M1331 66q-39 -158 -134 -269.5t-234 -169.5t-310 -58q-201 0 -348 71t-226 204t-79 316q0 120 37 239.5t104 229.5q62 -34 112 -60.5t88 -46.5l98 -51q-42 -70 -67 -146.5t-25 -141.5q0 -96 42 -163.5t115.5 -101.5t168.5 -34q103 0 174 44.5t107 123t36 182.5
q0 70 -30.5 180t-67.5 190l352 94q23 -56 56.5 -182t42.5 -189q91 -34 179 -39q77 174 192 323.5t271 245t341 95.5q161 0 274.5 -65t172.5 -187.5t59 -292.5v-122h210q28 0 42 -8.5t19.5 -28.5t5.5 -58v-75q0 -45 -4.5 -69t-18 -35t-40.5 -11h-1396q-74 0 -158 17t-161 49z
M2245 656q-70 0 -148 -42t-151 -126t-125 -203h651v109q0 153 -63 207.5t-164 54.5z" />
    <glyph glyph-name="uniFEBB" unicode="&#x635;" horiz-adv-x="2167" arabic-form="initial" 
d="M483 91q-92 -91 -245 -91h-244q-27 0 -40.5 11t-18 35t-4.5 69v75q0 38 5.5 58t19.5 28.5t42 8.5h144q73 0 73 104v300h362v-333l-2 -38q71 -25 151 -30q80 179 194 327.5t269 242.5t342 94q166 0 280 -69t170 -191t56 -281v-411h-1182q-96 0 -191 23t-181 68zM1449 656
q-70 0 -148 -42t-151 -126t-125 -203h651v99q0 149 -56 210.5t-171 61.5z" />
    <glyph glyph-name="uniFEBC" unicode="&#x635;" horiz-adv-x="2248" arabic-form="medial" 
d="M483 91q-92 -91 -244 -91h-245q-27 0 -40.5 11t-18 35t-4.5 69v75q0 38 5.5 58t19.5 28.5t42 8.5h144q73 0 73 104v300h362v-333l-2 -38q78 -25 152 -30q80 179 193.5 328t268.5 242.5t342 93.5q162 0 276 -67t172 -189.5t58 -288.5v-122h211q28 0 42 -8.5t19.5 -28.5
t5.5 -58v-75q0 -45 -4.5 -69t-18 -35t-40.5 -11h-1397q-96 0 -191 23t-181 68zM1449 656q-70 0 -148 -42t-151 -126t-125 -203h651v109q0 140 -58 201t-169 61z" />
    <glyph glyph-name="uniFEBE" unicode="&#x636;" horiz-adv-x="3042" arabic-form="final" 
d="M1331 66q-39 -158 -134 -269.5t-234 -169.5t-310 -58q-201 0 -348 71t-226 204t-79 316q0 120 37 239.5t104 229.5q62 -34 112 -60.5t88 -46.5l98 -51q-42 -70 -67 -146.5t-25 -141.5q0 -96 42 -163.5t115.5 -101.5t168.5 -34q103 0 174 44.5t107 123t36 182.5
q0 70 -30.5 180t-67.5 190l352 94q23 -56 56.5 -182t42.5 -189q91 -34 179 -39q77 174 192 323.5t271 245t341 95.5q161 0 274.5 -65t172.5 -187.5t59 -292.5v-122h210q28 0 42 -8.5t19.5 -28.5t5.5 -58v-75q0 -45 -4.5 -69t-18 -35t-40.5 -11h-1396q-74 0 -158 17t-161 49z
M2245 656q-70 0 -148 -42t-151 -126t-125 -203h651v109q0 153 -63 207.5t-164 54.5zM2370 1327q0 -44 -22 -83.5t-60.5 -63.5t-86.5 -24q-46 0 -85 23t-62 62.5t-23 85.5q0 45 22.5 85t62 63.5t85.5 23.5t85 -23.5t61.5 -63t22.5 -85.5z" />
    <glyph glyph-name="uniFEBF" unicode="&#x636;" horiz-adv-x="2167" arabic-form="initial" 
d="M483 91q-92 -91 -245 -91h-244q-27 0 -40.5 11t-18 35t-4.5 69v75q0 38 5.5 58t19.5 28.5t42 8.5h144q73 0 73 104v300h362v-333l-2 -38q71 -25 151 -30q80 179 194 327.5t269 242.5t342 94q166 0 280 -69t170 -191t56 -281v-411h-1182q-96 0 -191 23t-181 68zM1449 656
q-70 0 -148 -42t-151 -126t-125 -203h651v99q0 149 -56 210.5t-171 61.5zM1508 1327q0 -44 -22 -83.5t-60.5 -63.5t-86.5 -24q-46 0 -85 23t-62 62.5t-23 85.5q0 45 22.5 85t62 63.5t85.5 23.5t85 -23.5t61.5 -63t22.5 -85.5z" />
    <glyph glyph-name="uniFEC0" unicode="&#x636;" horiz-adv-x="2248" arabic-form="medial" 
d="M483 91q-92 -91 -244 -91h-245q-27 0 -40.5 11t-18 35t-4.5 69v75q0 38 5.5 58t19.5 28.5t42 8.5h144q73 0 73 104v300h362v-333l-2 -38q78 -25 152 -30q80 179 193.5 328t268.5 242.5t342 93.5q162 0 276 -67t172 -189.5t58 -288.5v-122h211q28 0 42 -8.5t19.5 -28.5
t5.5 -58v-75q0 -45 -4.5 -69t-18 -35t-40.5 -11h-1397q-96 0 -191 23t-181 68zM1449 656q-70 0 -148 -42t-151 -126t-125 -203h651v109q0 140 -58 201t-169 61zM1486 1327q0 -44 -22 -83.5t-60.5 -63.5t-86.5 -24q-46 0 -85 23t-62 62.5t-23 85.5q0 45 22.5 85t62 63.5
t85.5 23.5t85 -23.5t61.5 -63t22.5 -85.5z" />
    <glyph glyph-name="uniFEC2" unicode="&#x637;" horiz-adv-x="1807" arabic-form="final" 
d="M280 285q35 81 72 145v1011h361v-604q177 115 374 115q169 0 282 -71.5t168 -195t55 -280.5v-120h215q28 0 42 -8.5t19.5 -28.5t5.5 -58v-75q0 -45 -4.5 -69t-18 -35t-40.5 -11h-1811v285h280zM1002 656q-78 0 -156.5 -46t-147.5 -130t-120 -195h655v111q0 130 -54.5 195
t-176.5 65z" />
    <glyph glyph-name="uniFEC3" unicode="&#x637;" horiz-adv-x="1659" arabic-form="initial" 
d="M-69 115v75q0 38 5.5 58t19.5 28.5t42 8.5h223q41 92 71 145v1011h361v-603q177 114 373 114q161 0 274 -67.5t171 -190t58 -285.5v-409h-1535q-27 0 -40.5 11t-18 35t-4.5 69zM942 656q-87 0 -171.5 -55t-148.5 -140t-104 -176h654v110q0 132 -54 196.5t-176 64.5z" />
    <glyph glyph-name="uniFEC4" unicode="&#x637;" horiz-adv-x="1743" arabic-form="medial" 
d="M-69 115v75q0 38 5.5 58t19.5 28.5t42 8.5h223q28 68 72 147v1009h360v-603q177 114 373 114q169 0 282 -71.5t167 -194.5t54 -281v-120h214q28 0 42 -8.5t19.5 -28.5t5.5 -58v-75q0 -45 -4.5 -69t-18 -35t-40.5 -11h-1753q-27 0 -40.5 11t-18 35t-4.5 69zM942 656
q-77 0 -155.5 -46t-148 -130t-120.5 -195h655v110q0 131 -54 196t-177 65z" />
    <glyph glyph-name="uniFEC6" unicode="&#x638;" horiz-adv-x="1807" arabic-form="final" 
d="M280 285q35 81 72 145v1011h361v-604q177 115 374 115q169 0 282 -71.5t168 -195t55 -280.5v-120h215q28 0 42 -8.5t19.5 -28.5t5.5 -58v-75q0 -45 -4.5 -69t-18 -35t-40.5 -11h-1811v285h280zM1002 656q-78 0 -156.5 -46t-147.5 -130t-120 -195h655v111q0 130 -54.5 195
t-176.5 65zM1297 1327q0 -44 -22 -83.5t-60.5 -63.5t-86.5 -24q-46 0 -85 23t-62 62.5t-23 85.5q0 45 22.5 85t62 63.5t85.5 23.5t85 -23.5t61.5 -63t22.5 -85.5z" />
    <glyph glyph-name="uniFEC7" unicode="&#x638;" horiz-adv-x="1659" arabic-form="initial" 
d="M-69 115v75q0 38 5.5 58t19.5 28.5t42 8.5h223q41 92 71 145v1011h361v-603q177 114 373 114q161 0 274 -67.5t171 -190t58 -285.5v-409h-1535q-27 0 -40.5 11t-18 35t-4.5 69zM942 656q-87 0 -171.5 -55t-148.5 -140t-104 -176h654v110q0 132 -54 196.5t-176 64.5z
M1233 1327q0 -44 -22 -83.5t-60.5 -63.5t-86.5 -24q-46 0 -85 23t-62 62.5t-23 85.5q0 45 22.5 85t62 63.5t85.5 23.5t85 -23.5t61.5 -63t22.5 -85.5z" />
    <glyph glyph-name="uniFEC8" unicode="&#x638;" horiz-adv-x="1743" arabic-form="medial" 
d="M-69 115v75q0 38 5.5 58t19.5 28.5t42 8.5h223q28 68 72 147v1009h360v-603q177 114 373 114q169 0 282 -71.5t167 -194.5t54 -281v-120h214q28 0 42 -8.5t19.5 -28.5t5.5 -58v-75q0 -45 -4.5 -69t-18 -35t-40.5 -11h-1753q-27 0 -40.5 11t-18 35t-4.5 69zM942 656
q-77 0 -155.5 -46t-148 -130t-120.5 -195h655v110q0 131 -54 196t-177 65zM1236 1327q0 -44 -22 -83.5t-60.5 -63.5t-86.5 -24q-46 0 -85 23t-62 62.5t-23 85.5q0 45 22.5 85t62 63.5t85.5 23.5t85 -23.5t61.5 -63t22.5 -85.5z" />
    <glyph glyph-name="uniFECA" unicode="&#x639;" horiz-adv-x="1205" arabic-form="final" 
d="M601 -729q-184 0 -320.5 66t-208.5 178t-72 246q0 292 368 529q-128 122 -181 194q-48 66 -86 107q23 88 54 147t60 81q110 56 239 86t252 30q86 0 180 -24t161 -80t67 -147q0 -141 -200 -383q111 -16 215 -16h76q28 0 42 -8.5t19.5 -28.5t5.5 -58v-75q0 -45 -4.5 -69
t-18 -35t-40.5 -11h-137q-230 0 -462 104q-125 -59 -189.5 -143t-64.5 -182q0 -72 38.5 -121.5t100.5 -73.5t135 -24q108 0 265 26v-285q-151 -30 -294 -30zM804 584q0 27 -31 43.5t-71 23t-70 6.5q-48 0 -100 -9t-98 -27q113 -176 197 -246q57 44 115 105.5t58 103.5z" />
    <glyph glyph-name="uniFECB" unicode="&#x639;" horiz-adv-x="1112" arabic-form="initial" 
d="M-69 115v75q0 38 5.5 58t19.5 28.5t42 8.5h182q-12 45 -19.5 92t-7.5 82q0 135 67 241.5t181 166t250 59.5q60 0 148.5 -15t145.5 -35l-40 -295q-77 20 -130.5 30t-97.5 10q-85 0 -129.5 -40t-44.5 -114q0 -41 19 -83t59.5 -70.5t103.5 -28.5h337v-285h-1028
q-27 0 -40.5 11t-18 35t-4.5 69z" />
    <glyph glyph-name="uniFECC" unicode="&#x639;" horiz-adv-x="1228" arabic-form="medial" 
d="M613 98q-227 -98 -438 -98h-181q-27 0 -40.5 11t-18 35t-4.5 69v75q0 38 5.5 58t19.5 28.5t42 8.5h183q84 0 151 10q-28 29 -59 68t-59 77q-34 48 -57 76q-52 69 -61 74q38 148 103 219q67 44 191 80q154 46 310 46q107 0 200.5 -28t151.5 -84.5t58 -138.5
q0 -57 -29.5 -129t-73.5 -139.5t-85 -114.5q100 -16 196 -16h110q28 0 42 -8.5t19.5 -28.5t5.5 -58v-75q0 -45 -4.5 -69t-18 -35t-40.5 -11h-171q-104 0 -214 22.5t-234 75.5zM800 584q0 27 -31 43.5t-71 23t-70 6.5q-37 0 -96 -9.5t-102 -26.5q121 -182 197 -246
q59 43 116 108t57 101z" />
    <glyph glyph-name="uniFECE" unicode="&#x63a;" horiz-adv-x="1205" arabic-form="final" 
d="M601 -729q-184 0 -320.5 66t-208.5 178t-72 246q0 292 368 529q-128 122 -181 194q-48 66 -86 107q23 88 54 147t60 81q110 56 239 86t252 30q86 0 180 -24t161 -80t67 -147q0 -141 -200 -383q111 -16 215 -16h76q28 0 42 -8.5t19.5 -28.5t5.5 -58v-75q0 -45 -4.5 -69
t-18 -35t-40.5 -11h-137q-230 0 -462 104q-125 -59 -189.5 -143t-64.5 -182q0 -72 38.5 -121.5t100.5 -73.5t135 -24q108 0 265 26v-285q-151 -30 -294 -30zM804 584q0 27 -31 43.5t-71 23t-70 6.5q-48 0 -100 -9t-98 -27q113 -176 197 -246q57 44 115 105.5t58 103.5z
M816 1327q0 -44 -22 -83.5t-60.5 -63.5t-86.5 -24q-46 0 -85 23t-62 62.5t-23 85.5q0 45 22.5 85t62 63.5t85.5 23.5t85 -23.5t61.5 -63t22.5 -85.5z" />
    <glyph glyph-name="uniFECF" unicode="&#x63a;" horiz-adv-x="1112" arabic-form="initial" 
d="M-69 115v75q0 38 5.5 58t19.5 28.5t42 8.5h182q-12 45 -19.5 92t-7.5 82q0 135 67 241.5t181 166t250 59.5q60 0 148.5 -15t145.5 -35l-40 -295q-77 20 -130.5 30t-97.5 10q-85 0 -129.5 -40t-44.5 -114q0 -41 19 -83t59.5 -70.5t103.5 -28.5h337v-285h-1028
q-27 0 -40.5 11t-18 35t-4.5 69zM804 1327q0 -44 -22 -83.5t-60.5 -63.5t-86.5 -24q-46 0 -85 23t-62 62.5t-23 85.5q0 45 22.5 85t62 63.5t85.5 23.5t85 -23.5t61.5 -63t22.5 -85.5z" />
    <glyph glyph-name="uniFED0" unicode="&#x63a;" horiz-adv-x="1228" arabic-form="medial" 
d="M613 98q-227 -98 -438 -98h-181q-27 0 -40.5 11t-18 35t-4.5 69v75q0 38 5.5 58t19.5 28.5t42 8.5h183q84 0 151 10q-28 29 -59 68t-59 77q-34 48 -57 76q-52 69 -61 74q38 148 103 219q67 44 191 80q154 46 310 46q107 0 200.5 -28t151.5 -84.5t58 -138.5
q0 -57 -29.5 -129t-73.5 -139.5t-85 -114.5q100 -16 196 -16h110q28 0 42 -8.5t19.5 -28.5t5.5 -58v-75q0 -45 -4.5 -69t-18 -35t-40.5 -11h-171q-104 0 -214 22.5t-234 75.5zM800 584q0 27 -31 43.5t-71 23t-70 6.5q-37 0 -96 -9.5t-102 -26.5q121 -182 197 -246
q59 43 116 108t57 101zM801 1327q0 -44 -22 -83.5t-60.5 -63.5t-86.5 -24q-46 0 -85 23t-62 62.5t-23 85.5q0 45 22.5 85t62 63.5t85.5 23.5t85 -23.5t61.5 -63t22.5 -85.5z" />
    <glyph glyph-name="uniFED2" unicode="&#x641;" horiz-adv-x="2272" arabic-form="final" 
d="M1705 29q-139 -14 -378 -21.5t-377 -7.5h-336q-233 0 -368.5 51.5t-190.5 143t-55 222.5q0 58 8.5 117.5t24.5 143.5l331 -29q-13 -71 -19 -113t-6 -76q0 -60 27.5 -97.5t102.5 -57.5t214 -20h499q-22 48 -34 100t-12 88q0 138 74.5 239t196 154t259.5 53
q126 0 231.5 -39.5t171 -131t65.5 -238.5q0 -43 -11.5 -102t-32.5 -123h182q28 0 42 -8.5t19.5 -28.5t5.5 -58v-75q0 -45 -4.5 -69t-18 -35t-40.5 -11h-180q-164 0 -391 29zM1770 477q0 76 -38.5 118t-101.5 42t-104 -40t-41 -105q0 -59 30.5 -106.5t80.5 -74t108 -26.5h18
q21 39 34.5 96.5t13.5 95.5zM1795 1327q0 -44 -22 -83.5t-60.5 -63.5t-86.5 -24q-46 0 -85 23t-62 62.5t-23 85.5q0 45 22.5 85t62 63.5t85.5 23.5t85 -23.5t61.5 -63t22.5 -85.5z" />
    <glyph glyph-name="uniFED3" unicode="&#x641;" horiz-adv-x="1282" arabic-form="initial" 
d="M-69 115v75q0 38 5.5 58t19.5 28.5t42 8.5h182q-32 100 -32 172q0 148 69 252t187.5 157t266.5 53q141 0 249.5 -53t170 -155.5t61.5 -245.5v-465h-1158q-27 0 -40.5 11t-18 35t-4.5 69zM645 624q-65 0 -106.5 -44.5t-41.5 -119.5q0 -50 23.5 -90t65.5 -62.5t94 -22.5
h111v143q0 90 -39 143t-107 53zM803 1327q0 -44 -22 -83.5t-60.5 -63.5t-86.5 -24q-46 0 -85 23t-62 62.5t-23 85.5q0 45 22.5 85t62 63.5t85.5 23.5t85 -23.5t61.5 -63t22.5 -85.5z" />
    <glyph glyph-name="uniFED4" unicode="&#x641;" horiz-adv-x="1278" arabic-form="medial" 
d="M715 29q-121 -14 -273.5 -21.5t-264.5 -7.5h-181q-27 0 -40.5 11t-18 35t-4.5 69v75q0 38 5.5 58t19.5 28.5t42 8.5h188q-22 48 -34 100t-12 88q0 129 70 230.5t191.5 158.5t268.5 57q140 0 245.5 -46.5t164 -138t58.5 -224.5q0 -43 -11.5 -102t-32.5 -123h182
q28 0 42 -8.5t19.5 -28.5t5.5 -58v-75q0 -45 -4.5 -69t-18 -35t-40.5 -11h-96q-147 0 -247.5 6t-223.5 23zM776 477q0 75 -39 117.5t-101 42.5q-63 0 -103.5 -40t-40.5 -105q0 -57 29 -104.5t79 -75t108 -27.5h20q21 40 34.5 95t13.5 97zM817 1327q0 -44 -22 -83.5
t-60.5 -63.5t-86.5 -24q-46 0 -85 23t-62 62.5t-23 85.5q0 45 22.5 85t62 63.5t85.5 23.5t85 -23.5t61.5 -63t22.5 -85.5z" />
    <glyph glyph-name="uniFED6" unicode="&#x642;" horiz-adv-x="1743" arabic-form="final" 
d="M732 -596q-204 0 -369.5 61.5t-264 192t-98.5 326.5q0 239 125 447l292 -152q-57 -126 -57 -257q0 -91 47.5 -164t135 -114.5t203.5 -41.5q167 0 274 85t134 242q-329 0 -479.5 102.5t-150.5 310.5q0 128 61.5 235.5t180.5 172t283 64.5q150 0 256 -61t160.5 -173.5
t54.5 -264.5v-130h223q28 0 42 -8.5t19.5 -28.5t5.5 -58v-75q0 -45 -4.5 -69t-18 -35t-40.5 -11h-239q-33 -188 -141 -322.5t-272.5 -204t-362.5 -69.5zM1009 624q-65 0 -108 -43.5t-43 -112.5q0 -84 53 -133.5t140 -49.5h108v122q0 107 -38 162t-112 55zM968 1327
q0 -44 -22 -83.5t-60.5 -63.5t-86.5 -24q-46 0 -85 23t-62 62.5t-23 85.5q0 45 22.5 85t62 63.5t85.5 23.5t85 -23.5t61.5 -63t22.5 -85.5zM1378 1327q0 -44 -22 -83.5t-60.5 -63.5t-86.5 -24q-46 0 -85 23t-62 62.5t-23 85.5q0 45 22.5 85t62 63.5t85.5 23.5t85 -23.5
t61.5 -63t22.5 -85.5z" />
    <glyph glyph-name="uniFED7" unicode="&#x642;" horiz-adv-x="1282" arabic-form="initial" 
d="M-69 115v75q0 38 5.5 58t19.5 28.5t42 8.5h182q-32 100 -32 172q0 148 69 252t187.5 157t266.5 53q141 0 249.5 -53t170 -155.5t61.5 -245.5v-465h-1158q-27 0 -40.5 11t-18 35t-4.5 69zM645 624q-65 0 -106.5 -44.5t-41.5 -119.5q0 -50 23.5 -90t65.5 -62.5t94 -22.5
h111v143q0 90 -39 143t-107 53zM638 1327q0 -44 -22 -83.5t-60.5 -63.5t-86.5 -24q-46 0 -85 23t-62 62.5t-23 85.5q0 45 22.5 85t62 63.5t85.5 23.5t85 -23.5t61.5 -63t22.5 -85.5zM1048 1327q0 -44 -22 -83.5t-60.5 -63.5t-86.5 -24q-46 0 -85 23t-62 62.5t-23 85.5
q0 45 22.5 85t62 63.5t85.5 23.5t85 -23.5t61.5 -63t22.5 -85.5z" />
    <glyph glyph-name="uniFED8" unicode="&#x642;" horiz-adv-x="1178" arabic-form="medial" 
d="M543 1327q0 -44 -22 -83.5t-60.5 -63.5t-86.5 -24q-46 0 -85 23t-62 62.5t-23 85.5q0 45 22.5 85t62 63.5t85.5 23.5t85 -23.5t61.5 -63t22.5 -85.5zM953 1327q0 -44 -22 -83.5t-60.5 -63.5t-86.5 -24q-46 0 -85 23t-62 62.5t-23 85.5q0 45 22.5 85t62 63.5t85.5 23.5
t85 -23.5t61.5 -63t22.5 -85.5zM663 29q-121 -14 -273.5 -21.5t-264.5 -7.5h-181q-27 0 -40.5 11t-18 35t-4.5 69v75q0 38 5.5 58t19.5 28.5t42 8.5h188q-22 48 -34 100t-12 88q0 129 70 230.5t191.5 158.5t268.5 57q140 0 245.5 -46.5t164 -138t58.5 -224.5
q0 -43 -11.5 -102t-32.5 -123h182q28 0 42 -8.5t19.5 -28.5t5.5 -58v-75q0 -45 -4.5 -69t-18 -35t-40.5 -11h-96q-147 0 -247.5 6t-223.5 23zM724 477q0 75 -39 117.5t-101 42.5q-63 0 -103.5 -40t-40.5 -105q0 -57 29 -104.5t79 -75t108 -27.5h20q21 40 34.5 95t13.5 97z
" />
    <glyph glyph-name="uniFEDA" unicode="&#x643;" horiz-adv-x="1988" arabic-form="final" 
d="M1701 104q-91 -104 -261 -104h-823q-210 0 -345.5 42.5t-203.5 134.5t-68 240q0 43 10.5 126.5t21.5 134.5l324 -29q-18 -98 -18 -180q0 -58 22.5 -97t96.5 -63t220 -24h622q59 0 88.5 30t29.5 85v1039h362v-1092q0 -18 -1 -23q51 -22 103.5 -30.5t95.5 -8.5h11
q28 0 42 -8.5t19.5 -28.5t5.5 -58v-75q0 -45 -4.5 -69t-18 -35t-40.5 -11h-10q-73 0 -145.5 27t-135.5 77zM772 711q-22 41 -22 75q0 60 31 103t82 65t111 22q36 0 66.5 -3t81.5 -10l-14 -157q-39 13 -94 13q-37 0 -57.5 -13t-20.5 -33q0 -29 31 -45.5t78 -16.5h85v-159
h-425v159h67z" />
    <glyph glyph-name="uniFEDB" unicode="&#x643;" horiz-adv-x="942" arabic-form="initial" 
d="M-69 115v75q0 38 5.5 58t19.5 28.5t42 8.5h327q153 0 153 94q0 68 -99.5 156t-301.5 202l480 770l275 -171l-315 -519q153 -95 229.5 -206t76.5 -235q0 -125 -61.5 -209.5t-166 -125.5t-236.5 -41h-365q-27 0 -40.5 11t-18 35t-4.5 69z" />
    <glyph glyph-name="uniFEDC" unicode="&#x643;" horiz-adv-x="1061" arabic-form="medial" 
d="M743 130q-64 -65 -159.5 -97.5t-214.5 -32.5h-375q-27 0 -40.5 11t-18 35t-4.5 69v75q0 38 5.5 58t19.5 28.5t42 8.5h345q68 0 106.5 23.5t38.5 70.5q0 67 -99.5 155t-300.5 203l479 770l273 -171l-314 -519q149 -91 228 -202.5t79 -238.5l-2 -42q52 -27 110 -38t109 -11
h10q28 0 42 -8.5t19.5 -28.5t5.5 -58v-75q0 -45 -4.5 -69t-18 -35t-40.5 -11h-9q-83 0 -164 34t-148 96z" />
    <glyph glyph-name="uniFEDE" unicode="&#x644;" horiz-adv-x="1593" arabic-form="final" 
d="M1335 84q-35 -160 -130 -276t-237 -177.5t-316 -61.5t-323 65t-239 194t-90 311q0 126 36.5 253.5t104.5 236.5l298 -158q-43 -67 -68 -141t-25 -147q0 -87 42 -155t116.5 -106t168.5 -38q106 0 177.5 47.5t105.5 130t34 189.5v1189h360v-1099q96 -56 229 -56h14
q28 0 42 -8.5t19.5 -28.5t5.5 -58v-75q0 -45 -4.5 -69t-18 -35t-40.5 -11h-9q-132 0 -253 84z" />
    <glyph glyph-name="uniFEDF" unicode="&#x644;" horiz-adv-x="712" arabic-form="initial" 
d="M-69 115v75q0 38 5.5 58t19.5 28.5t42 8.5h202v1155h362v-1440h-568q-27 0 -40.5 11t-18 35t-4.5 69z" />
    <glyph glyph-name="uniFEE0" unicode="&#x644;" horiz-adv-x="817" arabic-form="medial" 
d="M509 122q-92 -122 -274 -122h-241q-27 0 -40.5 11t-18 35t-4.5 69v75q0 38 5.5 58t19.5 28.5t42 8.5h142q41 0 58 20.5t17 74.5v1060h362v-1100q24 -21 101 -38t124 -17h15q28 0 42 -8.5t19.5 -28.5t5.5 -58v-75q0 -45 -4.5 -69t-18 -35t-40.5 -11h-12q-77 0 -156.5 33
t-143.5 89z" />
    <glyph glyph-name="uniFEE2" unicode="&#x645;" horiz-adv-x="1557" arabic-form="final" 
d="M1255 117q-130 -128 -341 -128q-113 0 -217 31.5t-186 89.5q-76 -18 -115.5 -74t-39.5 -144q0 -109 40 -259t98 -292l-340 -106q-56 162 -105 348.5t-49 300.5q0 177 85 302t270 204q73 223 211 364.5t341 141.5q156 0 264.5 -72t160 -180t51.5 -214q0 -61 -15 -114
q81 -31 184 -31h5q28 0 42 -8.5t19.5 -28.5t5.5 -58v-75q0 -45 -4.5 -69t-18 -35t-40.5 -11h-9q-79 0 -155.5 30.5t-141.5 86.5zM877 276q90 0 137 41t47 121q0 45 -20.5 83t-58.5 60.5t-87 22.5q-78 0 -140.5 -67.5t-98.5 -196.5q42 -25 107 -44.5t114 -19.5z" />
    <glyph glyph-name="uniFEE3" unicode="&#x645;" horiz-adv-x="1315" arabic-form="initial" 
d="M64 0h-70q-27 0 -40.5 11t-18 35t-4.5 69v75q0 55 14 75t53 20h62q41 0 69 24t47 76l25 70q41 114 119 215t184.5 163.5t224.5 62.5q151 0 259 -70t162.5 -177.5t54.5 -218.5q0 -118 -56 -219t-162 -161.5t-251 -60.5q-111 0 -217 31.5t-184 88.5l-7 1
q-103 -110 -264 -110zM696 276q90 0 137 41t47 121q0 49 -21.5 86.5t-59.5 58.5t-85 21q-77 0 -139.5 -69t-98.5 -195q46 -27 106.5 -45.5t113.5 -18.5z" />
    <glyph glyph-name="uniFEE4" unicode="&#x645;" horiz-adv-x="1424" arabic-form="medial" 
d="M1098 139q-135 -150 -362 -150q-111 0 -217 31.5t-184 88.5l-7 1q-103 -110 -264 -110h-70q-27 0 -40.5 11t-18 35t-4.5 69v75q0 55 14 75t53 20h62q81 0 116 99l25 71q43 121 123.5 222t187.5 160t217 59q158 0 267 -74t159 -183.5t50 -208.5q0 -45 -11 -96
q51 -25 109 -37t111 -12h10q28 0 42 -8.5t19.5 -28.5t5.5 -58v-75q0 -45 -4.5 -69t-18 -35t-40.5 -11h-9q-85 0 -170 37.5t-151 101.5zM696 276q90 0 137 41t47 121q0 45 -20 83t-58 60.5t-88 22.5q-77 0 -140 -67.5t-98 -196.5q43 -25 107 -44.5t113 -19.5z" />
    <glyph glyph-name="uniFEE6" unicode="&#x646;" horiz-adv-x="1596" arabic-form="final" 
d="M1358 70q-35 -153 -126.5 -263.5t-230.5 -168.5t-315 -58q-210 0 -365 72t-238 203t-83 304q0 107 47 230.5t118 239.5l298 -158q-42 -66 -67 -143t-25 -145q0 -85 41 -153t118.5 -107t181.5 -39q148 0 225 90t77 260q0 70 -30.5 180t-66.5 190l352 94q72 -200 98 -364
q52 -27 110.5 -38t109.5 -11h9q28 0 42 -8.5t19.5 -28.5t5.5 -58v-75q0 -45 -4.5 -69t-18 -35t-40.5 -11h-9q-120 0 -233 70zM863 1105q0 -44 -22 -83.5t-60.5 -63.5t-86.5 -24q-46 0 -85 23t-62 62.5t-23 85.5q0 45 22.5 85t62 63.5t85.5 23.5t85 -23.5t61.5 -63
t22.5 -85.5z" />
    <glyph glyph-name="uniFEE7" unicode="&#x646;" horiz-adv-x="731" arabic-form="initial" 
d="M-69 115v75q0 38 5.5 58t19.5 28.5t42 8.5h221v595h362v-880h-587q-27 0 -40.5 11t-18 35t-4.5 69zM577 1327q0 -44 -22 -83.5t-60.5 -63.5t-86.5 -24q-46 0 -85 23t-62 62.5t-23 85.5q0 45 22.5 85t62 63.5t85.5 23.5t85 -23.5t61.5 -63t22.5 -85.5z" />
    <glyph glyph-name="uniFEE8" unicode="&#x646;" horiz-adv-x="817" arabic-form="medial" 
d="M509 122q-92 -122 -271 -122h-244q-27 0 -40.5 11t-18 35t-4.5 69v75q0 38 5.5 58t19.5 28.5t42 8.5h141q42 0 59 20t17 73v502h362v-540q100 -55 225 -55h15q28 0 42 -8.5t19.5 -28.5t5.5 -58v-75q0 -45 -4.5 -69t-18 -35t-40.5 -11h-11q-78 0 -157.5 33t-143.5 89z
M573 1327q0 -44 -22 -83.5t-60.5 -63.5t-86.5 -24q-46 0 -85 23t-62 62.5t-23 85.5q0 45 22.5 85t62 63.5t85.5 23.5t85 -23.5t61.5 -63t22.5 -85.5z" />
    <glyph glyph-name="uniFEE9" unicode="&#x647;" horiz-adv-x="1073" arabic-form="isolated" 
d="M0 405q0 171 78 294.5t190.5 184t218.5 60.5q131 0 239.5 -67t172.5 -189.5t64 -281.5q0 -87 -46 -181t-150 -159.5t-267 -65.5h-39q-139 0 -243.5 52t-161 144t-56.5 209zM626 438q0 68 -19 119t-53.5 78.5t-78.5 27.5q-41 0 -75.5 -27.5t-55 -79t-20.5 -118.5
q0 -153 156 -153q71 0 108.5 39.5t37.5 113.5z" />
    <glyph glyph-name="uniFEEA" unicode="&#x647;" horiz-adv-x="1205" arabic-form="final" 
d="M681 111q-123 -45 -235 -45q-130 0 -231 43t-158 124t-57 189q0 172 157.5 299.5t473.5 202.5v120h361v-688q0 -40 10 -55.5t37 -15.5h165q28 0 42 -8.5t19.5 -28.5t5.5 -58v-75q0 -45 -4.5 -69t-18 -35t-40.5 -11h-217q-232 0 -310 111zM350 434q0 -43 35 -68t93 -25
q79 0 153 33v264q-147 -39 -214 -89t-67 -115z" />
    <glyph glyph-name="uniFEEB" unicode="&#x647;" horiz-adv-x="1642" arabic-form="initial" 
d="M263 -34q-21 -33 -26 -156h-165q-7 7 -40 86q-32 81 -32 155q0 121 72 177.5t228 56.5h17q-14 40 -23 88t-9 85q0 81 36 164.5t97 159.5l-62 13q54 148 160 254q389 -75 600 -167q106 -47 191 -109t145 -169t60 -262q0 -22 -13 -342h-1171q-43 0 -65 -34zM819 484
q0 48 -12 101.5t-42 93.5t-80 40q-47 0 -77 -32.5t-43 -80.5t-13 -96q0 -58 17 -123.5t50 -101.5h160q40 76 40 199zM1202 352q0 107 -64 181.5t-191 113.5q29 -45 44 -131.5t14 -230.5h190q7 20 7 67z" />
    <glyph glyph-name="uniFEEC" unicode="&#x647;" horiz-adv-x="1325" arabic-form="medial" 
d="M1102 -191q0 -114 -59.5 -202t-152 -138t-187.5 -50q-144 0 -261 84t-185 218t-75 279h-188q-27 0 -40.5 11t-18 35t-4.5 69v75q0 38 5.5 58t19.5 28.5t42 8.5h197q41 173 126 314q45 75 112.5 144.5t150.5 114.5t168 45q100 0 184 -62t132.5 -160t48.5 -200
q0 -45 -13.5 -98.5t-36.5 -97.5h257q28 0 42 -8.5t19.5 -28.5t5.5 -58v-75q0 -45 -4.5 -69t-18 -35t-40.5 -11h-281q55 -101 55 -191zM817 447q0 31 -11.5 67t-35.5 61t-57 25q-55 0 -114 -86q-60 -87 -97 -229h169q40 0 73.5 23t53 60.5t19.5 78.5zM698 -286q42 0 72 33
t30 81q0 39 -16.5 79t-47.5 66.5t-73 26.5h-161q5 -54 29 -121t67 -116t100 -49z" />
    <glyph glyph-name="uniFEEE" unicode="&#x648;" horiz-adv-x="1290" arabic-form="final" 
d="M243 -425l-35 299q109 5 190.5 16t161.5 43t138 94q-52 -6 -99 -6q-141 0 -256 45t-184 139.5t-69 236.5q0 144 70.5 251t191 164t264.5 57q150 0 256 -61t160.5 -173.5t54.5 -264.5v-130h203q28 0 42 -8.5t19.5 -28.5t5.5 -58v-75q0 -45 -4.5 -69t-18 -35t-40.5 -11
h-246q-54 -148 -179.5 -237t-280.5 -129t-345 -59zM576 624q-65 0 -107.5 -42.5t-42.5 -113.5q0 -84 53 -133.5t145 -49.5h108v120q0 107 -40.5 163t-115.5 56z" />
    <glyph glyph-name="uniFEF0" unicode="&#x649;" horiz-adv-x="2260" arabic-form="final" 
d="M1686 342v245h-46q-86 0 -117 -50.5t-31 -140.5v-282q0 -132 -84.5 -256.5t-247.5 -203.5t-385 -79q-287 0 -460.5 96t-244 229t-70.5 256q0 116 48.5 232t133.5 224l292 -151q-45 -59 -78.5 -140.5t-33.5 -150.5q0 -94 51.5 -159.5t144.5 -98.5t217 -33q98 0 179 28.5
t129 84t48 132.5v306q0 221 132.5 336t392.5 115h390v-484q0 -112 118 -112h95q28 0 42 -8.5t19.5 -28.5t5.5 -58v-75q0 -45 -4.5 -69t-18 -35t-40.5 -11h-220q-170 0 -263.5 90t-93.5 252z" />
    <glyph glyph-name="uniFEF2" unicode="&#x64a;" horiz-adv-x="2260" arabic-form="final" 
d="M1686 342v245h-46q-86 0 -117 -50.5t-31 -140.5v-282q0 -132 -84.5 -256.5t-247.5 -203.5t-385 -79q-287 0 -460.5 96t-244 229t-70.5 256q0 116 48.5 232t133.5 224l292 -151q-45 -59 -78.5 -140.5t-33.5 -150.5q0 -94 51.5 -159.5t144.5 -98.5t217 -33q98 0 179 28.5
t129 84t48 132.5v306q0 221 132.5 336t392.5 115h390v-484q0 -112 118 -112h95q28 0 42 -8.5t19.5 -28.5t5.5 -58v-75q0 -45 -4.5 -69t-18 -35t-40.5 -11h-220q-170 0 -263.5 90t-93.5 252zM731 -800q0 -44 -22 -83.5t-60.5 -63.5t-86.5 -24q-46 0 -85 23t-62 62.5t-23 85.5
q0 45 22.5 85t62 63.5t85.5 23.5t85 -23.5t61.5 -63t22.5 -85.5zM1141 -800q0 -44 -22 -83.5t-60.5 -63.5t-86.5 -24q-46 0 -85 23t-62 62.5t-23 85.5q0 45 22.5 85t62 63.5t85.5 23.5t85 -23.5t61.5 -63t22.5 -85.5z" />
    <glyph glyph-name="uniFEF3" unicode="&#x64a;" horiz-adv-x="819" arabic-form="initial" 
d="M-69 115v75q0 38 5.5 58t19.5 28.5t42 8.5h308v595h362v-880h-674q-27 0 -40.5 11t-18 35t-4.5 69zM226 -542q-44 0 -83.5 23t-63 62.5t-23.5 85.5q0 45 23 84.5t62 63.5t85 24q44 0 83 -23.5t62.5 -63t23.5 -85.5q0 -45 -21.5 -84t-60.5 -63t-87 -24zM636 -199
q44 0 83 -23.5t62.5 -63t23.5 -85.5q0 -44 -22.5 -83.5t-61.5 -63.5t-85 -24q-45 0 -83.5 22.5t-62 62t-23.5 86.5q0 45 22.5 84.5t61.5 63.5t85 24z" />
    <glyph glyph-name="uniFEF4" unicode="&#x64a;" horiz-adv-x="817" arabic-form="medial" 
d="M509 122q-92 -122 -271 -122h-244q-27 0 -40.5 11t-18 35t-4.5 69v75q0 38 5.5 58t19.5 28.5t42 8.5h141q42 0 59 20t17 73v502h362v-540q100 -55 225 -55h15q28 0 42 -8.5t19.5 -28.5t5.5 -58v-75q0 -45 -4.5 -69t-18 -35t-40.5 -11h-11q-78 0 -157.5 33t-143.5 89z
M324 -371q0 -44 -22 -83.5t-60.5 -63.5t-86.5 -24q-46 0 -85 23t-62 62.5t-23 85.5q0 45 22.5 85t62 63.5t85.5 23.5t85 -23.5t61.5 -63t22.5 -85.5zM734 -371q0 -44 -22 -83.5t-60.5 -63.5t-86.5 -24q-46 0 -85 23t-62 62.5t-23 85.5q0 45 22.5 85t62 63.5t85.5 23.5
t85 -23.5t61.5 -63t22.5 -85.5z" />
    <glyph glyph-name=".notdef" horiz-adv-x="1049" 
d="M1049 1470v-1470h-1049v1470h1049zM102 102h844v1264h-844v-1264zM457 541q0 51 8 86.5t31 73.5t69 87l33 34q43 42 62.5 72.5t19.5 76.5q0 49 -21.5 88.5t-57.5 62.5t-77 23q-69 0 -112 -48.5t-56 -146.5l-102 17q12 135 84.5 207.5t191.5 72.5q73 0 130.5 -33.5
t90.5 -94t33 -140.5q0 -75 -29 -127.5t-102 -120.5q-43 -40 -61.5 -62.5t-26 -47.5t-8.5 -68l-2 -74h-94q-1 5 -2.5 23t-1.5 39zM569 377v-137h-114v137h114z" />
    <glyph glyph-name=".null" horiz-adv-x="0" 
 />
    <glyph glyph-name="nonmarkingreturn" unicode="&#xd;" horiz-adv-x="627" 
 />
    <glyph glyph-name="NULL" horiz-adv-x="0" 
 />
    <glyph glyph-name="NULL" horiz-adv-x="0" 
 />
    <glyph glyph-name="space" unicode=" " horiz-adv-x="627" 
 />
    <glyph glyph-name="space" unicode="&#xa0;" horiz-adv-x="627" 
 />
    <glyph glyph-name="exclam" unicode="!" horiz-adv-x="909" 
d="M645 1430l-53 -945h-275l-53 945h381zM627 332v-332h-344v332h344z" />
    <glyph glyph-name="quotedbl" unicode="&#x22;" 
d="M561 1430v-556h-270v556h270zM961 1430v-556h-271v556h271z" />
    <glyph glyph-name="numbersign" unicode="#" horiz-adv-x="1253" 
d="M508 383l-53 -383h-217l53 383h-172v221h203l30 225h-172v222h203l53 379h217l-53 -379h178l51 379h215l-51 -379h142v-222h-172l-31 -225h141v-221h-172l-53 -383h-215l53 383h-178zM539 604h178l31 225h-179z" />
    <glyph glyph-name="dollar" unicode="$" horiz-adv-x="1253" 
d="M131 29l27 290q185 -73 387 -73v346q-144 23 -249.5 83t-161.5 149.5t-56 199.5q0 127 56.5 221t167 147.5t269.5 61.5v174h123v-174q117 0 218.5 -17.5t160.5 -45.5l-24 -277q-79 38 -176.5 60t-178.5 22v-309l70 -17q163 -38 254 -104t125.5 -152t34.5 -198
q0 -133 -67 -231.5t-183 -152t-260 -57.5v-176h-123v176q-115 0 -238 16.5t-176 37.5zM410 1057q0 -59 42.5 -97.5t118.5 -48.5v285q-47 -2 -83.5 -21t-57 -50.5t-20.5 -67.5zM846 422q0 121 -178 151v-327q178 16 178 176z" />
    <glyph glyph-name="percent" unicode="%" horiz-adv-x="2048" 
d="M1524 1475l-781 -1520h-225l782 1520h224zM98 1030q0 209 90.5 316.5t268.5 107.5q177 0 267.5 -108.5t90.5 -315.5q0 -214 -89.5 -319t-268.5 -105q-359 0 -359 424zM557 1030q0 88 -10 140t-31.5 76t-58.5 24q-35 0 -57 -20t-33 -72t-11 -148q0 -99 12 -151t33.5 -70
t55.5 -18q33 0 54.5 18t33.5 70t12 151zM1233 399q0 208 91 316t267 108q178 0 268.5 -108.5t90.5 -315.5q0 -424 -359 -424q-358 0 -358 424zM1692 399q0 98 -11.5 150.5t-33.5 71t-58 18.5q-32 0 -53 -17.5t-33 -69.5t-12 -153q0 -98 11.5 -150t33 -70.5t55.5 -18.5
t55.5 16.5t33.5 68.5t12 154z" />
    <glyph glyph-name="ampersand" unicode="&#x26;" horiz-adv-x="1593" 
d="M1075 109q-151 -134 -442 -134q-152 0 -275.5 51.5t-195.5 150t-72 233.5q0 136 67 229t214 160q-88 69 -130 145t-42 168q0 114 65 191t173 114t239 37q150 0 261 -40t171.5 -118t60.5 -190q0 -63 -23.5 -118t-91 -116.5t-192.5 -130.5q117 -102 246 -227q87 95 94 258
h332q-6 -138 -62.5 -263.5t-156.5 -225.5l254 -283h-408q-59 82 -86 109zM838 1094q0 57 -43.5 92t-116.5 35q-65 0 -108.5 -36t-43.5 -91q0 -46 33 -92.5t105 -100.5q93 53 133.5 97.5t40.5 95.5zM567 614q-65 -34 -97 -79t-32 -115q0 -61 33 -106t86 -69t113 -24
q61 0 110 18t105 60q-69 76 -143 149t-175 166z" />
    <glyph glyph-name="quotesingle" unicode="'" horiz-adv-x="682" 
d="M477 1430v-556h-270v556h270z" />
    <glyph glyph-name="parenleft" unicode="(" horiz-adv-x="797" 
d="M141 631q0 447 326 917h301q-295 -461 -295 -917q0 -221 69.5 -448.5t211.5 -469.5h-291q-155 209 -238.5 440t-83.5 478z" />
    <glyph glyph-name="parenright" unicode=")" horiz-adv-x="797" 
d="M324 631q0 224 -73.5 454.5t-221.5 462.5h301q158 -206 241.5 -440.5t83.5 -476.5q0 -448 -325 -918h-301q295 467 295 918z" />
    <glyph glyph-name="asterisk" unicode="*" 
d="M477 616l-201 146l211 211l-290 55l77 238l273 -136l-43 300h250l-41 -295l266 131l76 -240l-295 -51l209 -211l-207 -150l-137 265z" />
    <glyph glyph-name="plus" unicode="+" horiz-adv-x="1229" 
d="M96 389v258h389v389h258v-389h390v-258h-390v-389h-258v389h-389z" />
    <glyph glyph-name="comma" unicode="," horiz-adv-x="724" 
d="M534 332l-200 -555h-281l137 555h344z" />
    <glyph glyph-name="hyphen" unicode="-" horiz-adv-x="682" 
d="M618 686v-270h-555v270h555z" />
    <glyph glyph-name="hyphen" unicode="&#x2010;" horiz-adv-x="682" 
d="M618 686v-270h-555v270h555z" />
    <glyph glyph-name="hyphen" unicode="&#xad;" horiz-adv-x="682" 
d="M618 686v-270h-555v270h555z" />
    <glyph glyph-name="period" unicode="." horiz-adv-x="724" 
d="M534 332v-332h-344v332h344z" />
    <glyph glyph-name="slash" unicode="/" horiz-adv-x="569" 
d="M612 1454l-397 -1479h-258l397 1479h258z" />
    <glyph glyph-name="zero" unicode="0" horiz-adv-x="1253" 
d="M72 715q0 264 62.5 427t184.5 237.5t308 74.5q188 0 310.5 -76.5t183.5 -239.5t61 -423q0 -262 -62 -425.5t-184.5 -239t-308.5 -75.5q-185 0 -307 74.5t-185 238t-63 427.5zM813 715q0 181 -20.5 286.5t-61 150t-104.5 44.5q-63 0 -104 -44t-62 -149.5t-21 -287.5
q0 -183 21.5 -288.5t62 -149.5t103.5 -44t103.5 44t61.5 149.5t21 288.5z" />
    <glyph glyph-name="one" unicode="1" horiz-adv-x="1253" 
d="M303 856l-170 258l485 316h336v-1430h-381v1049z" />
    <glyph glyph-name="two" unicode="2" horiz-adv-x="1253" 
d="M520 666q193 201 193 325q0 86 -53 133t-150 47q-85 0 -192.5 -28t-182.5 -70l-14 297q110 39 215 61.5t211 22.5q170 0 293 -50t188.5 -144.5t65.5 -225.5q0 -149 -122 -336.5t-417 -427.5h565v-270h-1034v272q188 161 278.5 243t155.5 151z" />
    <glyph glyph-name="three" unicode="3" horiz-adv-x="1253" 
d="M1128 420q0 -153 -83.5 -253t-225 -146t-319.5 -46q-275 0 -414 50l18 301q65 -38 153 -53t198 -15q123 0 208 44.5t85 137.5q0 79 -65.5 121.5t-199.5 42.5q-65 0 -155 -4v254q34 -4 143 -4q78 0 135.5 20t88 56t30.5 82q0 163 -248 163q-92 0 -180 -14.5t-150 -42.5
l-18 281q103 30 201 44.5t213 14.5q268 0 415.5 -99t147.5 -292q0 -117 -68.5 -198t-193.5 -115v-5q135 -27 209.5 -111.5t74.5 -213.5z" />
    <glyph glyph-name="four" unicode="4" horiz-adv-x="1253" 
d="M16 272v303l574 855h422v-900h202v-258h-202v-272h-357v272h-639zM287 530h393v605h-4z" />
    <glyph glyph-name="five" unicode="5" horiz-adv-x="1253" 
d="M494 258q140 0 214 59t74 170q0 105 -88 157t-231 52q-176 0 -309 -34l10 768h932v-259h-604v-237q84 8 118 8q147 0 269.5 -46t197 -145.5t74.5 -250.5q0 -170 -74 -287.5t-215.5 -177.5t-341.5 -60q-178 0 -381 52l6 309q160 -78 349 -78z" />
    <glyph glyph-name="six" unicode="6" horiz-adv-x="1253" 
d="M764 1184q-172 0 -253.5 -101.5t-82.5 -318.5h4q52 73 127.5 109t181.5 36q125 0 222 -57t151.5 -159.5t54.5 -233.5q0 -135 -70 -245.5t-192.5 -174.5t-273.5 -64q-179 0 -302 81.5t-185 233.5t-62 363q0 384 158.5 592.5t474.5 208.5q205 0 368 -65l-22 -281
q-51 34 -128 55t-171 21zM813 424q0 102 -46 164.5t-136 62.5q-59 0 -101 -28t-64 -76.5t-22 -106.5q0 -60 22 -110t64.5 -79.5t100.5 -29.5t99 27t62 73.5t21 102.5z" />
    <glyph glyph-name="seven" unicode="7" horiz-adv-x="1253" 
d="M102 1159v271h1028v-310l-512 -1120h-409l532 1159h-639z" />
    <glyph glyph-name="eight" unicode="8" horiz-adv-x="1253" 
d="M1186 403q0 -136 -68 -232.5t-194.5 -146t-298.5 -49.5q-176 0 -301 47.5t-190.5 139t-65.5 221.5q0 132 69.5 221t212.5 131v2q-71 24 -127 71t-87.5 108t-31.5 126q0 133 64 225.5t184.5 139.5t288.5 47q153 0 263.5 -42.5t169.5 -125t59 -199.5q0 -113 -60.5 -198
t-175.5 -129v-4q149 -46 219 -132t70 -221zM788 1057q0 71 -50.5 111t-123.5 40q-44 0 -82 -21t-60.5 -59.5t-22.5 -87.5q0 -58 38.5 -103t139.5 -85q88 50 124.5 96t36.5 109zM436 412q0 -50 24.5 -91t67 -64.5t93.5 -23.5q55 0 100 22.5t70.5 64.5t25.5 98q0 73 -52.5 124
t-162.5 83q-86 -41 -126 -92t-40 -121z" />
    <glyph glyph-name="nine" unicode="9" horiz-adv-x="1253" 
d="M512 520q-126 0 -223.5 58t-151 160.5t-53.5 232.5q0 133 69.5 243.5t192 175t275.5 64.5q179 0 302 -81.5t184.5 -234t61.5 -364.5q0 -387 -160 -593t-470 -206q-107 0 -197.5 16.5t-173.5 49.5l22 281q51 -34 127.5 -55t174.5 -21q169 0 250.5 101t82.5 319h-4
q-52 -74 -127.5 -110t-181.5 -36zM809 989q0 62 -22 112t-64.5 78.5t-99.5 28.5q-84 0 -133.5 -56t-49.5 -146q0 -105 47 -166.5t136 -61.5q57 0 99.5 27.5t64.5 75.5t22 108z" />
    <glyph glyph-name="colon" unicode=":" horiz-adv-x="724" 
d="M534 1067v-332h-344v332h344zM534 332v-332h-344v332h344z" />
    <glyph glyph-name="semicolon" unicode=";" horiz-adv-x="724" 
d="M534 1067v-332h-344v332h344zM534 332l-200 -555h-281l137 555h344z" />
    <glyph glyph-name="less" unicode="&#x3c;" horiz-adv-x="1229" 
d="M1133 1053v-250l-699 -285l699 -285v-249l-1037 426v217z" />
    <glyph glyph-name="equal" unicode="=" horiz-adv-x="1229" 
d="M1133 883v-258h-1037v258h1037zM1133 412v-258h-1037v258h1037z" />
    <glyph glyph-name="greater" unicode="&#x3e;" horiz-adv-x="1229" 
d="M795 518l-699 285v250l1037 -426v-217l-1037 -426v249z" />
    <glyph glyph-name="question" unicode="?" horiz-adv-x="1139" 
d="M559 795q73 87 101 138.5t28 102.5q0 47 -32.5 80.5t-84.5 50.5t-110 17q-169 0 -320 -76l-8 287q191 59 428 59q135 0 248 -37.5t180.5 -115t67.5 -191.5q0 -85 -38 -157t-122 -158q-87 -92 -127.5 -161.5t-46.5 -148.5h-299v4q0 72 30.5 144.5t104.5 161.5zM745 332
v-332h-344v332h344z" />
    <glyph glyph-name="at" unicode="@" horiz-adv-x="1638" 
d="M868 -25q-222 0 -403 95.5t-285 264.5t-104 380q0 210 101 379t279 264.5t400 95.5q194 0 355.5 -75t256.5 -211t95 -312q0 -121 -36.5 -214t-92.5 -159q-60 -69 -136.5 -113.5t-145 -64.5t-110.5 -20q-45 0 -75 25t-31 75h-4q-39 -44 -93.5 -72t-113.5 -28
q-85 0 -157 51.5t-115 141.5t-43 202q0 109 50 203.5t138.5 151.5t200.5 57q161 0 245 -117l19 96h192l-67 -416q-5 -24 -14 -68.5t-9 -60.5q0 -34 27 -34q41 0 81 33t66.5 102.5t26.5 173.5q0 224 -133 340t-391 116q-158 0 -279 -70t-187.5 -194t-66.5 -282
q0 -166 67.5 -288t192.5 -186.5t295 -64.5q122 0 221 29.5t170 79.5h209q-109 -151 -260 -228.5t-336 -77.5zM993 705q0 53 -20.5 96.5t-59.5 68.5t-92 25q-54 0 -97.5 -29.5t-68 -79.5t-24.5 -108q0 -87 45.5 -142t126.5 -55q58 0 101 28.5t66 79t23 116.5z" />
    <glyph glyph-name="A" unicode="A" horiz-adv-x="1593" 
d="M516 305l-113 -305h-387l543 1430h467l551 -1430h-418l-106 305h-537zM604 575h359l-170 560h-5z" />
    <glyph glyph-name="B" unicode="B" horiz-adv-x="1366" 
d="M776 1430q146 0 251.5 -42.5t161.5 -124t56 -196.5q0 -131 -64.5 -212.5t-187.5 -121.5v-4q144 -29 216.5 -107t72.5 -208q0 -210 -146 -312t-411 -102h-602v1430h653zM864 1016q0 62 -34.5 93.5t-87.5 40.5t-132 9h-106v-295h104q114 0 185 35t71 117zM901 436
q0 96 -70.5 133t-205.5 37h-121v-336h125q161 0 216.5 48t55.5 118z" />
    <glyph glyph-name="C" unicode="C" horiz-adv-x="1366" 
d="M903 -25q-231 0 -418 83.5t-296 249t-109 401.5q0 231 98.5 398.5t282.5 257t436 89.5q104 0 206 -19.5t220 -54.5l-31 -309q-92 51 -182.5 75.5t-187.5 24.5q-133 0 -235 -58.5t-158 -163.5t-56 -240q0 -134 58.5 -236t166.5 -158.5t252 -56.5q87 0 179 20.5t178 53.5
l18 -299q-119 -31 -217.5 -44.5t-204.5 -13.5z" />
    <glyph glyph-name="D" unicode="D" horiz-adv-x="1593" 
d="M653 1430q295 0 482 -77t275.5 -233.5t88.5 -398.5q0 -360 -214.5 -540.5t-629.5 -180.5h-522v1430h520zM1106 715q0 208 -115.5 320t-328.5 112h-148v-864h152q209 0 324.5 109.5t115.5 322.5z" />
    <glyph glyph-name="E" unicode="E" 
d="M1130 1430v-271h-626v-295h592v-270h-592v-324h649v-270h-1030v1430h1007z" />
    <glyph glyph-name="F" unicode="F" horiz-adv-x="1139" 
d="M1079 1430v-271h-575v-313h551v-271h-551v-575h-381v1430h956z" />
    <glyph glyph-name="G" unicode="G" horiz-adv-x="1593" 
d="M862 836h592v-795q-146 -36 -269.5 -51t-279.5 -15q-229 0 -416 82t-298 247.5t-111 404.5q0 366 231 555.5t670 189.5q122 0 239 -16t195 -47l-31 -312q-76 45 -167 68.5t-183 23.5q-182 0 -308 -56t-189.5 -160t-63.5 -246q0 -135 59.5 -237t167 -158t248.5 -56
q40 0 76 6.5t61 18.5v282h-223v271z" />
    <glyph glyph-name="H" unicode="H" horiz-adv-x="1479" 
d="M514 612v-612h-381v1430h381v-547h451v547h381v-1430h-381v612h-451z" />
    <glyph glyph-name="I" unicode="I" horiz-adv-x="684" 
d="M532 1430v-1430h-380v1430h380z" />
    <glyph glyph-name="J" unicode="J" horiz-adv-x="909" 
d="M201 295q93 0 143.5 76t50.5 233v826h381v-945q0 -255 -126.5 -382.5t-383.5 -127.5q-56 0 -109 10t-128 29v316q72 -35 172 -35z" />
    <glyph glyph-name="K" unicode="K" horiz-adv-x="1479" 
d="M514 649v-649h-381v1430h381v-584h4l430 584h459l-528 -666l569 -764h-485l-445 649h-4z" />
    <glyph glyph-name="L" unicode="L" horiz-adv-x="1139" 
d="M514 1430v-1147h590v-283h-971v1430h381z" />
    <glyph glyph-name="M" unicode="M" horiz-adv-x="2048" 
d="M1554 1098l-364 -1098h-350l-348 1098h-5l9 -1098h-373v1430h600l303 -951h4l318 951h577v-1430h-373l7 1098h-5z" />
    <glyph glyph-name="N" unicode="N" horiz-adv-x="1593" 
d="M477 977l12 -977h-350v1430h486l483 -971h4l-6 971h348v-1430h-473l-500 977h-4z" />
    <glyph glyph-name="O" unicode="O" horiz-adv-x="1593" 
d="M80 715q0 234 83.5 399.5t244.5 252.5t389 87t388.5 -87t244 -252.5t83.5 -399.5q0 -233 -84 -399t-245 -253.5t-387 -87.5q-225 0 -386 87.5t-246 254t-85 398.5zM1120 715q0 141 -37.5 243.5t-110 157.5t-175.5 55q-102 0 -175 -53.5t-111 -156t-38 -246.5
q0 -133 36.5 -236t110 -162t179.5 -59q101 0 173.5 57.5t110 161t37.5 238.5z" />
    <glyph glyph-name="P" unicode="P" 
d="M571 1430q321 0 479 -113.5t158 -355.5q0 -149 -71 -253t-198 -156t-294 -52h-151v-500h-381v1430h458zM827 967q0 192 -237 192h-96v-389h94q239 0 239 197z" />
    <glyph glyph-name="Q" unicode="Q" horiz-adv-x="1593" 
d="M803 -25q-231 0 -393 88t-246 254t-84 398q0 234 83 399.5t244 252.5t390 87q228 0 388.5 -86.5t244 -252t83.5 -400.5q0 -243 -92.5 -415t-271.5 -253l338 -317h-430l-240 245h-14zM1120 715q0 142 -37.5 244.5t-110.5 157t-175 54.5t-175 -53.5t-111 -156t-38 -246.5
q0 -138 38.5 -241.5t111.5 -159.5t174 -56q102 0 174.5 57t110.5 160t38 240z" />
    <glyph glyph-name="R" unicode="R" horiz-adv-x="1366" 
d="M578 565h-74v-565h-381v1430h674q143 0 248.5 -43t162 -124.5t56.5 -193.5q0 -144 -68.5 -236t-206.5 -124v-4q49 -13 78.5 -43t50.5 -78t62 -160l151 -424h-397l-90 283q-39 124 -76.5 184t-79.5 79t-110 19zM883 1001q0 86 -70.5 122t-210.5 36h-98v-323h121
q124 0 191 34.5t67 130.5z" />
    <glyph glyph-name="S" unicode="S" 
d="M528 258q123 0 180.5 34.5t57.5 104.5q0 48 -27.5 81t-80 56.5t-142.5 49.5q-140 39 -230.5 87t-143 131t-52.5 214q0 141 75.5 239.5t216 148.5t333.5 50q100 0 197 -14t169 -39l-24 -295q-143 65 -318 65q-127 0 -191.5 -31t-64.5 -102q0 -46 35 -76t88 -48.5
t158 -47.5q142 -38 228.5 -94t126.5 -136t40 -190q0 -232 -161.5 -351.5t-467.5 -119.5q-102 0 -214.5 15.5t-211.5 46.5l33 315q82 -44 181.5 -69t209.5 -25z" />
    <glyph glyph-name="T" unicode="T" horiz-adv-x="1139" 
d="M27 1147v283h1085v-283h-352v-1147h-381v1147h-352z" />
    <glyph glyph-name="U" unicode="U" horiz-adv-x="1479" 
d="M1366 539q0 -179 -72.5 -305.5t-213 -192.5t-341.5 -66q-202 0 -342.5 67t-212 193.5t-71.5 303.5v891h381v-826q0 -173 60.5 -259.5t184.5 -86.5q246 0 246 342v830h381v-891z" />
    <glyph glyph-name="V" unicode="V" horiz-adv-x="1479" 
d="M426 1430l317 -1123h5l319 1123h391l-487 -1430h-471l-480 1430h406z" />
    <glyph glyph-name="W" unicode="W" horiz-adv-x="2048" 
d="M1016 1098l-189 -1098h-493l-318 1430h390l184 -1098h4l192 1098h484l200 -1098h5l186 1098h371l-320 -1430h-489l-203 1098h-4z" />
    <glyph glyph-name="X" unicode="X" horiz-adv-x="1479" 
d="M453 0h-433l463 752l-413 678h444l240 -472l245 472h418l-418 -678l459 -752h-454l-277 526z" />
    <glyph glyph-name="Y" unicode="Y" horiz-adv-x="1479" 
d="M23 1430h438l280 -574l277 574h438l-524 -891v-539h-381v539z" />
    <glyph glyph-name="Z" unicode="Z" 
d="M733 1147h-661v283h1095v-304l-700 -843h704v-283h-1118v303z" />
    <glyph glyph-name="bracketleft" unicode="[" horiz-adv-x="797" 
d="M721 1548v-233h-234v-1368h234v-234h-541v1835h541z" />
    <glyph glyph-name="backslash" unicode="\" horiz-adv-x="569" 
d="M215 1454l397 -1479h-258l-397 1479h258z" />
    <glyph glyph-name="bracketright" unicode="]" horiz-adv-x="797" 
d="M309 -53v1368h-233v233h540v-1835h-540v234h233z" />
    <glyph glyph-name="asciicircum" unicode="^" horiz-adv-x="1229" 
d="M393 682h-250l357 748h229l356 -748h-249l-222 465z" />
    <glyph glyph-name="underscore" unicode="_" horiz-adv-x="1024" 
d="M1024 -154v-102h-1024v102h1024z" />
    <glyph glyph-name="grave" unicode="`" horiz-adv-x="682" 
d="M365 1493l139 -295h-258l-264 295h383z" />
    <glyph glyph-name="a" unicode="a" 
d="M805 168h-4q-63 -100 -144 -146.5t-194 -46.5q-117 0 -207.5 40.5t-141.5 116t-51 179.5q0 181 143 273t408 92q43 0 90.5 -4t81.5 -10q-2 92 -60.5 138t-182.5 46q-197 0 -340 -80l-6 250q188 76 424 76q166 0 280 -53t171.5 -151.5t57.5 -234.5v-413q0 -128 21 -240
h-338l-4 74q-4 56 -4 94zM786 473q-125 6 -153 6q-107 0 -166 -35.5t-59 -105.5q0 -54 41.5 -85.5t109.5 -31.5q66 0 118 36t80.5 94t28.5 122z" />
    <glyph glyph-name="b" unicode="b" horiz-adv-x="1368" 
d="M477 1536v-606h4q70 87 160.5 124.5t206.5 37.5q141 0 244.5 -78.5t158 -203t54.5 -257.5q0 -166 -59 -297.5t-169.5 -206t-259.5 -74.5q-79 0 -154 27.5t-131 76.5t-81 111h-5v-190h-340v1536h371zM924 545q0 73 -27 133.5t-78 95.5t-121 35q-64 0 -114.5 -35.5
t-79.5 -99t-29 -144.5q0 -75 30 -137t81.5 -98.5t113.5 -36.5q68 0 118.5 35.5t78 100.5t27.5 151z" />
    <glyph glyph-name="c" unicode="c" horiz-adv-x="1024" 
d="M684 -25q-181 0 -322 68t-220 194.5t-79 294.5t78 295t219 196t324 69q170 0 293 -60l-27 -270q-52 32 -105.5 45.5t-117.5 13.5q-83 0 -147 -36.5t-100 -103.5t-36 -155q0 -81 41 -145t111 -99.5t154 -35.5q61 0 121 13.5t106 37.5l8 -274q-68 -23 -147.5 -35.5
t-153.5 -12.5z" />
    <glyph glyph-name="d" unicode="d" horiz-adv-x="1368" 
d="M918 190q-27 -63 -83 -112t-130 -76t-154 -27q-150 0 -260.5 75t-169 206.5t-58.5 296.5q0 139 55.5 263t159.5 200t242 76q128 0 216 -40t151 -122h4v606h371v-1536h-340v190h-4zM893 530q0 80 -28 143.5t-79.5 99.5t-119.5 36q-64 0 -114.5 -33.5t-79 -94t-28.5 -136.5
q0 -86 27.5 -151t78 -100.5t118.5 -35.5q62 0 113.5 36.5t81.5 98.5t30 137z" />
    <glyph glyph-name="e" unicode="e" 
d="M684 -25q-182 0 -323 69t-219.5 196t-78.5 295t71 294t200.5 194.5t300.5 68.5q163 0 284 -65.5t188 -201.5t67 -342v-57h-738q15 -107 94.5 -156t219.5 -49q80 0 163 20t162 62v-260q-172 -68 -391 -68zM637 858q-88 0 -143 -58t-62 -165h410q0 106 -53.5 164.5
t-151.5 58.5z" />
    <glyph glyph-name="f" unicode="f" horiz-adv-x="909" 
d="M27 809v258h223v72q0 166 57 259t153.5 128t233.5 35q50 0 86.5 -5t102.5 -16l-23 -254q-28 8 -54 12.5t-61 4.5q-71 0 -102 -45t-31 -128v-63h262v-258h-262v-809h-368v809h-217z" />
    <glyph glyph-name="g" unicode="g" horiz-adv-x="1368" 
d="M539 0q-141 0 -249 66t-167.5 187.5t-59.5 283.5q0 172 56.5 297t164.5 191.5t261 66.5q115 0 208.5 -58t153.5 -160h4v193h334v-936q0 -209 -63 -336.5t-203 -188.5t-377 -61q-103 0 -211 18t-196 50l18 291q98 -49 180.5 -68.5t177.5 -19.5q330 0 330 311v55h-4
q-128 -182 -358 -182zM889 557q0 62 -25 119.5t-78.5 95t-134.5 37.5q-64 0 -111 -35t-71.5 -95.5t-24.5 -135.5q0 -81 29.5 -140t77 -89.5t102.5 -30.5q66 0 120 35t85 97.5t31 141.5z" />
    <glyph glyph-name="h" unicode="h" horiz-adv-x="1366" 
d="M713 784q-119 0 -174.5 -84t-55.5 -247v-453h-368v1536h368v-627h4q61 85 150.5 134t206.5 49q132 0 223.5 -55t137.5 -151.5t46 -221.5v-664h-368v518q0 266 -170 266z" />
    <glyph glyph-name="i" unicode="i" horiz-adv-x="684" 
d="M526 1511v-270h-368v270h368zM526 1067v-1067h-368v1067h368z" />
    <glyph glyph-name="j" unicode="j" horiz-adv-x="684" 
d="M526 1511v-270h-368v270h368zM33 -209q37 0 64 14t44 57t17 124v1081h368v-1081q0 -226 -90 -333.5t-282 -107.5q-123 0 -205 19l8 233q40 -6 76 -6z" />
    <glyph glyph-name="k" unicode="k" 
d="M483 528v-528h-368v1536h368v-918h4l308 449h403l-371 -489l402 -578h-447l-295 528h-4z" />
    <glyph glyph-name="l" unicode="l" horiz-adv-x="684" 
d="M526 1536v-1536h-368v1536h368z" />
    <glyph glyph-name="m" unicode="m" horiz-adv-x="2048" 
d="M1417 784q-107 0 -158 -88t-51 -239v-457h-368v571q0 104 -38 158.5t-110 54.5q-102 0 -155.5 -84t-53.5 -247v-453h-368v1067h336v-197h4q49 106 149.5 164t239.5 58q117 0 204.5 -51.5t129.5 -153.5q57 97 155.5 151t222.5 54q141 0 223.5 -49t118 -147.5t35.5 -256.5
v-639h-368v575q0 93 -36 151t-112 58z" />
    <glyph glyph-name="n" unicode="n" horiz-adv-x="1366" 
d="M713 784q-119 0 -174.5 -84t-55.5 -247v-453h-368v1067h336v-197h4q49 106 149.5 164t239.5 58q132 0 223.5 -55t137.5 -151.5t46 -221.5v-664h-368v518q0 266 -170 266z" />
    <glyph glyph-name="o" unicode="o" horiz-adv-x="1368" 
d="M684 -25q-183 0 -324 69t-219 195.5t-78 292.5t77.5 293t218 197t325.5 70q184 0 324.5 -70t218.5 -197t78 -293q0 -165 -78 -291.5t-218.5 -196t-324.5 -69.5zM924 532q0 139 -63 220.5t-179 81.5q-73 0 -126.5 -36.5t-82.5 -104.5t-29 -161q0 -91 29 -158.5t83 -104
t128 -36.5t128 36.5t83 103.5t29 159z" />
    <glyph glyph-name="p" unicode="p" horiz-adv-x="1368" 
d="M446 1067v-193h5q50 103 154.5 160.5t242.5 57.5q137 0 241 -76.5t160 -200.5t56 -262q0 -166 -59 -297.5t-169.5 -206t-259.5 -74.5q-113 0 -202.5 45t-135.5 130h-4v-580h-369v1497h340zM924 545q0 73 -27 133.5t-78 95.5t-121 35q-64 0 -114.5 -35.5t-79.5 -99
t-29 -144.5q0 -75 30 -137.5t81.5 -98.5t113.5 -36q68 0 118.5 35.5t78 100.5t27.5 151z" />
    <glyph glyph-name="q" unicode="q" horiz-adv-x="1368" 
d="M889 150q-46 -85 -135.5 -130t-202.5 -45q-148 0 -258.5 74t-170 205t-59.5 299q0 138 55.5 262t159 200.5t242.5 76.5q140 0 244 -57t154 -161h4v193h340v-1497h-369v580h-4zM893 530q0 79 -27.5 142.5t-79 100t-120.5 36.5q-64 0 -114.5 -33.5t-79 -94t-28.5 -136.5
q0 -86 27.5 -151t78 -100.5t118.5 -35.5q62 0 113.5 36t81.5 98.5t30 137.5z" />
    <glyph glyph-name="r" unicode="r" horiz-adv-x="909" 
d="M451 1067v-197h4q52 113 129 167.5t186 54.5q28 0 61.5 -4t63.5 -9l-18 -307q-23 7 -52 9.5t-71 2.5q-126 0 -198.5 -85t-72.5 -250v-449h-368v1067h336z" />
    <glyph glyph-name="s" unicode="s" horiz-adv-x="1024" 
d="M440 221q89 0 119.5 24t30.5 64q0 34 -21.5 54t-69 36t-161.5 47q-117 32 -176.5 82.5t-77.5 103t-18 113.5q0 111 63 189.5t167 118t226 39.5q216 0 373 -62l-29 -256q-52 32 -131.5 52t-154.5 20q-81 0 -125.5 -19t-44.5 -55q0 -29 21.5 -48.5t66 -34t125.5 -32.5
q135 -30 209 -79t100 -109t26 -137q0 -174 -127.5 -265.5t-371.5 -91.5q-119 0 -210.5 12.5t-174.5 39.5l20 268q82 -35 172.5 -54.5t173.5 -19.5z" />
    <glyph glyph-name="t" unicode="t" horiz-adv-x="909" 
d="M641 -25q-148 0 -237.5 39.5t-131 124.5t-41.5 226v444h-211v258h218v240l362 112v-352h258v-258h-258v-399q0 -103 34.5 -146t113.5 -43q40 0 112 15l12 -240q-91 -13 -140 -17t-91 -4z" />
    <glyph glyph-name="u" unicode="u" horiz-adv-x="1366" 
d="M911 197q-50 -105 -149.5 -163.5t-239.5 -58.5q-133 0 -225 56t-137 152t-45 218v666h368v-518q0 -266 170 -266q230 0 230 329v455h368v-1067h-336v197h-4z" />
    <glyph glyph-name="v" unicode="v" 
d="M416 1067l221 -760h4l223 760h367l-395 -1067h-420l-396 1067h396z" />
    <glyph glyph-name="w" unicode="w" horiz-adv-x="1933" 
d="M977 772l-203 -772h-428l-328 1067h385l172 -768h5l184 768h442l180 -768h5l168 768h356l-326 -1067h-428l-180 772h-4z" />
    <glyph glyph-name="x" unicode="x" 
d="M434 0h-416l363 543l-334 524h436l158 -319l166 319h403l-333 -520l356 -547h-445l-178 332z" />
    <glyph glyph-name="y" unicode="y" 
d="M260 -172q71 0 119.5 38.5t69.5 108.5l-433 1092h398l229 -696h4l219 696h369l-438 -1114q-55 -143 -117.5 -231.5t-149 -132.5t-208.5 -44q-111 0 -230 25l25 280q67 -22 143 -22z" />
    <glyph glyph-name="z" unicode="z" horiz-adv-x="1024" 
d="M541 797h-478v270h900v-295l-488 -502h496v-270h-918v295z" />
    <glyph glyph-name="braceleft" unicode="{" horiz-adv-x="797" 
d="M238 -6v397q0 67 -46 107t-131 41v184q85 1 131 36t46 97v414q0 83 36 146t105 97.5t156 34.5h200v-184h-94q-69 0 -95 -33.5t-26 -93.5v-375q0 -109 -63 -165t-174 -64v-4q108 -5 172.5 -56t64.5 -188v-362q0 -63 28.5 -94t92.5 -31h94v-185h-203q-81 0 -147.5 31.5
t-106.5 95t-40 154.5z" />
    <glyph glyph-name="bar" unicode="|" horiz-adv-x="455" 
d="M356 1536v-2048h-258v2048h258z" />
    <glyph glyph-name="braceright" unicode="}" horiz-adv-x="797" 
d="M154 -102q65 0 93.5 30t28.5 99v374q0 97 58 158t180 70v4q-136 4 -187 71t-51 173v362q0 65 -29.5 95t-88.5 30h-97v184h199q97 0 164.5 -37.5t101 -100t33.5 -138.5v-402q0 -66 45 -106t131 -41v-184q-83 -2 -129.5 -36.5t-46.5 -99.5v-411q0 -90 -40 -153
t-106.5 -94.5t-144.5 -31.5h-207v185h93z" />
    <glyph glyph-name="asciitilde" unicode="~" horiz-adv-x="1229" 
d="M831 324q-55 0 -111.5 17.5t-129.5 51.5q-71 33 -114 47.5t-81 14.5q-44 0 -85.5 -30.5t-94.5 -111.5l-74 224q48 89 111.5 132.5t144.5 43.5q58 0 114.5 -18.5t135.5 -55.5q59 -28 104 -42.5t83 -14.5q44 0 86 30t94 111l73 -223q-90 -176 -256 -176z" />
    <glyph glyph-name="exclamdown" unicode="&#xa1;" horiz-adv-x="909" 
d="M627 1067v-332h-344v332h344zM592 582l53 -944h-381l53 944h275z" />
    <glyph glyph-name="cent" unicode="&#xa2;" horiz-adv-x="1253" 
d="M150 532q0 167 77.5 294t219 196.5t329.5 69.5q58 0 101 -7l73 240h121l-80 -264q21 -6 43 -16t29 -13l-27 -270q-69 39 -121 51l-165 -555q42 -12 86 -12q62 0 121.5 13t105.5 38l8 -274q-68 -23 -147.5 -35.5t-153.5 -12.5q-57 0 -102 7l-82 -269h-123l88 293
q-192 55 -296.5 193.5t-104.5 332.5zM530 526q0 -69 31 -125.5t82 -93.5l154 514q-84 -4 -144 -43.5t-91.5 -105t-31.5 -146.5z" />
    <glyph glyph-name="sterling" unicode="&#xa3;" horiz-adv-x="1253" 
d="M297 270v389h-172v185h176v118q0 224 140.5 358t437.5 134q128 0 276 -37l-16 -270q-72 24 -164 24q-88 0 -152 -19t-104.5 -74.5t-40.5 -159.5v-74h311v-185h-311v-389h461v-270h-1030v270h188z" />
    <glyph glyph-name="currency" unicode="&#xa4;" horiz-adv-x="1253" 
d="M627 207q-75 0 -155.5 23t-131.5 63l-117 -111l-129 127l119 117q-44 42 -69 121t-25 168q0 88 25 166t69 123l-119 116l129 127l117 -110q53 41 132.5 63.5t154.5 22.5t154.5 -22.5t131.5 -63.5l117 110l129 -127l-119 -116q44 -44 69.5 -121t25.5 -168t-26 -169.5
t-69 -119.5l119 -117l-129 -127l-117 111q-48 -39 -130.5 -62.5t-155.5 -23.5zM864 715q0 71 -30.5 128t-85 89.5t-121.5 32.5q-69 0 -123 -33t-84.5 -90t-30.5 -127q0 -71 30.5 -128t85 -89.5t122.5 -32.5q67 0 121 32t85 89t31 129z" />
    <glyph glyph-name="yen" unicode="&#xa5;" horiz-adv-x="1253" 
d="M442 0v279h-303v172h303v88l-18 39h-285v172h199l-338 680h381l246 -578l241 578h385l-338 -680h199v-172h-283l-20 -39v-88h303v-172h-303v-279h-369z" />
    <glyph glyph-name="brokenbar" unicode="&#xa6;" horiz-adv-x="455" 
d="M356 1382v-716h-258v716h258zM356 358v-716h-258v716h258z" />
    <glyph glyph-name="section" unicode="&#xa7;" 
d="M557 -37q103 0 140.5 29t37.5 78q0 42 -49.5 78t-175.5 81q-146 51 -230.5 106.5t-120.5 116.5t-36 136q0 85 43 151t141 127q-73 34 -117.5 100t-44.5 140q0 171 135 259.5t398 88.5q143 0 332 -51l-17 -254q-72 29 -154 44t-161 15q-88 0 -126 -23.5t-38 -70.5
q0 -26 19.5 -47.5t77 -49t167.5 -65.5q156 -53 233 -120.5t97 -125t20 -114.5q0 -80 -43.5 -151.5t-123.5 -127.5q63 -32 103 -102t40 -145q0 -115 -78 -193.5t-202 -117t-261 -38.5q-171 0 -391 60l18 268q81 -37 183.5 -59.5t183.5 -22.5zM821 567q0 34 -23.5 60t-66 49
t-123.5 59q-51 22 -77.5 33.5t-32.5 13.5q-30 -36 -49 -71.5t-19 -73.5q0 -51 45 -92.5t166 -87.5l119 -45q28 32 44.5 73t16.5 82z" />
    <glyph glyph-name="dieresis" unicode="&#xa8;" horiz-adv-x="682" 
d="M256 1493v-295h-295v295h295zM723 1493v-295h-295v295h295z" />
    <glyph glyph-name="copyright" unicode="&#xa9;" horiz-adv-x="1638" 
d="M80 715q0 198 98.5 368t268.5 270.5t372 100.5q203 0 373 -100.5t268.5 -270.5t98.5 -368q0 -200 -99.5 -370t-269.5 -270t-371 -100t-370.5 100t-269 270t-99.5 370zM1325 715q0 142 -65.5 264t-181.5 194t-261 72q-137 0 -253 -70t-183.5 -191.5t-67.5 -268.5
q0 -148 68 -269.5t184 -191.5t254 -70q142 0 257.5 71t182 193t66.5 267zM829 289q-119 0 -209 54.5t-139 151t-49 220.5q0 123 49 219.5t139 150.5t209 54q103 0 179.5 -36t120 -106t45.5 -168h-197q-18 64 -53 88.5t-95 24.5q-75 0 -119 -61.5t-44 -165.5q0 -106 44 -168
t119 -62q63 0 96 25.5t52 87.5h197q-4 -149 -96.5 -229t-248.5 -80z" />
    <glyph glyph-name="ordfeminine" unicode="&#xaa;" horiz-adv-x="813" 
d="M512 891q-66 -113 -209 -113q-120 0 -190 54t-70 151q0 110 91.5 165.5t236.5 55.5q51 0 141 -8q0 57 -37 86t-123 29q-62 0 -119.5 -13.5t-103.5 -37.5v149q63 23 131.5 34t155.5 11q128 0 203.5 -28.5t107 -82t31.5 -133.5v-258q0 -75 12 -157h-242l-12 96h-4zM289 999
q0 -38 24 -57.5t64 -19.5q37 0 68 20t49 54.5t18 76.5h-86q-71 0 -104 -18.5t-33 -55.5z" />
    <glyph glyph-name="guillemotleft" unicode="&#xab;" 
d="M340 969h303l-225 -418l225 -418h-303l-244 418zM827 969h303l-225 -418l225 -418h-303l-243 418z" />
    <glyph glyph-name="logicalnot" unicode="&#xac;" horiz-adv-x="1229" 
d="M96 625v258h1037v-662h-259v404h-778z" />
    <glyph glyph-name="registered" unicode="&#xae;" horiz-adv-x="1638" 
d="M80 715q0 198 99 367.5t268.5 270.5t371.5 101q203 0 373 -100.5t268.5 -270.5t98.5 -368q0 -200 -99.5 -370t-269.5 -270t-371 -100t-370.5 100t-269 270t-99.5 370zM1325 715q0 142 -65.5 264t-181.5 194t-261 72q-137 0 -253 -70t-183.5 -191.5t-67.5 -268.5
q0 -148 68 -269.5t184 -191.5t254 -70q142 0 257.5 71t182 193t66.5 267zM723 651v-336h-197v805h334q157 0 230 -55t73 -180q0 -101 -56.5 -158t-168.5 -63l192 -349h-196l-176 336h-35zM967 895q0 38 -38 54t-98 16h-108v-158h119q125 0 125 88z" />
    <glyph glyph-name="macron" unicode="&#xaf;" horiz-adv-x="682" 
d="M725 1448v-172h-768v172h768z" />
    <glyph glyph-name="degree" unicode="&#xb0;" horiz-adv-x="819" 
d="M109 1153q0 82 40.5 151t109.5 109.5t151 40.5q83 0 152 -41t109 -110.5t40 -149.5q0 -81 -40 -150t-109.5 -110t-151.5 -41t-151 40.5t-109.5 109.5t-40.5 151zM410 1298q-40 0 -73.5 -20t-53 -53t-19.5 -72t20 -72.5t53.5 -53t72.5 -19.5t72.5 19.5t53 53t19.5 72.5
t-19.5 72.5t-53 53t-72.5 19.5z" />
    <glyph glyph-name="plusminus" unicode="&#xb1;" horiz-adv-x="1229" 
d="M485 319v230h-389v258h389v229h258v-229h390v-258h-390v-230h-258zM1133 258v-258h-1037v258h1037z" />
    <glyph glyph-name="twosuperior" unicode="&#xb2;" horiz-adv-x="815" 
d="M459 1466q0 41 -34 65.5t-91 24.5q-58 0 -122 -12.5t-116 -36.5l-10 197q155 49 340 49q93 0 167.5 -30.5t117.5 -87.5t43 -134q0 -90 -58 -173t-170 -181l-96 -86h307v-184h-676v184q200 137 299 239t99 166z" />
    <glyph glyph-name="threesuperior" unicode="&#xb3;" horiz-adv-x="815" 
d="M758 1128q0 -130 -108 -199t-306 -69q-199 0 -287 29l13 213q44 -22 103 -33.5t122 -11.5q85 0 132.5 22t47.5 62q0 78 -164 78q-47 0 -102 -5v183q27 -6 104 -6q76 0 112 25t36 65q0 36 -43 55.5t-113 19.5q-52 0 -107 -11.5t-98 -28.5l-12 200q66 19 133 28t152 9
q179 0 274.5 -61t95.5 -176q0 -72 -46 -120t-128 -69v-4q88 -14 138.5 -65t50.5 -130z" />
    <glyph glyph-name="acute" unicode="&#xb4;" horiz-adv-x="682" 
d="M725 1493l-264 -295h-258l139 295h383z" />
    <glyph glyph-name="uni00B5" unicode="&#xb5;" horiz-adv-x="1366" 
d="M911 197q-50 -106 -149.5 -164t-245.5 -58h-29v-405h-372v1497h368v-518q0 -266 170 -266q230 0 230 327v457h368v-1067h-336v197h-4z" />
    <glyph glyph-name="paragraph" unicode="&#xb6;" horiz-adv-x="1270" 
d="M739 1245v-1503h-245v971q-228 0 -342.5 88.5t-114.5 269.5q0 359 450 359h697v-1688h-246v1503h-199z" />
    <glyph glyph-name="periodcentered" unicode="&#xb7;" horiz-adv-x="627" 
d="M123 557q0 52 25.5 95.5t69.5 69.5t95 26q52 0 95.5 -25.5t69.5 -69.5t26 -96q0 -51 -26 -95t-69.5 -69.5t-95.5 -25.5q-51 0 -94.5 26t-69.5 69.5t-26 94.5z" />
    <glyph glyph-name="cedilla" unicode="&#xb8;" horiz-adv-x="682" 
d="M436 0l-55 -133q46 10 94 10q77 0 120.5 -47t43.5 -129q0 -71 -64.5 -113.5t-205.5 -42.5q-76 0 -136.5 11.5t-119.5 35.5l34 95q95 -43 179 -43q104 0 104 63q0 72 -78 72q-27 0 -57 -12l-80 49l86 184h135z" />
    <glyph glyph-name="onesuperior" unicode="&#xb9;" horiz-adv-x="815" 
d="M172 1368l-111 178l312 191h231v-860h-270v589z" />
    <glyph glyph-name="ordmasculine" unicode="&#xba;" horiz-adv-x="889" 
d="M444 778q-122 0 -214.5 42t-143.5 118.5t-51 177.5q0 102 51.5 178.5t144 118t213.5 41.5t214 -41.5t144.5 -118t51.5 -178.5q0 -101 -51 -177.5t-144 -118.5t-215 -42zM596 1116q0 70 -39 118t-115 48q-67 0 -108 -46t-41 -120q0 -73 40 -119.5t111 -46.5q73 0 112.5 47
t39.5 119z" />
    <glyph glyph-name="guillemotright" unicode="&#xbb;" 
d="M121 969h303l244 -418l-244 -418h-303l225 418zM608 969h303l244 -418l-244 -418h-303l226 418z" />
    <glyph glyph-name="onequarter" unicode="&#xbc;" horiz-adv-x="1876" 
d="M1444 1475l-793 -1520h-223l793 1520h223zM172 1072l-111 178l312 191h231v-861h-270v590zM1032 145v207l367 508h309v-530h123v-185h-123v-145h-246v145h-430zM1210 330h252v352h-4z" />
    <glyph glyph-name="onehalf" unicode="&#xbd;" horiz-adv-x="1876" 
d="M1428 1475l-793 -1520h-223l793 1520h223zM156 1070l-111 178l311 191h232v-861h-271v590zM1536 590q0 40 -34 65t-91 25q-58 0 -122 -12.5t-115 -36.5l-11 196q160 50 340 50q93 0 167.5 -30.5t117.5 -87.5t43 -134q0 -91 -58 -173.5t-169 -181.5l-97 -86h308v-184h-676
v184q200 138 298.5 240t98.5 166z" />
    <glyph glyph-name="threequarters" unicode="&#xbe;" horiz-adv-x="1876" 
d="M1444 1475l-793 -1520h-223l793 1520h223zM758 828q0 -130 -108 -199t-306 -69q-199 0 -287 29l13 213q44 -22 103 -33.5t122 -11.5q82 0 131 22t49 62q0 78 -164 78q-18 0 -42 -1t-37 -2q-16 -2 -23 -2v183q27 -6 104 -6q76 0 112 25t36 65q0 36 -43 55.5t-113 19.5
q-52 0 -107.5 -11.5t-97.5 -29.5l-12 201q66 19 133 28t152 9q179 0 274.5 -61.5t95.5 -176.5q0 -72 -46 -119.5t-128 -68.5v-4q88 -14 138.5 -65t50.5 -130zM1032 145v207l367 508h309v-530h123v-185h-123v-145h-246v145h-430zM1210 330h252v352h-4z" />
    <glyph glyph-name="questiondown" unicode="&#xbf;" horiz-adv-x="1139" 
d="M737 1067v-332h-344v332h344zM578 -387q-139 0 -251 38.5t-178.5 116t-66.5 189.5q0 85 37.5 156.5t122.5 158.5q88 94 127.5 161.5t46.5 148.5h299q0 -81 -33 -154.5t-100 -153.5q-71 -84 -101 -137t-30 -104q0 -48 31.5 -81.5t84 -51t113.5 -17.5q81 0 162 19t155 57
l9 -287q-192 -59 -428 -59z" />
    <glyph glyph-name="Agrave" unicode="&#xc0;" horiz-adv-x="1593" 
d="M516 305l-113 -305h-387l543 1430h467l551 -1430h-418l-106 305h-537zM604 575h359l-170 560h-5zM822 1800l139 -295h-258l-264 295h383z" />
    <glyph glyph-name="Aacute" unicode="&#xc1;" horiz-adv-x="1593" 
d="M516 305l-113 -305h-387l543 1430h467l551 -1430h-418l-106 305h-537zM604 575h359l-170 560h-5zM1153 1800l-264 -295h-258l139 295h383z" />
    <glyph glyph-name="Acircumflex" unicode="&#xc2;" horiz-adv-x="1593" 
d="M516 305l-113 -305h-387l543 1430h467l551 -1430h-418l-106 305h-537zM604 575h359l-170 560h-5zM660 1505h-256l231 295h332l223 -295h-256l-133 160z" />
    <glyph glyph-name="Atilde" unicode="&#xc3;" horiz-adv-x="1593" 
d="M516 305l-113 -305h-387l543 1430h467l551 -1430h-418l-106 305h-537zM604 575h359l-170 560h-5zM936 1511q-36 0 -72.5 9.5t-87.5 27.5q-59 22 -85 29.5t-48 7.5q-43 0 -66 -20.5t-32 -59.5h-147q15 132 85 210.5t175 78.5q36 0 70.5 -9t88.5 -28q64 -24 88.5 -30.5
t45.5 -6.5q88 0 102 80h147q-17 -138 -85 -213.5t-179 -75.5z" />
    <glyph glyph-name="Adieresis" unicode="&#xc4;" horiz-adv-x="1593" 
d="M516 305l-113 -305h-387l543 1430h467l551 -1430h-418l-106 305h-537zM604 575h359l-170 560h-5zM713 1800v-295h-295v295h295zM1180 1800v-295h-295v295h295z" />
    <glyph glyph-name="Aring" unicode="&#xc5;" horiz-adv-x="1593" 
d="M516 305l-113 -305h-387l543 1430h467l551 -1430h-418l-106 305h-537zM604 575h359l-170 560h-5zM570 1725q0 61 31 113.5t84 84t114 31.5q63 0 115.5 -31.5t83 -84.5t30.5 -113q0 -63 -31.5 -116t-84 -83.5t-113.5 -30.5t-113.5 31t-84 84t-31.5 115zM799 1823
q-42 0 -70 -29t-28 -69q0 -42 28.5 -70.5t69.5 -28.5t69.5 28.5t28.5 70.5q0 41 -28.5 69.5t-69.5 28.5z" />
    <glyph glyph-name="AE" unicode="&#xc6;" horiz-adv-x="2048" 
d="M541 305l-150 -305h-399l747 1430h1205v-271h-586v-295h549v-270h-549v-324h610v-270h-991v305h-436zM674 575h303v584h-19z" />
    <glyph glyph-name="Ccedilla" unicode="&#xc7;" horiz-adv-x="1366" 
d="M80 709q0 237 102 404.5t286.5 254t428.5 86.5q104 0 206 -19.5t220 -54.5l-31 -309q-92 51 -182.5 75.5t-187.5 24.5q-136 0 -238 -60.5t-156.5 -166t-54.5 -235.5q0 -135 59 -237t167 -158t251 -56q166 0 357 74l18 -299q-133 -34 -226.5 -46t-219.5 -12l-45 -108
q43 10 96 10q74 0 118 -47t44 -129q0 -79 -71.5 -117.5t-199.5 -38.5q-72 0 -134 11.5t-122 35.5l35 95q94 -43 178 -43q105 0 105 63q0 72 -78 72q-27 0 -57 -12l-80 49l80 172q-209 30 -359 124.5t-229.5 246t-79.5 350.5z" />
    <glyph glyph-name="Egrave" unicode="&#xc8;" 
d="M1130 1430v-271h-626v-295h592v-270h-592v-324h649v-270h-1030v1430h1007zM650 1800l139 -295h-258l-264 295h383z" />
    <glyph glyph-name="Eacute" unicode="&#xc9;" 
d="M1130 1430v-271h-626v-295h592v-270h-592v-324h649v-270h-1030v1430h1007zM981 1800l-264 -295h-258l139 295h383z" />
    <glyph glyph-name="Ecircumflex" unicode="&#xca;" 
d="M1130 1430v-271h-626v-295h592v-270h-592v-324h649v-270h-1030v1430h1007zM488 1505h-256l231 295h332l223 -295h-256l-133 160z" />
    <glyph glyph-name="Edieresis" unicode="&#xcb;" 
d="M1130 1430v-271h-626v-295h592v-270h-592v-324h649v-270h-1030v1430h1007zM541 1800v-295h-295v295h295zM1008 1800v-295h-295v295h295z" />
    <glyph glyph-name="Igrave" unicode="&#xcc;" horiz-adv-x="684" 
d="M532 1430v-1430h-380v1430h380zM367 1800l139 -295h-258l-264 295h383z" />
    <glyph glyph-name="Iacute" unicode="&#xcd;" horiz-adv-x="684" 
d="M532 1430v-1430h-380v1430h380zM701 1800l-264 -295h-258l139 295h383z" />
    <glyph glyph-name="Icircumflex" unicode="&#xce;" horiz-adv-x="684" 
d="M532 1430v-1430h-380v1430h380zM205 1505h-256l231 295h332l223 -295h-256l-133 160z" />
    <glyph glyph-name="Idieresis" unicode="&#xcf;" horiz-adv-x="684" 
d="M532 1430v-1430h-380v1430h380zM258 1800v-295h-295v295h295zM725 1800v-295h-295v295h295z" />
    <glyph glyph-name="Eth" unicode="&#xd0;" horiz-adv-x="1593" 
d="M-4 639v209h137v582h531q285 0 469.5 -76.5t275 -233t90.5 -399.5q0 -355 -212 -538t-630 -183h-524v639h-137zM1106 715q0 214 -118 323t-324 109h-150v-299h342v-209h-342v-356h152q209 0 324.5 109.5t115.5 322.5z" />
    <glyph glyph-name="Ntilde" unicode="&#xd1;" horiz-adv-x="1593" 
d="M477 977l12 -977h-350v1430h486l483 -971h4l-6 971h348v-1430h-473l-500 977h-4zM936 1511q-36 0 -72.5 9.5t-87.5 27.5q-59 22 -85 29.5t-48 7.5q-43 0 -66 -20.5t-32 -59.5h-147q15 132 85 210.5t175 78.5q36 0 70.5 -9t88.5 -28q64 -24 88.5 -30.5t45.5 -6.5
q88 0 102 80h147q-17 -138 -85 -213.5t-179 -75.5z" />
    <glyph glyph-name="Ograve" unicode="&#xd2;" horiz-adv-x="1593" 
d="M80 715q0 234 83.5 399.5t244.5 252.5t389 87t388.5 -87t244 -252.5t83.5 -399.5q0 -233 -84 -399t-245 -253.5t-387 -87.5q-225 0 -386 87.5t-246 254t-85 398.5zM1120 715q0 141 -37.5 243.5t-110 157.5t-175.5 55q-102 0 -175 -53.5t-111 -156t-38 -246.5
q0 -133 36.5 -236t110 -162t179.5 -59q101 0 173.5 57.5t110 161t37.5 238.5zM822 1800l139 -295h-258l-264 295h383z" />
    <glyph glyph-name="Oacute" unicode="&#xd3;" horiz-adv-x="1593" 
d="M80 715q0 234 83.5 399.5t244.5 252.5t389 87t388.5 -87t244 -252.5t83.5 -399.5q0 -233 -84 -399t-245 -253.5t-387 -87.5q-225 0 -386 87.5t-246 254t-85 398.5zM1120 715q0 141 -37.5 243.5t-110 157.5t-175.5 55q-102 0 -175 -53.5t-111 -156t-38 -246.5
q0 -133 36.5 -236t110 -162t179.5 -59q101 0 173.5 57.5t110 161t37.5 238.5zM1153 1800l-264 -295h-258l139 295h383z" />
    <glyph glyph-name="Ocircumflex" unicode="&#xd4;" horiz-adv-x="1593" 
d="M80 715q0 234 83.5 399.5t244.5 252.5t389 87t388.5 -87t244 -252.5t83.5 -399.5q0 -233 -84 -399t-245 -253.5t-387 -87.5q-225 0 -386 87.5t-246 254t-85 398.5zM1120 715q0 141 -37.5 243.5t-110 157.5t-175.5 55q-102 0 -175 -53.5t-111 -156t-38 -246.5
q0 -133 36.5 -236t110 -162t179.5 -59q101 0 173.5 57.5t110 161t37.5 238.5zM660 1505h-256l231 295h332l223 -295h-256l-133 160z" />
    <glyph glyph-name="Otilde" unicode="&#xd5;" horiz-adv-x="1593" 
d="M80 715q0 234 83.5 399.5t244.5 252.5t389 87t388.5 -87t244 -252.5t83.5 -399.5q0 -233 -84 -399t-245 -253.5t-387 -87.5q-225 0 -386 87.5t-246 254t-85 398.5zM1120 715q0 141 -37.5 243.5t-110 157.5t-175.5 55q-102 0 -175 -53.5t-111 -156t-38 -246.5
q0 -133 36.5 -236t110 -162t179.5 -59q101 0 173.5 57.5t110 161t37.5 238.5zM936 1511q-36 0 -72.5 9.5t-87.5 27.5q-59 22 -85 29.5t-48 7.5q-43 0 -66 -20.5t-32 -59.5h-147q15 132 85 210.5t175 78.5q36 0 70.5 -9t88.5 -28q64 -24 88.5 -30.5t45.5 -6.5q88 0 102 80
h147q-17 -138 -85 -213.5t-179 -75.5z" />
    <glyph glyph-name="Odieresis" unicode="&#xd6;" horiz-adv-x="1593" 
d="M80 715q0 234 83.5 399.5t244.5 252.5t389 87t388.5 -87t244 -252.5t83.5 -399.5q0 -233 -84 -399t-245 -253.5t-387 -87.5q-225 0 -386 87.5t-246 254t-85 398.5zM1120 715q0 141 -37.5 243.5t-110 157.5t-175.5 55q-102 0 -175 -53.5t-111 -156t-38 -246.5
q0 -133 36.5 -236t110 -162t179.5 -59q101 0 173.5 57.5t110 161t37.5 238.5zM713 1800v-295h-295v295h295zM1180 1800v-295h-295v295h295z" />
    <glyph glyph-name="multiply" unicode="&#xd7;" horiz-adv-x="1229" 
d="M127 207l311 311l-311 311l176 177l311 -312l312 312l176 -177l-314 -311l314 -311l-176 -176l-312 313l-311 -313z" />
    <glyph glyph-name="Oslash" unicode="&#xd8;" horiz-adv-x="1593" 
d="M80 715q0 234 83 399.5t244 252.5t390 87q132 0 244 -30.5t198 -90.5l172 187l131 -123l-172 -187q143 -192 143 -495q0 -233 -84 -399t-245 -253.5t-387 -87.5q-280 0 -455 131l-180 -194l-131 123l186 198q-137 184 -137 482zM795 1171q-101 0 -173.5 -54.5
t-110.5 -157t-38 -244.5q0 -107 23 -183l512 551q-81 88 -213 88zM797 258q104 0 176.5 58.5t109.5 161.5t37 237q0 112 -24 200l-518 -557q80 -100 219 -100z" />
    <glyph glyph-name="Ugrave" unicode="&#xd9;" horiz-adv-x="1479" 
d="M1366 539q0 -179 -72.5 -305.5t-213 -192.5t-341.5 -66q-202 0 -342.5 67t-212 193.5t-71.5 303.5v891h381v-826q0 -173 60.5 -259.5t184.5 -86.5q246 0 246 342v830h381v-891zM764 1800l139 -295h-258l-264 295h383z" />
    <glyph glyph-name="Uacute" unicode="&#xda;" horiz-adv-x="1479" 
d="M1366 539q0 -179 -72.5 -305.5t-213 -192.5t-341.5 -66q-202 0 -342.5 67t-212 193.5t-71.5 303.5v891h381v-826q0 -173 60.5 -259.5t184.5 -86.5q246 0 246 342v830h381v-891zM1096 1800l-264 -295h-258l139 295h383z" />
    <glyph glyph-name="Ucircumflex" unicode="&#xdb;" horiz-adv-x="1479" 
d="M1366 539q0 -179 -72.5 -305.5t-213 -192.5t-341.5 -66q-202 0 -342.5 67t-212 193.5t-71.5 303.5v891h381v-826q0 -173 60.5 -259.5t184.5 -86.5q246 0 246 342v830h381v-891zM602 1505h-256l231 295h332l223 -295h-256l-133 160z" />
    <glyph glyph-name="Udieresis" unicode="&#xdc;" horiz-adv-x="1479" 
d="M1366 539q0 -179 -72.5 -305.5t-213 -192.5t-341.5 -66q-202 0 -342.5 67t-212 193.5t-71.5 303.5v891h381v-826q0 -173 60.5 -259.5t184.5 -86.5q246 0 246 342v830h381v-891zM655 1800v-295h-295v295h295zM1122 1800v-295h-295v295h295z" />
    <glyph glyph-name="Yacute" unicode="&#xdd;" horiz-adv-x="1479" 
d="M23 1430h438l280 -574l277 574h438l-524 -891v-539h-381v539zM1124 1800l-264 -295h-258l139 295h383z" />
    <glyph glyph-name="Thorn" unicode="&#xde;" 
d="M494 1430v-179h67q224 0 365 -44.5t211.5 -147.5t70.5 -277q0 -229 -147 -344.5t-416 -115.5h-151v-322h-381v1430h381zM827 788q0 92 -57 142.5t-180 50.5h-96v-389h96q237 0 237 196z" />
    <glyph glyph-name="germandbls" unicode="&#xdf;" horiz-adv-x="1366" 
d="M721 258q102 0 149.5 55.5t47.5 155.5q0 88 -49 144.5t-142 56.5q-61 0 -96 -4v262h49q56 0 97 26.5t63 70.5t22 97q0 94 -45.5 143.5t-130.5 49.5q-103 0 -153 -75t-50 -202v-1038h-368v1018q0 261 145.5 402t435.5 141q162 0 282 -46.5t186.5 -141t66.5 -234.5
q0 -135 -61 -217.5t-195 -128.5v-5q157 -24 234 -112.5t77 -243.5q0 -221 -139 -332.5t-387 -111.5q-86 0 -180 12l10 268q68 -10 131 -10z" />
    <glyph glyph-name="agrave" unicode="&#xe0;" 
d="M805 168h-4q-63 -100 -144 -146.5t-194 -46.5q-117 0 -207.5 40.5t-141.5 116t-51 179.5q0 181 143 273t408 92q43 0 90.5 -4t81.5 -10q-2 92 -60.5 138t-182.5 46q-197 0 -340 -80l-6 250q188 76 424 76q166 0 280 -53t171.5 -151.5t57.5 -234.5v-413q0 -128 21 -240
h-338l-4 74q-4 56 -4 94zM786 473q-125 6 -153 6q-107 0 -166 -35.5t-59 -105.5q0 -54 41.5 -85.5t109.5 -31.5q66 0 118 36t80.5 94t28.5 122zM650 1493l139 -295h-258l-264 295h383z" />
    <glyph glyph-name="aacute" unicode="&#xe1;" 
d="M805 168h-4q-63 -100 -144 -146.5t-194 -46.5q-117 0 -207.5 40.5t-141.5 116t-51 179.5q0 181 143 273t408 92q43 0 90.5 -4t81.5 -10q-2 92 -60.5 138t-182.5 46q-197 0 -340 -80l-6 250q188 76 424 76q166 0 280 -53t171.5 -151.5t57.5 -234.5v-413q0 -128 21 -240
h-338l-4 74q-4 56 -4 94zM786 473q-125 6 -153 6q-107 0 -166 -35.5t-59 -105.5q0 -54 41.5 -85.5t109.5 -31.5q66 0 118 36t80.5 94t28.5 122zM1010 1493l-264 -295h-258l139 295h383z" />
    <glyph glyph-name="acircumflex" unicode="&#xe2;" 
d="M805 168h-4q-63 -100 -144 -146.5t-194 -46.5q-117 0 -207.5 40.5t-141.5 116t-51 179.5q0 181 143 273t408 92q43 0 90.5 -4t81.5 -10q-2 92 -60.5 138t-182.5 46q-197 0 -340 -80l-6 250q188 76 424 76q166 0 280 -53t171.5 -151.5t57.5 -234.5v-413q0 -128 21 -240
h-338l-4 74q-4 56 -4 94zM786 473q-125 6 -153 6q-107 0 -166 -35.5t-59 -105.5q0 -54 41.5 -85.5t109.5 -31.5q66 0 118 36t80.5 94t28.5 122zM488 1198h-256l231 295h332l223 -295h-256l-133 160z" />
    <glyph glyph-name="atilde" unicode="&#xe3;" 
d="M805 168h-4q-63 -100 -144 -146.5t-194 -46.5q-117 0 -207.5 40.5t-141.5 116t-51 179.5q0 181 143 273t408 92q43 0 90.5 -4t81.5 -10q-2 92 -60.5 138t-182.5 46q-197 0 -340 -80l-6 250q188 76 424 76q166 0 280 -53t171.5 -151.5t57.5 -234.5v-413q0 -128 21 -240
h-338l-4 74q-4 56 -4 94zM786 473q-125 6 -153 6q-107 0 -166 -35.5t-59 -105.5q0 -54 41.5 -85.5t109.5 -31.5q66 0 118 36t80.5 94t28.5 122zM764 1204q-36 0 -72.5 9.5t-87.5 27.5q-59 22 -85 29.5t-48 7.5q-43 0 -66 -20.5t-32 -59.5h-147q15 132 85 210.5t175 78.5
q36 0 70.5 -9t88.5 -28q64 -24 88.5 -30.5t45.5 -6.5q88 0 102 80h147q-17 -138 -85 -213.5t-179 -75.5z" />
    <glyph glyph-name="adieresis" unicode="&#xe4;" 
d="M805 168h-4q-63 -100 -144 -146.5t-194 -46.5q-117 0 -207.5 40.5t-141.5 116t-51 179.5q0 181 143 273t408 92q43 0 90.5 -4t81.5 -10q-2 92 -60.5 138t-182.5 46q-197 0 -340 -80l-6 250q188 76 424 76q166 0 280 -53t171.5 -151.5t57.5 -234.5v-413q0 -128 21 -240
h-338l-4 74q-4 56 -4 94zM786 473q-125 6 -153 6q-107 0 -166 -35.5t-59 -105.5q0 -54 41.5 -85.5t109.5 -31.5q66 0 118 36t80.5 94t28.5 122zM541 1493v-295h-295v295h295zM1008 1493v-295h-295v295h295z" />
    <glyph glyph-name="aring" unicode="&#xe5;" 
d="M805 168h-4q-63 -100 -144 -146.5t-194 -46.5q-117 0 -207.5 40.5t-141.5 116t-51 179.5q0 181 143 273t408 92q43 0 90.5 -4t81.5 -10q-2 92 -60.5 138t-182.5 46q-197 0 -340 -80l-6 250q188 76 424 76q166 0 280 -53t171.5 -151.5t57.5 -234.5v-413q0 -128 21 -240
h-338l-4 74q-4 56 -4 94zM786 473q-125 6 -153 6q-107 0 -166 -35.5t-59 -105.5q0 -54 41.5 -85.5t109.5 -31.5q66 0 118 36t80.5 94t28.5 122zM398 1389q0 61 31 113.5t84 84t114 31.5q63 0 115.5 -31.5t83 -84.5t30.5 -113q0 -63 -31.5 -116t-84 -83.5t-113.5 -30.5
t-113.5 31t-84 84t-31.5 115zM627 1487q-42 0 -70 -29t-28 -69q0 -42 28.5 -70.5t69.5 -28.5t69.5 28.5t28.5 70.5q0 41 -28.5 69.5t-69.5 28.5z" />
    <glyph glyph-name="ae" unicode="&#xe6;" horiz-adv-x="1933" 
d="M1378 -25q-138 0 -230.5 31.5t-148 83.5t-96.5 125q-68 -122 -176.5 -181t-282.5 -59q-115 0 -205.5 39t-142 115t-51.5 184q0 179 142.5 271t408.5 92q67 0 172 -10q-2 87 -58.5 133.5t-187.5 46.5q-90 0 -177 -19.5t-161 -60.5l-6 252q187 74 414 74q112 0 213.5 -32
t157.5 -99q76 61 170.5 96t205.5 35q166 0 286.5 -66.5t186.5 -202t66 -338.5v-59h-737q15 -107 94 -156t217 -49q174 0 328 82v-260q-90 -35 -188 -51.5t-214 -16.5zM1339 858q-87 0 -141 -58.5t-61 -164.5h409q0 104 -52 163.5t-155 59.5zM389 340q0 -55 42.5 -87
t109.5 -32q66 0 118 37t80.5 96.5t28.5 124.5h-145q-107 0 -170.5 -33t-63.5 -106z" />
    <glyph glyph-name="ccedilla" unicode="&#xe7;" horiz-adv-x="1024" 
d="M63 532q0 169 79 296t220 195.5t322 68.5q170 0 293 -60l-27 -270q-52 32 -105.5 45.5t-117.5 13.5q-83 0 -147 -36.5t-100 -103.5t-36 -155q0 -81 41.5 -145t111 -99.5t151.5 -35.5q62 0 122.5 13.5t106.5 37.5l8 -274q-65 -22 -144.5 -35t-160.5 -13q-14 0 -27 2
l-45 -110q46 10 97 10q74 0 117.5 -46.5t43.5 -129.5q0 -77 -69.5 -116.5t-200.5 -39.5q-76 0 -134.5 11.5t-121.5 35.5l35 95q94 -43 178 -43q104 0 104 63q0 72 -77 72q-29 0 -58 -12l-80 49l82 178q-145 28 -248.5 102.5t-158 186t-54.5 249.5z" />
    <glyph glyph-name="egrave" unicode="&#xe8;" 
d="M684 -25q-182 0 -323 69t-219.5 196t-78.5 295t71 294t200.5 194.5t300.5 68.5q163 0 284 -65.5t188 -201.5t67 -342v-57h-738q15 -107 94.5 -156t219.5 -49q80 0 163 20t162 62v-260q-172 -68 -391 -68zM637 858q-88 0 -143 -58t-62 -165h410q0 106 -53.5 164.5
t-151.5 58.5zM650 1493l139 -295h-258l-264 295h383z" />
    <glyph glyph-name="eacute" unicode="&#xe9;" 
d="M684 -25q-182 0 -323 69t-219.5 196t-78.5 295t71 294t200.5 194.5t300.5 68.5q163 0 284 -65.5t188 -201.5t67 -342v-57h-738q15 -107 94.5 -156t219.5 -49q80 0 163 20t162 62v-260q-172 -68 -391 -68zM637 858q-88 0 -143 -58t-62 -165h410q0 106 -53.5 164.5
t-151.5 58.5zM1010 1493l-264 -295h-258l139 295h383z" />
    <glyph glyph-name="ecircumflex" unicode="&#xea;" 
d="M684 -25q-182 0 -323 69t-219.5 196t-78.5 295t71 294t200.5 194.5t300.5 68.5q163 0 284 -65.5t188 -201.5t67 -342v-57h-738q15 -107 94.5 -156t219.5 -49q80 0 163 20t162 62v-260q-172 -68 -391 -68zM637 858q-88 0 -143 -58t-62 -165h410q0 106 -53.5 164.5
t-151.5 58.5zM488 1198h-256l231 295h332l223 -295h-256l-133 160z" />
    <glyph glyph-name="edieresis" unicode="&#xeb;" 
d="M684 -25q-182 0 -323 69t-219.5 196t-78.5 295t71 294t200.5 194.5t300.5 68.5q163 0 284 -65.5t188 -201.5t67 -342v-57h-738q15 -107 94.5 -156t219.5 -49q80 0 163 20t162 62v-260q-172 -68 -391 -68zM637 858q-88 0 -143 -58t-62 -165h410q0 106 -53.5 164.5
t-151.5 58.5zM541 1493v-295h-295v295h295zM1008 1493v-295h-295v295h295z" />
    <glyph glyph-name="igrave" unicode="&#xec;" horiz-adv-x="684" 
d="M526 1067v-1067h-368v1067h368zM367 1493l139 -295h-258l-264 295h383z" />
    <glyph glyph-name="iacute" unicode="&#xed;" horiz-adv-x="684" 
d="M526 1067v-1067h-368v1067h368zM727 1493l-264 -295h-258l139 295h383z" />
    <glyph glyph-name="icircumflex" unicode="&#xee;" horiz-adv-x="684" 
d="M526 1067v-1067h-368v1067h368zM205 1198h-256l231 295h332l223 -295h-256l-133 160z" />
    <glyph glyph-name="idieresis" unicode="&#xef;" horiz-adv-x="684" 
d="M526 1067v-1067h-368v1067h368zM258 1493v-295h-295v295h295zM725 1493v-295h-295v295h295z" />
    <glyph glyph-name="eth" unicode="&#xf0;" horiz-adv-x="1368" 
d="M584 1219l-295 -136l-123 134l219 100q-77 31 -182 69l213 224q159 -54 317 -135l299 135l127 -131l-246 -111q200 -140 296 -325.5t96 -424.5q0 -200 -75.5 -344.5t-219 -221.5t-342.5 -77q-296 0 -450.5 136.5t-154.5 398.5q0 144 65.5 265t179.5 192t255 71
q122 0 208 -43t120 -123l4 5q-31 94 -105.5 178.5t-205.5 163.5zM924 512q0 75 -27.5 135.5t-83 96.5t-137.5 36q-113 0 -172.5 -74.5t-59.5 -195.5q0 -77 25.5 -140t78 -100t128.5 -37q80 0 136 37t84 100t28 142z" />
    <glyph glyph-name="ntilde" unicode="&#xf1;" horiz-adv-x="1366" 
d="M713 784q-119 0 -174.5 -84t-55.5 -247v-453h-368v1067h336v-197h4q49 106 149.5 164t239.5 58q132 0 223.5 -55t137.5 -151.5t46 -221.5v-664h-368v518q0 266 -170 266zM821 1204q-36 0 -72.5 9.5t-87.5 27.5q-59 22 -85 29.5t-48 7.5q-43 0 -66 -20.5t-32 -59.5h-147
q15 132 85 210.5t175 78.5q36 0 70.5 -9t88.5 -28q64 -24 88.5 -30.5t45.5 -6.5q88 0 102 80h147q-17 -138 -85 -213.5t-179 -75.5z" />
    <glyph glyph-name="ograve" unicode="&#xf2;" horiz-adv-x="1368" 
d="M684 -25q-183 0 -324 69t-219 195.5t-78 292.5t77.5 293t218 197t325.5 70q184 0 324.5 -70t218.5 -197t78 -293q0 -165 -78 -291.5t-218.5 -196t-324.5 -69.5zM924 532q0 139 -63 220.5t-179 81.5q-73 0 -126.5 -36.5t-82.5 -104.5t-29 -161q0 -91 29 -158.5t83 -104
t128 -36.5t128 36.5t83 103.5t29 159zM709 1493l139 -295h-258l-264 295h383z" />
    <glyph glyph-name="oacute" unicode="&#xf3;" horiz-adv-x="1368" 
d="M684 -25q-183 0 -324 69t-219 195.5t-78 292.5t77.5 293t218 197t325.5 70q184 0 324.5 -70t218.5 -197t78 -293q0 -165 -78 -291.5t-218.5 -196t-324.5 -69.5zM924 532q0 139 -63 220.5t-179 81.5q-73 0 -126.5 -36.5t-82.5 -104.5t-29 -161q0 -91 29 -158.5t83 -104
t128 -36.5t128 36.5t83 103.5t29 159zM1069 1493l-264 -295h-258l139 295h383z" />
    <glyph glyph-name="ocircumflex" unicode="&#xf4;" horiz-adv-x="1368" 
d="M684 -25q-183 0 -324 69t-219 195.5t-78 292.5t77.5 293t218 197t325.5 70q184 0 324.5 -70t218.5 -197t78 -293q0 -165 -78 -291.5t-218.5 -196t-324.5 -69.5zM924 532q0 139 -63 220.5t-179 81.5q-73 0 -126.5 -36.5t-82.5 -104.5t-29 -161q0 -91 29 -158.5t83 -104
t128 -36.5t128 36.5t83 103.5t29 159zM547 1198h-256l231 295h332l223 -295h-256l-133 160z" />
    <glyph glyph-name="otilde" unicode="&#xf5;" horiz-adv-x="1368" 
d="M684 -25q-183 0 -324 69t-219 195.5t-78 292.5t77.5 293t218 197t325.5 70q184 0 324.5 -70t218.5 -197t78 -293q0 -165 -78 -291.5t-218.5 -196t-324.5 -69.5zM924 532q0 139 -63 220.5t-179 81.5q-73 0 -126.5 -36.5t-82.5 -104.5t-29 -161q0 -91 29 -158.5t83 -104
t128 -36.5t128 36.5t83 103.5t29 159zM823 1204q-36 0 -72.5 9.5t-87.5 27.5q-59 22 -85 29.5t-48 7.5q-43 0 -66 -20.5t-32 -59.5h-147q15 132 85 210.5t175 78.5q36 0 70.5 -9t88.5 -28q64 -24 88.5 -30.5t45.5 -6.5q88 0 102 80h147q-17 -138 -85 -213.5t-179 -75.5z" />
    <glyph glyph-name="odieresis" unicode="&#xf6;" horiz-adv-x="1368" 
d="M684 -25q-183 0 -324 69t-219 195.5t-78 292.5t77.5 293t218 197t325.5 70q184 0 324.5 -70t218.5 -197t78 -293q0 -165 -78 -291.5t-218.5 -196t-324.5 -69.5zM924 532q0 139 -63 220.5t-179 81.5q-73 0 -126.5 -36.5t-82.5 -104.5t-29 -161q0 -91 29 -158.5t83 -104
t128 -36.5t128 36.5t83 103.5t29 159zM600 1493v-295h-295v295h295zM1067 1493v-295h-295v295h295z" />
    <glyph glyph-name="divide" unicode="&#xf7;" horiz-adv-x="1229" 
d="M422 944q0 52 25.5 95.5t69.5 69.5t95 26q52 0 95.5 -26t69.5 -69.5t26 -95.5q0 -51 -26 -95t-69.5 -69.5t-95.5 -25.5q-51 0 -94.5 26t-69.5 69.5t-26 94.5zM1133 647v-258h-1037v258h1037zM422 92q0 52 25.5 95.5t69.5 69.5t95 26q52 0 95.5 -26t69.5 -69.5t26 -95.5
q0 -51 -26 -95t-69.5 -69.5t-95.5 -25.5q-51 0 -94.5 26t-69.5 69.5t-26 94.5z" />
    <glyph glyph-name="oslash" unicode="&#xf8;" horiz-adv-x="1368" 
d="M63 532q0 167 77.5 294t218.5 196.5t325 69.5q197 0 342 -80l154 159l125 -118l-140 -146q140 -150 140 -375q0 -166 -78 -292.5t-219 -195.5t-324 -69q-192 0 -340 80l-154 -159l-124 118l139 144q-68 71 -105 166t-37 208zM682 834q-73 0 -126.5 -36.5t-82.5 -104.5
t-29 -161q0 -55 13 -112l360 375q-57 39 -135 39zM684 233q116 0 178 82.5t62 216.5q0 60 -13 111l-358 -371q57 -39 131 -39z" />
    <glyph glyph-name="ugrave" unicode="&#xf9;" horiz-adv-x="1366" 
d="M911 197q-50 -105 -149.5 -163.5t-239.5 -58.5q-133 0 -225 56t-137 152t-45 218v666h368v-518q0 -266 170 -266q230 0 230 329v455h368v-1067h-336v197h-4zM707 1493l139 -295h-258l-264 295h383z" />
    <glyph glyph-name="uacute" unicode="&#xfa;" horiz-adv-x="1366" 
d="M911 197q-50 -105 -149.5 -163.5t-239.5 -58.5q-133 0 -225 56t-137 152t-45 218v666h368v-518q0 -266 170 -266q230 0 230 329v455h368v-1067h-336v197h-4zM1067 1493l-264 -295h-258l139 295h383z" />
    <glyph glyph-name="ucircumflex" unicode="&#xfb;" horiz-adv-x="1366" 
d="M911 197q-50 -105 -149.5 -163.5t-239.5 -58.5q-133 0 -225 56t-137 152t-45 218v666h368v-518q0 -266 170 -266q230 0 230 329v455h368v-1067h-336v197h-4zM545 1198h-256l231 295h332l223 -295h-256l-133 160z" />
    <glyph glyph-name="udieresis" unicode="&#xfc;" horiz-adv-x="1366" 
d="M911 197q-50 -105 -149.5 -163.5t-239.5 -58.5q-133 0 -225 56t-137 152t-45 218v666h368v-518q0 -266 170 -266q230 0 230 329v455h368v-1067h-336v197h-4zM598 1493v-295h-295v295h295zM1065 1493v-295h-295v295h295z" />
    <glyph glyph-name="yacute" unicode="&#xfd;" 
d="M260 -172q71 0 119.5 38.5t69.5 108.5l-433 1092h398l229 -696h4l219 696h369l-438 -1114q-55 -143 -117.5 -231.5t-149 -132.5t-208.5 -44q-111 0 -230 25l25 280q67 -22 143 -22zM1010 1493l-264 -295h-258l139 295h383z" />
    <glyph glyph-name="thorn" unicode="&#xfe;" horiz-adv-x="1368" 
d="M475 1536v-606h6q70 87 160.5 124.5t206.5 37.5q138 0 242 -77t159.5 -201t55.5 -261q0 -166 -59 -297.5t-169.5 -206t-259.5 -74.5q-117 0 -204.5 46t-133.5 129h-4v-580h-369v1966h369zM924 545q0 71 -26 131.5t-77.5 96.5t-122.5 36q-64 0 -114.5 -35.5t-79.5 -99
t-29 -144.5q0 -75 30 -137t81.5 -98.5t113.5 -36.5q68 0 118.5 35.5t78 100.5t27.5 151z" />
    <glyph glyph-name="ydieresis" unicode="&#xff;" 
d="M260 -172q71 0 119.5 38.5t69.5 108.5l-433 1092h398l229 -696h4l219 696h369l-438 -1114q-55 -143 -117.5 -231.5t-149 -132.5t-208.5 -44q-111 0 -230 25l25 280q67 -22 143 -22zM541 1493v-295h-295v295h295zM1008 1493v-295h-295v295h295z" />
    <glyph glyph-name="dotlessi" unicode="&#x131;" horiz-adv-x="684" 
d="M526 1067v-1067h-368v1067h368z" />
    <glyph glyph-name="Lslash" unicode="&#x141;" horiz-adv-x="1139" 
d="M0 348v223l133 78v781h381v-556l375 222v-224l-375 -221v-368h590v-283h-971v426z" />
    <glyph glyph-name="lslash" unicode="&#x142;" horiz-adv-x="684" 
d="M0 471v205l158 94v766h368v-549l158 92v-205l-158 -92v-782h-368v565z" />
    <glyph glyph-name="OE" unicode="&#x152;" horiz-adv-x="2048" 
d="M1141 0q-41 0 -192 -6t-191 -6q-227 0 -389 87.5t-247 251t-85 388.5q0 227 83 390t245.5 250t396.5 87q49 0 262 -6t274 -6h691v-271h-594v-295h555v-270h-549v-324h610v-270h-870zM1008 1151q-42 0 -127 4t-125 4q-164 0 -245 -106t-81 -336q0 -126 42 -227.5
t123.5 -160.5t195.5 -59q25 0 109 4.5t108 4.5v872z" />
    <glyph glyph-name="oe" unicode="&#x153;" horiz-adv-x="2048" 
d="M1503 -25q-165 0 -270 43t-172 129q-65 -86 -167 -129t-269 -43q-172 0 -301 67.5t-199 193.5t-70 296q0 174 74 300.5t206 193t302 66.5q155 0 252.5 -39t167.5 -123q68 77 169.5 119.5t227.5 42.5q164 0 284.5 -66t187.5 -201.5t67 -339.5v-59h-738q15 -107 94.5 -156
t219.5 -49q80 0 163 20t162 62v-260q-171 -68 -391 -68zM1454 858q-88 0 -141.5 -58.5t-61.5 -164.5h410q0 103 -52 163t-155 60zM883 532q0 83 -25 154.5t-76 115.5t-125 44q-68 0 -118 -42.5t-76.5 -114t-26.5 -157.5q0 -82 25.5 -153t76 -114.5t121.5 -43.5t121.5 42.5
t76.5 113.5t26 155z" />
    <glyph glyph-name="Scaron" unicode="&#x160;" 
d="M528 258q123 0 180.5 34.5t57.5 104.5q0 48 -27.5 81t-80 56.5t-142.5 49.5q-140 39 -230.5 87t-143 131t-52.5 214q0 141 75.5 239.5t216 148.5t333.5 50q100 0 197 -14t169 -39l-24 -295q-143 65 -318 65q-127 0 -191.5 -31t-64.5 -102q0 -46 35 -76t88 -48.5
t158 -47.5q142 -38 228.5 -94t126.5 -136t40 -190q0 -232 -161.5 -351.5t-467.5 -119.5q-102 0 -214.5 15.5t-211.5 46.5l33 315q82 -44 181.5 -69t209.5 -25zM461 1800l162 -160l170 160h227l-231 -295h-332l-223 295h227z" />
    <glyph glyph-name="scaron" unicode="&#x161;" horiz-adv-x="1024" 
d="M440 221q89 0 119.5 24t30.5 64q0 34 -21.5 54t-69 36t-161.5 47q-117 32 -176.5 82.5t-77.5 103t-18 113.5q0 111 63 189.5t167 118t226 39.5q216 0 373 -62l-29 -256q-52 32 -131.5 52t-154.5 20q-81 0 -125.5 -19t-44.5 -55q0 -29 21.5 -48.5t66 -34t125.5 -32.5
q135 -30 209 -79t100 -109t26 -137q0 -174 -127.5 -265.5t-371.5 -91.5q-119 0 -210.5 12.5t-174.5 39.5l20 268q82 -35 172.5 -54.5t173.5 -19.5zM348 1493l162 -160l170 160h227l-231 -295h-332l-223 295h227z" />
    <glyph glyph-name="Ydieresis" unicode="&#x178;" horiz-adv-x="1479" 
d="M23 1430h438l280 -574l277 574h438l-524 -891v-539h-381v539zM655 1800v-295h-295v295h295zM1122 1800v-295h-295v295h295z" />
    <glyph glyph-name="Zcaron" unicode="&#x17d;" 
d="M733 1147h-661v283h1095v-304l-700 -843h704v-283h-1118v303zM461 1800l162 -160l170 160h227l-231 -295h-332l-223 295h227z" />
    <glyph glyph-name="zcaron" unicode="&#x17e;" horiz-adv-x="1024" 
d="M541 797h-478v270h900v-295l-488 -502h496v-270h-918v295zM348 1493l162 -160l170 160h227l-231 -295h-332l-223 295h227z" />
    <glyph glyph-name="florin" unicode="&#x192;" horiz-adv-x="1253" 
d="M240 -455q-129 0 -240 54l43 245q16 -16 45.5 -28.5t61.5 -12.5q46 0 71.5 20t35 45t17.5 62l152 713h-215v221h262l45 213q37 187 128.5 282t264.5 95q71 0 134 -11.5t126 -41.5l-43 -258q-22 24 -53 38.5t-65 14.5q-49 0 -77 -35t-44 -108l-41 -189h203v-221h-254
l-152 -709q-36 -153 -91.5 -237.5t-131 -118t-182.5 -33.5z" />
    <glyph glyph-name="circumflex" unicode="&#x2c6;" horiz-adv-x="682" 
d="M203 1198h-256l231 295h332l223 -295h-256l-133 160z" />
    <glyph glyph-name="caron" unicode="&#x2c7;" horiz-adv-x="682" 
d="M176 1493l162 -160l170 160h227l-231 -295h-332l-223 295h227z" />
    <glyph glyph-name="breve" unicode="&#x2d8;" horiz-adv-x="682" 
d="M342 1171q-172 0 -271 82.5t-116 239.5h156q17 -72 76 -111t155 -39q94 0 153.5 37.5t77.5 112.5h156q-16 -158 -117 -240t-270 -82z" />
    <glyph glyph-name="dotaccent" unicode="&#x2d9;" horiz-adv-x="682" 
d="M489 1493v-295h-294v295h294z" />
    <glyph glyph-name="ring" unicode="&#x2da;" horiz-adv-x="682" 
d="M113 1389q0 61 31 113.5t84 84t114 31.5q63 0 115.5 -31.5t83 -84.5t30.5 -113q0 -63 -31.5 -116t-84 -83.5t-113.5 -30.5t-113.5 31t-84 84t-31.5 115zM342 1487q-42 0 -70 -29t-28 -69q0 -42 28.5 -70.5t69.5 -28.5t69.5 28.5t28.5 70.5q0 41 -28.5 69.5t-69.5 28.5z
" />
    <glyph glyph-name="ogonek" unicode="&#x2db;" horiz-adv-x="682" 
d="M299 -455q-97 0 -149 46.5t-52 134.5q0 74 58.5 139.5t185.5 134.5h141q-94 -71 -135 -128t-41 -108q0 -36 26 -59.5t62 -23.5q34 0 69 16.5t58 40.5l78 -35q-54 -84 -122 -121t-179 -37z" />
    <glyph glyph-name="tilde" unicode="&#x2dc;" horiz-adv-x="682" 
d="M479 1204q-36 0 -72.5 9.5t-87.5 27.5q-59 22 -85 29.5t-48 7.5q-43 0 -66 -20.5t-32 -59.5h-147q15 132 85 210.5t175 78.5q36 0 70.5 -9t88.5 -28q64 -24 88.5 -30.5t45.5 -6.5q88 0 102 80h147q-17 -138 -85 -213.5t-179 -75.5z" />
    <glyph glyph-name="hungarumlaut" unicode="&#x2dd;" horiz-adv-x="682" 
d="M471 1493l-264 -295h-258l139 295h383zM979 1493l-264 -295h-258l139 295h383z" />
    <glyph glyph-name="pi" unicode="&#x3c0;" horiz-adv-x="1430" 
d="M1190 -25q-138 0 -221 40t-120.5 123.5t-37.5 217.5v453h-229v-809h-369v809h-186v258h1335v-258h-182v-453q0 -129 106 -129q25 0 41.5 4.5t50.5 20.5l11 -244q-47 -14 -100 -23.5t-99 -9.5z" />
    <glyph glyph-name="uni060C" unicode="&#x60c;" horiz-adv-x="768" 
d="M600 555l-137 -555h-344l200 555h281z" />
    <glyph glyph-name="uni0615" unicode="&#x615;" horiz-adv-x="0" 
d="M-27 1333v551h169v-297q85 52 175 52q112 0 173.5 -69t61.5 -190v-187h-684v140h105zM276 1500q-53 0 -108.5 -45.5t-88.5 -121.5h306v42q0 75 -30 100t-79 25z" />
    <glyph glyph-name="uni061B" unicode="&#x61b;" horiz-adv-x="744" 
d="M667 1099l-137 -555h-344l200 555h281zM544 332v-332h-344v332h344z" />
    <glyph glyph-name="uni061F" unicode="&#x61f;" horiz-adv-x="1020" 
d="M218 752q-79 82 -116.5 152.5t-37.5 150.5q0 110 64 183.5t170.5 108.5t236.5 35q223 0 407 -56l-8 -273q-140 72 -304 72q-47 0 -96.5 -14t-84.5 -45.5t-35 -80.5q0 -51 28.5 -102t96.5 -131q64 -74 95.5 -145.5t30.5 -145.5h-284q-5 74 -44 142t-119 149zM687 316v-316
h-327v316h327z" />
    <glyph glyph-name="uni0640" unicode="&#x640;" horiz-adv-x="381" 
d="M-69 115v75q0 38 5.5 58t19.5 28.5t42 8.5h383q28 0 42 -8.5t19.5 -28.5t5.5 -58v-75q0 -45 -4.5 -69t-18 -35t-40.5 -11h-391q-27 0 -40.5 11t-18 35t-4.5 69z" />
    <glyph glyph-name="uni0647" unicode="&#x647;" horiz-adv-x="1073" 
d="M0 405q0 171 78 294.5t190.5 184t218.5 60.5q131 0 239.5 -67t172.5 -189.5t64 -281.5q0 -87 -46 -181t-150 -159.5t-267 -65.5h-39q-139 0 -243.5 52t-161 144t-56.5 209zM626 438q0 68 -19 119t-53.5 78.5t-78.5 27.5q-41 0 -75.5 -27.5t-55 -79t-20.5 -118.5
q0 -153 156 -153q71 0 108.5 39.5t37.5 113.5z" />
    <glyph glyph-name="uni064B" unicode="&#x64b;" horiz-adv-x="0" 
d="M281 2063v-145h-568v145h568zM281 1838v-145h-568v145h568z" />
    <glyph glyph-name="uni064C" unicode="&#x64c;" horiz-adv-x="0" 
d="M-244 2003q120 -167 222 -167q24 0 45 5q-34 36 -50.5 73.5t-16.5 79.5q0 52 25 96.5t67.5 70t91.5 25.5q82 0 129.5 -48t47.5 -136t-56 -155.5t-136.5 -104.5t-149.5 -37q-72 0 -127 28.5t-99 84.5l-101 -97l-82 90zM192 1997q0 28 -15.5 44.5t-37.5 16.5
q-24 0 -40.5 -17t-16.5 -44q0 -22 12 -45.5t44 -55.5q54 47 54 101z" />
    <glyph glyph-name="uni064D" unicode="&#x64d;" horiz-adv-x="0" 
d="M281 -353v-145h-568v145h568zM281 -577v-145h-568v145h568z" />
    <glyph glyph-name="uni064E" unicode="&#x64e;" horiz-adv-x="0" 
d="M281 1838v-145h-568v145h568z" />
    <glyph glyph-name="uni064F" unicode="&#x64f;" horiz-adv-x="0" 
d="M-13 1836q25 0 53 6q-66 72 -66 152q0 58 27 102t69.5 67t87.5 23q82 0 129.5 -48t47.5 -132q0 -87 -53.5 -156t-137.5 -107t-171 -38q-54 0 -123.5 12t-137.5 35l30 128q72 -23 128.5 -33.5t116.5 -10.5zM210 1997q0 28 -15.5 44.5t-37.5 16.5q-24 0 -40.5 -17
t-16.5 -44q0 -23 12.5 -46t43.5 -54q54 44 54 100z" />
    <glyph glyph-name="uni0650" unicode="&#x650;" horiz-adv-x="0" 
d="M281 -353v-145h-568v145h568z" />
    <glyph glyph-name="uni0651" unicode="&#x651;" horiz-adv-x="0" 
d="M350 1910q0 -61 -26.5 -110.5t-74.5 -78t-110 -28.5q-38 0 -75 17t-64 44q-28 -28 -65.5 -44.5t-77.5 -16.5q-61 0 -109 26.5t-74.5 75.5t-26.5 113v203h141v-209q0 -31 19.5 -49.5t52.5 -18.5q30 0 51 21.5t21 49.5v179h134v-179q0 -28 21 -49.5t51 -21.5
q33 0 52.5 18.5t19.5 51.5v208h140v-202z" />
    <glyph glyph-name="uni0652" unicode="&#x652;" horiz-adv-x="0" 
d="M0 1702q-64 0 -118.5 32t-87 87t-32.5 122q0 66 31.5 121t86 87t120.5 32q64 0 119.5 -32t88 -87t32.5 -121q0 -63 -32 -118.5t-87 -89t-121 -33.5zM-113 1942q0 -47 33 -79.5t80 -32.5t79.5 32.5t32.5 79.5q0 46 -32.5 78.5t-80.5 32.5q-45 0 -78.5 -32t-33.5 -79z" />
    <glyph glyph-name="uni0653" unicode="&#x653;" horiz-adv-x="0" 
d="M354 1641q-36 -33 -76.5 -44.5t-103.5 -11.5q-43 0 -92.5 15t-127.5 54q-132 69 -194 69q-38 0 -77.5 -18t-71.5 -54l-109 103q56 74 124 114t129 40q37 0 89 -17t133 -54q82 -37 129.5 -53.5t78.5 -16.5q54 0 94 27t62 74l133 -74q-54 -95 -120 -153z" />
    <glyph glyph-name="uni0654" unicode="&#x654;" horiz-adv-x="0" 
d="M-137 1852q-23 42 -23 75q0 60 31.5 103.5t83 65t111.5 21.5q34 0 64.5 -3t81.5 -10l-15 -157q-42 14 -93 14q-36 0 -57 -13t-21 -34q0 -29 31 -45.5t80 -16.5h83v-159h-424v159h67z" />
    <glyph glyph-name="uni0655" unicode="&#x655;" horiz-adv-x="0" 
d="M-137 -442q-23 41 -23 74q0 60 31.5 103.5t82.5 65t110 21.5q36 0 66.5 -3t81.5 -10l-15 -156q-37 13 -93 13q-36 0 -57 -13t-21 -34q0 -27 29.5 -44t77.5 -17h87v-160h-424v160h67z" />
    <glyph glyph-name="uni0656" unicode="&#x656;" horiz-adv-x="0" 
d="M72 -389v-475h-152v475h152z" />
    <glyph glyph-name="uni0658" unicode="&#x658;" horiz-adv-x="0" 
d="M226 1837q0 -63 -27.5 -116t-78.5 -84t-120 -31q-75 0 -127 31t-77.5 81t-25.5 105q0 62 32.5 123.5t94.5 110.5l76 -55q-38 -38 -57 -70.5t-19 -65.5q0 -43 30 -72.5t77 -29.5t74 27.5t27 70.5q0 31 -13 60.5t-39 65.5l74 56q47 -43 73 -99t26 -108z" />
    <glyph glyph-name="uni0660" unicode="&#x660;" horiz-adv-x="1207" 
d="M830 505l-232 -231l-221 221l232 232z" />
    <glyph glyph-name="uni0661" unicode="&#x661;" horiz-adv-x="1207" 
d="M787 1315v-1315h-370v1315h370z" />
    <glyph glyph-name="uni0662" unicode="&#x662;" horiz-adv-x="1207" 
d="M1071 1314v-303h-480l148 -1011h-357l-203 1314h892z" />
    <glyph glyph-name="uni0663" unicode="&#x663;" horiz-adv-x="1207" 
d="M393 1314l33 -305q63 -2 79 71q18 76 17 235h286q0 -120 -17 -197t-47 -109q76 0 119 78.5t47 227.5h272q-4 -254 -101 -383t-288 -129q-96 0 -176 32q-75 -32 -156 -32l118 -803h-361l-192 1314h367z" />
    <glyph glyph-name="uni0664" unicode="&#x664;" horiz-adv-x="1207" 
d="M506 943q0 -48 126 -122q127 -73 127 -120q0 -38 -127 -159q-126 -121 -126 -186q0 -40 40.5 -59t112.5 -19q64 0 145 17t192 55q-4 -73 -11 -149q-6 -62 -12 -160q-79 -31 -188.5 -51.5t-197.5 -20.5q-116 0 -216 29t-162 89t-62 148q0 79 45 155q51 83 200 253
q-117 74 -172 134q-56 62 -56 137q0 86 83 196q83 109 227.5 190t328.5 124v-308q-143 -40 -220 -84t-77 -89z" />
    <glyph glyph-name="uni0665" unicode="&#x665;" horiz-adv-x="1207" 
d="M569 -36q-174 0 -287 63.5t-165 172.5t-52 250q0 153 70.5 300.5t196.5 246.5q121 94 246 94q133 0 249 -93q119 -95 184 -249t65 -320q0 -118 -56.5 -224.5t-171.5 -173.5t-279 -67zM726 467q0 80 -19.5 149t-56 111t-86.5 42q-45 0 -79.5 -42.5t-53.5 -110.5t-19 -143
q0 -204 166 -204q69 0 108.5 52.5t39.5 145.5z" />
    <glyph glyph-name="uni0666" unicode="&#x666;" horiz-adv-x="1207" 
d="M30 1014v303h822l188 -1317h-356l-158 1014h-496z" />
    <glyph glyph-name="uni0667" unicode="&#x667;" horiz-adv-x="1207" 
d="M399 1316l215 -831h10l202 831h370l-447 -1316h-255l-482 1316h387z" />
    <glyph glyph-name="uni0668" unicode="&#x668;" horiz-adv-x="1207" 
d="M584 831l-202 -831h-370l447 1316h255l482 -1316h-387l-215 831h-10z" />
    <glyph glyph-name="uni0669" unicode="&#x669;" horiz-adv-x="1207" 
d="M552 519q-136 0 -246 52t-173 146t-63 214q0 129 63.5 233t172 163t238.5 59q200 0 310.5 -104.5t136.5 -315.5l120 -966h-360l-72 519h-127zM637 951q-20 149 -130 149q-47 0 -80.5 -36t-33.5 -97q0 -76 57 -119t159 -43h47z" />
    <glyph glyph-name="uni066A" unicode="&#x66a;" horiz-adv-x="1177" 
d="M1107 1175l-798 -1231l-257 141l807 1239zM495 1084l-231 -231l-231 231l231 231zM1118 206l-231 -231l-231 231l231 231z" />
    <glyph glyph-name="uni066B" unicode="&#x66b;" horiz-adv-x="632" 
d="M485 332l-200 -555h-281l137 555h344z" />
    <glyph glyph-name="uni066C" unicode="&#x66c;" horiz-adv-x="632" 
d="M485 934l-200 -555h-281l137 555h344z" />
    <glyph glyph-name="uni066D" unicode="&#x66d;" horiz-adv-x="1145" 
d="M313 834l-65 50l128 297l-281 168l21 89l336 -45l72 322h78l68 -322l336 45l22 -90l-290 -167l133 -297l-63 -50l-245 220z" />
    <glyph glyph-name="uni0670" unicode="&#x670;" horiz-adv-x="0" 
d="M72 2174v-475h-152v475h152z" />
    <glyph glyph-name="uni06C0" unicode="&#x6c0;" horiz-adv-x="1073" 
d="M0 405q0 171 78 294.5t190.5 184t218.5 60.5q131 0 239.5 -67t172.5 -189.5t64 -281.5q0 -87 -46 -181t-150 -159.5t-267 -65.5h-39q-139 0 -243.5 52t-161 144t-56.5 209zM626 438q0 68 -19 119t-53.5 78.5t-78.5 27.5q-41 0 -75.5 -27.5t-55 -79t-20.5 -118.5
q0 -153 156 -153q71 0 108.5 39.5t37.5 113.5zM239 1483q-30 58 -30 104q0 85 44.5 146t118 93t159.5 32q46 0 84.5 -3.5t126.5 -16.5l-20 -227q-63 21 -136 21q-49 0 -78 -18.5t-29 -45.5q0 -40 41.5 -62.5t108.5 -22.5h126v-232h-609v232h93z" />
    <glyph glyph-name="uni06C2" unicode="&#x6c2;" horiz-adv-x="1073" 
d="M0 405q0 171 78 294.5t190.5 184t218.5 60.5q131 0 239.5 -67t172.5 -189.5t64 -281.5q0 -87 -46 -181t-150 -159.5t-267 -65.5h-39q-139 0 -243.5 52t-161 144t-56.5 209zM626 438q0 68 -19 119t-53.5 78.5t-78.5 27.5q-41 0 -75.5 -27.5t-55 -79t-20.5 -118.5
q0 -153 156 -153q71 0 108.5 39.5t37.5 113.5zM251 1483q-30 58 -30 104q0 85 44.5 146t118 93t159.5 32q46 0 84.5 -3.5t126.5 -16.5l-20 -227q-63 21 -136 21q-49 0 -78 -18.5t-29 -45.5q0 -40 41.5 -62.5t108.5 -22.5h126v-232h-609v232h93z" />
    <glyph glyph-name="uni06C3" unicode="&#x6c3;" horiz-adv-x="1073" 
d="M0 405q0 171 78 294.5t190.5 184t218.5 60.5q131 0 239.5 -67t172.5 -189.5t64 -281.5q0 -87 -46 -181t-150 -159.5t-267 -65.5h-39q-139 0 -243.5 52t-161 144t-56.5 209zM626 438q0 68 -19 119t-53.5 78.5t-78.5 27.5q-41 0 -75.5 -27.5t-55 -79t-20.5 -118.5
q0 -153 156 -153q71 0 108.5 39.5t37.5 113.5zM427 1327q0 -44 -22 -83.5t-60.5 -63.5t-86.5 -24q-46 0 -85 23t-62 62.5t-23 85.5q0 45 22.5 85t62 63.5t85.5 23.5t85 -23.5t61.5 -63t22.5 -85.5zM837 1327q0 -44 -22 -83.5t-60.5 -63.5t-86.5 -24q-46 0 -85 23t-62 62.5
t-23 85.5q0 45 22.5 85t62 63.5t85.5 23.5t85 -23.5t61.5 -63t22.5 -85.5z" />
    <glyph glyph-name="uni06D4" unicode="&#x6d4;" horiz-adv-x="748" 
d="M23 106l79 264q49 -32 132 -51t155 -19h271v-300h-260q-127 0 -222 29t-155 77z" />
    <glyph glyph-name="uni06D5" unicode="&#x6d5;" horiz-adv-x="1073" 
d="M0 405q0 171 78 294.5t190.5 184t218.5 60.5q131 0 239.5 -67t172.5 -189.5t64 -281.5q0 -87 -46 -181t-150 -159.5t-267 -65.5h-39q-139 0 -243.5 52t-161 144t-56.5 209zM626 438q0 68 -19 119t-53.5 78.5t-78.5 27.5q-41 0 -75.5 -27.5t-55 -79t-20.5 -118.5
q0 -153 156 -153q71 0 108.5 39.5t37.5 113.5z" />
    <glyph glyph-name="uni06F0" unicode="&#x6f0;" horiz-adv-x="1207" 
d="M835 505l-232 -231l-221 221l232 232z" />
    <glyph glyph-name="uni06F1" unicode="&#x6f1;" horiz-adv-x="1207" 
d="M787 1315v-1315h-370v1315h370z" />
    <glyph glyph-name="uni06F2" unicode="&#x6f2;" horiz-adv-x="1207" 
d="M1071 1314v-303h-480l148 -1011h-357l-203 1314h892z" />
    <glyph glyph-name="uni06F3" unicode="&#x6f3;" horiz-adv-x="1207" 
d="M393 1314l33 -305q63 -2 79 71q18 76 17 235h286q0 -120 -17 -197t-47 -109q76 0 119 78.5t47 227.5h272q-4 -254 -101 -383t-288 -129q-96 0 -176 32q-75 -32 -156 -32l118 -803h-361l-192 1314h367z" />
    <glyph glyph-name="uni06F4" unicode="&#x6f4;" horiz-adv-x="1207" 
d="M367 1314l35 -327q17 -6 51.5 -14t68.5 -14q-59 102 -59 210q0 71 35.5 130.5t101.5 95t154 35.5q63 0 123 -18l-20 -191q-32 7 -68 7q-65 0 -100.5 -30t-35.5 -84q0 -37 15.5 -77.5t43.5 -77.5q125 20 189 99.5t64 209.5q0 15 -2 47h272q5 -51 5 -89q0 -153 -65.5 -264
t-185.5 -169.5t-281 -58.5q-119 0 -268 27l113 -761h-361l-192 1314h367z" />
    <glyph glyph-name="uni06F5" unicode="&#x6f5;" horiz-adv-x="1207" 
d="M389 -31q-185 0 -279 129t-94 383q0 219 75.5 423.5t229.5 338.5q143 123 289 123t282 -118q148 -126 223.5 -326.5t75.5 -418.5q0 -256 -91 -396q-90 -140 -260 -140q-57 0 -117 14t-115 39q-55 -26 -111.5 -38.5t-107.5 -12.5zM738 258q62 0 93 66t31 200
q0 226 -85 381q-85 156 -185 156q-99 0 -179 -161q-78 -160 -78 -377q0 -136 33.5 -199.5t110.5 -63.5q36 0 71 15t62 40q43 -31 69 -44t57 -13z" />
    <glyph glyph-name="uni06F6" unicode="&#x6f6;" horiz-adv-x="1207" 
d="M438 462q-147 96 -225 216.5t-78 248.5q0 147 78 253t206 161t275 55q62 0 153.5 -14.5t190.5 -40.5v-305q-98 28 -175 41.5t-125 13.5q-69 0 -120 -23.5t-78.5 -65.5t-27.5 -96q0 -78 44.5 -152t132.5 -140l341 207l185 -258q-286 -139 -556 -309.5t-502 -369.5
l-184 266q227 164 465 312z" />
    <glyph glyph-name="uni06F7" unicode="&#x6f7;" horiz-adv-x="1207" 
d="M399 1316l215 -831h10l202 831h370l-447 -1316h-255l-482 1316h387z" />
    <glyph glyph-name="uni06F8" unicode="&#x6f8;" horiz-adv-x="1207" 
d="M584 831l-202 -831h-370l447 1316h255l482 -1316h-387l-215 831h-10z" />
    <glyph glyph-name="uni06F9" unicode="&#x6f9;" horiz-adv-x="1207" 
d="M552 519q-136 0 -246 52t-173 146t-63 214q0 129 63.5 233t172 163t238.5 59q200 0 310.5 -104.5t136.5 -315.5l120 -966h-360l-72 519h-127zM637 951q-20 149 -130 149q-47 0 -80.5 -36t-33.5 -97q0 -76 57 -119t159 -43h47z" />
    <glyph glyph-name="uni2002" unicode="&#x2002;" horiz-adv-x="1024" 
 />
    <glyph glyph-name="uni2003" unicode="&#x2003;" horiz-adv-x="2048" 
 />
    <glyph glyph-name="uni2009" unicode="&#x2009;" horiz-adv-x="205" 
 />
    <glyph glyph-name="uni200A" unicode="&#x200a;" horiz-adv-x="41" 
 />
    <glyph glyph-name="uni200C" unicode="&#x200c;" horiz-adv-x="0" 
d="M139 1858l-106 -107l106 -106l-33 -33l-106 104l-109 -106l-32 35l106 106l-106 107l32 34l109 -108l106 106z" />
    <glyph glyph-name="uni200D" unicode="&#x200d;" horiz-adv-x="0" 
d="M158 1634v95h-314v-95h-47v142h408v-142h-47z" />
    <glyph glyph-name="uni200E" unicode="&#x200e;" horiz-adv-x="0" 
d="M20 1645l84 84h-258v47h258l-84 82l33 34l142 -141l-142 -141z" />
    <glyph glyph-name="uni200F" unicode="&#x200f;" horiz-adv-x="0" 
d="M-104 1776h260v-47h-258l82 -84l-33 -33l-142 139l142 141l33 -32z" />
    <glyph glyph-name="endash" unicode="&#x2013;" horiz-adv-x="1024" 
d="M1024 680v-258h-1024v258h1024z" />
    <glyph glyph-name="emdash" unicode="&#x2014;" horiz-adv-x="2048" 
d="M2048 680v-258h-2048v258h2048z" />
    <glyph glyph-name="quoteleft" unicode="&#x2018;" horiz-adv-x="682" 
d="M582 1430l-138 -556h-344l201 556h281z" />
    <glyph glyph-name="quoteright" unicode="&#x2019;" horiz-adv-x="682" 
d="M582 1430l-201 -556h-281l138 556h344z" />
    <glyph glyph-name="quotesinglbase" unicode="&#x201a;" horiz-adv-x="682" 
d="M582 332l-201 -555h-281l138 555h344z" />
    <glyph glyph-name="quotedblleft" unicode="&#x201c;" 
d="M631 1430l-137 -556h-344l200 556h281zM1102 1430l-137 -556h-344l200 556h281z" />
    <glyph glyph-name="quotedblright" unicode="&#x201d;" 
d="M631 1430l-201 -556h-280l137 556h344zM1102 1430l-201 -556h-280l137 556h344z" />
    <glyph glyph-name="quotedblbase" unicode="&#x201e;" 
d="M633 332l-201 -555h-282l137 555h346zM1102 332l-201 -555h-283l138 555h346z" />
    <glyph glyph-name="dagger" unicode="&#x2020;" 
d="M106 817v270h355v343h332v-343h354v-270h-354v-817h-332v817h-355z" />
    <glyph glyph-name="daggerdbl" unicode="&#x2021;" 
d="M461 0v276h-355v246h355v383h-355v246h355v279h332v-279h354v-246h-354v-383h354v-246h-354v-276h-332z" />
    <glyph glyph-name="bullet" unicode="&#x2022;" horiz-adv-x="1024" 
d="M156 715q0 97 48.5 179t130.5 129.5t177 47.5q97 0 179 -48.5t130.5 -130.5t48.5 -177q0 -98 -49.5 -180.5t-132 -130.5t-176.5 -48q-95 0 -177 47.5t-130.5 130t-48.5 181.5z" />
    <glyph glyph-name="ellipsis" unicode="&#x2026;" horiz-adv-x="2048" 
d="M514 332v-332h-344v332h344zM1196 332v-332h-344v332h344zM1878 332v-332h-344v332h344z" />
    <glyph glyph-name="uni202A" unicode="&#x202a;" horiz-adv-x="0" 
d="M20 1645l84 84h-102v47h102l-84 82l33 34l142 -141l-142 -141zM-57 1729h-117v47h117v-47z" />
    <glyph glyph-name="uni202B" unicode="&#x202b;" horiz-adv-x="0" 
d="M-104 1776h102v-47h-100l82 -84l-33 -33l-142 139l142 141l33 -32zM174 1729h-117v47h117v-47z" />
    <glyph glyph-name="uni202C" unicode="&#x202c;" horiz-adv-x="0" 
d="M23 1817v-209h-48v207l-81 -82l-35 32l141 142l141 -142l-35 -32z" />
    <glyph glyph-name="uni202D" unicode="&#x202d;" horiz-adv-x="0" 
d="M-43 1610l-33 35l84 84h-219v47h217l-82 82l33 34l141 -141zM90 1610l-33 35l109 106l-109 107l33 34l141 -141z" />
    <glyph glyph-name="uni202E" unicode="&#x202e;" horiz-adv-x="0" 
d="M-164 1800l107 -106l-33 -35l-141 141l141 142l33 -35zM-6 1823h219v-47h-219l84 -82l-35 -35l-139 141l139 142l35 -35z" />
    <glyph glyph-name="perthousand" unicode="&#x2030;" horiz-adv-x="2048" 
d="M1155 1475l-797 -1520h-159l792 1520h164zM2 1053q0 205 79.5 303t237.5 98q156 0 237 -100.5t81 -300.5q0 -197 -80 -299.5t-238 -102.5q-317 0 -317 402zM403 1053q0 83 -9 130t-27.5 67t-49.5 20q-41 0 -61 -49t-20 -168q0 -121 20 -169t63 -48q44 0 64 47.5t20 169.5
zM717 377q0 203 79 302t238 99q318 0 318 -401q0 -196 -80.5 -299t-237.5 -103q-317 0 -317 402zM1411 377q0 205 79.5 303t238.5 98q156 0 236.5 -100.5t80.5 -300.5q0 -199 -81 -300.5t-236 -101.5q-318 0 -318 402zM1118 365q0 120 -20 168.5t-64 48.5q-43 0 -63.5 -49
t-20.5 -168t20 -168.5t64 -49.5t64 48.5t20 169.5zM1812 365q0 120 -19.5 168.5t-63.5 48.5q-30 0 -48 -20t-27 -67.5t-9 -129.5q0 -119 20 -168.5t64 -49.5t63.5 49t19.5 169z" />
    <glyph glyph-name="guilsinglleft" unicode="&#x2039;" horiz-adv-x="682" 
d="M301 969h303l-225 -418l225 -418h-303l-244 418z" />
    <glyph glyph-name="guilsinglright" unicode="&#x203a;" horiz-adv-x="682" 
d="M78 969h303l244 -418l-244 -418h-303l225 418z" />
    <glyph glyph-name="fraction" unicode="&#x2044;" horiz-adv-x="342" 
d="M680 1475l-793 -1520h-223l793 1520h223z" />
    <glyph glyph-name="Euro" unicode="&#x20ac;" horiz-adv-x="1253" 
d="M936 -25q-182 0 -331 62.5t-249 181t-139 283.5h-213l35 141h158q-4 38 -4 70q0 29 4 73h-193l35 142h180q40 159 143 278t249.5 183.5t314.5 64.5q194 0 364 -57l-67 -262q-46 21 -106.5 31t-119.5 10q-129 0 -224.5 -66t-141.5 -182h540l-34 -142h-547q-4 -28 -4 -67
q0 -48 4 -76h512l-37 -141h-434q47 -113 143.5 -177.5t220.5 -64.5q59 0 122.5 12t105.5 29l12 -287q-125 -39 -299 -39z" />
    <glyph glyph-name="afii61289" unicode="&#x2113;" horiz-adv-x="1024" 
d="M582 -29q-106 0 -186.5 37.5t-125.5 112t-45 180.5v29l-110 -92l-113 174l223 176v481q0 109 49.5 202.5t139 149.5t204.5 56q98 0 172 -39t115 -111t41 -168q0 -154 -95 -300.5t-306 -319.5v-211q0 -56 31 -90.5t86 -34.5q76 0 182 78l108 -166q-88 -74 -177.5 -109
t-192.5 -35zM688 1141q0 56 -19.5 91.5t-54.5 35.5q-29 0 -49 -40.5t-20 -94.5v-328q76 77 109.5 161t33.5 175z" />
    <glyph glyph-name="trademark" unicode="&#x2122;" horiz-adv-x="2048" 
d="M76 1245v185h704v-185h-241v-667h-222v667h-241zM1747 1135l-182 -557h-181l-182 557h-4v-557h-221v852h315l183 -496l182 496h315v-852h-221v557h-4z" />
    <glyph glyph-name="uni2126" unicode="&#x2126;" horiz-adv-x="1647" 
d="M1141 752q0 131 -38.5 226t-110.5 145.5t-169 50.5t-168.5 -53t-110 -153t-38.5 -237q0 -191 58 -307t188 -166l10 -258h-658v258h289q-140 87 -210 221.5t-70 323.5q0 180 86.5 328.5t246.5 235.5t371 87q216 0 378.5 -84.5t250.5 -233.5t88 -337q0 -114 -33.5 -219.5
t-97 -189.5t-152.5 -132h291v-258h-657l10 258q131 49 188.5 168t57.5 326z" />
    <glyph glyph-name="estimated" unicode="&#x212e;" horiz-adv-x="1229" 
d="M618 -35q-151 0 -271.5 72t-188.5 201t-68 292q0 158 65.5 287t185.5 204t277 75q155 0 275 -70.5t187.5 -199t68.5 -296.5h-827v-370q119 -121 296 -121q132 0 225.5 59.5t170.5 186.5l71 -43q-64 -103 -133.5 -164t-150 -87t-183.5 -26zM614 1024q-169 0 -292 -123
v-297h596v297q-129 123 -304 123z" />
    <glyph glyph-name="partialdiff" unicode="&#x2202;" horiz-adv-x="1284" 
d="M514 1366q-160 0 -293 -96l-86 217q89 61 197 92t223 31q183 0 326 -97.5t223 -275.5t80 -412q0 -252 -79 -442.5t-223 -294.5t-335 -104q-153 0 -260 76t-160 189.5t-53 223.5q0 154 61 276.5t170 191.5t248 69q101 0 187 -46t143 -126v55q0 130 -46 238.5t-129.5 171.5
t-193.5 63zM621 774q-70 0 -125 -42.5t-86 -113.5t-31 -151q0 -68 26 -122.5t72 -86t103 -31.5q64 0 121 49t97 135t54 193q-16 46 -50.5 85t-81.5 62t-99 23z" />
    <glyph glyph-name="uni2206" unicode="&#x2206;" horiz-adv-x="1532" 
d="M1001 1430l515 -1430h-1500l519 1430h466zM485 270h533l-256 865h-4z" />
    <glyph glyph-name="product" unicode="&#x220f;" horiz-adv-x="1550" 
d="M414 1305v-1743h-314v2048h1350v-2048h-311v1743h-725z" />
    <glyph glyph-name="summation" unicode="&#x2211;" horiz-adv-x="1430" 
d="M651 598l-567 743v269h1259v-307h-845l518 -703l-551 -731h903v-307h-1309v266z" />
    <glyph glyph-name="minus" unicode="&#x2212;" horiz-adv-x="1229" 
d="M1133 647v-258h-1037v258h1037z" />
    <glyph glyph-name="radical" unicode="&#x221a;" horiz-adv-x="1235" 
d="M100 100l-114 242l395 180l217 -483l320 1571h329l-459 -2048h-280l-291 594z" />
    <glyph glyph-name="infinity" unicode="&#x221e;" horiz-adv-x="1804" 
d="M510 121q-130 0 -224.5 57t-144 157t-49.5 226q0 128 50.5 226t143 152t214.5 54q115 0 209 -58.5t192 -197.5q95 138 190 197t214 59q121 0 213.5 -54t143 -152t50.5 -226t-50.5 -228.5t-143.5 -157t-215 -56.5q-112 0 -207.5 56.5t-194.5 182.5
q-101 -128 -191.5 -182.5t-199.5 -54.5zM502 721q-46 0 -80 -22.5t-52 -60.5t-18 -83q0 -73 43 -117.5t111 -44.5q60 0 117 38t120 120q-66 87 -125 128.5t-116 41.5zM1300 391q70 0 110 46t40 120q0 72 -41.5 118t-116.5 46q-107 0 -233 -170q57 -80 118.5 -120t122.5 -40z
" />
    <glyph glyph-name="integral" unicode="&#x222b;" horiz-adv-x="1346" 
d="M864 1608q78 0 143.5 -25t103.5 -70t38 -104q0 -41 -19 -74t-52.5 -52t-73.5 -19q-56 0 -86 28t-41 86q-8 42 -14 61t-14 27.5t-24 8.5q-20 0 -29.5 -18t-9.5 -68q0 -48 8.5 -186.5t8.5 -180.5v-870q0 -211 -43 -341t-128.5 -189.5t-219.5 -59.5q-73 0 -137.5 23.5
t-105 70.5t-40.5 113q0 64 40.5 100.5t100.5 36.5q58 0 89 -28.5t40 -86.5q10 -59 19.5 -77.5t27.5 -18.5q21 0 31 18t10 68q0 69 -8 187t-8 149v891q0 240 54.5 372.5t140 180t198.5 47.5z" />
    <glyph glyph-name="approxequal" unicode="&#x2248;" horiz-adv-x="1214" 
d="M868 584q-48 0 -115.5 17t-170.5 50q-177 58 -240 58q-49 0 -77 -32t-34 -79h-200q0 91 39.5 191.5t111.5 168.5t164 68q53 -2 110.5 -14.5t222.5 -63.5q85 -27 119.5 -36t65.5 -9q51 0 77 25t38 90h205q-9 -120 -48 -218.5t-107.5 -157t-160.5 -58.5zM868 82
q-47 0 -114 17t-172 51q-90 29 -148 43t-92 14q-49 0 -77 -31.5t-34 -79.5h-200q0 91 39.5 191.5t111.5 168.5t164 68q53 -2 110.5 -14.5t222.5 -63.5q85 -27 119.5 -36t65.5 -9q51 0 77 25t38 90h205q-9 -120 -48 -218.5t-107.5 -157t-160.5 -58.5z" />
    <glyph glyph-name="notequal" unicode="&#x2260;" horiz-adv-x="1214" 
d="M207 -43l96 197h-207v258h334l107 213h-441v258h568l149 301l207 -101l-100 -200h213v-258h-340l-105 -213h445v-258h-574l-145 -297z" />
    <glyph glyph-name="lessequal" unicode="&#x2264;" horiz-adv-x="1214" 
d="M1163 1212v-317l-680 -147l680 -173v-319l-1112 338v307zM1163 207v-311h-1112v311h1112z" />
    <glyph glyph-name="greaterequal" unicode="&#x2265;" horiz-adv-x="1214" 
d="M729 748l-678 147v317l1112 -311v-307l-1112 -338v319zM1163 207v-311h-1112v311h1112z" />
    <glyph glyph-name="lozenge" unicode="&#x25ca;" horiz-adv-x="1214" 
d="M467 1530h278l398 -801l-398 -801h-282l-391 801zM389 729l217 -485l215 483l-215 485z" />
    <glyph glyph-name="uni25CC" unicode="&#x25cc;" horiz-adv-x="823" 
d="M412 598q-50 0 -50 51q0 49 50 49q49 0 49 -49q0 -25 -12.5 -38t-36.5 -13zM256 561q-45 0 -45 49t45 49q25 0 38 -12.5t13 -36.5q0 -49 -51 -49zM565 561q-23 0 -37 13t-14 36q0 24 14 36.5t37 12.5q47 0 47 -49t-47 -49zM143 446q-47 0 -47 52q0 47 47 47q52 0 52 -47
q0 -52 -52 -52zM680 446q-49 0 -49 52q0 47 49 47q47 0 47 -47q0 -52 -47 -52zM104 295q-47 0 -47 47q0 49 47 49q26 0 39 -11.5t13 -37.5q0 -47 -52 -47zM717 295q-47 0 -47 47q0 49 47 49q49 0 49 -49q0 -47 -49 -47zM143 141q-47 0 -47 47q0 50 47 50q52 0 52 -50
q0 -47 -52 -47zM680 141q-49 0 -49 47q0 50 49 50q47 0 47 -50q0 -47 -47 -47zM256 27q-45 0 -45 47q0 51 45 51q51 0 51 -51q0 -47 -51 -47zM565 27q-23 0 -37 11.5t-14 35.5q0 23 14.5 37t36.5 14q47 0 47 -51q0 -47 -47 -47zM412 -12q-50 0 -50 49t50 49q49 0 49 -49
t-49 -49z" />
    <glyph glyph-name="uni274A" unicode="&#x274a;" horiz-adv-x="934" 
d="M229 1162l-74 51l129 185l-216 71l32 95l216 -75v235h94v-237l220 74l29 -90l-213 -74l132 -180l-74 -60l-136 191z" />
    <glyph glyph-name="fi" unicode="&#xfb01;" horiz-adv-x="1593" 
d="M27 809v258h223v72q0 166 57 259t153.5 128t233.5 35q50 0 86.5 -5t102.5 -16l-23 -254q-28 8 -54 12.5t-61 4.5q-71 0 -102 -45t-31 -128v-63h262v-258h-262v-809h-368v809h-217zM1433 1511v-270h-368v270h368zM1433 1067v-1067h-368v1067h368z" />
    <glyph glyph-name="fl" unicode="&#xfb02;" horiz-adv-x="1593" 
d="M27 809v258h223v72q0 166 57 259t153.5 128t233.5 35q50 0 86.5 -5t102.5 -16l-23 -254q-28 8 -54 12.5t-61 4.5q-71 0 -102 -45t-31 -128v-63h262v-258h-262v-809h-368v809h-217zM1435 1536v-1536h-368v1536h368z" />
    <glyph glyph-name="uniFD3E" unicode="&#xfd3e;" 
d="M692 205q12 -114 79 -237q69 -126 155 -229q88 -105 103 -118q15 -14 15 -30q0 -7 -4.5 -13t-13.5 -6q-43 0 -165 113q-121 112 -228 258q-105 145 -135 260l-162 -29q-25 0 -25 23q0 16 39 68l56 75l23 31q40 53 40 68q0 12 -6 19t-17 7q-21 0 -114 -87
q-91 -87 -117 -87q-29 0 -29 52v114q-131 48 -131 108q0 48 131 113v131q0 17 7.5 27t21.5 10q10 0 30 -17q14 -11 147 -125q0 -2 19 -18t34 -16q12 0 19 6.5t7 16.5q0 15 -46 76q-12 18 -22.5 31.5t-18.5 24.5q-37 50 -54 75.5t-17 35.5q0 23 25 23l162 -29q31 117 137 262
q104 144 226 257q121 112 165 112q9 0 13.5 -6t4.5 -12q0 -16 -8 -22q-8 -8 -23 -26t-34 -39q-13 -16 -41 -48q-93 -110 -161 -233q-72 -128 -85 -247l68 10q46 7 58 7q10 0 16 -5.5t6 -15.5q0 -15 -39 -57l-88 -97q-49 -53 -49 -73q0 -19 22 -19q21 0 64 34l101 76
q55 43 71 43q18 0 18 -40v-113q64 -23 98.5 -53t34.5 -58q0 -57 -133 -112v-115q0 -45 -18 -45q-10 0 -23 10l-87 66q-18 13 -31.5 24t-24.5 19l-36 27q-19 14 -36 14q-22 0 -22 -21q0 -22 88 -113t88 -112t-22 -21l-19 2zM627 867q9 63 25 113q18 56 48 124v97
q-48 -51 -95 -145q-44 -86 -71 -187l-141 33l107 -152v66h49l39 67h4v-67h47v-60l125 129l-6 6zM303 543q-27 4 -63 24q21 19 63 25v41h96v4l-157 123v-119q-70 -23 -101.5 -40t-31.5 -32q0 -20 32.5 -38.5t100.5 -36.5v-115l157 115v4h-96v45zM1022 567q0 19 -42 41
q-40 22 -89 33v117l-156 -117l2 -4h88v-43q42 -5 70 -27q-29 -19 -70 -24v-41h-90l-6 -4l162 -119v117q131 39 131 71zM676 571q0 44 -31 76q-30 33 -77 33q-42 0 -74 -32q-31 -31 -31 -75q0 -45 32 -77q31 -31 74 -31q44 0 76 32q31 31 31 74zM625 266l131 -24l6 6
l-125 129v-60h-47v-67h-4l-39 67h-49v66l-107 -152l141 33q25 -97 72 -192q47 -93 94 -140v97q-30 63 -47 118.5t-26 118.5z" />
    <glyph glyph-name="uniFD3F" unicode="&#xfd3f;" 
d="M613 -58q-102 -141 -227 -257q-122 -113 -165 -113q-9 0 -13.5 6t-4.5 13q0 10 6 18l42 48l55 65q89 104 162 233q73 127 87 250l-54 -8q-25 -5 -52 -8l-20 -1q-10 0 -16 5.5t-6 15.5q0 20 88 111q88 92 88 114q0 21 -22 21q-17 0 -37 -14l-88 -68q-71 -53 -87 -66
q-16 -12 -26 -12q-18 0 -18 45v115q-133 55 -133 112q0 29 35.5 58t97.5 53v113q0 40 18 40q16 0 71 -43l32 -24q60 -46 68 -52q44 -34 65 -34q22 0 22 19q0 25 -88 116t-88 111q0 21 22 21l29 -3l97 -14q-13 125 -89 255q-71 126 -166 235q-93 106 -95 111q-2 10 -2 14
q0 5 4.5 11.5t13.5 6.5q43 0 165 -113q123 -113 227 -257q104 -143 136 -261l162 29q25 0 25 -23q0 -17 -34 -61l-79 -106q-45 -61 -45 -76q0 -10 7 -16.5t19 -6.5q22 0 116 88q95 88 114 88q14 0 21.5 -10.5t7.5 -26.5v-131q67 -36 99 -63t32 -50q0 -60 -131 -108v-114
q0 -52 -29 -52q-22 0 -117 87q-94 87 -114 87q-23 0 -23 -26q0 -12 51 -83l34 -46q43 -58 58 -80t15 -33q0 -23 -24 -23l-163 29q-32 -117 -136 -261zM642 1057q-48 95 -95 144v-97q32 -73 48 -124q16 -50 25 -113l-131 24l-6 -6l125 -129v60h47v67h4l39 -67h49v-66l107 152
l-141 -33q-27 101 -71 188zM1138 569q0 14 -32 31.5t-101 40.5v119l-157 -123v-4h96v-41q41 -6 63 -25q-32 -19 -63 -24v-45h-96v-4l157 -115v115q133 34 133 75zM422 543q-44 6 -70 24q28 22 70 27v43h88l2 4l-156 117v-117q-48 -11 -90 -33q-41 -23 -41 -41q0 -32 131 -71
v-117l162 119l-6 4h-90v41zM678 465q43 0 74 31q32 32 32 77q0 43 -31 75t-76 32q-44 0 -76 -33q-30 -33 -30 -76q0 -41 30 -74q32 -32 77 -32zM700 317l-39 -67h-4v67h-47v60l-125 -129l6 -6l131 24q-9 -62 -26.5 -117t-46.5 -120v-97q47 47 93 140q47 92 73 192l141 -33
l-107 152v-66h-49z" />
    <glyph glyph-name="uni0640.narrow" horiz-adv-x="235" 
d="M-69 115v75q0 38 5.5 58t19.5 28.5t42 8.5h237q28 0 42 -8.5t19.5 -28.5t5.5 -58v-75q0 -45 -4.5 -69t-18 -35t-40.5 -11h-245q-27 0 -40.5 11t-18 35t-4.5 69z" />
    <glyph glyph-name="uni0640.long" horiz-adv-x="499" 
d="M-69 115v75q0 38 5.5 58t19.5 28.5t42 8.5h501q28 0 42 -8.5t19.5 -28.5t5.5 -58v-75q0 -45 -4.5 -69t-18 -35t-40.5 -11h-509q-27 0 -40.5 11t-18 35t-4.5 69z" />
    <glyph glyph-name="uni064B0651" horiz-adv-x="0" 
d="M350 1910q0 -61 -26.5 -110.5t-74.5 -78t-110 -28.5q-38 0 -75 17t-64 44q-28 -28 -65.5 -44.5t-77.5 -16.5q-61 0 -109 26.5t-74.5 75.5t-26.5 113v203h141v-209q0 -31 19.5 -49.5t52.5 -18.5q30 0 51 21.5t21 49.5v179h134v-179q0 -28 21 -49.5t51 -21.5
q33 0 52.5 18.5t19.5 51.5v208h140v-202zM281 2614v-145h-568v145h568zM281 2389v-145h-568v145h568z" />
    <glyph glyph-name="uni06540651" horiz-adv-x="0" 
d="M-137 1852q-23 42 -23 75q0 60 31.5 103.5t83 65t111.5 21.5q34 0 64.5 -3t81.5 -10l-15 -157q-42 14 -93 14q-36 0 -57 -13t-21 -34q0 -29 31 -45.5t80 -16.5h83v-159h-424v159h67zM281 2663v-145h-568v145h568zM281 2438v-145h-568v145h568z" />
    <glyph glyph-name="uni0654064E" horiz-adv-x="0" 
d="M-137 1852q-23 42 -23 75q0 60 31.5 103.5t83 65t111.5 21.5q34 0 64.5 -3t81.5 -10l-15 -157q-42 14 -93 14q-36 0 -57 -13t-21 -34q0 -29 31 -45.5t80 -16.5h83v-159h-424v159h67zM281 2438v-145h-568v145h568z" />
    <glyph glyph-name="uni0654064C" horiz-adv-x="0" 
d="M-137 1852q-23 42 -23 75q0 60 31.5 103.5t83 65t111.5 21.5q34 0 64.5 -3t81.5 -10l-15 -157q-42 14 -93 14q-36 0 -57 -13t-21 -34q0 -29 31 -45.5t80 -16.5h83v-159h-424v159h67zM-244 2603q120 -167 222 -167q24 0 45 5q-34 36 -50.5 73.5t-16.5 79.5q0 52 25 96.5
t67.5 70t91.5 25.5q82 0 129.5 -48t47.5 -136t-56 -155.5t-136.5 -104.5t-149.5 -37q-72 0 -127 28.5t-99 84.5l-101 -97l-82 90zM192 2597q0 28 -15.5 44.5t-37.5 16.5q-24 0 -40.5 -17t-16.5 -44q0 -22 12 -45.5t44 -55.5q54 47 54 101z" />
    <glyph glyph-name="uni0654064F" horiz-adv-x="0" 
d="M-137 1852q-23 42 -23 75q0 60 31.5 103.5t83 65t111.5 21.5q34 0 64.5 -3t81.5 -10l-15 -157q-42 14 -93 14q-36 0 -57 -13t-21 -34q0 -29 31 -45.5t80 -16.5h83v-159h-424v159h67zM-13 2436q25 0 53 6q-66 72 -66 152q0 58 27 102t69.5 67t87.5 23q82 0 129.5 -48
t47.5 -132q0 -87 -53.5 -156t-137.5 -107t-171 -38q-54 0 -123.5 12t-137.5 35l30 128q72 -23 128.5 -33.5t116.5 -10.5zM210 2597q0 28 -15.5 44.5t-37.5 16.5q-24 0 -40.5 -17t-16.5 -44q0 -23 12.5 -46t43.5 -54q54 44 54 100z" />
    <glyph glyph-name="uni06540652" horiz-adv-x="0" 
d="M-137 1852q-23 42 -23 75q0 60 31.5 103.5t83 65t111.5 21.5q34 0 64.5 -3t81.5 -10l-15 -157q-42 14 -93 14q-36 0 -57 -13t-21 -34q0 -29 31 -45.5t80 -16.5h83v-159h-424v159h67zM0 2302q-64 0 -118.5 32t-87 87t-32.5 122q0 66 31.5 121t86 87t120.5 32
q64 0 119.5 -32t88 -87t32.5 -121q0 -63 -32 -118.5t-87 -89t-121 -33.5zM-113 2542q0 -47 33 -79.5t80 -32.5t79.5 32.5t32.5 79.5q0 46 -32.5 78.5t-80.5 32.5q-45 0 -78.5 -32t-33.5 -79z" />
    <glyph glyph-name="uni06550650" horiz-adv-x="0" 
d="M-137 -442q-23 41 -23 74q0 60 31.5 103.5t82.5 65t110 21.5q36 0 66.5 -3t81.5 -10l-15 -156q-37 13 -93 13q-36 0 -57 -13t-21 -34q0 -27 29.5 -44t77.5 -17h87v-160h-424v160h67zM281 -753v-145h-568v145h568z" />
    <glyph glyph-name="uni0655064D" horiz-adv-x="0" 
d="M-137 -442q-23 41 -23 74q0 60 31.5 103.5t82.5 65t110 21.5q36 0 66.5 -3t81.5 -10l-15 -156q-37 13 -93 13q-36 0 -57 -13t-21 -34q0 -27 29.5 -44t77.5 -17h87v-160h-424v160h67zM281 -752v-145h-568v145h568zM281 -976v-145h-568v145h568z" />
    <glyph glyph-name="uni064406440647" horiz-adv-x="2741" 
d="M1717 122q-92 -122 -271 -122h-453q-117 0 -193.5 26.5t-118.5 84.5q-123 -45 -239 -45q-110 0 -211.5 39.5t-166 120t-64.5 196.5q0 172 157.5 299.5t473.5 202.5l2 120h359v-690q0 -39 10 -54t36 -15h313q72 0 72 86v1069h362v-1100q51 -29 111.5 -42t114.5 -13h218
v1155h362v-1440h-580q-76 0 -151 32.5t-143 89.5zM350 434q0 -43 35 -68t93 -25q80 0 154 33v265l-78 -25q-79 -25 -141.5 -69.5t-62.5 -110.5z" />
    </font>
</defs>
</svg>
