<?xml version="1.0" standalone="no"?>
<!DOCTYPE svg PUBLIC "-//W3C//DTD SVG 1.1//EN" "http://www.w3.org/Graphics/SVG/1.1/DTD/svg11.dtd" >
<svg xmlns="http://www.w3.org/2000/svg" xmlns:xlink="http://www.w3.org/1999/xlink" version="1.1">
<metadata>
Created by FontForge 20170731 at Wed Feb 15 14:23:34 2017
 By Aleksey,,,
Copyright (c) 2014-2017 Monotype Imaging Inc. All rights reserved.
</metadata>
<defs>
<font id="FrutigerLTArabic-77BlackCn" horiz-adv-x="0" >
  <font-face 
    font-family="Frutiger LT Arabic 77 Black Cn"
    font-weight="850"
    font-stretch="condensed"
    units-per-em="2048"
    panose-1="2 11 10 6 4 5 4 3 2 4"
    ascent="1577"
    descent="-471"
    x-height="1067"
    cap-height="1430"
    bbox="-403 -1122 2565 2786"
    underline-thickness="50"
    underline-position="-175"
    unicode-range="U+000D-FEFC"
  />
<missing-glyph horiz-adv-x="1049" 
d="M1049 1470v-1470h-1049v1470h1049zM102 102h844v1264h-844v-1264zM588 811q35 35 52.5 56t28.5 46.5t11 57.5q0 48 -21.5 88t-57.5 63t-77 23q-69 0 -112 -49.5t-56 -145.5l-102 17q12 136 83.5 208t192.5 72q74 0 131.5 -33.5t90 -94t32.5 -140.5q0 -71 -28.5 -126.5
t-102.5 -121.5q-43 -38 -63.5 -65.5t-27.5 -57.5t-7 -80v-49h-94v51q0 66 9.5 107t35.5 79t82 95zM569 377v-137h-114v137h114z" />
    <glyph glyph-name="uniFEF5" unicode="&#xfedf;&#xfe82;" horiz-adv-x="1276" arabic-form="isolated" 
d="M369 255v762h284v-762h219v1181h285v-1436h-1093v255h305zM617 1148q-46 0 -88.5 15.5t-108.5 50.5q-75 39 -127 39q-54 0 -130 -72l-98 97q60 77 117.5 117.5t108.5 40.5q57 0 159 -55q96 -52 156 -52q39 0 68.5 15.5t68.5 56.5l99 -88q-49 -76 -106 -120.5t-119 -44.5z
" />
    <glyph glyph-name="uniFEF6" unicode="&#xfee0;&#xfe82;" horiz-adv-x="1337" arabic-form="final" 
d="M1102 122q-34 -61 -88.5 -91.5t-127.5 -30.5h-822v255h306v762h283v-762h161q31 0 44.5 21t13.5 71v1089h285v-1111l-1 -15q35 -26 75 -40.5t99 -14.5h7q31 0 41.5 -20.5t10.5 -68.5v-57q0 -61 -9.5 -85t-38.5 -24h-16q-133 0 -223 122zM617 1148q-46 0 -88.5 15.5
t-108.5 50.5q-75 39 -127 39q-54 0 -130 -72l-98 97q60 77 117.5 117.5t108.5 40.5q57 0 159 -55q96 -52 156 -52q39 0 68.5 15.5t68.5 56.5l99 -88q-49 -76 -106 -120.5t-119 -44.5z" />
    <glyph glyph-name="uniFEF7" unicode="&#xfedf;&#xfe84;" horiz-adv-x="1276" arabic-form="isolated" 
d="M369 255v762h284v-762h219v1181h285v-1436h-1093v255h305zM410 1389q-18 42 -18 85q0 54 22 97t62.5 68t93.5 25q26 0 49.5 -3t65.5 -10l-11 -147q-39 14 -73 14q-29 0 -45.5 -16t-16.5 -41q0 -33 23.5 -52.5t61.5 -19.5h68v-149h-335v149h53z" />
    <glyph glyph-name="uniFEF8" unicode="&#xfee0;&#xfe84;" horiz-adv-x="1337" arabic-form="final" 
d="M1102 122q-34 -61 -88.5 -91.5t-127.5 -30.5h-822v255h306v762h283v-762h161q31 0 44.5 21t13.5 71v1089h285v-1111l-1 -15q35 -26 75 -40.5t99 -14.5h7q31 0 41.5 -20.5t10.5 -68.5v-57q0 -61 -9.5 -85t-38.5 -24h-16q-133 0 -223 122zM388 1389q-18 42 -18 85
q0 54 22 97t62.5 68t93.5 25q26 0 49.5 -3t65.5 -10l-11 -147q-39 14 -73 14q-29 0 -45.5 -16t-16.5 -41q0 -33 23.5 -52.5t61.5 -19.5h68v-149h-335v149h53z" />
    <glyph glyph-name="uniFEF9" unicode="&#xfedf;&#xfe88;" horiz-adv-x="1276" arabic-form="isolated" 
d="M369 255v762h284v-762h219v1181h285v-1436h-1093v255h305zM394 -453q-18 42 -18 85q0 54 22 97t62.5 68t93.5 25q26 0 49.5 -3t65.5 -10l-11 -147q-39 14 -73 14q-29 0 -45.5 -16t-16.5 -41q0 -33 23.5 -52.5t61.5 -19.5h68v-149h-335v149h53z" />
    <glyph glyph-name="uniFEFA" unicode="&#xfee0;&#xfe88;" horiz-adv-x="1337" arabic-form="final" 
d="M1102 122q-34 -61 -88.5 -91.5t-127.5 -30.5h-822v255h306v762h283v-762h161q31 0 44.5 21t13.5 71v1089h285v-1111l-1 -15q35 -26 75 -40.5t99 -14.5h7q31 0 41.5 -20.5t10.5 -68.5v-57q0 -61 -9.5 -85t-38.5 -24h-16q-133 0 -223 122zM372 -453q-18 42 -18 85
q0 54 22 97t62.5 68t93.5 25q26 0 49.5 -3t65.5 -10l-11 -147q-39 14 -73 14q-29 0 -45.5 -16t-16.5 -41q0 -33 23.5 -52.5t61.5 -19.5h68v-149h-335v149h53z" />
    <glyph glyph-name="uniFEFB" unicode="&#xfedf;&#xfe8e;" horiz-adv-x="1276" arabic-form="isolated" 
d="M369 255v762h284v-762h219v1181h285v-1436h-1093v255h305z" />
    <glyph glyph-name="uniFEFC" unicode="&#xfee0;&#xfe8e;" horiz-adv-x="1337" arabic-form="final" 
d="M1102 122q-34 -61 -88.5 -91.5t-127.5 -30.5h-822v255h306v762h283v-762h161q31 0 44.5 21t13.5 71v1089h285v-1111l-1 -15q35 -26 75 -40.5t99 -14.5h7q31 0 41.5 -20.5t10.5 -68.5v-57q0 -61 -9.5 -85t-38.5 -24h-16q-133 0 -223 122z" />
    <glyph glyph-name="uni06440671" unicode="&#xfedf;&#xfb51;" horiz-adv-x="1276" 
d="M369 255v762h284v-762h219v1181h285v-1436h-1093v255h305zM336 1317v226h104v-45q31 30 69.5 46.5t80.5 16.5q73 0 114.5 -54t41.5 -153v-169h-477v132h67zM556 1449q-19 0 -42.5 -16.5t-41.5 -47t-19 -67.5h167v41q0 90 -64 90z" />
    <glyph glyph-name="uni06440671.fina" unicode="&#xfee0;&#xfb51;" horiz-adv-x="1337" 
d="M1102 122q-34 -61 -88.5 -91.5t-127.5 -30.5h-822v255h306v762h283v-762h161q31 0 44.5 21t13.5 71v1089h285v-1111l-1 -15q35 -26 75 -40.5t99 -14.5h7q31 0 41.5 -20.5t10.5 -68.5v-57q0 -61 -9.5 -85t-38.5 -24h-16q-133 0 -223 122zM314 1317v226h104v-45
q31 30 69.5 46.5t80.5 16.5q73 0 114.5 -54t41.5 -153v-169h-477v132h67zM534 1449q-19 0 -42.5 -16.5t-41.5 -47t-19 -67.5h167v41q0 90 -64 90z" />
    <glyph glyph-name="uni0621" unicode="&#x621;" horiz-adv-x="595" arabic-form="isolated" 
d="M92 224q-11 27 -18 64.5t-7 66.5q0 80 33 146t95 104t144 38q72 0 175 -21l-18 -220q-63 21 -109 21q-44 0 -68.5 -23.5t-24.5 -65.5q0 -51 34.5 -80.5t92.5 -29.5h101v-224h-508v224h78z" />
    <glyph glyph-name="uni0622" unicode="&#x622;" horiz-adv-x="522" arabic-form="isolated" 
d="M403 1436v-1436h-285v1436h285zM432 1537q-46 0 -88.5 15.5t-108.5 50.5q-75 39 -127 39q-54 0 -130 -72l-98 97q60 77 117.5 117.5t108.5 40.5q57 0 159 -55q96 -52 156 -52q39 0 68.5 15.5t68.5 56.5l99 -88q-49 -76 -106 -120.5t-119 -44.5z" />
    <glyph glyph-name="uni0623" unicode="&#x623;" horiz-adv-x="522" arabic-form="isolated" 
d="M403 1436v-1436h-285v1436h285zM133 1685q-18 42 -18 85q0 54 22 97t62.5 68t93.5 25q26 0 49.5 -3t65.5 -10l-11 -147q-39 14 -73 14q-29 0 -45.5 -16t-16.5 -41q0 -33 23.5 -52.5t61.5 -19.5h68v-149h-335v149h53z" />
    <glyph glyph-name="uni0624" unicode="&#x624;" horiz-adv-x="959" arabic-form="isolated" 
d="M578 70q-36 -12 -77 -18.5t-73 -6.5q-112 0 -192.5 49.5t-122.5 139t-42 208.5q0 132 51 240t145 170t218 62q132 0 215 -70t119.5 -182.5t36.5 -245.5v-185q0 -317 -166.5 -477.5t-497.5 -178.5l-26 266q184 14 279.5 69.5t132.5 159.5zM454 644q-55 0 -87 -54t-32 -150
q0 -88 39 -133.5t111 -45.5q52 0 93 14v170q0 94 -31.5 146.5t-92.5 52.5zM265 1282q-12 28 -18.5 61t-6.5 60q0 78 31.5 140t90 98.5t135.5 36.5t165 -19l-16 -212q-57 20 -107 20q-40 0 -64 -23t-24 -59q0 -47 34 -75t89 -28h98v-215h-483v215h76z" />
    <glyph glyph-name="uni0625" unicode="&#x625;" horiz-adv-x="522" arabic-form="isolated" 
d="M403 1436v-1436h-285v1436h285zM154 -453q-18 42 -18 85q0 54 22 97t62.5 68t93.5 25q26 0 49.5 -3t65.5 -10l-11 -147q-39 14 -73 14q-29 0 -45.5 -16t-16.5 -41q0 -33 23.5 -52.5t61.5 -19.5h68v-149h-335v149h53z" />
    <glyph glyph-name="uni0626" unicode="&#x626;" horiz-adv-x="1340" arabic-form="isolated" 
d="M1000 584q-41 0 -66 -20.5t-25 -56.5q0 -33 28.5 -68.5t105.5 -113.5q63 -63 99 -130.5t36 -134.5q0 -100 -64.5 -213.5t-194.5 -192.5t-315 -79q-206 0 -342 85t-199 217.5t-63 278.5q0 110 34 223t98 219l242 -139q-48 -80 -71 -156t-23 -154q0 -82 41 -150.5
t119.5 -109t185.5 -40.5q90 0 150 29t88 73t28 89q0 51 -45 106q-41 52 -96 112q-125 136 -125 280q0 102 49 180t133.5 120t187.5 42q61 0 135 -19t138 -48l-68 -275q-60 21 -113.5 33.5t-87.5 12.5zM82 892q-12 28 -18.5 61t-6.5 60q0 78 31.5 140t90 98.5t135.5 36.5
t165 -19l-16 -212q-57 20 -107 20q-40 0 -64 -23t-24 -59q0 -47 34 -75t89 -28h98v-215h-483v215h76z" />
    <glyph glyph-name="uni0627" unicode="&#x627;" horiz-adv-x="522" arabic-form="isolated" 
d="M403 1436v-1436h-285v1436h285z" />
    <glyph glyph-name="uni0628" unicode="&#x628;" horiz-adv-x="1574" arabic-form="isolated" 
d="M0 412q0 108 26 266l255 -29q-14 -124 -14 -176q0 -76 27 -123.5t88 -71t164 -23.5h625v625h284v-880h-965q-249 0 -369.5 98.5t-120.5 313.5zM903 -375q0 -36 -17.5 -67t-48.5 -49.5t-69 -18.5q-36 0 -67 18t-49.5 49t-18.5 68t18 68t49 49t68 18q36 0 67.5 -18
t49.5 -49t18 -68z" />
    <glyph glyph-name="uni0629" unicode="&#x629;" horiz-adv-x="846" arabic-form="isolated" 
d="M405 0h-36q-120 0 -203 55.5t-124.5 147.5t-41.5 202q0 238 118 389q56 71 126 110.5t140 39.5q152 0 264 -142q54 -68 82.5 -163t28.5 -207q0 -113 -41.5 -212t-122 -159.5t-190.5 -60.5zM494 469q0 43 -10.5 93t-37.5 86.5t-71 36.5q-29 0 -56.5 -29.5t-45 -80.5
t-17.5 -112q0 -102 31.5 -155t90.5 -53q55 0 85.5 56t30.5 158zM339 1326q0 -36 -17.5 -67t-48.5 -49.5t-69 -18.5q-36 0 -67 18t-49.5 49t-18.5 68t18 68t49 49t68 18q36 0 67 -18t49.5 -49t18.5 -68zM660 1326q0 -36 -17.5 -67t-48.5 -49.5t-69 -18.5q-36 0 -67 18
t-49.5 49t-18.5 68t18 68t49 49t68 18q36 0 67 -18t49.5 -49t18.5 -68z" />
    <glyph glyph-name="uni062A" unicode="&#x62a;" horiz-adv-x="1574" arabic-form="isolated" 
d="M0 412q0 108 26 266l255 -29q-14 -124 -14 -176q0 -76 27 -123.5t88 -71t164 -23.5h625v625h284v-880h-965q-249 0 -369.5 98.5t-120.5 313.5zM762 1326q0 -36 -17.5 -67t-48.5 -49.5t-69 -18.5q-36 0 -67 18t-49.5 49t-18.5 68t18 68t49 49t68 18q36 0 67 -18t49.5 -49
t18.5 -68zM1083 1326q0 -36 -17.5 -67t-48.5 -49.5t-69 -18.5q-36 0 -67 18t-49.5 49t-18.5 68t18 68t49 49t68 18q36 0 67 -18t49.5 -49t18.5 -68z" />
    <glyph glyph-name="uni062B" unicode="&#x62b;" horiz-adv-x="1574" arabic-form="isolated" 
d="M0 412q0 108 26 266l255 -29q-14 -124 -14 -176q0 -76 27 -123.5t88 -71t164 -23.5h625v625h284v-880h-965q-249 0 -369.5 98.5t-120.5 313.5zM879 1680q0 -36 -17.5 -67t-48.5 -49.5t-69 -18.5q-36 0 -67 18t-49.5 49t-18.5 68t18 68t49 49t68 18q36 0 67 -18t49.5 -49
t18.5 -68zM724 1326q0 -36 -17.5 -67t-48.5 -49.5t-69 -18.5q-36 0 -67 18t-49.5 49t-18.5 68t18 68t49 49t68 18q36 0 67 -18t49.5 -49t18.5 -68zM1045 1326q0 -36 -17.5 -67t-48.5 -49.5t-69 -18.5q-36 0 -67 18t-49.5 49t-18.5 68t18 68t49 49t68 18q36 0 67 -18
t49.5 -49t18.5 -68z" />
    <glyph glyph-name="uni062C" unicode="&#x62c;" horiz-adv-x="999" arabic-form="isolated" 
d="M496 -753q-156 0 -268 64.5t-170 176.5t-58 253q0 151 53 267t159 181.5t260 65.5h122q-12 20 -20.5 60t-14.5 105q-12 131 -52 188.5t-117 57.5q-40 0 -96 -10.5t-109 -28.5v247q77 28 145.5 44.5t131.5 16.5q154 0 245 -98t108 -295q22 -287 114 -287v-255h-404
q-119 0 -185.5 -64t-66.5 -180q0 -76 35.5 -130t94.5 -81.5t139 -27.5q66 0 163 22v-263q-52 -15 -98.5 -22t-110.5 -7zM550 -338q-32 0 -60 15.5t-45 43.5t-17 62q0 32 16.5 60t44.5 44.5t61 16.5q25 0 52.5 -12t47.5 -39t22 -70q0 -32 -16 -60t-44 -44.5t-62 -16.5z" />
    <glyph glyph-name="uni062D" unicode="&#x62d;" horiz-adv-x="999" arabic-form="isolated" 
d="M496 -753q-156 0 -268 64.5t-170 176.5t-58 253q0 151 53 267t159 181.5t260 65.5h122q-12 20 -20.5 60t-14.5 105q-12 131 -52 188.5t-117 57.5q-40 0 -96 -10.5t-109 -28.5v247q77 28 145.5 44.5t131.5 16.5q154 0 245 -98t108 -295q22 -287 114 -287v-255h-404
q-119 0 -185.5 -64t-66.5 -180q0 -76 35.5 -130t94.5 -81.5t139 -27.5q66 0 163 22v-263q-52 -15 -98.5 -22t-110.5 -7z" />
    <glyph glyph-name="uni062E" unicode="&#x62e;" horiz-adv-x="999" arabic-form="isolated" 
d="M496 -753q-156 0 -268 64.5t-170 176.5t-58 253q0 151 53 267t159 181.5t260 65.5h122q-12 20 -20.5 60t-14.5 105q-12 131 -52 188.5t-117 57.5q-40 0 -96 -10.5t-109 -28.5v247q77 28 145.5 44.5t131.5 16.5q154 0 245 -98t108 -295q22 -287 114 -287v-255h-404
q-119 0 -185.5 -64t-66.5 -180q0 -76 35.5 -130t94.5 -81.5t139 -27.5q66 0 163 22v-263q-52 -15 -98.5 -22t-110.5 -7zM583 1329q0 -36 -17.5 -67t-48.5 -49.5t-69 -18.5q-36 0 -67 18t-49.5 49t-18.5 68t18 68t49 49t68 18q36 0 67.5 -18t49.5 -49t18 -68z" />
    <glyph glyph-name="uni062F" unicode="&#x62f;" horiz-adv-x="826" arabic-form="isolated" 
d="M345 255q66 0 101 27.5t35 83.5q0 70 -49.5 156.5t-109.5 159t-141 159.5l213 197q175 -187 260.5 -351t85.5 -313q0 -109 -44 -193t-134.5 -132.5t-224.5 -48.5h-303v255h311z" />
    <glyph glyph-name="uni0630" unicode="&#x630;" horiz-adv-x="826" arabic-form="isolated" 
d="M345 255q66 0 101 27.5t35 83.5q0 70 -49.5 156.5t-109.5 159t-141 159.5l213 197q175 -187 260.5 -351t85.5 -313q0 -109 -44 -193t-134.5 -132.5t-224.5 -48.5h-303v255h311zM466 1329q0 -36 -17.5 -67t-48.5 -49.5t-69 -18.5q-36 0 -67 18t-49.5 49t-18.5 68t18 68
t49 49t68 18q36 0 67.5 -18t49.5 -49t18 -68z" />
    <glyph glyph-name="uni0631" unicode="&#x631;" horiz-adv-x="589" arabic-form="isolated" 
d="M186 155v725h285v-676q0 -164 -27 -291t-118 -223.5t-274 -131.5l-86 258q90 24 138 67.5t65 107.5t17 164z" />
    <glyph glyph-name="uni0632" unicode="&#x632;" horiz-adv-x="589" arabic-form="isolated" 
d="M186 155v725h285v-676q0 -164 -27 -291t-118 -223.5t-274 -131.5l-86 258q90 24 138 67.5t65 107.5t17 164zM469 1329q0 -36 -17.5 -67t-48.5 -49.5t-69 -18.5q-36 0 -67 18t-49.5 49t-18.5 68t18 68t49 49t68 18q36 0 67.5 -18t49.5 -49t18 -68z" />
    <glyph glyph-name="uni0633" unicode="&#x633;" horiz-adv-x="2197" arabic-form="isolated" 
d="M1510 96q-69 -96 -206 -96q-81 0 -142.5 17t-111.5 50q-27 -141 -95 -254t-179 -178.5t-261 -65.5q-169 0 -284.5 78.5t-173 214t-57.5 307.5q0 193 91 416l250 -111q-67 -154 -67 -311q0 -80 28.5 -148t86 -109.5t142.5 -41.5q87 0 143 46.5t81.5 120.5t25.5 160
q0 193 -78 413l278 94q51 -176 78 -401q86 -42 152 -42q84 0 84 97v421h285v-443q0 -23 -1 -42q44 -21 72 -27t55 -6h88v625h286v-880h-278q-91 0 -161 22.5t-131 73.5z" />
    <glyph glyph-name="uni0634" unicode="&#x634;" horiz-adv-x="2197" arabic-form="isolated" 
d="M1510 96q-69 -96 -206 -96q-81 0 -142.5 17t-111.5 50q-27 -141 -95 -254t-179 -178.5t-261 -65.5q-169 0 -284.5 78.5t-173 214t-57.5 307.5q0 193 91 416l250 -111q-67 -154 -67 -311q0 -80 28.5 -148t86 -109.5t142.5 -41.5q87 0 143 46.5t81.5 120.5t25.5 160
q0 193 -78 413l278 94q51 -176 78 -401q86 -42 152 -42q84 0 84 97v421h285v-443q0 -23 -1 -42q44 -21 72 -27t55 -6h88v625h286v-880h-278q-91 0 -161 22.5t-131 73.5zM1554 1680q0 -36 -17.5 -67t-48.5 -49.5t-69 -18.5q-36 0 -67 18t-49.5 49t-18.5 68t18 68t49 49t68 18
q36 0 67 -18t49.5 -49t18.5 -68zM1399 1326q0 -36 -17.5 -67t-48.5 -49.5t-69 -18.5q-36 0 -67 18t-49.5 49t-18.5 68t18 68t49 49t68 18q36 0 67 -18t49.5 -49t18.5 -68zM1720 1326q0 -36 -17.5 -67t-48.5 -49.5t-69 -18.5q-36 0 -67 18t-49.5 49t-18.5 68t18 68t49 49
t68 18q36 0 67 -18t49.5 -49t18.5 -68z" />
    <glyph glyph-name="uni0635" unicode="&#x635;" horiz-adv-x="2335" arabic-form="isolated" 
d="M1050 66q-27 -144 -95 -254.5t-179 -176.5t-261 -66q-167 0 -283 78.5t-174 213.5t-58 305q0 204 91 419l250 -111q-67 -154 -67 -313q0 -80 28 -147.5t86 -108.5t143 -41q84 0 140.5 46.5t83 121t26.5 159.5q0 193 -78 413l278 94q24 -75 44 -181.5t34 -220.5
q71 -33 140 -38q50 162 134.5 318.5t213.5 266t287 109.5q140 0 229.5 -76t129.5 -199.5t40 -270.5v-406h-865q-94 0 -172.5 15t-145.5 51zM1781 656q-70 0 -140 -56t-124.5 -148.5t-81.5 -196.5h513v141q0 127 -40 193.5t-127 66.5z" />
    <glyph glyph-name="uni0636" unicode="&#x636;" horiz-adv-x="2335" arabic-form="isolated" 
d="M1050 66q-27 -144 -95 -254.5t-179 -176.5t-261 -66q-167 0 -283 78.5t-174 213.5t-58 305q0 204 91 419l250 -111q-67 -154 -67 -313q0 -80 28 -147.5t86 -108.5t143 -41q84 0 140.5 46.5t83 121t26.5 159.5q0 193 -78 413l278 94q24 -75 44 -181.5t34 -220.5
q71 -33 140 -38q50 162 134.5 318.5t213.5 266t287 109.5q140 0 229.5 -76t129.5 -199.5t40 -270.5v-406h-865q-94 0 -172.5 15t-145.5 51zM1781 656q-70 0 -140 -56t-124.5 -148.5t-81.5 -196.5h513v141q0 127 -40 193.5t-127 66.5zM1861 1329q0 -36 -17.5 -67t-48.5 -49.5
t-69 -18.5q-36 0 -67 18t-49.5 49t-18.5 68t18 68t49 49t68 18q36 0 67.5 -18t49.5 -49t18 -68z" />
    <glyph glyph-name="uni0637" unicode="&#x637;" horiz-adv-x="1357" arabic-form="isolated" 
d="M220 255q13 31 28 85.5t29 89.5v1007h284v-600q141 115 295 115q144 0 233 -78t127.5 -201.5t38.5 -268.5v-404h-1255v255h220zM803 656q-55 0 -117 -36.5t-123.5 -126t-106.5 -238.5h516v138q0 129 -40.5 196t-128.5 67z" />
    <glyph glyph-name="uni0638" unicode="&#x638;" horiz-adv-x="1357" arabic-form="isolated" 
d="M220 255q13 31 28 85.5t29 89.5v1007h284v-600q141 115 295 115q144 0 233 -78t127.5 -201.5t38.5 -268.5v-404h-1255v255h220zM803 656q-55 0 -117 -36.5t-123.5 -126t-106.5 -238.5h516v138q0 129 -40.5 196t-128.5 67zM1024 1329q0 -36 -17.5 -67t-48.5 -49.5
t-69 -18.5q-36 0 -67 18t-49.5 49t-18.5 68t18 68t49 49t68 18q36 0 67.5 -18t49.5 -49t18 -68z" />
    <glyph glyph-name="uni0639" unicode="&#x639;" horiz-adv-x="925" arabic-form="isolated" 
d="M502 -753q-173 0 -286 71.5t-164.5 182.5t-51.5 234q0 172 64.5 297t185.5 187q-37 51 -58.5 124.5t-21.5 142.5q0 117 52.5 218t147 161.5t216.5 60.5q43 0 102.5 -11t115.5 -29l-42 -268q-92 23 -144 23q-84 0 -128.5 -50.5t-44.5 -137.5q0 -55 21.5 -100t64 -71.5
t102.5 -26.5h222v-255h-331q-118 0 -184.5 -64t-66.5 -180q0 -68 30.5 -122t91.5 -85.5t147 -31.5q66 0 163 22v-263q-51 -15 -98 -22t-105 -7z" />
    <glyph glyph-name="uni063A" unicode="&#x63a;" horiz-adv-x="925" arabic-form="isolated" 
d="M502 -753q-173 0 -286 71.5t-164.5 182.5t-51.5 234q0 172 64.5 297t185.5 187q-37 51 -58.5 124.5t-21.5 142.5q0 117 52.5 218t147 161.5t216.5 60.5q43 0 102.5 -11t115.5 -29l-42 -268q-92 23 -144 23q-84 0 -128.5 -50.5t-44.5 -137.5q0 -55 21.5 -100t64 -71.5
t102.5 -26.5h222v-255h-331q-118 0 -184.5 -64t-66.5 -180q0 -68 30.5 -122t91.5 -85.5t147 -31.5q66 0 163 22v-263q-51 -15 -98 -22t-105 -7zM691 1329q0 -36 -17.5 -67t-48.5 -49.5t-69 -18.5q-36 0 -67 18t-49.5 49t-18.5 68t18 68t49 49t68 18q36 0 67.5 -18t49.5 -49
t18 -68z" />
    <glyph glyph-name="uni0641" unicode="&#x641;" horiz-adv-x="1797" arabic-form="isolated" 
d="M0 414q0 87 26 264l260 -29l-5 -35q-1 -12 -8 -65t-7 -89q0 -110 68.5 -157.5t205.5 -47.5h397q-15 29 -25 93.5t-10 109.5q0 129 48 233.5t141 166t224 61.5q123 0 208.5 -59.5t128.5 -163t43 -234.5v-462h-1209q-250 0 -368 101t-118 313zM1299 647q-57 0 -89 -50.5
t-32 -143.5q0 -79 37 -138.5t112 -59.5h83v188q0 92 -29 148t-82 56zM1425 1329q0 -36 -17.5 -67t-48.5 -49.5t-69 -18.5q-36 0 -67 18t-49.5 49t-18.5 68t18 68t49 49t68 18q36 0 67.5 -18t49.5 -49t18 -68z" />
    <glyph glyph-name="uni0642" unicode="&#x642;" horiz-adv-x="1301" arabic-form="isolated" 
d="M741 45q-105 0 -179 54.5t-111.5 145t-37.5 197.5q0 123 49 231t142.5 174.5t221.5 66.5q132 0 215.5 -69.5t120.5 -182t37 -247.5v-281q0 -191 -69 -357.5t-209.5 -269.5t-343.5 -103q-176 0 -306.5 69.5t-200.5 200t-70 311.5q0 195 79 403l249 -109q-44 -128 -44 -257
q0 -88 34 -165t102.5 -124.5t167.5 -47.5q103 0 174.5 55t109.5 141.5t44 198.5l-5 4q-44 -20 -88 -29.5t-82 -9.5zM790 644q-55 0 -87 -53.5t-32 -150.5q0 -87 37 -133t102 -46q50 0 104 25v163q0 90 -31.5 142.5t-92.5 52.5zM770 1326q0 -36 -17.5 -67t-48.5 -49.5
t-69 -18.5q-36 0 -67 18t-49.5 49t-18.5 68t18 68t49 49t68 18q36 0 67 -18t49.5 -49t18.5 -68zM1091 1326q0 -36 -17.5 -67t-48.5 -49.5t-69 -18.5q-36 0 -67 18t-49.5 49t-18.5 68t18 68t49 49t68 18q36 0 67 -18t49.5 -49t18.5 -68z" />
    <glyph glyph-name="uni0643" unicode="&#x643;" horiz-adv-x="1574" arabic-form="isolated" 
d="M0 412q0 108 26 266l255 -29q-14 -114 -14 -177q0 -118 67 -167.5t210 -49.5h627v1181h284v-1436h-964q-249 0 -370 98t-121 314zM614 703q-9 20 -13.5 43t-4.5 39q0 55 21.5 99t62 69t95.5 25q43 0 114 -13l-11 -147q-39 14 -73 14q-29 0 -45.5 -16t-16.5 -41
q0 -33 23.5 -52.5t61.5 -19.5h68v-149h-335v149h53z" />
    <glyph glyph-name="uni0644" unicode="&#x644;" horiz-adv-x="1183" arabic-form="isolated" 
d="M1064 234q0 -170 -59 -322t-183 -247.5t-308 -95.5q-165 0 -281 78.5t-174.5 214t-58.5 304.5q0 103 26 212.5t78 213.5l242 -121q-33 -69 -53 -146t-20 -140q0 -80 26.5 -153t84.5 -120.5t147 -47.5t145 56.5t80.5 142t24.5 176.5v1197h283v-1202z" />
    <glyph glyph-name="uni0645" unicode="&#x645;" horiz-adv-x="1178" arabic-form="isolated" 
d="M0 -115q0 178 69 304t211 201q56 253 170 379.5t266 126.5q116 0 201.5 -67.5t130 -175t44.5 -223.5q0 -112 -42.5 -213t-126.5 -164.5t-202 -63.5q-89 0 -171 31.5t-146 89.5q-61 -18 -92 -73.5t-31 -144.5q0 -216 109 -551l-272 -90q-42 139 -80 328.5t-38 305.5z
M692 247q72 0 108.5 42.5t36.5 124.5q0 43 -13 86.5t-42 73.5t-74 30q-79 0 -129.5 -86t-61.5 -207q41 -29 87 -46.5t88 -17.5z" />
    <glyph glyph-name="uni0646" unicode="&#x646;" horiz-adv-x="1151" arabic-form="isolated" 
d="M1064 242q0 -189 -64.5 -342t-188.5 -242t-297 -89q-169 0 -285 79.5t-172.5 215t-56.5 305.5q0 100 26 209.5t78 213.5l242 -121q-73 -151 -73 -283q0 -72 23 -145.5t82.5 -126t152.5 -52.5q90 0 146 56t80 138.5t24 178.5q0 71 -23.5 175t-54.5 192l277 94
q32 -106 58 -236.5t26 -219.5zM669 1080q0 -36 -17.5 -67t-48.5 -49.5t-69 -18.5q-36 0 -67 18t-49.5 49t-18.5 68t18 68t49 49t68 18q36 0 67.5 -18t49.5 -49t18 -68z" />
    <glyph glyph-name="uni0648" unicode="&#x648;" horiz-adv-x="959" arabic-form="isolated" 
d="M578 70q-36 -12 -77 -18.5t-73 -6.5q-112 0 -192.5 49.5t-122.5 139t-42 208.5q0 132 51 240t145 170t218 62q132 0 215 -70t119.5 -182.5t36.5 -245.5v-185q0 -317 -166.5 -477.5t-497.5 -178.5l-26 266q184 14 279.5 69.5t132.5 159.5zM454 644q-55 0 -87 -54t-32 -150
q0 -88 39 -133.5t111 -45.5q52 0 93 14v170q0 94 -31.5 146.5t-92.5 52.5z" />
    <glyph glyph-name="uni0649" unicode="&#x649;" horiz-adv-x="1340" arabic-form="isolated" 
d="M1000 584q-41 0 -66 -20.5t-25 -56.5q0 -33 28.5 -68.5t105.5 -113.5q63 -63 99 -130.5t36 -134.5q0 -100 -64.5 -213.5t-194.5 -192.5t-315 -79q-206 0 -342 85t-199 217.5t-63 278.5q0 110 34 223t98 219l242 -139q-48 -80 -71 -156t-23 -154q0 -82 41 -150.5
t119.5 -109t185.5 -40.5q90 0 150 29t88 73t28 89q0 51 -45 106q-41 52 -96 112q-125 136 -125 280q0 102 49 180t133.5 120t187.5 42q61 0 135 -19t138 -48l-68 -275q-60 21 -113.5 33.5t-87.5 12.5z" />
    <glyph glyph-name="uni064A" unicode="&#x64a;" horiz-adv-x="1340" arabic-form="isolated" 
d="M1000 584q-41 0 -66 -20.5t-25 -56.5q0 -33 28.5 -68.5t105.5 -113.5q63 -63 99 -130.5t36 -134.5q0 -100 -64.5 -213.5t-194.5 -192.5t-315 -79q-206 0 -342 85t-199 217.5t-63 278.5q0 110 34 223t98 219l242 -139q-48 -80 -71 -156t-23 -154q0 -82 41 -150.5
t119.5 -109t185.5 -40.5q90 0 150 29t88 73t28 89q0 51 -45 106q-41 52 -96 112q-125 136 -125 280q0 102 49 180t133.5 120t187.5 42q61 0 135 -19t138 -48l-68 -275q-60 21 -113.5 33.5t-87.5 12.5zM583 -789q0 -36 -17.5 -67t-48.5 -49.5t-69 -18.5q-36 0 -67 18
t-49.5 49t-18.5 68t18 68t49 49t68 18q36 0 67 -18t49.5 -49t18.5 -68zM904 -789q0 -36 -17.5 -67t-48.5 -49.5t-69 -18.5q-36 0 -67 18t-49.5 49t-18.5 68t18 68t49 49t68 18q36 0 67 -18t49.5 -49t18.5 -68z" />
    <glyph glyph-name="uni0671" unicode="&#x671;" horiz-adv-x="522" arabic-form="isolated" 
d="M403 1436v-1436h-285v1436h285zM86 1668v226h104v-45q31 30 69.5 46.5t80.5 16.5q73 0 114.5 -54t41.5 -153v-169h-477v132h67zM306 1800q-19 0 -42.5 -16.5t-41.5 -47t-19 -67.5h167v41q0 90 -64 90z" />
    <glyph glyph-name="uni0679" unicode="&#x679;" horiz-adv-x="1574" arabic-form="isolated" 
d="M0 412q0 108 26 266l255 -29q-14 -124 -14 -176q0 -76 27 -123.5t88 -71t164 -23.5h625v625h284v-880h-965q-249 0 -369.5 98.5t-120.5 313.5zM559 1088v487h133v-233q63 52 138 52q87 0 136 -68.5t49 -185.5v-192h-540v140h84zM798 1255q-42 0 -85.5 -45t-69.5 -122h241
v48q0 57 -20 88t-66 31z" />
    <glyph glyph-name="uni067E" unicode="&#x67e;" horiz-adv-x="1574" arabic-form="isolated" 
d="M0 412q0 108 26 266l255 -29q-14 -124 -14 -176q0 -76 27 -123.5t88 -71t164 -23.5h625v625h284v-880h-965q-249 0 -369.5 98.5t-120.5 313.5zM750 -371q0 -36 -17.5 -67t-48.5 -49.5t-69 -18.5q-36 0 -67 18t-49.5 49t-18.5 68t18 68t49 49t68 18q36 0 67 -18t49.5 -49
t18.5 -68zM1071 -371q0 -36 -17.5 -67t-48.5 -49.5t-69 -18.5q-36 0 -67 18t-49.5 49t-18.5 68t18 68t49 49t68 18q36 0 67 -18t49.5 -49t18.5 -68zM916 -725q0 -36 -17.5 -67t-48.5 -49.5t-69 -18.5q-36 0 -67 18t-49.5 49t-18.5 68t18 68t49 49t68 18q36 0 67 -18
t49.5 -49t18.5 -68z" />
    <glyph glyph-name="uni0686" unicode="&#x686;" horiz-adv-x="999" arabic-form="isolated" 
d="M496 -753q-166 0 -277.5 68.5t-165 181t-53.5 244.5q0 149 53 265.5t159.5 182.5t259.5 66h122q-12 20 -20.5 60t-14.5 105q-12 131 -52 188.5t-117 57.5q-40 0 -96 -10.5t-109 -28.5v247q77 28 145.5 44.5t131.5 16.5q154 0 247 -101.5t105 -291.5q23 -287 115 -287
v-255h-404q-119 0 -185.5 -64t-66.5 -180q0 -58 25 -110.5t85 -89t157 -39.5l21 -268q-40 -2 -65 -2zM545 -312q-43 0 -75 31.5t-32 75.5t31 75.5t76 31.5q43 0 74 -31t33 -76q0 -43 -31.5 -75t-75.5 -32zM799 -312q-43 0 -75 31.5t-32 75.5t31 75.5t76 31.5q43 0 75 -31.5
t32 -75.5q0 -43 -31.5 -75t-75.5 -32zM676 -553q-43 0 -75 31.5t-32 75.5q0 43 31 75t76 32q43 0 75 -31.5t32 -75.5q0 -43 -31.5 -75t-75.5 -32z" />
    <glyph glyph-name="uni0688" unicode="&#x688;" horiz-adv-x="826" arabic-form="isolated" 
d="M345 255q66 0 101 27.5t35 83.5q0 70 -49.5 156.5t-109.5 159t-141 159.5l213 197q175 -187 260.5 -351t85.5 -313q0 -109 -44 -193t-134.5 -132.5t-224.5 -48.5h-303v255h311zM178 1268v487h133v-233q63 52 138 52q87 0 136 -68.5t49 -185.5v-192h-540v140h84zM417 1435
q-42 0 -85.5 -45t-69.5 -122h241v48q0 57 -20 88t-66 31z" />
    <glyph glyph-name="uni0691" unicode="&#x691;" horiz-adv-x="589" arabic-form="isolated" 
d="M186 155v725h285v-676q0 -164 -27 -291t-118 -223.5t-274 -131.5l-86 258q90 24 138 67.5t65 107.5t17 164zM102 1284v487h133v-233q63 52 138 52q87 0 136 -68.5t49 -185.5v-192h-540v140h84zM341 1451q-42 0 -85.5 -45t-69.5 -122h241v48q0 57 -20 88t-66 31z" />
    <glyph glyph-name="uni0698" unicode="&#x698;" horiz-adv-x="589" arabic-form="isolated" 
d="M186 155v725h285v-676q0 -164 -27 -291t-118 -223.5t-274 -131.5l-86 258q90 24 138 67.5t65 107.5t17 164zM464 1680q0 -36 -17.5 -67t-48.5 -49.5t-69 -18.5q-36 0 -67 18t-49.5 49t-18.5 68t18 68t49 49t68 18q36 0 67 -18t49.5 -49t18.5 -68zM309 1326
q0 -36 -17.5 -67t-48.5 -49.5t-69 -18.5q-36 0 -67 18t-49.5 49t-18.5 68t18 68t49 49t68 18q36 0 67 -18t49.5 -49t18.5 -68zM630 1326q0 -36 -17.5 -67t-48.5 -49.5t-69 -18.5q-36 0 -67 18t-49.5 49t-18.5 68t18 68t49 49t68 18q36 0 67 -18t49.5 -49t18.5 -68z" />
    <glyph glyph-name="uni06A4" unicode="&#x6a4;" horiz-adv-x="1797" arabic-form="isolated" 
d="M0 414q0 87 26 264l260 -29l-5 -35q-1 -12 -8 -65t-7 -89q0 -110 68.5 -157.5t205.5 -47.5h397q-15 29 -25 93.5t-10 109.5q0 129 48 233.5t141 166t224 61.5q123 0 208.5 -59.5t128.5 -163t43 -234.5v-462h-1209q-250 0 -368 101t-118 313zM1299 647q-57 0 -89 -50.5
t-32 -143.5q0 -79 37 -138.5t112 -59.5h83v188q0 92 -29 148t-82 56zM1419 1680q0 -36 -17.5 -67t-48.5 -49.5t-69 -18.5q-36 0 -67 18t-49.5 49t-18.5 68t18 68t49 49t68 18q36 0 67 -18t49.5 -49t18.5 -68zM1264 1326q0 -36 -17.5 -67t-48.5 -49.5t-69 -18.5q-36 0 -67 18
t-49.5 49t-18.5 68t18 68t49 49t68 18q36 0 67 -18t49.5 -49t18.5 -68zM1585 1326q0 -36 -17.5 -67t-48.5 -49.5t-69 -18.5q-36 0 -67 18t-49.5 49t-18.5 68t18 68t49 49t68 18q36 0 67 -18t49.5 -49t18.5 -68z" />
    <glyph glyph-name="uni06A9" unicode="&#x6a9;" horiz-adv-x="1491" arabic-form="isolated" 
d="M0 414q0 108 26 264l255 -29q-14 -114 -14 -178q0 -122 71 -169t205 -47h440q68 0 105.5 33t37.5 91q0 68 -79 156.5t-238 201.5l358 727l238 -128l-248 -519q116 -92 178.5 -203t62.5 -238q0 -125 -47.5 -209.5t-131 -125.5t-190.5 -41h-538q-159 0 -267 39t-166 130
t-58 245z" />
    <glyph glyph-name="uni06AF" unicode="&#x6af;" horiz-adv-x="1491" arabic-form="isolated" 
d="M0 414q0 108 26 264l255 -29q-14 -114 -14 -178q0 -122 71 -169t205 -47h440q68 0 105.5 33t37.5 91q0 68 -79 156.5t-238 201.5l358 727l238 -128l-248 -519q116 -92 178.5 -203t62.5 -238q0 -125 -47.5 -209.5t-131 -125.5t-190.5 -41h-538q-159 0 -267 39t-166 130
t-58 245zM1078 1501l-350 -712l-210 147l345 695z" />
    <glyph glyph-name="uni06BA" unicode="&#x6ba;" horiz-adv-x="1151" arabic-form="isolated" 
d="M1064 242q0 -189 -64.5 -342t-188.5 -242t-297 -89q-169 0 -285 79.5t-172.5 215t-56.5 305.5q0 100 26 209.5t78 213.5l242 -121q-73 -151 -73 -283q0 -72 23 -145.5t82.5 -126t152.5 -52.5q90 0 146 56t80 138.5t24 178.5q0 71 -23.5 175t-54.5 192l277 94
q32 -106 58 -236.5t26 -219.5z" />
    <glyph glyph-name="uni06BE" unicode="&#x6be;" horiz-adv-x="1295" arabic-form="isolated" 
d="M187 -190h-130q-25 57 -41 121t-16 121q0 79 22.5 122.5t68.5 62t128 18.5h31q-24 90 -24 204q0 87 27.5 175t76.5 168l-48 13q42 127 125 234q301 -73 469 -165q165 -91 241 -220.5t76 -321.5q-6 -190 -11 -342h-922q-35 0 -49.5 -30.5t-18.5 -65.5t-5 -94zM632 484
q0 49 -9.5 107.5t-33 103t-63.5 44.5q-38 0 -62.5 -40.5t-33.5 -93t-9 -95.5q0 -63 13.5 -139t40.5 -116h126q18 46 24.5 102.5t6.5 126.5zM949 349q0 117 -53 199.5t-149 118.5q24 -48 34 -141q12 -96 12 -271h150l3 4q3 36 3 90z" />
    <glyph glyph-name="uni06C1" unicode="&#x6c1;" horiz-adv-x="846" arabic-form="isolated" 
d="M397 0h-32q-112 0 -194 52.5t-126.5 144t-44.5 208.5q0 177 62 299t152 181t170 59q91 0 177.5 -58.5t142 -174.5t55.5 -279q0 -110 -40 -209t-122 -161t-200 -62zM494 469q0 43 -10.5 93t-37.5 86.5t-71 36.5q-29 0 -56.5 -29.5t-45 -80.5t-17.5 -112q0 -102 31.5 -155
t90.5 -53q55 0 85.5 56t30.5 158z" />
    <glyph glyph-name="uni06C2.fina" unicode="&#x6c2;" horiz-adv-x="681" 
d="M418 196q-59 99 -108 99q-25 0 -46 -24.5t-33.5 -71.5t-12.5 -104q0 -72 16 -152h-218q-10 49 -13 85t-3 95q0 139 43.5 238.5t111.5 149t141 49.5q59 0 103 -23t76 -59.5t71 -95.5q3 -4 26.5 -39.5t53 -61.5t53.5 -26h3q31 0 41.5 -20.5t10.5 -68.5v-57q0 -61 -9.5 -85
t-38.5 -24h-38q-51 0 -93 28t-70 66t-67 102zM128 1033q-12 28 -18.5 61t-6.5 60q0 78 31.5 140t90 98.5t135.5 36.5t165 -19l-16 -212q-57 20 -107 20q-40 0 -64 -23t-24 -59q0 -47 34 -75t89 -28h98v-215h-483v215h76z" />
    <glyph glyph-name="uni06C3.fina" unicode="&#x6c3;" horiz-adv-x="950" 
d="M534 103q-52 -21 -93.5 -29t-90.5 -8q-94 0 -174 41t-128 121.5t-48 193.5q0 175 125 301t373 201v120h284v-720q0 -39 8 -54t31 -15h129q31 0 41.5 -20.5t10.5 -68.5v-57q0 -61 -9.5 -85t-38.5 -24h-172q-97 0 -157.5 24.5t-90.5 78.5zM275 424q0 -52 32 -82.5t88 -30.5
q21 0 49.5 5.5t52.5 15.5l2 326q-111 -32 -167.5 -92.5t-56.5 -141.5zM485 1382q0 -36 -17.5 -67t-48.5 -49.5t-69 -18.5q-36 0 -67 18t-49.5 49t-18.5 68t18 68t49 49t68 18q36 0 67 -18t49.5 -49t18.5 -68zM806 1382q0 -36 -17.5 -67t-48.5 -49.5t-69 -18.5q-36 0 -67 18
t-49.5 49t-18.5 68t18 68t49 49t68 18q36 0 67 -18t49.5 -49t18.5 -68z" />
    <glyph glyph-name="uni06CC" unicode="&#x6cc;" horiz-adv-x="1340" arabic-form="isolated" 
d="M1000 584q-41 0 -66 -20.5t-25 -56.5q0 -33 28.5 -68.5t105.5 -113.5q63 -63 99 -130.5t36 -134.5q0 -100 -64.5 -213.5t-194.5 -192.5t-315 -79q-206 0 -342 85t-199 217.5t-63 278.5q0 110 34 223t98 219l242 -139q-48 -80 -71 -156t-23 -154q0 -82 41 -150.5
t119.5 -109t185.5 -40.5q90 0 150 29t88 73t28 89q0 51 -45 106q-41 52 -96 112q-125 136 -125 280q0 102 49 180t133.5 120t187.5 42q61 0 135 -19t138 -48l-68 -275q-60 21 -113.5 33.5t-87.5 12.5z" />
    <glyph glyph-name="uni06D2" unicode="&#x6d2;" horiz-adv-x="1714" arabic-form="isolated" 
d="M672 -67q-337 0 -504.5 82t-167.5 256q0 167 156 306.5t479 255.5l86 -253q-219 -70 -336 -142q-119 -74 -119 -127q0 -103 419 -103q176 0 420.5 27.5t417.5 68.5l-19 -283q-182 -41 -409 -64.5t-423 -23.5z" />
    <glyph glyph-name="uni06D3" unicode="&#x6d3;" horiz-adv-x="1714" arabic-form="isolated" 
d="M672 -67q-337 0 -504.5 82t-167.5 256q0 167 156 306.5t479 255.5l86 -253q-219 -70 -336 -142q-119 -74 -119 -127q0 -103 419 -103q176 0 420.5 27.5t417.5 68.5l-19 -283q-182 -41 -409 -64.5t-423 -23.5zM97 1170q-12 28 -18.5 61t-6.5 60q0 78 31.5 140t90 98.5
t135.5 36.5t165 -19l-16 -212q-57 20 -107 20q-40 0 -64 -23t-24 -59q0 -47 34 -75t89 -28h98v-215h-483v215h76z" />
    <glyph glyph-name="uni06D5.fina" unicode="&#x6d5;" horiz-adv-x="950" 
d="M534 103q-52 -21 -93.5 -29t-90.5 -8q-94 0 -174 41t-128 121.5t-48 193.5q0 175 125 301t373 201v120h284v-720q0 -39 8 -54t31 -15h129q31 0 41.5 -20.5t10.5 -68.5v-57q0 -61 -9.5 -85t-38.5 -24h-172q-97 0 -157.5 24.5t-90.5 78.5zM275 424q0 -52 32 -82.5t88 -30.5
q21 0 49.5 5.5t52.5 15.5l2 326q-111 -32 -167.5 -92.5t-56.5 -141.5z" />
    <glyph glyph-name="uniFB51" unicode="&#x671;" horiz-adv-x="579" arabic-form="final" 
d="M118 360v1076h285v-1018q0 -87 30 -125t89 -38h58q31 0 41.5 -20.5t10.5 -68.5v-57q0 -61 -9.5 -85t-38.5 -24h-174q-292 0 -292 360zM86 1668v226h104v-45q31 30 69.5 46.5t80.5 16.5q73 0 114.5 -54t41.5 -153v-169h-477v132h67zM306 1800q-19 0 -42.5 -16.5t-41.5 -47
t-19 -67.5h167v41q0 90 -64 90z" />
    <glyph glyph-name="uniFB57" unicode="&#x67e;" horiz-adv-x="1567" arabic-form="final" 
d="M1341 104q-34 -52 -87 -78t-122 -26h-642q-249 0 -369.5 98t-120.5 314q0 108 26 266l254 -29q-13 -105 -13 -179q0 -117 67.5 -166t209.5 -49h479q47 0 70.5 30t23.5 83v512h286v-564l-1 -22q66 -39 152 -39h15q31 0 41.5 -20.5t10.5 -68.5v-57q0 -61 -9.5 -85
t-38.5 -24h-10q-57 0 -114.5 27.5t-107.5 76.5zM737 -371q0 -36 -17.5 -67t-48.5 -49.5t-69 -18.5q-36 0 -67 18t-49.5 49t-18.5 68t18 68t49 49t68 18q36 0 67 -18t49.5 -49t18.5 -68zM1058 -371q0 -36 -17.5 -67t-48.5 -49.5t-69 -18.5q-36 0 -67 18t-49.5 49t-18.5 68
t18 68t49 49t68 18q36 0 67 -18t49.5 -49t18.5 -68zM903 -725q0 -36 -17.5 -67t-48.5 -49.5t-69 -18.5q-36 0 -67 18t-49.5 49t-18.5 68t18 68t49 49t68 18q36 0 67 -18t49.5 -49t18.5 -68z" />
    <glyph glyph-name="uniFB58" unicode="&#x67e;" horiz-adv-x="646" arabic-form="initial" 
d="M-54 107v54q0 54 11 74t39 20h177v625h285v-880h-465q-28 0 -37.5 24t-9.5 83zM285 -371q0 -36 -17.5 -67t-48.5 -49.5t-69 -18.5q-36 0 -67 18t-49.5 49t-18.5 68t18 68t49 49t68 18q36 0 67 -18t49.5 -49t18.5 -68zM606 -371q0 -36 -17.5 -67t-48.5 -49.5t-69 -18.5
q-36 0 -67 18t-49.5 49t-18.5 68t18 68t49 49t68 18q36 0 67 -18t49.5 -49t18.5 -68zM451 -725q0 -36 -17.5 -67t-48.5 -49.5t-69 -18.5q-36 0 -67 18t-49.5 49t-18.5 68t18 68t49 49t68 18q36 0 67 -18t49.5 -49t18.5 -68z" />
    <glyph glyph-name="uniFB59" unicode="&#x67e;" horiz-adv-x="644" arabic-form="medial" 
d="M401 122q-71 -122 -219 -122h-189q-28 0 -37.5 24t-9.5 83v54q0 54 11 74t39 20h114q34 0 46.5 21t12.5 71v533h286v-554l-1 -16q43 -29 87.5 -42t95.5 -13h8q31 0 41.5 -20.5t10.5 -68.5v-57q0 -61 -9.5 -85t-38.5 -24h-9q-62 0 -124.5 32t-114.5 90zM285 -371
q0 -36 -17.5 -67t-48.5 -49.5t-69 -18.5q-36 0 -67 18t-49.5 49t-18.5 68t18 68t49 49t68 18q36 0 67 -18t49.5 -49t18.5 -68zM606 -371q0 -36 -17.5 -67t-48.5 -49.5t-69 -18.5q-36 0 -67 18t-49.5 49t-18.5 68t18 68t49 49t68 18q36 0 67 -18t49.5 -49t18.5 -68zM451 -725
q0 -36 -17.5 -67t-48.5 -49.5t-69 -18.5q-36 0 -67 18t-49.5 49t-18.5 68t18 68t49 49t68 18q36 0 67 -18t49.5 -49t18.5 -68z" />
    <glyph glyph-name="uniFB67" unicode="&#x679;" horiz-adv-x="1567" arabic-form="final" 
d="M1341 104q-34 -52 -87 -78t-122 -26h-642q-249 0 -369.5 98t-120.5 314q0 108 26 266l254 -29q-13 -105 -13 -179q0 -117 67.5 -166t209.5 -49h479q47 0 70.5 30t23.5 83v512h286v-564l-1 -22q66 -39 152 -39h15q31 0 41.5 -20.5t10.5 -68.5v-57q0 -61 -9.5 -85
t-38.5 -24h-10q-57 0 -114.5 27.5t-107.5 76.5zM521 1088v487h133v-233q63 52 138 52q87 0 136 -68.5t49 -185.5v-192h-540v140h84zM760 1255q-42 0 -85.5 -45t-69.5 -122h241v48q0 57 -20 88t-66 31z" />
    <glyph glyph-name="uniFB68" unicode="&#x679;" horiz-adv-x="577" arabic-form="initial" 
d="M-54 107v54q0 54 11 74t39 20h177v625h285v-880h-465q-28 0 -37.5 24t-9.5 83zM111 1194v487h133v-233q63 52 138 52q87 0 136 -68.5t49 -185.5v-192h-540v140h84zM350 1361q-42 0 -85.5 -45t-69.5 -122h241v48q0 57 -20 88t-66 31z" />
    <glyph glyph-name="uniFB69" unicode="&#x679;" horiz-adv-x="644" arabic-form="medial" 
d="M401 122q-71 -122 -219 -122h-189q-28 0 -37.5 24t-9.5 83v54q0 54 11 74t39 20h114q34 0 46.5 21t12.5 71v533h286v-554l-1 -16q43 -29 87.5 -42t95.5 -13h8q31 0 41.5 -20.5t10.5 -68.5v-57q0 -61 -9.5 -85t-38.5 -24h-9q-62 0 -124.5 32t-114.5 90zM121 1199v487h133
v-233q63 52 138 52q87 0 136 -68.5t49 -185.5v-192h-540v140h84zM360 1366q-42 0 -85.5 -45t-69.5 -122h241v48q0 57 -20 88t-66 31z" />
    <glyph glyph-name="uniFB6B" unicode="&#x6a4;" horiz-adv-x="1792" arabic-form="final" 
d="M1346 29q-64 -11 -280 -20t-318 -9h-256q-258 0 -375 99t-117 318q0 50 8 126t18 135l261 -29q-20 -131 -20 -190q0 -110 68.5 -157t207.5 -47h399q-17 42 -31.5 108t-14.5 111q0 120 51.5 222t146.5 162.5t220 60.5q121 0 203.5 -53t123.5 -146t41 -214q0 -125 -42 -251
h152q31 0 41.5 -20.5t10.5 -68.5v-57q0 -61 -9.5 -85t-38.5 -24h-144q-64 0 -151.5 8.5t-154.5 20.5zM1395 477q0 85 -28.5 132.5t-81.5 47.5q-51 0 -82.5 -45t-31.5 -120q0 -51 21 -106.5t60 -93t90 -37.5h15q38 103 38 222zM1412 1680q0 -36 -17.5 -67t-48.5 -49.5
t-69 -18.5q-36 0 -67 18t-49.5 49t-18.5 68t18 68t49 49t68 18q36 0 67 -18t49.5 -49t18.5 -68zM1257 1326q0 -36 -17.5 -67t-48.5 -49.5t-69 -18.5q-36 0 -67 18t-49.5 49t-18.5 68t18 68t49 49t68 18q36 0 67 -18t49.5 -49t18.5 -68zM1578 1326q0 -36 -17.5 -67
t-48.5 -49.5t-69 -18.5q-36 0 -67 18t-49.5 49t-18.5 68t18 68t49 49t68 18q36 0 67 -18t49.5 -49t18.5 -68z" />
    <glyph glyph-name="uniFB6C" unicode="&#x6a4;" horiz-adv-x="1011" arabic-form="initial" 
d="M-54 107v54q0 54 11 74t39 20h157q-17 41 -26.5 97t-9.5 106q0 129 47.5 234t140.5 166t224 61q114 0 199.5 -55t132.5 -158t47 -245v-461h-915q-28 0 -37.5 24t-9.5 83zM513 647q-58 0 -89.5 -50t-31.5 -144q0 -87 39 -142.5t104 -55.5h89v180q0 101 -29 156.5t-82 55.5
zM659 1680q0 -36 -17.5 -67t-48.5 -49.5t-69 -18.5q-36 0 -67 18t-49.5 49t-18.5 68t18 68t49 49t68 18q36 0 67 -18t49.5 -49t18.5 -68zM504 1326q0 -36 -17.5 -67t-48.5 -49.5t-69 -18.5q-36 0 -67 18t-49.5 49t-18.5 68t18 68t49 49t68 18q36 0 67 -18t49.5 -49t18.5 -68
zM825 1326q0 -36 -17.5 -67t-48.5 -49.5t-69 -18.5q-36 0 -67 18t-49.5 49t-18.5 68t18 68t49 49t68 18q36 0 67 -18t49.5 -49t18.5 -68z" />
    <glyph glyph-name="uniFB6D" unicode="&#x6a4;" horiz-adv-x="1008" arabic-form="medial" 
d="M562 29q-129 -16 -225.5 -22.5t-196.5 -6.5h-146q-28 0 -37.5 24t-9.5 83v54q0 54 11 74t39 20h160q-19 42 -32 107t-13 111q0 121 52 223.5t148.5 162.5t210.5 60q127 0 210.5 -53t124.5 -145t41 -211q0 -58 -12 -129t-31 -126h152q31 0 41.5 -20.5t10.5 -68.5v-57
q0 -61 -9.5 -85t-38.5 -24h-143q-143 0 -307 29zM612 477q0 85 -28.5 132.5t-81.5 47.5q-51 0 -82.5 -45t-31.5 -120q0 -51 21 -106.5t60 -93t91 -37.5h14q38 103 38 222zM618 1680q0 -36 -17.5 -67t-48.5 -49.5t-69 -18.5q-36 0 -67 18t-49.5 49t-18.5 68t18 68t49 49
t68 18q36 0 67 -18t49.5 -49t18.5 -68zM463 1326q0 -36 -17.5 -67t-48.5 -49.5t-69 -18.5q-36 0 -67 18t-49.5 49t-18.5 68t18 68t49 49t68 18q36 0 67 -18t49.5 -49t18.5 -68zM784 1326q0 -36 -17.5 -67t-48.5 -49.5t-69 -18.5q-36 0 -67 18t-49.5 49t-18.5 68t18 68t49 49
t68 18q36 0 67 -18t49.5 -49t18.5 -68z" />
    <glyph glyph-name="uniFB7B" unicode="&#x686;" horiz-adv-x="939" arabic-form="final" 
d="M494 -753q-153 0 -264.5 64t-170.5 175t-59 249q0 148 52.5 266t158.5 186t261 68h122q-24 41 -36 172q-7 67 -20.5 117t-49 86t-98.5 36q-38 0 -95 -10.5t-110 -28.5v247q167 61 277 61q154 0 245.5 -99.5t107.5 -299.5q22 -281 114 -281h10q27 0 39.5 -20.5t12.5 -68.5
v-57q0 -61 -9.5 -85t-38.5 -24h-419q-117 0 -184 -64t-67 -178q0 -58 25 -111.5t84.5 -90.5t157.5 -39l16 -264q-31 -6 -62 -6zM545 -312q-43 0 -75 31.5t-32 75.5t31 75.5t76 31.5q43 0 75 -31.5t32 -75.5q0 -43 -31.5 -75t-75.5 -32zM799 -312q-43 0 -75 31.5t-32 75.5
t31 75.5t76 31.5q43 0 74 -31t33 -76q0 -43 -31.5 -75t-75.5 -32zM676 -553q-43 0 -75 31.5t-32 75.5q0 43 31 75t76 32q43 0 75 -31.5t32 -75.5q0 -43 -31.5 -75t-75.5 -32z" />
    <glyph glyph-name="uniFB7C" unicode="&#x686;" horiz-adv-x="916" arabic-form="initial" 
d="M-54 107v54q0 54 11 74t39 20h519q-12 18 -20.5 47t-17.5 103q-8 78 -23.5 133.5t-50 91.5t-97.5 36q-44 0 -100 -11t-104 -28v247q81 29 146.5 45t129.5 16q152 0 245 -102t109 -302q14 -140 41 -208t72 -68v-255h-852q-28 0 -37.5 24t-9.5 83zM390 -371
q0 -36 -17.5 -67t-48.5 -49.5t-69 -18.5q-36 0 -67 18t-49.5 49t-18.5 68t18 68t49 49t68 18q36 0 67 -18t49.5 -49t18.5 -68zM711 -371q0 -36 -17.5 -67t-48.5 -49.5t-69 -18.5q-36 0 -67 18t-49.5 49t-18.5 68t18 68t49 49t68 18q36 0 67 -18t49.5 -49t18.5 -68zM556 -725
q0 -36 -17.5 -67t-48.5 -49.5t-69 -18.5q-36 0 -67 18t-49.5 49t-18.5 68t18 68t49 49t68 18q36 0 67 -18t49.5 -49t18.5 -68z" />
    <glyph glyph-name="uniFB7D" unicode="&#x686;" horiz-adv-x="855" arabic-form="medial" 
d="M-54 107v54q0 54 11 74t39 20h517q-18 30 -31 126q-9 90 -21.5 144t-48.5 97.5t-104 43.5q-43 0 -100.5 -11.5t-103.5 -27.5v247q80 28 146.5 44.5t128.5 16.5q160 0 252.5 -110.5t104.5 -310.5q24 -259 119 -259h4q27 0 37.5 -21t10.5 -68v-57q0 -61 -9.5 -85t-38.5 -24
h-866q-28 0 -37.5 24t-9.5 83zM390 -371q0 -36 -17.5 -67t-48.5 -49.5t-69 -18.5q-36 0 -67 18t-49.5 49t-18.5 68t18 68t49 49t68 18q36 0 67 -18t49.5 -49t18.5 -68zM711 -371q0 -36 -17.5 -67t-48.5 -49.5t-69 -18.5q-36 0 -67 18t-49.5 49t-18.5 68t18 68t49 49t68 18
q36 0 67 -18t49.5 -49t18.5 -68zM556 -725q0 -36 -17.5 -67t-48.5 -49.5t-69 -18.5q-36 0 -67 18t-49.5 49t-18.5 68t18 68t49 49t68 18q36 0 67 -18t49.5 -49t18.5 -68z" />
    <glyph glyph-name="uniFB89" unicode="&#x688;" horiz-adv-x="921" arabic-form="final" 
d="M666 135q-46 -66 -125 -100.5t-186 -34.5h-322v255h307q69 0 104.5 28.5t35.5 84.5q0 91 -91 222.5t-208 250.5l212 197q171 -183 258.5 -344t87.5 -291q0 -37 -7 -97q39 -26 87 -38.5t92 -12.5h20q18 0 26 -4t12 -18.5t4 -46.5v-77q0 -61 -9.5 -85t-38.5 -24h-8
q-71 0 -135 36.5t-116 98.5zM158 1268v487h133v-233q63 52 138 52q87 0 136 -68.5t49 -185.5v-192h-540v140h84zM397 1435q-42 0 -85.5 -45t-69.5 -122h241v48q0 57 -20 88t-66 31z" />
    <glyph glyph-name="uniFB8B" unicode="&#x698;" horiz-adv-x="642" arabic-form="final" 
d="M337 -299q-98 -106 -285 -143l-86 258q107 25 164 97q56 71 56 230v737h285v-626h172q31 0 41.5 -20.5t10.5 -68.5v-56q0 -61 -9.5 -85t-38.5 -24h-191q-21 -195 -119 -299zM464 1680q0 -36 -17.5 -67t-48.5 -49.5t-69 -18.5q-36 0 -67 18t-49.5 49t-18.5 68t18 68t49 49
t68 18q36 0 67 -18t49.5 -49t18.5 -68zM309 1326q0 -36 -17.5 -67t-48.5 -49.5t-69 -18.5q-36 0 -67 18t-49.5 49t-18.5 68t18 68t49 49t68 18q36 0 67 -18t49.5 -49t18.5 -68zM630 1326q0 -36 -17.5 -67t-48.5 -49.5t-69 -18.5q-36 0 -67 18t-49.5 49t-18.5 68t18 68t49 49
t68 18q36 0 67 -18t49.5 -49t18.5 -68z" />
    <glyph glyph-name="uniFB8D" unicode="&#x691;" horiz-adv-x="642" arabic-form="final" 
d="M337 -299q-98 -106 -285 -143l-86 258q107 25 164 97q56 71 56 230v737h285v-626h172q31 0 41.5 -20.5t10.5 -68.5v-56q0 -61 -9.5 -85t-38.5 -24h-191q-21 -195 -119 -299zM102 1284v487h133v-233q63 52 138 52q87 0 136 -68.5t49 -185.5v-192h-540v140h84zM341 1451
q-42 0 -85.5 -45t-69.5 -122h241v48q0 57 -20 88t-66 31z" />
    <glyph glyph-name="uniFB8F" unicode="&#x6a9;" horiz-adv-x="1579" arabic-form="final" 
d="M1327 131q-97 -131 -299 -131h-538q-241 0 -365.5 94t-124.5 319q0 107 26 265l255 -29q-14 -110 -14 -177q0 -112 64 -164.5t212 -52.5h444q66 0 102.5 33t36.5 91q0 68 -79 156.5t-238 201.5l357 735l239 -136l-248 -519q116 -91 178.5 -203t62.5 -236q0 -8 -6 -74
q42 -24 91 -36.5t88 -12.5h7q31 0 41.5 -20.5t10.5 -68.5v-57q0 -61 -9.5 -85t-38.5 -24h-8q-65 0 -130 35t-117 96z" />
    <glyph glyph-name="uniFB90" unicode="&#x6a9;" horiz-adv-x="743" arabic-form="initial" 
d="M-54 107v54q0 54 11 74t39 20h245q136 0 136 115q0 71 -81 164.5t-235 202.5l359 732l236 -133l-248 -519q117 -92 179 -203.5t62 -237.5q0 -98 -33.5 -182t-117 -139t-223.5 -55h-282q-28 0 -37.5 24t-9.5 83z" />
    <glyph glyph-name="uniFB91" unicode="&#x6a9;" horiz-adv-x="837" arabic-form="medial" 
d="M586 130q-100 -130 -300 -130h-293q-28 0 -37.5 24t-9.5 83v54q0 54 11 74t39 20h257q62 0 97 29.5t35 78.5q0 77 -78.5 169t-237.5 205l360 733l233 -134l-247 -519q117 -92 179 -203t62 -240q0 -35 -3 -70q39 -25 80.5 -37t92.5 -12h10q31 0 41.5 -20.5t10.5 -68.5v-57
q0 -61 -9.5 -85t-38.5 -24h-10q-63 0 -128 35t-116 95z" />
    <glyph glyph-name="uniFB93" unicode="&#x6af;" horiz-adv-x="1579" arabic-form="final" 
d="M1327 131q-97 -131 -299 -131h-538q-241 0 -365.5 94t-124.5 319q0 107 26 265l255 -29q-14 -110 -14 -177q0 -112 64 -164.5t212 -52.5h444q66 0 102.5 33t36.5 91q0 68 -79 156.5t-238 201.5l357 735l239 -136l-248 -519q116 -91 178.5 -203t62.5 -236q0 -8 -6 -74
q42 -24 91 -36.5t88 -12.5h7q31 0 41.5 -20.5t10.5 -68.5v-57q0 -61 -9.5 -85t-38.5 -24h-8q-65 0 -130 35t-117 96zM1078 1501l-350 -712l-210 147l345 695z" />
    <glyph glyph-name="uniFB94" unicode="&#x6af;" horiz-adv-x="899" arabic-form="initial" 
d="M506 1501l-350 -712l-210 147l345 695zM-42 107v54q0 54 11 74t39 20h393q65 0 99 29.5t34 81.5q0 76 -79 167.5t-237 203.5l359 732l236 -133l-248 -519q116 -91 178.5 -203t62.5 -238q0 -97 -34.5 -181t-118.5 -139t-222 -56h-426q-28 0 -37.5 24t-9.5 83z" />
    <glyph glyph-name="uniFB95" unicode="&#x6af;" horiz-adv-x="986" arabic-form="medial" 
d="M506 1501l-350 -712l-210 147l345 695zM736 130q-100 -130 -301 -130h-429q-28 0 -37.5 24t-9.5 83v54q0 54 11 74t39 20h393q64 0 98.5 29.5t34.5 78.5q0 77 -78.5 169t-237.5 205l360 733l233 -134l-247 -519q241 -191 241 -439l-1 -35q-2 -24 -2 -39q77 -49 177 -49h6
q31 0 41.5 -20.5t10.5 -68.5v-57q0 -61 -9.5 -85t-38.5 -24h-8q-65 0 -129.5 34.5t-116.5 95.5z" />
    <glyph glyph-name="uniFB9F" unicode="&#x6ba;" horiz-adv-x="1238" arabic-form="final" 
d="M1050 70q-28 -145 -96.5 -256t-179 -176t-257.5 -65q-166 0 -282.5 76t-175.5 213.5t-59 308.5q1 203 91 418l250 -111q-67 -154 -67 -313q0 -81 27.5 -148t85 -108t144.5 -41q85 0 141.5 46.5t82.5 120.5t26 160q0 193 -78 413l278 94q50 -166 78 -401q41 -24 86 -35
t87 -11h6q31 0 41.5 -20.5t10.5 -68.5v-57q0 -61 -9.5 -85t-38.5 -24h-8q-49 0 -96 19t-88 51z" />
    <glyph glyph-name="uniFBA5" unicode="&#x6c0;" horiz-adv-x="950" arabic-form="final" 
d="M534 103q-52 -21 -93.5 -29t-90.5 -8q-94 0 -174 41t-128 121.5t-48 193.5q0 175 125 301t373 201v120h284v-720q0 -39 8 -54t31 -15h129q31 0 41.5 -20.5t10.5 -68.5v-57q0 -61 -9.5 -85t-38.5 -24h-172q-97 0 -157.5 24.5t-90.5 78.5zM275 424q0 -52 32 -82.5t88 -30.5
q21 0 49.5 5.5t52.5 15.5l2 326q-111 -32 -167.5 -92.5t-56.5 -141.5zM259 1469q-12 28 -18.5 61t-6.5 60q0 78 31.5 140t90 98.5t135.5 36.5t165 -19l-16 -212q-57 20 -107 20q-40 0 -64 -23t-24 -59q0 -47 34 -75t89 -28h98v-215h-483v215h76z" />
    <glyph glyph-name="uniFBA7" unicode="&#x6c1;" horiz-adv-x="681" arabic-form="final" 
d="M418 196q-59 99 -108 99q-25 0 -46 -24.5t-33.5 -71.5t-12.5 -104q0 -72 16 -152h-218q-10 49 -13 85t-3 95q0 139 43.5 238.5t111.5 149t141 49.5q59 0 103 -23t76 -59.5t71 -95.5q3 -4 26.5 -39.5t53 -61.5t53.5 -26h3q31 0 41.5 -20.5t10.5 -68.5v-57q0 -61 -9.5 -85
t-38.5 -24h-38q-51 0 -93 28t-70 66t-67 102z" />
    <glyph glyph-name="uniFBA8" unicode="&#x6c1;" horiz-adv-x="577" arabic-form="initial" 
d="M325 -136q0 -36 17 -57t47 -21q20 0 55 12q-65 -193 -197 -193q-64 0 -103.5 46t-39.5 128q0 53 12.5 105t39.5 116h-163q-28 0 -37.5 24t-9.5 83v54q0 54 11 74t39 20h177v625h285v-880h-94q-39 -67 -39 -136z" />
    <glyph glyph-name="uniFBA9" unicode="&#x6c1;" horiz-adv-x="831" arabic-form="medial" 
d="M578 -240q-49 -146 -80 -479q-130 44 -221 133t-136.5 205t-45.5 242q0 68 9 139h-111q-28 0 -37.5 24t-9.5 83v54q0 54 11 74t39 20h375q-24 -73 -41 -156.5t-17 -151.5q0 -78 19 -157.5t58 -136.5h8q55 331 147 466q91 136 257 136h29q31 0 41.5 -20.5t10.5 -68.5v-57
q0 -61 -9.5 -85t-38.5 -24h-47q-78 -3 -127.5 -69.5t-82.5 -170.5z" />
    <glyph glyph-name="uniFBAB" unicode="&#x6be;" horiz-adv-x="1110" arabic-form="final" 
d="M998 -191q0 -110 -41 -199.5t-110 -140t-150 -50.5q-99 0 -194 65q-96 67 -156.5 198t-74.5 318h-13q-34 0 -49.5 -32t-18.5 -67.5t-4 -90.5h-130q-26 58 -41.5 121.5t-15.5 120.5q0 82 23.5 125.5t71 60t128.5 17.5h64q37 286 166 468q128 180 269 180q85 0 151 -66.5
t101.5 -165t35.5 -187.5q0 -53 -13.5 -117.5t-35.5 -111.5h149q31 0 41.5 -20.5t10.5 -68.5v-57q0 -61 -9.5 -85t-38.5 -24h-159q43 -106 43 -191zM773 446q0 31 -8 73t-27.5 74.5t-50.5 32.5q-51 0 -102 -113q-49 -113 -60 -258h131q54 0 85.5 51t31.5 140zM575 -223
q48 -92 106 -92q36 0 57.5 40t21.5 103q0 35 -11 75t-36 68.5t-62 28.5h-126q3 -130 50 -223z" />
    <glyph glyph-name="uniFBAC" unicode="&#x6be;" horiz-adv-x="1206" arabic-form="initial" 
d="M-54 107v54q0 54 11 74t39 20h165q-24 90 -24 204q0 78 27 169.5t77 173.5l-48 13q43 128 125 234q304 -73 469 -165q165 -90 241 -220.5t76 -321.5q0 -59 -11 -342h-1100q-28 0 -37.5 24t-9.5 83zM543 484q0 49 -9.5 107.5t-33 103t-63.5 44.5q-37 0 -62 -40.5
t-34 -93.5t-9 -95q0 -68 12.5 -140.5t41.5 -114.5h126q16 42 23.5 104.5t7.5 124.5zM860 348q0 119 -53 201t-149 118q23 -48 35 -142q11 -99 11 -270h150l3 4q3 33 3 89z" />
    <glyph glyph-name="uniFBAD" unicode="&#x6be;" horiz-adv-x="1045" arabic-form="medial" 
d="M869 -191q0 -102 -37 -190.5t-105 -144t-158 -55.5q-102 0 -195.5 65.5t-155.5 197t-75 318.5h-150q-28 0 -37.5 24t-9.5 83v54q0 54 11 74t39 20h162q41 293 167 470q127 178 268 178q70 0 137 -57t109 -156t42 -218q0 -53 -13 -110.5t-36 -106.5h213q31 0 41.5 -20.5
t10.5 -68.5v-57q0 -61 -9.5 -85t-38.5 -24h-223q43 -106 43 -191zM644 445q0 33 -7.5 74.5t-27 74t-52.5 32.5q-50 0 -101 -113q-50 -113 -60 -258h131q54 0 85.5 52.5t31.5 137.5zM447 -226q47 -89 105 -89q35 0 57 39.5t22 103.5q0 35 -11 75t-36 68.5t-62 28.5h-126
q5 -138 51 -226z" />
    <glyph glyph-name="uniFBAF" unicode="&#x6d2;" horiz-adv-x="800" arabic-form="final" 
d="M606 -472q-299 0 -452.5 94t-153.5 276q0 146 81 225t215.5 105.5t274.5 26.5h230q31 0 41.5 -20.5t10.5 -68.5v-57q0 -61 -8.5 -85t-39.5 -24h-307q-126 0 -180.5 -21.5t-54.5 -67.5q0 -34 43 -60t127 -41t203 -15q198 0 403 20.5t430 59.5l-20 -262
q-185 -39 -400.5 -62t-442.5 -23z" />
    <glyph glyph-name="uniFBB1" unicode="&#x6d3;" horiz-adv-x="820" arabic-form="final" 
d="M606 -472q-299 0 -452.5 94t-153.5 276q0 146 81 225t215.5 105.5t274.5 26.5h230q31 0 41.5 -20.5t10.5 -68.5v-57q0 -61 -8.5 -85t-39.5 -24h-307q-126 0 -180.5 -21.5t-54.5 -67.5q0 -34 43 -60t127 -41t203 -15q198 0 403 20.5t430 59.5l-20 -262
q-185 -39 -400.5 -62t-442.5 -23zM105 749q-12 28 -18.5 61t-6.5 60q0 78 31.5 140t90 98.5t135.5 36.5t165 -19l-16 -212q-57 20 -107 20q-40 0 -64 -23t-24 -59q0 -47 34 -75t89 -28h98v-215h-483v215h76z" />
    <glyph glyph-name="uniFBE8" unicode="&#x649;" horiz-adv-x="577" arabic-form="initial" 
d="M-54 107v54q0 54 11 74t39 20h177v625h285v-880h-465q-28 0 -37.5 24t-9.5 83z" />
    <glyph glyph-name="uniFBE9" unicode="&#x649;" horiz-adv-x="644" arabic-form="medial" 
d="M401 122q-71 -122 -219 -122h-189q-28 0 -37.5 24t-9.5 83v54q0 54 11 74t39 20h114q34 0 46.5 21t12.5 71v533h286v-554l-1 -16q43 -29 87.5 -42t95.5 -13h8q31 0 41.5 -20.5t10.5 -68.5v-57q0 -61 -9.5 -85t-38.5 -24h-9q-62 0 -124.5 32t-114.5 90z" />
    <glyph glyph-name="uniFBFD" unicode="&#x6cc;" horiz-adv-x="1782" arabic-form="final" 
d="M1329 345v262h-37q-63 0 -89.5 -58.5t-26.5 -131.5v-305q0 -137 -64.5 -259.5t-195.5 -200t-319 -77.5q-204 0 -338 81.5t-196.5 210t-62.5 273.5q0 112 36 234.5t107 237.5l230 -151q-41 -68 -64.5 -148t-23.5 -158q0 -80 32.5 -149.5t102.5 -113t177 -43.5
q295 0 295 308v269q0 227 105 341t313 114h303v-508q0 -118 89 -118h80q31 0 41.5 -20.5t10.5 -68.5v-57q0 -61 -9.5 -85t-38.5 -24h-177q-132 0 -206 90.5t-74 254.5z" />
    <glyph glyph-name="uniFBFE" unicode="&#x6cc;" horiz-adv-x="645" arabic-form="initial" 
d="M-54 118v23q0 46 3 69t14 34t35 11h243v625h285v-880h-528q-22 0 -32.5 8t-15 33t-4.5 77zM317 -368q0 -36 -17.5 -67t-48.5 -49.5t-69 -18.5q-36 0 -67 18t-49.5 49t-18.5 68t18 68t49 49t68 18q36 0 67 -18t49.5 -49t18.5 -68zM638 -368q0 -36 -17.5 -67t-48.5 -49.5
t-69 -18.5q-36 0 -67 18t-49.5 49t-18.5 68t18 68t49 49t68 18q36 0 67 -18t49.5 -49t18.5 -68z" />
    <glyph glyph-name="uniFBFF" unicode="&#x6cc;" horiz-adv-x="644" arabic-form="medial" 
d="M401 122q-71 -122 -219 -122h-189q-28 0 -37.5 24t-9.5 83v54q0 54 11 74t39 20h114q34 0 46.5 21t12.5 71v533h286v-554l-1 -16q43 -29 87.5 -42t95.5 -13h8q31 0 41.5 -20.5t10.5 -68.5v-57q0 -61 -9.5 -85t-38.5 -24h-9q-62 0 -124.5 32t-114.5 90zM273 -365
q0 -36 -17.5 -67t-48.5 -49.5t-69 -18.5q-36 0 -67 18t-49.5 49t-18.5 68t18 68t49 49t68 18q36 0 67 -18t49.5 -49t18.5 -68zM594 -365q0 -36 -17.5 -67t-48.5 -49.5t-69 -18.5q-36 0 -67 18t-49.5 49t-18.5 68t18 68t49 49t68 18q36 0 67 -18t49.5 -49t18.5 -68z" />
    <glyph glyph-name="aShadda_aDammatan" unicode="&#xfc5e;" arabic-form="isolated" 
d="M275 1909q0 -97 -47.5 -156.5t-117.5 -59.5q-31 0 -60 16.5t-50 44.5q-23 -28 -52.5 -44.5t-60.5 -16.5q-48 0 -85.5 27t-58.5 76.5t-21 114.5v200h111v-205q0 -35 15.5 -53.5t40.5 -18.5q24 0 41 21.5t17 50.5v178h105v-177q0 -31 16.5 -52t40.5 -21q27 0 41.5 18.5
t14.5 53.5v206h110v-203zM22 2348q17 0 36 5q-26 36 -39.5 75t-13.5 78q0 54 21 99.5t54.5 69t69.5 23.5q65 0 102.5 -48.5t37.5 -128.5q0 -94 -44 -163t-107.5 -105t-120.5 -36q-54 0 -97 27.5t-79 85.5l-79 -97l-65 90l149 192q94 -167 175 -167zM191 2507q0 30 -12 46.5
t-30 16.5t-31 -17.5t-13 -46.5q0 -44 44 -98q19 20 30.5 46t11.5 53z" />
    <glyph glyph-name="uni064D0651" unicode="&#xfc5f;" arabic-form="isolated" 
d="M275 2429q0 -97 -47.5 -156.5t-117.5 -59.5q-31 0 -60 16.5t-50 44.5q-23 -28 -52.5 -44.5t-60.5 -16.5q-48 0 -85.5 27t-58.5 76.5t-21 114.5v200h111v-205q0 -35 15.5 -53.5t40.5 -18.5q24 0 41 21.5t17 50.5v178h105v-177q0 -31 16.5 -52t40.5 -21q27 0 41.5 18.5
t14.5 53.5v206h110v-203zM221 2063v-145h-447v145h447zM221 1838v-145h-447v145h447z" />
    <glyph glyph-name="uni064E0651" unicode="&#xfc60;" arabic-form="isolated" 
d="M275 1909q0 -97 -47.5 -156.5t-117.5 -59.5q-31 0 -60 16.5t-50 44.5q-23 -28 -52.5 -44.5t-60.5 -16.5q-48 0 -85.5 27t-58.5 76.5t-21 114.5v200h111v-205q0 -35 15.5 -53.5t40.5 -18.5q24 0 41 21.5t17 50.5v178h105v-177q0 -31 16.5 -52t40.5 -21q27 0 41.5 18.5
t14.5 53.5v206h110v-203zM221 2388v-145h-447v145h447z" />
    <glyph glyph-name="uni064F0651" unicode="&#xfc61;" arabic-form="isolated" 
d="M275 1909q0 -97 -47.5 -156.5t-117.5 -59.5q-31 0 -60 16.5t-50 44.5q-23 -28 -52.5 -44.5t-60.5 -16.5q-48 0 -85.5 27t-58.5 76.5t-21 114.5v200h111v-205q0 -35 15.5 -53.5t40.5 -18.5q24 0 41 21.5t17 50.5v178h105v-177q0 -31 16.5 -52t40.5 -21q27 0 41.5 18.5
t14.5 53.5v206h110v-203zM-11 2394q18 0 42 6q-52 73 -52 152q0 56 21 99.5t54.5 68t69.5 24.5q66 0 103 -49t37 -135q0 -85 -42 -153t-107.5 -106t-133.5 -38q-48 0 -101.5 12t-106.5 35l24 128q61 -24 103 -34t89 -10zM165 2555q0 27 -12 44t-30 17t-31 -17t-13 -44
q0 -23 9.5 -46.5t34.5 -53.5q19 19 30.5 45t11.5 55z" />
    <glyph glyph-name="uni06500651" unicode="&#xfc62;" arabic-form="isolated" 
d="M275 2179q0 -97 -47.5 -156.5t-117.5 -59.5q-31 0 -60 16.5t-50 44.5q-23 -28 -52.5 -44.5t-60.5 -16.5q-48 0 -85.5 27t-58.5 76.5t-21 114.5v200h111v-205q0 -35 15.5 -53.5t40.5 -18.5q24 0 41 21.5t17 50.5v178h105v-177q0 -31 16.5 -52t40.5 -21q27 0 41.5 18.5
t14.5 53.5v206h110v-203zM221 1838v-145h-447v145h447z" />
    <glyph glyph-name="uni06510670" unicode="&#xfc63;" arabic-form="isolated" 
d="M275 1909q0 -97 -47.5 -156.5t-117.5 -59.5q-31 0 -60 16.5t-50 44.5q-23 -28 -52.5 -44.5t-60.5 -16.5q-48 0 -85.5 27t-58.5 76.5t-21 114.5v200h111v-205q0 -35 15.5 -53.5t40.5 -18.5q24 0 41 21.5t17 50.5v178h105v-177q0 -31 16.5 -52t40.5 -21q27 0 41.5 18.5
t14.5 53.5v206h110v-203zM57 2687v-475h-120v475h120z" />
    <glyph glyph-name="uniFDF2" unicode="&#xfdf2;" horiz-adv-x="2683" arabic-form="isolated" 
d="M1362 122q-71 -122 -218 -122h-361q-95 0 -155 27.5t-91 83.5q-94 -45 -185 -45q-147 0 -250 95q-102 95 -102 261q0 174 125 300.5t373 201.5v120h284v-720q0 -40 8 -54.5t30 -14.5h253q30 0 43.5 20.5t13.5 68.5v1093h286v-1127q40 -29 88 -42t91 -13h166v1182h285
v-1437h-451q-55 0 -116 31.5t-117 90.5zM2565 1437v-1437h-285v1437h285zM275 424q0 -55 29.5 -84t83.5 -29q24 0 54.5 9t56.5 24v314q-111 -30 -167.5 -91.5t-56.5 -142.5z" />
    <glyph glyph-name="uniFDFA" unicode="&#xfdfa;" horiz-adv-x="2165" arabic-form="isolated" 
d="M1702 16l35 74q24 -74 24 -108q0 -67 -22.5 -101.5t-67.5 -34.5q-46 0 -98 39q-31 -53 -121 -53q-98 0 -98 53q-44 -32 -143 -51.5t-235 -19.5q-229 0 -321 77t-96 238l-42 -63q-38 -55 -56 -56q7 -9 15.5 -34.5t8.5 -49.5q0 -41 -20.5 -71.5t-54.5 -30.5q-40 0 -125 47
q-17 -41 -52 -72q-36 -33 -75 -33q-38 0 -74 -14q-12 0 -12 10q0 12 52 33t75 36l71 54q-20 36 -20 81q0 46 37 86q38 42 69 42q6 0 30 -12t42 -12q47 0 83 64l12 21l26 48q-97 26 -138 81q-40 54 -55 148h-4q-60 -102 -162 -102q-36 0 -75 14q-37 13 -37 28q0 50 85 114
q84 65 177 94l-4 34l41 68v-2q17 -219 43 -285q28 -66 115 -94l-27 270l39 87l35 -367q107 -12 194 -12q212 0 363 81l16 44q12 33 22 33h3q6 0 6 -17q0 -19 -8 -51q72 -72 120 -72q56 0 86 88l-26 330h-9q-72 0 -114.5 37.5t-56.5 113.5h-4q-16 -65 -36.5 -101t-47.5 -46
l4 -4l29 1q57 -1 85.5 -20.5t28.5 -60.5t-26 -73q-26 -31 -135 -86q-109 -56 -218 -56q-95 0 -152 48t-57 134q0 64 33 137q-29 8 -48 29.5t-30 58.5h-4q-31 -104 -113 -104q-48 0 -72 36t-24 110v12l-59 -52q-13 -12 -76 -12q-100 0 -100 37q0 21 27 64q29 45 46 53l160 78
v20l35 74l8 -240q3 -92 66 -92q34 0 65 25q32 26 28 53l-32 223l37 80q32 -178 53 -309q10 -64 72 -64q47 0 47 28q0 38 -32 143l-42 140l27 68q82 -252 82 -322q0 -40 -23 -94q-23 -53 -49 -53q-12 0 -18 6q-15 -42 -15 -80q0 -153 187 -153q102 0 195 45q92 44 100 59
q-4 13 -98 28l-105 17q-8 6 -8 17q0 18 18 43q19 26 22 25q2 -1 49 23q45 25 68 58q11 17 11 57q0 188 -41 469l34 114q37 -324 68 -484q32 -153 158 -174l-10 196l43 92l16 -286q54 18 123 73q40 -30 71 -48t70 -25q50 52 147 122q95 68 131 68q38 0 87 -31q49 -30 49 -65
q0 -28 -36 -87q-36 -57 -119 -78q-82 -21 -179 -21q-49 0 -98 4q-49 -97 -78 -97q-8 0 -8 13q0 29 45 96q-85 33 -99 53q-43 -28 -66.5 -40.5t-35.5 -12.5q14 -273 48 -354q35 -80 175 -88l4 4q-43 31 -43 88q0 63 55 142t136 79q56 0 108 -35q51 -34 51 -63q-59 18 -108 18
q-74 0 -130 -28q-56 -29 -56 -56q0 -32 58 -87q54 -51 85 -51q29 0 137 35q100 31 137 52l-34 -76q-205 -108 -392 -108q-195 0 -243 149q-60 -133 -117 -133q-53 0 -137 90q-130 -115 -404 -115q-80 0 -143 11q15 -138 51 -190q36 -54 130.5 -81.5t244.5 -27.5
q232 0 338 65q16 39 30 57.5t28 18.5q7 0 7 -16q0 -30 -24 -91q12 -26 56 -26q51 0 99 24q24 73 40 104.5t29 31.5q7 -4 7 -23q0 -34 -20 -88q65 -27 90 -27q12 0 16 6v3q0 13 -16 77zM1669 1444l-12 -45l-400 -197l9 51zM664 1362q0 -66 -43 -66q-26 0 -43 17
q-16 -14 -32.5 -22.5t-29.5 -8.5q-43 0 -43 57q0 41 4 48q4 8 15 18v-14q-2 -62 34 -62q22 0 39 33l-4 47l19 29l8 -63q5 -32 30 -32q24 0 24 24l-7 52l14 21q15 -37 15 -78zM975 915q-3 -69 -9.5 -104.5t-17.5 -43.5l-51 495l45 116zM1716 1187q-164 -81 -164 -108
q0 -23 54 -51l-19 -49q-67 22 -67 82q0 57 44 84q38 24 182 100q131 69 259 115l-18 -51q-113 -43 -271 -122zM303 962q-70 -28 -70 -50q0 -21 52 -21q59 0 104 27l-2 79q-26 -12 -84 -35zM1757 791q92 0 180 18q88 19 88 51q0 13 -36 32q-34 19 -55 19q-39 0 -110 -42
q-66 -39 -108 -76q2 0 13 -1t28 -1zM245 494q-79 -37 -79 -62q0 -20 62 -20q71 0 122 49q0 9 -2 45l-2 33q-19 -6 -101 -45zM1939 -82q-27 0 -50 29t-23 61q0 47 33 107q33 61 55 61q28 0 68 -54q42 -52 42 -118q0 -104 -84 -228t-178 -124q-42 0 -120 32q-76 31 -76 48
q0 8 10 8q9 0 55 -15q45 -16 76 -16q136 0 283 217l-15 45q-36 -53 -76 -53zM922 84l59 72l96 -72l56 68l100 -76l-53 -64l-99 72l-57 -74zM1986 70q-13 16 -34 16q-16 0 -26 -13q-11 -14 -15 -38q3 -18 19 -27q16 -10 43 -10q16 0 23 6q7 4 9 16q-6 34 -19 50zM397 -15
q-41 35 -79 35q-12 0 -19.5 -6t-7.5 -18q0 -25 52 -55q52 -31 81 -31q6 0 10 2t4 5q0 33 -41 68zM844 -367q59 0 92 5q30 4 85 38q54 33 73 33q16 0 38 -16q23 -17 28 -17q30 0 34 31q6 31 25 31q8 0 8 -13q0 -5 -2 -18q3 -5 11 -8.5t12 -3.5q24 0 24 28q0 27 21 29
q1 -8 1 -23q0 -40 -12 -50q-13 -15 -43 -15q-16 0 -29 8q-29 -32 -61 -32q-15 0 -34 17q-17 17 -25 17q-16 0 -77 -35q-58 -36 -145 -36q-83 0 -88 15v2q4 13 64 13z" />
    <glyph glyph-name="uniFE82" unicode="&#x622;" horiz-adv-x="579" arabic-form="final" 
d="M118 360v1076h285v-1018q0 -87 30 -125t89 -38h58q31 0 41.5 -20.5t10.5 -68.5v-57q0 -61 -9.5 -85t-38.5 -24h-174q-292 0 -292 360zM432 1537q-46 0 -88.5 15.5t-108.5 50.5q-75 39 -127 39q-54 0 -130 -72l-98 97q60 77 117.5 117.5t108.5 40.5q57 0 159 -55
q96 -52 156 -52q39 0 68.5 15.5t68.5 56.5l99 -88q-49 -76 -106 -120.5t-119 -44.5z" />
    <glyph glyph-name="uniFE84" unicode="&#x623;" horiz-adv-x="579" arabic-form="final" 
d="M118 360v1076h285v-1018q0 -87 30 -125t89 -38h58q31 0 41.5 -20.5t10.5 -68.5v-57q0 -61 -9.5 -85t-38.5 -24h-174q-292 0 -292 360zM143 1685q-18 42 -18 85q0 54 22 97t62.5 68t93.5 25q26 0 49.5 -3t65.5 -10l-11 -147q-39 14 -73 14q-29 0 -45.5 -16t-16.5 -41
q0 -33 23.5 -52.5t61.5 -19.5h68v-149h-335v149h53z" />
    <glyph glyph-name="uniFE86" unicode="&#x624;" horiz-adv-x="1017" arabic-form="final" 
d="M192 -425l-26 266q95 10 159.5 23t126.5 49.5t103 103.5q-51 -7 -82 -7q-121 0 -212 54t-140.5 151.5t-49.5 226.5q0 126 49 234t143 173t223 65q128 0 214 -71.5t121.5 -185t35.5 -249.5v-153h161q31 0 41.5 -20.5t10.5 -68.5v-57q0 -61 -9.5 -85t-38.5 -24h-196
q-38 -145 -125.5 -234.5t-214 -133t-294.5 -57.5zM454 644q-51 0 -84.5 -50.5t-33.5 -135.5q0 -51 17.5 -97.5t53.5 -76t89 -29.5h82v170q0 103 -32.5 161t-91.5 58zM265 1282q-12 28 -18.5 61t-6.5 60q0 78 31.5 140t90 98.5t135.5 36.5t165 -19l-16 -212q-57 20 -107 20
q-40 0 -64 -23t-24 -59q0 -47 34 -75t89 -28h98v-215h-483v215h76z" />
    <glyph glyph-name="uniFE88" unicode="&#x625;" horiz-adv-x="579" arabic-form="final" 
d="M118 360v1076h285v-1018q0 -87 30 -125t89 -38h58q31 0 41.5 -20.5t10.5 -68.5v-57q0 -61 -9.5 -85t-38.5 -24h-174q-292 0 -292 360zM156 -453q-18 42 -18 85q0 54 22 97t62.5 68t93.5 25q26 0 49.5 -3t65.5 -10l-11 -147q-39 14 -73 14q-29 0 -45.5 -16t-16.5 -41
q0 -33 23.5 -52.5t61.5 -19.5h68v-149h-335v149h53z" />
    <glyph glyph-name="uniFE8A" unicode="&#x626;" horiz-adv-x="1782" arabic-form="final" 
d="M1329 345v262h-37q-63 0 -89.5 -58.5t-26.5 -131.5v-305q0 -137 -64.5 -259.5t-195.5 -200t-319 -77.5q-204 0 -338 81.5t-196.5 210t-62.5 273.5q0 112 36 234.5t107 237.5l230 -151q-41 -68 -64.5 -148t-23.5 -158q0 -80 32.5 -149.5t102.5 -113t177 -43.5
q295 0 295 308v269q0 227 105 341t313 114h303v-508q0 -118 89 -118h80q31 0 41.5 -20.5t10.5 -68.5v-57q0 -61 -9.5 -85t-38.5 -24h-177q-132 0 -206 90.5t-74 254.5zM43 928q-12 28 -18.5 61t-6.5 60q0 78 31.5 140t90 98.5t135.5 36.5t165 -19l-16 -212q-57 20 -107 20
q-40 0 -64 -23t-24 -59q0 -47 34 -75t89 -28h98v-215h-483v215h76z" />
    <glyph glyph-name="uniFE8B" unicode="&#x626;" horiz-adv-x="577" arabic-form="initial" 
d="M-54 107v54q0 54 11 74t39 20h177v625h285v-880h-465q-28 0 -37.5 24t-9.5 83zM171 1295q-12 28 -18.5 61t-6.5 60q0 78 31.5 140t90 98.5t135.5 36.5t165 -19l-16 -212q-57 20 -107 20q-40 0 -64 -23t-24 -59q0 -47 34 -75t89 -28h98v-215h-483v215h76z" />
    <glyph glyph-name="uniFE8C" unicode="&#x626;" horiz-adv-x="644" arabic-form="medial" 
d="M401 122q-71 -122 -219 -122h-189q-28 0 -37.5 24t-9.5 83v54q0 54 11 74t39 20h114q34 0 46.5 21t12.5 71v533h286v-554l-1 -16q43 -29 87.5 -42t95.5 -13h8q31 0 41.5 -20.5t10.5 -68.5v-57q0 -61 -9.5 -85t-38.5 -24h-9q-62 0 -124.5 32t-114.5 90zM132 1295
q-12 28 -18.5 61t-6.5 60q0 78 31.5 140t90 98.5t135.5 36.5t165 -19l-16 -212q-57 20 -107 20q-40 0 -64 -23t-24 -59q0 -47 34 -75t89 -28h98v-215h-483v215h76z" />
    <glyph glyph-name="uniFE8E" unicode="&#x627;" horiz-adv-x="579" arabic-form="final" 
d="M118 360v1076h285v-1018q0 -87 30 -125t89 -38h58q31 0 41.5 -20.5t10.5 -68.5v-57q0 -61 -9.5 -85t-38.5 -24h-174q-292 0 -292 360z" />
    <glyph glyph-name="uniFE90" unicode="&#x628;" horiz-adv-x="1567" arabic-form="final" 
d="M1341 104q-34 -52 -87 -78t-122 -26h-642q-249 0 -369.5 98t-120.5 314q0 108 26 266l254 -29q-13 -105 -13 -179q0 -117 67.5 -166t209.5 -49h479q47 0 70.5 30t23.5 83v512h286v-564l-1 -22q66 -39 152 -39h15q31 0 41.5 -20.5t10.5 -68.5v-57q0 -61 -9.5 -85
t-38.5 -24h-10q-57 0 -114.5 27.5t-107.5 76.5zM885 -375q0 -36 -17.5 -67t-48.5 -49.5t-69 -18.5q-36 0 -67 18t-49.5 49t-18.5 68t18 68t49 49t68 18q36 0 67.5 -18t49.5 -49t18 -68z" />
    <glyph glyph-name="uniFE91" unicode="&#x628;" horiz-adv-x="577" arabic-form="initial" 
d="M-54 107v54q0 54 11 74t39 20h177v625h285v-880h-465q-28 0 -37.5 24t-9.5 83zM418 -375q0 -36 -17.5 -67t-48.5 -49.5t-69 -18.5q-36 0 -67 18t-49.5 49t-18.5 68t18 68t49 49t68 18q36 0 67.5 -18t49.5 -49t18 -68z" />
    <glyph glyph-name="uniFE92" unicode="&#x628;" horiz-adv-x="644" arabic-form="medial" 
d="M401 122q-71 -122 -219 -122h-189q-28 0 -37.5 24t-9.5 83v54q0 54 11 74t39 20h114q34 0 46.5 21t12.5 71v533h286v-554l-1 -16q43 -29 87.5 -42t95.5 -13h8q31 0 41.5 -20.5t10.5 -68.5v-57q0 -61 -9.5 -85t-38.5 -24h-9q-62 0 -124.5 32t-114.5 90zM446 -375
q0 -36 -17.5 -67t-48.5 -49.5t-69 -18.5q-36 0 -67 18t-49.5 49t-18.5 68t18 68t49 49t68 18q36 0 67.5 -18t49.5 -49t18 -68z" />
    <glyph glyph-name="uniFE94" unicode="&#x629;" horiz-adv-x="950" arabic-form="final" 
d="M534 103q-52 -21 -93.5 -29t-90.5 -8q-94 0 -174 41t-128 121.5t-48 193.5q0 175 125 301t373 201v120h284v-720q0 -39 8 -54t31 -15h129q31 0 41.5 -20.5t10.5 -68.5v-57q0 -61 -9.5 -85t-38.5 -24h-172q-97 0 -157.5 24.5t-90.5 78.5zM275 424q0 -52 32 -82.5t88 -30.5
q21 0 49.5 5.5t52.5 15.5l2 326q-111 -32 -167.5 -92.5t-56.5 -141.5zM485 1382q0 -36 -17.5 -67t-48.5 -49.5t-69 -18.5q-36 0 -67 18t-49.5 49t-18.5 68t18 68t49 49t68 18q36 0 67 -18t49.5 -49t18.5 -68zM806 1382q0 -36 -17.5 -67t-48.5 -49.5t-69 -18.5q-36 0 -67 18
t-49.5 49t-18.5 68t18 68t49 49t68 18q36 0 67 -18t49.5 -49t18.5 -68z" />
    <glyph glyph-name="uniFE96" unicode="&#x62a;" horiz-adv-x="1567" arabic-form="final" 
d="M1341 104q-34 -52 -87 -78t-122 -26h-642q-249 0 -369.5 98t-120.5 314q0 108 26 266l254 -29q-13 -105 -13 -179q0 -117 67.5 -166t209.5 -49h479q47 0 70.5 30t23.5 83v512h286v-564l-1 -22q66 -39 152 -39h15q31 0 41.5 -20.5t10.5 -68.5v-57q0 -61 -9.5 -85
t-38.5 -24h-10q-57 0 -114.5 27.5t-107.5 76.5zM726 1326q0 -36 -17.5 -67t-48.5 -49.5t-69 -18.5q-36 0 -67 18t-49.5 49t-18.5 68t18 68t49 49t68 18q36 0 67 -18t49.5 -49t18.5 -68zM1047 1326q0 -36 -17.5 -67t-48.5 -49.5t-69 -18.5q-36 0 -67 18t-49.5 49t-18.5 68
t18 68t49 49t68 18q36 0 67 -18t49.5 -49t18.5 -68z" />
    <glyph glyph-name="uniFE97" unicode="&#x62a;" horiz-adv-x="577" arabic-form="initial" 
d="M-54 107v54q0 54 11 74t39 20h177v625h285v-880h-465q-28 0 -37.5 24t-9.5 83zM305 1326q0 -36 -17.5 -67t-48.5 -49.5t-69 -18.5q-36 0 -67 18t-49.5 49t-18.5 68t18 68t49 49t68 18q36 0 67 -18t49.5 -49t18.5 -68zM626 1326q0 -36 -17.5 -67t-48.5 -49.5t-69 -18.5
q-36 0 -67 18t-49.5 49t-18.5 68t18 68t49 49t68 18q36 0 67 -18t49.5 -49t18.5 -68z" />
    <glyph glyph-name="uniFE98" unicode="&#x62a;" horiz-adv-x="644" arabic-form="medial" 
d="M401 122q-71 -122 -219 -122h-189q-28 0 -37.5 24t-9.5 83v54q0 54 11 74t39 20h114q34 0 46.5 21t12.5 71v533h286v-554l-1 -16q43 -29 87.5 -42t95.5 -13h8q31 0 41.5 -20.5t10.5 -68.5v-57q0 -61 -9.5 -85t-38.5 -24h-9q-62 0 -124.5 32t-114.5 90zM262 1326
q0 -36 -17.5 -67t-48.5 -49.5t-69 -18.5q-36 0 -67 18t-49.5 49t-18.5 68t18 68t49 49t68 18q36 0 67 -18t49.5 -49t18.5 -68zM583 1326q0 -36 -17.5 -67t-48.5 -49.5t-69 -18.5q-36 0 -67 18t-49.5 49t-18.5 68t18 68t49 49t68 18q36 0 67 -18t49.5 -49t18.5 -68z" />
    <glyph glyph-name="uniFE9A" unicode="&#x62b;" horiz-adv-x="1567" arabic-form="final" 
d="M1341 104q-34 -52 -87 -78t-122 -26h-642q-249 0 -369.5 98t-120.5 314q0 108 26 266l254 -29q-13 -105 -13 -179q0 -117 67.5 -166t209.5 -49h479q47 0 70.5 30t23.5 83v512h286v-564l-1 -22q66 -39 152 -39h15q31 0 41.5 -20.5t10.5 -68.5v-57q0 -61 -9.5 -85
t-38.5 -24h-10q-57 0 -114.5 27.5t-107.5 76.5zM840 1680q0 -36 -17.5 -67t-48.5 -49.5t-69 -18.5q-36 0 -67 18t-49.5 49t-18.5 68t18 68t49 49t68 18q36 0 67 -18t49.5 -49t18.5 -68zM685 1326q0 -36 -17.5 -67t-48.5 -49.5t-69 -18.5q-36 0 -67 18t-49.5 49t-18.5 68
t18 68t49 49t68 18q36 0 67 -18t49.5 -49t18.5 -68zM1006 1326q0 -36 -17.5 -67t-48.5 -49.5t-69 -18.5q-36 0 -67 18t-49.5 49t-18.5 68t18 68t49 49t68 18q36 0 67 -18t49.5 -49t18.5 -68z" />
    <glyph glyph-name="uniFE9B" unicode="&#x62b;" horiz-adv-x="577" arabic-form="initial" 
d="M-54 107v54q0 54 11 74t39 20h177v625h285v-880h-465q-28 0 -37.5 24t-9.5 83zM458 1680q0 -36 -17.5 -67t-48.5 -49.5t-69 -18.5q-36 0 -67 18t-49.5 49t-18.5 68t18 68t49 49t68 18q36 0 67 -18t49.5 -49t18.5 -68zM303 1326q0 -36 -17.5 -67t-48.5 -49.5t-69 -18.5
q-36 0 -67 18t-49.5 49t-18.5 68t18 68t49 49t68 18q36 0 67 -18t49.5 -49t18.5 -68zM624 1326q0 -36 -17.5 -67t-48.5 -49.5t-69 -18.5q-36 0 -67 18t-49.5 49t-18.5 68t18 68t49 49t68 18q36 0 67 -18t49.5 -49t18.5 -68z" />
    <glyph glyph-name="uniFE9C" unicode="&#x62b;" horiz-adv-x="644" arabic-form="medial" 
d="M401 122q-71 -122 -219 -122h-189q-28 0 -37.5 24t-9.5 83v54q0 54 11 74t39 20h114q34 0 46.5 21t12.5 71v533h286v-554l-1 -16q43 -29 87.5 -42t95.5 -13h8q31 0 41.5 -20.5t10.5 -68.5v-57q0 -61 -9.5 -85t-38.5 -24h-9q-62 0 -124.5 32t-114.5 90zM412 1680
q0 -36 -17.5 -67t-48.5 -49.5t-69 -18.5q-36 0 -67 18t-49.5 49t-18.5 68t18 68t49 49t68 18q36 0 67 -18t49.5 -49t18.5 -68zM257 1326q0 -36 -17.5 -67t-48.5 -49.5t-69 -18.5q-36 0 -67 18t-49.5 49t-18.5 68t18 68t49 49t68 18q36 0 67 -18t49.5 -49t18.5 -68zM578 1326
q0 -36 -17.5 -67t-48.5 -49.5t-69 -18.5q-36 0 -67 18t-49.5 49t-18.5 68t18 68t49 49t68 18q36 0 67 -18t49.5 -49t18.5 -68z" />
    <glyph glyph-name="uniFE9E" unicode="&#x62c;" horiz-adv-x="939" arabic-form="final" 
d="M494 -753q-153 0 -264.5 64t-170.5 175t-59 249q0 152 52 269.5t159 184t261 66.5h122q-24 41 -36 172q-7 67 -20.5 117t-49 86t-98.5 36q-38 0 -95 -10.5t-110 -28.5v247q167 61 277 61q145 0 241.5 -94.5t111.5 -305.5q13 -142 41 -211t73 -69h10q28 0 40 -22t12 -67
v-57q0 -61 -9.5 -85t-38.5 -24h-419q-117 0 -184 -64t-67 -178q0 -65 29 -120t89 -88t149 -33q68 0 165 22v-263q-52 -15 -102 -22t-109 -7zM542 -343q-32 0 -60 15.5t-45 43.5t-17 62q0 32 16.5 60t44.5 44.5t61 16.5q25 0 52.5 -12t47.5 -39t22 -70q0 -32 -16 -60
t-44 -44.5t-62 -16.5z" />
    <glyph glyph-name="uniFE9F" unicode="&#x62c;" horiz-adv-x="916" arabic-form="initial" 
d="M-54 107v54q0 54 11 74t39 20h519q-12 18 -20.5 47t-17.5 103q-8 78 -23.5 133.5t-50 91.5t-97.5 36q-44 0 -100 -11t-104 -28v247q81 29 146.5 45t129.5 16q152 0 245 -102t109 -302q14 -140 41 -208t72 -68v-255h-852q-28 0 -37.5 24t-9.5 83zM573 -375
q0 -36 -17.5 -67t-48.5 -49.5t-69 -18.5q-36 0 -67 18t-49.5 49t-18.5 68t18 68t49 49t68 18q36 0 67.5 -18t49.5 -49t18 -68z" />
    <glyph glyph-name="uniFEA0" unicode="&#x62c;" horiz-adv-x="855" arabic-form="medial" 
d="M-54 107v54q0 54 11 74t39 20h517q-18 30 -31 126q-9 90 -21.5 144t-48.5 97.5t-104 43.5q-43 0 -100.5 -11.5t-103.5 -27.5v247q80 28 146.5 44.5t128.5 16.5q160 0 252.5 -110.5t104.5 -310.5q24 -259 119 -259h4q27 0 37.5 -21t10.5 -68v-57q0 -61 -9.5 -85t-38.5 -24
h-866q-28 0 -37.5 24t-9.5 83zM539 -375q0 -36 -17.5 -67t-48.5 -49.5t-69 -18.5q-36 0 -67 18t-49.5 49t-18.5 68t18 68t49 49t68 18q36 0 67.5 -18t49.5 -49t18 -68z" />
    <glyph glyph-name="uniFEA2" unicode="&#x62d;" horiz-adv-x="939" arabic-form="final" 
d="M494 -753q-153 0 -264.5 64t-170.5 175t-59 249q0 152 52 269.5t159 184t261 66.5h122q-24 41 -36 172q-7 67 -20.5 117t-49 86t-98.5 36q-38 0 -95 -10.5t-110 -28.5v247q167 61 277 61q145 0 241.5 -94.5t111.5 -305.5q13 -142 41 -211t73 -69h10q28 0 40 -22t12 -67
v-57q0 -61 -9.5 -85t-38.5 -24h-419q-117 0 -184 -64t-67 -178q0 -65 29 -120t89 -88t149 -33q68 0 165 22v-263q-52 -15 -102 -22t-109 -7z" />
    <glyph glyph-name="uniFEA3" unicode="&#x62d;" horiz-adv-x="916" arabic-form="initial" 
d="M-54 107v54q0 54 11 74t39 20h519q-12 18 -20.5 47t-17.5 103q-8 78 -23.5 133.5t-50 91.5t-97.5 36q-44 0 -100 -11t-104 -28v247q81 29 146.5 45t129.5 16q152 0 245 -102t109 -302q14 -140 41 -208t72 -68v-255h-852q-28 0 -37.5 24t-9.5 83z" />
    <glyph glyph-name="uniFEA4" unicode="&#x62d;" horiz-adv-x="855" arabic-form="medial" 
d="M-54 107v54q0 54 11 74t39 20h517q-18 30 -31 126q-9 90 -21.5 144t-48.5 97.5t-104 43.5q-43 0 -100.5 -11.5t-103.5 -27.5v247q80 28 146.5 44.5t128.5 16.5q160 0 252.5 -110.5t104.5 -310.5q24 -259 119 -259h4q27 0 37.5 -21t10.5 -68v-57q0 -61 -9.5 -85t-38.5 -24
h-866q-28 0 -37.5 24t-9.5 83z" />
    <glyph glyph-name="uniFEA6" unicode="&#x62e;" horiz-adv-x="939" arabic-form="final" 
d="M494 -753q-153 0 -264.5 64t-170.5 175t-59 249q0 152 52 269.5t159 184t261 66.5h122q-24 41 -36 172q-7 67 -20.5 117t-49 86t-98.5 36q-38 0 -95 -10.5t-110 -28.5v247q167 61 277 61q145 0 241.5 -94.5t111.5 -305.5q13 -142 41 -211t73 -69h10q28 0 40 -22t12 -67
v-57q0 -61 -9.5 -85t-38.5 -24h-419q-117 0 -184 -64t-67 -178q0 -65 29 -120t89 -88t149 -33q68 0 165 22v-263q-52 -15 -102 -22t-109 -7zM624 1329q0 -36 -17.5 -67t-48.5 -49.5t-69 -18.5q-36 0 -67 18t-49.5 49t-18.5 68t18 68t49 49t68 18q36 0 67.5 -18t49.5 -49
t18 -68z" />
    <glyph glyph-name="uniFEA7" unicode="&#x62e;" horiz-adv-x="916" arabic-form="initial" 
d="M-54 107v54q0 54 11 74t39 20h519q-12 18 -20.5 47t-17.5 103q-8 78 -23.5 133.5t-50 91.5t-97.5 36q-44 0 -100 -11t-104 -28v247q81 29 146.5 45t129.5 16q152 0 245 -102t109 -302q14 -140 41 -208t72 -68v-255h-852q-28 0 -37.5 24t-9.5 83zM498 1329
q0 -36 -17.5 -67t-48.5 -49.5t-69 -18.5q-36 0 -67 18t-49.5 49t-18.5 68t18 68t49 49t68 18q36 0 67.5 -18t49.5 -49t18 -68z" />
    <glyph glyph-name="uniFEA8" unicode="&#x62e;" horiz-adv-x="855" arabic-form="medial" 
d="M-54 107v54q0 54 11 74t39 20h517q-18 30 -31 126q-9 90 -21.5 144t-48.5 97.5t-104 43.5q-43 0 -100.5 -11.5t-103.5 -27.5v247q80 28 146.5 44.5t128.5 16.5q160 0 252.5 -110.5t104.5 -310.5q24 -259 119 -259h4q27 0 37.5 -21t10.5 -68v-57q0 -61 -9.5 -85t-38.5 -24
h-866q-28 0 -37.5 24t-9.5 83zM498 1329q0 -36 -17.5 -67t-48.5 -49.5t-69 -18.5q-36 0 -67 18t-49.5 49t-18.5 68t18 68t49 49t68 18q36 0 67.5 -18t49.5 -49t18 -68z" />
    <glyph glyph-name="uniFEAA" unicode="&#x62f;" horiz-adv-x="921" arabic-form="final" 
d="M666 135q-46 -66 -125 -100.5t-186 -34.5h-322v255h307q69 0 104.5 28.5t35.5 84.5q0 91 -91 222.5t-208 250.5l212 197q171 -183 258.5 -344t87.5 -291q0 -37 -7 -97q39 -26 87 -38.5t92 -12.5h20q18 0 26 -4t12 -18.5t4 -46.5v-77q0 -61 -9.5 -85t-38.5 -24h-8
q-71 0 -135 36.5t-116 98.5z" />
    <glyph glyph-name="uniFEAC" unicode="&#x630;" horiz-adv-x="921" arabic-form="final" 
d="M666 135q-46 -66 -125 -100.5t-186 -34.5h-322v255h307q69 0 104.5 28.5t35.5 84.5q0 91 -91 222.5t-208 250.5l212 197q171 -183 258.5 -344t87.5 -291q0 -37 -7 -97q39 -26 87 -38.5t92 -12.5h20q18 0 26 -4t12 -18.5t4 -46.5v-77q0 -61 -9.5 -85t-38.5 -24h-8
q-71 0 -135 36.5t-116 98.5zM469 1329q0 -36 -17.5 -67t-48.5 -49.5t-69 -18.5q-36 0 -67 18t-49.5 49t-18.5 68t18 68t49 49t68 18q36 0 67.5 -18t49.5 -49t18 -68z" />
    <glyph glyph-name="uniFEAE" unicode="&#x631;" horiz-adv-x="642" arabic-form="final" 
d="M337 -299q-98 -106 -285 -143l-86 258q107 25 164 97q56 71 56 230v737h285v-626h172q31 0 41.5 -20.5t10.5 -68.5v-56q0 -61 -9.5 -85t-38.5 -24h-191q-21 -195 -119 -299z" />
    <glyph glyph-name="uniFEB0" unicode="&#x632;" horiz-adv-x="642" arabic-form="final" 
d="M337 -299q-98 -106 -285 -143l-86 258q107 25 164 97q56 71 56 230v737h285v-626h172q31 0 41.5 -20.5t10.5 -68.5v-56q0 -61 -9.5 -85t-38.5 -24h-191q-21 -195 -119 -299zM465 1329q0 -36 -17.5 -67t-48.5 -49.5t-69 -18.5q-36 0 -67 18t-49.5 49t-18.5 68t18 68t49 49
t68 18q36 0 67.5 -18t49.5 -49t18 -68z" />
    <glyph glyph-name="uniFEB2" unicode="&#x633;" horiz-adv-x="2266" arabic-form="final" 
d="M2023 122q-32 -59 -87.5 -90.5t-133.5 -31.5q-92 0 -163.5 23t-130.5 73q-70 -96 -205 -96q-156 0 -253 66q-26 -145 -95 -255t-180 -176t-260 -66q-167 0 -283 77.5t-174 211t-58 302.5q0 211 91 425l250 -111q-67 -154 -67 -313q0 -80 28 -147.5t86 -108.5t143 -41
t141.5 46.5t82.5 120.5t26 160q0 193 -78 413l278 94q25 -79 45 -187.5t33 -214.5q37 -19 76.5 -30t72.5 -11q43 0 63.5 24.5t20.5 68.5v425h286v-447l-2 -38q75 -33 132 -33q42 0 63 25t21 69v531h285v-556l-1 -14q38 -27 86 -41t98 -14h7q31 0 41.5 -20.5t10.5 -68.5v-57
q0 -61 -9.5 -85t-38.5 -24h-9q-62 0 -124.5 32t-114.5 90z" />
    <glyph glyph-name="uniFEB3" unicode="&#x633;" horiz-adv-x="1585" arabic-form="initial" 
d="M898 96q-70 -96 -205 -96q-98 0 -170.5 25t-133.5 79q-35 -51 -87 -77.5t-118 -26.5h-191q-28 0 -37.5 24t-9.5 83v54q0 54 11 74t39 20h115q58 0 58 107v327h285v-362l-2 -33q85 -39 146 -39q42 0 63 24.5t21 70.5v423h285v-458q0 -17 -1 -27q74 -33 130 -33h85v625h286
v-880h-279q-87 0 -158 23t-132 73z" />
    <glyph glyph-name="uniFEB4" unicode="&#x633;" horiz-adv-x="1656" arabic-form="medial" 
d="M1413 122q-33 -59 -88.5 -90.5t-132.5 -31.5q-93 0 -164 23t-130 73q-70 -96 -205 -96q-96 0 -168.5 25t-134.5 79q-71 -104 -208 -104h-189q-28 0 -37.5 24t-9.5 83v54q0 54 11 74t39 20h114q34 0 46.5 21t12.5 71v342h286v-357l-2 -38q83 -39 145 -39q42 0 63.5 24.5
t21.5 71.5v422h284v-459l-1 -26q74 -33 131 -33q84 0 84 96v529h286v-551l-1 -19q41 -29 85 -42t100 -13h6q31 0 41.5 -20.5t10.5 -68.5v-57q0 -61 -9.5 -85t-38.5 -24h-11q-61 0 -123.5 32.5t-113.5 89.5z" />
    <glyph glyph-name="uniFEB6" unicode="&#x634;" horiz-adv-x="2266" arabic-form="final" 
d="M2023 122q-32 -59 -87.5 -90.5t-133.5 -31.5q-92 0 -163.5 23t-130.5 73q-70 -96 -205 -96q-156 0 -253 66q-26 -145 -95 -255t-180 -176t-260 -66q-167 0 -283 77.5t-174 211t-58 302.5q0 211 91 425l250 -111q-67 -154 -67 -313q0 -80 28 -147.5t86 -108.5t143 -41
t141.5 46.5t82.5 120.5t26 160q0 193 -78 413l278 94q25 -79 45 -187.5t33 -214.5q37 -19 76.5 -30t72.5 -11q43 0 63.5 24.5t20.5 68.5v425h286v-447l-2 -38q75 -33 132 -33q42 0 63 25t21 69v531h285v-556l-1 -14q38 -27 86 -41t98 -14h7q31 0 41.5 -20.5t10.5 -68.5v-57
q0 -61 -9.5 -85t-38.5 -24h-9q-62 0 -124.5 32t-114.5 90zM1550 1680q0 -36 -17.5 -67t-48.5 -49.5t-69 -18.5q-36 0 -67 18t-49.5 49t-18.5 68t18 68t49 49t68 18q36 0 67 -18t49.5 -49t18.5 -68zM1395 1326q0 -36 -17.5 -67t-48.5 -49.5t-69 -18.5q-36 0 -67 18t-49.5 49
t-18.5 68t18 68t49 49t68 18q36 0 67 -18t49.5 -49t18.5 -68zM1716 1326q0 -36 -17.5 -67t-48.5 -49.5t-69 -18.5q-36 0 -67 18t-49.5 49t-18.5 68t18 68t49 49t68 18q36 0 67 -18t49.5 -49t18.5 -68z" />
    <glyph glyph-name="uniFEB7" unicode="&#x634;" horiz-adv-x="1585" arabic-form="initial" 
d="M898 96q-70 -96 -205 -96q-98 0 -170.5 25t-133.5 79q-35 -51 -87 -77.5t-118 -26.5h-191q-28 0 -37.5 24t-9.5 83v54q0 54 11 74t39 20h115q58 0 58 107v327h285v-362l-2 -33q85 -39 146 -39q42 0 63 24.5t21 70.5v423h285v-458q0 -17 -1 -27q74 -33 130 -33h85v625h286
v-880h-279q-87 0 -158 23t-132 73zM946 1680q0 -36 -17.5 -67t-48.5 -49.5t-69 -18.5q-36 0 -67 18t-49.5 49t-18.5 68t18 68t49 49t68 18q36 0 67 -18t49.5 -49t18.5 -68zM791 1326q0 -36 -17.5 -67t-48.5 -49.5t-69 -18.5q-36 0 -67 18t-49.5 49t-18.5 68t18 68t49 49
t68 18q36 0 67 -18t49.5 -49t18.5 -68zM1112 1326q0 -36 -17.5 -67t-48.5 -49.5t-69 -18.5q-36 0 -67 18t-49.5 49t-18.5 68t18 68t49 49t68 18q36 0 67 -18t49.5 -49t18.5 -68z" />
    <glyph glyph-name="uniFEB8" unicode="&#x634;" horiz-adv-x="1656" arabic-form="medial" 
d="M1413 122q-33 -59 -88.5 -90.5t-132.5 -31.5q-93 0 -164 23t-130 73q-70 -96 -205 -96q-96 0 -168.5 25t-134.5 79q-71 -104 -208 -104h-189q-28 0 -37.5 24t-9.5 83v54q0 54 11 74t39 20h114q34 0 46.5 21t12.5 71v342h286v-357l-2 -38q83 -39 145 -39q42 0 63.5 24.5
t21.5 71.5v422h284v-459l-1 -26q74 -33 131 -33q84 0 84 96v529h286v-551l-1 -19q41 -29 85 -42t100 -13h6q31 0 41.5 -20.5t10.5 -68.5v-57q0 -61 -9.5 -85t-38.5 -24h-11q-61 0 -123.5 32.5t-113.5 89.5zM945 1680q0 -36 -17.5 -67t-48.5 -49.5t-69 -18.5q-36 0 -67 18
t-49.5 49t-18.5 68t18 68t49 49t68 18q36 0 67 -18t49.5 -49t18.5 -68zM790 1326q0 -36 -17.5 -67t-48.5 -49.5t-69 -18.5q-36 0 -67 18t-49.5 49t-18.5 68t18 68t49 49t68 18q36 0 67 -18t49.5 -49t18.5 -68zM1111 1326q0 -36 -17.5 -67t-48.5 -49.5t-69 -18.5
q-36 0 -67 18t-49.5 49t-18.5 68t18 68t49 49t68 18q36 0 67 -18t49.5 -49t18.5 -68z" />
    <glyph glyph-name="uniFEBA" unicode="&#x635;" horiz-adv-x="2399" arabic-form="final" 
d="M1050 66q-27 -143 -94.5 -254t-179 -177t-261.5 -66q-167 0 -283 77.5t-174 211t-58 302.5q0 211 91 425l250 -111q-67 -154 -67 -313q0 -78 26.5 -145.5t84.5 -109.5t146 -42q85 0 141.5 46.5t82.5 120.5t26 160q0 193 -78 413l278 94q27 -84 44.5 -179.5t33.5 -222.5
q70 -33 141 -38q51 176 138.5 332.5t216 259t279.5 102.5q143 0 233.5 -77.5t128 -201t37.5 -269.5v-149h166q31 0 41.5 -20.5t10.5 -68.5v-57q0 -61 -9.5 -85t-38.5 -24h-1028q-98 0 -177.5 14.5t-147.5 51.5zM1784 656q-68 0 -134 -47t-122 -137.5t-93 -216.5h514v141
q0 126 -39 193t-126 67z" />
    <glyph glyph-name="uniFEBB" unicode="&#x635;" horiz-adv-x="1709" arabic-form="initial" 
d="M381 91q-72 -91 -199 -91h-189q-28 0 -37.5 24t-9.5 83v54q0 54 11 74t39 20h114q31 0 45 26t14 82v326h286v-359l-2 -42q59 -25 120 -30q51 168 134.5 322t214 263t285.5 109q139 0 228.5 -75t130 -197.5t40.5 -270.5v-409h-890q-197 0 -335 91zM1156 656
q-70 0 -141.5 -54t-125 -148.5t-82.5 -198.5h513v141q0 128 -38.5 194t-125.5 66z" />
    <glyph glyph-name="uniFEBC" unicode="&#x635;" horiz-adv-x="1773" arabic-form="medial" 
d="M381 91q-68 -91 -197 -91h-191q-28 0 -37.5 24t-9.5 83v54q0 54 11 74t39 20h113q32 0 46 26.5t14 81.5v326h286v-360l-2 -41q62 -25 120 -30q50 163 135.5 321t214 265.5t284.5 107.5q141 0 231.5 -77.5t129 -200.5t38.5 -269v-150h167q31 0 41.5 -20.5t10.5 -68.5v-57
q0 -61 -9.5 -85t-38.5 -24h-1093q-79 0 -157 23t-146 68zM1155 656q-67 0 -141 -56.5t-128 -149.5t-77 -195h513v141q0 127 -39 193.5t-128 66.5z" />
    <glyph glyph-name="uniFEBE" unicode="&#x636;" horiz-adv-x="2399" arabic-form="final" 
d="M1050 66q-27 -143 -94.5 -254t-179 -177t-261.5 -66q-167 0 -283 77.5t-174 211t-58 302.5q0 211 91 425l250 -111q-67 -154 -67 -313q0 -78 26.5 -145.5t84.5 -109.5t146 -42q85 0 141.5 46.5t82.5 120.5t26 160q0 193 -78 413l278 94q27 -84 44.5 -179.5t33.5 -222.5
q70 -33 141 -38q51 176 138.5 332.5t216 259t279.5 102.5q143 0 233.5 -77.5t128 -201t37.5 -269.5v-149h166q31 0 41.5 -20.5t10.5 -68.5v-57q0 -61 -9.5 -85t-38.5 -24h-1028q-98 0 -177.5 14.5t-147.5 51.5zM1784 656q-68 0 -134 -47t-122 -137.5t-93 -216.5h514v141
q0 126 -39 193t-126 67zM1870 1329q0 -36 -17.5 -67t-48.5 -49.5t-69 -18.5q-36 0 -67 18t-49.5 49t-18.5 68t18 68t49 49t68 18q36 0 67.5 -18t49.5 -49t18 -68z" />
    <glyph glyph-name="uniFEBF" unicode="&#x636;" horiz-adv-x="1709" arabic-form="initial" 
d="M381 91q-72 -91 -199 -91h-189q-28 0 -37.5 24t-9.5 83v54q0 54 11 74t39 20h114q31 0 45 26t14 82v326h286v-359l-2 -42q59 -25 120 -30q51 168 134.5 322t214 263t285.5 109q139 0 228.5 -75t130 -197.5t40.5 -270.5v-409h-890q-197 0 -335 91zM1156 656
q-70 0 -141.5 -54t-125 -148.5t-82.5 -198.5h513v141q0 128 -38.5 194t-125.5 66zM1189 1329q0 -36 -17.5 -67t-48.5 -49.5t-69 -18.5q-36 0 -67 18t-49.5 49t-18.5 68t18 68t49 49t68 18q36 0 67.5 -18t49.5 -49t18 -68z" />
    <glyph glyph-name="uniFEC0" unicode="&#x636;" horiz-adv-x="1773" arabic-form="medial" 
d="M381 91q-68 -91 -197 -91h-191q-28 0 -37.5 24t-9.5 83v54q0 54 11 74t39 20h113q32 0 46 26.5t14 81.5v326h286v-360l-2 -41q62 -25 120 -30q50 163 135.5 321t214 265.5t284.5 107.5q141 0 231.5 -77.5t129 -200.5t38.5 -269v-150h167q31 0 41.5 -20.5t10.5 -68.5v-57
q0 -61 -9.5 -85t-38.5 -24h-1093q-79 0 -157 23t-146 68zM1155 656q-67 0 -141 -56.5t-128 -149.5t-77 -195h513v141q0 127 -39 193.5t-128 66.5zM1172 1329q0 -36 -17.5 -67t-48.5 -49.5t-69 -18.5q-36 0 -67 18t-49.5 49t-18.5 68t18 68t49 49t68 18q36 0 67.5 -18
t49.5 -49t18 -68z" />
    <glyph glyph-name="uniFEC2" unicode="&#x637;" horiz-adv-x="1425" arabic-form="final" 
d="M220 255q10 27 26.5 83t30.5 92v1006h285v-599q65 55 140 85t155 30q142 0 231 -78t128 -201.5t39 -268.5v-149h170q31 0 41.5 -20.5t10.5 -68.5v-57q0 -61 -9.5 -85t-38.5 -24h-1429v255h220zM801 656q-54 0 -117 -37.5t-124.5 -127t-103.5 -236.5h516v134
q0 133 -41 200t-130 67z" />
    <glyph glyph-name="uniFEC3" unicode="&#x637;" horiz-adv-x="1308" arabic-form="initial" 
d="M-54 107v54q0 54 11 74t39 20h178q43 149 56 175v1006h285v-598q65 54 139.5 84t154.5 30q143 0 231.5 -78.5t127 -203t38.5 -269.5v-401h-1213q-28 0 -37.5 24t-9.5 83zM759 656q-72 0 -142.5 -55t-125.5 -147t-83 -199h516v136q0 131 -40 198t-125 67z" />
    <glyph glyph-name="uniFEC4" unicode="&#x637;" horiz-adv-x="1375" arabic-form="medial" 
d="M-54 107v54q0 54 11 74t39 20h178q8 23 25 82t32 95v1004h284v-598q65 54 140 84t154 30q144 0 232.5 -78.5t126.5 -202.5t38 -270v-146h169q31 0 41.5 -20.5t10.5 -68.5v-57q0 -61 -9.5 -85t-38.5 -24h-1386q-28 0 -37.5 24t-9.5 83zM757 656q-68 0 -135.5 -48
t-123.5 -139t-90 -214h517v137q0 129 -40.5 196.5t-127.5 67.5z" />
    <glyph glyph-name="uniFEC6" unicode="&#x638;" horiz-adv-x="1425" arabic-form="final" 
d="M220 255q10 27 26.5 83t30.5 92v1006h285v-599q65 55 140 85t155 30q142 0 231 -78t128 -201.5t39 -268.5v-149h170q31 0 41.5 -20.5t10.5 -68.5v-57q0 -61 -9.5 -85t-38.5 -24h-1429v255h220zM801 656q-54 0 -117 -37.5t-124.5 -127t-103.5 -236.5h516v134
q0 133 -41 200t-130 67zM1023 1329q0 -36 -17.5 -67t-48.5 -49.5t-69 -18.5q-36 0 -67 18t-49.5 49t-18.5 68t18 68t49 49t68 18q36 0 67.5 -18t49.5 -49t18 -68z" />
    <glyph glyph-name="uniFEC7" unicode="&#x638;" horiz-adv-x="1308" arabic-form="initial" 
d="M-54 107v54q0 54 11 74t39 20h178q43 149 56 175v1006h285v-598q65 54 139.5 84t154.5 30q143 0 231.5 -78.5t127 -203t38.5 -269.5v-401h-1213q-28 0 -37.5 24t-9.5 83zM759 656q-72 0 -142.5 -55t-125.5 -147t-83 -199h516v136q0 131 -40 198t-125 67zM973 1329
q0 -36 -17.5 -67t-48.5 -49.5t-69 -18.5q-36 0 -67 18t-49.5 49t-18.5 68t18 68t49 49t68 18q36 0 67.5 -18t49.5 -49t18 -68z" />
    <glyph glyph-name="uniFEC8" unicode="&#x638;" horiz-adv-x="1375" arabic-form="medial" 
d="M-54 107v54q0 54 11 74t39 20h178q8 23 25 82t32 95v1004h284v-598q65 54 140 84t154 30q144 0 232.5 -78.5t126.5 -202.5t38 -270v-146h169q31 0 41.5 -20.5t10.5 -68.5v-57q0 -61 -9.5 -85t-38.5 -24h-1386q-28 0 -37.5 24t-9.5 83zM757 656q-68 0 -135.5 -48
t-123.5 -139t-90 -214h517v137q0 129 -40.5 196.5t-127.5 67.5zM976 1329q0 -36 -17.5 -67t-48.5 -49.5t-69 -18.5q-36 0 -67 18t-49.5 49t-18.5 68t18 68t49 49t68 18q36 0 67.5 -18t49.5 -49t18 -68z" />
    <glyph glyph-name="uniFECA" unicode="&#x639;" horiz-adv-x="950" arabic-form="final" 
d="M496 -753q-156 0 -268 64t-170 176t-58 253q0 139 81.5 255.5t226.5 238.5q-79 102 -132 199q-55 101 -96 158q12 72 39 141q28 69 49 85q67 49 181 83.5t208 34.5q82 0 155.5 -27t120 -84t46.5 -140q0 -97 -52.5 -207.5t-129.5 -208.5q77 -13 198 -13h56
q31 0 41.5 -20.5t10.5 -68.5v-57q0 -61 -9.5 -85t-38.5 -24h-119q-116 0 -197.5 21t-144.5 66q-118 -80 -169.5 -158t-51.5 -171q0 -75 34.5 -129.5t95.5 -83t139 -28.5q66 0 163 22v-263q-52 -15 -98.5 -22t-110.5 -7zM634 584q0 46 -32.5 69.5t-102.5 23.5
q-40 0 -85.5 -10t-84.5 -26q28 -72 75 -155t93 -136q62 58 99.5 118.5t37.5 115.5z" />
    <glyph glyph-name="uniFECB" unicode="&#x639;" horiz-adv-x="877" arabic-form="initial" 
d="M-54 107v54q0 54 11 74t39 20h181q-49 107 -49 226q0 107 47.5 210t142.5 169t225 66q44 0 103 -11t116 -29l-42 -268q-92 23 -143 23q-85 0 -129.5 -50.5t-44.5 -137.5q0 -45 18.5 -90.5t60 -76.5t108.5 -31h216v-255h-813q-28 0 -37.5 24t-9.5 83z" />
    <glyph glyph-name="uniFECC" unicode="&#x639;" horiz-adv-x="968" arabic-form="medial" 
d="M484 98q-178 -98 -353 -98h-138q-28 0 -37.5 24t-9.5 83v54q0 54 11 74t39 20h154q48 0 112 10q-50 66 -97 171q-45 104 -89 154q35 173 91 229q88 55 188 85.5t194 30.5q82 0 156.5 -26.5t122 -83t47.5 -141.5q0 -64 -24 -148t-58.5 -152.5t-65.5 -112.5q81 -16 150 -16
h92q31 0 41.5 -20.5t10.5 -68.5v-57q0 -61 -9.5 -85t-38.5 -24h-142q-99 0 -188 24.5t-159 73.5zM631 585q0 44 -35 68t-100 24q-33 0 -87.5 -11t-83.5 -25q24 -65 74.5 -154.5t94.5 -142.5q47 43 92 118.5t45 122.5z" />
    <glyph glyph-name="uniFECE" unicode="&#x63a;" horiz-adv-x="950" arabic-form="final" 
d="M496 -753q-156 0 -268 64t-170 176t-58 253q0 139 81.5 255.5t226.5 238.5q-79 102 -132 199q-55 101 -96 158q12 72 39 141q28 69 49 85q67 49 181 83.5t208 34.5q82 0 155.5 -27t120 -84t46.5 -140q0 -97 -52.5 -207.5t-129.5 -208.5q77 -13 198 -13h56
q31 0 41.5 -20.5t10.5 -68.5v-57q0 -61 -9.5 -85t-38.5 -24h-119q-116 0 -197.5 21t-144.5 66q-118 -80 -169.5 -158t-51.5 -171q0 -75 34.5 -129.5t95.5 -83t139 -28.5q66 0 163 22v-263q-52 -15 -98.5 -22t-110.5 -7zM634 584q0 46 -32.5 69.5t-102.5 23.5
q-40 0 -85.5 -10t-84.5 -26q28 -72 75 -155t93 -136q62 58 99.5 118.5t37.5 115.5zM644 1329q0 -36 -17.5 -67t-48.5 -49.5t-69 -18.5q-36 0 -67 18t-49.5 49t-18.5 68t18 68t49 49t68 18q36 0 67.5 -18t49.5 -49t18 -68z" />
    <glyph glyph-name="uniFECF" unicode="&#x63a;" horiz-adv-x="877" arabic-form="initial" 
d="M-54 107v54q0 54 11 74t39 20h181q-49 107 -49 226q0 107 47.5 210t142.5 169t225 66q44 0 103 -11t116 -29l-42 -268q-92 23 -143 23q-85 0 -129.5 -50.5t-44.5 -137.5q0 -45 18.5 -90.5t60 -76.5t108.5 -31h216v-255h-813q-28 0 -37.5 24t-9.5 83zM635 1329
q0 -36 -17.5 -67t-48.5 -49.5t-69 -18.5q-36 0 -67 18t-49.5 49t-18.5 68t18 68t49 49t68 18q36 0 67.5 -18t49.5 -49t18 -68z" />
    <glyph glyph-name="uniFED0" unicode="&#x63a;" horiz-adv-x="968" arabic-form="medial" 
d="M484 98q-178 -98 -353 -98h-138q-28 0 -37.5 24t-9.5 83v54q0 54 11 74t39 20h154q48 0 112 10q-50 66 -97 171q-45 104 -89 154q35 173 91 229q88 55 188 85.5t194 30.5q82 0 156.5 -26.5t122 -83t47.5 -141.5q0 -64 -24 -148t-58.5 -152.5t-65.5 -112.5q81 -16 150 -16
h92q31 0 41.5 -20.5t10.5 -68.5v-57q0 -61 -9.5 -85t-38.5 -24h-142q-99 0 -188 24.5t-159 73.5zM631 585q0 44 -35 68t-100 24q-33 0 -87.5 -11t-83.5 -25q24 -65 74.5 -154.5t94.5 -142.5q47 43 92 118.5t45 122.5zM632 1329q0 -36 -17.5 -67t-48.5 -49.5t-69 -18.5
q-36 0 -67 18t-49.5 49t-18.5 68t18 68t49 49t68 18q36 0 67.5 -18t49.5 -49t18 -68z" />
    <glyph glyph-name="uniFED2" unicode="&#x641;" horiz-adv-x="1792" arabic-form="final" 
d="M1346 29q-64 -11 -280 -20t-318 -9h-256q-258 0 -375 99t-117 318q0 50 8 126t18 135l261 -29q-20 -131 -20 -190q0 -110 68.5 -157t207.5 -47h399q-17 42 -31.5 108t-14.5 111q0 120 51.5 222t146.5 162.5t220 60.5q121 0 203.5 -53t123.5 -146t41 -214q0 -125 -42 -251
h152q31 0 41.5 -20.5t10.5 -68.5v-57q0 -61 -9.5 -85t-38.5 -24h-144q-64 0 -151.5 8.5t-154.5 20.5zM1395 477q0 85 -28.5 132.5t-81.5 47.5q-51 0 -82.5 -45t-31.5 -120q0 -51 21 -106.5t60 -93t90 -37.5h15q38 103 38 222zM1416 1329q0 -36 -17.5 -67t-48.5 -49.5
t-69 -18.5q-36 0 -67 18t-49.5 49t-18.5 68t18 68t49 49t68 18q36 0 67.5 -18t49.5 -49t18 -68z" />
    <glyph glyph-name="uniFED3" unicode="&#x641;" horiz-adv-x="1011" arabic-form="initial" 
d="M-54 107v54q0 54 11 74t39 20h157q-17 41 -26.5 97t-9.5 106q0 129 47.5 234t140.5 166t224 61q114 0 199.5 -55t132.5 -158t47 -245v-461h-915q-28 0 -37.5 24t-9.5 83zM513 647q-58 0 -89.5 -50t-31.5 -144q0 -87 39 -142.5t104 -55.5h89v180q0 101 -29 156.5t-82 55.5
zM634 1329q0 -36 -17.5 -67t-48.5 -49.5t-69 -18.5q-36 0 -67 18t-49.5 49t-18.5 68t18 68t49 49t68 18q36 0 67.5 -18t49.5 -49t18 -68z" />
    <glyph glyph-name="uniFED4" unicode="&#x641;" horiz-adv-x="1008" arabic-form="medial" 
d="M562 29q-129 -16 -225.5 -22.5t-196.5 -6.5h-146q-28 0 -37.5 24t-9.5 83v54q0 54 11 74t39 20h160q-19 42 -32 107t-13 111q0 121 52 223.5t148.5 162.5t210.5 60q127 0 210.5 -53t124.5 -145t41 -211q0 -58 -12 -129t-31 -126h152q31 0 41.5 -20.5t10.5 -68.5v-57
q0 -61 -9.5 -85t-38.5 -24h-143q-143 0 -307 29zM612 477q0 85 -28.5 132.5t-81.5 47.5q-51 0 -82.5 -45t-31.5 -120q0 -51 21 -106.5t60 -93t91 -37.5h14q38 103 38 222zM645 1329q0 -36 -17.5 -67t-48.5 -49.5t-69 -18.5q-36 0 -67 18t-49.5 49t-18.5 68t18 68t49 49
t68 18q36 0 67.5 -18t49.5 -49t18 -68z" />
    <glyph glyph-name="uniFED6" unicode="&#x642;" horiz-adv-x="1375" arabic-form="final" 
d="M578 -596q-174 0 -304.5 68t-202 198.5t-71.5 314.5q0 111 20.5 209t63.5 203l245 -118q-45 -123 -45 -257q0 -87 34.5 -165t103.5 -126.5t166 -48.5q92 0 159.5 46t108 121.5t54.5 173.5l-4 5l-37 -1q-225 -6 -340.5 102t-115.5 313q0 125 49 233t142.5 173.5
t221.5 65.5q131 0 214.5 -69t121 -180.5t37.5 -245.5v-164h176q31 0 41.5 -20.5t10.5 -68.5v-57q0 -61 -9.5 -85t-38.5 -24h-190q-26 -178 -104 -312.5t-207 -209t-300 -74.5zM884 578q-30 66 -89 66q-54 0 -86.5 -52t-32.5 -142q0 -91 41.5 -143t121.5 -52h75v156
q0 101 -30 167zM766 1326q0 -36 -17.5 -67t-48.5 -49.5t-69 -18.5q-36 0 -67 18t-49.5 49t-18.5 68t18 68t49 49t68 18q36 0 67 -18t49.5 -49t18.5 -68zM1087 1326q0 -36 -17.5 -67t-48.5 -49.5t-69 -18.5q-36 0 -67 18t-49.5 49t-18.5 68t18 68t49 49t68 18q36 0 67 -18
t49.5 -49t18.5 -68z" />
    <glyph glyph-name="uniFED7" unicode="&#x642;" horiz-adv-x="1011" arabic-form="initial" 
d="M-54 107v54q0 54 11 74t39 20h157q-17 41 -26.5 97t-9.5 106q0 129 47.5 234t140.5 166t224 61q114 0 199.5 -55t132.5 -158t47 -245v-461h-915q-28 0 -37.5 24t-9.5 83zM513 647q-58 0 -89.5 -50t-31.5 -144q0 -87 39 -142.5t104 -55.5h89v180q0 101 -29 156.5t-82 55.5
zM505 1326q0 -36 -17.5 -67t-48.5 -49.5t-69 -18.5q-36 0 -67 18t-49.5 49t-18.5 68t18 68t49 49t68 18q36 0 67 -18t49.5 -49t18.5 -68zM826 1326q0 -36 -17.5 -67t-48.5 -49.5t-69 -18.5q-36 0 -67 18t-49.5 49t-18.5 68t18 68t49 49t68 18q36 0 67 -18t49.5 -49t18.5 -68
z" />
    <glyph glyph-name="uniFED8" unicode="&#x642;" horiz-adv-x="929" arabic-form="medial" 
d="M521 29q-129 -16 -225.5 -22.5t-196.5 -6.5h-146q-28 0 -37.5 24t-9.5 83v54q0 54 11 74t39 20h160q-19 42 -32 107t-13 111q0 121 52 223.5t148.5 162.5t210.5 60q127 0 210.5 -53t124.5 -145t41 -211q0 -58 -12 -129t-31 -126h152q31 0 41.5 -20.5t10.5 -68.5v-57
q0 -61 -9.5 -85t-38.5 -24h-143q-143 0 -307 29zM571 477q0 85 -28.5 132.5t-81.5 47.5q-51 0 -82.5 -45t-31.5 -120q0 -51 21 -106.5t60 -93t91 -37.5h14q38 103 38 222zM430 1326q0 -36 -17.5 -67t-48.5 -49.5t-69 -18.5q-36 0 -67 18t-49.5 49t-18.5 68t18 68t49 49
t68 18q36 0 67 -18t49.5 -49t18.5 -68zM751 1326q0 -36 -17.5 -67t-48.5 -49.5t-69 -18.5q-36 0 -67 18t-49.5 49t-18.5 68t18 68t49 49t68 18q36 0 67 -18t49.5 -49t18.5 -68z" />
    <glyph glyph-name="uniFEDA" unicode="&#x643;" horiz-adv-x="1567" arabic-form="final" 
d="M1341 104q-68 -104 -211 -104h-641q-159 0 -266.5 39.5t-165 131.5t-57.5 246q0 107 26 261l254 -29q-13 -100 -13 -179q0 -117 67 -166t213 -49h475q95 0 95 118v1063h286v-1104l-1 -38q32 -18 73.5 -28.5t80.5 -10.5h13q31 0 41.5 -20.5t10.5 -68.5v-57q0 -61 -9.5 -85
t-38.5 -24h-10q-57 0 -115.5 28t-106.5 76zM614 703q-8 20 -13 42.5t-5 38.5q0 87 49.5 140.5t129.5 53.5q43 0 114 -13l-11 -147q-39 14 -74 14q-27 0 -44 -16t-17 -41q0 -33 23.5 -52.5t62.5 -19.5h67v-149h-335v149h53z" />
    <glyph glyph-name="uniFEDB" unicode="&#x643;" horiz-adv-x="743" arabic-form="initial" 
d="M-54 107v54q0 54 11 74t39 20h245q136 0 136 115q0 71 -81 164.5t-235 202.5l359 732l236 -133l-248 -519q117 -92 179 -203.5t62 -237.5q0 -98 -33.5 -182t-117 -139t-223.5 -55h-282q-28 0 -37.5 24t-9.5 83z" />
    <glyph glyph-name="uniFEDC" unicode="&#x643;" horiz-adv-x="837" arabic-form="medial" 
d="M586 130q-100 -130 -300 -130h-293q-28 0 -37.5 24t-9.5 83v54q0 54 11 74t39 20h257q62 0 97 29.5t35 78.5q0 77 -78.5 169t-237.5 205l360 733l233 -134l-247 -519q117 -92 179 -203t62 -240q0 -35 -3 -70q39 -25 80.5 -37t92.5 -12h10q31 0 41.5 -20.5t10.5 -68.5v-57
q0 -61 -9.5 -85t-38.5 -24h-10q-63 0 -128 35t-116 95z" />
    <glyph glyph-name="uniFEDE" unicode="&#x644;" horiz-adv-x="1256" arabic-form="final" 
d="M1053 84q-26 -159 -99.5 -274.5t-185.5 -178t-254 -62.5q-165 0 -281 78t-174.5 213t-58.5 304q0 105 26 215.5t78 212.5l242 -121q-34 -70 -53.5 -147t-19.5 -141q0 -78 27.5 -151.5t85.5 -120.5t145 -47q88 0 144 55.5t81 136.5t25 178v1202h283v-1125
q44 -31 85.5 -43.5t94.5 -12.5h13q31 0 41.5 -20.5t10.5 -68.5v-57q0 -61 -9.5 -85t-38.5 -24h-9q-51 0 -102.5 22t-96.5 62z" />
    <glyph glyph-name="uniFEDF" unicode="&#x644;" horiz-adv-x="561" arabic-form="initial" 
d="M-54 107v54q0 54 11 74t39 20h162v1182h285v-1437h-450q-28 0 -37.5 24t-9.5 83z" />
    <glyph glyph-name="uniFEE0" unicode="&#x644;" horiz-adv-x="644" arabic-form="medial" 
d="M401 122q-35 -61 -90.5 -91.5t-128.5 -30.5h-189q-28 0 -37.5 24t-9.5 83v54q0 54 11 74t39 20h115q33 0 45.5 21t12.5 73v1088h286v-1054l-1 -73q43 -30 88.5 -42.5t98.5 -12.5h4q31 0 41.5 -20.5t10.5 -68.5v-57q0 -61 -9.5 -85t-38.5 -24h-9q-62 0 -124.5 32
t-114.5 90z" />
    <glyph glyph-name="uniFEE2" unicode="&#x645;" horiz-adv-x="1227" arabic-form="final" 
d="M990 117q-47 -60 -115.5 -94t-153.5 -34q-90 0 -172 31.5t-146 89.5q-123 -40 -123 -218q0 -115 31 -260.5t78 -290.5l-267 -106q-45 163 -83.5 349t-38.5 301q0 178 69 304t211 201q19 121 72.5 237.5t152 192.5t210.5 76q117 0 202.5 -68.5t129.5 -177t44 -226.5
q0 -78 -13 -138q67 -31 137 -31h14q31 0 41.5 -20.5t10.5 -68.5v-57q0 -61 -9.5 -85t-38.5 -24h-9q-62 0 -123 31t-111 86zM692 246q67 0 106 44t39 127q0 84 -35.5 135.5t-95.5 51.5q-52 0 -98 -45.5t-66.5 -115t-24.5 -132.5q33 -27 85.5 -46t89.5 -19z" />
    <glyph glyph-name="uniFEE3" unicode="&#x645;" horiz-adv-x="1036" arabic-form="initial" 
d="M55 0h-62q-28 0 -37.5 24t-9.5 83v54q0 54 11 74t39 20h45q68 0 96 120q28 119 84 242t144.5 201t209.5 78q115 0 200.5 -68t130 -175.5t44.5 -222.5q0 -111 -42 -212.5t-126 -165t-202 -63.5q-87 0 -169.5 30.5t-146.5 89.5l-6 1q-37 -51 -89 -80.5t-114 -29.5zM549 246
q68 0 106 44t38 127q0 85 -35.5 136t-95.5 51q-56 0 -107 -71.5t-81 -222.5q37 -28 86 -46t89 -18z" />
    <glyph glyph-name="uniFEE4" unicode="&#x645;" horiz-adv-x="1123" arabic-form="medial" 
d="M865 139q-46 -70 -119 -110t-166 -40q-88 0 -169.5 30.5t-146.5 89.5l-6 1q-46 -61 -96.5 -85.5t-109.5 -24.5h-59q-28 0 -37.5 24t-9.5 83v54q0 54 11 74t39 20h48q67 0 98 138q55 245 173 375q117 128 260 128q117 0 202 -69.5t129 -179t44 -228.5q0 -51 -11 -115
q43 -27 88.5 -38t84.5 -11h12q31 0 41.5 -20.5t10.5 -68.5v-57q0 -61 -9.5 -85t-38.5 -24h-9q-67 0 -134 37.5t-120 101.5zM551 246q142 0 142 171q0 85 -36 136t-94 51q-60 0 -111 -72t-78 -223q36 -26 87.5 -44.5t89.5 -18.5z" />
    <glyph glyph-name="uniFEE6" unicode="&#x646;" horiz-adv-x="1238" arabic-form="final" 
d="M1050 70q-28 -145 -96.5 -256t-179 -176t-257.5 -65q-166 0 -282.5 76t-175.5 213.5t-59 308.5q1 203 91 418l250 -111q-67 -154 -67 -313q0 -81 27.5 -148t85 -108t144.5 -41q85 0 141.5 46.5t82.5 120.5t26 160q0 193 -78 413l278 94q50 -166 78 -401q41 -24 86 -35
t87 -11h6q31 0 41.5 -20.5t10.5 -68.5v-57q0 -61 -9.5 -85t-38.5 -24h-8q-49 0 -96 19t-88 51zM660 1107q0 -36 -17.5 -67t-48.5 -49.5t-69 -18.5q-36 0 -67 18t-49.5 49t-18.5 68t18 68t49 49t68 18q36 0 67.5 -18t49.5 -49t18 -68z" />
    <glyph glyph-name="uniFEE7" unicode="&#x646;" horiz-adv-x="577" arabic-form="initial" 
d="M-54 107v54q0 54 11 74t39 20h177v625h285v-880h-465q-28 0 -37.5 24t-9.5 83zM456 1329q0 -36 -17.5 -67t-48.5 -49.5t-69 -18.5q-36 0 -67 18t-49.5 49t-18.5 68t18 68t49 49t68 18q36 0 67.5 -18t49.5 -49t18 -68z" />
    <glyph glyph-name="uniFEE8" unicode="&#x646;" horiz-adv-x="644" arabic-form="medial" 
d="M401 122q-71 -122 -219 -122h-189q-28 0 -37.5 24t-9.5 83v54q0 54 11 74t39 20h114q34 0 46.5 21t12.5 71v533h286v-554l-1 -16q43 -29 87.5 -42t95.5 -13h8q31 0 41.5 -20.5t10.5 -68.5v-57q0 -61 -9.5 -85t-38.5 -24h-9q-62 0 -124.5 32t-114.5 90zM452 1329
q0 -36 -17.5 -67t-48.5 -49.5t-69 -18.5q-36 0 -67 18t-49.5 49t-18.5 68t18 68t49 49t68 18q36 0 67.5 -18t49.5 -49t18 -68z" />
    <glyph glyph-name="uniFEE9" unicode="&#x647;" horiz-adv-x="846" arabic-form="isolated" 
d="M405 0h-36q-120 0 -203 55.5t-124.5 147.5t-41.5 202q0 238 118 389q56 71 126 110.5t140 39.5q152 0 264 -142q54 -68 82.5 -163t28.5 -207q0 -113 -41.5 -212t-122 -159.5t-190.5 -60.5zM494 469q0 43 -10.5 93t-37.5 86.5t-71 36.5q-29 0 -56.5 -29.5t-45 -80.5
t-17.5 -112q0 -102 31.5 -155t90.5 -53q55 0 85.5 56t30.5 158z" />
    <glyph glyph-name="uniFEEA" unicode="&#x647;" horiz-adv-x="950" arabic-form="final" 
d="M534 103q-52 -21 -93.5 -29t-90.5 -8q-94 0 -174 41t-128 121.5t-48 193.5q0 175 125 301t373 201v120h284v-720q0 -39 8 -54t31 -15h129q31 0 41.5 -20.5t10.5 -68.5v-57q0 -61 -9.5 -85t-38.5 -24h-172q-97 0 -157.5 24.5t-90.5 78.5zM275 424q0 -52 32 -82.5t88 -30.5
q21 0 49.5 5.5t52.5 15.5l2 326q-111 -32 -167.5 -92.5t-56.5 -141.5z" />
    <glyph glyph-name="uniFEEB" unicode="&#x647;" horiz-adv-x="1295" arabic-form="initial" 
d="M205 -41q-16 -40 -18 -149h-130q-25 55 -41 120t-16 122q0 70 19 114t67 66.5t140 22.5h24q-24 89 -24 204q0 78 27 169.5t77 173.5l-48 13q42 127 125 234q304 -73 469 -165q165 -90 241 -220.5t76 -321.5q-5 -170 -11 -342h-922q-38 0 -55 -41zM632 484
q0 49 -9.5 107.5t-33 103t-63.5 44.5q-38 0 -62.5 -40t-33.5 -93t-9 -96q0 -63 13.5 -139t40.5 -116h126q16 42 23.5 104.5t7.5 124.5zM949 350q0 116 -53 198.5t-149 118.5q24 -48 34 -141q12 -96 12 -271h150l3 4q3 39 3 91z" />
    <glyph glyph-name="uniFEEC" unicode="&#x647;" horiz-adv-x="1045" arabic-form="medial" 
d="M869 -191q0 -110 -39.5 -199t-108.5 -140t-153 -51q-96 0 -191 63q-96 65 -159 198.5t-75 319.5h-150q-28 0 -37.5 24t-9.5 83v54q0 54 11 74t39 20h162q40 295 168 471q128 177 267 177q87 0 152.5 -68t100.5 -168t35 -191q0 -55 -12.5 -113t-36.5 -108h213
q31 0 41.5 -20.5t10.5 -68.5v-57q0 -61 -9.5 -85t-38.5 -24h-223q43 -106 43 -191zM644 446q0 31 -8 73t-27.5 74.5t-51.5 32.5q-49 0 -100 -112q-50 -110 -61 -259h131q54 0 85.5 52t31.5 139zM446 -224q46 -91 108 -91q33 0 55 40t22 103q0 35 -11 75t-36 68.5t-62 28.5
h-126q3 -131 50 -224z" />
    <glyph glyph-name="uniFEEE" unicode="&#x648;" horiz-adv-x="1017" arabic-form="final" 
d="M192 -425l-26 266q95 10 159.5 23t126.5 49.5t103 103.5q-51 -7 -82 -7q-121 0 -212 54t-140.5 151.5t-49.5 226.5q0 126 49 234t143 173t223 65q128 0 214 -71.5t121.5 -185t35.5 -249.5v-153h161q31 0 41.5 -20.5t10.5 -68.5v-57q0 -61 -9.5 -85t-38.5 -24h-196
q-38 -145 -125.5 -234.5t-214 -133t-294.5 -57.5zM454 644q-51 0 -84.5 -50.5t-33.5 -135.5q0 -51 17.5 -97.5t53.5 -76t89 -29.5h82v170q0 103 -32.5 161t-91.5 58z" />
    <glyph glyph-name="uniFEF0" unicode="&#x649;" horiz-adv-x="1782" arabic-form="final" 
d="M1329 345v262h-37q-63 0 -89.5 -58.5t-26.5 -131.5v-305q0 -137 -64.5 -259.5t-195.5 -200t-319 -77.5q-204 0 -338 81.5t-196.5 210t-62.5 273.5q0 112 36 234.5t107 237.5l230 -151q-41 -68 -64.5 -148t-23.5 -158q0 -80 32.5 -149.5t102.5 -113t177 -43.5
q295 0 295 308v269q0 227 105 341t313 114h303v-508q0 -118 89 -118h80q31 0 41.5 -20.5t10.5 -68.5v-57q0 -61 -9.5 -85t-38.5 -24h-177q-132 0 -206 90.5t-74 254.5z" />
    <glyph glyph-name="uniFEF2" unicode="&#x64a;" horiz-adv-x="1782" arabic-form="final" 
d="M1329 345v262h-37q-63 0 -89.5 -58.5t-26.5 -131.5v-305q0 -137 -64.5 -259.5t-195.5 -200t-319 -77.5q-204 0 -338 81.5t-196.5 210t-62.5 273.5q0 112 36 234.5t107 237.5l230 -151q-41 -68 -64.5 -148t-23.5 -158q0 -80 32.5 -149.5t102.5 -113t177 -43.5
q295 0 295 308v269q0 227 105 341t313 114h303v-508q0 -118 89 -118h80q31 0 41.5 -20.5t10.5 -68.5v-57q0 -61 -9.5 -85t-38.5 -24h-177q-132 0 -206 90.5t-74 254.5zM579 -794q0 -36 -17.5 -67t-48.5 -49.5t-69 -18.5q-36 0 -67 18t-49.5 49t-18.5 68t18 68t49 49t68 18
q36 0 67 -18t49.5 -49t18.5 -68zM900 -794q0 -36 -17.5 -67t-48.5 -49.5t-69 -18.5q-36 0 -67 18t-49.5 49t-18.5 68t18 68t49 49t68 18q36 0 67 -18t49.5 -49t18.5 -68z" />
    <glyph glyph-name="uniFEF3" unicode="&#x64a;" horiz-adv-x="646" arabic-form="initial" 
d="M-54 107v54q0 54 11 74t39 20h177v625h285v-880h-465q-28 0 -37.5 24t-9.5 83zM317 -368q0 -36 -17.5 -67t-48.5 -49.5t-69 -18.5q-36 0 -67 18t-49.5 49t-18.5 68t18 68t49 49t68 18q36 0 67 -18t49.5 -49t18.5 -68zM638 -368q0 -36 -17.5 -67t-48.5 -49.5t-69 -18.5
q-36 0 -67 18t-49.5 49t-18.5 68t18 68t49 49t68 18q36 0 67 -18t49.5 -49t18.5 -68z" />
    <glyph glyph-name="uniFEF4" unicode="&#x64a;" horiz-adv-x="644" arabic-form="medial" 
d="M401 122q-71 -122 -219 -122h-189q-28 0 -37.5 24t-9.5 83v54q0 54 11 74t39 20h114q34 0 46.5 21t12.5 71v533h286v-554l-1 -16q43 -29 87.5 -42t95.5 -13h8q31 0 41.5 -20.5t10.5 -68.5v-57q0 -61 -9.5 -85t-38.5 -24h-9q-62 0 -124.5 32t-114.5 90zM293 -365
q0 -36 -17.5 -67t-48.5 -49.5t-69 -18.5q-36 0 -67 18t-49.5 49t-18.5 68t18 68t49 49t68 18q36 0 67 -18t49.5 -49t18.5 -68zM614 -365q0 -36 -17.5 -67t-48.5 -49.5t-69 -18.5q-36 0 -67 18t-49.5 49t-18.5 68t18 68t49 49t68 18q36 0 67 -18t49.5 -49t18.5 -68z" />
    <glyph glyph-name=".notdef" horiz-adv-x="1049" 
d="M1049 1470v-1470h-1049v1470h1049zM102 102h844v1264h-844v-1264zM588 811q35 35 52.5 56t28.5 46.5t11 57.5q0 48 -21.5 88t-57.5 63t-77 23q-69 0 -112 -49.5t-56 -145.5l-102 17q12 136 83.5 208t192.5 72q74 0 131.5 -33.5t90 -94t32.5 -140.5q0 -71 -28.5 -126.5
t-102.5 -121.5q-43 -38 -63.5 -65.5t-27.5 -57.5t-7 -80v-49h-94v51q0 66 9.5 107t35.5 79t82 95zM569 377v-137h-114v137h114z" />
    <glyph glyph-name=".null" 
 />
    <glyph glyph-name="nonmarkingreturn" unicode="&#xd;" horiz-adv-x="532" 
 />
    <glyph glyph-name="NULL" 
 />
    <glyph glyph-name="NULL" 
 />
    <glyph glyph-name="space" unicode=" " horiz-adv-x="532" 
 />
    <glyph glyph-name="space" unicode="&#xa0;" horiz-adv-x="532" 
 />
    <glyph glyph-name="exclam" unicode="!" horiz-adv-x="795" 
d="M559 1430l-41 -975h-242l-40 975h323zM545 307v-307h-295v307h295z" />
    <glyph glyph-name="quotedbl" unicode="&#x22;" horiz-adv-x="1065" 
d="M438 1536v-532h-258v532h258zM885 1536v-532h-258v532h258z" />
    <glyph glyph-name="numbersign" unicode="#" horiz-adv-x="1065" 
d="M375 408l-56 -408h-188l55 408h-155v188h182l33 238h-156v188h182l58 408h188l-57 -408h203l57 408h188l-55 -408h180v-188h-207l-32 -238h180v-188h-207l-57 -408h-189l56 408h-203zM401 596h203l33 238h-203z" />
    <glyph glyph-name="dollar" unicode="$" horiz-adv-x="1065" 
d="M98 33l23 272q82 -49 173 -75.5t187 -26.5v397q-211 53 -313 168t-102 291q0 111 51 197.5t144.5 138t219.5 59.5v174h92v-174q53 0 148.5 -12t191.5 -47l-18 -254q-74 38 -159.5 62t-162.5 24v-353q221 -49 323.5 -160.5t102.5 -301.5q0 -120 -47.5 -213.5t-143 -152
t-235.5 -71.5v-182h-92v182q-129 7 -228.5 22t-154.5 36zM348 1069q0 -56 31 -97.5t102 -72.5v328q-133 -14 -133 -158zM717 393q0 72 -37.5 117.5t-106.5 64.5v-372q68 16 106 67t38 123z" />
    <glyph glyph-name="percent" unicode="%" horiz-adv-x="1745" 
d="M1290 1497l-647 -1565h-184l647 1565h184zM94 1038q0 206 78.5 311t228.5 105q152 0 230 -105.5t78 -310.5q0 -204 -77.5 -309.5t-230.5 -105.5q-152 0 -229.5 105.5t-77.5 309.5zM496 1038q0 130 -19.5 191t-77.5 61q-55 0 -73.5 -64t-18.5 -188q0 -87 7.5 -141
t28 -82.5t58.5 -28.5q39 0 59.5 28.5t28 82t7.5 141.5zM1036 391q0 206 78.5 311t228.5 105q151 0 229.5 -106t78.5 -310q0 -203 -78 -309.5t-230 -106.5q-151 0 -229 106t-78 310zM1438 391q0 88 -7.5 141.5t-28.5 82t-61 28.5q-56 0 -74 -64t-18 -188q0 -88 7.5 -141.5
t28 -82t58.5 -28.5q39 0 59.5 28.5t28 82t7.5 141.5z" />
    <glyph glyph-name="ampersand" unicode="&#x26;" horiz-adv-x="1442" 
d="M602 -25q-146 0 -258 55t-173.5 154t-61.5 226q0 142 65 238t188 159q-71 71 -114 153.5t-43 153.5q0 87 46.5 164.5t143 126.5t240.5 49q116 0 209 -37.5t146.5 -110t53.5 -171.5q0 -106 -69 -205.5t-187 -173.5l193 -240q26 37 44.5 112.5t18.5 162.5h283
q0 -139 -43.5 -264t-128.5 -228l227 -299h-352l-82 111q-58 -70 -149.5 -103t-196.5 -33zM770 1128q0 62 -35.5 95.5t-101.5 33.5q-68 0 -107 -38t-39 -101q0 -72 129 -207q52 41 83 71.5t51 67t20 78.5zM424 414q0 -50 26 -97.5t72 -77.5t101 -30q63 0 104 19.5t74 58.5
l-281 327q-57 -60 -76.5 -103t-19.5 -97z" />
    <glyph glyph-name="quotesingle" unicode="'" horiz-adv-x="532" 
d="M395 1536v-532h-258v532h258z" />
    <glyph glyph-name="parenleft" unicode="(" horiz-adv-x="645" 
d="M92 627q0 150 23.5 285.5t85 291t172.5 344.5h248q-115 -188 -184.5 -433t-69.5 -484q0 -240 69 -483.5t185 -434.5h-248q-151 254 -216 469t-65 445z" />
    <glyph glyph-name="parenright" unicode=")" horiz-adv-x="645" 
d="M279 631q0 238 -69.5 483t-184.5 434h247q111 -189 172.5 -344.5t85 -291t23.5 -285.5q0 -230 -65 -445t-216 -469h-247q115 192 184.5 435.5t69.5 482.5z" />
    <glyph glyph-name="asterisk" unicode="*" horiz-adv-x="1063" 
d="M410 791l-191 135l191 196l-265 47l74 224l246 -131l-45 274h233l-43 -274l238 131l70 -224l-267 -47l197 -196l-197 -135l-116 245z" />
    <glyph glyph-name="plus" unicode="+" horiz-adv-x="1229" 
d="M96 412v213h412v411h213v-411h412v-213h-412v-412h-213v412h-412z" />
    <glyph glyph-name="comma" unicode="," horiz-adv-x="532" 
d="M426 307l-164 -532h-242l99 532h307z" />
    <glyph glyph-name="hyphen" unicode="-" horiz-adv-x="682" 
d="M596 713v-250h-510v250h510z" />
    <glyph glyph-name="hyphen" unicode="&#x2010;" horiz-adv-x="682" 
d="M596 713v-250h-510v250h510z" />
    <glyph glyph-name="hyphen" unicode="&#xad;" horiz-adv-x="682" 
d="M596 713v-250h-510v250h510z" />
    <glyph glyph-name="period" unicode="." horiz-adv-x="532" 
d="M414 307v-307h-295v307h295z" />
    <glyph glyph-name="slash" unicode="/" horiz-adv-x="606" 
d="M578 1454l-336 -1479h-213l336 1479h213z" />
    <glyph glyph-name="zero" unicode="0" horiz-adv-x="1065" 
d="M61 715q0 377 117 558t354 181q240 0 356 -180t116 -559q0 -378 -116.5 -559t-355.5 -181t-355 181t-116 559zM688 715q0 265 -38 385.5t-120 120.5q-77 0 -115 -121.5t-38 -384.5q0 -267 37.5 -386.5t117.5 -119.5q54 0 88.5 52t51 163.5t16.5 290.5z" />
    <glyph glyph-name="one" unicode="1" horiz-adv-x="1065" 
d="M254 874l-152 232l402 324h258v-1430h-324v1053z" />
    <glyph glyph-name="two" unicode="2" horiz-adv-x="1065" 
d="M197 360l81 90q100 109 168.5 192.5t120 178t51.5 176.5q0 86 -53 138.5t-139 52.5q-61 0 -143.5 -35t-139.5 -78l-22 297q136 41 228.5 61.5t191.5 20.5q117 0 211 -51.5t148 -143.5t54 -208q0 -160 -120 -360t-377 -441h512v-250h-873v250z" />
    <glyph glyph-name="three" unicode="3" horiz-adv-x="1065" 
d="M379 225q80 0 136 26.5t84 71t28 99.5q0 105 -61.5 148.5t-192.5 43.5h-101v234h45q306 0 306 174q0 55 -27.5 96.5t-76 63.5t-109.5 22q-53 0 -114.5 -16t-166.5 -53l-16 254q116 33 217.5 49t204.5 16q115 0 208.5 -46t148 -133t54.5 -206q0 -217 -284 -319v-5
q145 -21 223 -114.5t78 -241.5q0 -123 -69.5 -217t-196 -145.5t-291.5 -51.5q-50 0 -119.5 11t-129 26t-77.5 25l14 262l88 -31q66 -23 105.5 -33t91.5 -10z" />
    <glyph glyph-name="four" unicode="4" horiz-adv-x="1065" 
d="M37 276v295l483 859h352v-920h156v-234h-156v-276h-307v276h-528zM258 510h320v584h-5z" />
    <glyph glyph-name="five" unicode="5" horiz-adv-x="1065" 
d="M377 225q79 0 137.5 33t89.5 87.5t31 117.5q0 78 -38 133.5t-103.5 84t-145.5 28.5q-44 0 -92.5 -9.5t-130.5 -29.5v760h782v-242h-499v-266q51 8 122 8q140 0 239 -55t150.5 -161t51.5 -257q0 -132 -64 -242t-184.5 -175t-282.5 -65q-98 0 -175 13.5t-171 52.5l17 254
q94 -38 149.5 -54t116.5 -16z" />
    <glyph glyph-name="six" unicode="6" horiz-adv-x="1065" 
d="M618 915q109 0 196.5 -59.5t137 -167t49.5 -244.5q0 -119 -48.5 -226.5t-150 -175t-251.5 -67.5q-240 0 -364 177t-124 510q0 249 65 427t191.5 271.5t307.5 93.5q78 0 145.5 -14t157.5 -43l-19 -248l-21 8q-61 25 -113 40t-103 15q-140 0 -215.5 -97.5t-87.5 -321.5h4
q48 60 111 91t132 31zM678 449q0 103 -38 164t-110 61q-70 0 -106.5 -59.5t-36.5 -190.5q0 -108 37.5 -164.5t107.5 -56.5q72 0 109 64.5t37 181.5z" />
    <glyph glyph-name="seven" unicode="7" horiz-adv-x="1065" 
d="M102 1180v250h861v-283l-420 -1147h-353l457 1180h-545z" />
    <glyph glyph-name="eight" unicode="8" horiz-adv-x="1065" 
d="M1010 375q0 -119 -58.5 -209.5t-168 -140.5t-257.5 -50q-150 0 -256.5 58t-160.5 149.5t-54 192.5q0 89 31.5 164t93 126t146.5 70v4q-71 21 -124 73.5t-81.5 126t-28.5 155.5q0 104 55.5 186t155.5 128t229 46q134 0 232 -53.5t148.5 -138t50.5 -177.5q0 -68 -33 -135.5
t-88 -117.5t-117 -68v-4q76 -19 141 -72.5t104.5 -135t39.5 -177.5zM668 1059q0 41 -15.5 79t-49 63.5t-85.5 25.5q-37 0 -67 -22t-47 -59t-17 -79q0 -70 44 -130.5t116 -86.5q121 77 121 209zM371 387q0 -55 23 -97t61 -64.5t82 -22.5q40 0 76 23.5t58.5 65.5t22.5 93
q0 84 -41 144.5t-137 107.5q-72 -41 -108.5 -104.5t-36.5 -145.5z" />
    <glyph glyph-name="nine" unicode="9" horiz-adv-x="1065" 
d="M391 217q141 0 217 97t86 323h-4q-49 -59 -111.5 -91t-134.5 -32q-107 0 -194 61t-137 168t-50 240q0 112 45 219.5t146 179.5t260 72q240 0 363.5 -174.5t123.5 -511.5q0 -252 -65 -429.5t-191 -270.5t-307 -93q-79 0 -144.5 14t-158.5 44l19 248q69 -29 124 -46.5
t113 -17.5zM678 1006q0 106 -37 163.5t-111 57.5q-69 0 -106 -64.5t-37 -181.5q0 -104 38.5 -164.5t106.5 -60.5q73 0 109.5 57.5t36.5 192.5z" />
    <glyph glyph-name="colon" unicode=":" horiz-adv-x="532" 
d="M414 1067v-307h-295v307h295zM414 307v-307h-295v307h295z" />
    <glyph glyph-name="semicolon" unicode=";" horiz-adv-x="532" 
d="M414 1067v-307h-295v307h295zM426 307l-164 -532h-242l99 532h307z" />
    <glyph glyph-name="less" unicode="&#x3c;" horiz-adv-x="1229" 
d="M1133 1053v-205l-760 -330l760 -332v-202l-1037 446v176z" />
    <glyph glyph-name="equal" unicode="=" horiz-adv-x="1229" 
d="M1133 848v-213h-1037v213h1037zM1133 401v-213h-1037v213h1037z" />
    <glyph glyph-name="greater" unicode="&#x3e;" horiz-adv-x="1229" 
d="M858 518l-762 330v205l1037 -447v-176l-1037 -446v204z" />
    <glyph glyph-name="question" unicode="?" horiz-adv-x="948" 
d="M430 745q49 68 74 108.5t38 81.5t13 89q0 89 -51 130.5t-150 41.5q-62 0 -115.5 -13.5t-123.5 -52.5l-13 265q68 26 153 42.5t177 16.5q217 0 338 -94.5t121 -272.5q0 -94 -36 -173.5t-101 -168.5l-22 -29q-46 -60 -68.5 -94t-36 -69.5t-13.5 -75.5v-20h-274v39
q0 47 4.5 77.5t23.5 71.5t62 100zM623 307v-307h-295v307h295z" />
    <glyph glyph-name="at" unicode="@" horiz-adv-x="1741" 
d="M1632 768q0 -257 -124.5 -432.5t-309.5 -175.5q-99 0 -157 49.5t-58 144.5h-4q-42 -100 -104 -147t-138 -47q-114 0 -183 93.5t-69 249.5q0 233 110.5 406.5t260.5 173.5q75 0 121.5 -41t64.5 -106h5l22 106h240l-79 -352q-28 -125 -37 -176t-9 -78q0 -28 11.5 -46.5
t37.5 -18.5q75 0 130.5 114t55.5 292q0 227 -126 362t-343 135q-255 0 -429.5 -201t-174.5 -516q0 -300 156.5 -463.5t445.5 -163.5q115 0 217 22.5t199 67.5l39 -192q-107 -47 -221.5 -72.5t-246.5 -25.5q-373 0 -595.5 219.5t-222.5 601.5q0 405 240 659t586 254
q319 0 504 -185t185 -511zM825 375q67 0 118.5 141t51.5 273q0 40 -16 68t-48 28q-59 0 -118 -120.5t-59 -251.5q0 -62 18 -100t53 -38z" />
    <glyph glyph-name="A" unicode="A" horiz-adv-x="1327" 
d="M434 319l-98 -319h-324l475 1430h369l459 -1430h-344l-88 319h-449zM496 561h321l-147 594h-4z" />
    <glyph glyph-name="B" unicode="B" horiz-adv-x="1176" 
d="M676 1430q116 0 203.5 -45t135.5 -126.5t48 -187.5q0 -83 -33 -152.5t-92 -115t-133 -58.5v-4q149 -30 218 -116.5t69 -231.5q0 -130 -62 -218.5t-165 -131.5t-228 -43h-502v1430h541zM739 1024q0 43 -19 82t-63 64.5t-116 25.5h-82v-348h80q103 0 151.5 50.5t48.5 125.5
zM768 426q0 93 -48.5 140.5t-127.5 47.5h-133v-372h96q213 0 213 184z" />
    <glyph glyph-name="C" unicode="C" horiz-adv-x="1176" 
d="M764 -25q-196 0 -348 92t-237 261.5t-85 392.5q0 227 87 393t234.5 253t325.5 87q100 0 184 -14t189 -56l-16 -278q-140 82 -289 82q-113 0 -196.5 -56.5t-129 -163t-45.5 -251.5q0 -134 48 -240.5t133.5 -166.5t193.5 -60q157 0 293 76l12 -299q-75 -25 -158.5 -38.5
t-195.5 -13.5z" />
    <glyph glyph-name="D" unicode="D" horiz-adv-x="1366" 
d="M641 1430q189 0 333 -80.5t226 -244t82 -403.5q0 -221 -85 -379.5t-238 -240.5t-353 -82h-471v1430h506zM930 702q0 228 -93 353t-276 125h-90v-930h98q196 0 278.5 129t82.5 323z" />
    <glyph glyph-name="E" unicode="E" horiz-adv-x="1063" 
d="M961 1430v-250h-502v-320h477v-250h-477v-360h526v-250h-850v1430h826z" />
    <glyph glyph-name="F" unicode="F" horiz-adv-x="985" 
d="M928 1430v-250h-469v-332h450v-250h-450v-598h-324v1430h793z" />
    <glyph glyph-name="G" unicode="G" horiz-adv-x="1366" 
d="M745 819h504v-768q-70 -31 -193.5 -53.5t-275.5 -22.5q-201 0 -356 84t-242.5 251.5t-87.5 408.5q0 214 85.5 380t253 260.5t405.5 94.5q87 0 165 -11t207 -46l-20 -281q-95 43 -169.5 61.5t-158.5 18.5q-140 0 -235.5 -66.5t-142 -177.5t-46.5 -247q0 -145 46.5 -251.5
t132 -163.5t200.5 -57q77 0 117 21v324h-189v241z" />
    <glyph glyph-name="H" unicode="H" horiz-adv-x="1290" 
d="M471 594v-594h-336v1430h336v-570h348v570h336v-1430h-336v594h-348z" />
    <glyph glyph-name="I" unicode="I" horiz-adv-x="606" 
d="M471 1430v-1430h-336v1430h336z" />
    <glyph glyph-name="J" unicode="J" horiz-adv-x="797" 
d="M164 262q87 0 124.5 55t37.5 144v969h336v-971q0 -237 -101 -360.5t-301 -123.5q-55 0 -118.5 12t-106.5 29l12 273q42 -15 64 -21t53 -6z" />
    <glyph glyph-name="K" unicode="K" horiz-adv-x="1251" 
d="M471 655v-655h-336v1430h336v-590h4l352 590h377l-442 -670l477 -760h-401l-363 655h-4z" />
    <glyph glyph-name="L" unicode="L" horiz-adv-x="985" 
d="M471 1430v-1172h473v-258h-809v1430h336z" />
    <glyph glyph-name="M" unicode="M" horiz-adv-x="1745" 
d="M1298 1130l-321 -1130h-221l-310 1130h-4v-1130h-307v1430h506l231 -920h5l249 920h484v-1430h-307v1130h-5z" />
    <glyph glyph-name="N" unicode="N" horiz-adv-x="1366" 
d="M424 1034v-1034h-295v1430h393l416 -992h4v992h295v-1430h-397l-412 1034h-4z" />
    <glyph glyph-name="O" unicode="O" horiz-adv-x="1403" 
d="M94 715q0 225 71.5 391.5t208 257t326.5 90.5q189 0 326 -89.5t210 -256t73 -393.5t-72.5 -393.5t-209.5 -256.5t-327 -90q-191 0 -327.5 90t-207.5 256.5t-71 393.5zM965 715q0 236 -66.5 366.5t-200.5 130.5q-126 0 -193 -126t-67 -371t66.5 -371.5t195.5 -126.5
t197 130t68 368z" />
    <glyph glyph-name="P" unicode="P" horiz-adv-x="1139" 
d="M600 1430q144 0 251.5 -48.5t168.5 -149.5t61 -255q0 -141 -55 -244t-154.5 -157t-230.5 -54h-170v-522h-336v1430h465zM745 977q0 203 -190 203h-96v-408h100q86 0 136 53.5t50 151.5z" />
    <glyph glyph-name="Q" unicode="Q" horiz-adv-x="1403" 
d="M705 -25q-194 0 -331 89.5t-208.5 256t-71.5 394.5q0 225 71 391.5t207.5 257t327.5 90.5q190 0 327 -89.5t209.5 -256t72.5 -393.5q0 -225 -77 -402t-222 -264l280 -330h-372l-183 256h-30zM965 715q0 236 -66.5 366.5t-200.5 130.5q-124 0 -192 -125.5t-68 -371.5
q0 -245 66.5 -371.5t195.5 -126.5t197 130t68 368z" />
    <glyph glyph-name="R" unicode="R" horiz-adv-x="1214" 
d="M504 578h-33v-578h-336v1430h531q128 0 225 -42.5t151 -125.5t54 -199q0 -144 -76.5 -236.5t-208.5 -115.5v-4q52 -7 85 -29.5t59.5 -72t56.5 -142.5l145 -463h-352l-111 383q-24 82 -45 122t-53.5 56.5t-91.5 16.5zM760 1008q0 87 -51 133.5t-144 46.5h-106v-369h104
q63 0 107 25t67 68t23 96z" />
    <glyph glyph-name="S" unicode="S" horiz-adv-x="1100" 
d="M192 291q80 -32 136.5 -49t122.5 -17q90 0 149 44.5t59 125.5q0 47 -20.5 81.5t-77.5 70.5t-168 80q-139 55 -218 154t-79 259q0 109 53.5 203.5t163.5 152.5t269 58q82 0 161.5 -12t184.5 -37l-15 -266q-64 32 -141 52.5t-141 20.5q-86 0 -138.5 -38.5t-52.5 -112.5
q0 -39 13.5 -68.5t62.5 -64.5t148 -76q101 -42 173 -91t119.5 -134.5t47.5 -214.5q0 -132 -63.5 -231t-177 -152.5t-261.5 -53.5q-108 0 -200.5 16.5t-182.5 43.5l18 278z" />
    <glyph glyph-name="T" unicode="T" horiz-adv-x="1024" 
d="M33 1171v259h958v-259h-311v-1171h-336v1171h-311z" />
    <glyph glyph-name="U" unicode="U" horiz-adv-x="1290" 
d="M1169 510q0 -167 -62.5 -287.5t-180.5 -184t-281 -63.5t-281 63.5t-180.5 184t-62.5 287.5v920h336v-971q0 -104 44.5 -165t143.5 -61t144 60.5t45 165.5v971h335v-920z" />
    <glyph glyph-name="V" unicode="V" horiz-adv-x="1251" 
d="M377 1430l252 -1043h4l258 1043h344l-432 -1430h-361l-426 1430h361z" />
    <glyph glyph-name="W" unicode="W" horiz-adv-x="1745" 
d="M870 1110l-178 -1110h-393l-287 1430h324l172 -1016h4l170 1016h393l174 -1016h4l185 1016h295l-281 -1430h-393l-185 1110h-4z" />
    <glyph glyph-name="X" unicode="X" horiz-adv-x="1251" 
d="M375 0h-361l414 758l-367 672h377l195 -449l215 449h360l-374 -672l403 -758h-377l-227 512z" />
    <glyph glyph-name="Y" unicode="Y" horiz-adv-x="1212" 
d="M4 1430h385l229 -553l213 553h377l-434 -889v-541h-336v547z" />
    <glyph glyph-name="Z" unicode="Z" horiz-adv-x="1063" 
d="M616 1171h-540v259h917v-263l-555 -909h563v-258h-940v274z" />
    <glyph glyph-name="bracketleft" unicode="[" horiz-adv-x="645" 
d="M584 1548v-205h-187v-1425h187v-205h-437v1835h437z" />
    <glyph glyph-name="backslash" unicode="\" horiz-adv-x="606" 
d="M242 1454l336 -1479h-213l-336 1479h213z" />
    <glyph glyph-name="bracketright" unicode="]" horiz-adv-x="645" 
d="M248 -82v1425h-187v205h437v-1835h-437v205h187z" />
    <glyph glyph-name="asciicircum" unicode="^" horiz-adv-x="1229" 
d="M348 641h-213l381 789h197l381 -789h-213l-267 576z" />
    <glyph glyph-name="underscore" unicode="_" horiz-adv-x="1024" 
d="M1024 -154v-102h-1024v102h1024z" />
    <glyph glyph-name="grave" unicode="`" horiz-adv-x="455" 
d="M276 1487l111 -299h-188l-205 299h282z" />
    <glyph glyph-name="a" unicode="a" horiz-adv-x="1100" 
d="M692 147q-13 -44 -58 -81.5t-108 -59.5t-127 -22q-98 0 -172.5 40t-115.5 113t-41 170q0 169 127 264t405 95h94q0 96 -47 150t-145 54q-73 0 -142.5 -20t-160.5 -74l-15 240q93 30 184.5 48.5t161.5 18.5q162 0 262.5 -39t148.5 -123.5t48 -222.5v-512q0 -27 3 -88.5
t5 -97.5h-294l-9 147h-4zM365 328q0 -71 36.5 -105.5t102.5 -34.5q84 0 138 65t54 204v57h-14q-167 0 -242 -46t-75 -140z" />
    <glyph glyph-name="b" unicode="b" horiz-adv-x="1176" 
d="M113 217v1319h323v-627h4q33 80 101.5 127t173.5 47q117 0 201.5 -61t129 -178.5t44.5 -284.5q0 -175 -45.5 -305t-130.5 -200t-199 -70q-202 0 -291 186h-4q0 -57 -1.5 -89t-6.5 -81h-308q5 50 7 117.5t2 99.5zM754 545q0 133 -21 202.5t-55 92t-82 22.5
q-81 0 -120.5 -81.5t-39.5 -248.5q0 -145 41.5 -230t118.5 -85q81 0 119.5 76.5t38.5 251.5z" />
    <glyph glyph-name="c" unicode="c" horiz-adv-x="909" 
d="M573 -16q-170 0 -283 76t-166.5 199t-53.5 267q0 169 64.5 295t184 194t279.5 68q59 0 112 -12t146 -39l-16 -244q-59 23 -101.5 34.5t-87.5 11.5q-120 0 -182.5 -84t-62.5 -230q0 -92 32.5 -158.5t91.5 -101.5t138 -35q44 0 83.5 11.5t104.5 35.5l10 -243
q-84 -22 -152.5 -33.5t-140.5 -11.5z" />
    <glyph glyph-name="d" unicode="d" horiz-adv-x="1176" 
d="M756 170h-4q-49 -97 -120.5 -141.5t-170.5 -44.5q-114 0 -199 69t-130.5 199t-45.5 307q0 166 44 283.5t128.5 179t202.5 61.5q104 0 173.5 -48t100.5 -126h4v627h324v-1325q0 -36 3 -107t5 -104h-307q-8 68 -8 170zM739 532q0 164 -39 247t-125 83q-44 0 -77 -23
t-54.5 -90.5t-21.5 -191.5q0 -125 17 -199.5t51 -107.5t88 -33q76 0 118.5 83.5t42.5 231.5z" />
    <glyph glyph-name="e" unicode="e" horiz-adv-x="1100" 
d="M627 -16q-172 0 -293 64t-184.5 188t-63.5 301q0 154 58.5 278.5t166.5 196t250 71.5q234 0 347.5 -145t113.5 -403v-86h-629q1 -76 34.5 -131t92.5 -84t137 -29q76 0 154 23.5t147 60.5l7 -244q-79 -29 -166.5 -45t-171.5 -16zM557 887q-80 0 -122 -66.5t-42 -195.5h334
q0 133 -42.5 197.5t-127.5 64.5z" />
    <glyph glyph-name="f" unicode="f" horiz-adv-x="758" 
d="M18 840v227h187v178q0 157 81.5 236.5t254.5 79.5q49 0 94.5 -5t114.5 -20l-9 -225q-38 16 -84 16q-48 0 -76 -13t-40.5 -44.5t-12.5 -87.5v-115h195v-227h-195v-840h-323v840h-187z" />
    <glyph glyph-name="g" unicode="g" horiz-adv-x="1176" 
d="M463 0q-118 0 -202.5 63t-129.5 182.5t-45 286.5q0 171 44 295t129 190t206 66q102 0 174.5 -48t112.5 -138h4l8 170h307q-8 -84 -8 -209v-747q0 -289 -139 -427.5t-404 -138.5q-103 0 -194 17.5t-191 46.5l10 264q101 -51 179 -72.5t157 -21.5q95 0 153 34t86 110
t28 206v59h-5q-29 -83 -105 -135.5t-175 -52.5zM739 535q0 95 -19 166t-55 110t-85 39q-80 0 -119 -77.5t-39 -235.5q0 -148 40.5 -229t115.5 -81q80 0 120.5 79t40.5 229z" />
    <glyph glyph-name="h" unicode="h" horiz-adv-x="1139" 
d="M578 825q-74 0 -108 -59.5t-34 -159.5v-606h-323v1536h323v-627h4q28 86 103 130t172 44q151 0 231 -98t80 -278v-707h-324v666q0 84 -34 121.5t-90 37.5z" />
    <glyph glyph-name="i" unicode="i" horiz-adv-x="569" 
d="M446 1536v-287h-323v287h323zM446 1067v-1067h-323v1067h323z" />
    <glyph glyph-name="j" unicode="j" horiz-adv-x="569" 
d="M446 1536v-287h-323v287h323zM10 -221q59 0 86 39t27 106v1143h323v-1139q0 -175 -75 -279t-238 -104q-56 0 -104.5 9t-79.5 22l8 213q23 -10 53 -10z" />
    <glyph glyph-name="k" unicode="k" horiz-adv-x="1100" 
d="M446 506v-506h-323v1536h323v-901h5l270 432h336l-334 -489l356 -578h-360l-268 506h-5z" />
    <glyph glyph-name="l" unicode="l" horiz-adv-x="569" 
d="M446 1536v-1536h-323v1536h323z" />
    <glyph glyph-name="m" unicode="m" horiz-adv-x="1708" 
d="M1149 825q-69 0 -101 -42.5t-32 -100.5v-682h-324v664q0 76 -29 118.5t-83 42.5q-76 0 -110 -60t-34 -159v-606h-323v868q0 136 -9 199h295q5 -43 7 -80.5t2 -97.5h4q42 97 112.5 145.5t188.5 48.5q107 0 172 -45t104 -133q41 88 109.5 133t183.5 45q150 0 231.5 -96
t81.5 -280v-707h-323v664q0 81 -32.5 121t-90.5 40z" />
    <glyph glyph-name="n" unicode="n" horiz-adv-x="1139" 
d="M578 825q-76 0 -109 -59t-33 -160v-606h-323v868q0 136 -9 199h295q9 -60 9 -178h4q42 97 112.5 145.5t188.5 48.5q153 0 233 -97.5t80 -280.5v-705h-324v666q0 84 -34 121.5t-90 37.5z" />
    <glyph glyph-name="o" unicode="o" horiz-adv-x="1176" 
d="M86 537q0 164 59 287t172.5 191t270.5 68q156 0 269.5 -68t173 -191t59.5 -287t-59 -289t-172.5 -194.5t-270.5 -69.5q-158 0 -271 69t-172 194t-59 290zM754 537q0 325 -166 325t-166 -325q0 -161 41.5 -246.5t124.5 -85.5t124.5 85.5t41.5 246.5z" />
    <glyph glyph-name="p" unicode="p" horiz-adv-x="1176" 
d="M104 1067h308q5 -41 6.5 -75t1.5 -95h4q89 186 291 186q114 0 199 -70t130.5 -200t45.5 -305q0 -167 -44.5 -285t-129 -178.5t-201.5 -60.5q-105 0 -173.5 47t-101.5 127h-4v-600h-323v1294q0 84 -9 215zM754 532q0 161 -38 239.5t-118 78.5q-75 0 -118.5 -84t-43.5 -231
q0 -163 39 -246.5t123 -83.5q55 0 88.5 29t50.5 100t17 198z" />
    <glyph glyph-name="q" unicode="q" horiz-adv-x="1176" 
d="M735 158q-31 -78 -100.5 -126t-173.5 -48q-118 0 -202 60.5t-128.5 178t-44.5 285.5q0 177 45.5 307t130.5 199t199 69q100 0 171 -44.5t120 -141.5h4q0 61 1.5 95t6.5 75h307q-8 -84 -8 -209v-1300h-324v600h-4zM739 535q0 147 -43 231t-118 84q-78 0 -117 -73.5
t-39 -244.5q0 -134 19.5 -205.5t53.5 -96.5t87 -25q157 0 157 330z" />
    <glyph glyph-name="r" unicode="r" horiz-adv-x="797" 
d="M104 1067h295l9 -193h4q48 91 91 135t93.5 59t132.5 15h27v-299q-31 7 -54.5 10t-54.5 3q-109 0 -160 -76t-51 -234v-487h-323v868q0 136 -9 199z" />
    <glyph glyph-name="s" unicode="s" horiz-adv-x="872" 
d="M344 211q85 0 123.5 23t38.5 69q0 22 -11 35t-38 26t-93 39q-25 11 -90 37q-102 43 -158.5 125t-56.5 199q0 80 43.5 153t133.5 119.5t221 46.5q90 0 168 -13t131 -30l-8 -241q-72 28 -133.5 42.5t-127.5 14.5q-60 0 -90 -24t-30 -60q0 -32 26.5 -56t71 -43t141.5 -55
q92 -33 138 -90.5t57.5 -112t11.5 -110.5q0 -102 -48 -174t-136.5 -109.5t-208.5 -37.5q-88 0 -180 11.5t-170 39.5l8 250q60 -35 129.5 -54.5t136.5 -19.5z" />
    <glyph glyph-name="t" unicode="t" horiz-adv-x="797" 
d="M520 -16q-155 0 -235 82.5t-80 226.5v547h-176v227h184v219l315 100v-319h209v-227h-209v-496q0 -127 111 -127q30 0 52.5 5t51.5 18v-228q-25 -11 -90.5 -19.5t-132.5 -8.5z" />
    <glyph glyph-name="u" unicode="u" horiz-adv-x="1139" 
d="M731 178h-4q-42 -97 -112 -145.5t-189 -48.5q-154 0 -233.5 97.5t-79.5 283.5v702h323v-664q0 -85 34.5 -123t90.5 -38q141 0 141 219v606h324v-868q0 -131 8 -199h-295q-5 50 -6.5 84.5t-1.5 93.5z" />
    <glyph glyph-name="v" unicode="v" horiz-adv-x="1063" 
d="M344 1067l197 -760h4l194 760h316l-334 -1067h-381l-332 1067h336z" />
    <glyph glyph-name="w" unicode="w" horiz-adv-x="1630" 
d="M813 780l-164 -780h-352l-287 1067h324l155 -760h5l151 760h369l145 -760h4l150 760h307l-285 -1067h-344l-174 780h-4z" />
    <glyph glyph-name="x" unicode="x" horiz-adv-x="1063" 
d="M346 0h-336l334 569l-303 498h360l150 -319l145 319h336l-303 -498l324 -569h-361l-166 356z" />
    <glyph glyph-name="y" unicode="y" horiz-adv-x="1063" 
d="M219 -213q46 0 82.5 28t57.5 76.5t22 108.5l-371 1067h336l199 -723h4l188 723h316l-377 -1165q-62 -191 -151 -274t-222 -83q-43 0 -97 7.5t-97 19.5l10 240q37 -25 100 -25z" />
    <glyph glyph-name="z" unicode="z" horiz-adv-x="872" 
d="M463 825h-395v242h739v-264l-399 -561h409v-242h-762v266z" />
    <glyph glyph-name="braceleft" unicode="{" horiz-adv-x="682" 
d="M209 -12v356q0 88 -45 143t-127 56v176q81 0 126.5 52.5t45.5 131.5v369q0 84 39 146.5t108 96t156 33.5h150v-164h-97q-60 0 -79 -37t-19 -100v-373q0 -102 -60 -166.5t-169 -74.5v-4q116 -9 172.5 -76.5t56.5 -177.5v-357q0 -46 7 -75.5t28.5 -47.5t64.5 -18h95v-164
h-160q-79 0 -146 32.5t-107 95t-40 147.5z" />
    <glyph glyph-name="bar" unicode="|" horiz-adv-x="455" 
d="M334 1536v-2048h-213v2048h213z" />
    <glyph glyph-name="braceright" unicode="}" horiz-adv-x="682" 
d="M115 -123q43 0 64.5 18t28.5 47.5t7 75.5v357q0 110 56.5 177.5t172.5 76.5v4q-109 10 -169 74.5t-60 166.5v373q0 63 -19 100t-79 37h-97v164h150q87 0 156 -33.5t108 -96t39 -146.5v-369q0 -79 45.5 -131.5t126.5 -52.5v-176q-82 -1 -127 -56t-45 -143v-356
q0 -85 -40 -147.5t-107 -95t-146 -32.5h-160v164h95z" />
    <glyph glyph-name="asciitilde" unicode="~" horiz-adv-x="1229" 
d="M852 340q-59 0 -112 16.5t-124 54.5l-41 21q-49 24 -92.5 37.5t-91.5 13.5q-111 0 -176 -145l-74 176q46 89 108.5 135.5t139.5 46.5q64 0 120 -17.5t122 -51.5q75 -40 121 -57t92 -17q44 0 85.5 38.5t84.5 106.5l73 -178q-45 -82 -108 -131t-127 -49z" />
    <glyph glyph-name="exclamdown" unicode="&#xa1;" horiz-adv-x="795" 
d="M545 1067v-307h-295v307h295zM518 612l41 -974h-323l40 974h242z" />
    <glyph glyph-name="cent" unicode="&#xa2;" horiz-adv-x="1065" 
d="M135 528q0 173 69.5 301t195.5 194t292 60l35 234h111l-35 -250q65 -17 119 -37l-17 -246q-48 18 -76 27t-61 14l-88 -600q30 -6 53 -6q47 0 86.5 11.5t100.5 35.5l10 -246q-75 -20 -143 -32t-144 -13l-37 -251h-110l39 260q-123 20 -213 93t-138.5 189t-48.5 262z
M471 516q0 -167 102 -246l82 555q-85 -17 -134.5 -99t-49.5 -210z" />
    <glyph glyph-name="sterling" unicode="&#xa3;" horiz-adv-x="1065" 
d="M225 242v422h-143v184h143v135q0 225 123.5 348t366.5 123q76 0 138 -8.5t124 -26.5l-12 -241q-63 24 -106.5 33.5t-96.5 9.5q-123 0 -176.5 -67t-53.5 -200v-106h312v-184h-312v-422h451v-242h-901v242h143z" />
    <glyph glyph-name="currency" unicode="&#xa4;" horiz-adv-x="1065" 
d="M532 242q-139 0 -274 86l-108 -109l-113 113l108 108q-43 67 -64.5 134.5t-21.5 140.5q0 71 22 141.5t64 132.5l-108 109l113 112l108 -108q127 86 274 86q137 0 275 -86l108 108l113 -112l-108 -109q86 -127 86 -274q0 -72 -21.5 -139.5t-64.5 -135.5l108 -108
l-113 -113l-108 109q-135 -86 -275 -86zM793 715q0 73 -34.5 136.5t-95 101.5t-133.5 38q-71 0 -130 -38t-93.5 -101.5t-34.5 -136.5q0 -74 35 -137.5t95 -101.5t130 -38q72 0 132 38t94.5 102t34.5 137z" />
    <glyph glyph-name="yen" unicode="&#xa5;" horiz-adv-x="1065" 
d="M385 0v229h-291v213h291v105l-14 31h-277v213h191l-265 639h308l211 -599h4l194 599h307l-262 -639h189v-213h-277l-14 -37v-99h291v-213h-291v-229h-295z" />
    <glyph glyph-name="brokenbar" unicode="&#xa6;" horiz-adv-x="455" 
d="M334 1382v-716h-213v716h213zM334 358v-716h-213v716h213z" />
    <glyph glyph-name="section" unicode="&#xa7;" horiz-adv-x="1063" 
d="M174 36q88 -38 149.5 -57.5t127.5 -19.5q67 0 110 35t43 88q0 38 -25.5 69t-64 55t-104.5 59l-70 38q-118 65 -174.5 141.5t-56.5 165.5q0 58 24.5 115.5t65.5 101t88 60.5q-78 55 -112 115.5t-34 142.5t46.5 152.5t136.5 113.5t215 43q75 0 176 -18.5t162 -38.5
l-23 -236q-50 24 -129 48t-135 24q-63 0 -102 -27.5t-39 -79.5q0 -30 13 -49t52 -43.5t135 -75.5q134 -69 200 -127t85.5 -110t19.5 -125q0 -78 -36.5 -142t-122.5 -137q55 -35 90 -98.5t35 -138.5q0 -93 -49 -172.5t-148 -127.5t-240 -48q-157 0 -360 75l24 240
q18 -8 27 -11zM688 555q0 67 -58 123.5t-194 122.5q-34 -36 -47.5 -71t-13.5 -64q0 -68 60.5 -126.5t195.5 -121.5q31 31 44 71t13 66z" />
    <glyph glyph-name="dieresis" unicode="&#xa8;" horiz-adv-x="455" 
d="M172 1497v-258h-242v258h242zM524 1497v-258h-241v258h241z" />
    <glyph glyph-name="copyright" unicode="&#xa9;" horiz-adv-x="1638" 
d="M80 715q0 202 100.5 372t270.5 268.5t368 98.5q202 0 372 -100.5t269 -270.5t99 -368t-98.5 -368.5t-268.5 -271t-373 -100.5q-202 0 -372 101t-268.5 271t-98.5 368zM1346 715q0 154 -68 283t-189 204.5t-272 75.5q-144 0 -264 -72.5t-190 -201t-70 -289.5
q0 -158 67 -286.5t187 -202.5t272 -74q146 0 266.5 72t190.5 200.5t70 290.5zM840 285q-117 0 -208.5 58t-142.5 157.5t-51 220.5q0 127 51 226t142.5 154.5t208.5 55.5q91 0 165 -35t123 -104t64 -168h-164q-13 69 -65 106t-123 37q-104 0 -160.5 -73t-56.5 -197
q0 -80 28.5 -142.5t78.5 -97t112 -34.5q78 0 128.5 38t57.5 109h164q-15 -95 -64.5 -165.5t-124 -108t-163.5 -37.5z" />
    <glyph glyph-name="ordfeminine" unicode="&#xaa;" horiz-adv-x="715" 
d="M457 897q-8 -31 -63.5 -62.5t-127.5 -31.5q-98 0 -156.5 53t-58.5 139q0 209 346 209h64q0 115 -125 115q-45 0 -90 -12.5t-103 -44.5l-10 153q17 4 90.5 21.5t134.5 17.5q154 0 226.5 -52t72.5 -175v-293q0 -86 7 -123h-197l-6 86h-4zM248 1001q0 -75 92 -75
q59 0 90 40.5t31 116.5v29h-9q-202 0 -204 -111z" />
    <glyph glyph-name="guillemotleft" unicode="&#xab;" horiz-adv-x="1065" 
d="M276 956h256l-184 -424l184 -423h-256l-202 423zM696 956h256l-184 -424l184 -423h-256l-202 423z" />
    <glyph glyph-name="logicalnot" unicode="&#xac;" horiz-adv-x="1229" 
d="M96 635v213h1037v-627h-213v414h-824z" />
    <glyph glyph-name="registered" unicode="&#xae;" horiz-adv-x="1024" 
d="M872 1059q0 -153 -105 -258t-253 -105q-150 0 -256 107t-106 258q0 149 107 252.5t261 103.5q144 0 248 -107t104 -251zM512 756q125 0 213 89t88 216q0 122 -90 209.5t-217 87.5q-116 0 -205.5 -89t-89.5 -210q0 -125 88.5 -214t212.5 -89zM505 1280q86 0 130.5 -31
t44.5 -94q0 -37 -20 -64.5t-60 -33.5v-4q30 -11 43 -39t74 -162h-123q-45 109 -58.5 137.5t-52.5 28.5h-20v-166h-107v428h149zM463 1098h20q39 0 62.5 9.5t23.5 41.5q0 27 -21.5 35t-70.5 8h-14v-94z" />
    <glyph glyph-name="macron" unicode="&#xaf;" horiz-adv-x="455" 
d="M528 1427v-176h-602v176h602z" />
    <glyph glyph-name="degree" unicode="&#xb0;" horiz-adv-x="819" 
d="M78 1122q0 88 44.5 164.5t121 122t166.5 45.5q89 0 165.5 -45t121 -121.5t44.5 -165.5q0 -88 -44.5 -164t-120.5 -121.5t-166 -45.5t-166 45.5t-121 121.5t-45 164zM410 1290q-46 0 -84.5 -22.5t-61 -61.5t-22.5 -84t22.5 -84t61 -61.5t84.5 -22.5q45 0 83.5 23
t61.5 61.5t23 83.5t-23 83.5t-61.5 61.5t-83.5 23z" />
    <glyph glyph-name="plusminus" unicode="&#xb1;" horiz-adv-x="1229" 
d="M508 283v270h-412v213h412v270h213v-270h412v-213h-412v-270h-213zM1133 213v-213h-1037v213h1037z" />
    <glyph glyph-name="twosuperior" unicode="&#xb2;" horiz-adv-x="692" 
d="M158 1134q83 84 129.5 135.5t77 103t30.5 97.5q0 48 -34 77.5t-91 29.5q-40 0 -91.5 -20.5t-90.5 -47.5l-16 195q89 25 148.5 37t123.5 12q82 0 147 -31t101.5 -86t36.5 -125q0 -90 -67.5 -196.5t-168.5 -202.5l-76 -72h318v-163h-578v153q51 54 101 104z" />
    <glyph glyph-name="threesuperior" unicode="&#xb3;" horiz-adv-x="692" 
d="M96 1066q56 -19 86 -26.5t64 -7.5q50 0 86.5 15.5t55 40.5t18.5 55q0 45 -34 72.5t-128 27.5h-68v152h35q92 0 143.5 22t51.5 68q0 48 -41.5 76t-98.5 28q-36 0 -71.5 -9t-89.5 -27l-21 -7l-10 168q74 21 141 30t141 9q76 0 137.5 -28t97.5 -80t36 -123q0 -64 -45 -111.5
t-140 -79.5v-4q93 -12 145 -67t52 -146q0 -77 -49 -133t-132.5 -84.5t-183.5 -28.5q-44 0 -107.5 10.5t-113.5 26.5l10 172z" />
    <glyph glyph-name="acute" unicode="&#xb4;" horiz-adv-x="455" 
d="M461 1487l-205 -299h-188l110 299h283z" />
    <glyph glyph-name="uni00B5" unicode="&#xb5;" horiz-adv-x="1239" 
d="M1018 -16q-117 0 -178.5 45t-79.5 137h-4q-26 -93 -74 -141t-117 -48q-63 0 -104 29h-6q3 -40 5.5 -137t2.5 -176v-129h-352v1501h352v-549q0 -93 5.5 -149.5t30 -96t76.5 -39.5q76 0 104 85.5t28 218.5v530h356v-733q0 -52 15 -76.5t48 -24.5q19 0 56 13l10 -238
q-38 -10 -88.5 -16t-85.5 -6z" />
    <glyph glyph-name="paragraph" unicode="&#xb6;" horiz-adv-x="1270" 
d="M666 1266v-1520h-213v952q-109 2 -192 47.5t-129 127t-46 186.5q0 130 48 211t152.5 120.5t276.5 39.5h533v-1684h-213v1520h-217z" />
    <glyph glyph-name="periodcentered" unicode="&#xb7;" horiz-adv-x="532" 
d="M109 569q0 70 44.5 114t112.5 44q71 0 114.5 -44t43.5 -114t-43.5 -113.5t-114.5 -43.5t-114 43.5t-43 113.5z" />
    <glyph glyph-name="cedilla" unicode="&#xb8;" horiz-adv-x="455" 
d="M182 -352q54 0 80.5 20t26.5 62q0 33 -25.5 52t-62.5 19q-25 0 -42.5 -3.5t-33.5 -12.5l-45 37l110 192h111l-78 -129q31 11 70 11q76 0 124 -45t48 -119q0 -56 -33.5 -98.5t-89.5 -65.5t-123 -23q-64 0 -131.5 14t-87.5 29l39 95q45 -20 74.5 -27.5t68.5 -7.5z" />
    <glyph glyph-name="onesuperior" unicode="&#xb9;" horiz-adv-x="692" 
d="M135 1405l-100 139l260 201h184v-868h-227v634z" />
    <glyph glyph-name="ordmasculine" unicode="&#xba;" horiz-adv-x="758" 
d="M51 1135q0 95 39 167t113 112t176 40q101 0 175 -39t113.5 -111t39.5 -169q0 -99 -37.5 -174t-111.5 -116.5t-179 -41.5q-101 0 -175 40.5t-113.5 115.5t-39.5 176zM485 1135q0 88 -26.5 136t-79.5 48q-50 0 -78.5 -47t-28.5 -137q0 -94 27 -145.5t80 -51.5t79.5 51.5
t26.5 145.5z" />
    <glyph glyph-name="guillemotright" unicode="&#xbb;" horiz-adv-x="1065" 
d="M113 956h256l202 -424l-202 -423h-256l184 423zM532 956h256l203 -424l-203 -423h-256l185 421z" />
    <glyph glyph-name="onequarter" unicode="&#xbc;" horiz-adv-x="1593" 
d="M1176 1497l-646 -1565h-184l645 1565h185zM135 1104l-100 139l260 201h184v-869h-227v635zM862 156v186l314 526h249v-561h86v-151h-86v-156h-221v156h-342zM1026 307h186v340h-4z" />
    <glyph glyph-name="onehalf" unicode="&#xbd;" horiz-adv-x="1593" 
d="M1139 1497l-645 -1565h-185l645 1565h185zM135 1104l-100 139l260 201h184v-869h-227v635zM1036 259q83 83 129 134.5t76.5 103t30.5 97.5q0 48 -34 77t-91 29q-40 0 -92 -20t-90 -47l-17 194q93 26 151 38t122 12q81 0 146 -31t101.5 -86t36.5 -125q0 -90 -67 -197
t-168 -202l-76 -72h317v-164h-577v154q31 31 102 105z" />
    <glyph glyph-name="threequarters" unicode="&#xbe;" horiz-adv-x="1593" 
d="M1212 1497l-645 -1565h-184l645 1565h184zM96 765q56 -19 86 -26.5t64 -7.5q50 0 86.5 15.5t55 40.5t18.5 55q0 45 -34 72.5t-128 27.5h-68v152h35q92 0 143.5 22t51.5 68q0 48 -41.5 76t-98.5 28q-36 0 -71.5 -9t-89.5 -27l-21 -7l-10 168q74 21 141 30t141 9
q76 0 137.5 -28t97.5 -80t36 -123q0 -64 -45 -111.5t-140 -79.5v-4q93 -12 145 -67t52 -146q0 -77 -49 -133t-132.5 -84.5t-183.5 -28.5q-44 0 -107.5 10.5t-113.5 26.5l10 172zM862 156v186l314 526h249v-561h86v-151h-86v-156h-221v156h-342zM1026 307h186v340h-4z" />
    <glyph glyph-name="questiondown" unicode="&#xbf;" horiz-adv-x="948" 
d="M621 1067v-307h-295v307h295zM516 -387q-217 0 -338 94.5t-121 272.5q0 95 36.5 174.5t101.5 167.5q22 28 20 26q46 62 69 96t36.5 69.5t13.5 76.5v20h274v-39q0 -47 -4.5 -77.5t-23.5 -71.5t-62 -100q-49 -68 -74 -108.5t-38 -81.5t-13 -89q0 -89 51 -130.5t150 -41.5
q63 0 116 13.5t124 52.5l12 -265q-68 -26 -153 -42.5t-177 -16.5z" />
    <glyph glyph-name="Agrave" unicode="&#xc0;" horiz-adv-x="1327" 
d="M434 319l-98 -319h-324l475 1430h369l459 -1430h-344l-88 319h-449zM496 561h321l-147 594h-4zM712 1819l111 -299h-188l-205 299h282z" />
    <glyph glyph-name="Aacute" unicode="&#xc1;" horiz-adv-x="1327" 
d="M434 319l-98 -319h-324l475 1430h369l459 -1430h-344l-88 319h-449zM496 561h321l-147 594h-4zM897 1819l-205 -299h-188l110 299h283z" />
    <glyph glyph-name="Acircumflex" unicode="&#xc2;" horiz-adv-x="1327" 
d="M434 319l-98 -319h-324l475 1430h369l459 -1430h-344l-88 319h-449zM496 561h321l-147 594h-4zM565 1520h-205l158 299h295l157 -299h-204l-101 176z" />
    <glyph glyph-name="Atilde" unicode="&#xc3;" horiz-adv-x="1327" 
d="M434 319l-98 -319h-324l475 1430h369l459 -1430h-344l-88 319h-449zM496 561h321l-147 594h-4zM791 1549q-32 0 -66.5 10t-76.5 28q-7 3 -29.5 13.5t-39.5 16t-29 5.5q-25 0 -39.5 -22t-16.5 -51h-151q5 72 31 128.5t68.5 88.5t94.5 32q42 0 80.5 -12.5t89.5 -38.5
q46 -22 72 -22q47 0 55 73h152q-6 -110 -56 -179.5t-139 -69.5z" />
    <glyph glyph-name="Adieresis" unicode="&#xc4;" horiz-adv-x="1327" 
d="M434 319l-98 -319h-324l475 1430h369l459 -1430h-344l-88 319h-449zM496 561h321l-147 594h-4zM608 1814v-258h-242v258h242zM960 1814v-258h-241v258h241z" />
    <glyph glyph-name="Aring" unicode="&#xc5;" horiz-adv-x="1327" 
d="M434 319l-98 -319h-324l475 1430h369l459 -1430h-344l-88 319h-449zM496 561h321l-147 594h-4zM436 1716q0 60 30 112.5t82 84t115 31.5q64 0 116 -32t82 -84.5t30 -111.5q0 -60 -30.5 -112.5t-83 -83.5t-114.5 -31t-114 31t-82.5 83.5t-30.5 112.5zM661 1833
q-29 0 -55.5 -16t-42.5 -43t-16 -58q0 -47 34.5 -81.5t81.5 -34.5q48 0 82.5 34.5t34.5 81.5q0 48 -35 82.5t-84 34.5z" />
    <glyph glyph-name="AE" unicode="&#xc6;" horiz-adv-x="1782" 
d="M498 319l-133 -319h-353l654 1430h1001v-250h-467v-320h438v-250h-438v-360h488v-250h-803v319h-387zM598 561h287v647h-4z" />
    <glyph glyph-name="Ccedilla" unicode="&#xc7;" horiz-adv-x="1176" 
d="M639 -352q104 0 104 86q0 29 -26.5 48t-63.5 19q-22 0 -37 -3.5t-36 -12.5l-45 37l96 166q-162 28 -283.5 127.5t-187.5 255.5t-66 350q0 227 87 393t234.5 253t325.5 87q100 0 184 -14t189 -56l-16 -278q-140 82 -289 82q-113 0 -196.5 -56.5t-129 -163t-45.5 -251.5
q0 -134 48 -240.5t133.5 -166.5t193.5 -60q157 0 293 76l12 -299q-180 -52 -340 -52h-45l-55 -90q27 11 70 11q76 0 124 -45t48 -119q0 -55 -33 -97.5t-89 -66t-124 -23.5q-70 0 -135 15t-84 28l39 95q45 -20 74.5 -27.5t70.5 -7.5z" />
    <glyph glyph-name="Egrave" unicode="&#xc8;" horiz-adv-x="1063" 
d="M961 1430v-250h-502v-320h477v-250h-477v-360h526v-250h-850v1430h826zM581 1819l111 -299h-188l-205 299h282z" />
    <glyph glyph-name="Eacute" unicode="&#xc9;" horiz-adv-x="1063" 
d="M961 1430v-250h-502v-320h477v-250h-477v-360h526v-250h-850v1430h826zM766 1819l-205 -299h-188l110 299h283z" />
    <glyph glyph-name="Ecircumflex" unicode="&#xca;" horiz-adv-x="1063" 
d="M961 1430v-250h-502v-320h477v-250h-477v-360h526v-250h-850v1430h826zM433 1520h-205l158 299h295l157 -299h-204l-101 176z" />
    <glyph glyph-name="Edieresis" unicode="&#xcb;" horiz-adv-x="1063" 
d="M961 1430v-250h-502v-320h477v-250h-477v-360h526v-250h-850v1430h826zM477 1814v-258h-242v258h242zM829 1814v-258h-241v258h241z" />
    <glyph glyph-name="Igrave" unicode="&#xcc;" horiz-adv-x="606" 
d="M471 1430v-1430h-336v1430h336zM352 1819l111 -299h-188l-205 299h282z" />
    <glyph glyph-name="Iacute" unicode="&#xcd;" horiz-adv-x="606" 
d="M471 1430v-1430h-336v1430h336zM537 1819l-205 -299h-188l110 299h283z" />
    <glyph glyph-name="Icircumflex" unicode="&#xce;" horiz-adv-x="606" 
d="M471 1430v-1430h-336v1430h336zM202 1520h-205l158 299h295l157 -299h-204l-101 176z" />
    <glyph glyph-name="Idieresis" unicode="&#xcf;" horiz-adv-x="606" 
d="M471 1430v-1430h-336v1430h336zM248 1814v-258h-242v258h242zM600 1814v-258h-241v258h241z" />
    <glyph glyph-name="Eth" unicode="&#xd0;" horiz-adv-x="1366" 
d="M0 614v234h135v582h506q189 0 333 -80.5t226 -244t82 -403.5q0 -221 -85 -379.5t-238 -240.5t-353 -82h-471v614h-135zM930 702q0 228 -93 353t-276 125h-90v-332h209v-234h-209v-364h98q184 0 272.5 121.5t88.5 330.5z" />
    <glyph glyph-name="Ntilde" unicode="&#xd1;" horiz-adv-x="1366" 
d="M424 1034v-1034h-295v1430h393l416 -992h4v992h295v-1430h-397l-412 1034h-4zM811 1549q-32 0 -66.5 10t-76.5 28q-7 3 -29.5 13.5t-39.5 16t-29 5.5q-25 0 -39.5 -22t-16.5 -51h-151q5 72 31 128.5t68.5 88.5t94.5 32q42 0 80.5 -12.5t89.5 -38.5q46 -22 72 -22
q47 0 55 73h152q-6 -110 -56 -179.5t-139 -69.5z" />
    <glyph glyph-name="Ograve" unicode="&#xd2;" horiz-adv-x="1403" 
d="M94 715q0 225 71.5 391.5t208 257t326.5 90.5q189 0 326 -89.5t210 -256t73 -393.5t-72.5 -393.5t-209.5 -256.5t-327 -90q-191 0 -327.5 90t-207.5 256.5t-71 393.5zM965 715q0 236 -66.5 366.5t-200.5 130.5q-126 0 -193 -126t-67 -371t66.5 -371.5t195.5 -126.5
t197 130t68 368zM751 1819l111 -299h-188l-205 299h282z" />
    <glyph glyph-name="Oacute" unicode="&#xd3;" horiz-adv-x="1403" 
d="M94 715q0 225 71.5 391.5t208 257t326.5 90.5q189 0 326 -89.5t210 -256t73 -393.5t-72.5 -393.5t-209.5 -256.5t-327 -90q-191 0 -327.5 90t-207.5 256.5t-71 393.5zM965 715q0 236 -66.5 366.5t-200.5 130.5q-126 0 -193 -126t-67 -371t66.5 -371.5t195.5 -126.5
t197 130t68 368zM936 1819l-205 -299h-188l110 299h283z" />
    <glyph glyph-name="Ocircumflex" unicode="&#xd4;" horiz-adv-x="1403" 
d="M94 715q0 225 71.5 391.5t208 257t326.5 90.5q189 0 326 -89.5t210 -256t73 -393.5t-72.5 -393.5t-209.5 -256.5t-327 -90q-191 0 -327.5 90t-207.5 256.5t-71 393.5zM965 715q0 236 -66.5 366.5t-200.5 130.5q-126 0 -193 -126t-67 -371t66.5 -371.5t195.5 -126.5
t197 130t68 368zM602 1520h-205l158 299h295l157 -299h-204l-101 176z" />
    <glyph glyph-name="Otilde" unicode="&#xd5;" horiz-adv-x="1403" 
d="M94 715q0 225 71.5 391.5t208 257t326.5 90.5q189 0 326 -89.5t210 -256t73 -393.5t-72.5 -393.5t-209.5 -256.5t-327 -90q-191 0 -327.5 90t-207.5 256.5t-71 393.5zM965 715q0 236 -66.5 366.5t-200.5 130.5q-126 0 -193 -126t-67 -371t66.5 -371.5t195.5 -126.5
t197 130t68 368zM829 1549q-32 0 -66.5 10t-76.5 28q-7 3 -29.5 13.5t-39.5 16t-29 5.5q-25 0 -39.5 -22t-16.5 -51h-151q5 72 31 128.5t68.5 88.5t94.5 32q42 0 80.5 -12.5t89.5 -38.5q46 -22 72 -22q47 0 55 73h152q-6 -110 -56 -179.5t-139 -69.5z" />
    <glyph glyph-name="Odieresis" unicode="&#xd6;" horiz-adv-x="1403" 
d="M94 715q0 225 71.5 391.5t208 257t326.5 90.5q189 0 326 -89.5t210 -256t73 -393.5t-72.5 -393.5t-209.5 -256.5t-327 -90q-191 0 -327.5 90t-207.5 256.5t-71 393.5zM965 715q0 236 -66.5 366.5t-200.5 130.5q-126 0 -193 -126t-67 -371t66.5 -371.5t195.5 -126.5
t197 130t68 368zM647 1814v-258h-242v258h242zM999 1814v-258h-241v258h241z" />
    <glyph glyph-name="multiply" unicode="&#xd7;" horiz-adv-x="1229" 
d="M131 188l334 330l-334 330l154 151l327 -331l332 331l152 -151l-330 -330l330 -330l-152 -151l-330 330l-329 -330z" />
    <glyph glyph-name="Oslash" unicode="&#xd8;" horiz-adv-x="1403" 
d="M94 715q0 225 71 391.5t207.5 257t327.5 90.5q245 0 398 -145l133 166l94 -74l-147 -187q65 -97 98 -223.5t33 -275.5q0 -227 -72 -393.5t-209.5 -256.5t-327.5 -90q-243 0 -395 146l-133 -166l-94 74l147 186q-65 97 -98 224t-33 276zM698 1212q-123 0 -191.5 -125.5
t-68.5 -371.5q0 -111 17 -211l450 561q-27 67 -80.5 107t-126.5 40zM700 217q129 0 197 130t68 368q0 105 -19 211l-448 -564q66 -145 202 -145z" />
    <glyph glyph-name="Ugrave" unicode="&#xd9;" horiz-adv-x="1290" 
d="M1169 510q0 -167 -62.5 -287.5t-180.5 -184t-281 -63.5t-281 63.5t-180.5 184t-62.5 287.5v920h336v-971q0 -104 44.5 -165t143.5 -61t144 60.5t45 165.5v971h335v-920zM694 1819l111 -299h-188l-205 299h282z" />
    <glyph glyph-name="Uacute" unicode="&#xda;" horiz-adv-x="1290" 
d="M1169 510q0 -167 -62.5 -287.5t-180.5 -184t-281 -63.5t-281 63.5t-180.5 184t-62.5 287.5v920h336v-971q0 -104 44.5 -165t143.5 -61t144 60.5t45 165.5v971h335v-920zM879 1819l-205 -299h-188l110 299h283z" />
    <glyph glyph-name="Ucircumflex" unicode="&#xdb;" horiz-adv-x="1290" 
d="M1169 510q0 -167 -62.5 -287.5t-180.5 -184t-281 -63.5t-281 63.5t-180.5 184t-62.5 287.5v920h336v-971q0 -104 44.5 -165t143.5 -61t144 60.5t45 165.5v971h335v-920zM545 1520h-205l158 299h295l157 -299h-204l-101 176z" />
    <glyph glyph-name="Udieresis" unicode="&#xdc;" horiz-adv-x="1290" 
d="M1169 510q0 -167 -62.5 -287.5t-180.5 -184t-281 -63.5t-281 63.5t-180.5 184t-62.5 287.5v920h336v-971q0 -104 44.5 -165t143.5 -61t144 60.5t45 165.5v971h335v-920zM590 1814v-258h-242v258h242zM942 1814v-258h-241v258h241z" />
    <glyph glyph-name="Yacute" unicode="&#xdd;" horiz-adv-x="1212" 
d="M4 1430h385l229 -553l213 553h377l-434 -889v-541h-336v547zM840 1819l-205 -299h-188l110 299h283z" />
    <glyph glyph-name="Thorn" unicode="&#xde;" horiz-adv-x="1139" 
d="M471 1430v-173h123q229 0 358 -112t129 -340q0 -141 -54.5 -244t-154 -157t-231.5 -54h-170v-350h-336v1430h336zM745 805q0 102 -49 152.5t-141 50.5h-96v-408h104q82 0 132 53.5t50 151.5z" />
    <glyph glyph-name="germandbls" unicode="&#xdf;" horiz-adv-x="1176" 
d="M606 217q74 0 117 60t43 178q0 93 -24.5 141t-68.5 64.5t-120 21.5v233q190 0 190 218q0 206 -147 206q-58 0 -90.5 -28t-46 -85t-13.5 -153v-1073h-323v1098q0 143 57.5 247.5t165 160t254.5 55.5q148 0 248 -54t148 -145.5t48 -204.5q0 -92 -32.5 -166.5t-91 -121
t-134.5 -56.5v-4q152 -21 228 -121.5t76 -265.5q0 -130 -49.5 -229t-142.5 -154t-220 -55q-37 0 -81 5t-65 11l13 233q24 -16 61 -16z" />
    <glyph glyph-name="agrave" unicode="&#xe0;" horiz-adv-x="1100" 
d="M692 147q-13 -44 -58 -81.5t-108 -59.5t-127 -22q-98 0 -172.5 40t-115.5 113t-41 170q0 169 127 264t405 95h94q0 96 -47 150t-145 54q-73 0 -142.5 -20t-160.5 -74l-15 240q93 30 184.5 48.5t161.5 18.5q162 0 262.5 -39t148.5 -123.5t48 -222.5v-512q0 -27 3 -88.5
t5 -97.5h-294l-9 147h-4zM365 328q0 -71 36.5 -105.5t102.5 -34.5q84 0 138 65t54 204v57h-14q-167 0 -242 -46t-75 -140zM600 1487l111 -299h-188l-205 299h282z" />
    <glyph glyph-name="aacute" unicode="&#xe1;" horiz-adv-x="1100" 
d="M692 147q-13 -44 -58 -81.5t-108 -59.5t-127 -22q-98 0 -172.5 40t-115.5 113t-41 170q0 169 127 264t405 95h94q0 96 -47 150t-145 54q-73 0 -142.5 -20t-160.5 -74l-15 240q93 30 184.5 48.5t161.5 18.5q162 0 262.5 -39t148.5 -123.5t48 -222.5v-512q0 -27 3 -88.5
t5 -97.5h-294l-9 147h-4zM365 328q0 -71 36.5 -105.5t102.5 -34.5q84 0 138 65t54 204v57h-14q-167 0 -242 -46t-75 -140zM785 1487l-205 -299h-188l110 299h283z" />
    <glyph glyph-name="acircumflex" unicode="&#xe2;" horiz-adv-x="1100" 
d="M692 147q-13 -44 -58 -81.5t-108 -59.5t-127 -22q-98 0 -172.5 40t-115.5 113t-41 170q0 169 127 264t405 95h94q0 96 -47 150t-145 54q-73 0 -142.5 -20t-160.5 -74l-15 240q93 30 184.5 48.5t161.5 18.5q162 0 262.5 -39t148.5 -123.5t48 -222.5v-512q0 -27 3 -88.5
t5 -97.5h-294l-9 147h-4zM365 328q0 -71 36.5 -105.5t102.5 -34.5q84 0 138 65t54 204v57h-14q-167 0 -242 -46t-75 -140zM451 1188h-205l158 299h295l157 -299h-204l-101 176z" />
    <glyph glyph-name="atilde" unicode="&#xe3;" horiz-adv-x="1100" 
d="M692 147q-13 -44 -58 -81.5t-108 -59.5t-127 -22q-98 0 -172.5 40t-115.5 113t-41 170q0 169 127 264t405 95h94q0 96 -47 150t-145 54q-73 0 -142.5 -20t-160.5 -74l-15 240q93 30 184.5 48.5t161.5 18.5q162 0 262.5 -39t148.5 -123.5t48 -222.5v-512q0 -27 3 -88.5
t5 -97.5h-294l-9 147h-4zM365 328q0 -71 36.5 -105.5t102.5 -34.5q84 0 138 65t54 204v57h-14q-167 0 -242 -46t-75 -140zM678 1217q-32 0 -66.5 10t-76.5 28q-7 3 -29.5 13.5t-39.5 16t-29 5.5q-25 0 -39.5 -22t-16.5 -51h-151q5 72 31 128.5t68.5 88.5t94.5 32
q42 0 80.5 -12.5t89.5 -38.5q46 -22 72 -22q47 0 55 73h152q-6 -110 -56 -179.5t-139 -69.5z" />
    <glyph glyph-name="adieresis" unicode="&#xe4;" horiz-adv-x="1100" 
d="M692 147q-13 -44 -58 -81.5t-108 -59.5t-127 -22q-98 0 -172.5 40t-115.5 113t-41 170q0 169 127 264t405 95h94q0 96 -47 150t-145 54q-73 0 -142.5 -20t-160.5 -74l-15 240q93 30 184.5 48.5t161.5 18.5q162 0 262.5 -39t148.5 -123.5t48 -222.5v-512q0 -27 3 -88.5
t5 -97.5h-294l-9 147h-4zM365 328q0 -71 36.5 -105.5t102.5 -34.5q84 0 138 65t54 204v57h-14q-167 0 -242 -46t-75 -140zM496 1497v-258h-242v258h242zM848 1497v-258h-241v258h241z" />
    <glyph glyph-name="aring" unicode="&#xe5;" horiz-adv-x="1100" 
d="M692 147q-13 -44 -58 -81.5t-108 -59.5t-127 -22q-98 0 -172.5 40t-115.5 113t-41 170q0 169 127 264t405 95h94q0 96 -47 150t-145 54q-73 0 -142.5 -20t-160.5 -74l-15 240q93 30 184.5 48.5t161.5 18.5q162 0 262.5 -39t148.5 -123.5t48 -222.5v-512q0 -27 3 -88.5
t5 -97.5h-294l-9 147h-4zM365 328q0 -71 36.5 -105.5t102.5 -34.5q84 0 138 65t54 204v57h-14q-167 0 -242 -46t-75 -140zM344 1384q0 60 30 112.5t82 84t115 31.5q64 0 116 -32t82 -84.5t30 -111.5q0 -60 -30.5 -112.5t-83 -83.5t-114.5 -31t-114 31t-82.5 83.5
t-30.5 112.5zM569 1501q-29 0 -55.5 -16t-42.5 -43t-16 -58q0 -47 34.5 -81.5t81.5 -34.5q48 0 82.5 34.5t34.5 81.5q0 48 -35 82.5t-84 34.5z" />
    <glyph glyph-name="ae" unicode="&#xe6;" horiz-adv-x="1669" 
d="M1200 -16q-149 0 -258 44.5t-166 129.5q-48 -86 -139 -130t-215 -44q-110 0 -188.5 39.5t-119 112.5t-40.5 171q0 173 129.5 266t404.5 93h92q0 204 -198 204q-68 0 -137 -20.5t-160 -73.5l-15 240q95 31 187 49t160 18q105 0 183.5 -26.5t119.5 -71.5q127 98 293 98
q232 0 347 -142t115 -419v-73h-628q0 -76 33 -131t93 -84t138 -29q141 0 301 84l6 -244q-78 -29 -165.5 -45t-172.5 -16zM1141 895q-50 0 -89.5 -29.5t-62 -84.5t-22.5 -128v-8h333q0 113 -42.5 181.5t-116.5 68.5zM375 328q0 -59 35 -99.5t94 -40.5q92 0 144 77.5t52 221.5
v27q-167 0 -246 -47t-79 -139z" />
    <glyph glyph-name="ccedilla" unicode="&#xe7;" horiz-adv-x="909" 
d="M479 -352q54 0 80.5 20t26.5 62q0 33 -25.5 52t-62.5 19q-25 0 -42.5 -3.5t-33.5 -12.5l-45 37l98 170q-125 18 -217 91.5t-140 188.5t-48 254q0 169 64.5 295t184 194t279.5 68q59 0 112 -12t146 -39l-16 -244q-59 23 -101.5 34.5t-87.5 11.5q-120 0 -182.5 -84
t-62.5 -230q0 -92 32.5 -158.5t91.5 -101.5t138 -35q44 0 83.5 11.5t104.5 35.5l10 -243q-149 -42 -288 -45l-58 -99q31 11 70 11q76 0 124 -45t48 -119q0 -56 -33.5 -98.5t-89.5 -65.5t-123 -23q-64 0 -131.5 14t-87.5 29l39 95q45 -20 74.5 -27.5t68.5 -7.5z" />
    <glyph glyph-name="egrave" unicode="&#xe8;" horiz-adv-x="1100" 
d="M627 -16q-172 0 -293 64t-184.5 188t-63.5 301q0 154 58.5 278.5t166.5 196t250 71.5q234 0 347.5 -145t113.5 -403v-86h-629q1 -76 34.5 -131t92.5 -84t137 -29q76 0 154 23.5t147 60.5l7 -244q-79 -29 -166.5 -45t-171.5 -16zM557 887q-80 0 -122 -66.5t-42 -195.5h334
q0 133 -42.5 197.5t-127.5 64.5zM600 1487l111 -299h-188l-205 299h282z" />
    <glyph glyph-name="eacute" unicode="&#xe9;" horiz-adv-x="1100" 
d="M627 -16q-172 0 -293 64t-184.5 188t-63.5 301q0 154 58.5 278.5t166.5 196t250 71.5q234 0 347.5 -145t113.5 -403v-86h-629q1 -76 34.5 -131t92.5 -84t137 -29q76 0 154 23.5t147 60.5l7 -244q-79 -29 -166.5 -45t-171.5 -16zM557 887q-80 0 -122 -66.5t-42 -195.5h334
q0 133 -42.5 197.5t-127.5 64.5zM785 1487l-205 -299h-188l110 299h283z" />
    <glyph glyph-name="ecircumflex" unicode="&#xea;" horiz-adv-x="1100" 
d="M627 -16q-172 0 -293 64t-184.5 188t-63.5 301q0 154 58.5 278.5t166.5 196t250 71.5q234 0 347.5 -145t113.5 -403v-86h-629q1 -76 34.5 -131t92.5 -84t137 -29q76 0 154 23.5t147 60.5l7 -244q-79 -29 -166.5 -45t-171.5 -16zM557 887q-80 0 -122 -66.5t-42 -195.5h334
q0 133 -42.5 197.5t-127.5 64.5zM451 1188h-205l158 299h295l157 -299h-204l-101 176z" />
    <glyph glyph-name="edieresis" unicode="&#xeb;" horiz-adv-x="1100" 
d="M627 -16q-172 0 -293 64t-184.5 188t-63.5 301q0 154 58.5 278.5t166.5 196t250 71.5q234 0 347.5 -145t113.5 -403v-86h-629q1 -76 34.5 -131t92.5 -84t137 -29q76 0 154 23.5t147 60.5l7 -244q-79 -29 -166.5 -45t-171.5 -16zM557 887q-80 0 -122 -66.5t-42 -195.5h334
q0 133 -42.5 197.5t-127.5 64.5zM496 1497v-258h-242v258h242zM848 1497v-258h-241v258h241z" />
    <glyph glyph-name="igrave" unicode="&#xec;" horiz-adv-x="569" 
d="M446 1067v-1067h-323v1067h323zM333 1487l111 -299h-188l-205 299h282z" />
    <glyph glyph-name="iacute" unicode="&#xed;" horiz-adv-x="569" 
d="M446 1067v-1067h-323v1067h323zM518 1487l-205 -299h-188l110 299h283z" />
    <glyph glyph-name="icircumflex" unicode="&#xee;" horiz-adv-x="569" 
d="M446 1067v-1067h-323v1067h323zM184 1188h-205l158 299h295l157 -299h-204l-101 176z" />
    <glyph glyph-name="idieresis" unicode="&#xef;" horiz-adv-x="569" 
d="M446 1067v-1067h-323v1067h323zM229 1497v-258h-242v258h242zM581 1497v-258h-241v258h241z" />
    <glyph glyph-name="eth" unicode="&#xf0;" horiz-adv-x="1176" 
d="M543 1253l-224 -106l-112 110l209 99q-69 43 -172 82l241 123q100 -28 187 -84l176 84l110 -111l-159 -76q140 -137 215.5 -342.5t75.5 -451.5q0 -187 -59 -321t-172 -204.5t-271 -70.5q-159 0 -272 69.5t-171.5 194.5t-58.5 289q0 159 54.5 283t149.5 193.5t212 69.5
q62 0 118 -30.5t80 -77.5h5q-42 158 -162 278zM754 537q0 325 -166 325t-166 -325q0 -332 166 -332q84 0 125 85.5t41 246.5z" />
    <glyph glyph-name="ntilde" unicode="&#xf1;" horiz-adv-x="1139" 
d="M578 825q-76 0 -109 -59t-33 -160v-606h-323v868q0 136 -9 199h295q9 -60 9 -178h4q42 97 112.5 145.5t188.5 48.5q153 0 233 -97.5t80 -280.5v-705h-324v666q0 84 -34 121.5t-90 37.5zM696 1217q-32 0 -66.5 10t-76.5 28q-7 3 -29.5 13.5t-39.5 16t-29 5.5
q-25 0 -39.5 -22t-16.5 -51h-151q5 72 31 128.5t68.5 88.5t94.5 32q42 0 80.5 -12.5t89.5 -38.5q46 -22 72 -22q47 0 55 73h152q-6 -110 -56 -179.5t-139 -69.5z" />
    <glyph glyph-name="ograve" unicode="&#xf2;" horiz-adv-x="1176" 
d="M86 537q0 164 59 287t172.5 191t270.5 68q156 0 269.5 -68t173 -191t59.5 -287t-59 -289t-172.5 -194.5t-270.5 -69.5q-158 0 -271 69t-172 194t-59 290zM754 537q0 325 -166 325t-166 -325q0 -161 41.5 -246.5t124.5 -85.5t124.5 85.5t41.5 246.5zM636 1487l111 -299
h-188l-205 299h282z" />
    <glyph glyph-name="oacute" unicode="&#xf3;" horiz-adv-x="1176" 
d="M86 537q0 164 59 287t172.5 191t270.5 68q156 0 269.5 -68t173 -191t59.5 -287t-59 -289t-172.5 -194.5t-270.5 -69.5q-158 0 -271 69t-172 194t-59 290zM754 537q0 325 -166 325t-166 -325q0 -161 41.5 -246.5t124.5 -85.5t124.5 85.5t41.5 246.5zM821 1487l-205 -299
h-188l110 299h283z" />
    <glyph glyph-name="ocircumflex" unicode="&#xf4;" horiz-adv-x="1176" 
d="M86 537q0 164 59 287t172.5 191t270.5 68q156 0 269.5 -68t173 -191t59.5 -287t-59 -289t-172.5 -194.5t-270.5 -69.5q-158 0 -271 69t-172 194t-59 290zM754 537q0 325 -166 325t-166 -325q0 -161 41.5 -246.5t124.5 -85.5t124.5 85.5t41.5 246.5zM487 1188h-205
l158 299h295l157 -299h-204l-101 176z" />
    <glyph glyph-name="otilde" unicode="&#xf5;" horiz-adv-x="1176" 
d="M86 537q0 164 59 287t172.5 191t270.5 68q156 0 269.5 -68t173 -191t59.5 -287t-59 -289t-172.5 -194.5t-270.5 -69.5q-158 0 -271 69t-172 194t-59 290zM754 537q0 325 -166 325t-166 -325q0 -161 41.5 -246.5t124.5 -85.5t124.5 85.5t41.5 246.5zM714 1217
q-32 0 -66.5 10t-76.5 28q-7 3 -29.5 13.5t-39.5 16t-29 5.5q-25 0 -39.5 -22t-16.5 -51h-151q5 72 31 128.5t68.5 88.5t94.5 32q42 0 80.5 -12.5t89.5 -38.5q46 -22 72 -22q47 0 55 73h152q-6 -110 -56 -179.5t-139 -69.5z" />
    <glyph glyph-name="odieresis" unicode="&#xf6;" horiz-adv-x="1176" 
d="M86 537q0 164 59 287t172.5 191t270.5 68q156 0 269.5 -68t173 -191t59.5 -287t-59 -289t-172.5 -194.5t-270.5 -69.5q-158 0 -271 69t-172 194t-59 290zM754 537q0 325 -166 325t-166 -325q0 -161 41.5 -246.5t124.5 -85.5t124.5 85.5t41.5 246.5zM532 1497v-258h-242
v258h242zM884 1497v-258h-241v258h241z" />
    <glyph glyph-name="divide" unicode="&#xf7;" horiz-adv-x="1229" 
d="M457 926q0 70 43 113.5t114 43.5q72 0 115 -43.5t43 -113.5t-43 -114t-115 -44q-70 0 -113.5 43t-43.5 115zM1133 625v-213h-1037v213h1037zM457 111q0 70 43 113.5t114 43.5q72 0 115 -43.5t43 -113.5t-43 -114t-115 -44q-69 0 -113 44t-44 114z" />
    <glyph glyph-name="oslash" unicode="&#xf8;" horiz-adv-x="1176" 
d="M86 537q0 164 60 287.5t173 191t269 67.5q184 0 307 -92l90 115l82 -62l-98 -122q60 -72 90.5 -170t30.5 -215q0 -164 -58.5 -289t-171.5 -194.5t-272 -69.5q-86 0 -159 19t-136 65l-103 -129l-81 61l108 137q-64 77 -97.5 178t-33.5 222zM588 862q-166 0 -166 -325
q0 -78 10 -129l285 358q-41 96 -129 96zM588 205q84 0 125 85.5t41 246.5q0 72 -9 104l-278 -354q42 -82 121 -82z" />
    <glyph glyph-name="ugrave" unicode="&#xf9;" horiz-adv-x="1139" 
d="M731 178h-4q-42 -97 -112 -145.5t-189 -48.5q-154 0 -233.5 97.5t-79.5 283.5v702h323v-664q0 -85 34.5 -123t90.5 -38q141 0 141 219v606h324v-868q0 -131 8 -199h-295q-5 50 -6.5 84.5t-1.5 93.5zM618 1487l111 -299h-188l-205 299h282z" />
    <glyph glyph-name="uacute" unicode="&#xfa;" horiz-adv-x="1139" 
d="M731 178h-4q-42 -97 -112 -145.5t-189 -48.5q-154 0 -233.5 97.5t-79.5 283.5v702h323v-664q0 -85 34.5 -123t90.5 -38q141 0 141 219v606h324v-868q0 -131 8 -199h-295q-5 50 -6.5 84.5t-1.5 93.5zM803 1487l-205 -299h-188l110 299h283z" />
    <glyph glyph-name="ucircumflex" unicode="&#xfb;" horiz-adv-x="1139" 
d="M731 178h-4q-42 -97 -112 -145.5t-189 -48.5q-154 0 -233.5 97.5t-79.5 283.5v702h323v-664q0 -85 34.5 -123t90.5 -38q141 0 141 219v606h324v-868q0 -131 8 -199h-295q-5 50 -6.5 84.5t-1.5 93.5zM469 1188h-205l158 299h295l157 -299h-204l-101 176z" />
    <glyph glyph-name="udieresis" unicode="&#xfc;" horiz-adv-x="1139" 
d="M731 178h-4q-42 -97 -112 -145.5t-189 -48.5q-154 0 -233.5 97.5t-79.5 283.5v702h323v-664q0 -85 34.5 -123t90.5 -38q141 0 141 219v606h324v-868q0 -131 8 -199h-295q-5 50 -6.5 84.5t-1.5 93.5zM514 1497v-258h-242v258h242zM866 1497v-258h-241v258h241z" />
    <glyph glyph-name="yacute" unicode="&#xfd;" horiz-adv-x="1063" 
d="M219 -213q46 0 82.5 28t57.5 76.5t22 108.5l-371 1067h336l199 -723h4l188 723h316l-377 -1165q-62 -191 -151 -274t-222 -83q-43 0 -97 7.5t-97 19.5l10 240q37 -25 100 -25zM766 1487l-205 -299h-188l110 299h283z" />
    <glyph glyph-name="thorn" unicode="&#xfe;" horiz-adv-x="1176" 
d="M436 1536v-612h4q30 68 105.5 113.5t169.5 45.5q114 0 199 -70t130.5 -200t45.5 -305q0 -167 -44.5 -285t-129 -178.5t-201.5 -60.5q-105 0 -173.5 47t-101.5 127h-4v-600h-323v1978h323zM754 532q0 159 -37.5 238.5t-118.5 79.5q-49 0 -85.5 -37.5t-56.5 -108.5
t-20 -169q0 -163 39 -246.5t123 -83.5q55 0 88.5 29t50.5 100t17 198z" />
    <glyph glyph-name="ydieresis" unicode="&#xff;" horiz-adv-x="1063" 
d="M219 -213q46 0 82.5 28t57.5 76.5t22 108.5l-371 1067h336l199 -723h4l188 723h316l-377 -1165q-62 -191 -151 -274t-222 -83q-43 0 -97 7.5t-97 19.5l10 240q37 -25 100 -25zM477 1497v-258h-242v258h242zM829 1497v-258h-241v258h241z" />
    <glyph glyph-name="dotlessi" unicode="&#x131;" horiz-adv-x="569" 
d="M446 1067v-1067h-323v1067h323z" />
    <glyph glyph-name="Lslash" unicode="&#x141;" horiz-adv-x="985" 
d="M0 315v242l135 113v760h336v-482l266 219v-241l-266 -219v-449h473v-258h-809v428z" />
    <glyph glyph-name="lslash" unicode="&#x142;" horiz-adv-x="569" 
d="M0 344v234l123 122v836h323v-512l123 123v-234l-123 -122v-791h-323v467z" />
    <glyph glyph-name="OE" unicode="&#x152;" horiz-adv-x="1782" 
d="M1040 0q-29 0 -141 -8t-233 -8q-197 0 -329.5 92t-197.5 256.5t-65 384.5q0 221 74 385t219.5 254t355.5 90q53 0 176.5 -8t171.5 -8h619v-250h-480v-320h453v-250h-453v-360h506v-250h-676zM709 1188q-150 0 -220.5 -120.5t-70.5 -352.5q0 -233 68 -353t223 -120
q107 0 165 18v909q-66 19 -165 19z" />
    <glyph glyph-name="oe" unicode="&#x153;" horiz-adv-x="1782" 
d="M1300 -16q-236 0 -374 118q-126 -118 -338 -118q-159 0 -272 69.5t-171.5 194.5t-58.5 289t60 287.5t173 191t269 67.5q107 0 192 -30t146 -86q131 116 307 116q463 0 463 -567v-67h-629q1 -76 34.5 -131t92.5 -84t137 -29q76 0 153.5 23.5t147.5 60.5l6 -244
q-78 -29 -165.5 -45t-172.5 -16zM1229 887q-84 0 -126 -66.5t-42 -195.5h340q0 262 -172 262zM754 537q0 157 -41 241t-125 84q-166 0 -166 -325q0 -161 41 -246.5t125 -85.5t125 86t41 246z" />
    <glyph glyph-name="Scaron" unicode="&#x160;" horiz-adv-x="1100" 
d="M192 291q80 -32 136.5 -49t122.5 -17q90 0 149 44.5t59 125.5q0 47 -20.5 81.5t-77.5 70.5t-168 80q-139 55 -218 154t-79 259q0 109 53.5 203.5t163.5 152.5t269 58q82 0 161.5 -12t184.5 -37l-15 -266q-64 32 -141 52.5t-141 20.5q-86 0 -138.5 -38.5t-52.5 -112.5
q0 -39 13.5 -68.5t62.5 -64.5t148 -76q101 -42 173 -91t119.5 -134.5t47.5 -214.5q0 -132 -63.5 -231t-177 -152.5t-261.5 -53.5q-108 0 -200.5 16.5t-182.5 43.5l18 278zM451 1819l100 -176l101 176h204l-157 -299h-295l-158 299h205z" />
    <glyph glyph-name="scaron" unicode="&#x161;" horiz-adv-x="872" 
d="M344 211q85 0 123.5 23t38.5 69q0 22 -11 35t-38 26t-93 39q-25 11 -90 37q-102 43 -158.5 125t-56.5 199q0 80 43.5 153t133.5 119.5t221 46.5q90 0 168 -13t131 -30l-8 -241q-72 28 -133.5 42.5t-127.5 14.5q-60 0 -90 -24t-30 -60q0 -32 26.5 -56t71 -43t141.5 -55
q92 -33 138 -90.5t57.5 -112t11.5 -110.5q0 -102 -48 -174t-136.5 -109.5t-208.5 -37.5q-88 0 -180 11.5t-170 39.5l8 250q60 -35 129.5 -54.5t136.5 -19.5zM336 1487l100 -176l101 176h204l-157 -299h-295l-158 299h205z" />
    <glyph glyph-name="Ydieresis" unicode="&#x178;" horiz-adv-x="1212" 
d="M4 1430h385l229 -553l213 553h377l-434 -889v-541h-336v547zM551 1815v-258h-242v258h242zM903 1815v-258h-241v258h241z" />
    <glyph glyph-name="Zcaron" unicode="&#x17d;" horiz-adv-x="1063" 
d="M616 1171h-540v259h917v-263l-555 -909h563v-258h-940v274zM432 1819l100 -176l101 176h204l-157 -299h-295l-158 299h205z" />
    <glyph glyph-name="zcaron" unicode="&#x17e;" horiz-adv-x="872" 
d="M463 825h-395v242h739v-264l-399 -561h409v-242h-762v266zM336 1487l100 -176l101 176h204l-157 -299h-295l-158 299h205z" />
    <glyph glyph-name="florin" unicode="&#x192;" horiz-adv-x="1065" 
d="M113 -227q50 0 77.5 44.5t38.5 110.5l115 693h-194l24 227h207l43 242q22 124 62.5 203.5t108.5 120t171 40.5q50 0 94.5 -8.5t118.5 -34.5l-31 -211q-46 33 -106 33q-35 0 -56.5 -15.5t-37.5 -61t-31 -138.5l-29 -170h197l-25 -227h-209l-92 -572q-29 -182 -78.5 -292.5
t-122 -161t-174.5 -50.5q-64 0 -121 16.5t-81 32.5l22 218q46 -39 109 -39z" />
    <glyph glyph-name="circumflex" unicode="&#x2c6;" horiz-adv-x="455" 
d="M127 1188h-205l158 299h295l157 -299h-204l-101 176z" />
    <glyph glyph-name="caron" unicode="&#x2c7;" horiz-adv-x="455" 
d="M127 1487l100 -176l101 176h204l-157 -299h-295l-158 299h205z" />
    <glyph glyph-name="breve" unicode="&#x2d8;" horiz-adv-x="455" 
d="M227 1188q-131 0 -208 80t-78 221h135q2 -64 41 -100.5t110 -36.5q72 0 111 36.5t41 100.5h135q-2 -142 -77.5 -221.5t-209.5 -79.5z" />
    <glyph glyph-name="dotaccent" unicode="&#x2d9;" horiz-adv-x="455" 
d="M348 1497v-258h-242v258h242z" />
    <glyph glyph-name="ring" unicode="&#x2da;" horiz-adv-x="455" 
d="M0 1384q0 60 30 112.5t82 84t115 31.5q64 0 116 -32t82 -84.5t30 -111.5q0 -60 -30.5 -112.5t-83 -83.5t-114.5 -31t-114 31t-82.5 83.5t-30.5 112.5zM225 1501q-29 0 -55.5 -16t-42.5 -43t-16 -58q0 -47 34.5 -81.5t81.5 -34.5q48 0 82.5 34.5t34.5 81.5q0 48 -35 82.5
t-84 34.5z" />
    <glyph glyph-name="ogonek" unicode="&#x2db;" horiz-adv-x="455" 
d="M233 -455q-100 0 -148 49.5t-48 122.5q0 65 45.5 132t120.5 126l47 37h88l-41 -49q-4 -5 -31 -37.5t-46 -76t-19 -87.5q0 -49 28 -77.5t84 -28.5q58 0 76 6l29 -90q-29 -14 -81.5 -20.5t-103.5 -6.5z" />
    <glyph glyph-name="tilde" unicode="&#x2dc;" horiz-adv-x="455" 
d="M354 1217q-32 0 -66.5 10t-76.5 28q-7 3 -29.5 13.5t-39.5 16t-29 5.5q-25 0 -39.5 -22t-16.5 -51h-151q5 72 31 128.5t68.5 88.5t94.5 32q42 0 80.5 -12.5t89.5 -38.5q46 -22 72 -22q47 0 55 73h152q-6 -110 -56 -179.5t-139 -69.5z" />
    <glyph glyph-name="hungarumlaut" unicode="&#x2dd;" horiz-adv-x="455" 
d="M295 1487l-205 -299h-188l110 299h283zM647 1487l-205 -299h-188l111 299h282z" />
    <glyph glyph-name="pi" unicode="&#x3c0;" horiz-adv-x="1208" 
d="M1032 -12q-175 0 -259.5 70.5t-84.5 230.5v520h-186v-809h-355v809h-147v256h1186v-256h-144v-483q0 -97 74 -97q50 0 72 11v-234q-65 -18 -156 -18z" />
    <glyph glyph-name="uni060C" unicode="&#x60c;" horiz-adv-x="605" 
d="M473 555l-108 -555h-271l158 555h221z" />
    <glyph glyph-name="uni0615" unicode="&#x615;" 
d="M-21 1333v487h133v-233q63 52 138 52q87 0 136 -68.5t49 -185.5v-192h-540v140h84zM218 1500q-42 0 -85.5 -45t-69.5 -122h241v48q0 57 -20 88t-66 31z" />
    <glyph glyph-name="uni061B" unicode="&#x61b;" horiz-adv-x="587" 
d="M526 1099l-108 -555h-271l158 555h221zM429 332v-332h-271v332h271z" />
    <glyph glyph-name="uni061F" unicode="&#x61f;" horiz-adv-x="805" 
d="M172 751q-64 84 -93 154t-29 150q0 105 49 179t133.5 111t189.5 37q175 0 321 -56l-7 -273q-112 72 -240 72q-41 0 -80 -16.5t-64 -48t-25 -75.5q0 -84 74 -194q71 -107 98 -182q25 -69 25 -148h-224q-5 75 -35 142t-93 148zM541 316v-316h-257v316h257z" />
    <glyph glyph-name="uni0640" unicode="&#x640;" horiz-adv-x="300" 
d="M-54 107v54q0 54 11 74t39 20h305q31 0 41.5 -20.5t10.5 -68.5v-57q0 -61 -9.5 -85t-38.5 -24h-312q-28 0 -37.5 24t-9.5 83z" />
    <glyph glyph-name="uni0647" unicode="&#x647;" horiz-adv-x="846" 
d="M405 0h-36q-120 0 -203 55.5t-124.5 147.5t-41.5 202q0 238 118 389q56 71 126 110.5t140 39.5q152 0 264 -142q54 -68 82.5 -163t28.5 -207q0 -113 -41.5 -212t-122 -159.5t-190.5 -60.5zM494 469q0 43 -10.5 93t-37.5 86.5t-71 36.5q-29 0 -56.5 -29.5t-45 -80.5
t-17.5 -112q0 -102 31.5 -155t90.5 -53q55 0 85.5 56t30.5 158z" />
    <glyph glyph-name="uni064B" unicode="&#x64b;" 
d="M221 2063v-145h-447v145h447zM221 1838v-145h-447v145h447z" />
    <glyph glyph-name="uni064C" unicode="&#x64c;" 
d="M-18 1836q17 0 36 5q-26 36 -39.5 75t-13.5 78q0 54 21 99.5t54.5 69t69.5 23.5q65 0 102.5 -48.5t37.5 -128.5q0 -94 -44 -163t-107.5 -105t-120.5 -36q-54 0 -97 27.5t-79 85.5l-79 -97l-65 90l149 192q94 -167 175 -167zM151 1995q0 30 -12 46.5t-30 16.5t-31 -17.5
t-13 -46.5q0 -44 44 -98q19 20 30.5 46t11.5 53z" />
    <glyph glyph-name="uni064D" unicode="&#x64d;" 
d="M221 -353v-145h-447v145h447zM221 -577v-145h-447v145h447z" />
    <glyph glyph-name="uni064E" unicode="&#x64e;" 
d="M221 1838v-145h-447v145h447z" />
    <glyph glyph-name="uni064F" unicode="&#x64f;" 
d="M-11 1836q18 0 42 6q-52 73 -52 152q0 56 21 99.5t54.5 68t69.5 24.5q66 0 103 -49t37 -135q0 -85 -42 -153t-107.5 -106t-133.5 -38q-48 0 -101.5 12t-106.5 35l24 128q61 -24 103 -34t89 -10zM165 1997q0 27 -12 44t-30 17t-31 -17t-13 -44q0 -23 9.5 -46.5t34.5 -53.5
q19 19 30.5 45t11.5 55z" />
    <glyph glyph-name="uni0650" unicode="&#x650;" 
d="M221 -353v-145h-447v145h447z" />
    <glyph glyph-name="uni0651" unicode="&#x651;" 
d="M275 1909q0 -97 -47.5 -156.5t-117.5 -59.5q-31 0 -60 16.5t-50 44.5q-23 -28 -52.5 -44.5t-60.5 -16.5q-48 0 -85.5 27t-58.5 76.5t-21 114.5v200h111v-205q0 -35 15.5 -53.5t40.5 -18.5q24 0 41 21.5t17 50.5v178h105v-177q0 -31 16.5 -52t40.5 -21q27 0 41.5 18.5
t14.5 53.5v206h110v-203z" />
    <glyph glyph-name="uni0652" unicode="&#x652;" 
d="M0 1715q-51 0 -94 27.5t-68.5 79.5t-25.5 121t26.5 120.5t69.5 79t92 27.5q50 0 93.5 -28t69.5 -80t26 -119t-25.5 -119t-69 -80.5t-94.5 -28.5zM88 1942q0 46 -25.5 78.5t-63.5 32.5q-36 0 -62 -33t-26 -78q0 -47 26.5 -79.5t62.5 -32.5t62 31.5t26 80.5z" />
    <glyph glyph-name="uni0653" unicode="&#x653;" 
d="M149 1585q-46 0 -88.5 15.5t-108.5 50.5q-75 39 -127 39q-54 0 -130 -72l-98 97q60 77 117.5 117.5t108.5 40.5q57 0 159 -55q96 -52 156 -52q39 0 68.5 15.5t68.5 56.5l99 -88q-49 -76 -106 -120.5t-119 -44.5z" />
    <glyph glyph-name="uni0654" unicode="&#x654;" 
d="M-108 1842q-18 42 -18 85q0 54 22 97t62.5 68t93.5 25q26 0 49.5 -3t65.5 -10l-11 -147q-39 14 -73 14q-29 0 -45.5 -16t-16.5 -41q0 -33 23.5 -52.5t61.5 -19.5h68v-149h-335v149h53z" />
    <glyph glyph-name="uni0655" unicode="&#x655;" 
d="M-108 -453q-18 42 -18 85q0 59 25 103t65.5 65.5t87.5 21.5q27 0 51.5 -3t63.5 -10l-11 -147q-39 14 -74 14q-27 0 -44 -16t-17 -41q0 -33 23.5 -52.5t61.5 -19.5h68v-149h-335v149h53z" />
    <glyph glyph-name="uni0656" unicode="&#x656;" 
d="M57 -389v-475h-120v475h120z" />
    <glyph glyph-name="uni0658" unicode="&#x658;" 
d="M179 1837q0 -68 -23.5 -120.5t-64 -81.5t-91.5 -29q-56 0 -97 29.5t-62.5 79t-21.5 108.5q0 66 28 129.5t72 104.5l60 -55q-60 -74 -60 -136q0 -42 23.5 -72t60.5 -30q36 0 58 27t22 71q0 31 -10.5 60.5t-30.5 65.5l58 56q35 -40 57 -97t22 -110z" />
    <glyph glyph-name="uni0660" unicode="&#x660;" horiz-adv-x="952" 
d="M718 505l-232 -231l-221 221l232 232z" />
    <glyph glyph-name="uni0661" unicode="&#x661;" horiz-adv-x="952" 
d="M620 1436v-1436h-291v1436h291z" />
    <glyph glyph-name="uni0662" unicode="&#x662;" horiz-adv-x="952" 
d="M845 1436v-303h-379l116 -1133h-281l-159 1436h703z" />
    <glyph glyph-name="uni0663" unicode="&#x663;" horiz-adv-x="952" 
d="M310 1435l26 -305q44 -2 59 60q16 61 16 246h226q0 -117 -13 -195t-37 -111q62 2 95 82t35 224h215q-8 -512 -307 -512q-76 0 -139 32q-31 -16 -59 -23.5t-63 -8.5l93 -924h-285l-151 1435h289z" />
    <glyph glyph-name="uni0664" unicode="&#x664;" horiz-adv-x="952" 
d="M467 -31q-101 0 -181 32t-125 92.5t-45 142.5q0 61 24 123.5t58 118t89 133.5l22 32q-94 76 -137 137.5t-43 133.5q0 81 62 188q64 109 178 193.5t264 128.5v-308q-108 -37 -171 -83.5t-63 -89.5q0 -51 112 -133q87 -66 87 -109q0 -32 -60 -107q-69 -86 -104 -142.5
t-35 -95.5q0 -38 31.5 -58t86.5 -20q52 0 116.5 17t152.5 55l-18 -309q-81 -37 -159.5 -54.5t-141.5 -17.5z" />
    <glyph glyph-name="uni0665" unicode="&#x665;" horiz-adv-x="952" 
d="M449 -36q-193 0 -295.5 126.5t-102.5 359.5q0 157 58.5 306t152.5 242t194 93q118 0 207 -101.5t137 -255.5t48 -305q0 -120 -46 -226.5t-136.5 -172.5t-216.5 -66zM573 468q0 77 -15 146t-44 112t-69 43q-36 0 -63.5 -42.5t-42 -110.5t-14.5 -143q0 -204 131 -204
q54 0 85.5 52.5t31.5 146.5z" />
    <glyph glyph-name="uni0666" unicode="&#x666;" horiz-adv-x="952" 
d="M24 1135v303h648l148 -1438h-280l-125 1135h-391z" />
    <glyph glyph-name="uni0667" unicode="&#x667;" horiz-adv-x="952" 
d="M314 1436l170 -951h8l160 951h291l-352 -1436h-202l-380 1436h305z" />
    <glyph glyph-name="uni0668" unicode="&#x668;" horiz-adv-x="952" 
d="M461 951l-160 -951h-292l353 1436h201l380 -1436h-306l-169 951h-7z" />
    <glyph glyph-name="uni0669" unicode="&#x669;" horiz-adv-x="952" 
d="M450 570q-146 0 -234.5 66.5t-124.5 160.5t-36 185q0 139 55 242.5t141 158t178 54.5q314 0 353 -421l94 -1016h-284l-56 570h-86zM400 1151q-38 0 -64 -36t-26 -97q0 -75 44.5 -118.5t120.5 -43.5h42l-14 146q-7 74 -33.5 111.5t-69.5 37.5z" />
    <glyph glyph-name="uni066A" unicode="&#x66a;" horiz-adv-x="928" 
d="M873 1175l-630 -1231l-213 119l636 1239zM398 1084l-211 -212l-211 212l211 211zM914 199l-211 -212l-211 212l211 211z" />
    <glyph glyph-name="uni066B" unicode="&#x66b;" horiz-adv-x="499" 
d="M383 332l-158 -555h-222l108 555h272z" />
    <glyph glyph-name="uni066C" unicode="&#x66c;" horiz-adv-x="499" 
d="M383 934l-158 -555h-222l108 555h272z" />
    <glyph glyph-name="uni066D" unicode="&#x66d;" horiz-adv-x="902" 
d="M196 884l100 297l-221 168l16 89l265 -45l57 322h62l53 -322l265 45l17 -90l-228 -167l105 -297l-50 -50l-193 220l-197 -220z" />
    <glyph glyph-name="uni0670" unicode="&#x670;" 
d="M57 2174v-475h-120v475h120z" />
    <glyph glyph-name="uni06C0" unicode="&#x6c0;" horiz-adv-x="846" 
d="M405 0h-36q-120 0 -203 55.5t-124.5 147.5t-41.5 202q0 238 118 389q56 71 126 110.5t140 39.5q152 0 264 -142q54 -68 82.5 -163t28.5 -207q0 -113 -41.5 -212t-122 -159.5t-190.5 -60.5zM494 469q0 43 -10.5 93t-37.5 86.5t-71 36.5q-29 0 -56.5 -29.5t-45 -80.5
t-17.5 -112q0 -102 31.5 -155t90.5 -53q55 0 85.5 56t30.5 158zM214 1356q-12 28 -18.5 61t-6.5 60q0 78 31.5 140t90 98.5t135.5 36.5t165 -19l-16 -212q-57 20 -107 20q-40 0 -64 -23t-24 -59q0 -47 34 -75t89 -28h98v-215h-483v215h76z" />
    <glyph glyph-name="uni06C2" unicode="&#x6c2;" horiz-adv-x="846" 
d="M405 0h-36q-120 0 -203 55.5t-124.5 147.5t-41.5 202q0 238 118 389q56 71 126 110.5t140 39.5q152 0 264 -142q54 -68 82.5 -163t28.5 -207q0 -113 -41.5 -212t-122 -159.5t-190.5 -60.5zM494 469q0 43 -10.5 93t-37.5 86.5t-71 36.5q-29 0 -56.5 -29.5t-45 -80.5
t-17.5 -112q0 -102 31.5 -155t90.5 -53q55 0 85.5 56t30.5 158zM214 1356q-12 28 -18.5 61t-6.5 60q0 78 31.5 140t90 98.5t135.5 36.5t165 -19l-16 -212q-57 20 -107 20q-40 0 -64 -23t-24 -59q0 -47 34 -75t89 -28h98v-215h-483v215h76z" />
    <glyph glyph-name="uni06C3" unicode="&#x6c3;" horiz-adv-x="846" 
d="M405 0h-36q-120 0 -203 55.5t-124.5 147.5t-41.5 202q0 238 118 389q56 71 126 110.5t140 39.5q152 0 264 -142q54 -68 82.5 -163t28.5 -207q0 -113 -41.5 -212t-122 -159.5t-190.5 -60.5zM494 469q0 43 -10.5 93t-37.5 86.5t-71 36.5q-29 0 -56.5 -29.5t-45 -80.5
t-17.5 -112q0 -102 31.5 -155t90.5 -53q55 0 85.5 56t30.5 158zM362 1326q0 -36 -17.5 -67t-48.5 -49.5t-69 -18.5q-36 0 -67 18t-49.5 49t-18.5 68t18 68t49 49t68 18q36 0 67 -18t49.5 -49t18.5 -68zM683 1326q0 -36 -17.5 -67t-48.5 -49.5t-69 -18.5q-36 0 -67 18
t-49.5 49t-18.5 68t18 68t49 49t68 18q36 0 67 -18t49.5 -49t18.5 -68z" />
    <glyph glyph-name="uni06D4" unicode="&#x6d4;" horiz-adv-x="590" 
d="M18 106l63 219q44 -33 106.5 -51.5t117.5 -18.5h216v-255h-209q-93 0 -167 27.5t-127 78.5z" />
    <glyph glyph-name="uni06D5" unicode="&#x6d5;" horiz-adv-x="846" 
d="M405 0h-36q-120 0 -203 55.5t-124.5 147.5t-41.5 202q0 238 118 389q56 71 126 110.5t140 39.5q152 0 264 -142q54 -68 82.5 -163t28.5 -207q0 -113 -41.5 -212t-122 -159.5t-190.5 -60.5zM494 469q0 43 -10.5 93t-37.5 86.5t-71 36.5q-29 0 -56.5 -29.5t-45 -80.5
t-17.5 -112q0 -102 31.5 -155t90.5 -53q55 0 85.5 56t30.5 158z" />
    <glyph glyph-name="uni06F0" unicode="&#x6f0;" horiz-adv-x="952" 
d="M718 505l-232 -231l-221 221l232 232z" />
    <glyph glyph-name="uni06F1" unicode="&#x6f1;" horiz-adv-x="952" 
d="M620 1436v-1436h-291v1436h291z" />
    <glyph glyph-name="uni06F2" unicode="&#x6f2;" horiz-adv-x="952" 
d="M845 1436v-303h-379l116 -1133h-281l-159 1436h703z" />
    <glyph glyph-name="uni06F3" unicode="&#x6f3;" horiz-adv-x="952" 
d="M310 1435l26 -305q44 -2 59 60q16 61 16 246h226q0 -117 -13 -195t-37 -111q62 2 95 82t35 224h215q-8 -512 -307 -512q-76 0 -139 32q-31 -16 -59 -23.5t-63 -8.5l93 -924h-285l-151 1435h289z" />
    <glyph glyph-name="uni06F4" unicode="&#x6f4;" horiz-adv-x="952" 
d="M290 1436l27 -327q45 -18 94 -28q-46 104 -46 210q0 71 28 131t81 95t125 35q43 0 93 -18l-17 -191q-28 7 -53 7q-51 0 -79 -30t-28 -84q0 -37 12.5 -77.5t33.5 -77.5q99 21 149.5 99.5t50.5 208.5q0 16 -2 48h215q4 -36 4 -89q0 -144 -48.5 -255.5t-143.5 -174
t-230 -62.5q-93 0 -209 27l89 -883h-285l-151 1436h290z" />
    <glyph glyph-name="uni06F5" unicode="&#x6f5;" horiz-adv-x="952" 
d="M307 -31q-146 0 -220.5 129t-74.5 384t61 474t168.5 349.5t239.5 130.5q141 0 247.5 -141t159 -355.5t52.5 -435.5q0 -258 -72 -397.5t-206 -139.5q-42 0 -93.5 15t-88.5 38q-43 -26 -88 -38.5t-85 -12.5zM582 258q97 0 97 266q0 151 -27 291.5t-75.5 228t-110.5 87.5
q-67 0 -114 -100t-67.5 -243t-20.5 -264q0 -139 27 -201.5t87 -62.5q28 0 55 14.5t50 40.5q33 -31 54 -44t45 -13z" />
    <glyph glyph-name="uni06F6" unicode="&#x6f6;" horiz-adv-x="952" 
d="M106 958q0 130 55 239.5t156.5 174t235.5 64.5q55 0 123.5 -10t139.5 -34v-299q-63 19 -124.5 28.5t-101.5 9.5q-84 0 -135 -53.5t-51 -140.5q0 -77 34.5 -146.5t104.5 -136.5l147 112q59 45 122 95l155 -225q-228 -170 -408.5 -331t-405.5 -389l-174 234l371 345
q-120 99 -182 218t-62 245z" />
    <glyph glyph-name="uni06F7" unicode="&#x6f7;" horiz-adv-x="952" 
d="M314 1436l170 -951h8l160 951h291l-352 -1436h-202l-380 1436h305z" />
    <glyph glyph-name="uni06F8" unicode="&#x6f8;" horiz-adv-x="952" 
d="M461 951l-160 -951h-292l353 1436h201l380 -1436h-306l-169 951h-7z" />
    <glyph glyph-name="uni06F9" unicode="&#x6f9;" horiz-adv-x="952" 
d="M450 570q-146 0 -234.5 66.5t-124.5 160.5t-36 185q0 139 55 242.5t141 158t178 54.5q314 0 353 -421l94 -1016h-284l-56 570h-86zM400 1151q-38 0 -64 -36t-26 -97q0 -75 44.5 -118.5t120.5 -43.5h42l-14 146q-7 74 -33.5 111.5t-69.5 37.5z" />
    <glyph glyph-name="uni2002" unicode="&#x2002;" horiz-adv-x="1024" 
 />
    <glyph glyph-name="uni2003" unicode="&#x2003;" horiz-adv-x="2048" 
 />
    <glyph glyph-name="uni2009" unicode="&#x2009;" horiz-adv-x="205" 
 />
    <glyph glyph-name="uni200A" unicode="&#x200a;" horiz-adv-x="41" 
 />
    <glyph glyph-name="uni200C" unicode="&#x200c;" 
d="M139 1858l-106 -107l106 -106l-33 -33l-106 104l-109 -106l-32 35l106 106l-106 107l32 34l109 -108l106 106z" />
    <glyph glyph-name="uni200D" unicode="&#x200d;" 
d="M158 1634v95h-314v-95h-47v142h408v-142h-47z" />
    <glyph glyph-name="uni200E" unicode="&#x200e;" 
d="M20 1645l84 84h-258v47h258l-84 82l33 34l142 -141l-142 -141z" />
    <glyph glyph-name="uni200F" unicode="&#x200f;" 
d="M-104 1776h260v-47h-258l82 -84l-33 -33l-142 139l142 141l33 -32z" />
    <glyph glyph-name="endash" unicode="&#x2013;" horiz-adv-x="1024" 
d="M1024 700v-221h-1024v221h1024z" />
    <glyph glyph-name="emdash" unicode="&#x2014;" horiz-adv-x="2048" 
d="M2048 700v-221h-2048v221h2048z" />
    <glyph glyph-name="quoteleft" unicode="&#x2018;" horiz-adv-x="532" 
d="M469 1536l-98 -532h-308l164 532h242z" />
    <glyph glyph-name="quoteright" unicode="&#x2019;" horiz-adv-x="532" 
d="M469 1536l-164 -532h-242l99 532h307z" />
    <glyph glyph-name="quotesinglbase" unicode="&#x201a;" horiz-adv-x="532" 
d="M469 307l-164 -532h-242l99 532h307z" />
    <glyph glyph-name="quotedblleft" unicode="&#x201c;" horiz-adv-x="1065" 
d="M537 1536l-99 -532h-307l164 532h242zM934 1536l-98 -532h-308l164 532h242z" />
    <glyph glyph-name="quotedblright" unicode="&#x201d;" horiz-adv-x="1065" 
d="M537 1536l-164 -532h-242l98 532h308zM934 1536l-164 -532h-242l99 532h307z" />
    <glyph glyph-name="quotedblbase" unicode="&#x201e;" horiz-adv-x="1065" 
d="M537 307l-164 -532h-242l98 532h308zM934 307l-164 -532h-242l99 532h307z" />
    <glyph glyph-name="dagger" unicode="&#x2020;" horiz-adv-x="1063" 
d="M106 842v241h293v347h267v-347h290v-241h-290v-842h-267v842h-293z" />
    <glyph glyph-name="daggerdbl" unicode="&#x2021;" horiz-adv-x="1063" 
d="M401 0v291h-295v227h295v393h-295v228h295v291h258v-291h297v-228h-297v-393h297v-227h-297v-291h-258z" />
    <glyph glyph-name="bullet" unicode="&#x2022;" horiz-adv-x="1024" 
d="M156 715q0 95 48 177t130 130.5t178 48.5q98 0 180 -49.5t130 -132t48 -174.5q0 -96 -48.5 -178.5t-131 -131.5t-178.5 -49q-93 0 -175 47t-131.5 129t-49.5 183z" />
    <glyph glyph-name="ellipsis" unicode="&#x2026;" horiz-adv-x="2048" 
d="M489 307v-307h-294v307h294zM1171 307v-307h-294v307h294zM1853 307v-307h-294v307h294z" />
    <glyph glyph-name="uni202A" unicode="&#x202a;" 
d="M20 1645l84 84h-102v47h102l-84 82l33 34l142 -141l-142 -141zM-57 1729h-117v47h117v-47z" />
    <glyph glyph-name="uni202B" unicode="&#x202b;" 
d="M-104 1776h102v-47h-100l82 -84l-33 -33l-142 139l142 141l33 -32zM174 1729h-117v47h117v-47z" />
    <glyph glyph-name="uni202C" unicode="&#x202c;" 
d="M23 1817v-209h-48v207l-81 -82l-35 32l141 142l141 -142l-35 -32z" />
    <glyph glyph-name="uni202D" unicode="&#x202d;" 
d="M-43 1610l-33 35l84 84h-219v47h217l-82 82l33 34l141 -141zM90 1610l-33 35l109 106l-109 107l33 34l141 -141z" />
    <glyph glyph-name="uni202E" unicode="&#x202e;" 
d="M-164 1800l107 -106l-33 -35l-141 141l141 142l33 -35zM-6 1823h219v-47h-219l84 -82l-35 -35l-139 141l139 142l35 -35z" />
    <glyph glyph-name="perthousand" unicode="&#x2030;" horiz-adv-x="1933" 
d="M1067 1497l-645 -1565h-152l645 1565h152zM68 1065q0 197 63 293t193 96t193 -96t63 -293q0 -389 -256 -389t-256 389zM403 1059q0 100 -9 150t-25.5 65.5t-44.5 15.5q-29 0 -46 -17t-25.5 -65.5t-8.5 -142.5q0 -95 9 -143.5t26 -65t45 -16.5q26 0 42.5 14.5t26.5 62
t10 142.5zM766 365q0 197 63 293t193 96t193 -96t63 -293q0 -390 -256 -390t-256 390zM1354 365q0 197 63 293t193 96t193 -96t63 -293q0 -390 -256 -390t-256 390zM1102 358q0 100 -9.5 150.5t-26 66t-44.5 15.5q-29 0 -46 -17t-25.5 -65.5t-8.5 -142.5q0 -95 9.5 -144
t26.5 -65.5t44 -16.5q26 0 42.5 14.5t27 62.5t10.5 142zM1690 358q0 100 -9.5 150.5t-26 66t-44.5 15.5q-29 0 -46 -17t-25.5 -65.5t-8.5 -142.5q0 -95 9.5 -144t26.5 -65.5t44 -16.5q26 0 42.5 14.5t27 62.5t10.5 142z" />
    <glyph glyph-name="guilsinglleft" unicode="&#x2039;" horiz-adv-x="645" 
d="M276 956h256l-184 -424l184 -423h-256l-202 423z" />
    <glyph glyph-name="guilsinglright" unicode="&#x203a;" horiz-adv-x="645" 
d="M113 956h256l202 -424l-202 -423h-256l184 423z" />
    <glyph glyph-name="fraction" unicode="&#x2044;" horiz-adv-x="342" 
d="M586 1497l-645 -1565h-185l645 1565h185z" />
    <glyph glyph-name="Euro" unicode="&#x20ac;" horiz-adv-x="1065" 
d="M782 -25q-149 0 -268.5 62.5t-199.5 181t-113 281.5h-191l33 145h139q-2 23 -2 70q0 45 2 69h-172l33 146h158q34 160 114 278.5t194 182t249 63.5q100 0 181 -16.5t163 -57.5l-60 -254q-45 28 -99.5 41t-108.5 13q-107 0 -179.5 -67t-109.5 -183h452l-34 -146h-443
q-4 -24 -4 -59q0 -56 4 -80h414l-33 -145h-354q38 -109 113.5 -174.5t177.5 -65.5q50 0 109.5 11t94.5 32l13 -291q-63 -21 -129.5 -29t-143.5 -8z" />
    <glyph glyph-name="afii61289" unicode="&#x2113;" horiz-adv-x="1024" 
d="M582 -29q-157 0 -246.5 82t-89.5 234v69l-115 -100l-102 156l215 176v483q0 118 49 210.5t133 144t186 51.5q94 0 164 -37.5t108 -107t38 -163.5q0 -157 -95.5 -305t-298.5 -321v-232q0 -65 36 -99t89 -34q77 0 185 80l96 -149q-162 -138 -352 -138zM690 1151
q0 60 -22.5 98.5t-59.5 38.5q-21 0 -39.5 -20t-29.5 -55t-11 -78v-353q162 173 162 369z" />
    <glyph glyph-name="trademark" unicode="&#x2122;" horiz-adv-x="2048" 
d="M98 1266v164h693v-164h-240v-688h-213v688h-240zM1749 1180l-221 -602h-152l-221 602h-4v-602h-197v852h295l203 -533l203 533h295v-852h-197v602h-4z" />
    <glyph glyph-name="uni2126" unicode="&#x2126;" horiz-adv-x="1337" 
d="M913 811q0 104 -28 185t-83.5 127t-133.5 46q-77 0 -133 -46.5t-85.5 -128.5t-29.5 -185q0 -147 48.5 -280t133.5 -242v-287h-532v264h260q-124 121 -186 271.5t-62 324.5q0 183 75 318t210 207.5t311 72.5q170 0 300.5 -74t202.5 -208t72 -308q0 -367 -243 -604h258
v-264h-531v287q84 107 130 241t46 283z" />
    <glyph glyph-name="estimated" unicode="&#x212e;" horiz-adv-x="1229" 
d="M618 -35q-154 0 -274 73.5t-187 202.5t-67 289q0 161 67 291t187.5 202.5t273.5 72.5t273 -70t188 -198.5t70 -297.5h-827v-370q120 -121 296 -121q130 0 223.5 58.5t172.5 187.5l71 -43q-65 -102 -133 -162.5t-148.5 -87.5t-185.5 -27zM614 1024q-169 0 -292 -123v-297
h596v297q-129 123 -304 123z" />
    <glyph glyph-name="partialdiff" unicode="&#x2202;" horiz-adv-x="1118" 
d="M451 1386q-134 0 -248 -96l-72 207q72 57 163 87t191 30q156 0 278.5 -93t191.5 -269t69 -414q0 -259 -64.5 -451.5t-187.5 -296.5t-295 -104q-119 0 -211 66t-142 176.5t-50 240.5q0 157 54 279.5t149.5 191t214.5 68.5q86 0 158 -41.5t112 -106.5v49q0 139 -41 247.5
t-112 169t-158 60.5zM545 788q-58 0 -106 -46.5t-75.5 -122.5t-27.5 -162q0 -69 20.5 -124t59 -86.5t90.5 -31.5q59 0 108.5 58t82 154.5t42.5 207.5q-23 66 -77 109.5t-117 43.5z" />
    <glyph glyph-name="uni2206" unicode="&#x2206;" horiz-adv-x="1327" 
d="M856 1430l459 -1430h-1303l475 1430h369zM408 254h495l-233 901h-4z" />
    <glyph glyph-name="product" unicode="&#x220f;" horiz-adv-x="1534" 
d="M385 1352v-1790h-272v2048h1306v-2048h-270v1790h-764z" />
    <glyph glyph-name="summation" unicode="&#x2211;" horiz-adv-x="1378" 
d="M659 598l-579 786v226h1218v-258h-856l539 -752l-575 -780h917v-258h-1268v225z" />
    <glyph glyph-name="minus" unicode="&#x2212;" horiz-adv-x="1229" 
d="M1133 625v-213h-1037v213h1037z" />
    <glyph glyph-name="radical" unicode="&#x221a;" horiz-adv-x="1167" 
d="M82 129l-100 215l350 160l239 -522l332 1628h285l-447 -2048h-249l-302 620z" />
    <glyph glyph-name="infinity" unicode="&#x221e;" horiz-adv-x="1737" 
d="M475 145q-114 0 -201 51t-134.5 143t-47.5 210q0 117 47 207.5t132 141t196 50.5t205 -58t196 -192q98 130 194.5 190t207.5 60q113 0 198 -52t131 -142t46 -203q0 -118 -46.5 -211.5t-132 -146t-198.5 -52.5q-107 0 -203.5 57.5t-196.5 180.5q-75 -90 -138 -140.5
t-123 -72t-132 -21.5zM1268 377q71 0 112 48t41 120q0 74 -43 122t-116 48q-56 0 -121 -44.5t-135 -129.5q134 -164 262 -164zM469 713q-46 0 -81 -23t-54 -61.5t-19 -83.5q0 -73 43 -119.5t115 -46.5q64 0 129 42t127 120q-145 172 -260 172z" />
    <glyph glyph-name="integral" unicode="&#x222b;" horiz-adv-x="1286" 
d="M502 1384q37 109 112 165.5t205 56.5q59 0 115.5 -20t92.5 -58.5t36 -89.5q0 -57 -34.5 -94t-90.5 -37q-33 0 -55 13t-38 42.5t-32 83.5q-5 16 -15 27.5t-22 11.5q-39 0 -39 -82q0 -42 3 -96.5t6.5 -114t3.5 -98.5v-1016q0 -272 -86 -393t-258 -121q-61 0 -118.5 22.5
t-93.5 64t-36 95.5q0 52 38 84.5t91 32.5q34 0 55 -13t35.5 -42.5t28.5 -83.5q5 -18 13.5 -28.5t20.5 -10.5q26 0 32.5 20.5t6.5 54.5q0 46 -6 148q-6 96 -6 131v1003q0 240 35 342z" />
    <glyph glyph-name="approxequal" unicode="&#x2248;" horiz-adv-x="1214" 
d="M844 582q-45 0 -105.5 16t-140.5 45q-87 32 -151 50t-107 18q-51 0 -82.5 -37t-38.5 -88h-174q14 183 100.5 281t237.5 98q49 0 107 -15t152 -47q76 -26 131 -39.5t104 -13.5q53 0 82.5 33t35.5 88h176q-8 -135 -60.5 -222.5t-124.5 -127t-142 -39.5zM842 117
q-45 0 -105.5 16t-140.5 45q-87 32 -151 50t-107 18q-50 0 -82 -37t-39 -88h-174q14 184 100 281.5t238 97.5q50 0 108 -15t152 -47q79 -26 132 -39.5t101 -13.5q54 0 83.5 33t35.5 88h176q-8 -135 -60.5 -222.5t-124.5 -127t-142 -39.5z" />
    <glyph glyph-name="notequal" unicode="&#x2260;" horiz-adv-x="1214" 
d="M174 -31l105 205h-218v266h349l106 211h-455v264h586l162 322l231 -117l-102 -205h215v-264h-346l-107 -211h453v-266h-586l-159 -321z" />
    <glyph glyph-name="lessequal" unicode="&#x2264;" horiz-adv-x="1214" 
d="M1153 1180v-277l-725 -192l725 -201v-277l-1092 345v264zM1153 176v-264h-1092v264h1092z" />
    <glyph glyph-name="greaterequal" unicode="&#x2265;" horiz-adv-x="1214" 
d="M786 711l-725 192v277l1092 -338v-264l-1092 -345v277zM1153 176v-264h-1092v264h1092z" />
    <glyph glyph-name="lozenge" unicode="&#x25ca;" horiz-adv-x="1214" 
d="M485 1530h242l381 -801l-381 -801h-244l-377 801zM377 729l229 -536l230 536l-230 535z" />
    <glyph glyph-name="uni25CC" unicode="&#x25cc;" horiz-adv-x="823" 
d="M412 598q-50 0 -50 51q0 49 50 49q49 0 49 -49q0 -25 -12.5 -38t-36.5 -13zM256 561q-45 0 -45 49t45 49q25 0 38 -12.5t13 -36.5q0 -49 -51 -49zM565 561q-23 0 -37 13t-14 36q0 24 14 36.5t37 12.5q47 0 47 -49t-47 -49zM143 446q-47 0 -47 52q0 47 47 47q52 0 52 -47
q0 -52 -52 -52zM680 446q-49 0 -49 52q0 47 49 47q47 0 47 -47q0 -52 -47 -52zM104 295q-47 0 -47 47q0 49 47 49q26 0 39 -11.5t13 -37.5q0 -47 -52 -47zM717 295q-47 0 -47 47q0 49 47 49q49 0 49 -49q0 -47 -49 -47zM143 141q-47 0 -47 47q0 50 47 50q52 0 52 -50
q0 -47 -52 -47zM680 141q-49 0 -49 47q0 50 49 50q47 0 47 -50q0 -47 -47 -47zM256 27q-45 0 -45 47q0 51 45 51q51 0 51 -51q0 -47 -51 -47zM565 27q-23 0 -37 11.5t-14 35.5q0 23 14.5 37t36.5 14q47 0 47 -51q0 -47 -47 -47zM412 -12q-50 0 -50 49t50 49q49 0 49 -49
t-49 -49z" />
    <glyph glyph-name="uni274A" unicode="&#x274a;" horiz-adv-x="736" 
d="M123 1213l101 185l-171 71l26 95l170 -75v235h74v-237l174 74l23 -90l-169 -74l105 -180l-59 -60l-107 191l-110 -186z" />
    <glyph glyph-name="fi" unicode="&#xfb01;" horiz-adv-x="1290" 
d="M18 840v227h187v178q0 157 81.5 236.5t254.5 79.5q49 0 94.5 -5t114.5 -20l-9 -225q-38 16 -84 16q-48 0 -76 -13t-40.5 -44.5t-12.5 -87.5v-115h195v-227h-195v-840h-323v840h-187zM1151 1536v-287h-323v287h323zM1151 1067v-1067h-323v1067h323z" />
    <glyph glyph-name="fl" unicode="&#xfb02;" horiz-adv-x="1290" 
d="M18 840v227h187v178q0 157 81.5 236.5t254.5 79.5q49 0 94.5 -5t114.5 -20l-9 -225q-38 16 -84 16q-48 0 -76 -13t-40.5 -44.5t-12.5 -87.5v-115h195v-227h-195v-840h-323v840h-187zM1151 1536v-1536h-323v1536h323z" />
    <glyph glyph-name="uniFD3E" unicode="&#xfd3e;" horiz-adv-x="1251" 
d="M692 205q12 -114 79 -237q69 -126 155 -229q88 -105 103 -118q15 -14 15 -30q0 -7 -4.5 -13t-13.5 -6q-43 0 -165 113q-121 112 -228 258q-105 145 -135 260l-162 -29q-25 0 -25 23q0 16 39 68l56 75l23 31q40 53 40 68q0 12 -6 19t-17 7q-20 0 -115 -87
q-94 -87 -116 -87q-29 0 -29 52v114q-131 48 -131 108q0 48 131 113v131q0 17 7.5 27t21.5 10q10 0 30 -17q20 -16 146 -125l22 -20q19 -14 32 -14q12 0 19 6.5t7 16.5q0 15 -46 76q-12 18 -22.5 31.5t-18.5 24.5q-37 50 -54 75.5t-17 35.5q0 23 25 23l162 -29
q31 117 137 262q104 144 226 257q121 112 165 112q9 0 13.5 -6t4.5 -12q0 -16 -8 -22q-4 -2 -66 -75l-32 -37q-91 -108 -161 -234q-72 -128 -85 -247l68 10q46 7 58 7q10 0 16 -5.5t6 -15.5q0 -12 -39 -56q-29 -32 -50 -55l-38 -43q-49 -53 -49 -73q0 -19 22 -19q21 0 64 34
l101 76q55 43 71 43q18 0 18 -40v-113q64 -23 98.5 -53t34.5 -58q0 -57 -133 -112v-115q0 -45 -18 -45q-10 0 -23 10l-87 66q-18 13 -31.5 24t-24.5 19l-36 27q-19 14 -36 14q-22 0 -22 -21q0 -22 88 -113t88 -112t-22 -21l-19 2zM627 867q9 63 25 113q18 56 48 124v97
q-48 -51 -95 -145q-44 -86 -71 -187l-141 33l107 -152v66h49l39 67h4v-67h47v-60l125 129l-6 6zM303 543q-27 4 -63 24q21 19 63 25v41h96v4l-157 123v-119q-70 -23 -101.5 -40t-31.5 -32q0 -20 32.5 -38.5t100.5 -36.5v-115l157 115v4h-96v45zM1022 567q0 19 -42 41
q-40 22 -89 33v117l-156 -117l2 -4h88v-43q42 -5 70 -27q-29 -19 -70 -24v-41h-90l-6 -4l162 -119v117q131 39 131 71zM676 571q0 44 -31 76q-30 33 -77 33q-42 0 -74 -32q-31 -31 -31 -75q0 -45 32 -77q31 -31 74 -31q44 0 76 32q31 31 31 74zM625 266l131 -24l6 6
l-125 129v-60h-47v-67h-4l-39 67h-49v66l-107 -152l141 33q25 -97 72 -192q47 -93 94 -140v97q-30 63 -47 118.5t-26 118.5z" />
    <glyph glyph-name="uniFD3F" unicode="&#xfd3f;" horiz-adv-x="1251" 
d="M613 -58q-102 -141 -227 -257q-122 -113 -165 -113q-9 0 -13.5 6t-4.5 13q0 13 5 18q5 3 97 111q88 103 163 235q73 127 87 250l-54 -8q-25 -5 -52 -8l-20 -1q-10 0 -16 5.5t-6 15.5q0 20 88 111q88 92 88 114q0 21 -22 21q-17 0 -37 -14l-88 -68q-71 -53 -87 -66
q-16 -12 -26 -12q-18 0 -18 45v115q-133 55 -133 112q0 29 35.5 58t97.5 53v113q0 40 18 40q16 0 71 -43l32 -24q60 -46 68 -52q44 -34 65 -34q22 0 22 19q0 25 -88 116t-88 111q0 21 22 21l29 -3l97 -14q-13 125 -89 255q-71 126 -167 236l-94 109q-2 4 -2 15q0 5 4.5 11.5
t13.5 6.5q43 0 165 -113q123 -113 227 -257q104 -143 136 -261l162 29q25 0 25 -23q0 -17 -34 -61l-79 -106q-45 -61 -45 -76q0 -10 7 -16.5t19 -6.5q22 0 116 88q95 88 114 88q14 0 21.5 -10.5t7.5 -26.5v-131q67 -36 99 -63t32 -50q0 -60 -131 -108v-114q0 -52 -29 -52
q-22 0 -117 87q-94 87 -114 87q-23 0 -23 -26q0 -12 51 -83l34 -46q43 -58 58 -80t15 -33q0 -23 -24 -23l-163 29q-32 -117 -136 -261zM642 1057q-48 95 -95 144v-97q32 -73 48 -124q16 -50 25 -113l-131 24l-6 -6l125 -129v60h47v67h4l39 -67h49v-66l107 152l-141 -33
q-27 101 -71 188zM1138 569q0 14 -32 31.5t-101 40.5v119l-157 -123v-4h96v-41q41 -6 63 -25q-32 -19 -63 -24v-45h-96v-4l157 -115v115q133 34 133 75zM422 543q-44 6 -70 24q28 22 70 27v43h88l2 4l-156 117v-117q-48 -11 -90 -33q-41 -23 -41 -41q0 -32 131 -71v-117
l162 119l-6 4h-90v41zM678 465q43 0 74 31q32 32 32 77q0 43 -31 75t-76 32q-44 0 -76 -33q-30 -33 -30 -76q0 -41 30 -74q32 -32 77 -32zM700 317l-39 -67h-4v67h-47v60l-125 -129l6 -6l131 24q-9 -62 -26.5 -117t-46.5 -120v-97q47 47 93 140q47 92 73 192l141 -33
l-107 152v-66h-49z" />
    <glyph glyph-name="uni0640.narrow" horiz-adv-x="185" 
d="M-54 107v54q0 54 11 74t39 20h190q31 0 41.5 -20.5t10.5 -68.5v-57q0 -61 -9.5 -85t-38.5 -24h-197q-28 0 -37.5 24t-9.5 83z" />
    <glyph glyph-name="uni0640.long" horiz-adv-x="393" 
d="M-54 107v54q0 54 11 74t39 20h398q31 0 41.5 -20.5t10.5 -68.5v-57q0 -61 -9.5 -85t-38.5 -24h-405q-28 0 -37.5 24t-9.5 83z" />
    <glyph glyph-name="uni064B0651" 
d="M275 1909q0 -97 -47.5 -156.5t-117.5 -59.5q-31 0 -60 16.5t-50 44.5q-23 -28 -52.5 -44.5t-60.5 -16.5q-48 0 -85.5 27t-58.5 76.5t-21 114.5v200h111v-205q0 -35 15.5 -53.5t40.5 -18.5q24 0 41 21.5t17 50.5v178h105v-177q0 -31 16.5 -52t40.5 -21q27 0 41.5 18.5
t14.5 53.5v206h110v-203zM221 2614v-145h-447v145h447zM221 2389v-145h-447v145h447z" />
    <glyph glyph-name="uni06540651" 
d="M-108 1842q-18 42 -18 85q0 54 22 97t62.5 68t93.5 25q26 0 49.5 -3t65.5 -10l-11 -147q-39 14 -73 14q-29 0 -45.5 -16t-16.5 -41q0 -33 23.5 -52.5t61.5 -19.5h68v-149h-335v149h53zM221 2663v-145h-447v145h447zM221 2438v-145h-447v145h447z" />
    <glyph glyph-name="uni0654064E" 
d="M-108 1842q-18 42 -18 85q0 54 22 97t62.5 68t93.5 25q26 0 49.5 -3t65.5 -10l-11 -147q-39 14 -73 14q-29 0 -45.5 -16t-16.5 -41q0 -33 23.5 -52.5t61.5 -19.5h68v-149h-335v149h53zM221 2438v-145h-447v145h447z" />
    <glyph glyph-name="uni0654064C" 
d="M-108 1842q-18 42 -18 85q0 54 22 97t62.5 68t93.5 25q26 0 49.5 -3t65.5 -10l-11 -147q-39 14 -73 14q-29 0 -45.5 -16t-16.5 -41q0 -33 23.5 -52.5t61.5 -19.5h68v-149h-335v149h53zM-18 2436q17 0 36 5q-26 36 -39.5 75t-13.5 78q0 54 21 99.5t54.5 69t69.5 23.5
q65 0 102.5 -48.5t37.5 -128.5q0 -94 -44 -163t-107.5 -105t-120.5 -36q-54 0 -97 27.5t-79 85.5l-79 -97l-65 90l149 192q94 -167 175 -167zM151 2595q0 30 -12 46.5t-30 16.5t-31 -17.5t-13 -46.5q0 -44 44 -98q19 20 30.5 46t11.5 53z" />
    <glyph glyph-name="uni0654064F" 
d="M-108 1842q-18 42 -18 85q0 54 22 97t62.5 68t93.5 25q26 0 49.5 -3t65.5 -10l-11 -147q-39 14 -73 14q-29 0 -45.5 -16t-16.5 -41q0 -33 23.5 -52.5t61.5 -19.5h68v-149h-335v149h53zM-11 2436q18 0 42 6q-52 73 -52 152q0 56 21 99.5t54.5 68t69.5 24.5q66 0 103 -49
t37 -135q0 -85 -42 -153t-107.5 -106t-133.5 -38q-48 0 -101.5 12t-106.5 35l24 128q61 -24 103 -34t89 -10zM165 2597q0 27 -12 44t-30 17t-31 -17t-13 -44q0 -23 9.5 -46.5t34.5 -53.5q19 19 30.5 45t11.5 55z" />
    <glyph glyph-name="uni06540652" 
d="M-108 1842q-18 42 -18 85q0 54 22 97t62.5 68t93.5 25q26 0 49.5 -3t65.5 -10l-11 -147q-39 14 -73 14q-29 0 -45.5 -16t-16.5 -41q0 -33 23.5 -52.5t61.5 -19.5h68v-149h-335v149h53zM0 2315q-51 0 -94 27.5t-68.5 79.5t-25.5 121t26.5 120.5t69.5 79t92 27.5
q50 0 93.5 -28t69.5 -80t26 -119t-25.5 -119t-69 -80.5t-94.5 -28.5zM88 2542q0 46 -25.5 78.5t-63.5 32.5q-36 0 -62 -33t-26 -78q0 -47 26.5 -79.5t62.5 -32.5t62 31.5t26 80.5z" />
    <glyph glyph-name="uni06550650" 
d="M-108 -453q-18 42 -18 85q0 54 22 97t62.5 68t93.5 25q26 0 49.5 -3t65.5 -10l-11 -147q-39 14 -73 14q-29 0 -45.5 -16t-16.5 -41q0 -33 23.5 -52.5t61.5 -19.5h68v-149h-335v149h53zM221 -753v-145h-447v145h447z" />
    <glyph glyph-name="uni0655064D" 
d="M-108 -453q-18 42 -18 85q0 54 22 97t62.5 68t93.5 25q26 0 49.5 -3t65.5 -10l-11 -147q-39 14 -73 14q-29 0 -45.5 -16t-16.5 -41q0 -33 23.5 -52.5t61.5 -19.5h68v-149h-335v149h53zM221 -752v-145h-447v145h447zM221 -977v-145h-447v145h447z" />
    <glyph glyph-name="uni064406440647" horiz-adv-x="2161" 
d="M1362 122q-71 -122 -218 -122h-361q-95 0 -155 27.5t-91 83.5q-94 -45 -185 -45q-147 0 -250 95q-102 95 -102 261q0 174 125 300.5t373 201.5v120h284v-720q0 -40 8 -54.5t30 -14.5h253q30 0 43.5 20.5t13.5 68.5v1093h286v-1127q40 -29 88 -42t91 -13h166v1182h285
v-1437h-451q-55 0 -116 31.5t-117 90.5zM275 424q0 -55 29.5 -84t83.5 -29q24 0 54.5 9t56.5 24v314q-111 -30 -167.5 -91.5t-56.5 -142.5z" />
    <glyph glyph-name="uniFDFA.Farsi" horiz-adv-x="2165" 
d="M1395 1391q116 51 192 92q-19 -54 -87 -85l-370 -169l46 74q103 36 219 88zM403 1428q0 17 17 30q12 -16 19 -34.5t7 -33.5q0 -20 -9.5 -30t-22.5 -10q-7 0 -15 3t-14 7q-10 -19 -35 -19q-22 0 -36.5 15t-14.5 43q0 17 3.5 24.5t12.5 7.5h2q0 -25 8 -37t21 -12
q14 0 14 15q0 6 -5 17.5t-5 16.5q0 17 11 17q12 0 18 -29q6 -28 32 -28h7q-15 33 -15 37zM1797 1298q-92 -45 -298 -135q16 -12 16 -27q0 -31 -30 -70q-29 -35 -43 -36l-7 7q1 5 13 27q12 23 12 38q0 21 -24 22q-24 2 -24 5q0 18 37 49q36 31 60 40l446 197l-34 -51
q-38 -24 -124 -66zM734 1083q-83 174 -89 197q-2 12 -2 20q0 24 7 52q11 47 23 51q9 0 13 -13q4 -11 37 -50q29 -34 61 -58q14 -11 15 -15v-2q0 -5 -17 -5l-51 4q61 -128 83 -195q24 -71 24 -152q0 -17 -2 -30t-9 -29l-6 -4q-4 56 -87 229zM1647 842q-5 -8 -22.5 -33
t-26.5 -35t-15 -10q-4 0 -4 4v4q0 11 8.5 32.5t20.5 45.5q-25 19 -46 47.5t-30 63.5h-4q-12 -69 -66 -90t-180 -21q-116 0 -157 27q-42 29 -58 94h-4q-6 -23 -22 -46t-31 -34v-4q31 0 58 -13q30 -12 32 -26l-21 -73q0 -3 -49 -37q-53 -37 -116 -61t-121 -24q-200 0 -200 228
l2 34q-51 13 -93 91q-13 -50 -37.5 -76.5t-55.5 -26.5q-42 0 -69.5 20.5t-50.5 69.5q-70 -47 -125 -47q-26 0 -44 11.5t-18 26.5q0 71 54 101q55 30 55 47q0 10 -5.5 20t-21.5 26l17 78q1 4 8 4q16 0 45 -53t60 -126q33 -73 104 -73q22 0 36.5 8.5t14.5 23.5
q0 18 -23.5 65.5t-68.5 117.5q15 49 25 69q7 16 32 -25q29 -49 44 -79l14 -28q35 -71 64.5 -109.5t70.5 -38.5l41 6q-107 132 -137 174q-33 47 -33 82q0 24 11 54q12 28 23 28q10 0 23 -30q14 -31 51 -62q38 -32 41 -40q0 -16 -41 -16q66 -86 88 -137q21 -48 21 -102
q0 -27 -19 -43t-49 -16h-11q-13 0 -18 3q6 -67 68 -114q62 -45 125 -45q41 0 98 11.5t111 35.5v8q-65 5 -102 13.5t-44 15.5l29 57q78 27 99 42q22 15 22 55q0 48 -37 132q-37 88 -82 162l13 51q9 37 18 37q5 0 14 -14q7 -11 82 -171q75 -161 91 -186q21 -30 56 -43
q39 -14 141 -14q101 0 152 19t51 49q0 5 -2 11.5t-2 8.5q0 4 3 7t6 3q13 0 45 -51q33 -51 92 -51q55 70 111.5 106.5t109.5 36.5q83 0 114 -73q32 -72 46 -72q-22 -77 -25 -79q-2 -2 -20 -10q-15 -5 -278 -13h-41q-31 0 -35 4zM162 1032q7 -7 38 -8q39 2 72 6l-36 74
q-11 -19 -32.5 -39t-41.5 -33zM1932 988q-41 24 -69 24q-37 0 -80 -25q-44 -24 -65 -53q89 0 169 2q57 1 100 8q-16 22 -55 44zM523 819q-17 0 -69 -35q-50 -34 -85 -34q0 -33 -3 -48t-10 -18q-5 30 -28 57.5t-47 34.5q-7 21 -7 34q0 17 11 17q4 0 27 -12q22 -12 40 -12
q33 0 100 34q68 35 75 35q16 0 29 -10t13 -22q0 -8 -2.5 -14.5t-11.5 -20.5q-11 14 -32 14zM2025 383q0 -16 -22 -64q-149 -19 -225 -22q-35 0 -65 14q-28 13 -60 86h-4q-30 -102 -83 -102q-32 0 -56 18.5t-27 41.5h-4q-17 -68 -111 -68q-50 0 -94 25q-44 26 -57 61
q-45 -28 -86.5 -41t-75.5 -13q-20 0 -48 11q-26 11 -26 35q0 10 11 41q10 31 22 39l116 87l-30 52q10 54 15 67q4 13 13 13q8 0 16 -12t28 -51q7 -14 14 -27.5t14 -27.5l50 -95q16 -28 59 -47q44 -18 89 -18q57 0 75 24q4 20 8 45q5 32 12 32q10 0 10 -20t26 -49
q26 -27 55 -27q19 0 32 19q0 62 -29 138t-88 187l12 56q8 30 16 30q10 -3 22 -29q12 -22 83 -190q65 -163 98 -185q32 -20 50 -20q3 65 34 112q32 48 72 48q37 0 71 -43q36 -43 36 -60q0 -10 -6 -10q-9 0 -36 21q-25 22 -66 22q-24 0 -40 -9.5t-16 -26.5q0 -20 24 -40
q25 -19 41 -18l107 6q10 0 17 -4t7 -12zM1994 720q-7 -4 -296 -136l22 51l308 140q-28 -51 -34 -55zM549 325l-75 150q-56 115 -56 143q0 21 13 51q14 32 23 32q9 -7 12 -18q3 -9 35 -54q33 -41 53 -54q21 -10 21 -23q0 -4 -3 -5.5t-16 -1.5q-9 0 -20 3t-17 9l-5 -4
q90 -169 90 -249q0 -21 -9 -66q-7 -45 -21 -45l-5 2q0 93 -20 130zM358 463q-67 112 -67 141q0 16 11 47q12 31 20 31q12 0 22 -25t47 -63q37 -37 37 -43q0 -7 -7.5 -10.5t-29.5 -3.5q50 -91 63 -124q15 -33 15 -73q0 -113 -77 -113q-44 0 -69.5 20t-39.5 68
q-55 -34 -102 -34q-32 0 -46 6.5t-14 20.5q0 38 9 56q8 18 41 46q31 26 48 34l-22 39q10 10 15 40q6 30 10 30q9 0 13 -7q8 -13 47 -97q44 -91 63 -107t55 -16h10q12 0 14 3l2 5q0 16 -68 129zM738 537l-146 -78l20 51q34 13 108 55q71 41 117 71l-32 -52l-21 -17
q-22 -17 -46 -30zM692 247q48 9 110 49q64 40 64 62q0 11 -19 24q-15 -5 -34 -5q-26 0 -42.5 10.5t-16.5 30.5q0 25 17 68q18 42 44 42q29 0 58 -44q30 -43 30 -113q0 -71 -31 -112.5t-80 -41.5q-21 0 -79 3q-57 3 -64 8v4q0 8 43 15zM1040 412v-4l77 -2q46 0 82 6l-48 94
q-12 -24 -42 -49.5t-69 -44.5zM219 350q12 0 27 3.5t22 4.5l-30 60l-72 -62q35 -6 53 -6zM1360 125l39 88l84 -43l28 57l82 -49l-45 -78l-71 39l-35 -53zM1240 182q-16 -24 -107 -70l-86 -42l-238 -99q9 -12 9 -27q0 -24 -21 -48.5t-47 -28.5q17 24 18 48q-1 29 -21 34
q-15 3 -15 5v5q0 3 3 8l36 42l246 98q141 57 184 83q42 26 51 27l5 -5q0 -4 -17 -30zM1980 139q-48 -20 -262 -123l19 56l252 116l49 27q-6 -52 -58 -76zM1698 -23q17 0 39 -39q22 -38 22 -72q0 -47 -21 -74.5t-53 -27.5q-20 0 -35 7.5t-30 23.5q-14 -18 -29 -25.5t-34 -7.5
q-28 0 -57 18t-50 48q-78 -41 -259 -71q-179 -31 -374 -31q-174 0 -248 31q-75 32 -100 108h-4q-9 -32 -28 -54t-44 -22q-17 -53 -36.5 -75.5t-47.5 -22.5q-25 0 -43.5 20t-23.5 66v2h-4q-22 -43 -86 -75q-62 -32 -89 -32h-9l-1 4q0 11 21 17q25 8 90 79q67 72 69 134
q11 6 20 26t9 38q0 17 12 22q24 -4 57 -57q33 -52 68 -52q17 0 28 9.5t11 23.5q0 29 -31 98q-30 73 -61 121l9 41q8 35 16 37q16 -3 62 -115q46 -108 81 -173q34 -61 119 -79t178 -18q213 0 365.5 20.5t216.5 49.5q58 26 55 26q10 0 47 -29q36 -30 63 -30l27 4q0 92 20 92h2
h1q3 0 4 -22q2 -26 27 -51q26 -27 69 -27l-37 53q4 27 11.5 45t15.5 18zM1868 -122q0 36 17 73q17 35 42 35q31 0 59 -43q29 -44 29 -113q0 -73 -34 -113q-35 -41 -69 -41q-19 0 -78 7q-63 6 -82 15l-1 3q1 4 4 5q81 9 152 45t71 67q0 6 -6.5 13.5t-13.5 10.5l-33 -3
q-26 0 -41.5 9.5t-15.5 29.5zM326 -217q12 0 28 8l-80 88q0 -41 14.5 -68.5t37.5 -27.5zM1393 -276q6 -8 6 -21q0 -20 -11 -32.5t-26 -12.5q-14 0 -25 12q-14 -22 -47 -22q-9 0 -21 12q-12 10 -19 10q-11 0 -59 -33q-47 -34 -121 -34l-31 1q-24 1 -28 7v4q0 4 33 4
q54 0 131 44q79 44 85 44q8 0 21.5 -11t18.5 -11q23 0 32 17q11 17 15 17q7 -2 8 -13q3 -13 15 -13l8 2q0 11 3.5 17.5t11.5 11.5z" />
    <glyph glyph-name="uni0660.pnum" horiz-adv-x="607" 
d="M530 505l-232 -231l-221 221l232 232z" />
    <glyph glyph-name="uni0661.pnum" horiz-adv-x="607" 
d="M449 1436v-1436h-291v1436h291z" />
    <glyph glyph-name="uni0662.pnum" horiz-adv-x="861" 
d="M822 1436v-303h-379l116 -1133h-281l-159 1436h703z" />
    <glyph glyph-name="uni0663.pnum" horiz-adv-x="1069" 
d="M408 1435l26 -305q44 -2 59 60q16 61 16 246h226q0 -117 -13 -195t-37 -111q62 2 95 82t35 224h215q-8 -512 -307 -512q-76 0 -139 32q-31 -16 -59 -23.5t-63 -8.5l93 -924h-285l-151 1435h289z" />
    <glyph glyph-name="uni0664.pnum" horiz-adv-x="827" 
d="M469 -31q-101 0 -181 32t-125 92.5t-45 142.5q0 61 24 123.5t58 118t89 133.5l22 32q-94 76 -137 137.5t-43 133.5q0 81 62 188q64 109 178 193.5t264 128.5v-308q-108 -37 -171 -83.5t-63 -89.5q0 -51 112 -133q87 -66 87 -109q0 -32 -60 -107q-69 -86 -104 -142.5
t-35 -95.5q0 -38 31.5 -58t86.5 -20q52 0 116.5 17t152.5 55l-18 -309q-81 -37 -159.5 -54.5t-141.5 -17.5z" />
    <glyph glyph-name="uni0665.pnum" horiz-adv-x="1034" 
d="M516 -36q-193 0 -295.5 126.5t-102.5 359.5q0 157 58.5 306t152.5 242t194 93q118 0 207 -101.5t137 -255.5t48 -305q0 -120 -46 -226.5t-136.5 -172.5t-216.5 -66zM640 468q0 77 -15 146t-44 112t-69 43q-36 0 -63.5 -42.5t-42 -110.5t-14.5 -143q0 -204 131 -204
q54 0 85.5 52.5t31.5 146.5z" />
    <glyph glyph-name="uni0666.pnum" horiz-adv-x="952" 
d="M24 1135v303h648l148 -1438h-280l-125 1135h-391z" />
    <glyph glyph-name="uni0667.pnum" horiz-adv-x="1013" 
d="M344 1437l170 -951h8l160 951h291l-352 -1436h-202l-380 1436h305z" />
    <glyph glyph-name="uni0668.pnum" horiz-adv-x="1013" 
d="M491 951l-160 -951h-292l353 1436h201l380 -1436h-306l-169 951h-7z" />
    <glyph glyph-name="uni0669.pnum" horiz-adv-x="995" 
d="M450 570q-146 0 -234.5 66.5t-124.5 160.5t-36 185q0 139 55 242.5t141 158t178 54.5q314 0 353 -421l94 -1016h-284l-56 570h-86zM400 1151q-38 0 -64 -36t-26 -97q0 -75 44.5 -118.5t120.5 -43.5h42l-14 146q-7 74 -33.5 111.5t-69.5 37.5z" />
    <glyph glyph-name="uni06F0.pnum" horiz-adv-x="607" 
d="M530 505l-232 -231l-221 221l232 232z" />
    <glyph glyph-name="uni06F1.pnum" horiz-adv-x="607" 
d="M449 1436v-1436h-291v1436h291z" />
    <glyph glyph-name="uni06F2.pnum" horiz-adv-x="861" 
d="M822 1436v-303h-379l116 -1133h-281l-159 1436h703z" />
    <glyph glyph-name="uni06F3.pnum" horiz-adv-x="1069" 
d="M408 1435l26 -305q44 -2 59 60q16 61 16 246h226q0 -117 -13 -195t-37 -111q62 2 95 82t35 224h215q-8 -512 -307 -512q-76 0 -139 32q-31 -16 -59 -23.5t-63 -8.5l93 -924h-285l-151 1435h289z" />
    <glyph glyph-name="uni06F4.pnum" horiz-adv-x="1135" 
d="M408 1436l27 -327q45 -18 94 -28q-46 104 -46 210q0 71 28 131t81 95t125 35q43 0 93 -18l-17 -191q-28 7 -53 7q-51 0 -79 -30t-28 -84q0 -37 12.5 -77.5t33.5 -77.5q99 21 149.5 99.5t50.5 208.5q0 16 -2 48h215q4 -36 4 -89q0 -144 -48.5 -255.5t-143.5 -174
t-230 -62.5q-93 0 -209 27l89 -883h-285l-151 1436h290z" />
    <glyph glyph-name="uni06F5.pnum" horiz-adv-x="1163" 
d="M412 -31q-146 0 -220.5 129t-74.5 384t61 474t168.5 349.5t239.5 130.5q141 0 247.5 -141t159 -355.5t52.5 -435.5q0 -258 -72 -397.5t-206 -139.5q-42 0 -93.5 15t-88.5 38q-43 -26 -88 -38.5t-85 -12.5zM687 258q97 0 97 266q0 151 -27 291.5t-75.5 228t-110.5 87.5
q-67 0 -114 -100t-67.5 -243t-20.5 -264q0 -139 27 -201.5t87 -62.5q28 0 55 14.5t50 40.5q33 -31 54 -44t45 -13z" />
    <glyph glyph-name="uni06F6.pnum" horiz-adv-x="1058" 
d="M170 958q0 130 55 239.5t156.5 174t235.5 64.5q55 0 123.5 -10t139.5 -34v-299q-63 19 -124.5 28.5t-101.5 9.5q-84 0 -135 -53.5t-51 -140.5q0 -77 34.5 -146.5t104.5 -136.5l147 112q59 45 122 95l155 -225q-228 -170 -408.5 -331t-405.5 -389l-174 234l371 345
q-120 99 -182 218t-62 245z" />
    <glyph glyph-name="uni06F7.pnum" horiz-adv-x="1013" 
d="M344 1437l170 -951h8l160 951h291l-352 -1436h-202l-380 1436h305z" />
    <glyph glyph-name="uni06F8.pnum" horiz-adv-x="1013" 
d="M491 951l-160 -951h-292l353 1436h201l380 -1436h-306l-169 951h-7z" />
    <glyph glyph-name="uni06F9.pnum" horiz-adv-x="995" 
d="M450 570q-146 0 -234.5 66.5t-124.5 160.5t-36 185q0 139 55 242.5t141 158t178 54.5q314 0 353 -421l94 -1016h-284l-56 570h-86zM400 1151q-38 0 -64 -36t-26 -97q0 -75 44.5 -118.5t120.5 -43.5h42l-14 146q-7 74 -33.5 111.5t-69.5 37.5z" />
    <glyph glyph-name="uni06F4.Urdu" horiz-adv-x="952" 
d="M90 1116q0 140 64 230t196 90q96 0 171.5 -66t125.5 -186q36 92 93 157t129 95v-343q-75 -34 -135.5 -92t-97.5 -134q-52 124 -105 190t-96 66q-56 0 -56 -88q0 -22 3 -45.5t4 -30.5l104 -959h-284l-71 661q-45 413 -45 455z" />
    <glyph glyph-name="uni06F7.Urdu" horiz-adv-x="952" 
d="M82 268q0 68 18.5 136t53.5 161l316 871h304l-363 -983q-24 -62 -24 -99q0 -54 56 -54h437l-53 -300h-454q-81 0 -147 31t-105 91.5t-39 145.5z" />
    </font>
</defs>
</svg>
