<?xml version="1.0" standalone="no"?>
<!DOCTYPE svg PUBLIC "-//W3C//DTD SVG 1.1//EN" "http://www.w3.org/Graphics/SVG/1.1/DTD/svg11.dtd" >
<svg xmlns="http://www.w3.org/2000/svg" xmlns:xlink="http://www.w3.org/1999/xlink" version="1.1">
<metadata>
Created by FontForge 20170731 at Wed Feb 15 14:22:26 2017
 By Aleksey,,,
Copyright (c) 2014-2017 Monotype Imaging Inc. All rights reserved.
</metadata>
<defs>
<font id="FrutigerLTArabic-67BoldCn" horiz-adv-x="0" >
  <font-face 
    font-family="Frutiger LT Arabic 67 Bold Cn"
    font-weight="700"
    font-stretch="condensed"
    units-per-em="2048"
    panose-1="2 11 8 6 3 5 4 2 2 4"
    ascent="1577"
    descent="-471"
    x-height="1055"
    cap-height="1430"
    bbox="-364 -950 2430 2418"
    underline-thickness="50"
    underline-position="-175"
    unicode-range="U+000D-FEFC"
  />
<missing-glyph horiz-adv-x="1049" 
d="M1049 1470v-1470h-1049v1470h1049zM102 102h844v1264h-844v-1264zM588 811q35 35 52.5 56t28.5 46.5t11 57.5q0 48 -21.5 88t-57.5 63t-77 23q-69 0 -112 -49.5t-56 -145.5l-102 17q12 136 83.5 208t192.5 72q74 0 131.5 -33.5t90 -94t32.5 -140.5q0 -71 -28.5 -126.5
t-102.5 -121.5q-43 -38 -63.5 -65.5t-27.5 -57.5t-7 -80v-49h-94v51q0 66 9.5 107t35.5 79t82 95zM569 377v-137h-114v137h114z" />
    <glyph glyph-name="uniFEF5" unicode="&#xfedf;&#xfe82;" horiz-adv-x="1261" arabic-form="isolated" 
d="M101 199h338v894h224v-894h244v1237h223v-1436h-1029v199zM683 1168q-64 0 -165 54q-52 29 -83.5 42t-51.5 13q-23 0 -42.5 -14.5t-48.5 -49.5l-94 82q40 67 88.5 101t111.5 34q61 0 170 -60q45 -25 76 -38t51 -13q22 0 41.5 32.5t30.5 67.5l114 -56q-35 -105 -81 -150
t-117 -45z" />
    <glyph glyph-name="uniFEF6" unicode="&#xfee0;&#xfe82;" horiz-adv-x="1320" arabic-form="final" 
d="M1066 82q-30 -40 -75 -61t-102 -21h-775v199h319v891h222v-891h164q51 0 72 32t21 102v1103h223v-1140q0 -26 -3 -58q40 -18 87 -28.5t88 -10.5h16q37 0 51.5 -13t14.5 -51v-60q0 -44 -11.5 -59.5t-49.5 -15.5h-14q-149 0 -248 82zM692 1163q-64 0 -165 54
q-52 29 -83.5 42t-51.5 13q-23 0 -42.5 -14.5t-48.5 -49.5l-94 82q40 67 88.5 101t111.5 34q61 0 170 -60q45 -25 76 -38t51 -13q22 0 41.5 32.5t30.5 67.5l114 -56q-35 -105 -81 -150t-117 -45z" />
    <glyph glyph-name="uniFEF7" unicode="&#xfedf;&#xfe84;" horiz-adv-x="1261" arabic-form="isolated" 
d="M101 199h338v894h224v-894h244v1237h223v-1436h-1029v199zM394 1274h92q-55 55 -55 123q0 79 48.5 126t134.5 47q45 0 93 -9l-9 -116q-28 7 -44.5 10t-33.5 3q-31 0 -51 -21.5t-20 -56.5q0 -44 33.5 -75t84.5 -31h49v-112h-322v112z" />
    <glyph glyph-name="uniFEF8" unicode="&#xfee0;&#xfe84;" horiz-adv-x="1320" arabic-form="final" 
d="M1066 82q-30 -40 -75 -61t-102 -21h-775v199h319v891h222v-891h164q51 0 72 32t21 102v1103h223v-1140q0 -26 -3 -58q40 -18 87 -28.5t88 -10.5h16q37 0 51.5 -13t14.5 -51v-60q0 -44 -11.5 -59.5t-49.5 -15.5h-14q-149 0 -248 82zM394 1271h92q-55 55 -55 123
q0 79 48.5 126t134.5 47q45 0 93 -9l-9 -116q-28 7 -44.5 10t-33.5 3q-31 0 -51 -21.5t-20 -56.5q0 -44 33.5 -75t84.5 -31h49v-112h-322v112z" />
    <glyph glyph-name="uniFEF9" unicode="&#xfedf;&#xfe88;" horiz-adv-x="1261" arabic-form="isolated" 
d="M101 199h338v894h224v-894h244v1237h223v-1436h-1029v199zM386 -432h92q-55 55 -55 123q0 79 48.5 126t134.5 47q45 0 93 -9l-9 -116q-28 7 -44.5 10t-33.5 3q-31 0 -51 -21.5t-20 -56.5q0 -44 33.5 -75t84.5 -31h49v-112h-322v112z" />
    <glyph glyph-name="uniFEFA" unicode="&#xfee0;&#xfe88;" horiz-adv-x="1320" arabic-form="final" 
d="M1066 82q-30 -40 -75 -61t-102 -21h-775v199h319v891h222v-891h164q51 0 72 32t21 102v1103h223v-1140q0 -26 -3 -58q40 -18 87 -28.5t88 -10.5h16q37 0 51.5 -13t14.5 -51v-60q0 -44 -11.5 -59.5t-49.5 -15.5h-14q-149 0 -248 82zM379 -432h92q-55 55 -55 123
q0 79 48.5 126t134.5 47q45 0 93 -9l-9 -116q-28 7 -44.5 10t-33.5 3q-31 0 -51 -21.5t-20 -56.5q0 -44 33.5 -75t84.5 -31h49v-112h-322v112z" />
    <glyph glyph-name="uniFEFB" unicode="&#xfedf;&#xfe8e;" horiz-adv-x="1242" arabic-form="isolated" 
d="M101 199h338v894h224v-894h244v1237h223v-1436h-1029v199z" />
    <glyph glyph-name="uniFEFC" unicode="&#xfee0;&#xfe8e;" horiz-adv-x="1320" arabic-form="final" 
d="M1066 82q-30 -40 -75 -61t-102 -21h-775v199h319v891h222v-891h164q51 0 72 32t21 102v1103h223v-1140q0 -26 -3 -58q40 -18 87 -28.5t88 -10.5h16q37 0 51.5 -13t14.5 -51v-60q0 -44 -11.5 -59.5t-49.5 -15.5h-14q-149 0 -248 82z" />
    <glyph glyph-name="uni06440671" unicode="&#xfedf;&#xfb51;" horiz-adv-x="1261" 
d="M101 199h338v894h224v-894h244v1237h223v-1436h-1029v199zM341 1301h65v179h104v-37q22 27 49.5 42t56.5 15q59 0 95 -48.5t36 -126.5v-133h-406v109zM600 1397q-29 0 -56.5 -26.5t-36.5 -69.5h149v23q0 33 -14.5 53t-41.5 20z" />
    <glyph glyph-name="uni06440671.fina" unicode="&#xfee0;&#xfb51;" horiz-adv-x="1320" 
d="M1066 82q-30 -40 -75 -61t-102 -21h-775v199h319v891h222v-891h164q51 0 72 32t21 102v1103h223v-1140q0 -26 -3 -58q40 -18 87 -28.5t88 -10.5h16q37 0 51.5 -13t14.5 -51v-60q0 -44 -11.5 -59.5t-49.5 -15.5h-14q-149 0 -248 82zM336 1298h65v179h104v-37
q22 27 49.5 42t56.5 15q59 0 95 -48.5t36 -126.5v-133h-406v109zM595 1394q-29 0 -56.5 -26.5t-36.5 -69.5h149v23q0 33 -14.5 53t-41.5 20z" />
    <glyph glyph-name="uni0621" unicode="&#x621;" horiz-adv-x="556" arabic-form="isolated" 
d="M48 154h133q-80 80 -80 177q0 76 32 131t89.5 84t134.5 29q60 0 133 -14l-13 -159q-64 17 -109 17q-46 0 -75 -31t-29 -82q0 -45 23.5 -79.5t62.5 -53.5t84 -19h69v-154h-455v154z" />
    <glyph glyph-name="uni0622" unicode="&#x622;" horiz-adv-x="435" arabic-form="isolated" 
d="M105 1436h223v-1437h-223v1437zM352 1549q-64 0 -165 54q-52 29 -83.5 42t-51.5 13q-23 0 -42.5 -14.5t-48.5 -49.5l-94 82q40 67 88.5 101t111.5 34q61 0 170 -60q45 -25 76 -38t51 -13q22 0 41.5 32.5t30.5 67.5l114 -56q-35 -105 -81 -150t-117 -45z" />
    <glyph glyph-name="uni0623" unicode="&#x623;" horiz-adv-x="435" arabic-form="isolated" 
d="M105 1436h223v-1437h-223v1437zM59 1706h92q-55 55 -55 123q0 79 48.5 126t134.5 47q45 0 93 -9l-9 -116q-28 7 -44.5 10t-33.5 3q-31 0 -51 -21.5t-20 -56.5q0 -44 33.5 -75t84.5 -31h49v-112h-322v112z" />
    <glyph glyph-name="uni0624" unicode="&#x624;" horiz-adv-x="932" arabic-form="isolated" 
d="M216 -440l-33 216q162 22 266 79t149 155q-62 -13 -118 -13q-123 0 -209.5 57.5t-130 151.5t-43.5 202q0 124 49.5 230t139.5 169.5t206 63.5q124 0 201 -68t110.5 -176t33.5 -235v-193q0 -201 -69.5 -334t-206.5 -207t-345 -98zM468 673q-55 0 -91.5 -36t-53.5 -91
t-17 -111q0 -109 53.5 -173t145.5 -64q26 0 58 6.5t51 14.5v126q0 174 -35.5 251t-110.5 77zM218 1204h94q-16 31 -26 69.5t-10 73.5q0 93 59 152.5t173 59.5q31 0 57.5 -3t64.5 -12l-20 -174q-7 2 -40.5 9.5t-50.5 7.5q-71 0 -71 -73q0 -46 30 -78t83 -32h72v-168h-415v168
z" />
    <glyph glyph-name="uni0625" unicode="&#x625;" horiz-adv-x="435" arabic-form="isolated" 
d="M105 1436h223v-1437h-223v1437zM47 -432h92q-55 55 -55 123q0 79 48.5 126t134.5 47q45 0 93 -9l-9 -116q-28 7 -44.5 10t-33.5 3q-31 0 -51 -21.5t-20 -56.5q0 -44 33.5 -75t84.5 -31h49v-112h-322v112z" />
    <glyph glyph-name="uni0626" unicode="&#x626;" horiz-adv-x="1307" arabic-form="isolated" 
d="M1003 631q-55 0 -95.5 -32.5t-40.5 -89.5q0 -34 20.5 -71t66.5 -84l24 -25q55 -56 89 -95.5t57 -86t23 -94.5q0 -118 -69 -233.5t-194.5 -190.5t-285.5 -75q-200 0 -334.5 81.5t-199 210.5t-64.5 273q0 107 26.5 210t80.5 194l196 -99q-41 -62 -61.5 -137t-20.5 -152
q0 -100 40.5 -183.5t125.5 -133.5t210 -50q96 0 169.5 31t114 87t40.5 127q0 67 -94 158q-96 93 -138.5 167t-42.5 151q0 101 46.5 180t130 122.5t189.5 43.5q46 0 106 -14.5t117 -39.5l-69 -195q-44 22 -87 33.5t-76 11.5zM-71 784h94q-16 31 -26 69.5t-10 73.5
q0 93 59 152.5t173 59.5q31 0 57.5 -3t64.5 -12l-20 -174q-7 2 -40.5 9.5t-50.5 7.5q-71 0 -71 -73q0 -46 30 -78t83 -32h72v-168h-415v168z" />
    <glyph glyph-name="uni0627" unicode="&#x627;" horiz-adv-x="435" arabic-form="isolated" 
d="M105 1436h223v-1437h-223v1437z" />
    <glyph glyph-name="uni0628" unicode="&#x628;" horiz-adv-x="1550" arabic-form="isolated" 
d="M0 386q0 51 5 104.5t14 129.5l200 -20q-9 -56 -12 -89.5t-3 -76.5q0 -85 33 -136.5t102.5 -75t181.5 -23.5h692v637h223v-836h-967q-242 0 -355.5 94t-113.5 292zM729 -393q-43 0 -75 31t-32 75q0 45 31 76t76 31q44 0 75 -31.5t31 -75.5q0 -43 -30.5 -74.5t-75.5 -31.5z
" />
    <glyph glyph-name="uni0629" unicode="&#x629;" horiz-adv-x="789" arabic-form="isolated" 
d="M381 0h-30q-117 0 -195.5 52t-117 138t-38.5 191q0 151 51.5 270t134.5 184.5t174 65.5q112 0 194.5 -79t121 -193t38.5 -228q0 -131 -42 -217t-117.5 -135t-173.5 -49zM499 415q0 71 -15 139.5t-47.5 113.5t-80.5 45q-41 0 -75.5 -39.5t-55 -108t-20.5 -151.5
q0 -105 38 -160t112 -55q72 0 108 52.5t36 163.5zM222 1107q-42 0 -74.5 31t-32.5 75q0 45 31.5 76t75.5 31t75 -31.5t31 -75.5q0 -43 -30.5 -74.5t-75.5 -31.5zM496 1107q-43 0 -75 31.5t-32 74.5q0 45 31 76t76 31q44 0 75 -31.5t31 -75.5q0 -43 -30.5 -74.5t-75.5 -31.5z
" />
    <glyph glyph-name="uni062A" unicode="&#x62a;" horiz-adv-x="1550" arabic-form="isolated" 
d="M0 386q0 51 5 104.5t14 129.5l200 -20q-9 -56 -12 -89.5t-3 -76.5q0 -85 33 -136.5t102.5 -75t181.5 -23.5h692v637h223v-836h-967q-242 0 -355.5 94t-113.5 292zM619 1107q-42 0 -74.5 31t-32.5 75q0 45 31.5 76t75.5 31t75 -31.5t31 -75.5q0 -43 -30.5 -74.5
t-75.5 -31.5zM893 1107q-43 0 -75 31.5t-32 74.5q0 45 31 76t76 31q44 0 75 -31.5t31 -75.5q0 -43 -30.5 -74.5t-75.5 -31.5z" />
    <glyph glyph-name="uni062B" unicode="&#x62b;" horiz-adv-x="1550" arabic-form="isolated" 
d="M0 386q0 51 5 104.5t14 129.5l200 -20q-9 -56 -12 -89.5t-3 -76.5q0 -85 33 -136.5t102.5 -75t181.5 -23.5h692v637h223v-836h-967q-242 0 -355.5 94t-113.5 292zM720 1368q-43 0 -75 31t-32 75q0 45 31 76t76 31q44 0 75 -31.5t31 -75.5q0 -43 -30.5 -74.5t-75.5 -31.5z
M588 1103q-43 0 -75 31t-32 75q0 45 31 76t76 31q44 0 75 -31.5t31 -75.5q0 -43 -30.5 -74.5t-75.5 -31.5zM862 1103q-43 0 -75 31t-32 75q0 45 31 76t76 31q44 0 75 -31.5t31 -75.5q0 -43 -30.5 -74.5t-75.5 -31.5z" />
    <glyph glyph-name="uni062C" unicode="&#x62c;" horiz-adv-x="960" arabic-form="isolated" 
d="M456 -753q-163 0 -265.5 69t-146.5 174t-44 218q0 237 123 364t352 127h149q-37 60 -53 201q-17 147 -62 221t-120 74q-28 0 -82 -8t-114 -24v187q139 41 248 41q95 0 165.5 -49.5t112 -133t51.5 -185.5q19 -173 47 -248.5t73 -75.5v-199h-422q-122 0 -190 -70.5
t-68 -203.5q0 -131 72.5 -205.5t201.5 -74.5q36 0 88.5 6.5t86.5 15.5v-197q-51 -16 -95.5 -20t-107.5 -4zM443 -257q0 40 28.5 68t68.5 28q38 0 66 -28t28 -68q0 -38 -28 -66.5t-66 -28.5q-40 0 -68.5 28t-28.5 67z" />
    <glyph glyph-name="uni062D" unicode="&#x62d;" horiz-adv-x="960" arabic-form="isolated" 
d="M456 -753q-163 0 -265.5 69t-146.5 174t-44 218q0 237 123 364t352 127h149q-37 60 -53 201q-17 147 -62 221t-120 74q-28 0 -82 -8t-114 -24v187q139 41 248 41q95 0 165.5 -49.5t112 -133t51.5 -185.5q19 -173 47 -248.5t73 -75.5v-199h-422q-122 0 -190 -70.5
t-68 -203.5q0 -131 72.5 -205.5t201.5 -74.5q36 0 88.5 6.5t86.5 15.5v-197q-51 -16 -95.5 -20t-107.5 -4z" />
    <glyph glyph-name="uni062E" unicode="&#x62e;" horiz-adv-x="960" arabic-form="isolated" 
d="M456 -753q-163 0 -265.5 69t-146.5 174t-44 218q0 237 123 364t352 127h149q-37 60 -53 201q-17 147 -62 221t-120 74q-28 0 -82 -8t-114 -24v187q139 41 248 41q95 0 165.5 -49.5t112 -133t51.5 -185.5q19 -173 47 -248.5t73 -75.5v-199h-422q-122 0 -190 -70.5
t-68 -203.5q0 -131 72.5 -205.5t201.5 -74.5q36 0 88.5 6.5t86.5 15.5v-197q-51 -16 -95.5 -20t-107.5 -4zM421 1105q-42 0 -74.5 31t-32.5 75q0 45 31.5 76t75.5 31t75 -31.5t31 -75.5q0 -43 -30.5 -74.5t-75.5 -31.5z" />
    <glyph glyph-name="uni062F" unicode="&#x62f;" horiz-adv-x="799" arabic-form="isolated" 
d="M504 331q0 107 -85 235.5t-199 240.5l170 174q162 -162 247 -319t85 -294q0 -177 -97 -272.5t-277 -95.5h-318v199h320q76 0 115 34.5t39 97.5z" />
    <glyph glyph-name="uni0630" unicode="&#x630;" horiz-adv-x="792" arabic-form="isolated" 
d="M504 331q0 107 -85 235.5t-199 240.5l170 174q162 -162 247 -319t85 -294q0 -177 -97 -272.5t-277 -95.5h-318v199h320q76 0 115 34.5t39 97.5zM366 1105q-42 0 -74.5 31t-32.5 75q0 45 31.5 76t75.5 31t75 -31.5t31 -75.5q0 -43 -30.5 -74.5t-75.5 -31.5z" />
    <glyph glyph-name="uni0631" unicode="&#x631;" horiz-adv-x="552" arabic-form="isolated" 
d="M19 -417l-52 226q95 19 149 53.5t78 94t24 158.5v721h225v-657q0 -217 -55 -339.5t-144.5 -175.5t-224.5 -81z" />
    <glyph glyph-name="uni0632" unicode="&#x632;" horiz-adv-x="557" arabic-form="isolated" 
d="M19 -417l-52 226q95 19 149 53.5t78 94t24 158.5v721h225v-657q0 -217 -55 -339.5t-144.5 -175.5t-224.5 -81zM329 1105q-42 0 -74.5 31t-32.5 75q0 45 31.5 76t75.5 31t75 -31.5t31 -75.5q0 -43 -30.5 -74.5t-75.5 -31.5z" />
    <glyph glyph-name="uni0633" unicode="&#x633;" horiz-adv-x="2138" arabic-form="isolated" 
d="M1473 99q-31 -48 -79 -73.5t-119 -25.5h-28q-121 0 -210 57q-22 -141 -86 -253t-172 -178t-257 -66q-164 0 -281.5 72t-179 201t-61.5 296q0 98 26 204t72 198l193 -95q-30 -54 -46.5 -131t-16.5 -151q0 -107 39 -193.5t109 -136.5t158 -50q102 0 167.5 57t95 148
t29.5 198q0 89 -18.5 192t-49.5 192l220 78q22 -85 37 -176.5t29 -209.5q86 -54 165 -54q54 0 75 32t21 106v388h224v-415l-1 -52q49 -31 99 -45t106 -14h59v637h227v-836h-267q-167 0 -279 99z" />
    <glyph glyph-name="uni0634" unicode="&#x634;" horiz-adv-x="2138" arabic-form="isolated" 
d="M1473 99q-31 -48 -79 -73.5t-119 -25.5h-28q-121 0 -210 57q-22 -141 -86 -253t-172 -178t-257 -66q-164 0 -281.5 72t-179 201t-61.5 296q0 98 26 204t72 198l193 -95q-30 -54 -46.5 -131t-16.5 -151q0 -107 39 -193.5t109 -136.5t158 -50q102 0 167.5 57t95 148
t29.5 198q0 89 -18.5 192t-49.5 192l220 78q22 -85 37 -176.5t29 -209.5q86 -54 165 -54q54 0 75 32t21 106v388h224v-415l-1 -52q49 -31 99 -45t106 -14h59v637h227v-836h-267q-167 0 -279 99zM1425 1368q-43 0 -75 31t-32 75q0 45 31 76t76 31q44 0 75 -31.5t31 -75.5
q0 -43 -30.5 -74.5t-75.5 -31.5zM1293 1103q-43 0 -75 31t-32 75q0 45 31 76t76 31q44 0 75 -31.5t31 -75.5q0 -43 -30.5 -74.5t-75.5 -31.5zM1567 1103q-43 0 -75 31t-32 75q0 45 31 76t76 31q44 0 75 -31.5t31 -75.5q0 -43 -30.5 -74.5t-75.5 -31.5z" />
    <glyph glyph-name="uni0635" unicode="&#x635;" horiz-adv-x="2326" arabic-form="isolated" 
d="M1038 52q-25 -140 -88.5 -250.5t-171 -176t-256.5 -65.5q-160 0 -278 70t-181 197.5t-63 295.5q0 95 25.5 201t73.5 209l192 -97q-29 -61 -44.5 -138t-15.5 -150q0 -94 35 -180t103.5 -140t164.5 -54q103 0 169 56.5t95.5 146t29.5 194.5q0 91 -19 195.5t-51 194.5
l218 78q25 -89 45 -199t27 -200q69 -36 168 -41q42 174 131 336.5t221 268.5t288 106q179 0 272.5 -130t93.5 -372v-408h-934q-154 0 -250 52zM1821 703q-80 0 -160.5 -64t-142.5 -179t-90 -261h572v215q0 141 -42.5 215t-136.5 74z" />
    <glyph glyph-name="uni0636" unicode="&#x636;" horiz-adv-x="2326" arabic-form="isolated" 
d="M1038 52q-25 -140 -88.5 -250.5t-171 -176t-256.5 -65.5q-160 0 -278 70t-181 197.5t-63 295.5q0 95 25.5 201t73.5 209l192 -97q-29 -61 -44.5 -138t-15.5 -150q0 -94 35 -180t103.5 -140t164.5 -54q103 0 169 56.5t95.5 146t29.5 194.5q0 91 -19 195.5t-51 194.5
l218 78q25 -89 45 -199t27 -200q69 -36 168 -41q42 174 131 336.5t221 268.5t288 106q179 0 272.5 -130t93.5 -372v-408h-934q-154 0 -250 52zM1821 703q-80 0 -160.5 -64t-142.5 -179t-90 -261h572v215q0 141 -42.5 215t-136.5 74zM1630 1105q-42 0 -74.5 31t-32.5 75
q0 45 31.5 76t75.5 31t75 -31.5t31 -75.5q0 -43 -30.5 -74.5t-75.5 -31.5z" />
    <glyph glyph-name="uni0637" unicode="&#x637;" horiz-adv-x="1324" arabic-form="isolated" 
d="M0 199h214q35 132 73 212v1025h223v-689q77 80 161 121.5t179 41.5q184 0 279 -136t95 -390v-384h-1224v199zM822 705q-75 0 -148.5 -59.5t-136.5 -174t-106 -272.5h573v186q0 153 -47 236.5t-135 83.5z" />
    <glyph glyph-name="uni0638" unicode="&#x638;" horiz-adv-x="1324" arabic-form="isolated" 
d="M0 199h214q35 132 73 212v1025h223v-689q77 80 161 121.5t179 41.5q184 0 279 -136t95 -390v-384h-1224v199zM822 705q-75 0 -148.5 -59.5t-136.5 -174t-106 -272.5h573v186q0 153 -47 236.5t-135 83.5zM837 1105q-42 0 -74.5 31t-32.5 75q0 45 31.5 76t75.5 31t75 -31.5
t31 -75.5q0 -43 -30.5 -74.5t-75.5 -31.5z" />
    <glyph glyph-name="uni0639" unicode="&#x639;" horiz-adv-x="883" arabic-form="isolated" 
d="M459 -752q-136 0 -240 56.5t-161.5 161.5t-57.5 247q0 159 61 280t180 189q-37 68 -51.5 129t-14.5 127q0 112 44.5 214.5t129.5 167t200 64.5q114 0 198 -37l-40 -205q-42 14 -81.5 21t-65.5 7q-56 0 -95 -32t-58 -83t-19 -108q0 -71 26 -127t77.5 -88.5t124.5 -32.5
h197v-199h-386q-71 0 -120 -38t-72.5 -100t-23.5 -135q0 -79 31 -142.5t91 -100.5t142 -37q47 0 88 6t98 20v-192q-59 -18 -105.5 -25.5t-96.5 -7.5z" />
    <glyph glyph-name="uni063A" unicode="&#x63a;" horiz-adv-x="883" arabic-form="isolated" 
d="M459 -752q-136 0 -240 56.5t-161.5 161.5t-57.5 247q0 159 61 280t180 189q-37 68 -51.5 129t-14.5 127q0 112 44.5 214.5t129.5 167t200 64.5q114 0 198 -37l-40 -205q-42 14 -81.5 21t-65.5 7q-56 0 -95 -32t-58 -83t-19 -108q0 -71 26 -127t77.5 -88.5t124.5 -32.5
h197v-199h-386q-71 0 -120 -38t-72.5 -100t-23.5 -135q0 -79 31 -142.5t91 -100.5t142 -37q47 0 88 6t98 20v-192q-59 -18 -105.5 -25.5t-96.5 -7.5zM518 1105q-42 0 -74.5 31t-32.5 75q0 45 31.5 76t75.5 31t75 -31.5t31 -75.5q0 -43 -30.5 -74.5t-75.5 -31.5z" />
    <glyph glyph-name="uni0641" unicode="&#x641;" horiz-adv-x="1782" arabic-form="isolated" 
d="M0 395q0 55 7 118t8 77q2 10 4 30l200 -20q-15 -95 -15 -165q0 -85 33 -137t102.5 -75.5t181.5 -23.5h488q-54 104 -54 236q0 117 49 218.5t136 162t195 60.5q114 0 192 -56.5t116.5 -154t38.5 -219.5v-446h-1208q-165 0 -269 41t-154.5 128t-50.5 226zM1324 673
q-54 0 -89 -35.5t-51 -89t-16 -108.5q0 -59 21 -114.5t63.5 -91t103.5 -35.5h103v211q0 129 -33.5 196t-101.5 67zM1369 1105q-42 0 -74.5 31t-32.5 75q0 45 31.5 76t75.5 31t75 -31.5t31 -75.5q0 -43 -30.5 -74.5t-75.5 -31.5z" />
    <glyph glyph-name="uni0642" unicode="&#x642;" horiz-adv-x="1265" arabic-form="isolated" 
d="M558 -623q-172 0 -298 68t-193 195t-67 301q0 92 24.5 195t69.5 203l197 -87q-31 -54 -47 -133t-16 -155q0 -108 36.5 -194t113 -136.5t191.5 -50.5q125 0 208 56.5t124 154t45 222.5q-67 -19 -137 -19q-118 0 -205 54t-133 147.5t-46 209.5q0 115 47.5 221.5t137.5 174
t210 67.5q114 0 192 -60t117 -168.5t39 -254.5v-309q0 -188 -66.5 -347.5t-203.5 -257t-340 -97.5zM791 673q-47 0 -83.5 -38t-54.5 -93.5t-18 -106.5q0 -109 53 -173t146 -64q26 0 58.5 6.5t53.5 14.5v140q0 159 -41 236.5t-114 77.5zM646 1107q-42 0 -74.5 31t-32.5 75
q0 45 31.5 76t75.5 31t75 -31.5t31 -75.5q0 -43 -30.5 -74.5t-75.5 -31.5zM920 1107q-43 0 -75 31.5t-32 74.5q0 45 31 76t76 31q44 0 75 -31.5t31 -75.5q0 -43 -30.5 -74.5t-75.5 -31.5z" />
    <glyph glyph-name="uni0643" unicode="&#x643;" horiz-adv-x="1550" arabic-form="isolated" 
d="M0 389q0 51 5 103.5t14 127.5l200 -20q-10 -77 -12.5 -108.5t-2.5 -56.5q0 -95 38.5 -146.5t107 -70.5t172.5 -19h691v1237h223v-1436h-970q-226 0 -346 88.5t-120 300.5zM545 666h92q-28 26 -41.5 58.5t-13.5 61.5q0 83 49.5 129.5t131.5 46.5q45 0 95 -10l-6 -115
q-48 14 -80 14t-52 -22t-20 -57q0 -46 34 -76t86 -30h47v-113h-322v113z" />
    <glyph glyph-name="uni0644" unicode="&#x644;" horiz-adv-x="1165" arabic-form="isolated" 
d="M530 -440q-162 0 -282 72t-184 201t-64 296q0 97 24.5 196t70.5 194l199 -83q-68 -138 -68 -314q0 -91 35 -173t104 -132.5t165 -50.5q148 0 223 102t75 298v1270h223v-1227q0 -187 -55 -333t-171.5 -231t-294.5 -85z" />
    <glyph glyph-name="uni0645" unicode="&#x645;" horiz-adv-x="1136" arabic-form="isolated" 
d="M0 -163q0 167 68 284.5t219 191.5q48 265 158.5 402.5t264.5 137.5q106 0 185.5 -66t121 -168t41.5 -207q0 -110 -38 -206.5t-117 -156.5t-197 -60q-81 0 -164 34.5t-148 95.5q-87 -21 -130.5 -90t-43.5 -183q0 -129 27.5 -264t76.5 -286l-215 -65q-39 135 -74 314.5
t-35 291.5zM850 396q0 53 -17 112t-53.5 101t-92.5 42q-67 0 -117 -76t-77 -167.5t-28 -123.5q31 -34 95.5 -59t115.5 -26q174 0 174 197z" />
    <glyph glyph-name="uni0646" unicode="&#x646;" horiz-adv-x="1129" arabic-form="isolated" 
d="M1051 210q0 -186 -61.5 -333.5t-180.5 -232t-285 -84.5q-171 0 -289 76t-176.5 205t-58.5 286q0 192 101 405l192 -96q-30 -71 -46 -147.5t-16 -141.5q0 -101 31.5 -185.5t99 -136t168.5 -51.5q142 0 220 100t78 280q0 97 -18 205t-51 202l217 78q30 -108 52.5 -226
t22.5 -203zM527 871q-42 0 -74.5 31t-32.5 75q0 45 31.5 76t75.5 31t75 -31.5t31 -75.5q0 -43 -30.5 -74.5t-75.5 -31.5z" />
    <glyph glyph-name="uni0648" unicode="&#x648;" horiz-adv-x="932" arabic-form="isolated" 
d="M216 -440l-33 216q162 22 266 79t149 155q-62 -13 -118 -13q-123 0 -209.5 57.5t-130 151.5t-43.5 202q0 124 49.5 230t139.5 169.5t206 63.5q124 0 201 -68t110.5 -176t33.5 -235v-193q0 -201 -69.5 -334t-206.5 -207t-345 -98zM468 673q-55 0 -91.5 -36t-53.5 -91
t-17 -111q0 -109 53.5 -173t145.5 -64q26 0 58 6.5t51 14.5v126q0 174 -35.5 251t-110.5 77z" />
    <glyph glyph-name="uni0649" unicode="&#x649;" horiz-adv-x="1307" arabic-form="isolated" 
d="M1003 631q-55 0 -95.5 -32.5t-40.5 -89.5q0 -34 20.5 -71t66.5 -84l24 -25q55 -56 89 -95.5t57 -86t23 -94.5q0 -118 -69 -233.5t-194.5 -190.5t-285.5 -75q-200 0 -334.5 81.5t-199 210.5t-64.5 273q0 107 26.5 210t80.5 194l196 -99q-41 -62 -61.5 -137t-20.5 -152
q0 -100 40.5 -183.5t125.5 -133.5t210 -50q96 0 169.5 31t114 87t40.5 127q0 67 -94 158q-96 93 -138.5 167t-42.5 151q0 101 46.5 180t130 122.5t189.5 43.5q46 0 106 -14.5t117 -39.5l-69 -195q-44 22 -87 33.5t-76 11.5z" />
    <glyph glyph-name="uni064A" unicode="&#x64a;" horiz-adv-x="1307" arabic-form="isolated" 
d="M1003 631q-55 0 -95.5 -32.5t-40.5 -89.5q0 -34 20.5 -71t66.5 -84l24 -25q55 -56 89 -95.5t57 -86t23 -94.5q0 -118 -69 -233.5t-194.5 -190.5t-285.5 -75q-200 0 -334.5 81.5t-199 210.5t-64.5 273q0 107 26.5 210t80.5 194l196 -99q-41 -62 -61.5 -137t-20.5 -152
q0 -100 40.5 -183.5t125.5 -133.5t210 -50q96 0 169.5 31t114 87t40.5 127q0 67 -94 158q-96 93 -138.5 167t-42.5 151q0 101 46.5 180t130 122.5t189.5 43.5q46 0 106 -14.5t117 -39.5l-69 -195q-44 22 -87 33.5t-76 11.5zM464 -793q-43 0 -75 31t-32 75q0 45 31 76t76 31
q44 0 75 -31.5t31 -75.5q0 -43 -30.5 -74.5t-75.5 -31.5zM699 -793q-43 0 -75 31t-32 75q0 45 31 76t76 31q44 0 75 -31.5t31 -75.5q0 -43 -30.5 -74.5t-75.5 -31.5z" />
    <glyph glyph-name="uni0671" unicode="&#x671;" horiz-adv-x="435" arabic-form="isolated" 
d="M105 1436h223v-1437h-223v1437zM5 1697h65v179h104v-37q22 27 49.5 42t56.5 15q59 0 95 -48.5t36 -126.5v-133h-406v109zM264 1793q-29 0 -56.5 -26.5t-36.5 -69.5h149v23q0 33 -14.5 53t-41.5 20z" />
    <glyph glyph-name="uni0679" unicode="&#x679;" horiz-adv-x="1550" arabic-form="isolated" 
d="M0 386q0 51 5 104.5t14 129.5l200 -20q-9 -56 -12 -89.5t-3 -76.5q0 -85 33 -136.5t102.5 -75t181.5 -23.5h692v637h223v-836h-967q-242 0 -355.5 94t-113.5 292zM510 997h65v401h111v-233q29 36 66 56t73 20q68 0 103 -55t35 -147v-161h-453v119zM803 1123
q-36 0 -67.5 -34t-43.5 -92h166v28q0 54 -13.5 76t-41.5 22z" />
    <glyph glyph-name="uni067E" unicode="&#x67e;" horiz-adv-x="1550" arabic-form="isolated" 
d="M0 386q0 51 5 104.5t14 129.5l200 -20q-9 -56 -12 -89.5t-3 -76.5q0 -85 33 -136.5t102.5 -75t181.5 -23.5h692v637h223v-836h-967q-242 0 -355.5 94t-113.5 292zM619 -393q-43 0 -75 31t-32 75q0 45 31 76t76 31q44 0 75 -31.5t31 -75.5q0 -43 -30.5 -74.5t-75.5 -31.5z
M893 -393q-43 0 -75 31t-32 75q0 45 31 76t76 31q44 0 75 -31.5t31 -75.5q0 -43 -30.5 -74.5t-75.5 -31.5zM753 -656q-43 0 -75 31t-32 75q0 45 31 76t76 31q44 0 75 -31.5t31 -75.5q0 -43 -30.5 -74.5t-75.5 -31.5z" />
    <glyph glyph-name="uni0686" unicode="&#x686;" horiz-adv-x="950" arabic-form="isolated" 
d="M456 -753q-163 0 -265.5 69t-146.5 174t-44 218q0 237 123 364t352 127h149q-37 60 -53 201q-17 147 -62 221t-120 74q-28 0 -82 -8t-114 -24v187q139 41 248 41q95 0 165.5 -49.5t112 -133t51.5 -185.5q19 -173 47 -248.5t73 -75.5v-199h-422q-122 0 -190 -70.5
t-68 -203.5q0 -131 72.5 -205.5t201.5 -74.5q36 0 88.5 6.5t86.5 15.5v-197q-51 -16 -95.5 -20t-107.5 -4zM445 -267q-35 0 -59.5 25t-24.5 60q0 36 24.5 60.5t59.5 24.5q36 0 61.5 -24.5t25.5 -60.5q0 -35 -25.5 -60t-61.5 -25zM550 -182q0 36 25 60.5t61 24.5
q35 0 59.5 -24.5t24.5 -60.5q0 -35 -24.5 -60t-59.5 -25q-36 0 -61 25t-25 60zM454 -391q0 35 25 59.5t60 24.5t60 -24.5t25 -59.5t-25 -60.5t-60 -25.5t-60 25.5t-25 60.5z" />
    <glyph glyph-name="uni0688" unicode="&#x688;" horiz-adv-x="792" arabic-form="isolated" 
d="M504 331q0 107 -85 235.5t-199 240.5l170 174q162 -162 247 -319t85 -294q0 -177 -97 -272.5t-277 -95.5h-318v199h320q76 0 115 34.5t39 97.5zM129 1168h65v401h111v-233q29 36 66 56t73 20q68 0 103 -55t35 -147v-161h-453v119zM422 1294q-36 0 -67.5 -34t-43.5 -92
h166v28q0 54 -13.5 76t-41.5 22z" />
    <glyph glyph-name="uni0691" unicode="&#x691;" horiz-adv-x="552" arabic-form="isolated" 
d="M19 -417l-52 226q95 19 149 53.5t78 94t24 158.5v721h225v-657q0 -217 -55 -339.5t-144.5 -175.5t-224.5 -81zM58 1183h65v401h111v-233q29 36 66 56t73 20q68 0 103 -55t35 -147v-161h-453v119zM351 1309q-36 0 -67.5 -34t-43.5 -92h166v28q0 54 -13.5 76t-41.5 22z" />
    <glyph glyph-name="uni0698" unicode="&#x698;" horiz-adv-x="552" arabic-form="isolated" 
d="M19 -417l-52 226q95 19 149 53.5t78 94t24 158.5v721h225v-657q0 -217 -55 -339.5t-144.5 -175.5t-224.5 -81zM323 1368q-43 0 -75 31t-32 75q0 45 31 76t76 31q44 0 75 -31.5t31 -75.5q0 -43 -30.5 -74.5t-75.5 -31.5zM191 1103q-43 0 -75 31t-32 75q0 45 31 76t76 31
q44 0 75 -31.5t31 -75.5q0 -43 -30.5 -74.5t-75.5 -31.5zM465 1103q-43 0 -75 31t-32 75q0 45 31 76t76 31q44 0 75 -31.5t31 -75.5q0 -43 -30.5 -74.5t-75.5 -31.5z" />
    <glyph glyph-name="uni06A4" unicode="&#x6a4;" horiz-adv-x="1782" arabic-form="isolated" 
d="M0 395q0 55 7 118t8 77q2 10 4 30l200 -20q-15 -95 -15 -165q0 -85 33 -137t102.5 -75.5t181.5 -23.5h488q-54 104 -54 236q0 117 49 218.5t136 162t195 60.5q114 0 192 -56.5t116.5 -154t38.5 -219.5v-446h-1208q-165 0 -269 41t-154.5 128t-50.5 226zM1324 673
q-54 0 -89 -35.5t-51 -89t-16 -108.5q0 -59 21 -114.5t63.5 -91t103.5 -35.5h103v211q0 129 -33.5 196t-101.5 67zM1350 1368q-43 0 -75 31t-32 75q0 45 31 76t76 31q44 0 75 -31.5t31 -75.5q0 -43 -30.5 -74.5t-75.5 -31.5zM1218 1103q-43 0 -75 31t-32 75q0 45 31 76
t76 31q44 0 75 -31.5t31 -75.5q0 -43 -30.5 -74.5t-75.5 -31.5zM1492 1103q-43 0 -75 31t-32 75q0 45 31 76t76 31q44 0 75 -31.5t31 -75.5q0 -43 -30.5 -74.5t-75.5 -31.5z" />
    <glyph glyph-name="uni06A9" unicode="&#x6a9;" horiz-adv-x="1456" arabic-form="isolated" 
d="M1165 329q0 79 -46.5 152t-111.5 131t-158 127l341 701l179 -98l-256 -541q129 -99 195 -214.5t66 -236.5q0 -103 -38.5 -182t-116.5 -123.5t-193 -44.5h-557q-233 0 -351 90.5t-118 300.5q0 50 4.5 101t14.5 128l200 -20q-10 -77 -12.5 -108t-2.5 -54q0 -87 32 -139
t101 -76t184 -24h484q74 0 117 36t43 94z" />
    <glyph glyph-name="uni06AF" unicode="&#x6af;" horiz-adv-x="1447" arabic-form="isolated" 
d="M1157 329q0 79 -46.5 152t-111.5 131t-158 127l341 701l179 -98l-256 -541q129 -99 195 -214.5t66 -236.5q0 -103 -38.5 -182t-116.5 -123.5t-193 -44.5h-557q-233 0 -351 90.5t-118 300.5q0 50 4.5 101t14.5 128l200 -20q-10 -77 -12.5 -108t-2.5 -54q0 -87 32 -139
t101 -76t184 -24h484q74 0 117 36t43 94zM968 1553l173 -94l-348 -689l-159 111z" />
    <glyph glyph-name="uni06BA" unicode="&#x6ba;" horiz-adv-x="1129" arabic-form="isolated" 
d="M1051 210q0 -186 -61.5 -333.5t-180.5 -232t-285 -84.5q-171 0 -289 76t-176.5 205t-58.5 286q0 192 101 405l192 -96q-30 -71 -46 -147.5t-16 -141.5q0 -101 31.5 -185.5t99 -136t168.5 -51.5q142 0 220 100t78 280q0 97 -18 205t-51 202l217 78q30 -108 52.5 -226
t22.5 -203z" />
    <glyph glyph-name="uni06BE" unicode="&#x6be;" horiz-adv-x="1260" arabic-form="isolated" 
d="M165 -198h-123q-19 44 -30.5 98t-11.5 110q0 73 23.5 114t69 58t118.5 17h68q-21 43 -34.5 109t-13.5 129q0 93 35 190.5t102 187.5l-44 16q27 73 94 175q282 -67 441 -155q163 -89 233.5 -220t70.5 -326q0 -42 -10 -305h-880q-42 0 -64 -17.5t-32 -59.5t-12 -121z
M649 474q0 123 -26 195t-72 72q-40 0 -65 -45t-35.5 -103.5t-10.5 -100.5q0 -78 23.5 -156t67.5 -137h71q19 51 33 133.5t14 141.5zM951 327q0 119 -39 201t-117 130q13 -33 20 -84.5t7 -106.5q0 -119 -34 -268h158q5 48 5 128z" />
    <glyph glyph-name="uni06C1" unicode="&#x6c1;" horiz-adv-x="789" arabic-form="isolated" 
d="M381 0h-30q-117 0 -195.5 52t-117 138t-38.5 191q0 151 51.5 270t134.5 184.5t174 65.5q112 0 194.5 -79t121 -193t38.5 -228q0 -131 -42 -217t-117.5 -135t-173.5 -49zM499 415q0 71 -15 139.5t-47.5 113.5t-80.5 45q-41 0 -75.5 -39.5t-55 -108t-20.5 -151.5
q0 -105 38 -160t112 -55q72 0 108 52.5t36 163.5z" />
    <glyph glyph-name="uni06C2.fina" unicode="&#x6c2;" horiz-adv-x="669" 
d="M677 0h-47q-67 0 -117 39q-23 19 -49.5 52.5t-62.5 87.5q-3 5 -25.5 40.5t-50.5 61.5t-51 26q-31 0 -55 -37t-38 -109.5t-14 -175.5l1 -45h-161q-7 50 -7 97q0 122 32.5 228t100.5 171t162 65q46 0 85.5 -28t69 -66.5t69.5 -100.5q69 -107 120 -107h33q37 0 51.5 -13
t14.5 -51v-60q0 -44 -11.5 -59.5t-49.5 -15.5zM49 865h94q-16 31 -26 69.5t-10 73.5q0 93 59 152.5t173 59.5q31 0 57.5 -3t64.5 -12l-20 -174q-7 2 -40.5 9.5t-50.5 7.5q-71 0 -71 -73q0 -46 30 -78t83 -32h72v-168h-415v168z" />
    <glyph glyph-name="uni06C3.fina" unicode="&#x6c3;" horiz-adv-x="873" 
d="M881 0h-107q-189 0 -239 129q-53 -32 -102 -46t-101 -14q-93 0 -168.5 37t-119.5 109t-44 173q0 171 131 300t386 203v116h222v-698q0 -48 9 -72t24 -31t39 -7h65q37 0 51.5 -13t14.5 -51v-60q0 -44 -11.5 -59.5t-49.5 -15.5zM214 424q0 -67 41 -112t108 -45
q37 0 79.5 15.5t74.5 39.5v377q-73 -14 -142 -49t-115 -92.5t-46 -133.5zM351 1157q-42 0 -74.5 31t-32.5 75q0 45 31.5 76t75.5 31t75 -31.5t31 -75.5q0 -43 -30.5 -74.5t-75.5 -31.5zM625 1157q-43 0 -75 31.5t-32 74.5q0 45 31 76t76 31q44 0 75 -31.5t31 -75.5
q0 -43 -30.5 -74.5t-75.5 -31.5z" />
    <glyph glyph-name="uni06CC" unicode="&#x6cc;" horiz-adv-x="1307" arabic-form="isolated" 
d="M1003 631q-55 0 -95.5 -32.5t-40.5 -89.5q0 -34 20.5 -71t66.5 -84l24 -25q55 -56 89 -95.5t57 -86t23 -94.5q0 -118 -69 -233.5t-194.5 -190.5t-285.5 -75q-200 0 -334.5 81.5t-199 210.5t-64.5 273q0 107 26.5 210t80.5 194l196 -99q-41 -62 -61.5 -137t-20.5 -152
q0 -100 40.5 -183.5t125.5 -133.5t210 -50q96 0 169.5 31t114 87t40.5 127q0 67 -94 158q-96 93 -138.5 167t-42.5 151q0 101 46.5 180t130 122.5t189.5 43.5q46 0 106 -14.5t117 -39.5l-69 -195q-44 22 -87 33.5t-76 11.5z" />
    <glyph glyph-name="uni06D2" unicode="&#x6d2;" horiz-adv-x="1610" arabic-form="isolated" 
d="M661 -70q-333 0 -497 75.5t-164 241.5q0 218 296 368l305 156l76 -183l-287 -146q-96 -47 -141 -85.5t-45 -82.5q0 -73 116.5 -102t351.5 -29q190 0 418 24t411 67l-15 -219q-163 -39 -398 -62t-427 -23z" />
    <glyph glyph-name="uni06D3" unicode="&#x6d3;" horiz-adv-x="1610" arabic-form="isolated" 
d="M661 -70q-333 0 -497 75.5t-164 241.5q0 218 296 368l305 156l76 -183l-287 -146q-96 -47 -141 -85.5t-45 -82.5q0 -73 116.5 -102t351.5 -29q190 0 418 24t411 67l-15 -219q-163 -39 -398 -62t-427 -23zM34 991h94q-16 31 -26 69.5t-10 73.5q0 93 59 152.5t173 59.5
q31 0 57.5 -3t64.5 -12l-20 -174q-7 2 -40.5 9.5t-50.5 7.5q-71 0 -71 -73q0 -46 30 -78t83 -32h72v-168h-415v168z" />
    <glyph glyph-name="uni06D5.fina" unicode="&#x6d5;" horiz-adv-x="873" 
d="M881 0h-107q-189 0 -239 129q-53 -32 -102 -46t-101 -14q-93 0 -168.5 37t-119.5 109t-44 173q0 171 131 300t386 203v116h222v-698q0 -48 9 -72t24 -31t39 -7h65q37 0 51.5 -13t14.5 -51v-60q0 -44 -11.5 -59.5t-49.5 -15.5zM214 424q0 -67 41 -112t108 -45
q37 0 79.5 15.5t74.5 39.5v377q-73 -14 -142 -49t-115 -92.5t-46 -133.5z" />
    <glyph glyph-name="uniFB51" unicode="&#x671;" horiz-adv-x="463" arabic-form="final" 
d="M471 0h-97q-154 0 -211.5 89.5t-57.5 240.5v1106h223v-1075q0 -88 21.5 -125t69.5 -37h47q37 0 51.5 -13t14.5 -51v-60q0 -44 -11.5 -59.5t-49.5 -15.5zM5 1697h65v179h104v-37q22 27 49.5 42t56.5 15q59 0 95 -48.5t36 -126.5v-133h-406v109zM264 1793
q-29 0 -56.5 -26.5t-36.5 -69.5h149v23q0 33 -14.5 53t-41.5 20z" />
    <glyph glyph-name="uniFB57" unicode="&#x67e;" horiz-adv-x="1568" arabic-form="final" 
d="M1576 0h-18q-149 0 -249 82q-61 -82 -177 -82h-666q-171 0 -273.5 46t-147.5 133t-45 216q0 55 7 118t8 77q2 10 4 30l200 -20q-8 -54 -11.5 -88.5t-3.5 -70.5q0 -86 30.5 -138.5t100 -78t188.5 -25.5h541q50 0 71 32t21 102v502h225v-537q0 -23 -4 -60q39 -18 87 -28.5
t89 -10.5h18q37 0 51.5 -13t14.5 -51v-60q0 -44 -11.5 -59.5t-49.5 -15.5zM602 -393q-43 0 -75 31t-32 75q0 45 31 76t76 31q44 0 75 -31.5t31 -75.5q0 -43 -30.5 -74.5t-75.5 -31.5zM876 -393q-43 0 -75 31t-32 75q0 45 31 76t76 31q44 0 75 -31.5t31 -75.5
q0 -43 -30.5 -74.5t-75.5 -31.5zM736 -656q-43 0 -75 31t-32 75q0 45 31 76t76 31q44 0 75 -31.5t31 -75.5q0 -43 -30.5 -74.5t-75.5 -31.5z" />
    <glyph glyph-name="uniFB58" unicode="&#x67e;" horiz-adv-x="538" arabic-form="initial" 
d="M-71 74v61q0 38 15 51t52 13h209v637h224v-836h-439q-37 0 -49 16t-12 58zM141 -393q-43 0 -75 31t-32 75q0 45 31 76t76 31q44 0 75 -31.5t31 -75.5q0 -43 -30.5 -74.5t-75.5 -31.5zM415 -393q-43 0 -75 31t-32 75q0 45 31 76t76 31q44 0 75 -31.5t31 -75.5
q0 -43 -30.5 -74.5t-75.5 -31.5zM275 -656q-43 0 -75 31t-32 75q0 45 31 76t76 31q44 0 75 -31.5t31 -75.5q0 -43 -30.5 -74.5t-75.5 -31.5z" />
    <glyph glyph-name="uniFB59" unicode="&#x67e;" horiz-adv-x="596" arabic-form="medial" 
d="M344 82q-67 -82 -178 -82h-176q-37 0 -49 16t-12 58v61q0 38 15 51t52 13h96q34 0 55 11t32 42t11 89v494h225v-537q0 -34 -5 -60q39 -18 86 -28.5t95 -10.5h8q37 0 51.5 -13t14.5 -51v-60q0 -44 -11.5 -59.5t-49.5 -15.5h-11q-153 0 -249 82zM173 -393q-43 0 -75 31
t-32 75q0 45 31 76t76 31q44 0 75 -31.5t31 -75.5q0 -43 -30.5 -74.5t-75.5 -31.5zM447 -393q-43 0 -75 31t-32 75q0 45 31 76t76 31q44 0 75 -31.5t31 -75.5q0 -43 -30.5 -74.5t-75.5 -31.5zM307 -656q-43 0 -75 31t-32 75q0 45 31 76t76 31q44 0 75 -31.5t31 -75.5
q0 -43 -30.5 -74.5t-75.5 -31.5z" />
    <glyph glyph-name="uniFB67" unicode="&#x679;" horiz-adv-x="1568" arabic-form="final" 
d="M1576 0h-18q-149 0 -249 82q-61 -82 -177 -82h-666q-171 0 -273.5 46t-147.5 133t-45 216q0 55 7 118t8 77q2 10 4 30l200 -20q-8 -54 -11.5 -88.5t-3.5 -70.5q0 -86 30.5 -138.5t100 -78t188.5 -25.5h541q50 0 71 32t21 102v502h225v-537q0 -23 -4 -60q39 -18 87 -28.5
t89 -10.5h18q37 0 51.5 -13t14.5 -51v-60q0 -44 -11.5 -59.5t-49.5 -15.5zM509 997h65v401h111v-233q29 36 66 56t73 20q68 0 103 -55t35 -147v-161h-453v119zM802 1123q-36 0 -67.5 -34t-43.5 -92h166v28q0 54 -13.5 76t-41.5 22z" />
    <glyph glyph-name="uniFB68" unicode="&#x679;" horiz-adv-x="538" arabic-form="initial" 
d="M-71 74v61q0 38 15 51t52 13h209v637h224v-836h-439q-37 0 -49 16t-12 58zM77 1102h65v401h111v-233q29 36 66 56t73 20q68 0 103 -55t35 -147v-161h-453v119zM370 1228q-36 0 -67.5 -34t-43.5 -92h166v28q0 54 -13.5 76t-41.5 22z" />
    <glyph glyph-name="uniFB69" unicode="&#x679;" horiz-adv-x="596" arabic-form="medial" 
d="M344 82q-67 -82 -178 -82h-176q-37 0 -49 16t-12 58v61q0 38 15 51t52 13h96q34 0 55 11t32 42t11 89v494h225v-537q0 -34 -5 -60q39 -18 86 -28.5t95 -10.5h8q37 0 51.5 -13t14.5 -51v-60q0 -44 -11.5 -59.5t-49.5 -15.5h-11q-153 0 -249 82zM75 1102h65v401h111v-233
q29 36 66 56t73 20q68 0 103 -55t35 -147v-161h-453v119zM368 1228q-36 0 -67.5 -34t-43.5 -92h166v28q0 54 -13.5 76t-41.5 22z" />
    <glyph glyph-name="uniFB6B" unicode="&#x6a4;" horiz-adv-x="1804" arabic-form="final" 
d="M1813 0h-110q-90 0 -171.5 8t-173.5 25q-196 -19 -404 -26t-477 -7q-245 0 -361 93t-116 295q0 51 4.5 103t14.5 129l200 -20q-15 -87 -15 -162q0 -78 26 -129.5t96 -80.5t197 -29h480q-37 54 -58 120.5t-21 132.5q0 116 49.5 213t140 154t208.5 57q104 0 180 -52
t115 -139.5t39 -192.5q0 -63 -17.5 -141.5t-43.5 -151.5h213q37 0 51.5 -13t14.5 -51v-60q0 -44 -11.5 -59.5t-49.5 -15.5zM1431 458q0 106 -37.5 166.5t-102.5 60.5q-70 0 -111 -55t-41 -156q0 -65 24.5 -128.5t72.5 -105t116 -41.5h14q30 67 47.5 135.5t17.5 123.5z
M1286 1368q-43 0 -75 31t-32 75q0 45 31 76t76 31q44 0 75 -31.5t31 -75.5q0 -43 -30.5 -74.5t-75.5 -31.5zM1154 1103q-43 0 -75 31t-32 75q0 45 31 76t76 31q44 0 75 -31.5t31 -75.5q0 -43 -30.5 -74.5t-75.5 -31.5zM1428 1103q-43 0 -75 31t-32 75q0 45 31 76t76 31
q44 0 75 -31.5t31 -75.5q0 -43 -30.5 -74.5t-75.5 -31.5z" />
    <glyph glyph-name="uniFB6C" unicode="&#x6a4;" horiz-adv-x="1028" arabic-form="initial" 
d="M-72 74v61q0 38 15 51t52 13h271q-27 41 -43 105t-16 131q0 119 48 220t134.5 161t196.5 60q113 0 190.5 -56t116.5 -153t39 -222v-445h-943q-37 0 -49 16t-12 58zM576 673q-54 0 -89 -35t-51 -88.5t-16 -109.5q0 -58 21 -113.5t63 -91.5t102 -36h103v209
q0 132 -33.5 198.5t-99.5 66.5zM555 1368q-43 0 -75 31t-32 75q0 45 31 76t76 31q44 0 75 -31.5t31 -75.5q0 -43 -30.5 -74.5t-75.5 -31.5zM423 1103q-43 0 -75 31t-32 75q0 45 31 76t76 31q44 0 75 -31.5t31 -75.5q0 -43 -30.5 -74.5t-75.5 -31.5zM697 1103q-43 0 -75 31
t-32 75q0 45 31 76t76 31q44 0 75 -31.5t31 -75.5q0 -43 -30.5 -74.5t-75.5 -31.5z" />
    <glyph glyph-name="uniFB6D" unicode="&#x6a4;" horiz-adv-x="1019" arabic-form="medial" 
d="M1027 0h-138q-138 0 -319 33q-69 -12 -212 -22.5t-228 -10.5h-140q-37 0 -49 16t-12 58v61q0 38 15 51t52 13h221q-33 45 -55.5 118.5t-22.5 134.5q0 117 50 213.5t141.5 153.5t208.5 57q108 0 183.5 -55.5t112.5 -142t37 -179.5q0 -62 -17 -144q-18 -86 -44 -156h211
q37 0 51.5 -13t14.5 -51v-60q0 -44 -11.5 -59.5t-49.5 -15.5zM647 458q0 105 -38 166t-104 61q-69 0 -110.5 -56t-41.5 -156q0 -64 24.5 -127.5t72.5 -105t115 -41.5h15q30 64 48.5 132t18.5 127zM511 1368q-43 0 -75 31t-32 75q0 45 31 76t76 31q44 0 75 -31.5t31 -75.5
q0 -43 -30.5 -74.5t-75.5 -31.5zM379 1103q-43 0 -75 31t-32 75q0 45 31 76t76 31q44 0 75 -31.5t31 -75.5q0 -43 -30.5 -74.5t-75.5 -31.5zM653 1103q-43 0 -75 31t-32 75q0 45 31 76t76 31q44 0 75 -31.5t31 -75.5q0 -43 -30.5 -74.5t-75.5 -31.5z" />
    <glyph glyph-name="uniFB7B" unicode="&#x686;" horiz-adv-x="933" arabic-form="final" 
d="M456 -753q-157 0 -259 65t-149.5 170t-47.5 228q0 152 52.5 261.5t158 168.5t259.5 59h150q-32 63 -47 192q-8 77 -23.5 141t-54.5 113.5t-107 49.5q-62 0 -195 -32v187q135 41 248 41q92 0 161 -42t110 -115t54 -167q15 -116 21 -151q18 -98 46 -157.5t69 -59.5h35
q37 0 51.5 -13t14.5 -51v-60q0 -44 -11.5 -59.5t-49.5 -15.5h-475q-122 0 -189.5 -71t-67.5 -203t71.5 -206t202.5 -74q85 0 175 22v-197q-50 -16 -95 -20t-108 -4zM445 -267q-35 0 -59.5 25t-24.5 60q0 36 24.5 60.5t59.5 24.5q36 0 61.5 -24.5t25.5 -60.5q0 -35 -25.5 -60
t-61.5 -25zM550 -182q0 36 25 60.5t61 24.5q35 0 59.5 -24.5t24.5 -60.5q0 -35 -24.5 -60t-59.5 -25q-36 0 -61 25t-25 60zM454 -391q0 35 25 59.5t60 24.5t60 -24.5t25 -59.5t-25 -60.5t-60 -25.5t-60 25.5t-25 60.5z" />
    <glyph glyph-name="uniFB7C" unicode="&#x686;" horiz-adv-x="887" arabic-form="initial" 
d="M-71 74v61q0 38 15 51t52 13h541q-22 45 -36 182l-3 30q-8 81 -21.5 139t-50.5 101.5t-105 43.5q-52 0 -105.5 -10.5t-96.5 -26.5v187q63 23 123 34.5t126 11.5q98 0 168.5 -49t110.5 -131.5t50 -185.5q18 -178 47 -254q29 -72 75 -72v-199h-829q-37 0 -49 16t-12 58z
M270 -393q-43 0 -75 31t-32 75q0 45 31 76t76 31q44 0 75 -31.5t31 -75.5q0 -43 -30.5 -74.5t-75.5 -31.5zM544 -393q-43 0 -75 31t-32 75q0 45 31 76t76 31q44 0 75 -31.5t31 -75.5q0 -43 -30.5 -74.5t-75.5 -31.5zM404 -656q-43 0 -75 31t-32 75q0 45 31 76t76 31
q44 0 75 -31.5t31 -75.5q0 -43 -30.5 -74.5t-75.5 -31.5z" />
    <glyph glyph-name="uniFB7D" unicode="&#x686;" horiz-adv-x="859" arabic-form="medial" 
d="M867 0h-877q-37 0 -49 16t-12 58v61q0 38 15 51t52 13h550q-30 43 -41 167q-8 149 -55 239t-140 90q-91 0 -190 -39v188q62 24 121.5 35.5t126.5 11.5q125 0 213.5 -86t115.5 -265l19 -130q13 -83 40.5 -147t64.5 -64h41q37 0 51.5 -13t14.5 -51v-60q0 -44 -11.5 -59.5
t-49.5 -15.5zM269 -393q-43 0 -75 31t-32 75q0 45 31 76t76 31q44 0 75 -31.5t31 -75.5q0 -43 -30.5 -74.5t-75.5 -31.5zM543 -393q-43 0 -75 31t-32 75q0 45 31 76t76 31q44 0 75 -31.5t31 -75.5q0 -43 -30.5 -74.5t-75.5 -31.5zM403 -656q-43 0 -75 31t-32 75q0 45 31 76
t76 31q44 0 75 -31.5t31 -75.5q0 -43 -30.5 -74.5t-75.5 -31.5z" />
    <glyph glyph-name="uniFB89" unicode="&#x688;" horiz-adv-x="910" arabic-form="final" 
d="M633 105q-52 -52 -124 -78.5t-157 -26.5h-322v199h321q74 0 114.5 34t40.5 92q0 111 -87 243.5t-199 241.5l170 171q162 -163 248 -320t86 -292q0 -69 -12 -125q74 -45 190 -45h11q37 0 51.5 -13t14.5 -51v-60q0 -44 -11.5 -59.5t-49.5 -15.5h-11q-158 0 -274 105z
M110 1168h65v401h111v-233q29 36 66 56t73 20q68 0 103 -55t35 -147v-161h-453v119zM403 1294q-36 0 -67.5 -34t-43.5 -92h166v28q0 54 -13.5 76t-41.5 22z" />
    <glyph glyph-name="uniFB8B" unicode="&#x698;" horiz-adv-x="604" arabic-form="final" 
d="M612 0h-180q-17 -126 -63 -208t-130 -131.5t-217 -77.5l-57 220q99 24 153.5 60t78 97t23.5 162v714h225v-637h162q37 0 51.5 -13t14.5 -51v-60q0 -44 -11.5 -59.5t-49.5 -15.5zM323 1368q-43 0 -75 31t-32 75q0 45 31 76t76 31q44 0 75 -31.5t31 -75.5
q0 -43 -30.5 -74.5t-75.5 -31.5zM191 1103q-43 0 -75 31t-32 75q0 45 31 76t76 31q44 0 75 -31.5t31 -75.5q0 -43 -30.5 -74.5t-75.5 -31.5zM465 1103q-43 0 -75 31t-32 75q0 45 31 76t76 31q44 0 75 -31.5t31 -75.5q0 -43 -30.5 -74.5t-75.5 -31.5z" />
    <glyph glyph-name="uniFB8D" unicode="&#x691;" horiz-adv-x="604" arabic-form="final" 
d="M612 0h-180q-17 -126 -63 -208t-130 -131.5t-217 -77.5l-57 220q99 24 153.5 60t78 97t23.5 162v714h225v-637h162q37 0 51.5 -13t14.5 -51v-60q0 -44 -11.5 -59.5t-49.5 -15.5zM58 1183h65v401h111v-233q29 36 66 56t73 20q68 0 103 -55t35 -147v-161h-453v119z
M351 1309q-36 0 -67.5 -34t-43.5 -92h166v28q0 54 -13.5 76t-41.5 22z" />
    <glyph glyph-name="uniFB8F" unicode="&#x6a9;" horiz-adv-x="1569" arabic-form="final" 
d="M1577 0h-18q-157 0 -264 102q-93 -102 -269 -102h-559q-237 0 -352 95t-115 300q0 49 5 100.5t14 124.5l200 -20q-10 -77 -12.5 -108.5t-2.5 -56.5q0 -85 32 -136.5t101 -75.5t184 -24h485q76 0 117.5 39.5t41.5 114.5q0 83 -79 178.5t-235 207.5l340 702l178 -99
l-257 -541q129 -98 195.5 -212.5t66.5 -238.5q0 -71 -10 -105q39 -23 88 -34.5t114 -11.5h6q37 0 51.5 -13t14.5 -51v-60q0 -44 -11.5 -59.5t-49.5 -15.5z" />
    <glyph glyph-name="uniFB90" unicode="&#x6a9;" horiz-adv-x="696" arabic-form="initial" 
d="M412 327q0 77 -48.5 148t-112 125.5t-161.5 126.5l342 706l185 -91l-253 -532q134 -125 195.5 -237.5t61.5 -233.5q0 -160 -95 -249.5t-269 -89.5h-267q-37 0 -49 16t-12 58v61q0 38 15 51t52 13h251q79 0 122 35.5t43 92.5z" />
    <glyph glyph-name="uniFB91" unicode="&#x6a9;" horiz-adv-x="825" arabic-form="medial" 
d="M834 0h-15q-165 0 -272 107q-45 -53 -115 -80t-158 -27h-284q-37 0 -49 16t-12 58v61q0 38 15 51t52 13h250q166 0 166 128q0 78 -49 150.5t-112 126t-159 123.5l343 707l182 -92l-253 -532q134 -125 195.5 -235t61.5 -224q0 -23 -2.5 -52t-7.5 -48q40 -26 94 -39
t111 -13h13q37 0 51.5 -13t14.5 -51v-60q0 -44 -11.5 -59.5t-49.5 -15.5z" />
    <glyph glyph-name="uniFB93" unicode="&#x6af;" horiz-adv-x="1561" arabic-form="final" 
d="M1577 0h-18q-157 0 -264 102q-93 -102 -269 -102h-559q-237 0 -352 95t-115 300q0 49 5 100.5t14 124.5l200 -20q-10 -77 -12.5 -108.5t-2.5 -56.5q0 -85 32 -136.5t101 -75.5t184 -24h485q76 0 117.5 39.5t41.5 114.5q0 83 -79 178.5t-235 207.5l340 702l178 -99
l-257 -541q129 -98 195.5 -212.5t66.5 -238.5q0 -71 -10 -105q39 -23 88 -34.5t114 -11.5h6q37 0 51.5 -13t14.5 -51v-60q0 -44 -11.5 -59.5t-49.5 -15.5zM968 1553l173 -94l-348 -689l-159 111z" />
    <glyph glyph-name="uniFB94" unicode="&#x6af;" horiz-adv-x="838" arabic-form="initial" 
d="M530 327q0 77 -48.5 148t-112 125.5t-161.5 126.5l342 706l185 -91l-253 -532q134 -125 195.5 -237.5t61.5 -233.5q0 -160 -95 -249.5t-269 -89.5h-267q-37 0 -49 16t-12 58v61q0 38 15 51t52 13h251q79 0 122 35.5t43 92.5zM314 1553l173 -94l-348 -689l-159 111z" />
    <glyph glyph-name="uniFB95" unicode="&#x6af;" horiz-adv-x="949" arabic-form="medial" 
d="M325 1553l173 -94l-348 -689l-159 111zM946 0h-15q-165 0 -272 107q-45 -53 -115 -80t-158 -27h-284q-37 0 -49 16t-12 58v61q0 38 15 51t52 13h250q166 0 166 128q0 78 -49 150.5t-112 126t-159 123.5l343 707l182 -92l-253 -532q134 -125 195.5 -235t61.5 -224
q0 -23 -2.5 -52t-7.5 -48q40 -26 94 -39t111 -13h13q37 0 51.5 -13t14.5 -51v-60q0 -44 -11.5 -59.5t-49.5 -15.5z" />
    <glyph glyph-name="uniFB9F" unicode="&#x6ba;" horiz-adv-x="1251" arabic-form="final" 
d="M1259 0h-19q-123 0 -205 52q-39 -238 -172 -365t-341 -127q-172 0 -289.5 76.5t-175 205.5t-57.5 286q0 95 25 201t72 200l194 -93q-29 -64 -44.5 -138t-15.5 -150q0 -99 32.5 -184t100.5 -137.5t169 -52.5q146 0 219.5 106t73.5 323q0 81 -19 177.5t-49 180.5l219 78
q25 -91 43 -195.5t24 -198.5q38 -21 90.5 -33.5t105.5 -12.5h14q36 0 51 -13.5t15 -50.5v-60q0 -44 -11.5 -59.5t-49.5 -15.5z" />
    <glyph glyph-name="uniFBA5" unicode="&#x6c0;" horiz-adv-x="873" arabic-form="final" 
d="M881 0h-107q-189 0 -239 129q-53 -32 -102 -46t-101 -14q-93 0 -168.5 37t-119.5 109t-44 173q0 171 131 300t386 203v116h222v-698q0 -48 9 -72t24 -31t39 -7h65q37 0 51.5 -13t14.5 -51v-60q0 -44 -11.5 -59.5t-49.5 -15.5zM214 424q0 -67 41 -112t108 -45
q37 0 79.5 15.5t74.5 39.5v377q-73 -14 -142 -49t-115 -92.5t-46 -133.5zM220 1276h94q-16 31 -26 69.5t-10 73.5q0 93 59 152.5t173 59.5q31 0 57.5 -3t64.5 -12l-20 -174q-7 2 -40.5 9.5t-50.5 7.5q-71 0 -71 -73q0 -46 30 -78t83 -32h72v-168h-415v168z" />
    <glyph glyph-name="uniFBA7" unicode="&#x6c1;" horiz-adv-x="669" arabic-form="final" 
d="M677 0h-47q-67 0 -117 39q-23 19 -49.5 52.5t-62.5 87.5q-3 5 -25.5 40.5t-50.5 61.5t-51 26q-31 0 -55 -37t-38 -109.5t-14 -175.5l1 -45h-161q-7 50 -7 97q0 122 32.5 228t100.5 171t162 65q46 0 85.5 -28t69 -66.5t69.5 -100.5q69 -107 120 -107h33q37 0 51.5 -13
t14.5 -51v-60q0 -44 -11.5 -59.5t-49.5 -15.5z" />
    <glyph glyph-name="uniFBA8" unicode="&#x6c1;" horiz-adv-x="571" arabic-form="initial" 
d="M314 -213q0 -37 15.5 -60t44.5 -23q31 0 58 14q-48 -157 -161 -157q-65 0 -102.5 47.5t-37.5 133.5q0 109 77 258h-218q-37 0 -49 16t-12 58v61q0 38 15 51t52 13h242v637h223v-836h-71q-75 -120 -76 -213z" />
    <glyph glyph-name="uniFBA9" unicode="&#x6c1;" horiz-adv-x="861" arabic-form="medial" 
d="M869 0h-48q-83 0 -134.5 -87t-77.5 -228q-27 -137 -29 -383q-112 43 -210 115.5t-160.5 173.5t-62.5 221q0 80 18 188h-175q-37 0 -49 16t-12 58v61q0 38 15 51t52 13h394q-27 -83 -40.5 -168.5t-13.5 -151.5q0 -92 27.5 -159.5t77.5 -104.5q16 257 116 420.5t278 163.5
h29q37 0 51.5 -13t14.5 -51v-60q0 -44 -11.5 -59.5t-49.5 -15.5z" />
    <glyph glyph-name="uniFBAB" unicode="&#x6be;" horiz-adv-x="1127" arabic-form="final" 
d="M1135 0h-261q77 -125 77 -242q0 -99 -38.5 -182.5t-105 -133t-146.5 -49.5q-71 0 -136 44t-115 111t-80 139q-59 138 -69 313q-42 -4 -62.5 -34t-26 -68t-7.5 -96h-122q-43 91 -43 219q1 73 24 111t65.5 52t113.5 15h79q26 188 96 342q61 134 148 226.5t174 92.5
q76 0 136.5 -61.5t94 -154t33.5 -180.5q0 -65 -23 -135t-63 -130h252q37 0 51.5 -13t14.5 -51v-60q0 -44 -11.5 -59.5t-49.5 -15.5zM759 425q0 29 -9.5 77.5t-30 86.5t-50.5 38q-53 0 -115 -140q-60 -137 -71 -288h100q51 0 91 34.5t62.5 87.5t22.5 104zM545 -284
q63 -120 125 -120q25 0 41.5 33.5t24 77t7.5 71.5q0 50 -15.5 101t-49 86t-84.5 35h-124q12 -164 75 -284z" />
    <glyph glyph-name="uniFBAC" unicode="&#x6be;" horiz-adv-x="1202" arabic-form="initial" 
d="M165 -198h-123q-19 44 -30.5 98t-11.5 110q0 73 23.5 114t69 58t118.5 17h68q-21 43 -34.5 109t-13.5 129q0 93 35 190.5t102 187.5l-44 16q27 73 94 175q282 -67 441 -155q163 -89 233.5 -220t70.5 -326q0 -42 -10 -305h-880q-42 0 -64 -17.5t-32 -59.5t-12 -121z
M649 474q0 123 -26 195t-72 72q-40 0 -65 -45t-35.5 -103.5t-10.5 -100.5q0 -78 23.5 -156t67.5 -137h71q19 51 33 133.5t14 141.5zM951 327q0 119 -39 201t-117 130q13 -33 20 -84.5t7 -106.5q0 -119 -34 -268h158q5 48 5 128z" />
    <glyph glyph-name="uniFBAD" unicode="&#x6be;" horiz-adv-x="1015" arabic-form="medial" 
d="M1023 0h-263q76 -122 76 -241q0 -100 -37.5 -184t-103 -133t-146.5 -49q-72 0 -138 44t-116 112.5t-80 141.5q-57 140 -66 309h-157q-37 0 -49 16t-12 58v61q0 38 15 51t52 13h169q26 192 95 340q32 68 80 141t112 126.5t131 53.5q82 0 142 -64.5t91.5 -157t31.5 -174.5
q0 -65 -23 -135t-63 -130h254q37 0 51.5 -13t14.5 -51v-60q0 -44 -11.5 -59.5t-49.5 -15.5zM645 427q0 37 -11 84.5t-31.5 81.5t-46.5 34q-54 0 -115 -138q-61 -136 -72 -290h99q52 0 92.5 35t62.5 88t22 105zM431 -286q63 -118 126 -118q25 0 40.5 34t23 77.5t7.5 70.5
q0 51 -15.5 102t-49.5 85.5t-86 34.5h-121q12 -167 75 -286z" />
    <glyph glyph-name="uniFBAF" unicode="&#x6d2;" horiz-adv-x="770" arabic-form="final" 
d="M594 -493q-295 0 -444.5 86.5t-149.5 252.5q0 176 148 264.5t433 88.5h213q37 0 51.5 -13t14.5 -51v-60q0 -44 -11.5 -59.5t-49.5 -15.5h-304q-295 0 -295 -139q0 -150 422 -150q212 0 406 19t416 58l-14 -201q-379 -80 -836 -80z" />
    <glyph glyph-name="uniFBB1" unicode="&#x6d3;" horiz-adv-x="770" arabic-form="final" 
d="M594 -493q-295 0 -444.5 86.5t-149.5 252.5q0 176 148 264.5t433 88.5h213q37 0 51.5 -13t14.5 -51v-60q0 -44 -11.5 -59.5t-49.5 -15.5h-304q-295 0 -295 -139q0 -150 422 -150q212 0 406 19t416 58l-14 -201q-379 -80 -836 -80zM40 592h94q-16 31 -26 69.5t-10 73.5
q0 93 59 152.5t173 59.5q31 0 57.5 -3t64.5 -12l-20 -174q-7 2 -40.5 9.5t-50.5 7.5q-71 0 -71 -73q0 -46 30 -78t83 -32h72v-168h-415v168z" />
    <glyph glyph-name="uniFBE8" unicode="&#x649;" horiz-adv-x="538" arabic-form="initial" 
d="M-71 74v61q0 38 15 51t52 13h209v637h224v-836h-439q-37 0 -49 16t-12 58z" />
    <glyph glyph-name="uniFBE9" unicode="&#x649;" horiz-adv-x="596" arabic-form="medial" 
d="M344 82q-67 -82 -178 -82h-176q-37 0 -49 16t-12 58v61q0 38 15 51t52 13h96q34 0 55 11t32 42t11 89v494h225v-537q0 -34 -5 -60q39 -18 86 -28.5t95 -10.5h8q37 0 51.5 -13t14.5 -51v-60q0 -44 -11.5 -59.5t-49.5 -15.5h-11q-153 0 -249 82z" />
    <glyph glyph-name="uniFBFD" unicode="&#x6cc;" horiz-adv-x="1732" arabic-form="final" 
d="M1740 0h-126q-135 0 -204.5 74.5t-69.5 218.5v344q-75 0 -118 -25.5t-60.5 -74t-17.5 -125.5v-319q0 -159 -70.5 -281.5t-198.5 -190t-295 -67.5q-192 0 -322 75.5t-194 205.5t-64 293q0 107 30 213t82 188l188 -101q-36 -59 -56.5 -138t-20.5 -154q0 -108 42.5 -191.5
t125 -130t197.5 -46.5q168 0 252 82.5t84 245.5v305q0 436 376 436h265v-485q0 -69 9.5 -101t30.5 -42t62 -10h68q37 0 51.5 -13t14.5 -51v-60q0 -44 -11.5 -59.5t-49.5 -15.5z" />
    <glyph glyph-name="uniFBFE" unicode="&#x6cc;" horiz-adv-x="538" arabic-form="initial" 
d="M-71 74v61q0 38 15 51t52 13h209v637h224v-836h-439q-37 0 -49 16t-12 58zM187 -393q-43 0 -75 31t-32 75q0 45 31 76t76 31q44 0 75 -31.5t31 -75.5q0 -43 -30.5 -74.5t-75.5 -31.5zM422 -393q-43 0 -75 31t-32 75q0 45 31 76t76 31q44 0 75 -31.5t31 -75.5
q0 -43 -30.5 -74.5t-75.5 -31.5z" />
    <glyph glyph-name="uniFBFF" unicode="&#x6cc;" horiz-adv-x="596" arabic-form="medial" 
d="M344 82q-67 -82 -178 -82h-176q-37 0 -49 16t-12 58v61q0 38 15 51t52 13h96q34 0 55 11t32 42t11 89v494h225v-537q0 -34 -5 -60q39 -18 86 -28.5t95 -10.5h8q37 0 51.5 -13t14.5 -51v-60q0 -44 -11.5 -59.5t-49.5 -15.5h-11q-153 0 -249 82zM178 -393q-43 0 -75 31
t-32 75q0 45 31 76t76 31q44 0 75 -31.5t31 -75.5q0 -43 -30.5 -74.5t-75.5 -31.5zM413 -393q-43 0 -75 31t-32 75q0 45 31 76t76 31q44 0 75 -31.5t31 -75.5q0 -43 -30.5 -74.5t-75.5 -31.5z" />
    <glyph glyph-name="aShadda_aDammatan" unicode="&#xfc5e;" arabic-form="isolated" 
d="M-151 2160q89 -119 172 -119q13 0 23 3q-49 75 -49 131q0 39 17 77t50 62.5t73 24.5q62 0 99.5 -42t37.5 -117q0 -74 -40.5 -132t-99.5 -90t-111 -32q-46 0 -88 19t-72 63l-71 -75l-67 86zM164 2177q0 49 -33 49q-15 0 -24 -17t-9 -40q0 -37 30 -77q17 14 26.5 37.5
t9.5 47.5zM98 1465q-26 0 -53.5 12t-46.5 31q-21 -20 -46.5 -31.5t-51.5 -11.5q-48 0 -84 24.5t-55.5 66t-19.5 91.5v179h122v-182q0 -25 10.5 -40.5t27.5 -15.5t28.5 17.5t11.5 39.5v157h116v-157q0 -22 11.5 -39.5t28.5 -17.5t27.5 15.5t10.5 40.5v183h122v-181
q0 -48 -19 -89.5t-55.5 -66.5t-84.5 -25z" />
    <glyph glyph-name="uni064D0651" unicode="&#xfc5f;" arabic-form="isolated" 
d="M98 1892q-26 0 -53.5 12t-46.5 31q-21 -20 -46.5 -31.5t-50.5 -11.5q-75 0 -117.5 52.5t-42.5 130.5v178h122v-181q0 -25 10.5 -40.5t27.5 -15.5t28.5 17t11.5 40v157h116v-157q0 -23 11.5 -40t28.5 -17t27.5 15.5t10.5 40.5v182h122v-180q0 -46 -18.5 -87.5t-54.5 -68
t-86 -26.5zM-212 1784h419v-128h-419v128zM-212 1592h419v-127h-419v127z" />
    <glyph glyph-name="uni064E0651" unicode="&#xfc60;" arabic-form="isolated" 
d="M-212 2043h419v-127h-419v127zM98 1465q-26 0 -53.5 12t-46.5 31q-21 -20 -46.5 -31.5t-51.5 -11.5q-49 0 -85 25t-55 66.5t-19 90.5v179h122v-182q0 -25 10.5 -40.5t27.5 -15.5t28.5 17.5t11.5 39.5v157h116v-157q0 -22 11.5 -39.5t28.5 -17.5t27.5 15.5t10.5 40.5v183
h122v-181q0 -48 -19 -89.5t-55.5 -66.5t-84.5 -25z" />
    <glyph glyph-name="uni064F0651" unicode="&#xfc61;" arabic-form="isolated" 
d="M-9 2041q17 0 31 5q-52 64 -52 128q0 39 17.5 77.5t49.5 63t73 24.5q62 0 99 -40.5t37 -118.5q0 -80 -38.5 -137.5t-98 -87t-120.5 -29.5q-108 0 -202 42l23 118q57 -24 99 -34.5t82 -10.5zM140 2177q0 49 -33 49q-15 0 -24 -17t-9 -40q0 -37 30 -77q17 14 26.5 37.5
t9.5 47.5zM98 1465q-26 0 -53.5 12t-46.5 31q-21 -20 -46.5 -31.5t-51.5 -11.5q-49 0 -85 25t-55 66.5t-19 90.5v179h122v-182q0 -25 10.5 -40.5t27.5 -15.5t28.5 17.5t11.5 39.5v157h116v-157q0 -22 11.5 -39.5t28.5 -17.5t27.5 15.5t10.5 40.5v183h122v-181
q0 -46 -19 -87.5t-55 -67.5t-85 -26z" />
    <glyph glyph-name="uni06500651" unicode="&#xfc62;" arabic-form="isolated" 
d="M98 1682q-26 0 -53.5 12t-46.5 31q-21 -20 -46.5 -31.5t-51.5 -11.5q-50 0 -86 24.5t-54.5 66t-18.5 91.5v179h122v-181q0 -25 10.5 -41t27.5 -16t28.5 17.5t11.5 40.5v157h116v-157q0 -23 11.5 -40.5t28.5 -17.5t27.5 16t10.5 41v182h122v-180q0 -49 -19 -90.5
t-55 -66.5t-85 -25zM-212 1592h419v-127h-419v127z" />
    <glyph glyph-name="uni06510670" unicode="&#xfc63;" arabic-form="isolated" 
d="M-67 2329h129v-408h-129v408zM98 1465q-26 0 -53.5 12t-46.5 31q-21 -20 -46.5 -31.5t-51.5 -11.5q-47 0 -83.5 25t-56 66.5t-19.5 90.5v179h122v-182q0 -25 10.5 -40.5t27.5 -15.5t28.5 17.5t11.5 39.5v157h116v-157q0 -22 11.5 -39.5t28.5 -17.5t27.5 15.5t10.5 40.5
v183h122v-181q0 -48 -19 -89.5t-55.5 -66.5t-84.5 -25z" />
    <glyph glyph-name="uniFDF2" unicode="&#xfdf2;" horiz-adv-x="2426" arabic-form="isolated" 
d="M1221 82q-67 -82 -179 -82h-279q-188 0 -238 129q-53 -32 -102 -46t-102 -14q-92 0 -167.5 39t-119.5 111t-44 168q0 171 131 300t386 204v116h222v-698q0 -45 6.5 -68t22 -32.5t44.5 -9.5h170q51 0 73 31t22 104v1106h225v-1142q0 -34 -5 -60q40 -19 89.5 -29t91.5 -10
h172v1238h225v-1437h-403q-140 0 -241 82zM2079 1436h223v-1437h-223v1437zM204 424q0 -71 42.5 -114t106.5 -43q37 0 79.5 15.5t74.5 39.5v377q-74 -15 -143 -49t-114.5 -91t-45.5 -135z" />
    <glyph glyph-name="uniFDFA" unicode="&#xfdfa;" horiz-adv-x="2165" arabic-form="isolated" 
d="M1702 16l35 74q24 -74 24 -108q0 -67 -22.5 -101.5t-67.5 -34.5q-46 0 -98 39q-31 -53 -121 -53q-98 0 -98 53q-44 -32 -143 -51.5t-235 -19.5q-229 0 -321 77t-96 238l-42 -63q-38 -55 -56 -56q3 -3 14 -30q10 -26 10 -54q0 -41 -20.5 -71.5t-54.5 -30.5q-40 0 -125 47
q-17 -41 -52 -72q-36 -33 -75 -33q-38 0 -74 -14q-12 0 -12 10q0 12 52 33t75 36l71 54q-20 36 -20 81q0 46 37 86q38 42 69 42q6 0 30 -12t42 -12q47 0 83 64l12 21l26 48q-98 27 -138 82t-55 147h-4q-60 -102 -162 -102q-36 0 -75 14q-37 13 -37 28q0 50 85 114
q84 65 177 94l-4 34l41 68v-2q17 -219 43 -285q28 -66 115 -94l-27 270l39 87l35 -367q120 -12 194 -12q212 0 363 81l16 44q12 33 22 33h3q6 0 6 -17q0 -19 -8 -51q72 -72 120 -72q56 0 86 88l-26 330h-9q-72 0 -114.5 37.5t-56.5 113.5h-4q-16 -65 -36.5 -101t-47.5 -46
l4 -4l29 1q57 -1 85.5 -20.5t28.5 -60.5t-26 -73q-26 -31 -135 -86q-109 -56 -218 -56q-95 0 -152 48t-57 134q0 64 33 137q-29 8 -48 29.5t-30 58.5h-4q-31 -104 -113 -104q-48 0 -72 36t-24 110v12l-59 -52q-13 -12 -76 -12q-100 0 -100 37q0 21 27 64q29 45 46 53l160 78
v20l35 74l8 -240q3 -92 66 -92q34 0 65 25q32 26 28 53l-32 223l37 80q32 -178 53 -309q10 -64 72 -64q47 0 47 28q0 38 -32 143l-42 140l27 68q82 -252 82 -322q0 -40 -23 -94q-23 -53 -49 -53q-12 0 -18 6q-15 -42 -15 -80q0 -153 187 -153q102 0 195 45q92 44 100 59
q-4 13 -98 28l-105 17q-8 6 -8 17q0 18 18 43q19 26 22 25q2 -1 49 23q45 25 68 58q11 17 11 57q0 188 -41 469l34 114q39 -341 68 -484q32 -153 158 -174l-10 196l43 92l16 -286q54 18 123 73q40 -30 71 -48t70 -25q50 52 147 122q95 68 131 68q38 0 87 -31q49 -30 49 -65
q0 -28 -36 -87q-36 -57 -119 -78q-82 -21 -179 -21q-49 0 -98 4q-49 -97 -78 -97q-8 0 -8 13q0 29 45 96q-85 33 -99 53q-43 -28 -66.5 -40.5t-35.5 -12.5q14 -273 48 -354q35 -80 175 -88l4 4q-43 31 -43 88q0 63 55 142t136 79q56 0 108 -35q51 -35 50 -63q-55 18 -107 18
q-74 0 -130 -28q-56 -29 -56 -56q0 -32 58 -87q54 -51 85 -51q29 0 137 35q100 31 137 52l-34 -76q-205 -108 -392 -108q-195 0 -243 149q-60 -133 -117 -133q-53 0 -137 90q-130 -115 -404 -115q-74 0 -143 11q15 -138 51 -190q36 -54 130.5 -81.5t244.5 -27.5
q232 0 338 65q16 39 30 57.5t28 18.5q7 0 7 -16q0 -30 -24 -91q12 -26 56 -26q51 0 99 24q24 73 40 104.5t29 31.5q7 -4 7 -23q0 -34 -20 -88q65 -27 90 -27q12 0 16 6v3q0 13 -16 77zM1266 1253l403 191l-12 -45l-400 -197zM664 1362q0 -66 -43 -66q-26 0 -43 17
q-16 -14 -32.5 -22.5t-29.5 -8.5q-43 0 -43 57q0 41 4 48q4 8 15 18v-14q0 -62 34 -62q22 0 39 33l-4 47l19 29l8 -63q5 -32 30 -32q24 0 24 24l-7 52l14 21q15 -37 15 -78zM948 767l-51 495l45 116l33 -463q-3 -69 -9.5 -104.5t-17.5 -43.5zM1716 1187q-164 -81 -164 -108
q0 -23 54 -51l-19 -49q-67 22 -67 82q0 57 44 84q38 24 182 100q131 69 259 115l-18 -51q-113 -43 -271 -122zM303 962q-70 -28 -70 -50q0 -21 52 -21q59 0 104 27l-2 79q-26 -12 -84 -35zM2025 860q0 13 -36 32q-34 19 -55 19q-39 0 -110 -42q-66 -39 -108 -76q2 0 13 -1
t28 -1q92 0 180 18q88 19 88 51zM350 461q0 9 -2 45l-2 33q-32 -10 -107 -47q-73 -34 -73 -60q0 -20 62 -20q36 0 66 12q31 13 56 37zM1939 -82q-27 0 -50 29t-23 61q0 47 33 107q33 61 55 61q28 0 68 -54q42 -52 42 -118q0 -104 -84 -228t-178 -124q-42 0 -120 32
q-76 31 -76 48q0 8 10 8q9 0 55 -15q45 -16 76 -16q136 0 283 217l-15 45q-36 -53 -76 -53zM1024 10l-102 74l59 72l96 -72l56 68l100 -76l-53 -64l-99 72zM2005 20q-6 34 -19 50t-34 16q-16 0 -26 -13q-11 -14 -15 -38q3 -18 19 -27q16 -10 43 -10q16 0 23 6q7 4 9 16z
M438 -80q0 29 -41 65q-41 35 -79 35q-12 0 -19.5 -6t-7.5 -18q0 -25 52 -55q52 -31 81 -31q7 0 10 3q4 1 4 7zM844 -367q59 0 92 5q30 4 85 38q54 33 73 33q16 0 38 -16q23 -17 28 -17q30 0 34 31q6 31 25 31q8 0 8 -13v-7q0 -8 -3 -10q3 -5 11.5 -9t12.5 -4q25 0 25 28
q0 27 20 29q1 -8 1 -23q0 -40 -12 -50q-13 -15 -43 -15q-16 0 -29 8q-29 -32 -61 -32q-15 0 -34 17q-17 17 -25 17q-16 0 -77 -35q-58 -36 -145 -36q-83 0 -88 15v2q4 13 64 13z" />
    <glyph glyph-name="uniFE82" unicode="&#x622;" horiz-adv-x="483" arabic-form="final" 
d="M471 0h-97q-154 0 -211.5 89.5t-57.5 240.5v1106h223v-1075q0 -88 21.5 -125t69.5 -37h47q37 0 51.5 -13t14.5 -51v-60q0 -44 -11.5 -59.5t-49.5 -15.5zM354 1549q-64 0 -165 54q-52 29 -83.5 42t-51.5 13q-23 0 -42.5 -14.5t-48.5 -49.5l-94 82q40 67 88.5 101t111.5 34
q61 0 170 -60q45 -25 76 -38t51 -13q22 0 41.5 32.5t30.5 67.5l114 -56q-35 -105 -81 -150t-117 -45z" />
    <glyph glyph-name="uniFE84" unicode="&#x623;" horiz-adv-x="463" arabic-form="final" 
d="M471 0h-97q-154 0 -211.5 89.5t-57.5 240.5v1106h223v-1075q0 -88 21.5 -125t69.5 -37h47q37 0 51.5 -13t14.5 -51v-60q0 -44 -11.5 -59.5t-49.5 -15.5zM55 1706h92q-55 55 -55 123q0 79 48.5 126t134.5 47q45 0 93 -9l-9 -116q-28 7 -44.5 10t-33.5 3q-31 0 -51 -21.5
t-20 -56.5q0 -44 33.5 -75t84.5 -31h49v-112h-322v112z" />
    <glyph glyph-name="uniFE86" unicode="&#x624;" horiz-adv-x="984" arabic-form="final" 
d="M993 0h-168q-71 -210 -219.5 -312.5t-387.5 -129.5l-35 218q136 11 249 63.5t164 160.5h-100q-118 0 -208.5 51t-140 143.5t-49.5 213.5q0 116 47 222.5t136.5 173.5t211.5 67q125 0 202 -68.5t110 -176.5t33 -234v-193h150q37 0 51.5 -13t14.5 -51v-60
q0 -44 -11.5 -59.5t-49.5 -15.5zM468 673q-54 0 -90.5 -36.5t-54 -91.5t-17.5 -110q0 -109 52.5 -172.5t147.5 -63.5h111v137q0 166 -31.5 251.5t-117.5 85.5zM221 1204h94q-16 31 -26 69.5t-10 73.5q0 93 59 152.5t173 59.5q31 0 57.5 -3t64.5 -12l-20 -174q-7 2 -40.5 9.5
t-50.5 7.5q-71 0 -71 -73q0 -46 30 -78t83 -32h72v-168h-415v168z" />
    <glyph glyph-name="uniFE88" unicode="&#x625;" horiz-adv-x="463" arabic-form="final" 
d="M471 0h-97q-154 0 -211.5 89.5t-57.5 240.5v1106h223v-1075q0 -88 21.5 -125t69.5 -37h47q37 0 51.5 -13t14.5 -51v-60q0 -44 -11.5 -59.5t-49.5 -15.5zM52 -432h92q-55 55 -55 123q0 79 48.5 126t134.5 47q45 0 93 -9l-9 -116q-28 7 -44.5 10t-33.5 3q-31 0 -51 -21.5
t-20 -56.5q0 -44 33.5 -75t84.5 -31h49v-112h-322v112z" />
    <glyph glyph-name="uniFE8A" unicode="&#x626;" horiz-adv-x="1732" arabic-form="final" 
d="M1740 0h-126q-135 0 -204.5 74.5t-69.5 218.5v344q-75 0 -118 -25.5t-60.5 -74t-17.5 -125.5v-319q0 -159 -70.5 -281.5t-198.5 -190t-295 -67.5q-192 0 -322 75.5t-194 205.5t-64 293q0 107 30 213t82 188l188 -101q-36 -59 -56.5 -138t-20.5 -154q0 -108 42.5 -191.5
t125 -130t197.5 -46.5q168 0 252 82.5t84 245.5v305q0 436 376 436h265v-485q0 -69 9.5 -101t30.5 -42t62 -10h68q37 0 51.5 -13t14.5 -51v-60q0 -44 -11.5 -59.5t-49.5 -15.5zM-71 784h94q-16 31 -26 69.5t-10 73.5q0 93 59 152.5t173 59.5q31 0 57.5 -3t64.5 -12l-20 -174
q-7 2 -40.5 9.5t-50.5 7.5q-71 0 -71 -73q0 -46 30 -78t83 -32h72v-168h-415v168z" />
    <glyph glyph-name="uniFE8B" unicode="&#x626;" horiz-adv-x="538" arabic-form="initial" 
d="M-71 74v61q0 38 15 51t52 13h209v637h224v-836h-439q-37 0 -49 16t-12 58zM100 1108h94q-16 31 -26 69.5t-10 73.5q0 93 59 152.5t173 59.5q31 0 57.5 -3t64.5 -12l-20 -174q-7 2 -40.5 9.5t-50.5 7.5q-71 0 -71 -73q0 -46 30 -78t83 -32h72v-168h-415v168z" />
    <glyph glyph-name="uniFE8C" unicode="&#x626;" horiz-adv-x="596" arabic-form="medial" 
d="M344 82q-67 -82 -178 -82h-176q-37 0 -49 16t-12 58v61q0 38 15 51t52 13h96q34 0 55 11t32 42t11 89v494h225v-537q0 -34 -5 -60q39 -18 86 -28.5t95 -10.5h8q37 0 51.5 -13t14.5 -51v-60q0 -44 -11.5 -59.5t-49.5 -15.5h-11q-153 0 -249 82zM62 1108h94
q-16 31 -26 69.5t-10 73.5q0 93 59 152.5t173 59.5q31 0 57.5 -3t64.5 -12l-20 -174q-7 2 -40.5 9.5t-50.5 7.5q-71 0 -71 -73q0 -46 30 -78t83 -32h72v-168h-415v168z" />
    <glyph glyph-name="uniFE8E" unicode="&#x627;" horiz-adv-x="463" arabic-form="final" 
d="M471 0h-97q-154 0 -211.5 89.5t-57.5 240.5v1106h223v-1075q0 -88 21.5 -125t69.5 -37h47q37 0 51.5 -13t14.5 -51v-60q0 -44 -11.5 -59.5t-49.5 -15.5z" />
    <glyph glyph-name="uniFE90" unicode="&#x628;" horiz-adv-x="1568" arabic-form="final" 
d="M1576 0h-18q-149 0 -249 82q-61 -82 -177 -82h-666q-171 0 -273.5 46t-147.5 133t-45 216q0 55 7 118t8 77q2 10 4 30l200 -20q-8 -54 -11.5 -88.5t-3.5 -70.5q0 -86 30.5 -138.5t100 -78t188.5 -25.5h541q50 0 71 32t21 102v502h225v-537q0 -23 -4 -60q39 -18 87 -28.5
t89 -10.5h18q37 0 51.5 -13t14.5 -51v-60q0 -44 -11.5 -59.5t-49.5 -15.5zM717 -393q-43 0 -75 31t-32 75q0 45 31 76t76 31q44 0 75 -31.5t31 -75.5q0 -43 -30.5 -74.5t-75.5 -31.5z" />
    <glyph glyph-name="uniFE91" unicode="&#x628;" horiz-adv-x="538" arabic-form="initial" 
d="M-71 74v61q0 38 15 51t52 13h209v637h224v-836h-439q-37 0 -49 16t-12 58zM313 -393q-43 0 -75 31t-32 75q0 45 31 76t76 31q44 0 75 -31.5t31 -75.5q0 -43 -30.5 -74.5t-75.5 -31.5z" />
    <glyph glyph-name="uniFE92" unicode="&#x628;" horiz-adv-x="596" arabic-form="medial" 
d="M344 82q-67 -82 -178 -82h-176q-37 0 -49 16t-12 58v61q0 38 15 51t52 13h96q34 0 55 11t32 42t11 89v494h225v-537q0 -34 -5 -60q39 -18 86 -28.5t95 -10.5h8q37 0 51.5 -13t14.5 -51v-60q0 -44 -11.5 -59.5t-49.5 -15.5h-11q-153 0 -249 82zM299 -393q-43 0 -75 31
t-32 75q0 45 31 76t76 31q44 0 75 -31.5t31 -75.5q0 -43 -30.5 -74.5t-75.5 -31.5z" />
    <glyph glyph-name="uniFE94" unicode="&#x629;" horiz-adv-x="873" arabic-form="final" 
d="M881 0h-107q-189 0 -239 129q-53 -32 -102 -46t-101 -14q-93 0 -168.5 37t-119.5 109t-44 173q0 171 131 300t386 203v116h222v-698q0 -48 9 -72t24 -31t39 -7h65q37 0 51.5 -13t14.5 -51v-60q0 -44 -11.5 -59.5t-49.5 -15.5zM214 424q0 -67 41 -112t108 -45
q37 0 79.5 15.5t74.5 39.5v377q-73 -14 -142 -49t-115 -92.5t-46 -133.5zM345 1158q-42 0 -74.5 31t-32.5 75q0 45 31.5 76t75.5 31t75 -31.5t31 -75.5q0 -43 -30.5 -74.5t-75.5 -31.5zM619 1158q-43 0 -75 31.5t-32 74.5q0 45 31 76t76 31q44 0 75 -31.5t31 -75.5
q0 -43 -30.5 -74.5t-75.5 -31.5z" />
    <glyph glyph-name="uniFE96" unicode="&#x62a;" horiz-adv-x="1568" arabic-form="final" 
d="M1576 0h-18q-149 0 -249 82q-61 -82 -177 -82h-666q-171 0 -273.5 46t-147.5 133t-45 216q0 55 7 118t8 77q2 10 4 30l200 -20q-8 -54 -11.5 -88.5t-3.5 -70.5q0 -86 30.5 -138.5t100 -78t188.5 -25.5h541q50 0 71 32t21 102v502h225v-537q0 -23 -4 -60q39 -18 87 -28.5
t89 -10.5h18q37 0 51.5 -13t14.5 -51v-60q0 -44 -11.5 -59.5t-49.5 -15.5zM593 1107q-42 0 -74.5 31t-32.5 75q0 45 31.5 76t75.5 31t75 -31.5t31 -75.5q0 -43 -30.5 -74.5t-75.5 -31.5zM867 1107q-43 0 -75 31.5t-32 74.5q0 45 31 76t76 31q44 0 75 -31.5t31 -75.5
q0 -43 -30.5 -74.5t-75.5 -31.5z" />
    <glyph glyph-name="uniFE97" unicode="&#x62a;" horiz-adv-x="538" arabic-form="initial" 
d="M-71 74v61q0 38 15 51t52 13h209v637h224v-836h-439q-37 0 -49 16t-12 58zM189 1107q-42 0 -74.5 31t-32.5 75q0 45 31.5 76t75.5 31t75 -31.5t31 -75.5q0 -43 -30.5 -74.5t-75.5 -31.5zM463 1107q-43 0 -75 31.5t-32 74.5q0 45 31 76t76 31q44 0 75 -31.5t31 -75.5
q0 -43 -30.5 -74.5t-75.5 -31.5z" />
    <glyph glyph-name="uniFE98" unicode="&#x62a;" horiz-adv-x="596" arabic-form="medial" 
d="M344 82q-67 -82 -178 -82h-176q-37 0 -49 16t-12 58v61q0 38 15 51t52 13h96q34 0 55 11t32 42t11 89v494h225v-537q0 -34 -5 -60q39 -18 86 -28.5t95 -10.5h8q37 0 51.5 -13t14.5 -51v-60q0 -44 -11.5 -59.5t-49.5 -15.5h-11q-153 0 -249 82zM149 1107q-42 0 -74.5 31
t-32.5 75q0 45 31.5 76t75.5 31t75 -31.5t31 -75.5q0 -43 -30.5 -74.5t-75.5 -31.5zM423 1107q-43 0 -75 31.5t-32 74.5q0 45 31 76t76 31q44 0 75 -31.5t31 -75.5q0 -43 -30.5 -74.5t-75.5 -31.5z" />
    <glyph glyph-name="uniFE9A" unicode="&#x62b;" horiz-adv-x="1568" arabic-form="final" 
d="M1576 0h-18q-149 0 -249 82q-61 -82 -177 -82h-666q-171 0 -273.5 46t-147.5 133t-45 216q0 55 7 118t8 77q2 10 4 30l200 -20q-8 -54 -11.5 -88.5t-3.5 -70.5q0 -86 30.5 -138.5t100 -78t188.5 -25.5h541q50 0 71 32t21 102v502h225v-537q0 -23 -4 -60q39 -18 87 -28.5
t89 -10.5h18q37 0 51.5 -13t14.5 -51v-60q0 -44 -11.5 -59.5t-49.5 -15.5zM688 1368q-43 0 -75 31t-32 75q0 45 31 76t76 31q44 0 75 -31.5t31 -75.5q0 -43 -30.5 -74.5t-75.5 -31.5zM556 1103q-43 0 -75 31t-32 75q0 45 31 76t76 31q44 0 75 -31.5t31 -75.5
q0 -43 -30.5 -74.5t-75.5 -31.5zM830 1103q-43 0 -75 31t-32 75q0 45 31 76t76 31q44 0 75 -31.5t31 -75.5q0 -43 -30.5 -74.5t-75.5 -31.5z" />
    <glyph glyph-name="uniFE9B" unicode="&#x62b;" horiz-adv-x="538" arabic-form="initial" 
d="M-71 74v61q0 38 15 51t52 13h209v637h224v-836h-439q-37 0 -49 16t-12 58zM325 1368q-43 0 -75 31t-32 75q0 45 31 76t76 31q44 0 75 -31.5t31 -75.5q0 -43 -30.5 -74.5t-75.5 -31.5zM193 1103q-43 0 -75 31t-32 75q0 45 31 76t76 31q44 0 75 -31.5t31 -75.5
q0 -43 -30.5 -74.5t-75.5 -31.5zM467 1103q-43 0 -75 31t-32 75q0 45 31 76t76 31q44 0 75 -31.5t31 -75.5q0 -43 -30.5 -74.5t-75.5 -31.5z" />
    <glyph glyph-name="uniFE9C" unicode="&#x62b;" horiz-adv-x="596" arabic-form="medial" 
d="M344 82q-67 -82 -178 -82h-176q-37 0 -49 16t-12 58v61q0 38 15 51t52 13h96q34 0 55 11t32 42t11 89v494h225v-537q0 -34 -5 -60q39 -18 86 -28.5t95 -10.5h8q37 0 51.5 -13t14.5 -51v-60q0 -44 -11.5 -59.5t-49.5 -15.5h-11q-153 0 -249 82zM280 1368q-43 0 -75 31
t-32 75q0 45 31 76t76 31q44 0 75 -31.5t31 -75.5q0 -43 -30.5 -74.5t-75.5 -31.5zM148 1103q-43 0 -75 31t-32 75q0 45 31 76t76 31q44 0 75 -31.5t31 -75.5q0 -43 -30.5 -74.5t-75.5 -31.5zM422 1103q-43 0 -75 31t-32 75q0 45 31 76t76 31q44 0 75 -31.5t31 -75.5
q0 -43 -30.5 -74.5t-75.5 -31.5z" />
    <glyph glyph-name="uniFE9E" unicode="&#x62c;" horiz-adv-x="933" arabic-form="final" 
d="M456 -753q-157 0 -259 65t-149.5 170t-47.5 228q0 152 52.5 261.5t158 168.5t259.5 59h150q-32 63 -47 192q-8 77 -23.5 141t-54.5 113.5t-107 49.5q-62 0 -195 -32v187q135 41 248 41q135 0 219 -89t105 -235l22 -151q16 -102 46 -159.5t69 -57.5h35q37 0 51.5 -13
t14.5 -51v-60q0 -44 -11.5 -59.5t-49.5 -15.5h-475q-122 0 -189.5 -71t-67.5 -203t71.5 -206t202.5 -74q85 0 175 22v-197q-50 -14 -95 -19t-108 -5zM408 -257q0 40 28.5 68t68.5 28q38 0 66 -28t28 -68q0 -38 -28 -66.5t-66 -28.5q-40 0 -68.5 28t-28.5 67z" />
    <glyph glyph-name="uniFE9F" unicode="&#x62c;" horiz-adv-x="887" arabic-form="initial" 
d="M-71 74v61q0 38 15 51t52 13h541q-22 45 -36 182l-3 30q-8 81 -21.5 139t-50.5 101.5t-105 43.5q-52 0 -105.5 -10.5t-96.5 -26.5v187q63 23 123 34.5t126 11.5q98 0 168.5 -49t110.5 -131.5t50 -185.5q18 -178 47 -254q29 -72 75 -72v-199h-829q-37 0 -49 16t-12 58z
M419 -393q-43 0 -75 31t-32 75q0 45 31 76t76 31q44 0 75 -31.5t31 -75.5q0 -43 -30.5 -74.5t-75.5 -31.5z" />
    <glyph glyph-name="uniFEA0" unicode="&#x62c;" horiz-adv-x="859" arabic-form="medial" 
d="M867 0h-877q-37 0 -49 16t-12 58v61q0 38 15 51t52 13h550q-30 43 -41 167q-8 149 -55 239t-140 90q-91 0 -190 -39v188q62 24 121.5 35.5t126.5 11.5q125 0 213.5 -86t115.5 -265l19 -130q13 -83 40.5 -147t64.5 -64h41q37 0 51.5 -13t14.5 -51v-60q0 -44 -11.5 -59.5
t-49.5 -15.5zM384 -393q-43 0 -75 31t-32 75q0 45 31 76t76 31q44 0 75 -31.5t31 -75.5q0 -43 -30.5 -74.5t-75.5 -31.5z" />
    <glyph glyph-name="uniFEA2" unicode="&#x62d;" horiz-adv-x="933" arabic-form="final" 
d="M456 -753q-157 0 -259 65t-149.5 170t-47.5 228q0 152 52.5 261.5t158 168.5t259.5 59h150q-32 63 -47 192q-8 77 -23.5 141.5t-55.5 113.5t-106 49q-62 0 -195 -32v187q135 41 248 41q92 0 161 -42t110 -115t54 -167q15 -116 21 -151q18 -98 46 -157.5t69 -59.5h35
q37 0 51.5 -13t14.5 -51v-60q0 -44 -11.5 -59.5t-49.5 -15.5h-475q-121 0 -189 -71t-68 -203t71.5 -206t202.5 -74q85 0 175 22v-197q-50 -16 -95 -20t-108 -4z" />
    <glyph glyph-name="uniFEA3" unicode="&#x62d;" horiz-adv-x="887" arabic-form="initial" 
d="M-71 74v61q0 38 15 51t52 13h541q-22 45 -36 182l-3 30q-8 81 -21.5 139t-50.5 101.5t-105 43.5q-52 0 -105.5 -10.5t-96.5 -26.5v187q63 23 123 34.5t126 11.5q98 0 168.5 -49t110.5 -131.5t50 -185.5q18 -178 47 -254q29 -72 75 -72v-199h-829q-37 0 -49 16t-12 58z
" />
    <glyph glyph-name="uniFEA4" unicode="&#x62d;" horiz-adv-x="859" arabic-form="medial" 
d="M867 0h-877q-37 0 -49 16t-12 58v61q0 38 15 51t52 13h550q-30 43 -41 167q-8 149 -55 239t-140 90q-91 0 -190 -39v188q62 24 121.5 35.5t126.5 11.5q125 0 213.5 -86t115.5 -265l19 -130q13 -83 40.5 -147t64.5 -64h41q37 0 51.5 -13t14.5 -51v-60q0 -44 -11.5 -59.5
t-49.5 -15.5z" />
    <glyph glyph-name="uniFEA6" unicode="&#x62e;" horiz-adv-x="933" arabic-form="final" 
d="M456 -753q-157 0 -259 65t-149.5 170t-47.5 228q0 152 52.5 261.5t158 168.5t259.5 59h150q-32 63 -47 192q-8 77 -23.5 141.5t-55.5 113.5t-106 49q-62 0 -195 -32v187q135 41 248 41q92 0 161 -42t110 -115t54 -167q15 -116 21 -151q18 -98 46 -157.5t69 -59.5h35
q37 0 51.5 -13t14.5 -51v-60q0 -44 -11.5 -59.5t-49.5 -15.5h-475q-121 0 -189 -71t-68 -203t71.5 -206t202.5 -74q85 0 175 22v-197q-50 -16 -95 -20t-108 -4zM477 1105q-42 0 -74.5 31t-32.5 75q0 45 31.5 76t75.5 31t75 -31.5t31 -75.5q0 -43 -30.5 -74.5t-75.5 -31.5z
" />
    <glyph glyph-name="uniFEA7" unicode="&#x62e;" horiz-adv-x="887" arabic-form="initial" 
d="M-71 74v61q0 38 15 51t52 13h541q-22 45 -36 182l-3 30q-8 81 -21.5 139t-50.5 101.5t-105 43.5q-52 0 -105.5 -10.5t-96.5 -26.5v187q63 23 123 34.5t126 11.5q98 0 168.5 -49t110.5 -131.5t50 -185.5q18 -178 47 -254q29 -72 75 -72v-199h-829q-37 0 -49 16t-12 58z
M352 1105q-42 0 -74.5 31t-32.5 75q0 45 31.5 76t75.5 31t75 -31.5t31 -75.5q0 -43 -30.5 -74.5t-75.5 -31.5z" />
    <glyph glyph-name="uniFEA8" unicode="&#x62e;" horiz-adv-x="859" arabic-form="medial" 
d="M867 0h-877q-37 0 -49 16t-12 58v61q0 38 15 51t52 13h550q-30 43 -41 167q-8 149 -55 239t-140 90q-91 0 -190 -39v188q62 24 121.5 35.5t126.5 11.5q125 0 213.5 -86t115.5 -265l19 -130q13 -83 40.5 -147t64.5 -64h41q37 0 51.5 -13t14.5 -51v-60q0 -44 -11.5 -59.5
t-49.5 -15.5zM345 1105q-42 0 -74.5 31t-32.5 75q0 45 31.5 76t75.5 31t75 -31.5t31 -75.5q0 -43 -30.5 -74.5t-75.5 -31.5z" />
    <glyph glyph-name="uniFEAA" unicode="&#x62f;" horiz-adv-x="910" arabic-form="final" 
d="M633 105q-52 -52 -124 -78.5t-157 -26.5h-322v199h321q74 0 114.5 34t40.5 92q0 111 -87 243.5t-199 241.5l170 171q162 -163 248 -320t86 -292q0 -69 -12 -125q74 -45 190 -45h11q37 0 51.5 -13t14.5 -51v-60q0 -44 -11.5 -59.5t-49.5 -15.5h-11q-158 0 -274 105z" />
    <glyph glyph-name="uniFEAC" unicode="&#x630;" horiz-adv-x="910" arabic-form="final" 
d="M633 105q-52 -52 -124 -78.5t-157 -26.5h-322v199h321q74 0 114.5 34t40.5 92q0 111 -87 243.5t-199 241.5l170 171q162 -163 248 -320t86 -292q0 -69 -12 -125q74 -45 190 -45h11q37 0 51.5 -13t14.5 -51v-60q0 -44 -11.5 -59.5t-49.5 -15.5h-11q-158 0 -274 105z
M384 1105q-42 0 -74.5 31t-32.5 75q0 45 31.5 76t75.5 31t75 -31.5t31 -75.5q0 -43 -30.5 -74.5t-75.5 -31.5z" />
    <glyph glyph-name="uniFEAE" unicode="&#x631;" horiz-adv-x="604" arabic-form="final" 
d="M612 0h-180q-17 -126 -63 -208t-130 -131.5t-217 -77.5l-57 220q99 24 153.5 60t78 97t23.5 162v714h225v-637h162q37 0 51.5 -13t14.5 -51v-60q0 -44 -11.5 -59.5t-49.5 -15.5z" />
    <glyph glyph-name="uniFEB0" unicode="&#x632;" horiz-adv-x="604" arabic-form="final" 
d="M612 0h-180q-17 -126 -63 -208t-130 -131.5t-217 -77.5l-57 220q99 24 153.5 60t78 97t23.5 162v714h225v-637h162q37 0 51.5 -13t14.5 -51v-60q0 -44 -11.5 -59.5t-49.5 -15.5zM325 1105q-42 0 -74.5 31t-32.5 75q0 45 31.5 76t75.5 31t75 -31.5t31 -75.5
q0 -43 -30.5 -74.5t-75.5 -31.5z" />
    <glyph glyph-name="uniFEB2" unicode="&#x633;" horiz-adv-x="2191" arabic-form="final" 
d="M1938 82q-28 -38 -73 -60t-104 -22h-33q-78 0 -146 26.5t-119 72.5q-30 -49 -79 -74t-112 -25h-38q-108 0 -196 53q-25 -141 -88.5 -251.5t-170.5 -176t-257 -65.5q-163 0 -281 71.5t-179.5 199t-61.5 292.5q0 195 102 412l189 -99q-30 -63 -45 -139t-15 -149
q0 -94 34 -179.5t102 -140t163 -54.5q103 0 170 54t97.5 141t30.5 191q0 209 -70 401l218 78q46 -172 71 -391q38 -22 78.5 -35.5t72.5 -13.5q54 0 75 31t21 108v387h225v-421l-1 -45q42 -29 87 -44.5t82 -15.5q56 0 77.5 32t21.5 102v502h224v-536q0 -20 -5 -61
q85 -39 185 -39h4q37 0 51.5 -13t14.5 -51v-60q0 -44 -11.5 -59.5t-49.5 -15.5h-11q-79 0 -140 21t-110 61z" />
    <glyph glyph-name="uniFEB3" unicode="&#x633;" horiz-adv-x="1593" arabic-form="initial" 
d="M931 99q-63 -99 -196 -99h-30q-79 0 -146 27t-118 74q-66 -101 -194 -101h-255q-37 0 -49 16t-12 58v61q0 38 15 51t52 13h175q54 0 74.5 31t20.5 107v298h226v-346q0 -10 -2 -28q44 -29 89.5 -45.5t82.5 -16.5q56 0 77.5 32t21.5 106v388h224v-434q0 -15 -2 -33
q90 -59 209 -59h58v637h224v-836h-264q-169 0 -281 99z" />
    <glyph glyph-name="uniFEB4" unicode="&#x633;" horiz-adv-x="1661" arabic-form="medial" 
d="M1408 82q-30 -38 -76 -60t-104 -22h-33q-79 0 -145.5 27t-117.5 72q-28 -48 -79.5 -73.5t-123.5 -25.5h-25q-150 0 -263 101q-41 -57 -92.5 -79t-138.5 -22h-218q-37 0 -49 16t-12 58v61q0 38 15 51t52 13h176q54 0 75 31t21 107v298h226v-345q0 -7 -2 -29
q43 -29 88.5 -45.5t83.5 -16.5q55 0 76 32t21 105v389h224v-436l-2 -30q42 -29 87 -44.5t84 -15.5q57 0 78 32t21 104v500h223v-539q0 -19 -3 -58q39 -18 86.5 -28.5t95.5 -10.5h7q37 0 51.5 -13t14.5 -51v-60q0 -44 -11.5 -59.5t-49.5 -15.5h-13q-150 0 -248 82z" />
    <glyph glyph-name="uniFEB6" unicode="&#x634;" horiz-adv-x="2191" arabic-form="final" 
d="M1938 82q-28 -38 -73 -60t-104 -22h-33q-78 0 -146 26.5t-119 72.5q-30 -49 -79 -74t-112 -25h-38q-108 0 -196 53q-25 -141 -88.5 -251.5t-170.5 -176t-257 -65.5q-163 0 -281 71.5t-179.5 199t-61.5 292.5q0 195 102 412l189 -99q-30 -63 -45 -139t-15 -149
q0 -94 34 -179.5t102 -140t163 -54.5q103 0 170 54t97.5 141t30.5 191q0 209 -70 401l218 78q46 -172 71 -391q38 -22 78.5 -35.5t72.5 -13.5q54 0 75 31t21 108v387h225v-421l-1 -45q42 -29 87 -44.5t82 -15.5q56 0 77.5 32t21.5 102v502h224v-536q0 -20 -5 -61
q85 -39 185 -39h4q37 0 51.5 -13t14.5 -51v-60q0 -44 -11.5 -59.5t-49.5 -15.5h-11q-79 0 -140 21t-110 61zM1424 1368q-43 0 -75 31t-32 75q0 45 31 76t76 31q44 0 75 -31.5t31 -75.5q0 -43 -30.5 -74.5t-75.5 -31.5zM1292 1103q-43 0 -75 31t-32 75q0 45 31 76t76 31
q44 0 75 -31.5t31 -75.5q0 -43 -30.5 -74.5t-75.5 -31.5zM1566 1103q-43 0 -75 31t-32 75q0 45 31 76t76 31q44 0 75 -31.5t31 -75.5q0 -43 -30.5 -74.5t-75.5 -31.5z" />
    <glyph glyph-name="uniFEB7" unicode="&#x634;" horiz-adv-x="1593" arabic-form="initial" 
d="M931 99q-63 -99 -196 -99h-30q-79 0 -146 27t-118 74q-66 -101 -194 -101h-255q-37 0 -49 16t-12 58v61q0 38 15 51t52 13h175q54 0 74.5 31t20.5 107v298h226v-346q0 -10 -2 -28q44 -29 89.5 -45.5t82.5 -16.5q56 0 77.5 32t21.5 106v388h224v-434q0 -15 -2 -33
q90 -59 209 -59h58v637h224v-836h-264q-169 0 -281 99zM857 1368q-43 0 -75 31t-32 75q0 45 31 76t76 31q44 0 75 -31.5t31 -75.5q0 -43 -30.5 -74.5t-75.5 -31.5zM725 1103q-43 0 -75 31t-32 75q0 45 31 76t76 31q44 0 75 -31.5t31 -75.5q0 -43 -30.5 -74.5t-75.5 -31.5z
M999 1103q-43 0 -75 31t-32 75q0 45 31 76t76 31q44 0 75 -31.5t31 -75.5q0 -43 -30.5 -74.5t-75.5 -31.5z" />
    <glyph glyph-name="uniFEB8" unicode="&#x634;" horiz-adv-x="1661" arabic-form="medial" 
d="M1408 82q-30 -38 -76 -60t-104 -22h-33q-79 0 -145.5 27t-117.5 72q-28 -48 -79.5 -73.5t-123.5 -25.5h-25q-150 0 -263 101q-41 -57 -92.5 -79t-138.5 -22h-218q-37 0 -49 16t-12 58v61q0 38 15 51t52 13h176q54 0 75 31t21 107v298h226v-345q0 -7 -2 -29
q43 -29 88.5 -45.5t83.5 -16.5q55 0 76 32t21 105v389h224v-436l-2 -30q42 -29 87 -44.5t84 -15.5q57 0 78 32t21 104v500h223v-539q0 -19 -3 -58q39 -18 86.5 -28.5t95.5 -10.5h7q37 0 51.5 -13t14.5 -51v-60q0 -44 -11.5 -59.5t-49.5 -15.5h-13q-150 0 -248 82zM857 1368
q-43 0 -75 31t-32 75q0 45 31 76t76 31q44 0 75 -31.5t31 -75.5q0 -43 -30.5 -74.5t-75.5 -31.5zM725 1103q-43 0 -75 31t-32 75q0 45 31 76t76 31q44 0 75 -31.5t31 -75.5q0 -43 -30.5 -74.5t-75.5 -31.5zM999 1103q-43 0 -75 31t-32 75q0 45 31 76t76 31q44 0 75 -31.5
t31 -75.5q0 -43 -30.5 -74.5t-75.5 -31.5z" />
    <glyph glyph-name="uniFEBA" unicode="&#x635;" horiz-adv-x="2360" arabic-form="final" 
d="M2369 0h-1079q-154 0 -252 52q-25 -142 -90 -252.5t-175.5 -175t-262.5 -64.5q-166 0 -281 77t-172 205.5t-57 280.5q0 103 25.5 206t72.5 198l195 -91q-62 -114 -62 -288q0 -92 34.5 -178t102 -141t162.5 -55q104 0 170.5 55.5t97 144.5t30.5 194q0 200 -70 393l218 78
q58 -228 72 -398q62 -35 169 -42q40 163 125.5 326t220 274t298.5 111q177 0 269 -130t92 -370v-211h142q37 0 51.5 -13t14.5 -51v-60q0 -44 -11.5 -59.5t-49.5 -15.5zM1822 703q-71 0 -149 -55.5t-144 -169.5t-100 -279h573v215q0 141 -43 215t-137 74z" />
    <glyph glyph-name="uniFEBB" unicode="&#x635;" horiz-adv-x="1685" arabic-form="initial" 
d="M335 100q-36 -52 -83.5 -76t-109.5 -24h-150q-37 0 -49 16t-12 58v61q0 38 15 51t52 13h71q53 0 74 32t21 106v298h226v-335q0 -19 -4 -46q84 -53 192 -55q38 162 124 326t221 274.5t298 110.5q181 0 272 -133t91 -371v-406h-927q-106 0 -186 23.5t-136 76.5zM1183 703
q-71 0 -149 -55.5t-144 -169.5t-100 -279h573v215q0 141 -43 215t-137 74z" />
    <glyph glyph-name="uniFEBC" unicode="&#x635;" horiz-adv-x="1727" arabic-form="medial" 
d="M1735 0h-1079q-105 0 -185 23.5t-135 76.5q-32 -49 -81.5 -74.5t-112.5 -25.5h-148q-37 0 -49 16t-12 58v61q0 38 15 51t52 13h70q53 0 73.5 30.5t20.5 107.5v298h226v-335q0 -19 -4 -46q39 -26 86 -39.5t107 -15.5q38 161 124.5 324.5t221.5 275t297 111.5
q179 0 270.5 -129t91.5 -373v-209h146q37 0 51.5 -13t14.5 -51v-60q0 -44 -11.5 -59.5t-49.5 -15.5zM1183 703q-71 0 -149 -55.5t-144 -169.5t-100 -279h573v215q0 143 -41.5 216t-138.5 73z" />
    <glyph glyph-name="uniFEBE" unicode="&#x636;" horiz-adv-x="2360" arabic-form="final" 
d="M2369 0h-1079q-154 0 -252 52q-25 -142 -90 -252.5t-175.5 -175t-262.5 -64.5q-166 0 -281 77t-172 205.5t-57 280.5q0 103 25.5 206t72.5 198l195 -91q-62 -114 -62 -288q0 -92 34.5 -178t102 -141t162.5 -55q104 0 170.5 55.5t97 144.5t30.5 194q0 200 -70 393l218 78
q58 -228 72 -398q62 -35 169 -42q40 163 125.5 326t220 274t298.5 111q177 0 269 -130t92 -370v-211h142q37 0 51.5 -13t14.5 -51v-60q0 -44 -11.5 -59.5t-49.5 -15.5zM1822 703q-71 0 -149 -55.5t-144 -169.5t-100 -279h573v215q0 141 -43 215t-137 74zM1634 1105
q-42 0 -74.5 31t-32.5 75q0 45 31.5 76t75.5 31t75 -31.5t31 -75.5q0 -43 -30.5 -74.5t-75.5 -31.5z" />
    <glyph glyph-name="uniFEBF" unicode="&#x636;" horiz-adv-x="1685" arabic-form="initial" 
d="M335 100q-36 -52 -83.5 -76t-109.5 -24h-150q-37 0 -49 16t-12 58v61q0 38 15 51t52 13h71q53 0 74 32t21 106v298h226v-335q0 -19 -4 -46q84 -53 192 -55q38 162 124 326t221 274.5t298 110.5q181 0 272 -133t91 -371v-406h-927q-106 0 -186 23.5t-136 76.5zM1183 703
q-71 0 -149 -55.5t-144 -169.5t-100 -279h573v215q0 141 -43 215t-137 74zM994 1105q-42 0 -74.5 31t-32.5 75q0 45 31.5 76t75.5 31t75 -31.5t31 -75.5q0 -43 -30.5 -74.5t-75.5 -31.5z" />
    <glyph glyph-name="uniFEC0" unicode="&#x636;" horiz-adv-x="1727" arabic-form="medial" 
d="M1735 0h-1079q-105 0 -185 23.5t-135 76.5q-32 -49 -81.5 -74.5t-112.5 -25.5h-148q-37 0 -49 16t-12 58v61q0 38 15 51t52 13h70q53 0 73.5 30.5t20.5 107.5v298h226v-335q0 -19 -4 -46q39 -26 86 -39.5t107 -15.5q38 161 124.5 324.5t221.5 275t297 111.5
q179 0 270.5 -129t91.5 -373v-209h146q37 0 51.5 -13t14.5 -51v-60q0 -44 -11.5 -59.5t-49.5 -15.5zM1183 703q-71 0 -149 -55.5t-144 -169.5t-100 -279h573v215q0 143 -41.5 216t-138.5 73zM982 1105q-42 0 -74.5 31t-32.5 75q0 45 31.5 76t75.5 31t75 -31.5t31 -75.5
q0 -43 -30.5 -74.5t-75.5 -31.5z" />
    <glyph glyph-name="uniFEC2" unicode="&#x637;" horiz-adv-x="1351" arabic-form="final" 
d="M1360 0h-1360v199h205q12 58 71 212v1025h224v-689q155 163 341 163q119 0 203.5 -62t128.5 -181.5t44 -288.5v-179h138q37 0 51.5 -13t14.5 -51v-60q0 -44 -11.5 -59.5t-49.5 -15.5zM811 705q-75 0 -148.5 -59.5t-136.5 -174t-106 -272.5h573v186q0 153 -47 236.5
t-135 83.5z" />
    <glyph glyph-name="uniFEC3" unicode="&#x637;" horiz-adv-x="1279" arabic-form="initial" 
d="M-69 74v61q0 38 15 51t52 13h174q28 114 71 212v1025h224v-689q154 163 340 163q181 0 278 -138t97 -394v-378h-1190q-37 0 -49 16t-12 58zM780 705q-75 0 -148.5 -59.5t-136.5 -174t-106 -272.5h573v186q0 153 -47 236.5t-135 83.5z" />
    <glyph glyph-name="uniFEC4" unicode="&#x637;" horiz-adv-x="1319" arabic-form="medial" 
d="M1327 0h-1335q-37 0 -49 16t-12 58v61q0 38 15 51t52 13h174q36 127 71 212v1025h224v-689q155 163 342 163q189 0 282 -144t93 -389v-178h138q37 0 51.5 -13t14.5 -51v-60q0 -44 -11.5 -59.5t-49.5 -15.5zM780 705q-75 0 -148.5 -59.5t-136.5 -174t-106 -272.5h573v186
q0 153 -47 236.5t-135 83.5z" />
    <glyph glyph-name="uniFEC6" unicode="&#x638;" horiz-adv-x="1351" arabic-form="final" 
d="M1360 0h-1360v199h205q12 58 71 212v1025h224v-689q155 163 341 163q119 0 203.5 -62t128.5 -181.5t44 -288.5v-179h138q37 0 51.5 -13t14.5 -51v-60q0 -44 -11.5 -59.5t-49.5 -15.5zM811 705q-75 0 -148.5 -59.5t-136.5 -174t-106 -272.5h573v186q0 153 -47 236.5
t-135 83.5zM829 1105q-42 0 -74.5 31t-32.5 75q0 45 31.5 76t75.5 31t75 -31.5t31 -75.5q0 -43 -30.5 -74.5t-75.5 -31.5z" />
    <glyph glyph-name="uniFEC7" unicode="&#x638;" horiz-adv-x="1279" arabic-form="initial" 
d="M-69 74v61q0 38 15 51t52 13h174q28 114 71 212v1025h224v-689q154 163 340 163q181 0 278 -138t97 -394v-378h-1190q-37 0 -49 16t-12 58zM780 705q-75 0 -148.5 -59.5t-136.5 -174t-106 -272.5h573v186q0 153 -47 236.5t-135 83.5zM795 1105q-42 0 -74.5 31t-32.5 75
q0 45 31.5 76t75.5 31t75 -31.5t31 -75.5q0 -43 -30.5 -74.5t-75.5 -31.5z" />
    <glyph glyph-name="uniFEC8" unicode="&#x638;" horiz-adv-x="1319" arabic-form="medial" 
d="M1327 0h-1335q-37 0 -49 16t-12 58v61q0 38 15 51t52 13h174q36 127 71 212v1025h224v-689q155 163 342 163q189 0 282 -144t93 -389v-178h138q37 0 51.5 -13t14.5 -51v-60q0 -44 -11.5 -59.5t-49.5 -15.5zM780 705q-75 0 -148.5 -59.5t-136.5 -174t-106 -272.5h573v186
q0 153 -47 236.5t-135 83.5zM793 1105q-42 0 -74.5 31t-32.5 75q0 45 31.5 76t75.5 31t75 -31.5t31 -75.5q0 -43 -30.5 -74.5t-75.5 -31.5z" />
    <glyph glyph-name="uniFECA" unicode="&#x639;" horiz-adv-x="948" arabic-form="final" 
d="M465 -752q-153 0 -258 65t-156 170t-51 225q0 162 82.5 283.5t238.5 237.5q-31 33 -76 98.5t-90 143.5q-42 74 -69 113q26 145 74 193q60 47 173 80.5t209 33.5q71 0 139 -23t112.5 -72.5t44.5 -123.5q0 -102 -44.5 -213.5t-136.5 -225.5q100 -34 209 -34h85
q37 0 51.5 -13t14.5 -51v-60q0 -44 -11.5 -59.5t-49.5 -15.5h-132q-74 0 -170 27.5t-190 82.5q-106 -66 -175 -166.5t-69 -217.5q0 -121 66.5 -190t185.5 -69q34 0 84.5 6.5t102.5 20.5v-215q-56 -18 -98.5 -24.5t-95.5 -6.5zM481 706q-46 0 -103.5 -15t-106.5 -41
q41 -82 102.5 -181t110.5 -153q54 53 97 128t46 141q0 57 -37.5 89t-108.5 32z" />
    <glyph glyph-name="uniFECB" unicode="&#x639;" horiz-adv-x="849" arabic-form="initial" 
d="M-71 74v61q0 38 15 51t52 13h214q-32 43 -50.5 108.5t-18.5 126.5q0 122 43.5 224.5t130 164t209.5 61.5q40 0 95 -9.5t94 -27.5l-39 -205q-43 14 -83 21t-66 7q-56 0 -94.5 -30.5t-57.5 -81t-19 -111.5q0 -112 59.5 -180t168.5 -68h196v-199h-788q-37 0 -49 16t-12 58z
" />
    <glyph glyph-name="uniFECC" unicode="&#x639;" horiz-adv-x="967" arabic-form="medial" 
d="M975 0h-140q-82 0 -175 26.5t-187 79.5q-95 -50 -186.5 -78t-185.5 -28h-109q-37 0 -49 16t-12 58v61q0 38 15 51t52 13h127q51 0 104 8.5t88 23.5q-51 55 -122 181q-69 120 -105 172q14 67 33 116.5t39 76.5q91 56 188 85t190 29q73 0 142 -21t115.5 -70t46.5 -127
q0 -104 -52.5 -222.5t-129.5 -217.5q51 -18 110 -26t113 -8h85q37 0 51.5 -13t14.5 -51v-60q0 -44 -11.5 -59.5t-49.5 -15.5zM487 706q-51 0 -104 -15t-103 -41l16 -30q52 -99 100.5 -178.5t94.5 -125.5q31 29 64 76t54.5 99t21.5 94q0 62 -35.5 91.5t-108.5 29.5z" />
    <glyph glyph-name="uniFECE" unicode="&#x63a;" horiz-adv-x="948" arabic-form="final" 
d="M465 -752q-153 0 -258 65t-156 170t-51 225q0 162 82.5 283.5t238.5 237.5q-31 33 -76 98.5t-90 143.5q-42 74 -69 113q26 145 74 193q60 47 173 80.5t209 33.5q71 0 139 -23t112.5 -72.5t44.5 -123.5q0 -102 -44.5 -213.5t-136.5 -225.5q100 -34 209 -34h85
q37 0 51.5 -13t14.5 -51v-60q0 -44 -11.5 -59.5t-49.5 -15.5h-132q-74 0 -170 27.5t-190 82.5q-106 -66 -175 -166.5t-69 -217.5q0 -121 66.5 -190t185.5 -69q34 0 84.5 6.5t102.5 20.5v-215q-56 -18 -98.5 -24.5t-95.5 -6.5zM481 706q-46 0 -103.5 -15t-106.5 -41
q41 -82 102.5 -181t110.5 -153q54 53 97 128t46 141q0 57 -37.5 89t-108.5 32zM477 1105q-42 0 -74.5 31t-32.5 75q0 45 31.5 76t75.5 31t75 -31.5t31 -75.5q0 -43 -30.5 -74.5t-75.5 -31.5z" />
    <glyph glyph-name="uniFECF" unicode="&#x63a;" horiz-adv-x="849" arabic-form="initial" 
d="M-71 74v61q0 38 15 51t52 13h214q-32 43 -50.5 108.5t-18.5 126.5q0 122 43.5 224.5t130 164t209.5 61.5q40 0 95 -9.5t94 -27.5l-39 -205q-43 14 -83 21t-66 7q-56 0 -94.5 -30.5t-57.5 -81t-19 -111.5q0 -112 59.5 -180t168.5 -68h196v-199h-788q-37 0 -49 16t-12 58z
M478 1105q-42 0 -74.5 31t-32.5 75q0 45 31.5 76t75.5 31t75 -31.5t31 -75.5q0 -43 -30.5 -74.5t-75.5 -31.5z" />
    <glyph glyph-name="uniFED0" unicode="&#x63a;" horiz-adv-x="967" arabic-form="medial" 
d="M975 0h-140q-82 0 -175 26.5t-187 79.5q-95 -50 -186.5 -78t-185.5 -28h-109q-37 0 -49 16t-12 58v61q0 38 15 51t52 13h127q51 0 104 8.5t88 23.5q-51 55 -122 181q-69 120 -105 172q14 67 33 116.5t39 76.5q91 56 188 85t190 29q73 0 142 -21t115.5 -70t46.5 -127
q0 -104 -52.5 -222.5t-129.5 -217.5q51 -18 110 -26t113 -8h85q37 0 51.5 -13t14.5 -51v-60q0 -44 -11.5 -59.5t-49.5 -15.5zM487 706q-51 0 -104 -15t-103 -41l16 -30q52 -99 100.5 -178.5t94.5 -125.5q31 29 64 76t54.5 99t21.5 94q0 62 -35.5 91.5t-108.5 29.5zM476 1105
q-42 0 -74.5 31t-32.5 75q0 45 31.5 76t75.5 31t75 -31.5t31 -75.5q0 -43 -30.5 -74.5t-75.5 -31.5z" />
    <glyph glyph-name="uniFED2" unicode="&#x641;" horiz-adv-x="1804" arabic-form="final" 
d="M1813 0h-110q-90 0 -171.5 8t-173.5 25q-196 -19 -404 -26t-477 -7q-245 0 -361 93t-116 295q0 51 4.5 103t14.5 129l200 -20q-15 -87 -15 -162q0 -78 26 -129.5t96 -80.5t197 -29h480q-37 54 -58 120.5t-21 132.5q0 116 49.5 213t140 154t208.5 57q104 0 180 -52
t115 -139.5t39 -192.5q0 -63 -17.5 -141.5t-43.5 -151.5h213q37 0 51.5 -13t14.5 -51v-60q0 -44 -11.5 -59.5t-49.5 -15.5zM1431 458q0 106 -37.5 166.5t-102.5 60.5q-70 0 -111 -55t-41 -156q0 -65 24.5 -128.5t72.5 -105t116 -41.5h14q30 67 47.5 135.5t17.5 123.5z
M1309 1105q-42 0 -74.5 31t-32.5 75q0 45 31.5 76t75.5 31t75 -31.5t31 -75.5q0 -43 -30.5 -74.5t-75.5 -31.5z" />
    <glyph glyph-name="uniFED3" unicode="&#x641;" horiz-adv-x="1028" arabic-form="initial" 
d="M-72 74v61q0 38 15 51t52 13h271q-27 41 -43 105t-16 131q0 119 48 220t134.5 161t196.5 60q113 0 190.5 -56t116.5 -153t39 -222v-445h-943q-37 0 -49 16t-12 58zM576 673q-54 0 -89 -35t-51 -88.5t-16 -109.5q0 -58 21 -113.5t63 -91.5t102 -36h103v209
q0 132 -33.5 198.5t-99.5 66.5zM592 1105q-42 0 -74.5 31t-32.5 75q0 45 31.5 76t75.5 31t75 -31.5t31 -75.5q0 -43 -30.5 -74.5t-75.5 -31.5z" />
    <glyph glyph-name="uniFED4" unicode="&#x641;" horiz-adv-x="1019" arabic-form="medial" 
d="M1027 0h-138q-138 0 -319 33q-69 -12 -212 -22.5t-228 -10.5h-140q-37 0 -49 16t-12 58v61q0 38 15 51t52 13h221q-33 45 -55.5 118.5t-22.5 134.5q0 117 50 213.5t141.5 153.5t208.5 57q108 0 183.5 -55.5t112.5 -142t37 -179.5q0 -62 -17 -144q-18 -86 -44 -156h211
q37 0 51.5 -13t14.5 -51v-60q0 -44 -11.5 -59.5t-49.5 -15.5zM647 458q0 105 -38 166t-104 61q-69 0 -110.5 -56t-41.5 -156q0 -64 24.5 -127.5t72.5 -105t115 -41.5h15q30 64 48.5 132t18.5 127zM499 1105q-42 0 -74.5 31t-32.5 75q0 45 31.5 76t75.5 31t75 -31.5t31 -75.5
q0 -43 -30.5 -74.5t-75.5 -31.5z" />
    <glyph glyph-name="uniFED6" unicode="&#x642;" horiz-adv-x="1333" arabic-form="final" 
d="M1341 0h-174q-24 -169 -99 -310.5t-204.5 -227t-306.5 -85.5q-179 0 -304.5 72t-189 199.5t-63.5 292.5q0 103 26 210t72 196l193 -95q-30 -61 -45 -137t-15 -151q0 -109 37 -195t115 -136t196 -50q110 0 188 57.5t121.5 151.5t57.5 208h-86q-154 0 -248 61.5t-133.5 154
t-39.5 192.5q0 115 47 221.5t136.5 174t210.5 67.5q113 0 191 -60t116.5 -168t38.5 -253v-191h157q37 0 51.5 -13t14.5 -51v-60q0 -44 -11.5 -59.5t-49.5 -15.5zM805 673q-52 0 -87.5 -37.5t-52.5 -93t-17 -107.5q0 -109 52 -172.5t147 -63.5h111v136q0 166 -37 252t-116 86
zM669 1107q-42 0 -74.5 31t-32.5 75q0 45 31.5 76t75.5 31t75 -31.5t31 -75.5q0 -43 -30.5 -74.5t-75.5 -31.5zM943 1107q-43 0 -75 31.5t-32 74.5q0 45 31 76t76 31q44 0 75 -31.5t31 -75.5q0 -43 -30.5 -74.5t-75.5 -31.5z" />
    <glyph glyph-name="uniFED7" unicode="&#x642;" horiz-adv-x="1028" arabic-form="initial" 
d="M-72 74v61q0 38 15 51t52 13h271q-27 41 -43 105t-16 131q0 119 48 220t134.5 161t196.5 60q113 0 190.5 -56t116.5 -153t39 -222v-445h-943q-37 0 -49 16t-12 58zM576 673q-54 0 -89 -35t-51 -88.5t-16 -109.5q0 -58 21 -113.5t63 -91.5t102 -36h103v209
q0 132 -33.5 198.5t-99.5 66.5zM421 1107q-42 0 -74.5 31t-32.5 75q0 45 31.5 76t75.5 31t75 -31.5t31 -75.5q0 -43 -30.5 -74.5t-75.5 -31.5zM695 1107q-43 0 -75 31.5t-32 74.5q0 45 31 76t76 31q44 0 75 -31.5t31 -75.5q0 -43 -30.5 -74.5t-75.5 -31.5z" />
    <glyph glyph-name="uniFED8" unicode="&#x642;" horiz-adv-x="1019" arabic-form="medial" 
d="M1027 0h-138q-138 0 -319 33q-69 -12 -212 -22.5t-228 -10.5h-140q-37 0 -49 16t-12 58v61q0 38 15 51t52 13h221q-33 45 -55.5 118.5t-22.5 134.5q0 117 50 213.5t141.5 153.5t208.5 57q108 0 183.5 -55.5t112.5 -142t37 -179.5q0 -62 -17 -144q-18 -86 -44 -156h211
q37 0 51.5 -13t14.5 -51v-60q0 -44 -11.5 -59.5t-49.5 -15.5zM647 458q0 105 -38 166t-104 61q-69 0 -110.5 -56t-41.5 -156q0 -64 24.5 -127.5t72.5 -105t115 -41.5h15q30 64 48.5 132t18.5 127zM355 1107q-42 0 -74.5 31t-32.5 75q0 45 31.5 76t75.5 31t75 -31.5t31 -75.5
q0 -43 -30.5 -74.5t-75.5 -31.5zM629 1107q-43 0 -75 31.5t-32 74.5q0 45 31 76t76 31q44 0 75 -31.5t31 -75.5q0 -43 -30.5 -74.5t-75.5 -31.5z" />
    <glyph glyph-name="uniFEDA" unicode="&#x643;" horiz-adv-x="1564" arabic-form="final" 
d="M1309 82q-61 -82 -176 -82h-661q-151 0 -255 36.5t-160.5 123t-56.5 232.5q0 50 5 102t14 126l200 -20q-10 -77 -12.5 -108.5t-2.5 -56.5q0 -86 32 -137.5t101.5 -75t184.5 -23.5h542q50 0 71 32t21 102v1103h225v-1138q0 -23 -4 -60q39 -18 87 -28.5t91 -10.5h12
q37 0 51.5 -13t14.5 -51v-60q0 -44 -11.5 -59.5t-49.5 -15.5h-14q-149 0 -249 82zM545 666h92q-28 26 -41.5 58t-13.5 62q0 82 50 129t131 47q50 0 97 -10l-8 -115q-48 14 -80 14t-51 -21.5t-19 -57.5q0 -46 33 -76t84 -30h50v-113h-324v113z" />
    <glyph glyph-name="uniFEDB" unicode="&#x643;" horiz-adv-x="696" arabic-form="initial" 
d="M412 327q0 77 -48.5 148t-112 125.5t-161.5 126.5l342 706l185 -91l-253 -532q134 -125 195.5 -237.5t61.5 -233.5q0 -160 -95 -249.5t-269 -89.5h-267q-37 0 -49 16t-12 58v61q0 38 15 51t52 13h251q79 0 122 35.5t43 92.5z" />
    <glyph glyph-name="uniFEDC" unicode="&#x643;" horiz-adv-x="825" arabic-form="medial" 
d="M834 0h-15q-165 0 -272 107q-45 -53 -115 -80t-158 -27h-284q-37 0 -49 16t-12 58v61q0 38 15 51t52 13h250q166 0 166 128q0 78 -49 150.5t-112 126t-159 123.5l343 707l182 -92l-253 -532q134 -125 195.5 -235t61.5 -224q0 -23 -2.5 -52t-7.5 -48q40 -26 94 -39
t111 -13h13q37 0 51.5 -13t14.5 -51v-60q0 -44 -11.5 -59.5t-49.5 -15.5z" />
    <glyph glyph-name="uniFEDE" unicode="&#x644;" horiz-adv-x="1260" arabic-form="final" 
d="M1037 58q-23 -145 -87 -257t-171 -176.5t-254 -64.5q-164 0 -282.5 72.5t-180.5 201t-62 294.5q0 192 93 392l199 -84q-29 -63 -45 -138t-16 -143q0 -98 31.5 -186.5t100 -145.5t171.5 -57q159 0 226 124t67 308v1238h222v-1184q45 -27 97.5 -40t101.5 -13h15
q37 0 51.5 -13t14.5 -51v-60q0 -44 -11.5 -59.5t-49.5 -15.5h-14q-133 0 -217 58z" />
    <glyph glyph-name="uniFEDF" unicode="&#x644;" horiz-adv-x="522" arabic-form="initial" 
d="M-71 74v61q0 38 15 51t52 13h193v1237h224v-1436h-423q-37 0 -49 16t-12 58z" />
    <glyph glyph-name="uniFEE0" unicode="&#x644;" horiz-adv-x="596" arabic-form="medial" 
d="M344 82q-67 -82 -179 -82h-175q-37 0 -49 16t-12 58v61q0 38 15 51t52 13h98q30 0 50 9t33 40t13 94v1094h225v-1138q0 -34 -5 -60q38 -18 86 -28.5t94 -10.5h9q37 0 51.5 -13t14.5 -51v-60q0 -44 -11.5 -59.5t-49.5 -15.5h-11q-153 0 -249 82z" />
    <glyph glyph-name="uniFEE2" unicode="&#x645;" horiz-adv-x="1240" arabic-form="final" 
d="M1249 0h-14q-168 0 -273 107q-46 -57 -113 -87.5t-152 -30.5q-77 0 -158 35.5t-145 94.5q-174 -40 -174 -274q0 -124 27.5 -267.5t74.5 -281.5l-216 -64q-40 142 -73 315.5t-33 289.5q0 171 69.5 288t217.5 188q20 117 71 240.5t138.5 211.5t202.5 88q108 0 189.5 -65
t124.5 -168t43 -212q0 -86 -20 -162q36 -23 87.5 -35t109.5 -12h11q37 0 51.5 -13t14.5 -51v-60q0 -44 -11.5 -59.5t-49.5 -15.5zM674 199q88 0 131 48.5t43 153.5q0 52 -15 110t-49.5 100t-89.5 42q-62 0 -110 -65.5t-76.5 -151t-35.5 -156.5q32 -29 94.5 -55t107.5 -26z
" />
    <glyph glyph-name="uniFEE3" unicode="&#x645;" horiz-adv-x="1002" arabic-form="initial" 
d="M-71 74v61q0 38 15 51t52 13h46q69 0 99 100q27 98 36 135q28 102 78 196t128 158.5t180 64.5q112 0 193.5 -67.5t124 -173.5t42.5 -219q0 -102 -39.5 -194.5t-117.5 -151t-187 -58.5q-89 0 -163.5 32t-136.5 102q-39 -63 -90.5 -93t-142.5 -30h-56q-37 0 -49 16t-12 58z
M714 401q0 105 -45 178q-45 74 -120 74q-69 0 -126.5 -94.5t-86.5 -278.5q33 -32 94.5 -59t108.5 -28q84 0 129.5 53t45.5 155z" />
    <glyph glyph-name="uniFEE4" unicode="&#x645;" horiz-adv-x="1123" arabic-form="medial" 
d="M838 115q-47 -60 -112 -93t-147 -33q-89 0 -160.5 31.5t-139.5 102.5q-32 -58 -87 -90.5t-129 -32.5h-71q-37 0 -49 16t-12 58v61q0 38 15 51t52 13h37q47 0 77 42t51 139q22 102 67.5 208t132 185.5t203.5 79.5q113 0 194.5 -68t123 -174.5t41.5 -219.5q0 -22 -5 -61
t-15 -76q83 -55 215 -55h6q37 0 51.5 -13t14.5 -51v-60q0 -44 -11.5 -59.5t-49.5 -15.5h-14q-89 0 -156 28t-123 87zM716 400q0 53 -17.5 111.5t-54.5 100t-93 41.5q-70 0 -126.5 -96t-85.5 -277q33 -33 94 -59.5t108 -27.5q82 0 128.5 53t46.5 154z" />
    <glyph glyph-name="uniFEE6" unicode="&#x646;" horiz-adv-x="1251" arabic-form="final" 
d="M1259 0h-19q-123 0 -205 52q-39 -238 -172 -365t-341 -127q-172 0 -289.5 76.5t-175 205.5t-57.5 286q0 95 25 201t72 200l194 -93q-29 -64 -44.5 -138t-15.5 -150q0 -99 32.5 -184t100.5 -137.5t169 -52.5q146 0 219.5 106t73.5 323q0 81 -19 177.5t-49 180.5l219 78
q25 -91 43 -195.5t24 -198.5q38 -21 90.5 -33.5t105.5 -12.5h14q36 0 51 -13.5t15 -50.5v-60q0 -44 -11.5 -59.5t-49.5 -15.5zM519 891q-42 0 -74.5 31t-32.5 75q0 45 31.5 76t75.5 31t75 -31.5t31 -75.5q0 -43 -30.5 -74.5t-75.5 -31.5z" />
    <glyph glyph-name="uniFEE7" unicode="&#x646;" horiz-adv-x="588" arabic-form="initial" 
d="M-71 74v61q0 38 15 51t52 13h209v637h224v-836h-439q-37 0 -49 16t-12 58zM312 1105q-42 0 -74.5 31t-32.5 75q0 45 31.5 76t75.5 31t75 -31.5t31 -75.5q0 -43 -30.5 -74.5t-75.5 -31.5z" />
    <glyph glyph-name="uniFEE8" unicode="&#x646;" horiz-adv-x="596" arabic-form="medial" 
d="M344 82q-67 -82 -178 -82h-176q-37 0 -49 16t-12 58v61q0 38 15 51t52 13h96q34 0 55 11t32 42t11 89v494h225v-537q0 -34 -5 -60q39 -18 86 -28.5t95 -10.5h8q37 0 51.5 -13t14.5 -51v-60q0 -44 -11.5 -59.5t-49.5 -15.5h-11q-153 0 -249 82zM294 1105q-42 0 -74.5 31
t-32.5 75q0 45 31.5 76t75.5 31t75 -31.5t31 -75.5q0 -43 -30.5 -74.5t-75.5 -31.5z" />
    <glyph glyph-name="uniFEE9" unicode="&#x647;" horiz-adv-x="933" arabic-form="isolated" 
d="M-10 374q0 157 65.5 273.5t165.5 177t201 60.5q113 0 209 -61.5t154 -177.5t58 -271q0 -82 -41.5 -169t-132 -146.5t-227.5 -59.5h-50q-122 0 -213 49.5t-140 135t-49 189.5zM594 407q0 88 -27 151.5t-68 95.5t-81 32q-45 0 -88.5 -30t-72 -92.5t-28.5 -156.5
q0 -80 33 -122t71.5 -54t67.5 -12h39q71 0 112.5 52t41.5 136z" />
    <glyph glyph-name="uniFEEA" unicode="&#x647;" horiz-adv-x="873" arabic-form="final" 
d="M881 0h-107q-189 0 -239 129q-53 -32 -102 -46t-101 -14q-93 0 -168.5 37t-119.5 109t-44 173q0 171 131 300t386 203v116h222v-698q0 -48 9 -72t24 -31t39 -7h65q37 0 51.5 -13t14.5 -51v-60q0 -44 -11.5 -59.5t-49.5 -15.5zM214 424q0 -67 41 -112t108 -45
q37 0 79.5 15.5t74.5 39.5v377q-73 -14 -142 -49t-115 -92.5t-46 -133.5z" />
    <glyph glyph-name="uniFEEB" unicode="&#x647;" horiz-adv-x="1260" arabic-form="initial" 
d="M165 -198h-123q-19 44 -30.5 98t-11.5 110q0 73 23.5 114t69 58t118.5 17h68q-21 43 -34.5 109t-13.5 129q0 93 35 190.5t102 187.5l-44 16q27 73 94 175q282 -67 441 -155q163 -89 233.5 -220t70.5 -326q0 -42 -10 -305h-880q-42 0 -64 -17.5t-32 -59.5t-12 -121z
M649 474q0 123 -26 195t-72 72q-40 0 -65 -45t-35.5 -103.5t-10.5 -100.5q0 -78 23.5 -156t67.5 -137h71q19 51 33 133.5t14 141.5zM951 327q0 119 -39 201t-117 130q13 -33 20 -84.5t7 -106.5q0 -119 -34 -268h158q5 48 5 128z" />
    <glyph glyph-name="uniFEEC" unicode="&#x647;" horiz-adv-x="1015" arabic-form="medial" 
d="M1023 0h-263q76 -122 76 -241q0 -100 -37.5 -184t-103 -133t-146.5 -49q-72 0 -138 44t-116 112.5t-80 141.5q-57 140 -66 309h-157q-37 0 -49 16t-12 58v61q0 38 15 51t52 13h169q26 192 95 340q32 68 80 141t112 126.5t131 53.5q82 0 142 -64.5t91.5 -157t31.5 -174.5
q0 -65 -23 -135t-63 -130h254q37 0 51.5 -13t14.5 -51v-60q0 -44 -11.5 -59.5t-49.5 -15.5zM645 427q0 37 -11 84.5t-31.5 81.5t-46.5 34q-54 0 -115 -138q-61 -136 -72 -290h99q52 0 92.5 35t62.5 88t22 105zM431 -286q63 -118 126 -118q25 0 40.5 34t23 77.5t7.5 70.5
q0 51 -15.5 102t-49.5 85.5t-86 34.5h-121q12 -167 75 -286z" />
    <glyph glyph-name="uniFEEE" unicode="&#x648;" horiz-adv-x="984" arabic-form="final" 
d="M993 0h-168q-71 -210 -219.5 -312.5t-387.5 -129.5l-35 218q136 11 249 63.5t164 160.5h-100q-118 0 -208.5 51t-140 143.5t-49.5 213.5q0 116 47 222.5t136.5 173.5t211.5 67q125 0 202 -68.5t110 -176.5t33 -234v-193h150q37 0 51.5 -13t14.5 -51v-60
q0 -44 -11.5 -59.5t-49.5 -15.5zM468 673q-54 0 -90.5 -36.5t-54 -91.5t-17.5 -110q0 -109 52.5 -172.5t147.5 -63.5h111v137q0 166 -31.5 251.5t-117.5 85.5z" />
    <glyph glyph-name="uniFEF0" unicode="&#x649;" horiz-adv-x="1732" arabic-form="final" 
d="M1740 0h-126q-135 0 -204.5 74.5t-69.5 218.5v344q-75 0 -118 -25.5t-60.5 -74t-17.5 -125.5v-319q0 -159 -70.5 -281.5t-198.5 -190t-295 -67.5q-192 0 -322 75.5t-194 205.5t-64 293q0 107 30 213t82 188l188 -101q-36 -59 -56.5 -138t-20.5 -154q0 -108 42.5 -191.5
t125 -130t197.5 -46.5q168 0 252 82.5t84 245.5v305q0 436 376 436h265v-485q0 -69 9.5 -101t30.5 -42t62 -10h68q37 0 51.5 -13t14.5 -51v-60q0 -44 -11.5 -59.5t-49.5 -15.5z" />
    <glyph glyph-name="uniFEF2" unicode="&#x64a;" horiz-adv-x="1732" arabic-form="final" 
d="M1740 0h-126q-135 0 -204.5 74.5t-69.5 218.5v344q-75 0 -118 -25.5t-60.5 -74t-17.5 -125.5v-319q0 -159 -70.5 -281.5t-198.5 -190t-295 -67.5q-192 0 -322 75.5t-194 205.5t-64 293q0 107 30 213t82 188l188 -101q-36 -59 -56.5 -138t-20.5 -154q0 -108 42.5 -191.5
t125 -130t197.5 -46.5q168 0 252 82.5t84 245.5v305q0 436 376 436h265v-485q0 -69 9.5 -101t30.5 -42t62 -10h68q37 0 51.5 -13t14.5 -51v-60q0 -44 -11.5 -59.5t-49.5 -15.5zM473 -798q-43 0 -75 31t-32 75q0 45 31 76t76 31q44 0 75 -31.5t31 -75.5q0 -43 -30.5 -74.5
t-75.5 -31.5zM708 -798q-43 0 -75 31t-32 75q0 45 31 76t76 31q44 0 75 -31.5t31 -75.5q0 -43 -30.5 -74.5t-75.5 -31.5z" />
    <glyph glyph-name="uniFEF3" unicode="&#x64a;" horiz-adv-x="538" arabic-form="initial" 
d="M-71 74v61q0 38 15 51t52 13h209v637h224v-836h-439q-37 0 -49 16t-12 58zM161 -393q-43 0 -75 31t-32 75q0 45 31 76t76 31q44 0 75 -31.5t31 -75.5q0 -43 -30.5 -74.5t-75.5 -31.5zM396 -393q-43 0 -75 31t-32 75q0 45 31 76t76 31q44 0 75 -31.5t31 -75.5
q0 -43 -30.5 -74.5t-75.5 -31.5z" />
    <glyph glyph-name="uniFEF4" unicode="&#x64a;" horiz-adv-x="596" arabic-form="medial" 
d="M344 82q-67 -82 -178 -82h-176q-37 0 -49 16t-12 58v61q0 38 15 51t52 13h96q34 0 55 11t32 42t11 89v494h225v-537q0 -34 -5 -60q39 -18 86 -28.5t95 -10.5h8q37 0 51.5 -13t14.5 -51v-60q0 -44 -11.5 -59.5t-49.5 -15.5h-11q-153 0 -249 82zM163 -393q-43 0 -75 31
t-32 75q0 45 31 76t76 31q44 0 75 -31.5t31 -75.5q0 -43 -30.5 -74.5t-75.5 -31.5zM398 -393q-43 0 -75 31t-32 75q0 45 31 76t76 31q44 0 75 -31.5t31 -75.5q0 -43 -30.5 -74.5t-75.5 -31.5z" />
    <glyph glyph-name=".notdef" horiz-adv-x="1049" 
d="M1049 1470v-1470h-1049v1470h1049zM102 102h844v1264h-844v-1264zM588 811q35 35 52.5 56t28.5 46.5t11 57.5q0 48 -21.5 88t-57.5 63t-77 23q-69 0 -112 -49.5t-56 -145.5l-102 17q12 136 83.5 208t192.5 72q74 0 131.5 -33.5t90 -94t32.5 -140.5q0 -71 -28.5 -126.5
t-102.5 -121.5q-43 -38 -63.5 -65.5t-27.5 -57.5t-7 -80v-49h-94v51q0 66 9.5 107t35.5 79t82 95zM569 377v-137h-114v137h114z" />
    <glyph glyph-name=".null" 
 />
    <glyph glyph-name="nonmarkingreturn" unicode="&#xd;" horiz-adv-x="532" 
 />
    <glyph glyph-name="NULL" 
 />
    <glyph glyph-name="NULL" 
 />
    <glyph glyph-name="space" unicode=" " horiz-adv-x="532" 
 />
    <glyph glyph-name="space" unicode="&#xa0;" horiz-adv-x="532" 
 />
    <glyph glyph-name="exclam" unicode="!" horiz-adv-x="758" 
d="M510 1430l-33 -1008h-196l-33 1008h262zM502 258v-258h-246v258h246z" />
    <glyph glyph-name="quotedbl" unicode="&#x22;" horiz-adv-x="1063" 
d="M467 1536v-508h-205v508h205zM801 1536v-508h-205v508h205z" />
    <glyph glyph-name="numbersign" unicode="#" horiz-adv-x="1065" 
d="M371 422l-60 -422h-159l59 422h-191v160h213l37 266h-192v160h215l59 422h160l-59 -422h241l60 422h159l-59 -422h190v-160h-213l-36 -266h190v-160h-213l-59 -422h-160l59 422h-241zM393 582h242l37 266h-242z" />
    <glyph glyph-name="dollar" unicode="$" horiz-adv-x="1065" 
d="M135 43l17 233q152 -102 325 -110v483q-143 51 -225.5 111t-116 128t-33.5 152q0 112 45.5 199t132.5 141t207 66v166h95v-162q103 -1 186 -21t121 -40l-15 -215q-65 42 -134.5 65.5t-157.5 24.5v-424l123 -47q130 -51 194 -139t64 -214q0 -206 -101 -325t-291 -131v-179
h-94v175q-124 5 -204.5 22t-137.5 41zM332 1085q0 -138 155 -206v381q-73 -11 -114 -57t-41 -118zM741 383q0 70 -14.5 110t-50 65.5t-105.5 51.5v-440q78 10 124 68t46 145z" />
    <glyph glyph-name="percent" unicode="%" horiz-adv-x="1706" 
d="M1260 1499l-648 -1569h-159l647 1569h160zM106 1044q0 196 77 301t220 105q145 0 221 -106t76 -300q0 -196 -77.5 -300.5t-219.5 -104.5q-143 0 -220 106t-77 299zM520 1044q0 132 -29 197.5t-90 65.5q-114 0 -114 -263q0 -134 28.5 -198t87.5 -64q60 0 88.5 64t28.5 198
zM1006 385q0 195 77.5 300.5t219.5 105.5q141 0 218.5 -105.5t77.5 -300.5q0 -194 -77.5 -299.5t-218.5 -105.5q-142 0 -219.5 104.5t-77.5 300.5zM1419 385q0 131 -28.5 196.5t-87.5 65.5q-57 0 -87 -62.5t-30 -199.5q0 -131 28.5 -196.5t88.5 -65.5q59 0 87.5 65.5
t28.5 196.5z" />
    <glyph glyph-name="ampersand" unicode="&#x26;" horiz-adv-x="1327" 
d="M563 -20q-143 0 -249 52t-163 145.5t-57 217.5q0 137 69.5 242.5t196.5 169.5q-60 71 -92.5 121t-46 95t-12.5 99q1 89 48 164t135.5 119.5t207.5 44.5q111 0 193 -40t126 -111t44 -160q0 -104 -64 -195t-201 -182l226 -293q77 116 77 326h230q0 -143 -45.5 -279.5
t-124.5 -228.5l225 -287h-278l-103 131q-54 -59 -104 -91.5t-106 -46t-132 -13.5zM741 1147q0 68 -42 105.5t-111 37.5q-44 0 -80.5 -20.5t-57 -56t-20.5 -78.5q0 -55 29 -109t102 -131q93 61 136.5 122.5t43.5 129.5zM348 406q0 -67 32.5 -120.5t85 -83.5t109.5 -30
q64 0 118 29.5t93 79.5l-288 376q-76 -49 -113 -110t-37 -141z" />
    <glyph glyph-name="quotesingle" unicode="'" horiz-adv-x="532" 
d="M369 1536v-508h-205v508h205z" />
    <glyph glyph-name="parenleft" unicode="(" horiz-adv-x="606" 
d="M90 573q0 170 35 319.5t93.5 283.5t154.5 315h196q-127 -232 -192.5 -467.5t-65.5 -450.5q0 -212 66.5 -448.5t191.5 -468.5h-196q-120 219 -182 383t-81.5 284.5t-19.5 249.5z" />
    <glyph glyph-name="parenright" unicode=")" horiz-adv-x="606" 
d="M295 573q0 214 -66 450.5t-192 467.5h196q92 -172 151 -306.5t95.5 -288t36.5 -323.5q0 -168 -34.5 -316t-93 -283t-155.5 -318h-196q126 235 192 466t66 451z" />
    <glyph glyph-name="asterisk" unicode="*" horiz-adv-x="1063" 
d="M412 717l-160 108l176 211l-258 62l63 182l238 -119l-35 269h197l-33 -269l234 119l61 -182l-256 -62l178 -211l-160 -108l-122 241z" />
    <glyph glyph-name="plus" unicode="+" horiz-adv-x="1229" 
d="M96 428v180h428v428h181v-428h428v-180h-428v-428h-181v428h-428z" />
    <glyph glyph-name="comma" unicode="," horiz-adv-x="532" 
d="M389 262l-156 -508h-196l106 508h246z" />
    <glyph glyph-name="hyphen" unicode="-" horiz-adv-x="645" 
d="M559 686v-209h-473v209h473z" />
    <glyph glyph-name="hyphen" unicode="&#x2010;" horiz-adv-x="645" 
d="M559 686v-209h-473v209h473z" />
    <glyph glyph-name="hyphen" unicode="&#xad;" horiz-adv-x="645" 
d="M559 686v-209h-473v209h473z" />
    <glyph glyph-name="period" unicode="." horiz-adv-x="532" 
d="M389 266v-266h-246v266h246z" />
    <glyph glyph-name="slash" unicode="/" horiz-adv-x="569" 
d="M553 1450l-365 -1470h-172l357 1470h180z" />
    <glyph glyph-name="zero" unicode="0" horiz-adv-x="1065" 
d="M82 715q0 363 114 549t336 186q223 0 337 -185.5t114 -549.5q0 -735 -451 -735q-222 0 -336 185.5t-114 549.5zM729 715q0 197 -20.5 315.5t-64 172.5t-114.5 54q-69 0 -111.5 -57t-62.5 -176t-20 -309q0 -193 20.5 -312t63.5 -175t112 -56q68 0 111.5 54t64.5 173
t21 316z" />
    <glyph glyph-name="one" unicode="1" horiz-adv-x="1065" 
d="M289 950l-121 176l348 304h217v-1430h-254v1128z" />
    <glyph glyph-name="two" unicode="2" horiz-adv-x="1065" 
d="M375 494q287 327 287 534q0 64 -24.5 112.5t-69 74.5t-101.5 26q-81 0 -149.5 -26t-137.5 -82l-22 235q141 82 354 82q201 0 306.5 -100t105.5 -281q0 -163 -120.5 -372t-385.5 -488h520v-209h-811v211z" />
    <glyph glyph-name="three" unicode="3" horiz-adv-x="1065" 
d="M406 188q78 0 137 30t92 84t33 124q0 103 -75 159t-204 56q-54 0 -102 -6v199h37q177 0 257.5 55t80.5 162q0 59 -30 102t-82.5 65.5t-119.5 22.5q-60 0 -130.5 -19t-141.5 -51l-15 220q99 32 177.5 45.5t164.5 13.5q132 0 229 -43.5t149 -124.5t52 -192
q0 -140 -73.5 -227t-202.5 -105v-4q108 -28 173.5 -73t95.5 -111.5t30 -161.5q0 -130 -62.5 -226.5t-175.5 -149t-260 -52.5q-93 0 -174.5 16.5t-163.5 44.5l15 219q77 -38 147 -55t142 -17z" />
    <glyph glyph-name="four" unicode="4" horiz-adv-x="1065" 
d="M61 297v238l496 895h287v-941h160v-192h-160v-297h-238v297h-545zM250 489h356v678h-4z" />
    <glyph glyph-name="five" unicode="5" horiz-adv-x="1065" 
d="M418 188q81 0 142 34.5t94.5 97.5t33.5 147q0 123 -76.5 194.5t-214.5 71.5q-57 0 -110 -10t-125 -35v742h723v-201h-494v-328q74 19 160 19q116 0 207 -55t141.5 -155.5t50.5 -230.5q0 -153 -58.5 -265.5t-168 -173t-258.5 -60.5q-156 0 -330 59l17 219q72 -38 132 -54
t134 -16z" />
    <glyph glyph-name="six" unicode="6" horiz-adv-x="1065" 
d="M594 911q110 0 196.5 -56.5t135.5 -162t49 -246.5q0 -143 -50 -248t-144.5 -161.5t-225.5 -56.5q-233 0 -349 165t-116 502q0 400 139 601.5t416 201.5q71 0 134 -12t130 -37l-14 -213q-84 38 -131 49.5t-105 11.5q-152 0 -236 -123t-95 -354l4 -4q45 73 108.5 108
t153.5 35zM721 442q0 129 -47 199t-137 70q-86 0 -135.5 -70t-49.5 -199q0 -130 46.5 -200t138.5 -70q95 0 139.5 69t44.5 201z" />
    <glyph glyph-name="seven" unicode="7" horiz-adv-x="1065" 
d="M127 1221v209h811v-230l-428 -1200h-283l465 1221h-565z" />
    <glyph glyph-name="eight" unicode="8" horiz-adv-x="1065" 
d="M983 383q0 -125 -55.5 -215.5t-158 -139t-241.5 -48.5q-133 0 -234 51t-156.5 141.5t-55.5 204.5q0 113 61.5 211t208.5 149q-118 61 -173.5 141t-55.5 193q0 115 51 200.5t144.5 132t218.5 46.5q115 0 207.5 -43.5t145 -122.5t52.5 -182q0 -110 -59 -198t-174 -148
q150 -72 212 -164.5t62 -208.5zM705 1077q0 187 -168 187q-52 0 -92 -25t-62.5 -69.5t-22.5 -102.5q0 -68 44 -123t147 -115q88 71 121 126t33 122zM336 379q0 -97 53 -155t143 -58q92 0 144.5 59t52.5 162q0 53 -13 90.5t-49.5 73t-107.5 78.5l-41 24q-73 -48 -112.5 -90
t-54.5 -85t-15 -99z" />
    <glyph glyph-name="nine" unicode="9" horiz-adv-x="1065" 
d="M406 180q152 0 235.5 120t95.5 357l-4 5q-44 -74 -108.5 -109t-153.5 -35q-109 0 -195.5 56t-136 161.5t-49.5 247.5q0 144 50 249t144.5 161.5t225.5 56.5q233 0 349 -164.5t116 -503.5q0 -399 -139.5 -600.5t-415.5 -201.5q-73 0 -136 11.5t-128 37.5l14 213
q75 -35 125.5 -48.5t110.5 -13.5zM713 987q0 129 -46 199.5t-141 70.5q-89 0 -135.5 -68.5t-46.5 -201.5q0 -131 47 -199.5t137 -68.5q87 0 136 71.5t49 196.5z" />
    <glyph glyph-name="colon" unicode=":" horiz-adv-x="532" 
d="M389 1055v-267h-246v267h246zM389 266v-266h-246v266h246z" />
    <glyph glyph-name="semicolon" unicode=";" horiz-adv-x="532" 
d="M389 1055v-267h-246v267h246zM389 262l-156 -508h-196l106 508h246z" />
    <glyph glyph-name="less" unicode="&#x3c;" horiz-adv-x="1229" 
d="M1133 1055v-181l-807 -356l807 -354v-180l-1037 454v160z" />
    <glyph glyph-name="equal" unicode="=" horiz-adv-x="1229" 
d="M1133 823v-180h-1037v180h1037zM1133 393v-180h-1037v180h1037z" />
    <glyph glyph-name="greater" unicode="&#x3e;" horiz-adv-x="1229" 
d="M903 518l-807 356v181l1037 -457v-160l-1037 -454v180z" />
    <glyph glyph-name="question" unicode="?" horiz-adv-x="948" 
d="M463 750q60 82 89 136.5t36.5 85.5t7.5 62q0 62 -27 109t-74.5 72.5t-107.5 25.5q-57 0 -121 -19t-114 -51l-13 224q65 25 148 40t159 15q126 0 219 -42.5t143 -120.5t50 -181q0 -82 -36 -165t-117 -204q-72 -102 -101 -169t-29 -132v-18h-221v55q0 49 8 86.5t31.5 82
t69.5 108.5zM588 258v-258h-246v258h246z" />
    <glyph glyph-name="at" unicode="@" horiz-adv-x="1741" 
d="M1610 762q0 -255 -119 -424.5t-295 -169.5q-86 0 -137 42.5t-51 132.5q0 17 2 30h-4q-44 -106 -108.5 -155.5t-145.5 -49.5q-113 0 -181.5 90t-68.5 245q0 229 114.5 398.5t266.5 169.5q83 0 127.5 -41t64.5 -119h4l27 123h186q-40 -171 -86.5 -366t-46.5 -253
q0 -37 14.5 -60t51.5 -23q90 0 152.5 127.5t62.5 306.5q0 242 -136 385t-360 143q-265 0 -445 -208t-180 -527q0 -309 162 -480t451 -171q108 0 210.5 23.5t198.5 72.5l35 -151q-101 -50 -212.5 -76.5t-242.5 -26.5q-359 0 -572.5 216.5t-213.5 588.5q0 391 233 641t570 250
q306 0 489 -184.5t183 -499.5zM813 336q79 0 145 143t66 292q0 68 -26 105t-73 37q-79 0 -147.5 -128.5t-68.5 -274.5q0 -82 27 -128t77 -46z" />
    <glyph glyph-name="A" unicode="A" horiz-adv-x="1251" 
d="M377 344l-103 -344h-262l480 1430h286l461 -1430h-270l-101 344h-491zM432 545h381l-180 667h-4z" />
    <glyph glyph-name="B" unicode="B" horiz-adv-x="1139" 
d="M580 1430q211 0 315 -86t104 -267q0 -122 -54.5 -203t-182.5 -126v-5q133 -31 201.5 -117.5t68.5 -224.5q0 -124 -56 -214.5t-155 -138.5t-225 -48h-444v1430h428zM745 1044q0 58 -26.5 102t-73 67.5t-104.5 23.5h-135v-406h141q54 0 99.5 26.5t72 75t26.5 111.5z
M770 420q0 106 -59 162.5t-160 56.5h-145v-438h151q98 0 155.5 58.5t57.5 160.5z" />
    <glyph glyph-name="C" unicode="C" horiz-adv-x="1139" 
d="M754 -20q-204 0 -353 90.5t-228 256.5t-79 388q0 221 78.5 387t225 257t345.5 91q164 0 318 -59l-14 -236q-80 43 -141 60.5t-130 17.5q-124 0 -214.5 -60t-139.5 -176.5t-49 -281.5q0 -163 49 -279.5t139.5 -177.5t214.5 -61q169 0 271 73l14 -239q-41 -22 -132.5 -36.5
t-174.5 -14.5z" />
    <glyph glyph-name="D" unicode="D" horiz-adv-x="1290" 
d="M518 1430q326 0 502 -179.5t176 -535.5q0 -228 -83.5 -388.5t-236.5 -243.5t-358 -83h-379v1430h379zM918 715q0 242 -105.5 378t-331.5 136h-80v-1028h82q221 0 328 134.5t107 379.5z" />
    <glyph glyph-name="E" unicode="E" horiz-adv-x="1024" 
d="M903 1430v-209h-489v-381h463v-209h-463v-422h510v-209h-772v1430h751z" />
    <glyph glyph-name="F" unicode="F" horiz-adv-x="948" 
d="M874 1430v-209h-460v-390h440v-208h-440v-623h-262v1430h722z" />
    <glyph glyph-name="G" unicode="G" horiz-adv-x="1327" 
d="M721 801h463v-748q-63 -32 -160 -52.5t-225 -20.5q-220 0 -379 91.5t-242.5 257.5t-83.5 386t84 386t243 257.5t376 91.5q97 0 188.5 -16t159.5 -45l-15 -236q-65 40 -151 64t-176 24q-131 0 -228.5 -65t-149.5 -184t-52 -277q0 -164 48.5 -282.5t141.5 -181.5t223 -63
q85 0 152 27v385h-217v201z" />
    <glyph glyph-name="H" unicode="H" horiz-adv-x="1251" 
d="M414 631v-631h-262v1430h262v-582h424v582h262v-1430h-262v631h-424z" />
    <glyph glyph-name="I" unicode="I" horiz-adv-x="569" 
d="M416 1430v-1430h-262v1430h262z" />
    <glyph glyph-name="J" unicode="J" horiz-adv-x="721" 
d="M162 213q81 0 121.5 51t40.5 150v1016h262v-1022q0 -130 -43 -226.5t-123.5 -149t-190.5 -52.5q-46 0 -101.5 10t-86.5 24v226q38 -15 62.5 -21t58.5 -6z" />
    <glyph glyph-name="K" unicode="K" horiz-adv-x="1176" 
d="M414 672v-672h-262v1430h262v-607h6l407 607h301l-485 -674l524 -756h-317l-430 672h-6z" />
    <glyph glyph-name="L" unicode="L" horiz-adv-x="909" 
d="M401 1430v-1221h471v-209h-733v1430h262z" />
    <glyph glyph-name="M" unicode="M" horiz-adv-x="1669" 
d="M1278 1192l-358 -1192h-187l-342 1192h-4v-1192h-237v1430h391l295 -1068h4l301 1068h379v-1430h-238v1192h-4z" />
    <glyph glyph-name="N" unicode="N" horiz-adv-x="1327" 
d="M387 1114v-1114h-237v1430h311l475 -1123h4v1123h238v-1430h-314l-473 1114h-4z" />
    <glyph glyph-name="O" unicode="O" horiz-adv-x="1327" 
d="M94 715q0 229 72 395t201 253t297 87t297 -87t200.5 -253t71.5 -395q0 -228 -71 -394t-199.5 -253.5t-298.5 -87.5q-171 0 -299.5 88t-199.5 254t-71 393zM963 715q0 260 -77 397t-222 137q-143 0 -221 -136.5t-78 -397.5t77.5 -398t221.5 -137t221.5 137t77.5 398z" />
    <glyph glyph-name="P" unicode="P" horiz-adv-x="1063" 
d="M555 1430q136 0 235 -49.5t153 -147.5t54 -238q0 -138 -53 -236t-152 -149t-235 -51h-156v-559h-262v1430h416zM735 995q0 118 -57.5 176t-173.5 58h-103v-469h107q112 0 169.5 59t57.5 176z" />
    <glyph glyph-name="Q" unicode="Q" horiz-adv-x="1327" 
d="M678 -20q-188 0 -319 91.5t-198 257.5t-67 386q0 229 72 395t201 253t297 87t297 -87t200.5 -253t71.5 -395q0 -240 -77.5 -411t-227.5 -257l282 -319h-301l-200 252h-31zM963 715q0 260 -77 397t-222 137q-143 0 -221 -136.5t-78 -397.5t77.5 -398t221.5 -137t221.5 137
t77.5 398z" />
    <glyph glyph-name="R" unicode="R" horiz-adv-x="1139" 
d="M469 614h-68v-614h-262v1430h457q128 0 221.5 -43.5t144 -128t50.5 -205.5q0 -87 -33.5 -158.5t-96 -118t-147.5 -59.5v-6q56 -8 93.5 -48.5t64.5 -117.5l186 -545h-278l-142 465q-20 66 -63.5 107.5t-126.5 41.5zM741 1024q0 74 -22.5 118.5t-74.5 65.5t-142 21h-101
v-422h105q112 0 173.5 57t61.5 160z" />
    <glyph glyph-name="S" unicode="S" horiz-adv-x="1024" 
d="M434 188q101 0 160 56t59 153q0 54 -25 91.5t-72 69t-153 89.5l-84 47q-219 127 -219 367q0 118 59.5 206t162.5 135.5t231 47.5q147 0 297 -51l-12 -219q-87 35 -145 48t-124 13q-94 0 -146 -44.5t-52 -123.5q0 -53 24 -89.5t64.5 -64t123.5 -73.5q79 -43 130 -74
q85 -51 130.5 -103.5t63 -115t17.5 -152.5q0 -130 -58.5 -225t-167 -145.5t-256.5 -50.5q-219 0 -323 63l14 233q71 -44 148 -66t153 -22z" />
    <glyph glyph-name="T" unicode="T" horiz-adv-x="985" 
d="M43 1221v209h899v-209h-317v-1221h-263v1221h-319z" />
    <glyph glyph-name="U" unicode="U" horiz-adv-x="1251" 
d="M1112 494q0 -160 -57.5 -275.5t-166.5 -177t-261 -61.5q-155 0 -264.5 62t-166.5 177.5t-57 274.5v936h262v-936q0 -158 52 -232t174 -74q121 0 172 75.5t51 230.5v936h262v-936z" />
    <glyph glyph-name="V" unicode="V" horiz-adv-x="1176" 
d="M299 1430l289 -1102h4l297 1102h270l-436 -1430h-277l-430 1430h283z" />
    <glyph glyph-name="W" unicode="W" horiz-adv-x="1706" 
d="M852 1171l-225 -1171h-310l-288 1430h245l201 -1100h4l215 1100h320l213 -1102h4l209 1102h237l-295 -1430h-313l-213 1171h-4z" />
    <glyph glyph-name="X" unicode="X" horiz-adv-x="1176" 
d="M301 0h-289l426 758l-375 672h302l225 -461l264 461h281l-385 -672l413 -758h-299l-266 532z" />
    <glyph glyph-name="Y" unicode="Y" horiz-adv-x="1139" 
d="M16 1430h283l279 -572l262 572h282l-422 -863v-567h-262v573z" />
    <glyph glyph-name="Z" unicode="Z" horiz-adv-x="1024" 
d="M637 1221h-547v209h852v-218l-569 -1003h577v-209h-876v229z" />
    <glyph glyph-name="bracketleft" unicode="[" horiz-adv-x="606" 
d="M524 1491v-160h-176v-1515h176v-160h-372v1835h372z" />
    <glyph glyph-name="backslash" unicode="\" horiz-adv-x="569" 
d="M197 1450l356 -1470h-172l-365 1470h181z" />
    <glyph glyph-name="bracketright" unicode="]" horiz-adv-x="606" 
d="M258 -184v1515h-176v160h373v-1835h-373v160h176z" />
    <glyph glyph-name="asciicircum" unicode="^" horiz-adv-x="1229" 
d="M303 602h-180l405 828h172l406 -828h-180l-312 641z" />
    <glyph glyph-name="underscore" unicode="_" horiz-adv-x="1024" 
d="M1024 -154v-102h-1024v102h1024z" />
    <glyph glyph-name="grave" unicode="`" horiz-adv-x="455" 
d="M217 1466l131 -295h-160l-208 295h237z" />
    <glyph glyph-name="a" unicode="a" horiz-adv-x="1024" 
d="M674 143h-4q-62 -85 -131.5 -122t-161.5 -37q-91 0 -163.5 40t-113.5 110.5t-41 160.5q0 118 55.5 197t177.5 119t333 40h41v29q0 107 -50.5 159t-146.5 52q-74 0 -152.5 -29t-136.5 -74l-14 205q91 43 168 60.5t166 17.5q145 0 233 -42t129 -132.5t41 -239.5v-483
q0 -81 15 -174h-230q-8 30 -11 62t-3 81zM297 317q0 -73 43.5 -117t118.5 -44q101 0 154 68.5t53 242.5v49h-27q-179 0 -260.5 -47t-81.5 -152z" />
    <glyph glyph-name="b" unicode="b" horiz-adv-x="1100" 
d="M119 160v1376h254v-633h4q38 81 108.5 124.5t163.5 43.5q113 0 195.5 -64.5t126 -187t43.5 -293.5q0 -168 -44 -290t-127.5 -187t-199.5 -65q-100 0 -171 46t-110 134h-6q0 -53 -3 -98.5t-5 -65.5h-237q8 43 8 160zM760 537q0 178 -47.5 263t-145.5 85q-92 0 -143 -90
t-51 -265q0 -174 50.5 -267t149.5 -93q68 0 108.5 34.5t59.5 114.5t19 218z" />
    <glyph glyph-name="c" unicode="c" horiz-adv-x="872" 
d="M582 -16q-157 0 -268.5 65t-169.5 187t-58 290t60 290.5t175 188.5t275 66q53 0 113 -12t108 -31l-14 -201q-46 23 -89.5 37.5t-88.5 14.5q-277 0 -277 -355q0 -108 35 -186.5t100 -120t154 -41.5q41 0 92.5 15t87.5 36l14 -200q-112 -43 -249 -43z" />
    <glyph glyph-name="d" unicode="d" horiz-adv-x="1100" 
d="M743 164h-6q-41 -91 -110.5 -135.5t-169.5 -44.5q-115 0 -198.5 65t-128 187t-44.5 290q0 171 43.5 293.5t126 187t195.5 64.5q96 0 165.5 -43.5t106.5 -124.5h4v633h254v-1376q0 -119 8 -160h-237q-1 9 -5 54.5t-4 109.5zM727 530q0 172 -50.5 263.5t-148.5 91.5
q-96 0 -142 -86.5t-46 -261.5q0 -136 19 -216t59 -115.5t108 -35.5q98 0 149.5 93t51.5 267z" />
    <glyph glyph-name="e" unicode="e" horiz-adv-x="1024" 
d="M573 -16q-153 0 -262.5 64.5t-167 183.5t-57.5 280t54.5 288t153 199t226.5 72q208 0 315 -143.5t107 -425.5v-43h-610q0 -148 66.5 -218.5t201.5 -70.5q84 0 152 19.5t125 62.5l12 -201q-155 -67 -316 -67zM518 899q-54 0 -96 -34t-66 -97.5t-24 -149.5h364
q0 281 -178 281z" />
    <glyph glyph-name="f" unicode="f" horiz-adv-x="682" 
d="M20 868v187h177v221q0 133 77 209t226 76q36 0 68 -4.5t114 -20.5l-10 -184q-33 8 -55.5 12t-45.5 4q-55 0 -87.5 -36t-32.5 -91v-186h192v-187h-192v-868h-254v868h-177z" />
    <glyph glyph-name="g" unicode="g" horiz-adv-x="1100" 
d="M457 0q-109 0 -193 59t-131 177t-47 288q0 171 44.5 294t130 188t206.5 65q92 0 157 -41.5t121 -138.5h9q0 14 1 33t3.5 57t3.5 74h229q-8 -136 -8 -154v-803q0 -287 -119 -420t-368 -133q-95 0 -192 18.5t-171 47.5l14 225q80 -44 159.5 -67t152.5 -23q86 0 147 28.5
t96 102t35 201.5v104q-48 -95 -117 -138.5t-163 -43.5zM737 541q0 105 -25 181t-70.5 116.5t-106.5 40.5q-95 0 -141 -82.5t-46 -257.5q0 -110 21 -189.5t58.5 -121.5t86.5 -42q118 0 170.5 85.5t52.5 269.5z" />
    <glyph glyph-name="h" unicode="h" horiz-adv-x="1063" 
d="M549 862q-88 0 -134 -64.5t-46 -176.5v-621h-254v1536h254v-616h6q57 86 118.5 118.5t143.5 32.5q156 0 233.5 -99.5t77.5 -285.5v-686h-254v641q0 113 -33.5 167t-111.5 54z" />
    <glyph glyph-name="i" unicode="i" horiz-adv-x="532" 
d="M397 1503v-250h-262v250h262zM393 1055v-1055h-254v1055h254z" />
    <glyph glyph-name="j" unicode="j" horiz-adv-x="532" 
d="M397 1503v-250h-262v250h262zM53 -262q51 0 68.5 39t17.5 117v1161h254v-1110q0 -149 -26.5 -235.5t-85.5 -125.5t-162 -39q-24 0 -62.5 2.5t-93.5 10.5l8 192q40 -12 82 -12z" />
    <glyph glyph-name="k" unicode="k" horiz-adv-x="1024" 
d="M369 514v-514h-254v1536h254v-903h6l309 422h270l-370 -477l405 -578h-295l-319 514h-6z" />
    <glyph glyph-name="l" unicode="l" horiz-adv-x="532" 
d="M393 1536v-1536h-254v1536h254z" />
    <glyph glyph-name="m" unicode="m" horiz-adv-x="1593" 
d="M1096 862q-52 0 -91 -29.5t-60 -79t-21 -108.5v-645h-254v674q0 188 -135 188q-52 0 -91.5 -29.5t-60.5 -79t-21 -108.5v-645h-253v897q0 82 -9 158h254q4 -57 6 -96t2 -70h5q44 90 112 136t156 46t153 -38t111 -130q57 86 126 127t157 41q154 0 228.5 -102t74.5 -307
v-662h-254v674q0 188 -135 188z" />
    <glyph glyph-name="n" unicode="n" horiz-adv-x="1063" 
d="M549 862q-88 0 -134 -64.5t-46 -176.5v-621h-254v897q0 95 -9 158h238q4 -55 6 -93t2 -69h4q51 91 120 134.5t161 43.5q157 0 234 -100t77 -287v-684h-254v641q0 113 -33.5 167t-111.5 54z" />
    <glyph glyph-name="o" unicode="o" horiz-adv-x="1100" 
d="M86 528q0 177 56.5 298.5t160.5 183t248 61.5t248 -61.5t159.5 -183.5t55.5 -298q0 -265 -119 -404.5t-344 -139.5q-224 0 -344.5 138.5t-120.5 405.5zM752 528q0 179 -50.5 271t-150.5 92q-99 0 -151 -91t-52 -272q0 -178 51.5 -271t151.5 -93t150.5 92t50.5 272z" />
    <glyph glyph-name="p" unicode="p" horiz-adv-x="1100" 
d="M111 1055h237q1 -7 4.5 -51.5t3.5 -112.5h6q39 88 110.5 134t170.5 46q117 0 200.5 -65.5t127 -187.5t43.5 -290q0 -170 -43.5 -292.5t-125.5 -187t-196 -64.5q-93 0 -163.5 43.5t-108.5 124.5h-4v-594h-254v1337q0 119 -8 160zM760 518q0 136 -18.5 216t-59.5 115.5
t-111 35.5q-94 0 -146 -91t-52 -270q0 -171 51 -262.5t145 -91.5q97 0 144 85.5t47 262.5z" />
    <glyph glyph-name="q" unicode="q" horiz-adv-x="1100" 
d="M723 152q-37 -80 -108 -124t-164 -44q-114 0 -196 64.5t-125.5 187t-43.5 292.5q0 168 43.5 290t127 187.5t200.5 65.5q100 0 169.5 -44.5t110.5 -135.5h6q0 62 4.5 109.5t4.5 54.5h237q-8 -41 -8 -160v-1337h-254v594h-4zM727 524q0 175 -50.5 268t-152.5 93
q-67 0 -107 -37t-58.5 -117t-18.5 -213q0 -176 46.5 -262t143.5 -86q94 0 145.5 91t51.5 263z" />
    <glyph glyph-name="r" unicode="r" horiz-adv-x="721" 
d="M115 1055h229q8 -140 8 -193h4q39 99 110 154t159 55q20 0 43 -6v-238q-39 11 -72 11q-65 0 -114.5 -30.5t-77 -88t-27.5 -133.5v-586h-254v899q0 107 -8 156z" />
    <glyph glyph-name="s" unicode="s" horiz-adv-x="834" 
d="M350 176q82 0 123 25.5t41 79.5q0 32 -17.5 56.5t-51 47.5t-104.5 64q-71 42 -118 71q-61 39 -105 101t-44 149q0 80 48 149.5t131.5 110.5t184.5 41q67 0 135.5 -11.5t128.5 -31.5l-14 -197q-60 23 -110.5 35.5t-110.5 12.5q-78 0 -113 -26.5t-35 -76.5q0 -30 17 -53.5
t50 -47.5t103 -67q107 -65 163 -110t82 -92t26 -111q0 -94 -48.5 -164t-137.5 -108.5t-207 -38.5q-76 0 -153 13.5t-140 37.5l12 211q84 -38 145 -54t119 -16z" />
    <glyph glyph-name="t" unicode="t" horiz-adv-x="721" 
d="M502 -16q-151 0 -222 77t-71 224v583h-168v187h168v217l254 78v-295h211v-187h-211v-551q0 -67 24.5 -104t87.5 -37q37 0 58 6.5t41 16.5v-181q-70 -34 -172 -34z" />
    <glyph glyph-name="u" unicode="u" horiz-adv-x="1063" 
d="M711 162h-4q-62 -103 -128.5 -140.5t-152.5 -37.5q-156 0 -233.5 99t-77.5 284v688h254v-639q0 -114 35.5 -168.5t115.5 -54.5q87 0 130.5 66t43.5 185v611h254v-901q0 -107 8 -154h-237q-8 128 -8 162z" />
    <glyph glyph-name="v" unicode="v" horiz-adv-x="985" 
d="M283 1055l215 -813h4l217 813h246l-324 -1055h-299l-322 1055h263z" />
    <glyph glyph-name="w" unicode="w" horiz-adv-x="1518" 
d="M758 821l-185 -821h-278l-285 1055h262l170 -822h4l179 822h288l174 -822h5l170 822h245l-280 -1055h-277l-188 821h-4z" />
    <glyph glyph-name="x" unicode="x" horiz-adv-x="948" 
d="M274 0h-270l318 569l-291 486h286l166 -338l174 338h263l-293 -486l317 -569h-280l-195 391z" />
    <glyph glyph-name="y" unicode="y" horiz-adv-x="948" 
d="M211 -254q59 0 92 57.5t57 186.5l-350 1065h262l213 -797h4l203 797h246l-385 -1256q-79 -254 -301 -254q-39 0 -73 6t-58 12.5t-31 8.5l14 195q29 -12 54 -16.5t53 -4.5z" />
    <glyph glyph-name="z" unicode="z" horiz-adv-x="834" 
d="M508 862h-436v193h690v-217l-443 -645h457v-193h-719v219z" />
    <glyph glyph-name="braceleft" unicode="{" horiz-adv-x="682" 
d="M250 -92v385q0 54 -23 102t-64 77t-93 30v143q51 0 92 28t64.5 74.5t23.5 98.5v393q0 73 31 130.5t83.5 89.5t114.5 32h162v-143h-92q-53 0 -78 -40.5t-25 -109.5v-385q0 -91 -49 -156t-131 -82v-4q83 -12 131.5 -78.5t48.5 -166.5v-377q0 -70 25.5 -110t75.5 -40h94
v-143h-164q-60 0 -112 32t-83.5 89.5t-31.5 130.5z" />
    <glyph glyph-name="bar" unicode="|" horiz-adv-x="455" 
d="M317 1536v-2048h-180v2048h180z" />
    <glyph glyph-name="braceright" unicode="}" horiz-adv-x="682" 
d="M133 -201q53 0 78 40.5t25 109.5v385q0 91 49 156t131 81v4q-83 13 -131.5 79.5t-48.5 166.5v377q0 70 -25.5 110t-75.5 40h-94v143h164q60 0 112 -32t83.5 -89.5t31.5 -130.5v-385q0 -55 22.5 -102.5t64 -76.5t93.5 -30v-143q-51 0 -92 -28t-64.5 -74.5t-23.5 -98.5
v-393q0 -73 -31 -130.5t-83.5 -89.5t-114.5 -32h-162v143h92z" />
    <glyph glyph-name="asciitilde" unicode="~" horiz-adv-x="1229" 
d="M831 365q-53 0 -111 21t-134 56q-70 32 -110 45t-81 13q-47 0 -89 -33.5t-91 -112.5l-74 144q53 92 116 133t143 41q39 0 86.5 -15.5t113.5 -44.5q85 -39 137.5 -57t96.5 -18q47 0 88.5 33t91.5 112l73 -143q-62 -94 -122 -134t-134 -40z" />
    <glyph glyph-name="exclamdown" unicode="&#xa1;" horiz-adv-x="758" 
d="M502 1055v-258h-246v258h246zM477 633l33 -1008h-262l33 1008h196z" />
    <glyph glyph-name="cent" unicode="&#xa2;" horiz-adv-x="1065" 
d="M160 526q0 169 60.5 291.5t176 188t277.5 65.5l35 234h102l-37 -242q33 -5 58 -13t59 -22l-14 -201q-40 19 -68 30.5t-61 16.5l-105 -690q21 -8 68 -8q41 0 89 13.5t91 37.5l14 -200q-117 -43 -293 -43l-37 -246h-102l39 262q-111 25 -190 96t-120.5 181t-41.5 249z
M422 524q0 -100 31.5 -177.5t93.5 -121.5l98 654q-223 -34 -223 -355z" />
    <glyph glyph-name="sterling" unicode="&#xa3;" horiz-adv-x="1065" 
d="M256 201v479h-145v160h145v125q0 485 442 485q58 0 111.5 -8.5t144.5 -28.5l-16 -203q-76 29 -118 38t-103 9q-113 0 -168 -69.5t-55 -224.5v-123h317v-160h-317v-479h460v-201h-843v201h145z" />
    <glyph glyph-name="currency" unicode="&#xa4;" horiz-adv-x="1065" 
d="M532 236q-77 0 -149 24.5t-133 69.5l-107 -107l-102 103l106 106q-46 59 -70 135t-24 148q0 79 24.5 152t69.5 130l-106 107l102 102l107 -106q61 45 133 69.5t149 24.5q156 0 283 -94l107 106l102 -102l-106 -107q45 -60 69.5 -132t24.5 -150q0 -156 -94 -283l106 -106
l-102 -103l-107 107q-125 -94 -283 -94zM852 715q0 88 -42.5 163t-116 119.5t-163.5 44.5q-86 0 -159 -44t-115.5 -119t-42.5 -164q0 -90 42 -165.5t115 -119t162 -43.5q88 0 161.5 44.5t116 119.5t42.5 164z" />
    <glyph glyph-name="yen" unicode="&#xa5;" horiz-adv-x="1065" 
d="M410 0v299h-312v152h312v155h-312v152h242l-322 672h263l251 -572l252 572h263l-318 -672h238v-152h-312v-155h312v-152h-312v-299h-245z" />
    <glyph glyph-name="brokenbar" unicode="&#xa6;" horiz-adv-x="455" 
d="M317 1382v-716h-180v716h180zM317 358v-716h-180v716h180z" />
    <glyph glyph-name="section" unicode="&#xa7;" horiz-adv-x="1063" 
d="M463 -78q75 0 124.5 37.5t49.5 98.5q0 48 -24.5 83t-64.5 62.5t-117 74.5q-36 20 -77 46q-116 69 -164.5 139t-48.5 162q0 72 50.5 144.5t132.5 121.5q-68 53 -103 122.5t-35 145.5q0 83 44.5 149t127.5 104t193 38q70 0 153 -14.5t152 -44.5l-22 -197
q-83 39 -142.5 54.5t-118.5 15.5q-66 0 -107.5 -35t-41.5 -86q0 -37 20 -66t54 -55t104 -67l79 -47q76 -42 124.5 -77.5t82.5 -90.5t34 -130q0 -151 -160 -301q65 -46 97 -107t32 -132q0 -99 -49.5 -174.5t-143.5 -117.5t-221 -42q-80 0 -167 20t-163 54l23 200
q90 -46 164 -67t129 -21zM700 561q0 51 -17 85t-70.5 73t-166.5 100q-46 -42 -65 -80.5t-19 -87.5q0 -46 33 -95t97 -85q55 -33 93 -53.5t44 -22.5q41 49 56 86t15 80z" />
    <glyph glyph-name="dieresis" unicode="&#xa8;" horiz-adv-x="455" 
d="M154 1460v-225h-197v225h197zM498 1460v-225h-197v225h197z" />
    <glyph glyph-name="copyright" unicode="&#xa9;" horiz-adv-x="1638" 
d="M84 715q0 197 98.5 366t267.5 269t369 100q194 0 363 -96t270.5 -264.5t101.5 -374.5q0 -197 -97.5 -366t-266 -269t-371.5 -100q-198 0 -367 98t-268.5 266.5t-99.5 370.5zM1382 715q0 157 -74.5 291t-204 213t-286.5 79q-150 0 -279 -77.5t-205.5 -211.5t-76.5 -294
q0 -159 74.5 -293t203.5 -212.5t285 -78.5q157 0 286 80t203 214t74 290zM838 266q-128 0 -222.5 57t-145 158.5t-50.5 233.5t51 232.5t144 156t216 55.5q97 0 176 -36t127.5 -105t57.5 -164h-152q-17 74 -72 118t-134 44q-77 0 -134.5 -36.5t-88.5 -103.5t-31 -157
q0 -89 29.5 -159t87.5 -110t141 -40q82 0 136 45.5t66 128.5h152q-10 -99 -59.5 -171t-126.5 -109.5t-168 -37.5z" />
    <glyph glyph-name="ordfeminine" unicode="&#xaa;" horiz-adv-x="721" 
d="M485 893h-6q-37 -48 -83.5 -69t-108.5 -21q-60 0 -111 21.5t-79.5 62.5t-28.5 96q0 110 93.5 166.5t289.5 54.5h20v19q0 52 -31.5 80t-93.5 28q-47 0 -98 -13t-86 -38l-10 123q101 47 229 47q139 0 200.5 -59t61.5 -187v-293q0 -48 10 -100h-159q-3 11 -6 35t-3 47z
M240 1001q0 -42 27 -65t75 -23q67 0 98 43t31 131v23h-14q-95 0 -156 -29t-61 -80z" />
    <glyph glyph-name="guillemotleft" unicode="&#xab;" horiz-adv-x="1063" 
d="M344 954h205l-201 -424l201 -424h-205l-217 424zM707 954h204l-200 -424l200 -424h-204l-218 424z" />
    <glyph glyph-name="logicalnot" unicode="&#xac;" horiz-adv-x="1229" 
d="M96 643v180h1037v-610h-181v430h-856z" />
    <glyph glyph-name="registered" unicode="&#xae;" horiz-adv-x="1024" 
d="M872 1059q0 -152 -104 -257.5t-254 -105.5t-256 107t-106 258q0 149 107 252.5t261 103.5q142 0 247 -106t105 -252zM512 756q125 0 213 89t88 216q0 122 -90 209.5t-217 87.5q-117 0 -206 -89t-89 -210q0 -125 88.5 -214t212.5 -89zM377 1276h114q83 0 122.5 -28
t39.5 -86q0 -35 -18.5 -61.5t-54.5 -33.5v-4q28 -11 46.5 -52.5t69.5 -152.5h-98q-45 110 -60.5 143t-67.5 33h-11v-176h-82v418zM459 1106h20q44 0 67 11t23 38q0 29 -22 39t-68 10h-20v-98z" />
    <glyph glyph-name="macron" unicode="&#xaf;" horiz-adv-x="455" 
d="M512 1399v-152h-569v152h569z" />
    <glyph glyph-name="degree" unicode="&#xb0;" horiz-adv-x="819" 
d="M117 1157q0 80 40 147.5t107.5 106.5t145.5 39t145 -39t107 -106.5t40 -147.5t-39.5 -147t-106.5 -106.5t-146 -39.5t-146 40t-107 107t-40 146zM410 1307q-39 0 -73.5 -19.5t-55.5 -55.5t-21 -75q0 -40 20.5 -74.5t55 -54.5t74.5 -20q41 0 75 20.5t54 54.5t20 74
q0 39 -20 74t-54.5 55.5t-74.5 20.5z" />
    <glyph glyph-name="plusminus" unicode="&#xb1;" horiz-adv-x="1229" 
d="M524 254v301h-428v180h428v301h181v-301h428v-180h-428v-301h-181zM1133 180v-180h-1037v180h1037z" />
    <glyph glyph-name="twosuperior" unicode="&#xb2;" horiz-adv-x="692" 
d="M108 1048q119 126 158 169q75 81 114.5 145t39.5 117q0 59 -33.5 93t-89.5 34q-51 0 -94 -15.5t-84 -42.5l-15 152q49 26 106 37.5t132 11.5q135 0 204.5 -59.5t69.5 -169.5q0 -105 -76.5 -220.5t-168.5 -207.5l-64 -64h305v-151h-536v137z" />
    <glyph glyph-name="threesuperior" unicode="&#xb3;" horiz-adv-x="692" 
d="M262 1004q74 0 119 36.5t45 96.5t-44 91.5t-126 31.5q-43 0 -70 -3v123q17 -2 70 -2q73 0 120.5 34t47.5 97q0 50 -39 77.5t-102 27.5q-42 0 -80 -9.5t-101 -33.5l-12 141q65 20 120 28.5t116 8.5q129 0 203.5 -58t74.5 -159q0 -82 -46.5 -134t-131.5 -65v-4
q104 -23 150.5 -71.5t46.5 -133.5q0 -79 -42 -137t-116.5 -88.5t-169.5 -30.5q-65 0 -116 9.5t-118 27.5l11 142q70 -28 106 -35.5t84 -7.5z" />
    <glyph glyph-name="acute" unicode="&#xb4;" horiz-adv-x="455" 
d="M475 1466l-209 -295h-160l132 295h237z" />
    <glyph glyph-name="uni00B5" unicode="&#xb5;" horiz-adv-x="1102" 
d="M950 -14q-98 0 -144 46t-58 150h-5q-36 -105 -95 -156t-136 -51q-74 0 -131 39h-6q3 -42 5.5 -135t2.5 -172v-141h-252v1487h252v-521q0 -118 7.5 -188t40 -117t101.5 -47q96 0 137.5 105t41.5 272v496h254v-764q0 -55 12 -81t45 -26q22 0 37 6l6 -184q-22 -8 -55 -13
t-60 -5z" />
    <glyph glyph-name="paragraph" unicode="&#xb6;" horiz-adv-x="1229" 
d="M635 1278v-1522h-197v926q-102 1 -181.5 48t-124 130t-44.5 189q0 120 53 206t148.5 130.5t222.5 44.5h537v-1674h-197v1522h-217z" />
    <glyph glyph-name="periodcentered" unicode="&#xb7;" horiz-adv-x="530" 
d="M266 424q-42 0 -78.5 21t-57.5 57t-21 80q0 43 21 79.5t57 57t79 20.5q44 0 79.5 -20.5t57 -57.5t21.5 -79q0 -43 -21 -79.5t-57.5 -57.5t-79.5 -21z" />
    <glyph glyph-name="cedilla" unicode="&#xb8;" horiz-adv-x="455" 
d="M186 -360q53 0 81 22.5t28 61.5q0 35 -25.5 55t-68.5 20q-48 0 -80 -14l-37 35l63 180h91l-41 -127q36 12 79 12q83 0 131 -42t48 -109q0 -55 -31 -98t-84 -67t-115 -24q-58 0 -120 12.5t-93 28.5l33 82q43 -15 72.5 -21.5t68.5 -6.5z" />
    <glyph glyph-name="onesuperior" unicode="&#xb9;" horiz-adv-x="692" 
d="M188 1438l-90 114l230 183h164v-858h-181v669z" />
    <glyph glyph-name="ordmasculine" unicode="&#xba;" horiz-adv-x="721" 
d="M49 1126q0 156 82.5 240t228.5 84q147 0 229.5 -84t82.5 -240q0 -157 -82.5 -240t-229.5 -83q-146 0 -228.5 83.5t-82.5 239.5zM492 1126q0 205 -134 205q-61 0 -95 -50.5t-34 -154.5q0 -102 33.5 -153t97.5 -51t98 51.5t34 152.5z" />
    <glyph glyph-name="guillemotright" unicode="&#xbb;" horiz-adv-x="1063" 
d="M152 954h204l217 -424l-217 -424h-204l200 424zM514 954h205l217 -424l-217 -424h-205l201 424z" />
    <glyph glyph-name="onequarter" unicode="&#xbc;" horiz-adv-x="1593" 
d="M1161 1499l-641 -1569h-160l641 1569h160zM152 1137l-91 114l230 183h164v-859h-181v670zM889 170v152l317 536h221v-553h105v-135h-105v-170h-172v170h-366zM1024 305h231v393h-4z" />
    <glyph glyph-name="onehalf" unicode="&#xbd;" horiz-adv-x="1593" 
d="M1151 1499l-641 -1569h-160l641 1569h160zM152 1137l-91 114l230 183h164v-859h-181v670zM1030 176q24 24 154 164q74 81 113.5 145t39.5 117q0 59 -33.5 93t-89.5 34q-89 0 -178 -57l-14 151q48 26 105.5 37.5t132.5 11.5q135 0 204.5 -59.5t69.5 -169.5
q0 -105 -76.5 -220t-169.5 -208l-63 -63h305v-152h-537v137z" />
    <glyph glyph-name="threequarters" unicode="&#xbe;" horiz-adv-x="1593" 
d="M1208 1499l-641 -1569h-159l641 1569h159zM262 702q73 0 118.5 37t45.5 97q0 59 -44 90.5t-126 31.5q-43 0 -70 -2v123q17 -2 70 -2q73 0 120.5 34t47.5 97q0 50 -39 77.5t-102 27.5q-41 0 -78.5 -9.5t-102.5 -33.5l-12 141q65 20 120 28.5t116 8.5q129 0 203.5 -58
t74.5 -159q0 -82 -46.5 -134t-131.5 -65v-4q104 -23 150.5 -71.5t46.5 -133.5q0 -79 -42 -137t-116.5 -88.5t-169.5 -30.5q-65 0 -116 9.5t-118 27.5l11 141q70 -27 106.5 -35t83.5 -8zM889 170v152l317 536h221v-553h105v-135h-105v-170h-172v170h-366zM1024 305h231v393
h-4z" />
    <glyph glyph-name="questiondown" unicode="&#xbf;" horiz-adv-x="948" 
d="M606 1055v-258h-246v258h246zM502 -395q-126 0 -219 42.5t-143 120.5t-50 181q0 82 36 165.5t118 202.5q72 104 100.5 170t28.5 131v19h221v-55q0 -49 -8 -86.5t-31 -82.5t-70 -108q-60 -82 -89 -136.5t-36.5 -85.5t-7.5 -63q0 -62 27 -108.5t74.5 -72t107.5 -25.5
q58 0 121.5 18.5t114.5 50.5l12 -223q-64 -25 -147 -40t-160 -15z" />
    <glyph glyph-name="Agrave" unicode="&#xc0;" horiz-adv-x="1251" 
d="M377 344l-103 -344h-262l480 1430h286l461 -1430h-270l-101 344h-491zM432 545h381l-180 667h-4zM617 1792l131 -295h-160l-208 295h237z" />
    <glyph glyph-name="Aacute" unicode="&#xc1;" horiz-adv-x="1251" 
d="M377 344l-103 -344h-262l480 1430h286l461 -1430h-270l-101 344h-491zM432 545h381l-180 667h-4zM875 1792l-209 -295h-160l132 295h237z" />
    <glyph glyph-name="Acircumflex" unicode="&#xc2;" horiz-adv-x="1251" 
d="M377 344l-103 -344h-262l480 1430h286l461 -1430h-270l-101 344h-491zM432 545h381l-180 667h-4zM512 1497h-181l187 295h221l182 -295h-186l-111 179z" />
    <glyph glyph-name="Atilde" unicode="&#xc3;" horiz-adv-x="1251" 
d="M377 344l-103 -344h-262l480 1430h286l461 -1430h-270l-101 344h-491zM432 545h381l-180 667h-4zM743 1530q-26 0 -55 9.5t-69 28.5q-33 15 -57.5 23.5t-47.5 8.5q-37 0 -56.5 -23t-19.5 -57h-119q3 71 28.5 125.5t67.5 84.5t99 30q28 0 52.5 -7t65.5 -24q9 -3 35.5 -15
t43 -18t36.5 -6q30 0 45 23.5t15 56.5h127q-3 -66 -26.5 -119.5t-64.5 -87t-100 -33.5z" />
    <glyph glyph-name="Adieresis" unicode="&#xc4;" horiz-adv-x="1251" 
d="M377 344l-103 -344h-262l480 1430h286l461 -1430h-270l-101 344h-491zM432 545h381l-180 667h-4zM553 1785v-225h-197v225h197zM897 1785v-225h-197v225h197z" />
    <glyph glyph-name="Aring" unicode="&#xc5;" horiz-adv-x="1251" 
d="M377 344l-103 -344h-262l480 1430h286l461 -1430h-270l-101 344h-491zM432 545h381l-180 667h-4zM423 1706q0 59 29 109t79.5 80t110.5 30q61 0 111 -30t79 -80.5t29 -108.5q0 -59 -29 -109t-79.5 -80t-110.5 -30t-110 29.5t-79.5 79.5t-29.5 110zM640 1823
q-29 0 -55.5 -16t-42.5 -43t-16 -58q0 -48 34.5 -82.5t81.5 -34.5q48 0 82.5 34.5t34.5 82.5q0 31 -16 58t-43.5 43t-59.5 16z" />
    <glyph glyph-name="AE" unicode="&#xc6;" horiz-adv-x="1706" 
d="M453 344l-158 -344h-279l682 1430h879v-209h-461v-381h434v-209h-434v-422h479v-209h-725v344h-417zM539 545h331v704h-6z" />
    <glyph glyph-name="Ccedilla" unicode="&#xc7;" horiz-adv-x="1139" 
d="M655 -360q53 0 81 22.5t28 61.5q0 35 -25.5 55t-68.5 20q-48 0 -80 -14l-37 35l61 172q-163 29 -280 126.5t-178.5 250.5t-61.5 346q0 221 78.5 387t225 257t345.5 91q164 0 318 -59l-14 -236q-80 43 -141 60.5t-130 17.5q-124 0 -214.5 -60t-139.5 -176.5t-49 -281.5
t49 -281.5t139.5 -176.5t214.5 -60q169 0 271 73l14 -239q-43 -23 -130 -37t-190 -14q-24 0 -41 2l-34 -109q36 12 79 12q83 0 131 -42t48 -109q0 -56 -31 -99t-83.5 -66.5t-115.5 -23.5q-58 0 -120 12.5t-93 28.5l33 82q43 -15 72.5 -21.5t68.5 -6.5z" />
    <glyph glyph-name="Egrave" unicode="&#xc8;" horiz-adv-x="1024" 
d="M903 1430v-209h-489v-381h463v-209h-463v-422h510v-209h-772v1430h751zM522 1792l131 -295h-160l-208 295h237z" />
    <glyph glyph-name="Eacute" unicode="&#xc9;" horiz-adv-x="1024" 
d="M903 1430v-209h-489v-381h463v-209h-463v-422h510v-209h-772v1430h751zM780 1792l-209 -295h-160l132 295h237z" />
    <glyph glyph-name="Ecircumflex" unicode="&#xca;" horiz-adv-x="1024" 
d="M903 1430v-209h-489v-381h463v-209h-463v-422h510v-209h-772v1430h751zM418 1497h-181l187 295h221l182 -295h-186l-111 179z" />
    <glyph glyph-name="Edieresis" unicode="&#xcb;" horiz-adv-x="1024" 
d="M903 1430v-209h-489v-381h463v-209h-463v-422h510v-209h-772v1430h751zM459 1786v-225h-197v225h197zM803 1786v-225h-197v225h197z" />
    <glyph glyph-name="Igrave" unicode="&#xcc;" horiz-adv-x="569" 
d="M416 1430v-1430h-262v1430h262zM275 1792l131 -295h-160l-208 295h237z" />
    <glyph glyph-name="Iacute" unicode="&#xcd;" horiz-adv-x="569" 
d="M416 1430v-1430h-262v1430h262zM533 1792l-209 -295h-160l132 295h237z" />
    <glyph glyph-name="Icircumflex" unicode="&#xce;" horiz-adv-x="569" 
d="M416 1430v-1430h-262v1430h262zM170 1497h-181l187 295h221l182 -295h-186l-111 179z" />
    <glyph glyph-name="Idieresis" unicode="&#xcf;" horiz-adv-x="569" 
d="M416 1430v-1430h-262v1430h262zM211 1786v-225h-197v225h197zM555 1786v-225h-197v225h197z" />
    <glyph glyph-name="Eth" unicode="&#xd0;" horiz-adv-x="1290" 
d="M0 651v172h139v607h379q326 0 502 -179.5t176 -535.5q0 -228 -83.5 -388.5t-236.5 -243.5t-358 -83h-379v651h-139zM918 715q0 242 -105.5 378t-331.5 136h-80v-406h267v-172h-267v-450h82q221 0 328 134.5t107 379.5z" />
    <glyph glyph-name="Ntilde" unicode="&#xd1;" horiz-adv-x="1327" 
d="M387 1114v-1114h-237v1430h311l475 -1123h4v1123h238v-1430h-314l-473 1114h-4zM780 1530q-26 0 -55 9.5t-69 28.5q-33 15 -57.5 23.5t-47.5 8.5q-37 0 -56.5 -23t-19.5 -57h-119q3 71 28.5 125.5t67.5 84.5t99 30q28 0 52.5 -7t65.5 -24q9 -3 35.5 -15t43 -18t36.5 -6
q30 0 45 23.5t15 56.5h127q-3 -66 -26.5 -119.5t-64.5 -87t-100 -33.5z" />
    <glyph glyph-name="Ograve" unicode="&#xd2;" horiz-adv-x="1327" 
d="M94 715q0 229 72 395t201 253t297 87t297 -87t200.5 -253t71.5 -395q0 -228 -71 -394t-199.5 -253.5t-298.5 -87.5q-171 0 -299.5 88t-199.5 254t-71 393zM963 715q0 260 -77 397t-222 137q-143 0 -221 -136.5t-78 -397.5t77.5 -398t221.5 -137t221.5 137t77.5 398z
M653 1792l131 -295h-160l-208 295h237z" />
    <glyph glyph-name="Oacute" unicode="&#xd3;" horiz-adv-x="1327" 
d="M94 715q0 229 72 395t201 253t297 87t297 -87t200.5 -253t71.5 -395q0 -228 -71 -394t-199.5 -253.5t-298.5 -87.5q-171 0 -299.5 88t-199.5 254t-71 393zM963 715q0 260 -77 397t-222 137q-143 0 -221 -136.5t-78 -397.5t77.5 -398t221.5 -137t221.5 137t77.5 398z
M911 1792l-209 -295h-160l132 295h237z" />
    <glyph glyph-name="Ocircumflex" unicode="&#xd4;" horiz-adv-x="1327" 
d="M94 715q0 229 72 395t201 253t297 87t297 -87t200.5 -253t71.5 -395q0 -228 -71 -394t-199.5 -253.5t-298.5 -87.5q-171 0 -299.5 88t-199.5 254t-71 393zM963 715q0 260 -77 397t-222 137q-143 0 -221 -136.5t-78 -397.5t77.5 -398t221.5 -137t221.5 137t77.5 398z
M549 1497h-181l187 295h221l182 -295h-186l-111 179z" />
    <glyph glyph-name="Otilde" unicode="&#xd5;" horiz-adv-x="1327" 
d="M94 715q0 229 72 395t201 253t297 87t297 -87t200.5 -253t71.5 -395q0 -228 -71 -394t-199.5 -253.5t-298.5 -87.5q-171 0 -299.5 88t-199.5 254t-71 393zM963 715q0 260 -77 397t-222 137q-143 0 -221 -136.5t-78 -397.5t77.5 -398t221.5 -137t221.5 137t77.5 398z
M778 1530q-26 0 -55 9.5t-69 28.5q-33 15 -57.5 23.5t-47.5 8.5q-37 0 -56.5 -23t-19.5 -57h-119q3 71 28.5 125.5t67.5 84.5t99 30q28 0 52.5 -7t65.5 -24q9 -3 35.5 -15t43 -18t36.5 -6q30 0 45 23.5t15 56.5h127q-3 -66 -26.5 -119.5t-64.5 -87t-100 -33.5z" />
    <glyph glyph-name="Odieresis" unicode="&#xd6;" horiz-adv-x="1327" 
d="M94 715q0 229 72 395t201 253t297 87t297 -87t200.5 -253t71.5 -395q0 -228 -71 -394t-199.5 -253.5t-298.5 -87.5q-171 0 -299.5 88t-199.5 254t-71 393zM963 715q0 260 -77 397t-222 137q-143 0 -221 -136.5t-78 -397.5t77.5 -398t221.5 -137t221.5 137t77.5 398z
M590 1786v-225h-197v225h197zM934 1786v-225h-197v225h197z" />
    <glyph glyph-name="multiply" unicode="&#xd7;" horiz-adv-x="1229" 
d="M139 170l348 348l-348 348l127 127l348 -348l349 348l127 -127l-349 -348l349 -348l-127 -127l-349 350l-348 -350z" />
    <glyph glyph-name="Oslash" unicode="&#xd8;" horiz-adv-x="1327" 
d="M94 715q0 230 72.5 396t201.5 252.5t296 86.5q112 0 210 -41t175 -125l145 182l82 -63l-162 -203q119 -195 119 -485q0 -228 -71.5 -394t-200 -253.5t-297.5 -87.5q-234 0 -385 165l-146 -182l-82 64l162 202q-119 188 -119 486zM664 1249q-143 0 -221 -136.5t-78 -397.5
q0 -145 26 -260l504 637q-37 81 -96.5 119t-134.5 38zM664 180q144 0 221.5 137t77.5 398q0 149 -27 260l-504 -635q37 -81 97.5 -120.5t134.5 -39.5z" />
    <glyph glyph-name="Ugrave" unicode="&#xd9;" horiz-adv-x="1251" 
d="M1112 494q0 -160 -57.5 -275.5t-166.5 -177t-261 -61.5q-155 0 -264.5 62t-166.5 177.5t-57 274.5v936h262v-936q0 -158 52 -232t174 -74q121 0 172 75.5t51 230.5v936h262v-936zM617 1792l131 -295h-160l-208 295h237z" />
    <glyph glyph-name="Uacute" unicode="&#xda;" horiz-adv-x="1251" 
d="M1112 494q0 -160 -57.5 -275.5t-166.5 -177t-261 -61.5q-155 0 -264.5 62t-166.5 177.5t-57 274.5v936h262v-936q0 -158 52 -232t174 -74q121 0 172 75.5t51 230.5v936h262v-936zM875 1792l-209 -295h-160l132 295h237z" />
    <glyph glyph-name="Ucircumflex" unicode="&#xdb;" horiz-adv-x="1251" 
d="M1112 494q0 -160 -57.5 -275.5t-166.5 -177t-261 -61.5q-155 0 -264.5 62t-166.5 177.5t-57 274.5v936h262v-936q0 -158 52 -232t174 -74q121 0 172 75.5t51 230.5v936h262v-936zM512 1497h-181l187 295h221l182 -295h-186l-111 179z" />
    <glyph glyph-name="Udieresis" unicode="&#xdc;" horiz-adv-x="1251" 
d="M1112 494q0 -160 -57.5 -275.5t-166.5 -177t-261 -61.5q-155 0 -264.5 62t-166.5 177.5t-57 274.5v936h262v-936q0 -158 52 -232t174 -74q121 0 172 75.5t51 230.5v936h262v-936zM553 1786v-225h-197v225h197zM897 1786v-225h-197v225h197z" />
    <glyph glyph-name="Yacute" unicode="&#xdd;" horiz-adv-x="1139" 
d="M16 1430h283l279 -572l262 572h282l-422 -863v-567h-262v573zM817 1792l-209 -295h-160l132 295h237z" />
    <glyph glyph-name="Thorn" unicode="&#xde;" horiz-adv-x="1063" 
d="M401 1430v-228h154q208 0 325 -112t117 -327q0 -137 -53.5 -234t-152.5 -147t-234 -50h-156v-332h-262v1430h262zM735 768q0 120 -58 176.5t-171 56.5h-105v-469h107q112 0 169.5 58.5t57.5 177.5z" />
    <glyph glyph-name="germandbls" unicode="&#xdf;" horiz-adv-x="1100" 
d="M551 176q94 0 143 64.5t49 187.5q0 281 -247 281h-4v192q105 0 159 64t54 188q0 104 -45.5 162.5t-127.5 58.5q-87 0 -129.5 -58.5t-42.5 -158.5v-1157h-245v1114q0 212 111 329.5t319 117.5q125 0 216.5 -46.5t140 -135t48.5 -210.5q0 -133 -53.5 -220t-183.5 -130v-4
q86 -8 152.5 -61t103.5 -136.5t37 -179.5q0 -217 -107.5 -335.5t-308.5 -118.5q-86 0 -123 22l12 187q28 -17 72 -17z" />
    <glyph glyph-name="agrave" unicode="&#xe0;" horiz-adv-x="1024" 
d="M674 143h-4q-62 -85 -131.5 -122t-161.5 -37q-91 0 -163.5 40t-113.5 110.5t-41 160.5q0 118 55.5 197t177.5 119t333 40h41v29q0 107 -50.5 159t-146.5 52q-74 0 -152.5 -29t-136.5 -74l-14 205q91 43 168 60.5t166 17.5q145 0 233 -42t129 -132.5t41 -239.5v-483
q0 -81 15 -174h-230q-8 30 -11 62t-3 81zM297 317q0 -73 43.5 -117t118.5 -44q101 0 154 68.5t53 242.5v49h-27q-179 0 -260.5 -47t-81.5 -152zM502 1466l131 -295h-160l-208 295h237z" />
    <glyph glyph-name="aacute" unicode="&#xe1;" horiz-adv-x="1024" 
d="M674 143h-4q-62 -85 -131.5 -122t-161.5 -37q-91 0 -163.5 40t-113.5 110.5t-41 160.5q0 118 55.5 197t177.5 119t333 40h41v29q0 107 -50.5 159t-146.5 52q-74 0 -152.5 -29t-136.5 -74l-14 205q91 43 168 60.5t166 17.5q145 0 233 -42t129 -132.5t41 -239.5v-483
q0 -81 15 -174h-230q-8 30 -11 62t-3 81zM297 317q0 -73 43.5 -117t118.5 -44q101 0 154 68.5t53 242.5v49h-27q-179 0 -260.5 -47t-81.5 -152zM760 1466l-209 -295h-160l132 295h237z" />
    <glyph glyph-name="acircumflex" unicode="&#xe2;" horiz-adv-x="1024" 
d="M674 143h-4q-62 -85 -131.5 -122t-161.5 -37q-91 0 -163.5 40t-113.5 110.5t-41 160.5q0 118 55.5 197t177.5 119t333 40h41v29q0 107 -50.5 159t-146.5 52q-74 0 -152.5 -29t-136.5 -74l-14 205q91 43 168 60.5t166 17.5q145 0 233 -42t129 -132.5t41 -239.5v-483
q0 -81 15 -174h-230q-8 30 -11 62t-3 81zM297 317q0 -73 43.5 -117t118.5 -44q101 0 154 68.5t53 242.5v49h-27q-179 0 -260.5 -47t-81.5 -152zM398 1171h-181l187 295h221l182 -295h-186l-111 179z" />
    <glyph glyph-name="atilde" unicode="&#xe3;" horiz-adv-x="1024" 
d="M674 143h-4q-62 -85 -131.5 -122t-161.5 -37q-91 0 -163.5 40t-113.5 110.5t-41 160.5q0 118 55.5 197t177.5 119t333 40h41v29q0 107 -50.5 159t-146.5 52q-74 0 -152.5 -29t-136.5 -74l-14 205q91 43 168 60.5t166 17.5q145 0 233 -42t129 -132.5t41 -239.5v-483
q0 -81 15 -174h-230q-8 30 -11 62t-3 81zM297 317q0 -73 43.5 -117t118.5 -44q101 0 154 68.5t53 242.5v49h-27q-179 0 -260.5 -47t-81.5 -152zM629 1204q-26 0 -55 9.5t-69 28.5q-33 15 -57.5 23.5t-47.5 8.5q-37 0 -56.5 -23t-19.5 -57h-119q3 71 28.5 125.5t67.5 84.5
t99 30q28 0 52.5 -7t65.5 -24q9 -3 35.5 -15t43 -18t36.5 -6q30 0 45 23.5t15 56.5h127q-3 -66 -26.5 -119.5t-64.5 -87t-100 -33.5z" />
    <glyph glyph-name="adieresis" unicode="&#xe4;" horiz-adv-x="1024" 
d="M674 143h-4q-62 -85 -131.5 -122t-161.5 -37q-91 0 -163.5 40t-113.5 110.5t-41 160.5q0 118 55.5 197t177.5 119t333 40h41v29q0 107 -50.5 159t-146.5 52q-74 0 -152.5 -29t-136.5 -74l-14 205q91 43 168 60.5t166 17.5q145 0 233 -42t129 -132.5t41 -239.5v-483
q0 -81 15 -174h-230q-8 30 -11 62t-3 81zM297 317q0 -73 43.5 -117t118.5 -44q101 0 154 68.5t53 242.5v49h-27q-179 0 -260.5 -47t-81.5 -152zM439 1460v-225h-197v225h197zM783 1460v-225h-197v225h197z" />
    <glyph glyph-name="aring" unicode="&#xe5;" horiz-adv-x="1024" 
d="M674 143h-4q-62 -85 -131.5 -122t-161.5 -37q-91 0 -163.5 40t-113.5 110.5t-41 160.5q0 118 55.5 197t177.5 119t333 40h41v29q0 107 -50.5 159t-146.5 52q-74 0 -152.5 -29t-136.5 -74l-14 205q91 43 168 60.5t166 17.5q145 0 233 -42t129 -132.5t41 -239.5v-483
q0 -81 15 -174h-230q-8 30 -11 62t-3 81zM297 317q0 -73 43.5 -117t118.5 -44q101 0 154 68.5t53 242.5v49h-27q-179 0 -260.5 -47t-81.5 -152zM334 1360q0 59 29 109t79.5 80t110.5 30q61 0 111 -30t79 -80.5t29 -108.5q0 -59 -29 -109t-79.5 -80t-110.5 -30t-110 29.5
t-79.5 79.5t-29.5 110zM551 1477q-29 0 -55.5 -16t-42.5 -43t-16 -58q0 -48 34.5 -82.5t81.5 -34.5q48 0 82.5 34.5t34.5 82.5q0 31 -16 58t-43.5 43t-59.5 16z" />
    <glyph glyph-name="ae" unicode="&#xe6;" horiz-adv-x="1589" 
d="M1137 -16q-153 0 -247 50.5t-132 153.5h-4q-72 -112 -154 -158t-205 -46q-87 0 -159 38.5t-114 109.5t-42 163q0 175 124 265.5t398 90.5h62v33q0 105 -48 156t-131 51q-69 0 -147 -28.5t-135 -74.5l-15 205q91 43 167 60.5t165 17.5q211 0 287 -143q49 71 116 107
t164 36q208 0 315 -143.5t107 -425.5v-43h-608q1 -148 66.5 -218.5t195.5 -70.5q86 0 152.5 18.5t124.5 63.5l12 -201q-155 -67 -315 -67zM1085 899q-84 0 -133.5 -75t-50.5 -206h363q0 141 -45.5 211t-133.5 70zM317 317q0 -72 44 -116.5t116 -44.5q94 0 140.5 76.5
t46.5 236.5v47h-27q-172 0 -246 -49.5t-74 -149.5z" />
    <glyph glyph-name="ccedilla" unicode="&#xe7;" horiz-adv-x="872" 
d="M522 -360q53 0 81 22.5t28 61.5q0 35 -25.5 55t-68.5 20q-49 0 -80 -14l-37 35l61 172q-190 31 -292.5 170.5t-102.5 363.5q0 168 61 290.5t175 188.5t274 66q53 0 113 -12t108 -31l-14 -201q-46 23 -89.5 37.5t-88.5 14.5q-277 0 -277 -355q0 -108 35 -186.5t100 -120
t154 -41.5q40 0 91.5 15t88.5 36l14 -200q-112 -43 -262 -43l-37 -111q38 12 80 12q83 0 131 -42t48 -109q0 -55 -31 -98t-84 -67t-115 -24q-58 0 -120 12.5t-93 28.5l33 82q43 -15 72.5 -21.5t68.5 -6.5z" />
    <glyph glyph-name="egrave" unicode="&#xe8;" horiz-adv-x="1024" 
d="M573 -16q-153 0 -262.5 64.5t-167 183.5t-57.5 280t54.5 288t153 199t226.5 72q208 0 315 -143.5t107 -425.5v-43h-610q0 -148 66.5 -218.5t201.5 -70.5q84 0 152 19.5t125 62.5l12 -201q-155 -67 -316 -67zM518 899q-54 0 -96 -34t-66 -97.5t-24 -149.5h364
q0 281 -178 281zM502 1466l131 -295h-160l-208 295h237z" />
    <glyph glyph-name="eacute" unicode="&#xe9;" horiz-adv-x="1024" 
d="M573 -16q-153 0 -262.5 64.5t-167 183.5t-57.5 280t54.5 288t153 199t226.5 72q208 0 315 -143.5t107 -425.5v-43h-610q0 -148 66.5 -218.5t201.5 -70.5q84 0 152 19.5t125 62.5l12 -201q-155 -67 -316 -67zM518 899q-54 0 -96 -34t-66 -97.5t-24 -149.5h364
q0 281 -178 281zM760 1466l-209 -295h-160l132 295h237z" />
    <glyph glyph-name="ecircumflex" unicode="&#xea;" horiz-adv-x="1024" 
d="M573 -16q-153 0 -262.5 64.5t-167 183.5t-57.5 280t54.5 288t153 199t226.5 72q208 0 315 -143.5t107 -425.5v-43h-610q0 -148 66.5 -218.5t201.5 -70.5q84 0 152 19.5t125 62.5l12 -201q-155 -67 -316 -67zM518 899q-54 0 -96 -34t-66 -97.5t-24 -149.5h364
q0 281 -178 281zM398 1171h-181l187 295h221l182 -295h-186l-111 179z" />
    <glyph glyph-name="edieresis" unicode="&#xeb;" horiz-adv-x="1024" 
d="M573 -16q-153 0 -262.5 64.5t-167 183.5t-57.5 280t54.5 288t153 199t226.5 72q208 0 315 -143.5t107 -425.5v-43h-610q0 -148 66.5 -218.5t201.5 -70.5q84 0 152 19.5t125 62.5l12 -201q-155 -67 -316 -67zM518 899q-54 0 -96 -34t-66 -97.5t-24 -149.5h364
q0 281 -178 281zM439 1460v-225h-197v225h197zM783 1460v-225h-197v225h197z" />
    <glyph glyph-name="igrave" unicode="&#xec;" horiz-adv-x="532" 
d="M393 1055v-1055h-254v1055h254zM256 1466l131 -295h-160l-208 295h237z" />
    <glyph glyph-name="iacute" unicode="&#xed;" horiz-adv-x="532" 
d="M393 1055v-1055h-254v1055h254zM514 1466l-209 -295h-160l132 295h237z" />
    <glyph glyph-name="icircumflex" unicode="&#xee;" horiz-adv-x="532" 
d="M393 1055v-1055h-254v1055h254zM152 1171h-181l187 295h221l182 -295h-186l-111 179z" />
    <glyph glyph-name="idieresis" unicode="&#xef;" horiz-adv-x="532" 
d="M393 1055v-1055h-254v1055h254zM193 1460v-225h-197v225h197zM537 1460v-225h-197v225h197z" />
    <glyph glyph-name="eth" unicode="&#xf0;" horiz-adv-x="1100" 
d="M537 1311l-177 -90l-67 77l158 82q-26 20 -73.5 44t-84.5 36l162 101q81 -25 174 -88l172 88l67 -78l-151 -78q152 -133 224.5 -338.5t72.5 -486.5q0 -596 -463 -596q-224 0 -344.5 138.5t-120.5 405.5q0 179 56.5 300.5t157 182t232.5 60.5q62 0 109.5 -23t83.5 -73l4 4
q-11 53 -46 123.5t-76.5 129.5t-69.5 79zM752 528q0 179 -50.5 271t-150.5 92q-99 0 -151 -91t-52 -272q0 -178 51.5 -271t151.5 -93t150.5 92t50.5 272z" />
    <glyph glyph-name="ntilde" unicode="&#xf1;" horiz-adv-x="1063" 
d="M549 862q-88 0 -134 -64.5t-46 -176.5v-621h-254v897q0 95 -9 158h238q4 -55 6 -93t2 -69h4q51 91 120 134.5t161 43.5q157 0 234 -100t77 -287v-684h-254v641q0 113 -33.5 167t-111.5 54zM649 1204q-26 0 -55 9.5t-69 28.5q-33 15 -57.5 23.5t-47.5 8.5q-37 0 -56.5 -23
t-19.5 -57h-119q3 71 28.5 125.5t67.5 84.5t99 30q28 0 52.5 -7t65.5 -24q9 -3 35.5 -15t43 -18t36.5 -6q30 0 45 23.5t15 56.5h127q-3 -66 -26.5 -119.5t-64.5 -87t-100 -33.5z" />
    <glyph glyph-name="ograve" unicode="&#xf2;" horiz-adv-x="1100" 
d="M86 528q0 177 56.5 298.5t160.5 183t248 61.5t248 -61.5t159.5 -183.5t55.5 -298q0 -265 -119 -404.5t-344 -139.5q-224 0 -344.5 138.5t-120.5 405.5zM752 528q0 179 -50.5 271t-150.5 92q-99 0 -151 -91t-52 -272q0 -178 51.5 -271t151.5 -93t150.5 92t50.5 272z
M541 1466l131 -295h-160l-208 295h237z" />
    <glyph glyph-name="oacute" unicode="&#xf3;" horiz-adv-x="1100" 
d="M86 528q0 177 56.5 298.5t160.5 183t248 61.5t248 -61.5t159.5 -183.5t55.5 -298q0 -265 -119 -404.5t-344 -139.5q-224 0 -344.5 138.5t-120.5 405.5zM752 528q0 179 -50.5 271t-150.5 92q-99 0 -151 -91t-52 -272q0 -178 51.5 -271t151.5 -93t150.5 92t50.5 272z
M799 1466l-209 -295h-160l132 295h237z" />
    <glyph glyph-name="ocircumflex" unicode="&#xf4;" horiz-adv-x="1100" 
d="M86 528q0 177 56.5 298.5t160.5 183t248 61.5t248 -61.5t159.5 -183.5t55.5 -298q0 -265 -119 -404.5t-344 -139.5q-224 0 -344.5 138.5t-120.5 405.5zM752 528q0 179 -50.5 271t-150.5 92q-99 0 -151 -91t-52 -272q0 -178 51.5 -271t151.5 -93t150.5 92t50.5 272z
M437 1171h-181l187 295h221l182 -295h-186l-111 179z" />
    <glyph glyph-name="otilde" unicode="&#xf5;" horiz-adv-x="1100" 
d="M86 528q0 177 56.5 298.5t160.5 183t248 61.5t248 -61.5t159.5 -183.5t55.5 -298q0 -265 -119 -404.5t-344 -139.5q-224 0 -344.5 138.5t-120.5 405.5zM752 528q0 179 -50.5 271t-150.5 92q-99 0 -151 -91t-52 -272q0 -178 51.5 -271t151.5 -93t150.5 92t50.5 272z
M668 1204q-26 0 -55 9.5t-69 28.5q-33 15 -57.5 23.5t-47.5 8.5q-37 0 -56.5 -23t-19.5 -57h-119q3 71 28.5 125.5t67.5 84.5t99 30q28 0 52.5 -7t65.5 -24q9 -3 35.5 -15t43 -18t36.5 -6q30 0 45 23.5t15 56.5h127q-3 -66 -26.5 -119.5t-64.5 -87t-100 -33.5z" />
    <glyph glyph-name="odieresis" unicode="&#xf6;" horiz-adv-x="1100" 
d="M86 528q0 177 56.5 298.5t160.5 183t248 61.5t248 -61.5t159.5 -183.5t55.5 -298q0 -265 -119 -404.5t-344 -139.5q-224 0 -344.5 138.5t-120.5 405.5zM752 528q0 179 -50.5 271t-150.5 92q-99 0 -151 -91t-52 -272q0 -178 51.5 -271t151.5 -93t150.5 92t50.5 272z
M478 1460v-225h-197v225h197zM822 1460v-225h-197v225h197z" />
    <glyph glyph-name="divide" unicode="&#xf7;" horiz-adv-x="1229" 
d="M614 784q-43 0 -79 21t-57 57t-21 80t21.5 80t57.5 57t78 21q43 0 79.5 -21t57.5 -57.5t21 -79.5t-21 -79.5t-57.5 -57.5t-79.5 -21zM1133 608v-180h-1037v180h1037zM614 -63q-43 0 -79 21t-57 57t-21 79q0 44 21.5 80t57.5 57t78 21q43 0 79.5 -21t57.5 -57.5t21 -79.5
q0 -42 -20.5 -78t-57 -57.5t-80.5 -21.5z" />
    <glyph glyph-name="oslash" unicode="&#xf8;" horiz-adv-x="1100" 
d="M86 528q0 176 56.5 298t161 183.5t247.5 61.5q176 0 293 -96l96 121l74 -58l-105 -131q105 -135 105 -379q0 -266 -119.5 -405t-343.5 -139q-93 0 -169.5 24.5t-127.5 69.5l-94 -119l-74 57l102 129q-50 68 -76 162t-26 221zM551 891q-99 0 -151 -91t-52 -272
q0 -90 14 -161l340 428q-20 45 -58.5 70.5t-92.5 25.5zM551 164q100 0 150.5 92t50.5 272q0 90 -15 160l-338 -428q52 -96 152 -96z" />
    <glyph glyph-name="ugrave" unicode="&#xf9;" horiz-adv-x="1063" 
d="M711 162h-4q-62 -103 -128.5 -140.5t-152.5 -37.5q-156 0 -233.5 99t-77.5 284v688h254v-639q0 -114 35.5 -168.5t115.5 -54.5q87 0 130.5 66t43.5 185v611h254v-901q0 -107 8 -154h-237q-8 128 -8 162zM522 1466l131 -295h-160l-208 295h237z" />
    <glyph glyph-name="uacute" unicode="&#xfa;" horiz-adv-x="1063" 
d="M711 162h-4q-62 -103 -128.5 -140.5t-152.5 -37.5q-156 0 -233.5 99t-77.5 284v688h254v-639q0 -114 35.5 -168.5t115.5 -54.5q87 0 130.5 66t43.5 185v611h254v-901q0 -107 8 -154h-237q-8 128 -8 162zM780 1466l-209 -295h-160l132 295h237z" />
    <glyph glyph-name="ucircumflex" unicode="&#xfb;" horiz-adv-x="1063" 
d="M711 162h-4q-62 -103 -128.5 -140.5t-152.5 -37.5q-156 0 -233.5 99t-77.5 284v688h254v-639q0 -114 35.5 -168.5t115.5 -54.5q87 0 130.5 66t43.5 185v611h254v-901q0 -107 8 -154h-237q-8 128 -8 162zM418 1171h-181l187 295h221l182 -295h-186l-111 179z" />
    <glyph glyph-name="udieresis" unicode="&#xfc;" horiz-adv-x="1063" 
d="M711 162h-4q-62 -103 -128.5 -140.5t-152.5 -37.5q-156 0 -233.5 99t-77.5 284v688h254v-639q0 -114 35.5 -168.5t115.5 -54.5q87 0 130.5 66t43.5 185v611h254v-901q0 -107 8 -154h-237q-8 128 -8 162zM459 1460v-225h-197v225h197zM803 1460v-225h-197v225h197z" />
    <glyph glyph-name="yacute" unicode="&#xfd;" horiz-adv-x="948" 
d="M211 -254q59 0 92 57.5t57 186.5l-350 1065h262l213 -797h4l203 797h246l-385 -1256q-79 -254 -301 -254q-39 0 -73 6t-58 12.5t-31 8.5l14 195q29 -12 54 -16.5t53 -4.5zM723 1466l-209 -295h-160l132 295h237z" />
    <glyph glyph-name="thorn" unicode="&#xfe;" horiz-adv-x="1100" 
d="M373 1536v-645h4q38 88 106 134t160 46q117 0 200.5 -65.5t127 -187.5t43.5 -290q0 -170 -43.5 -292.5t-125.5 -187t-196 -64.5q-94 0 -164.5 44t-107.5 124h-4v-594h-254v1978h254zM760 518q0 137 -18 216.5t-59 115t-112 35.5q-94 0 -146 -91t-52 -270
q0 -172 50.5 -263t145.5 -91q97 0 144 85.5t47 262.5z" />
    <glyph glyph-name="ydieresis" unicode="&#xff;" horiz-adv-x="948" 
d="M211 -254q59 0 92 57.5t57 186.5l-350 1065h262l213 -797h4l203 797h246l-385 -1256q-79 -254 -301 -254q-39 0 -73 6t-58 12.5t-31 8.5l14 195q29 -12 54 -16.5t53 -4.5zM402 1460v-225h-197v225h197zM746 1460v-225h-197v225h197z" />
    <glyph glyph-name="dotlessi" unicode="&#x131;" horiz-adv-x="532" 
d="M393 1055v-1055h-254v1055h254z" />
    <glyph glyph-name="Lslash" unicode="&#x141;" horiz-adv-x="909" 
d="M0 369v192l139 127v742h262v-502l258 235v-192l-258 -236v-526h471v-209h-733v496z" />
    <glyph glyph-name="lslash" unicode="&#x142;" horiz-adv-x="569" 
d="M0 356v201l158 172v807h254v-528l157 172v-201l-157 -172v-807h-254v528z" />
    <glyph glyph-name="OE" unicode="&#x152;" horiz-adv-x="1706" 
d="M930 0q-34 0 -125 -6t-123 -6q-190 0 -321.5 84t-199 246.5t-67.5 394.5q0 225 74 389.5t215 252t338 87.5q29 0 135.5 -6t140.5 -6h598v-209h-467v-381h439v-209h-439v-422h488v-209h-686zM705 1241q-168 0 -250 -126.5t-82 -399.5t87.5 -400t264.5 -127q77 0 141 21
v1012q-73 20 -161 20z" />
    <glyph glyph-name="oe" unicode="&#x153;" horiz-adv-x="1669" 
d="M1231 -16q-249 1 -352 186q-36 -84 -127 -135t-201 -51q-224 0 -344.5 138.5t-120.5 405.5q0 177 56.5 298.5t160.5 183t248 61.5q114 0 198 -51t121 -139q48 94 125.5 142t182.5 48q209 0 315 -143.5t106 -429.5v-39h-610q0 -146 66 -217.5t202 -71.5q84 0 151 19.5
t126 62.5l12 -201q-81 -36 -157.5 -51.5t-157.5 -15.5zM1178 899q-55 0 -97.5 -32.5t-66.5 -95.5t-25 -153h365q0 140 -44.5 210.5t-131.5 70.5zM752 528q0 179 -50.5 271t-150.5 92q-99 0 -151 -91t-52 -272q0 -178 51.5 -271t151.5 -93t150.5 92t50.5 272z" />
    <glyph glyph-name="Scaron" unicode="&#x160;" horiz-adv-x="1024" 
d="M434 188q101 0 160 56t59 153q0 54 -25 91.5t-72 69t-153 89.5l-84 47q-219 127 -219 367q0 118 59.5 206t162.5 135.5t231 47.5q147 0 297 -51l-12 -219q-87 35 -145 48t-124 13q-94 0 -146 -44.5t-52 -123.5q0 -53 24 -89.5t64.5 -64t123.5 -73.5q79 -43 130 -74
q85 -51 130.5 -103.5t63 -115t17.5 -152.5q0 -130 -58.5 -225t-167 -145.5t-256.5 -50.5q-219 0 -323 63l14 233q71 -44 148 -66t153 -22zM404 1792l110 -178l113 178h180l-186 -295h-221l-183 295h187z" />
    <glyph glyph-name="scaron" unicode="&#x161;" horiz-adv-x="834" 
d="M350 176q82 0 123 25.5t41 79.5q0 32 -17.5 56.5t-51 47.5t-104.5 64q-71 42 -118 71q-61 39 -105 101t-44 149q0 80 48 149.5t131.5 110.5t184.5 41q67 0 135.5 -11.5t128.5 -31.5l-14 -197q-60 23 -110.5 35.5t-110.5 12.5q-78 0 -113 -26.5t-35 -76.5q0 -30 17 -53.5
t50 -47.5t103 -67q107 -65 163 -110t82 -92t26 -111q0 -94 -48.5 -164t-137.5 -108.5t-207 -38.5q-76 0 -153 13.5t-140 37.5l12 211q84 -38 145 -54t119 -16zM309 1466l110 -178l113 178h180l-186 -295h-221l-183 295h187z" />
    <glyph glyph-name="Ydieresis" unicode="&#x178;" horiz-adv-x="1139" 
d="M16 1430h283l279 -572l262 572h282l-422 -863v-567h-262v573zM496 1786v-225h-197v225h197zM840 1786v-225h-197v225h197z" />
    <glyph glyph-name="Zcaron" unicode="&#x17d;" horiz-adv-x="1024" 
d="M637 1221h-547v209h852v-218l-569 -1003h577v-209h-876v229zM404 1792l110 -178l113 178h180l-186 -295h-221l-183 295h187z" />
    <glyph glyph-name="zcaron" unicode="&#x17e;" horiz-adv-x="834" 
d="M508 862h-436v193h690v-217l-443 -645h457v-193h-719v219zM309 1466l110 -178l113 178h180l-186 -295h-221l-183 295h187z" />
    <glyph glyph-name="florin" unicode="&#x192;" horiz-adv-x="1065" 
d="M156 -262q32 0 56 13t43 52t32 113l129 762h-187l23 160h188l45 256q34 183 110.5 269.5t201.5 86.5q93 0 186 -37l-25 -178q-27 19 -47.5 27t-48.5 8q-42 0 -67 -22t-41.5 -68.5t-30.5 -126.5l-37 -215h184l-22 -160h-186l-109 -676q-26 -160 -70 -260t-112 -148.5
t-166 -48.5q-46 0 -83.5 9t-84.5 28l22 185q53 -29 97 -29z" />
    <glyph glyph-name="circumflex" unicode="&#x2c6;" horiz-adv-x="455" 
d="M113 1171h-181l187 295h221l182 -295h-186l-111 179z" />
    <glyph glyph-name="caron" unicode="&#x2c7;" horiz-adv-x="455" 
d="M119 1466l110 -178l113 178h180l-186 -295h-221l-183 295h187z" />
    <glyph glyph-name="breve" unicode="&#x2d8;" horiz-adv-x="455" 
d="M227 1176q-129 0 -197 72t-71 202h119q1 -31 20 -64t52 -54t77 -21q43 0 77 21.5t53.5 54t19.5 63.5h119q-2 -131 -71.5 -202.5t-197.5 -71.5z" />
    <glyph glyph-name="dotaccent" unicode="&#x2d9;" horiz-adv-x="455" 
d="M326 1460v-225h-197v225h197z" />
    <glyph glyph-name="ring" unicode="&#x2da;" horiz-adv-x="455" 
d="M8 1360q0 59 29 109t79.5 80t110.5 30q61 0 111 -30t79 -80.5t29 -108.5q0 -59 -29 -109t-79.5 -80t-110.5 -30t-110 29.5t-79.5 79.5t-29.5 110zM225 1477q-29 0 -55.5 -16t-42.5 -43t-16 -58q0 -48 34.5 -82.5t81.5 -34.5q48 0 82.5 34.5t34.5 82.5q0 31 -16 58
t-43.5 43t-59.5 16z" />
    <glyph glyph-name="ogonek" unicode="&#x2db;" horiz-adv-x="455" 
d="M348 -455q-94 0 -149.5 54.5t-55.5 146.5q0 69 47 130.5t146 123.5h86q-64 -67 -95.5 -132t-31.5 -116t30.5 -81.5t75.5 -30.5q38 0 84 14l21 -80q-78 -29 -158 -29z" />
    <glyph glyph-name="tilde" unicode="&#x2dc;" horiz-adv-x="455" 
d="M344 1204q-26 0 -55 9.5t-69 28.5q-33 15 -57.5 23.5t-47.5 8.5q-37 0 -56.5 -23t-19.5 -57h-119q3 71 28.5 125.5t67.5 84.5t99 30q28 0 52.5 -7t65.5 -24q9 -3 35.5 -15t43 -18t36.5 -6q30 0 45 23.5t15 56.5h127q-3 -66 -26.5 -119.5t-64.5 -87t-100 -33.5z" />
    <glyph glyph-name="hungarumlaut" unicode="&#x2dd;" horiz-adv-x="455" 
d="M270 1466l-209 -295h-159l131 295h237zM614 1466l-208 -295h-160l131 295h237z" />
    <glyph glyph-name="pi" unicode="&#x3c0;" horiz-adv-x="1114" 
d="M33 850v203h1022v-203h-125v-498q0 -65 8 -103t30.5 -57.5t67.5 -19.5q30 0 58 6q4 -118 4 -178q-68 -14 -129 -14q-121 0 -183 29t-87 100.5t-25 208.5v526h-258v-850h-256v850h-127z" />
    <glyph glyph-name="uni060C" unicode="&#x60c;" horiz-adv-x="556" 
d="M228 514h205l-105 -514h-252z" />
    <glyph glyph-name="uni0615" unicode="&#x615;" 
d="M-57 1229h65v401h111v-233q29 36 66 56t73 20q68 0 103 -55t35 -147v-161h-453v119zM236 1355q-36 0 -67.5 -34t-43.5 -92h166v28q0 54 -13.5 76t-41.5 22z" />
    <glyph glyph-name="uni061B" unicode="&#x61b;" horiz-adv-x="602" 
d="M276 992h205l-105 -514h-252zM142 291h241v-291h-241v291z" />
    <glyph glyph-name="uni061F" unicode="&#x61f;" horiz-adv-x="752" 
d="M210 676q-59 75 -92.5 146t-33.5 150q0 102 42.5 177t120.5 114.5t182 39.5q133 0 299 -60l-17 -214q-61 35 -122 55.5t-112 20.5q-78 0 -123 -43t-45 -119q0 -80 74 -171q76 -93 110 -185.5t35 -214.5h-192l1 25q3 70 -30 134t-97 145zM322 264h218v-264h-218v264z" />
    <glyph glyph-name="uni0640" unicode="&#x640;" horiz-adv-x="286" 
d="M294 0h-329q-37 0 -49 16t-12 58v61q0 38 15 51t52 13h318q37 0 51.5 -13t14.5 -51v-60q0 -44 -11.5 -59.5t-49.5 -15.5z" />
    <glyph glyph-name="uni0647" unicode="&#x647;" horiz-adv-x="789" 
d="M381 0h-30q-117 0 -195.5 52t-117 138t-38.5 191q0 151 51.5 270t134.5 184.5t174 65.5q112 0 194.5 -79t121 -193t38.5 -228q0 -131 -42 -217t-117.5 -135t-173.5 -49zM499 415q0 71 -15 139.5t-47.5 113.5t-80.5 45q-41 0 -75.5 -39.5t-55 -108t-20.5 -151.5
q0 -105 38 -160t112 -55q72 0 108 52.5t36 163.5z" />
    <glyph glyph-name="uni064B" unicode="&#x64b;" 
d="M-212 1784h419v-128h-419v128zM-212 1592h419v-127h-419v127z" />
    <glyph glyph-name="uni064C" unicode="&#x64c;" 
d="M-189 1709q90 -119 170 -119q15 0 25 3q-22 32 -35.5 66t-13.5 65q0 42 18.5 80t50.5 61t71 23q63 0 100 -42t37 -117q0 -74 -39.5 -131.5t-99 -89.5t-114.5 -33q-100 0 -158 82l-71 -75l-67 86zM126 1726q0 24 -9 36.5t-24 12.5t-24 -16.5t-9 -40.5q0 -37 30 -77
q17 14 26.5 37.5t9.5 47.5z" />
    <glyph glyph-name="uni064D" unicode="&#x64d;" 
d="M-212 -233h419v-127h-419v127zM-212 -423h419v-128h-419v128z" />
    <glyph glyph-name="uni064E" unicode="&#x64e;" 
d="M-212 1592h419v-127h-419v127z" />
    <glyph glyph-name="uni064F" unicode="&#x64f;" 
d="M-9 1590q17 0 31 5q-52 64 -52 128q0 50 21 87.5t53.5 57.5t65.5 20q62 0 99 -41t37 -118q0 -79 -38.5 -136.5t-98 -87.5t-120.5 -30q-108 0 -202 42l23 118q59 -25 100.5 -35t80.5 -10zM140 1726q0 24 -9 36.5t-24 12.5t-24 -17t-9 -40q0 -37 30 -77q17 14 26.5 37.5
t9.5 47.5z" />
    <glyph glyph-name="uni0650" unicode="&#x650;" 
d="M-212 -233h419v-127h-419v127z" />
    <glyph glyph-name="uni0651" unicode="&#x651;" 
d="M212 1517q-43 -52 -114 -52q-26 0 -53.5 12t-46.5 31q-21 -19 -46.5 -31t-49.5 -12q-74 0 -117.5 51.5t-43.5 135.5v174h122v-178q0 -29 10 -44.5t28 -15.5q17 0 28.5 17.5t11.5 41.5v155h116v-155q0 -24 11.5 -41.5t28.5 -17.5t27.5 16t10.5 44v179h122v-175
q0 -82 -45 -135z" />
    <glyph glyph-name="uni0652" unicode="&#x652;" 
d="M0 1482q-51 0 -91 26.5t-62.5 71.5t-22.5 99q0 52 22 97t62 72t92 27q42 0 82.5 -21.5t67.5 -66.5t28 -108q0 -54 -23 -99.5t-63.5 -71.5t-91.5 -26zM67 1677q0 40 -19 67t-49 27q-27 0 -46.5 -27.5t-19.5 -66.5t19 -65.5t48 -26.5t48 26.5t19 65.5z" />
    <glyph glyph-name="uni0653" unicode="&#x653;" 
d="M121 1273q-64 0 -165 54q-52 29 -83.5 42t-51.5 13q-23 0 -42.5 -14.5t-48.5 -49.5l-94 82q40 67 88.5 101t111.5 34q61 0 170 -60q45 -25 76 -38t51 -13q22 0 41.5 32.5t30.5 67.5l114 -56q-35 -105 -81 -150t-117 -45z" />
    <glyph glyph-name="uni0654" unicode="&#x654;" 
d="M-161 1573h92q-55 55 -55 123q0 80 49 127t135 47q42 0 92 -10l-9 -116q-45 13 -73 13q-34 0 -55 -21t-21 -57q0 -45 33.5 -75.5t81.5 -30.5h52v-111h-322v111z" />
    <glyph glyph-name="uni0655" unicode="&#x655;" 
d="M-161 -432h92q-55 55 -55 123q0 79 48.5 126t134.5 47q45 0 93 -9l-9 -116q-28 7 -44.5 10t-33.5 3q-31 0 -51 -21.5t-20 -56.5q0 -44 33.5 -75t84.5 -31h49v-112h-322v112z" />
    <glyph glyph-name="uni0656" unicode="&#x656;" 
d="M-67 -306h129v-410h-129v410z" />
    <glyph glyph-name="uni0658" unicode="&#x658;" 
d="M167 1589q0 -50 -19 -95.5t-57 -74.5t-92 -29q-52 0 -91 25t-60 68t-21 94q0 56 24 111t64 95l62 -55q-20 -26 -30 -52.5t-10 -60.5q0 -38 17 -62t48 -24q29 0 44 23t15 61q0 60 -24 105l61 57q24 -26 46.5 -79t22.5 -107z" />
    <glyph glyph-name="uni0660" unicode="&#x660;" horiz-adv-x="961" 
d="M658 478l-172 -172l-164 164l172 172z" />
    <glyph glyph-name="uni0661" unicode="&#x661;" horiz-adv-x="961" 
d="M363 1436h230v-1436h-230v1436z" />
    <glyph glyph-name="uni0662" unicode="&#x662;" horiz-adv-x="961" 
d="M201 1436h652v-233h-398l121 -1203h-219z" />
    <glyph glyph-name="uni0663" unicode="&#x663;" horiz-adv-x="961" 
d="M55 1434h227l21 -258q22 -9 33 -9q43 0 64.5 64.5t23.5 204.5h206q0 -149 -37 -261q21 -8 37 -8q94 0 94 269h200q-4 -461 -274 -461q-36 0 -77 13.5t-74 34.5q-40 -22 -70 -30.5t-69 -8.5q-20 0 -34 2l99 -986h-224z" />
    <glyph glyph-name="uni0664" unicode="&#x664;" horiz-adv-x="961" 
d="M510 -34q-84 0 -158 27.5t-120.5 86t-46.5 146.5q0 81 30 156.5t74.5 139.5t114.5 149q-205 121 -205 283q0 134 120 276q122 143 330 206v-236q-115 -40 -179 -104q-63 -64 -63 -115q0 -41 74 -85q70 -40 127 -84q54 -42 54 -77q0 -67 -132 -213q-131 -146 -131 -223
q0 -48 40.5 -70.5t125.5 -22.5q81 0 237 60l-13 -237q-59 -30 -134 -46.5t-145 -16.5z" />
    <glyph glyph-name="uni0665" unicode="&#x665;" horiz-adv-x="961" 
d="M477 -38q-132 0 -216 68t-121 180t-37 251q0 241 121 440t260 199q113 0 193.5 -101t125.5 -236q52 -157 52 -323q0 -115 -43 -225.5t-128.5 -181.5t-206.5 -71zM641 479q0 91 -20 176.5t-58.5 139.5t-90.5 54q-45 0 -81 -48.5t-56 -132t-20 -183.5q0 -138 43 -213
t126 -75q59 0 94 46t49 110.5t14 125.5z" />
    <glyph glyph-name="uni0666" unicode="&#x666;" horiz-adv-x="961" 
d="M518 1203h-399v233h603l145 -1436h-220z" />
    <glyph glyph-name="uni0667" unicode="&#x667;" horiz-adv-x="961" 
d="M7 1436h242l249 -1000l221 1000h229l-373 -1436h-160z" />
    <glyph glyph-name="uni0668" unicode="&#x668;" horiz-adv-x="961" 
d="M458 1001l-220 -1001h-231l373 1436h159l409 -1436h-239z" />
    <glyph glyph-name="uni0669" unicode="&#x669;" horiz-adv-x="961" 
d="M588 615h-130q-107 0 -189 49.5t-127 138.5t-45 203q0 108 44 207t124.5 161t185.5 62q76 0 144.5 -37t117 -117.5t58.5 -204.5l109 -1077h-221zM417 1223q-41 0 -68.5 -31t-40 -76.5t-12.5 -88.5q0 -104 55 -150.5t138 -46.5h76l-22 204q-21 189 -126 189z" />
    <glyph glyph-name="uni066A" unicode="&#x66a;" horiz-adv-x="869" 
d="M626 1255l158 -72l-569 -1226l-160 74zM55 1082l157 153l157 -153l-157 -152zM468 131l157 153l157 -153l-157 -152z" />
    <glyph glyph-name="uni066B" unicode="&#x66b;" horiz-adv-x="457" 
d="M143 291h250l-154 -514h-205z" />
    <glyph glyph-name="uni066C" unicode="&#x66c;" horiz-adv-x="457" 
d="M143 848h250l-154 -514h-205z" />
    <glyph glyph-name="uni066D" unicode="&#x66d;" horiz-adv-x="829" 
d="M368 985l-177 -166l-27 22l89 227l-196 133l11 38l233 -34l50 245h35l46 -245l236 34l10 -38l-202 -133l92 -227l-30 -22z" />
    <glyph glyph-name="uni0670" unicode="&#x670;" 
d="M-67 1878h129v-408h-129v408z" />
    <glyph glyph-name="uni06C0" unicode="&#x6c0;" horiz-adv-x="789" 
d="M381 0h-30q-117 0 -195.5 52t-117 138t-38.5 191q0 151 51.5 270t134.5 184.5t174 65.5q112 0 194.5 -79t121 -193t38.5 -228q0 -131 -42 -217t-117.5 -135t-173.5 -49zM499 415q0 71 -15 139.5t-47.5 113.5t-80.5 45q-41 0 -75.5 -39.5t-55 -108t-20.5 -151.5
q0 -105 38 -160t112 -55q72 0 108 52.5t36 163.5zM108 1273h94q-16 31 -26 69.5t-10 73.5q0 93 59 152.5t173 59.5q31 0 57.5 -3t64.5 -12l-20 -174q-7 2 -40.5 9.5t-50.5 7.5q-71 0 -71 -73q0 -46 30 -78t83 -32h72v-168h-415v168z" />
    <glyph glyph-name="uni06C2" unicode="&#x6c2;" horiz-adv-x="789" 
d="M381 0h-30q-117 0 -195.5 52t-117 138t-38.5 191q0 151 51.5 270t134.5 184.5t174 65.5q112 0 194.5 -79t121 -193t38.5 -228q0 -131 -42 -217t-117.5 -135t-173.5 -49zM499 415q0 71 -15 139.5t-47.5 113.5t-80.5 45q-41 0 -75.5 -39.5t-55 -108t-20.5 -151.5
q0 -105 38 -160t112 -55q72 0 108 52.5t36 163.5zM117 1273h94q-16 31 -26 69.5t-10 73.5q0 93 59 152.5t173 59.5q31 0 57.5 -3t64.5 -12l-20 -174q-7 2 -40.5 9.5t-50.5 7.5q-71 0 -71 -73q0 -46 30 -78t83 -32h72v-168h-415v168z" />
    <glyph glyph-name="uni06C3" unicode="&#x6c3;" horiz-adv-x="789" 
d="M381 0h-30q-117 0 -195.5 52t-117 138t-38.5 191q0 151 51.5 270t134.5 184.5t174 65.5q112 0 194.5 -79t121 -193t38.5 -228q0 -131 -42 -217t-117.5 -135t-173.5 -49zM499 415q0 71 -15 139.5t-47.5 113.5t-80.5 45q-41 0 -75.5 -39.5t-55 -108t-20.5 -151.5
q0 -105 38 -160t112 -55q72 0 108 52.5t36 163.5zM226 1107q-42 0 -74.5 31t-32.5 75q0 45 31.5 76t75.5 31t75 -31.5t31 -75.5q0 -43 -30.5 -74.5t-75.5 -31.5zM500 1107q-43 0 -75 31.5t-32 74.5q0 45 31 76t76 31q44 0 75 -31.5t31 -75.5q0 -43 -30.5 -74.5t-75.5 -31.5z
" />
    <glyph glyph-name="uni06D4" unicode="&#x6d4;" horiz-adv-x="552" 
d="M50 108l48 205q58 -46 104.5 -65t82.5 -19h204v-229h-209q-147 0 -230 108z" />
    <glyph glyph-name="uni06D5" unicode="&#x6d5;" horiz-adv-x="789" 
d="M381 0h-30q-117 0 -195.5 52t-117 138t-38.5 191q0 151 51.5 270t134.5 184.5t174 65.5q112 0 194.5 -79t121 -193t38.5 -228q0 -131 -42 -217t-117.5 -135t-173.5 -49zM499 415q0 71 -15 139.5t-47.5 113.5t-80.5 45q-41 0 -75.5 -39.5t-55 -108t-20.5 -151.5
q0 -105 38 -160t112 -55q72 0 108 52.5t36 163.5z" />
    <glyph glyph-name="uni06F0" unicode="&#x6f0;" horiz-adv-x="961" 
d="M658 478l-172 -172l-164 164l172 172z" />
    <glyph glyph-name="uni06F1" unicode="&#x6f1;" horiz-adv-x="961" 
d="M363 1436h230v-1436h-230v1436z" />
    <glyph glyph-name="uni06F2" unicode="&#x6f2;" horiz-adv-x="961" 
d="M201 1436h652v-233h-398l121 -1203h-219z" />
    <glyph glyph-name="uni06F3" unicode="&#x6f3;" horiz-adv-x="961" 
d="M55 1434h227l21 -258q22 -9 33 -9q43 0 64.5 64.5t23.5 204.5h206q0 -149 -37 -261q21 -8 37 -8q94 0 94 269h200q-4 -461 -274 -461q-36 0 -77 13.5t-74 34.5q-40 -22 -70 -30.5t-69 -8.5q-20 0 -34 2l99 -986h-224z" />
    <glyph glyph-name="uni06F4" unicode="&#x6f4;" horiz-adv-x="961" 
d="M9 1436h234l29 -324q7 -2 29.5 -11t42.5 -14.5t38 -7.5q-30 49 -49 107.5t-19 108.5q0 78 29 142t86 102t136 38q15 0 44.5 -3.5t54.5 -8.5v-182q-56 7 -82 7q-40 0 -62.5 -32.5t-22.5 -89.5q0 -49 28.5 -105.5t66.5 -92.5q62 16 101.5 84.5t47.5 186.5h206
q-10 -240 -110 -368t-275 -128q-128 0 -265 37l97 -882h-238z" />
    <glyph glyph-name="uni06F5" unicode="&#x6f5;" horiz-adv-x="961" 
d="M477 27q-84 -61 -173 -61q-135 0 -202 124t-67 374q0 438 125 705q126 267 323 267q196 0 319 -261q121 -258 121 -689q0 -168 -30.5 -285t-87 -177t-134.5 -60q-85 0 -194 63zM383 224q19 0 38 9.5t65 40.5q43 -31 62 -41.5t33 -10.5q58 0 85.5 78t27.5 248
q0 274 -65 463t-159 189q-98 0 -157 -183q-58 -181 -58 -471q0 -111 10 -178.5t38 -104t80 -39.5z" />
    <glyph glyph-name="uni06F6" unicode="&#x6f6;" horiz-adv-x="961" 
d="M153 -94l-150 179q105 132 201 243.5t200 218.5q-134 99 -195 203.5t-61 232.5q0 125 52 228.5t148.5 164t223.5 60.5q55 0 122 -12.5t120 -33.5v-249q-64 32 -119 45.5t-108 13.5q-58 0 -104.5 -29t-72.5 -79.5t-26 -110.5q0 -79 38 -148t126 -145q151 142 285 244
l118 -182q-166 -130 -295.5 -254.5t-245.5 -262t-257 -327.5z" />
    <glyph glyph-name="uni06F7" unicode="&#x6f7;" horiz-adv-x="961" 
d="M7 1436h242l249 -1000l221 1000h229l-373 -1436h-160z" />
    <glyph glyph-name="uni06F8" unicode="&#x6f8;" horiz-adv-x="961" 
d="M458 1001l-220 -1001h-231l373 1436h159l409 -1436h-239z" />
    <glyph glyph-name="uni06F9" unicode="&#x6f9;" horiz-adv-x="961" 
d="M592 615h-130q-107 0 -189 49.5t-127 138.5t-45 203q0 108 44 207t124.5 161t185.5 62q76 0 144.5 -37t117 -117.5t58.5 -204.5l109 -1077h-221zM421 1223q-41 0 -68.5 -31t-40 -76.5t-12.5 -88.5q0 -104 55 -150.5t138 -46.5h76l-22 204q-21 189 -126 189z" />
    <glyph glyph-name="uni2002" unicode="&#x2002;" horiz-adv-x="1024" 
 />
    <glyph glyph-name="uni2003" unicode="&#x2003;" horiz-adv-x="2048" 
 />
    <glyph glyph-name="uni2009" unicode="&#x2009;" horiz-adv-x="205" 
 />
    <glyph glyph-name="uni200A" unicode="&#x200a;" horiz-adv-x="41" 
 />
    <glyph glyph-name="uni200C" unicode="&#x200c;" 
d="M139 1858l-106 -107l106 -106l-33 -33l-106 104l-109 -106l-32 35l106 106l-106 107l32 34l109 -108l106 106z" />
    <glyph glyph-name="uni200D" unicode="&#x200d;" 
d="M158 1634v95h-314v-95h-47v142h408v-142h-47z" />
    <glyph glyph-name="uni200E" unicode="&#x200e;" 
d="M20 1645l84 84h-258v47h258l-84 82l33 34l142 -141l-142 -141z" />
    <glyph glyph-name="uni200F" unicode="&#x200f;" 
d="M-104 1776h260v-47h-258l82 -84l-33 -33l-142 139l142 141l33 -32z" />
    <glyph glyph-name="endash" unicode="&#x2013;" horiz-adv-x="1024" 
d="M1024 672v-180h-1024v180h1024z" />
    <glyph glyph-name="emdash" unicode="&#x2014;" horiz-adv-x="2048" 
d="M2048 672v-180h-2048v180h2048z" />
    <glyph glyph-name="quoteleft" unicode="&#x2018;" horiz-adv-x="532" 
d="M442 1536l-106 -508h-246l156 508h196z" />
    <glyph glyph-name="quoteright" unicode="&#x2019;" horiz-adv-x="532" 
d="M442 1536l-155 -508h-197l107 508h245z" />
    <glyph glyph-name="quotesinglbase" unicode="&#x201a;" horiz-adv-x="532" 
d="M418 262l-156 -508h-196l106 508h246z" />
    <glyph glyph-name="quotedblleft" unicode="&#x201c;" horiz-adv-x="1063" 
d="M526 1536l-106 -508h-246l156 508h196zM889 1536l-107 -508h-245l155 508h197z" />
    <glyph glyph-name="quotedblright" unicode="&#x201d;" horiz-adv-x="1063" 
d="M526 1536l-155 -508h-197l107 508h245zM889 1536l-156 -508h-196l106 508h246z" />
    <glyph glyph-name="quotedblbase" unicode="&#x201e;" horiz-adv-x="1063" 
d="M526 262l-155 -508h-197l107 508h245zM889 262l-156 -508h-196l106 508h246z" />
    <glyph glyph-name="dagger" unicode="&#x2020;" horiz-adv-x="1065" 
d="M137 879v192h285v359h221v-359h285v-192h-285v-879h-221v879h-285z" />
    <glyph glyph-name="daggerdbl" unicode="&#x2021;" horiz-adv-x="1065" 
d="M137 317v181h291v434h-291v180h291v318h209v-318h291v-180h-291v-434h291v-181h-291v-317h-209v317h-291z" />
    <glyph glyph-name="bullet" unicode="&#x2022;" horiz-adv-x="1024" 
d="M512 356q-98 0 -180.5 48.5t-130 131.5t-47.5 179q0 97 49 181.5t131.5 130.5t177.5 46q96 0 178.5 -46.5t131 -131.5t48.5 -180q0 -96 -47.5 -179t-130 -131.5t-180.5 -48.5z" />
    <glyph glyph-name="ellipsis" unicode="&#x2026;" horiz-adv-x="2048" 
d="M465 266v-266h-246v266h246zM1147 266v-266h-246v266h246zM1829 266v-266h-246v266h246z" />
    <glyph glyph-name="uni202A" unicode="&#x202a;" 
d="M20 1645l84 84h-102v47h102l-84 82l33 34l142 -141l-142 -141zM-57 1729h-117v47h117v-47z" />
    <glyph glyph-name="uni202B" unicode="&#x202b;" 
d="M-104 1776h102v-47h-100l82 -84l-33 -33l-142 139l142 141l33 -32zM174 1729h-117v47h117v-47z" />
    <glyph glyph-name="uni202C" unicode="&#x202c;" 
d="M23 1817v-209h-48v207l-81 -82l-35 32l141 142l141 -142l-35 -32z" />
    <glyph glyph-name="uni202D" unicode="&#x202d;" 
d="M-43 1610l-33 35l84 84h-219v47h217l-82 82l33 34l141 -141zM90 1610l-33 35l109 106l-109 107l33 34l141 -141z" />
    <glyph glyph-name="uni202E" unicode="&#x202e;" 
d="M-164 1800l107 -106l-33 -35l-141 141l141 142l33 -35zM-6 1823h219v-47h-219l84 -82l-35 -35l-139 141l139 142l35 -35z" />
    <glyph glyph-name="perthousand" unicode="&#x2030;" horiz-adv-x="1896" 
d="M997 1475l-565 -1520h-127l565 1520h127zM70 1065q0 196 60 290.5t187 94.5q125 0 186.5 -94t61.5 -291t-61.5 -291t-186.5 -94t-186 94t-61 291zM414 1065q0 93 -9 145t-30 74.5t-60 22.5q-36 0 -56 -24t-29 -76.5t-9 -141.5q0 -96 9 -148t29.5 -73t57.5 -21
q38 0 58.5 22t29.5 73.5t9 146.5zM737 365q0 196 60.5 290.5t187.5 94.5q125 0 186.5 -94t61.5 -291q0 -200 -61 -292.5t-187 -92.5t-187 93t-61 292zM1331 365q0 196 60 290.5t188 94.5q125 0 186.5 -94t61.5 -291q0 -200 -61 -292.5t-187 -92.5q-127 0 -187.5 94
t-60.5 291zM1081 365q0 95 -8.5 146.5t-29.5 73t-60 21.5q-35 0 -57.5 -24t-29.5 -75.5t-7 -141.5q0 -96 9 -148t29.5 -73t57.5 -21q38 0 58.5 21.5t29 73.5t8.5 147zM1675 365q0 94 -9 146t-30 73.5t-59 21.5q-36 0 -56.5 -23t-29 -75t-8.5 -143q0 -96 9 -148t29.5 -73
t57.5 -21t57.5 22t29.5 73.5t9 146.5z" />
    <glyph glyph-name="guilsinglleft" unicode="&#x2039;" horiz-adv-x="606" 
d="M295 954h205l-201 -424l201 -424h-205l-217 424z" />
    <glyph glyph-name="guilsinglright" unicode="&#x203a;" horiz-adv-x="606" 
d="M106 954h205l217 -424l-217 -424h-205l201 424z" />
    <glyph glyph-name="fraction" unicode="&#x2044;" horiz-adv-x="342" 
d="M571 1499l-641 -1569h-159l641 1569h159z" />
    <glyph glyph-name="Euro" unicode="&#x20ac;" horiz-adv-x="1065" 
d="M774 -20q-149 0 -267.5 64t-197.5 183.5t-110 284.5h-179l29 123h135q0 7 -2 31t-2 51q0 31 4 78h-164l29 123h150q33 166 112.5 286t195.5 183t255 63q87 0 157.5 -14.5t147.5 -51.5l-47 -215q-35 27 -98 42.5t-113 15.5q-118 0 -203.5 -77.5t-128.5 -231.5h492
l-29 -123h-483q-4 -30 -4 -76q0 -56 4 -84h454l-26 -123h-406q46 -148 133 -225.5t201 -77.5q53 0 110 12t97 35l12 -240q-122 -36 -258 -36z" />
    <glyph glyph-name="afii61289" unicode="&#x2113;" horiz-adv-x="1024" 
d="M584 -29q-96 0 -165.5 35.5t-106 98.5t-36.5 145v149l-118 -110l-82 125l198 174v512q0 106 43.5 192t119 135.5t167.5 49.5q82 0 144.5 -35.5t96.5 -101.5t34 -154q0 -154 -92 -307.5t-283 -327.5v-264q0 -69 36.5 -108.5t98.5 -39.5q44 0 88.5 19t93.5 61l80 -121
q-145 -127 -317 -127zM692 1171q0 68 -25 110t-67 42q-25 0 -47 -21t-35.5 -62t-13.5 -97v-398q95 103 141.5 212.5t46.5 213.5z" />
    <glyph glyph-name="trademark" unicode="&#x2122;" horiz-adv-x="2048" 
d="M106 1278v152h680v-152h-260v-700h-159v700h-261zM1757 1229l-239 -651h-127l-240 651h-4v-651h-160v852h246l223 -576l219 576h246v-852h-160v651h-4z" />
    <glyph glyph-name="uni2126" unicode="&#x2126;" horiz-adv-x="1307" 
d="M973 797q0 135 -40 234.5t-113 152.5t-169 53q-95 0 -166.5 -54t-111 -154t-39.5 -234q0 -158 62.5 -303.5t176.5 -274.5v-217h-516v205h283q-133 141 -197.5 297.5t-64.5 337.5q0 190 76 329.5t209 213t301 73.5q160 0 288.5 -75.5t201.5 -213.5t73 -319
q0 -367 -258 -643h280v-205h-516v217q115 129 177.5 275.5t62.5 304.5z" />
    <glyph glyph-name="estimated" unicode="&#x212e;" horiz-adv-x="1229" 
d="M618 -35q-155 0 -275 73.5t-186.5 202t-66.5 289.5q0 165 68.5 294t189 200.5t270.5 71.5q154 0 273.5 -71t187.5 -199.5t70 -295.5h-827v-370q120 -121 296 -121q130 0 223.5 58.5t172.5 187.5l71 -43q-65 -102 -133 -162.5t-148.5 -87.5t-185.5 -27zM614 1024
q-169 0 -292 -123v-297h596v297q-129 123 -304 123z" />
    <glyph glyph-name="partialdiff" unicode="&#x2202;" horiz-adv-x="1092" 
d="M451 1419q-70 0 -133.5 -24.5t-116.5 -71.5l-64 166q72 58 159 86.5t181 28.5q149 0 266.5 -92t184.5 -266.5t67 -411.5q0 -257 -62 -447.5t-181 -293.5t-285 -103q-115 0 -203.5 63.5t-137 172t-48.5 239.5q0 152 54.5 272.5t149 188t210.5 67.5q90 0 167.5 -44.5
t122.5 -119.5v58q0 162 -45 283t-121 185t-165 64zM530 813q-64 0 -119 -49t-87.5 -130.5t-32.5 -176.5q0 -81 25 -145.5t70 -101t101 -36.5q68 0 124.5 57.5t95.5 162t55 243.5q-30 79 -92 127.5t-140 48.5z" />
    <glyph glyph-name="uni2206" unicode="&#x2206;" horiz-adv-x="1235" 
d="M770 1430l453 -1430h-1211l469 1430h289zM332 211h563l-272 973h-5z" />
    <glyph glyph-name="product" unicode="&#x220f;" horiz-adv-x="1509" 
d="M348 1409v-1847h-219v2048h1251v-2048h-221v1847h-811z" />
    <glyph glyph-name="summation" unicode="&#x2211;" horiz-adv-x="1317" 
d="M678 596l-600 842v172h1161v-201h-868l571 -811l-608 -838h932v-198h-1215v176z" />
    <glyph glyph-name="minus" unicode="&#x2212;" horiz-adv-x="1229" 
d="M1133 608v-180h-1037v180h1037z" />
    <glyph glyph-name="radical" unicode="&#x221a;" horiz-adv-x="1087" 
d="M57 168l-82 174l293 133l273 -575l348 1710h223l-432 -2048h-207l-313 653z" />
    <glyph glyph-name="infinity" unicode="&#x221e;" horiz-adv-x="1651" 
d="M432 174q-95 0 -172.5 43t-123.5 122.5t-46 192.5q0 103 41.5 185.5t117.5 129t177 46.5q65 0 123.5 -20t126 -73t149.5 -149q114 135 208.5 189.5t189.5 54.5q101 0 177.5 -47t117.5 -129t41 -182q0 -109 -42.5 -191t-118.5 -129t-177 -47q-102 0 -195.5 55t-200.5 174
q-111 -119 -200 -172t-193 -53zM1225 358q73 0 115 49t42 123q0 78 -43.5 127.5t-119.5 49.5q-47 0 -92 -23t-83 -56t-89 -85l-17 -17q86 -89 153.5 -128.5t133.5 -39.5zM424 705q-47 0 -83 -24t-55.5 -64t-19.5 -87q0 -76 44.5 -123t121.5 -47q61 0 134 42.5t147 125.5
q-91 94 -161 135.5t-128 41.5z" />
    <glyph glyph-name="integral" unicode="&#x222b;" horiz-adv-x="1229" 
d="M406 -438q-62 0 -111.5 19t-77 52.5t-27.5 75.5q0 44 27.5 72.5t71.5 28.5q45 0 69.5 -27t44.5 -84q5 -14 12 -20.5t17 -6.5q24 0 31.5 18t7.5 54q0 91 -4 159q-2 40 -2 54v1147v57q0 104 8 172t37 129q36 78 95 113t151 35q57 0 106.5 -19.5t79 -53.5t29.5 -77
t-30 -71.5t-75 -28.5q-44 0 -67 22t-39 64q-8 22 -16 34.5t-23 12.5q-23 0 -31 -18t-8 -58q0 -39 2 -115q2 -98 2 -212l2 -986l-2 -165q-2 -165 -67.5 -271t-212.5 -106z" />
    <glyph glyph-name="approxequal" unicode="&#x2248;" horiz-adv-x="1214" 
d="M860 567q-57 0 -129.5 21t-181.5 61q-90 34 -136 47t-79 13q-56 0 -88.5 -40t-44.5 -102h-140q19 169 95 256.5t198 87.5q55 0 116.5 -17t147.5 -48l47 -17q77 -28 125.5 -41.5t98.5 -13.5q58 0 88 39t41 96h139q-17 -163 -93.5 -252.5t-203.5 -89.5zM856 152
q-57 0 -126 20t-184 61q-88 32 -134 46t-82 14q-56 0 -88.5 -40t-44.5 -101h-140q19 168 96 256t197 88q55 0 115.5 -16t148.5 -50l45 -17q79 -28 127.5 -41.5t98.5 -13.5q53 1 84 33t47 103h137q-17 -166 -94 -254t-203 -88z" />
    <glyph glyph-name="notequal" unicode="&#x2260;" horiz-adv-x="1214" 
d="M213 -14l113 217h-250v209h354l125 239h-479v207h583l158 311l182 -92l-110 -219h250v-207h-357l-123 -239h480v-209h-584l-160 -312z" />
    <glyph glyph-name="lessequal" unicode="&#x2264;" horiz-adv-x="1214" 
d="M1139 1135v-220l-781 -251l781 -240v-219l-1063 352v211zM1139 135v-207h-1063v207h1063z" />
    <glyph glyph-name="greaterequal" unicode="&#x2265;" horiz-adv-x="1214" 
d="M854 664l-778 251v220l1063 -367v-211l-1063 -352v219zM1139 135v-207h-1063v207h1063z" />
    <glyph glyph-name="lozenge" unicode="&#x25ca;" horiz-adv-x="1214" 
d="M508 1530h194l363 -801l-363 -801h-194l-361 799zM360 729l244 -596l250 596l-250 594z" />
    <glyph glyph-name="uni25CC" unicode="&#x25cc;" horiz-adv-x="823" 
d="M412 598q-50 0 -50 51q0 49 50 49q49 0 49 -49q0 -25 -12.5 -38t-36.5 -13zM256 561q-45 0 -45 49t45 49q25 0 38 -12.5t13 -36.5q0 -49 -51 -49zM565 561q-23 0 -37 13t-14 36q0 24 14 36.5t37 12.5q47 0 47 -49t-47 -49zM143 446q-47 0 -47 52q0 47 47 47q52 0 52 -47
q0 -52 -52 -52zM680 446q-49 0 -49 52q0 47 49 47q47 0 47 -47q0 -52 -47 -52zM104 295q-47 0 -47 47q0 49 47 49q26 0 39 -11.5t13 -37.5q0 -47 -52 -47zM717 295q-47 0 -47 47q0 49 47 49q49 0 49 -49q0 -47 -49 -47zM143 141q-47 0 -47 47q0 50 47 50q52 0 52 -50
q0 -47 -52 -47zM680 141q-49 0 -49 47q0 50 49 50q47 0 47 -50q0 -47 -47 -47zM256 27q-45 0 -45 47q0 51 45 51q51 0 51 -51q0 -47 -51 -47zM565 27q-23 0 -37 11.5t-14 35.5q0 23 14.5 37t36.5 14q47 0 47 -51q0 -47 -47 -47zM412 -12q-50 0 -50 49t50 49q49 0 49 -49
t-49 -49z" />
    <glyph glyph-name="uni274A" unicode="&#x274a;" horiz-adv-x="675" 
d="M256 1136q-26 -37 -70 -105q-5 -8 -9 -14t-7 -11l-77 54l95 143l-157 58l27 90l149 -56v165h92v-167l149 54l27 -83l-150 -61l94 -137l-77 -66z" />
    <glyph glyph-name="fi" unicode="&#xfb01;" horiz-adv-x="1176" 
d="M20 868v187h177v221q0 133 77 209t226 76q36 0 68 -4.5t114 -20.5l-10 -184q-33 8 -55.5 12t-45.5 4q-55 0 -87.5 -36t-32.5 -91v-186h192v-187h-192v-868h-254v868h-177zM1042 1503v-250h-262v250h262zM1038 1055v-1055h-254v1055h254z" />
    <glyph glyph-name="fl" unicode="&#xfb02;" horiz-adv-x="1176" 
d="M20 868v187h177v221q0 133 77 209t226 76q36 0 68 -4.5t114 -20.5l-10 -184q-33 8 -55.5 12t-45.5 4q-55 0 -87.5 -36t-32.5 -91v-186h192v-187h-192v-868h-254v868h-177zM1038 1536v-1536h-254v1536h254z" />
    <glyph glyph-name="uniFD3E" unicode="&#xfd3e;" horiz-adv-x="1251" 
d="M692 205q14 -114 79 -236q69 -126 155 -229q87 -104 103 -119q15 -14 15 -30q0 -7 -4.5 -13t-13.5 -6q-43 0 -165 113q-121 112 -228 258q-105 145 -135 260l-162 -29q-25 0 -25 23q0 16 39 68l56 75l23 31q40 53 40 68q0 12 -6 19t-17 7q-21 0 -114 -87
q-91 -87 -117 -87q-29 0 -29 52v114q-131 48 -131 108q0 48 131 113v131q0 17 7.5 27t21.5 10q10 0 30 -17q20 -16 146 -125l21 -18q19 -16 33 -16q12 0 19 6.5t7 16.5q0 15 -46 76q-12 18 -22.5 31.5t-18.5 24.5q-37 50 -54 75.5t-17 35.5q0 23 25 23l162 -29
q31 117 137 262q104 144 226 257q121 112 165 112q9 0 13.5 -6t4.5 -12q0 -15 -8 -23q-10 -8 -98 -112q-93 -110 -161 -233q-72 -128 -85 -247l68 10q46 7 58 7q10 0 16 -5.5t6 -15.5q0 -15 -39 -57l-88 -97q-49 -53 -49 -73q0 -19 22 -19q21 0 64 34l101 76q56 43 71 43
q18 0 18 -40v-113q64 -23 98.5 -53t34.5 -58q0 -57 -133 -112v-115q0 -45 -18 -45q-10 0 -23 10l-87 66q-18 13 -31.5 24t-24.5 19l-36 27q-19 14 -36 14q-22 0 -22 -21q0 -24 88 -115t88 -110q0 -21 -22 -21l-19 2zM758 891l-131 -24q9 63 25 113q18 56 48 124v97
q-48 -51 -95 -145q-44 -86 -71 -187l-141 33l107 -152v66h49l39 67h4v-67h47v-60l125 129zM303 498v45q-27 4 -63 24q21 19 63 25v41h96v4l-157 123v-119q-70 -23 -101.5 -40t-31.5 -32q0 -20 32.5 -38.5t100.5 -36.5v-115l157 115v4h-96zM1022 567q0 19 -42 41
q-40 22 -89 33v117l-156 -117l2 -4h88v-43q42 -5 70 -27q-29 -19 -70 -24v-41h-90l-6 -4l162 -119v117q131 39 131 71zM645 497q31 31 31 74q0 44 -31 76q-30 33 -77 33q-42 0 -74 -32q-31 -31 -31 -75q0 -45 32 -77q31 -31 74 -31q44 0 76 32zM625 266l131 -24l6 6
l-125 129v-60h-47v-67h-4l-39 67h-49v66l-107 -152l137 32h4q26 -97 72 -190q49 -96 94 -141v97q-30 64 -47 119.5t-26 117.5z" />
    <glyph glyph-name="uniFD3F" unicode="&#xfd3f;" horiz-adv-x="1251" 
d="M1032 291q-22 0 -117 87q-94 87 -114 87q-23 0 -23 -26q0 -12 51 -83l34 -46q43 -58 58 -80t15 -33q0 -23 -24 -23l-163 29q-32 -117 -136 -261q-102 -141 -227 -257q-122 -113 -165 -113q-9 0 -13.5 6t-4.5 13q0 13 5 18q5 3 97 111q88 103 163 235q73 127 87 250
l-54 -8q-25 -5 -52 -8l-20 -1q-10 0 -16 5.5t-6 15.5q0 20 88 111q88 92 88 114q0 21 -22 21q-17 0 -37 -14l-88 -68q-71 -53 -87 -66q-16 -12 -26 -12q-18 0 -18 45v115q-133 55 -133 112q0 29 35.5 58t97.5 53v113q0 40 18 40q16 0 71 -43l32 -24q60 -46 68 -52
q44 -34 65 -34q22 0 22 19q0 25 -88 116t-88 111q0 21 22 21l29 -3l97 -14q-13 123 -89 255q-71 126 -167 236l-19 23q-74 84 -75 88q-2 6 -2 13q0 5 4.5 11.5t13.5 6.5q43 0 165 -113q123 -113 227 -257q104 -143 136 -261l162 29q25 0 25 -23q0 -17 -34 -61l-79 -106
q-45 -61 -45 -76q0 -10 7 -16.5t19 -6.5q22 0 116 88q95 88 114 88q14 0 21.5 -10.5t7.5 -26.5v-131q67 -36 99 -63t32 -50q0 -60 -131 -108v-114q0 -52 -29 -52zM713 869q-27 101 -71 188q-48 95 -95 144v-97q32 -73 48 -124q16 -50 25 -113l-131 24l-6 -6l125 -129v60h47
v67h4l39 -67h49v-66l107 152zM1138 569q0 14 -32 31.5t-101 40.5v119l-157 -123v-4h96v-41q41 -6 63 -25q-32 -19 -63 -24v-45h-96v-4l157 -115v115q133 34 133 75zM422 502v41q-44 6 -70 24q28 22 70 27v43h88l2 4l-156 117v-117q-48 -11 -90 -33q-41 -23 -41 -41
q0 -32 131 -71v-117l162 119l-6 4h-90zM752 496q32 32 32 77q0 43 -31 75t-76 32q-44 0 -76 -33q-30 -33 -30 -76q0 -41 30 -74q32 -32 77 -32q43 0 74 31zM749 317h-49l-39 -67h-4v67h-47v60l-125 -129l6 -6l131 24q-9 -62 -26.5 -117t-46.5 -120v-97q47 47 93 140
q47 92 73 192l141 -33l-107 152v-66z" />
    <glyph glyph-name="uni0640.narrow" horiz-adv-x="166" 
d="M175 0h-210q-37 0 -49 16t-12 58v61q0 38 15 51t52 13h199q37 0 51.5 -13t14.5 -51v-70q0 -34 -11.5 -49.5t-49.5 -15.5z" />
    <glyph glyph-name="uni0640.long" horiz-adv-x="382" 
d="M391 0h-424q-37 0 -49 16t-12 58v61q0 38 15 51t52 13h413q37 0 51.5 -13t14.5 -51v-70q0 -34 -11.5 -49.5t-49.5 -15.5z" />
    <glyph glyph-name="uni064B0651" 
d="M-212 2235h419v-128h-419v128zM-212 2043h419v-127h-419v127zM98 1465q-26 0 -53.5 12t-46.5 31q-21 -20 -46.5 -31.5t-51.5 -11.5q-50 0 -86 24.5t-54.5 66t-18.5 91.5v179h122v-182q0 -25 10.5 -40.5t27.5 -15.5t28.5 17.5t11.5 39.5v157h116v-157q0 -22 11.5 -39.5
t28.5 -17.5t27.5 15.5t10.5 40.5v183h122v-181q0 -46 -18 -87.5t-54 -67.5t-87 -26z" />
    <glyph glyph-name="uni06540651" 
d="M-212 2314h419v-127h-419v127zM-212 2123h419v-128h-419v128zM-161 1573h92q-55 54 -55 123q0 79 48.5 126.5t131.5 47.5q46 0 96 -10l-9 -116q-28 7 -44.5 10t-33.5 3q-31 0 -51 -21t-20 -57q0 -44 33.5 -75t78.5 -31h55v-111h-322v111z" />
    <glyph glyph-name="uni0654064E" 
d="M-212 2123h419v-128h-419v128zM-161 1573h92q-55 54 -55 123q0 79 48.5 126.5t131.5 47.5q46 0 96 -10l-9 -116q-28 7 -44.5 10t-33.5 3q-31 0 -51 -21t-20 -57q0 -44 33 -75t79 -31h55v-111h-322v111z" />
    <glyph glyph-name="uni0654064C" 
d="M-189 2237q89 -119 172 -119q13 0 23 3q-49 75 -49 131q0 40 17.5 78t49 62t73.5 24q62 0 99.5 -42t37.5 -117q0 -78 -42 -135.5t-101 -88t-108 -30.5q-46 0 -88 19t-72 63l-71 -75l-67 86zM126 2254q0 49 -33 49q-15 0 -24 -17t-9 -40q0 -37 30 -77q17 14 26.5 37.5
t9.5 47.5zM-161 1573h92q-55 55 -55 123q0 79 48.5 126.5t131.5 47.5q46 0 96 -10l-9 -116q-28 7 -44.5 10t-33.5 3q-31 0 -51 -21t-20 -57q0 -44 33.5 -75t78.5 -31h55v-111h-322v111z" />
    <glyph glyph-name="uni0654064F" 
d="M-9 2120q17 0 31 5q-52 64 -52 128q0 39 17.5 77.5t49.5 63t73 24.5q62 0 99 -40.5t37 -118.5q0 -73 -36.5 -131t-95.5 -90.5t-125 -32.5q-108 0 -202 42l23 118q57 -24 99 -34.5t82 -10.5zM140 2256q0 49 -33 49q-15 0 -24 -17t-9 -40q0 -37 30 -77q17 14 26.5 37.5
t9.5 47.5zM-161 1573h92q-55 54 -55 123q0 79 48.5 126.5t131.5 47.5q46 0 96 -10l-9 -116q-28 7 -44.5 10t-33.5 3q-31 0 -51 -21t-20 -57q0 -43 33 -74.5t77 -31.5h57v-111h-322v111z" />
    <glyph glyph-name="uni06540652" 
d="M0 2012q-51 0 -91 27t-62.5 72t-22.5 98q0 54 22 99t62 71t92 26q51 0 91 -25.5t63 -70t24 -100.5q0 -54 -23 -99.5t-63.5 -71.5t-91.5 -26zM67 2207q0 40 -19 67t-49 27q-27 0 -46.5 -27.5t-19.5 -66.5t19 -65.5t48 -26.5t48 26.5t19 65.5zM-161 1573h92q-55 54 -55 123
q0 79 48.5 126.5t131.5 47.5q46 0 96 -10l-9 -116q-28 7 -44.5 10t-33.5 3q-31 0 -51 -21t-20 -57q0 -43 33 -74.5t77 -31.5h57v-111h-322v111z" />
    <glyph glyph-name="uni06550650" 
d="M-161 -432h92q-55 55 -55 123q0 78 48.5 125.5t131.5 47.5q48 0 96 -9l-9 -116q-28 7 -44.5 10t-33.5 3q-31 0 -51 -21t-20 -57q0 -46 33 -76t80 -30h54v-112h-322v112zM-212 -621h419v-128h-419v128z" />
    <glyph glyph-name="uni0655064D" 
d="M-161 -432h92q-55 55 -55 123q0 78 48.5 125.5t131.5 47.5q48 0 96 -9l-9 -116q-28 7 -44.5 10t-33.5 3q-31 0 -51 -21.5t-20 -56.5q0 -46 33.5 -76t81.5 -30h52v-112h-322v112zM-212 -631h419v-128h-419v128zM-212 -822h419v-128h-419v128z" />
    <glyph glyph-name="uni064406440647" horiz-adv-x="1985" 
d="M1221 82q-67 -82 -179 -82h-279q-188 0 -238 129q-53 -32 -102 -46t-102 -14q-92 0 -167.5 39t-119.5 111t-44 168q0 172 130 300.5t387 203.5v116h222v-698q0 -45 6.5 -68t22 -32.5t44.5 -9.5h170q51 0 73 31t22 104v1106h225v-1142q0 -34 -5 -60q40 -19 89.5 -29
t91.5 -10h172v1238h225v-1437h-403q-140 0 -241 82zM204 424q0 -71 42.5 -114t106.5 -43q37 0 79.5 15.5t74.5 39.5v377q-74 -15 -143 -49t-114.5 -91t-45.5 -135z" />
    <glyph glyph-name="uniFDFA.Farsi" horiz-adv-x="2165" 
d="M1395 1391q116 51 192 92q-19 -54 -87 -85l-370 -169l46 74q103 36 219 88zM403 1428q0 17 17 30q12 -16 19 -34.5t7 -33.5q0 -20 -9.5 -30t-22.5 -10q-7 0 -15 3t-14 7q-10 -19 -35 -19q-22 0 -36.5 15t-14.5 43q0 17 3.5 24.5t12.5 7.5h2q0 -25 8 -37t21 -12
q14 0 14 15q0 6 -5 17.5t-5 16.5q0 17 11 17q12 0 18 -29q6 -27 32 -29l7 1q-15 33 -15 37zM1797 1298q-92 -45 -298 -135q15 -11 15 -27q0 -31 -30 -70q-24 -35 -43 -35l-5 7q0 4 12 26q12 23 12 38q0 21 -24 22q-24 2 -24 5q0 18 37 49q36 31 60 40l446 197l-34 -51
q-38 -24 -124 -66zM734 1083q-83 174 -89 197q-2 12 -2 20q0 24 7 52q11 47 23 51q9 0 13 -13q4 -11 37 -50q29 -34 61 -58q14 -11 15 -15v-2q0 -5 -17 -5l-51 4q61 -128 83 -195q24 -71 24 -152q0 -17 -2 -30t-9 -29l-6 -4q-4 56 -87 229zM1462 871q-54 -21 -180 -21
q-116 0 -157 27q-42 29 -58 94h-4q-6 -23 -22 -46t-31 -34v-4q31 0 58 -13q30 -12 32 -26l-21 -73q0 -3 -49 -37q-53 -37 -116 -61t-121 -24q-200 0 -200 228l1 34q-50 14 -92 91q-13 -50 -37.5 -76.5t-55.5 -26.5q-42 0 -69.5 20.5t-50.5 69.5q-71 -48 -125 -48
q-26 0 -44 12t-18 27q0 71 54 101q55 30 55 50q0 16 -27 43l17 78q1 4 8 4q16 0 45 -53t60 -126q33 -73 104 -73q22 0 36.5 8.5t14.5 23.5q0 18 -23.5 65.5t-68.5 117.5q15 49 25 69q7 16 32 -25q29 -49 44 -79l14 -28q35 -71 64.5 -109.5t70.5 -38.5l41 6
q-107 132 -137 174q-33 47 -33 82q0 24 11 54q12 28 23 28q10 0 23 -30q14 -31 51 -62q38 -32 41 -40q0 -16 -41 -16q66 -86 88 -137q21 -48 21 -102q0 -27 -19 -43t-49 -16h-11q-13 0 -18 3q6 -67 68 -114q62 -45 125 -45q41 0 98 11.5t111 35.5v8q-65 5 -102 13.5
t-44 15.5l29 57q78 27 99 42q22 15 22 55q0 48 -37 132q-37 88 -82 162l13 51q9 37 18 37q5 0 14 -14q7 -11 82 -171q75 -161 91 -186q21 -30 56 -43q39 -14 141 -14q101 0 152 19t51 49q0 5 -2 11.5t-2 8.5q0 4 3 7t6 3q13 0 45 -51q33 -51 92 -51q55 70 111.5 106.5
t109.5 36.5q83 0 114 -73q32 -72 46 -72q-22 -77 -25 -79q-3 -3 -20 -9q-18 -7 -278 -14q-53 0 -76 4q-31 -45 -44 -61.5t-21 -16.5q-2 0 -3 1.5t-1 6.5q0 20 30 78q-25 19 -46 47.5t-30 63.5h-4q-12 -69 -66 -90zM162 1032q8 -8 38 -8q24 0 72 6l-36 74q-11 -19 -32.5 -39
t-41.5 -33zM1987 944q-16 22 -55 44q-41 24 -69 24q-37 0 -80 -25q-44 -24 -65 -53q89 0 169 2q57 1 100 8zM555 805q-11 14 -32 14q-18 0 -71 -35q-52 -34 -83 -34q0 -33 -3 -48t-10 -18q-5 30 -28 57.5t-47 34.5q-7 21 -7 34q0 17 11 17q4 0 27 -12q22 -12 40 -12
q33 0 100 34q68 35 75 35q16 0 29 -10t13 -22q0 -4 -2 -14q-1 -6 -12 -21zM2025 383q0 -16 -22 -64q-151 -19 -225 -19q-34 0 -51 5q-45 17 -74 92h-4q-30 -102 -83 -102q-32 0 -56 18.5t-27 41.5h-4q-17 -68 -111 -68q-50 0 -94 25q-44 26 -57 61q-45 -28 -86.5 -41
t-75.5 -13q-20 0 -48 11q-26 11 -26 35q0 9 11 42q10 31 22 39l116 86l-30 52q10 54 15 67q4 13 13 13q8 0 16 -12t28 -51q7 -14 14 -27.5t14 -27.5l50 -95q16 -28 59 -47q44 -18 89 -18q57 0 75 24q4 20 8 45q5 32 12 32q10 0 10 -20t26 -49q26 -27 55 -27q19 0 32 19
q0 62 -29 138t-88 187l12 56q8 30 16 30q10 -3 22 -29q12 -22 81 -190q67 -163 100 -185q32 -20 50 -20q3 65 34 112q32 48 72 48q37 0 71 -43q36 -43 36 -60q0 -10 -6 -10q-9 0 -36 21q-25 22 -66 22q-24 0 -40 -9.5t-16 -26.5q0 -20 24 -40q25 -19 41 -18l107 6
q10 0 17 -4t7 -12zM1994 720q-7 -4 -296 -136l22 51l308 141q-28 -52 -34 -56zM549 325l-75 150q-56 115 -56 143q0 21 13 51q14 32 23 32q9 -7 12 -18q3 -9 35 -54q33 -41 53 -54q21 -10 21 -23q0 -4 -3 -5.5t-16 -1.5q-9 0 -20 3t-17 9l-5 -4q90 -169 90 -249
q0 -21 -9 -66q-7 -45 -21 -45l-5 2q0 93 -20 130zM358 463q-67 112 -67 141q0 16 11 47q12 31 20 31q12 0 22 -25t47 -63q37 -37 37 -43q0 -7 -7.5 -10.5t-29.5 -3.5q50 -91 63 -124q15 -33 15 -73q0 -113 -77 -113q-44 0 -69.5 20t-39.5 68q-55 -34 -102 -34q-32 0 -46 6.5
t-14 20.5q0 38 9 56q8 18 41 46q31 26 48 34l-22 39q10 10 15 40q6 30 10 30q9 0 13 -7q8 -13 47 -97q44 -91 63 -107t55 -16h10q12 0 14 3l2 5q0 16 -68 129zM738 537l-146 -78l20 51q34 13 108 55q71 41 117 71l-32 -52l-21 -17q-22 -17 -46 -30zM692 247q48 9 110 49
q64 40 64 62q0 12 -19 25q-14 -6 -34 -6q-26 0 -42.5 10.5t-16.5 30.5q0 25 17 68q18 42 44 42q29 0 58 -44q30 -43 30 -113q0 -71 -31 -112.5t-80 -41.5q-21 0 -79 3q-57 3 -64 8v3q0 10 43 16zM1200 412l-49 94q-12 -24 -42 -49.5t-69 -44.5v-4l77 -2q46 0 83 6zM219 350
q12 0 27 3.5t22 4.5l-30 60l-71 -62q31 -6 52 -6zM1442 86l-82 39l39 88l84 -43l28 57l82 -49l-45 -78l-71 39zM1240 182q-16 -24 -107 -70l-86 -42l-238 -99q9 -12 9 -27q0 -24 -21 -48.5t-47 -28.5q17 25 17 48q0 31 -19 34q-16 3 -16 5v5q0 3 3 8l36 42l246 98
q141 57 184 83q46 26 52 26l4 -4q0 -4 -17 -30zM1980 139q-48 -20 -262 -123l19 56l252 116l49 27q-6 -52 -58 -76zM1698 -23q17 0 39 -39q22 -38 22 -72q0 -47 -21 -74.5t-53 -27.5q-20 0 -35 7.5t-30 23.5q-14 -18 -29 -25.5t-34 -7.5q-28 0 -57 18t-50 48
q-78 -41 -259 -71q-179 -31 -374 -31q-175 0 -247 31q-74 32 -101 108h-4q-9 -32 -27.5 -53.5t-44.5 -21.5q-17 -54 -36.5 -76.5t-47.5 -22.5q-25 0 -44.5 20.5t-22.5 65.5v2h-4q-23 -42 -86 -74q-61 -33 -89 -33h-9l-1 4q0 11 21 17q25 8 90 79q67 72 69 134q11 6 20 26
t9 38q0 17 12 22q24 -4 57 -57q33 -52 68 -52q17 0 28 9.5t11 23.5q0 29 -31 98q-30 73 -61 121q0 3 8 40q8 36 17 38q16 -3 62 -115q47 -111 84 -175q37 -63 115 -79q77 -16 191 -16q219 0 364 22q147 22 206 48q58 26 55 26q10 0 47 -29q36 -30 63 -30l27 4q0 92 20 92h2
h1q3 0 4 -22q2 -26 27 -51q26 -27 69 -27l-37 53q4 27 11.5 45t15.5 18zM1868 -122q0 36 17 73q17 35 42 35q31 0 59 -43q29 -44 29 -113q0 -73 -34 -113q-35 -41 -69 -41q-11 0 -86 8q-71 8 -74 16q0 6 3 6q81 9 152 45t71 67q0 6 -6.5 13.5t-13.5 10.5l-33 -3
q-26 0 -41.5 9.5t-15.5 29.5zM326 -217q12 0 28 8l-80 88q0 -41 14.5 -68.5t37.5 -27.5zM1393 -276q6 -8 6 -21q0 -20 -11 -32.5t-26 -12.5q-14 0 -25 12q-14 -22 -47 -22q-9 0 -21 12q-12 10 -19 10q-11 0 -59 -33q-47 -34 -121 -34l-31 1q-24 1 -28 7v4q0 4 33 4
q53 0 130 44t86 44q8 0 21.5 -11t18.5 -11q23 0 32 17q11 17 14 17l5 -2q1 0 4.5 -12t14.5 -12l8 2q0 11 3.5 17.5t11.5 11.5z" />
    <glyph glyph-name="uni0660.pnum" horiz-adv-x="558" 
d="M447 478l-172 -172l-164 164l172 172z" />
    <glyph glyph-name="uni0661.pnum" horiz-adv-x="558" 
d="M161 1436h230v-1436h-230v1436z" />
    <glyph glyph-name="uni0662.pnum" horiz-adv-x="817" 
d="M121 1436h652v-233h-398l121 -1203h-219z" />
    <glyph glyph-name="uni0663.pnum" horiz-adv-x="1018" 
d="M106 1434h227l21 -258q22 -9 33 -9q43 0 64.5 64.5t23.5 204.5h206q0 -149 -37 -261q21 -8 37 -8q94 0 94 269h200q-4 -461 -274 -461q-36 0 -77 13.5t-74 34.5q-40 -22 -70 -30.5t-69 -8.5q-20 0 -34 2l99 -986h-224z" />
    <glyph glyph-name="uni0664.pnum" horiz-adv-x="784" 
d="M448 -34q-84 0 -158 27.5t-120.5 86t-46.5 146.5q0 81 30 156.5t74.5 139.5t114.5 149q-205 121 -205 283q0 134 120 276q122 143 330 206v-236q-115 -40 -179 -104q-63 -64 -63 -115q0 -41 74 -85q70 -40 127 -84q54 -42 54 -77q0 -67 -132 -213q-131 -146 -131 -223
q0 -48 40.5 -70.5t125.5 -22.5q81 0 237 60l-13 -237q-59 -30 -134 -46.5t-145 -16.5z" />
    <glyph glyph-name="uni0665.pnum" horiz-adv-x="1004" 
d="M499 -38q-132 0 -216 68t-121 180t-37 251q0 241 121 440t260 199q113 0 193.5 -101t125.5 -236q52 -157 52 -323q0 -115 -43 -225.5t-128.5 -181.5t-206.5 -71zM663 479q0 91 -20 176.5t-58.5 139.5t-90.5 54q-45 0 -81 -48.5t-56 -132t-20 -183.5q0 -138 43 -213
t126 -75q59 0 94 46t49 110.5t14 125.5z" />
    <glyph glyph-name="uni0666.pnum" horiz-adv-x="917" 
d="M440 1203h-399v233h603l145 -1436h-220z" />
    <glyph glyph-name="uni0667.pnum" horiz-adv-x="1020" 
d="M36 1436h242l249 -1000l221 1000h229l-373 -1436h-160z" />
    <glyph glyph-name="uni0668.pnum" horiz-adv-x="1020" 
d="M487 1001l-220 -1001h-231l373 1436h159l409 -1436h-239z" />
    <glyph glyph-name="uni0669.pnum" horiz-adv-x="952" 
d="M532 615h-130q-107 0 -189 49.5t-127 138.5t-45 203q0 108 44 207t124.5 161t185.5 62q76 0 144.5 -37t117 -117.5t58.5 -204.5l109 -1077h-221zM361 1223q-41 0 -68.5 -31t-40 -76.5t-12.5 -88.5q0 -104 55 -150.5t138 -46.5h76l-22 204q-21 189 -126 189z" />
    <glyph glyph-name="uni06F0.pnum" horiz-adv-x="558" 
d="M447 478l-172 -172l-164 164l172 172z" />
    <glyph glyph-name="uni06F1.pnum" horiz-adv-x="558" 
d="M161 1436h230v-1436h-230v1436z" />
    <glyph glyph-name="uni06F2.pnum" horiz-adv-x="817" 
d="M121 1436h652v-233h-398l121 -1203h-219z" />
    <glyph glyph-name="uni06F3.pnum" horiz-adv-x="1018" 
d="M106 1434h227l21 -258q22 -9 33 -9q43 0 64.5 64.5t23.5 204.5h206q0 -149 -37 -261q21 -8 37 -8q94 0 94 269h200q-4 -461 -274 -461q-36 0 -77 13.5t-74 34.5q-40 -22 -70 -30.5t-69 -8.5q-20 0 -34 2l99 -986h-224z" />
    <glyph glyph-name="uni06F4.pnum" horiz-adv-x="1105" 
d="M121 1436h234l29 -324q7 -2 29.5 -11t42.5 -14.5t38 -7.5q-30 49 -49 107.5t-19 108.5q0 78 29 142t86 102t136 38q15 0 44.5 -3.5t54.5 -8.5v-182q-56 7 -82 7q-40 0 -62.5 -32.5t-22.5 -89.5q0 -49 28.5 -105.5t66.5 -92.5q62 16 101.5 84.5t47.5 186.5h206
q-10 -240 -110 -368t-275 -128q-128 0 -265 37l97 -882h-238z" />
    <glyph glyph-name="uni06F5.pnum" horiz-adv-x="1138" 
d="M565 27q-84 -61 -173 -61q-135 0 -202 124t-67 374q0 438 125 705q126 267 323 267q196 0 319 -261q121 -258 121 -689q0 -168 -30.5 -285t-87 -177t-134.5 -60q-85 0 -194 63zM574 274q43 -31 62 -41.5t33 -10.5q58 0 85.5 78t27.5 248q0 274 -65 463q-64 189 -159 189
q-98 0 -157 -183q-58 -181 -58 -471q0 -111 10 -178.5t38 -104t80 -39.5q19 0 38 9.5t65 40.5z" />
    <glyph glyph-name="uni06F6.pnum" horiz-adv-x="1029" 
d="M187 -94l-150 179q105 132 201 243.5t200 218.5q-134 99 -195 203.5t-61 232.5q0 125 52 228.5t148.5 164t223.5 60.5q55 0 122 -12.5t120 -33.5v-249q-64 32 -119 45.5t-108 13.5q-58 0 -104.5 -29t-72.5 -79.5t-26 -110.5q0 -79 38 -148t126 -145q151 142 285 244
l118 -182q-166 -130 -295.5 -254.5t-245.5 -262t-257 -327.5z" />
    <glyph glyph-name="uni06F7.pnum" horiz-adv-x="1020" 
d="M36 1436h242l249 -1000l221 1000h229l-373 -1436h-160z" />
    <glyph glyph-name="uni06F8.pnum" horiz-adv-x="1020" 
d="M487 1001l-220 -1001h-231l373 1436h159l409 -1436h-239z" />
    <glyph glyph-name="uni06F9.pnum" horiz-adv-x="952" 
d="M532 615h-130q-107 0 -189 49.5t-127 138.5t-45 203q0 108 44 207t124.5 161t185.5 62q76 0 144.5 -37t117 -117.5t58.5 -204.5l109 -1077h-221zM361 1223q-41 0 -68.5 -31t-40 -76.5t-12.5 -88.5q0 -104 55 -150.5t138 -46.5h76l-22 204q-21 189 -126 189z" />
    <glyph glyph-name="uni06F4.Urdu" horiz-adv-x="961" 
d="M93 1013q-1 6 -4 35.5t-3 76.5q0 78 25 146t77.5 110t130.5 42q67 0 140 -41.5t141 -120.5q46 61 108 107.5t123 67.5v-266q-63 -25 -121 -81t-103 -147q-24 49 -66 103.5t-88 91.5t-80 37q-49 0 -49 -118q0 -33 6 -102l92 -954h-221z" />
    <glyph glyph-name="uni06F7.Urdu" horiz-adv-x="961" 
d="M76 231q0 70 18 143t50 157l348 905h239l-381 -998q-39 -105 -39 -138q0 -52 61 -52h454l-43 -248h-443q-126 0 -195 58t-69 173z" />
    <glyph glyph-name="uni06F4.Urdupnum" horiz-adv-x="913" 
d="M130 1013q-1 6 -4 35.5t-3 76.5q0 78 25 146t77.5 110t130.5 42q67 0 140 -41.5t141 -120.5q46 61 108 107.5t123 67.5v-266q-63 -25 -121 -81t-103 -147q-24 49 -66 103.5t-88 91.5t-80 37q-49 0 -49 -118q0 -33 6 -102l92 -954h-221z" />
    <glyph glyph-name="uni06F7.Urdupnum" horiz-adv-x="875" 
d="M76 231q0 70 18 143t50 157l348 905h239l-381 -998q-39 -105 -39 -138q0 -52 61 -52h454l-43 -248h-443q-126 0 -195 58t-69 173z" />
    <glyph glyph-name="xx.beh" horiz-adv-x="1550" 
d="M0 386q0 51 5 104.5t14 129.5l200 -20q-9 -56 -12 -89.5t-3 -76.5q0 -85 33 -136.5t102.5 -75t181.5 -23.5h692v637h223v-836h-967q-242 0 -355.5 94t-113.5 292z" />
    <glyph glyph-name="xx.beh.fina" horiz-adv-x="1568" 
d="M1576 0h-18q-149 0 -249 82q-61 -82 -177 -82h-666q-171 0 -273.5 46t-147.5 133t-45 216q0 55 7 118t8 77q2 10 4 30l200 -20q-8 -54 -11.5 -88.5t-3.5 -70.5q0 -86 30.5 -138.5t100 -78t188.5 -25.5h541q50 0 71 32t21 102v502h225v-537q0 -23 -4 -60q39 -18 87 -28.5
t89 -10.5h18q37 0 51.5 -13t14.5 -51v-60q0 -44 -11.5 -59.5t-49.5 -15.5z" />
    <glyph glyph-name="xx.feh" horiz-adv-x="1782" 
d="M0 395q0 55 7 118t8 77q2 10 4 30l200 -20q-15 -95 -15 -165q0 -85 33 -137t102.5 -75.5t181.5 -23.5h488q-54 104 -54 236q0 117 49 218.5t136 162t195 60.5q114 0 192 -56.5t116.5 -154t38.5 -219.5v-446h-1208q-165 0 -269 41t-154.5 128t-50.5 226zM1324 673
q-54 0 -89 -35.5t-51 -89t-16 -108.5q0 -59 21 -114.5t63.5 -91t103.5 -35.5h103v211q0 129 -33.5 196t-101.5 67z" />
    <glyph glyph-name="xx.feh.init" horiz-adv-x="1028" 
d="M-72 74v61q0 38 15 51t52 13h271q-27 41 -43 105t-16 131q0 119 48 220t134.5 161t196.5 60q113 0 190.5 -56t116.5 -153t39 -222v-445h-943q-37 0 -49 16t-12 58zM576 673q-54 0 -89 -35t-51 -88.5t-16 -109.5q0 -58 21 -113.5t63 -91.5t102 -36h103v209
q0 132 -33.5 198.5t-99.5 66.5z" />
    <glyph glyph-name="xx.feh.medi" horiz-adv-x="1019" 
d="M1027 0h-138q-138 0 -319 33q-69 -12 -212 -22.5t-228 -10.5h-140q-37 0 -49 16t-12 58v61q0 38 15 51t52 13h221q-33 45 -55.5 118.5t-22.5 134.5q0 117 50 213.5t141.5 153.5t208.5 57q108 0 183.5 -55.5t112.5 -142t37 -179.5q0 -62 -17 -144q-18 -86 -44 -156h211
q37 0 51.5 -13t14.5 -51v-60q0 -44 -11.5 -59.5t-49.5 -15.5zM647 458q0 105 -38 166t-104 61q-69 0 -110.5 -56t-41.5 -156q0 -64 24.5 -127.5t72.5 -105t115 -41.5h15q30 64 48.5 132t18.5 127z" />
    </font>
</defs>
</svg>
